<svg width="298" height="48" viewBox="0 0 298 48" fill="none" xmlns="http://www.w3.org/2000/svg">
<g clip-path="url(#clip0_6_61)">
<path d="M141 8.90762H158.522H174.317V0.0131836H141V8.90762Z" fill="#FF0000"/>
<path d="M89.0229 15.1251C89.0229 6.40336 83.1037 0.0131836 73.4242 0.0131836H51.7023V8.79771H72.0033C75.9677 8.79771 78.9666 11.1528 78.9666 15.1251C78.9666 19.0974 75.9677 21.4054 72.0033 21.4054H61.5859V14.0731H51.7023V46.9739H61.5859V30.237H68.8632L77.9774 46.8876H89.2741L78.8331 29.0359C83.8652 27.8191 89.0229 23.4151 89.0229 15.1251Z" fill="#FF0000"/>
<path d="M112.535 0.0131836H93.9843V8.82127H112.519C122.175 8.82127 127.246 15.235 127.246 23.5485C127.246 31.5088 121.822 38.2051 112.519 38.2051H103.405V14.1124H93.9843V47.0132H112.519C127.246 47.0132 137.46 37.7105 137.46 23.5485C137.46 9.38649 127.262 0.0131836 112.535 0.0131836Z" fill="#FF0000"/>
<path d="M223.57 14.1123V47.0131H233.807V14.1123H231.891H223.57Z" fill="#FF0000"/>
<path d="M247.686 0.0131836H209.612V8.90762H247.686V0.0131836Z" fill="#FF0000"/>
<path d="M277.502 0.0131836H269.455V23.368H277.502V0.0131836Z" fill="#FF0000"/>
<path d="M281.309 0.0761719V8.845C284.416 10.5824 286.859 13.3014 288.255 16.5761C289.652 19.8507 289.922 23.496 289.024 26.9409C288.127 30.3857 286.112 33.4354 283.295 35.6122C280.478 37.789 277.019 38.97 273.459 38.97C269.899 38.97 266.44 37.789 263.623 35.6122C260.806 33.4354 258.791 30.3857 257.893 26.9409C256.996 23.496 257.266 19.8507 258.662 16.5761C260.058 13.3014 262.501 10.5824 265.608 8.845V0.0761719C260.209 1.93377 255.643 5.64594 252.722 10.5528C249.802 15.4596 248.716 21.2431 249.657 26.8752C250.599 32.5073 253.507 37.6229 257.865 41.3128C262.223 45.0026 267.749 47.0275 273.459 47.0275C279.169 47.0275 284.694 45.0026 289.052 41.3128C293.41 37.6229 296.319 32.5073 297.26 26.8752C298.202 21.2431 297.116 15.4596 294.195 10.5528C291.275 5.64594 286.709 1.93377 281.309 0.0761719Z" fill="#FF0000"/>
<path d="M19.516 21.6724H9.75798H9.43611L0 47.0133H10.9198L16.5485 30.4255H17.938H22.8209L20.0576 21.6724H19.516Z" fill="#FF0000"/>
<path d="M18.6288 0.0131836L36.0802 47.0132H47L29.6743 0.0131836H18.6288Z" fill="#FF0000"/>
<path d="M189.397 13.0447C189.397 10.3128 191.611 8.47585 195.576 8.47585H199.964V0.0131836H196.447C186.241 0.0131836 179.961 6.29346 179.961 13.8612C179.961 30.9828 204.941 25.4561 204.941 33.487C204.941 36.0777 202.468 38.5348 197.389 38.5348C194.788 38.5293 192.217 37.9796 189.842 36.921C187.466 35.8623 185.339 34.3183 183.596 32.388L178.587 39.7595C182.622 44.0615 188.604 46.9896 196.934 46.9896C208.646 46.9896 214.306 40.7094 214.306 32.388C214.314 15.4313 189.397 20.2671 189.397 13.0447Z" fill="#FF0000"/>
<path d="M150.397 27.9603H160.532H173.901V19.0659H150.397V14.1123H141V38.1187V47.0131H150.397H158.522H174.317V38.1187H150.397V27.9603Z" fill="#FF0000"/>
</g>
<defs>
<clipPath id="clip0_6_61">
<rect width="297.614" height="47" fill="white" transform="translate(0 0.0131836)"/>
</clipPath>
</defs>
</svg>
