<svg width="48" height="48" viewBox="0 0 48 48" fill="none" xmlns="http://www.w3.org/2000/svg">
<path d="M24.4809 5.92773C24.0121 5.92773 23.5935 6.14275 23.3185 6.47957L23.2043 6.56599C18.9155 5.26587 14.0634 6.30091 10.6715 9.67111C7.65437 12.6689 6.49677 16.8147 7.19865 20.6934L7.16861 20.7228L5.25431 22.625C3.58971 24.2788 3.58971 26.9604 5.25431 28.6144C6.23223 29.586 7.56713 29.987 8.83955 29.817C9.02705 30.5094 9.39431 31.164 9.94131 31.7074C10.6848 32.4462 11.6346 32.855 12.6065 32.9338C12.6856 33.8996 13.0971 34.8436 13.8407 35.5824C14.6185 36.3554 15.6222 36.767 16.6406 36.8176C16.6917 37.8294 17.106 38.8262 17.8837 39.599C19.4042 41.1098 21.7879 41.2406 23.4577 39.9912L24.2307 40.7592C25.9035 42.4212 28.6153 42.4212 30.2881 40.7592C31.0289 40.023 31.4415 39.0848 31.5261 38.1232C32.4919 38.041 33.4349 37.6328 34.1743 36.898C34.9157 36.1616 35.3267 35.2218 35.4081 34.2598C36.3613 34.1706 37.2901 33.7634 38.0203 33.0378C38.5927 32.4692 38.9683 31.779 39.1471 31.051C40.4005 31.1998 41.7075 30.7962 42.6693 29.8406C44.3339 28.1866 44.3339 25.5052 42.6693 23.8512L41.0023 22.1948L41.3449 20.8618C42.0895 17.9632 41.7151 14.893 40.2959 12.2561C38.2009 8.36307 34.1225 5.93775 29.6891 5.93775H26.4757C26.3387 5.93109 26.2011 5.92773 26.0627 5.92773H24.4809ZM30.3293 15.818L37.2567 22.701L37.2645 22.7092L37.2911 22.7364L40.5411 25.9656C41.0305 26.4518 41.0305 27.24 40.5411 27.7262C40.0519 28.2122 39.2587 28.2122 38.7693 27.7262L35.5193 24.4968C34.9317 23.913 33.9789 23.913 33.3913 24.4968L33.3587 24.5292C32.7709 25.1132 32.7709 26.0598 33.3587 26.6438L35.8923 29.1612C36.3819 29.6478 36.3819 30.4366 35.8923 30.9232C35.4459 31.3666 34.7443 31.4066 34.2543 31.0402C33.6529 30.5906 32.8097 30.6516 32.2801 31.1832C31.7507 31.7146 31.6977 32.553 32.1563 33.146C32.5331 33.6334 32.4957 34.337 32.0463 34.7836C31.5931 35.2338 30.8773 35.2678 30.3863 34.8838C29.7889 34.4164 28.9343 34.4654 28.3949 34.998C27.8553 35.5306 27.8007 36.3794 28.2673 36.976C28.6547 37.4712 28.6181 38.1894 28.1599 38.6448C27.6625 39.1388 26.8563 39.1388 26.3589 38.6448L25.6155 37.906L25.8259 37.6968C27.4905 36.043 27.4905 33.3614 25.8259 31.7074C25.0481 30.9346 24.0445 30.5228 23.0261 30.4722C22.9751 29.4606 22.5607 28.4636 21.7831 27.691C21.0395 26.9522 20.0897 26.5434 19.118 26.4646C19.0388 25.4988 18.6273 24.5548 17.8837 23.8158C16.9057 22.8442 15.5708 22.4434 14.2984 22.6134C14.1109 21.9208 13.7437 21.2664 13.1966 20.7228C12.334 19.8657 11.1935 19.4528 10.0632 19.4841C9.76959 16.7386 10.6817 13.8899 12.7996 11.7856C14.768 9.82977 17.3837 8.90885 19.9615 9.02287L16.9666 11.2919C14.9189 12.8434 14.5244 15.7579 16.0861 17.7979C17.6441 19.8332 20.5605 20.228 22.6035 18.68L26.3811 15.818H30.3293ZM18.7783 13.6831L25.0549 8.92773H26.0627C26.1617 8.92773 26.2599 8.93037 26.3573 8.93559C26.3839 8.93703 26.4107 8.93775 26.4375 8.93775H29.6891C33.0255 8.93775 36.0855 10.7629 37.6543 13.6777C38.6437 15.5163 38.9541 17.6347 38.5419 19.6681L32.1177 13.2752C31.8351 12.983 31.4459 12.818 31.0395 12.818H25.8771C25.5499 12.818 25.2319 12.9249 24.9711 13.1224L20.7919 16.2888C20.0647 16.8397 19.0227 16.6987 18.4682 15.9743C17.9172 15.2546 18.0558 14.2305 18.7783 13.6831ZM12.0694 29.593C11.7336 29.2592 11.6283 28.7834 11.7534 28.3604C11.8106 28.1672 11.916 27.985 12.0694 27.8324L13.9837 25.9304C14.473 25.4442 15.2663 25.4442 15.7555 25.9304C16.2392 26.411 16.2448 27.1868 15.7721 27.674L15.755 27.691L13.8407 29.593L13.8242 29.6096C13.6743 29.753 13.4973 29.8522 13.3099 29.9068C12.8842 30.0312 12.4052 29.9266 12.0694 29.593ZM11.0869 22.856C11.2378 23.0122 11.3398 23.1982 11.3927 23.3942C11.5047 23.8098 11.3967 24.2718 11.0685 24.5978L9.15423 26.5C8.66495 26.986 7.87169 26.986 7.38243 26.5C6.89315 26.0138 6.89315 25.2256 7.38243 24.7394L9.29673 22.8374C9.78601 22.3512 10.5793 22.3512 11.0685 22.8374L11.0869 22.856ZM21.7835 37.4844C21.6299 37.6372 21.4461 37.742 21.2511 37.7988C20.8259 37.9226 20.3473 37.8178 20.0117 37.4844C19.6762 37.151 19.5708 36.6756 19.6955 36.253C19.7526 36.0594 19.858 35.8768 20.0117 35.724L21.9261 33.822C22.4153 33.3358 23.2087 33.3358 23.6979 33.822C24.1871 34.308 24.1871 35.0962 23.6979 35.5824L21.7835 37.4844ZM17.7407 33.468C17.5873 33.6204 17.4041 33.725 17.2098 33.7818C16.784 33.9064 16.3048 33.8018 15.9689 33.468C15.6329 33.1342 15.5276 32.658 15.653 32.235C15.7081 32.049 15.8079 31.8732 15.9523 31.7242L15.9693 31.7074L17.8837 29.8054L17.9002 29.7888C18.3906 29.3194 19.1713 29.325 19.6549 29.8054C20.1443 30.2916 20.1443 31.0798 19.6549 31.566L17.7407 33.468Z" fill="url(#paint0_linear_208_574)"/>
<defs>
<linearGradient id="paint0_linear_208_574" x1="4.00586" y1="42.0057" x2="39.9006" y2="2.29647" gradientUnits="userSpaceOnUse">
<stop stop-color="#7081F6"/>
<stop offset="1" stop-color="#31C5F9"/>
</linearGradient>
</defs>
</svg>
