<svg width="16" height="16" viewBox="0 0 16 16" fill="none" xmlns="http://www.w3.org/2000/svg">
<path d="M8.5909 2.13209C8.5741 2.12369 6.9097 1.33329 5.5853 1.23249C4.1933 1.12409 2.7985 1.86289 2.7841 1.87089L2.5957 1.51769C2.6565 1.48529 4.1077 0.720894 5.6157 0.833294C7.0153 0.940494 8.6925 1.73769 8.7633 1.77129L8.5909 2.13209Z" fill="#005FB9"/>
<path d="M7.18301 2.91886L7.00781 2.55926L8.37981 1.89046L7.49341 0.672456L7.81701 0.437256L8.98381 2.04046L7.18301 2.91886Z" fill="#005FB9"/>
<path d="M1.21146 3.96558L1.03906 3.60478C1.10986 3.57118 2.78706 2.77398 4.18706 2.66678C5.69026 2.55718 7.14586 3.31878 7.20666 3.35118L7.01826 3.70438C7.00426 3.69678 5.60506 2.95758 4.21746 3.06598C2.89306 3.16678 1.22826 3.95758 1.21146 3.96558Z" fill="#005FB9"/>
<path d="M2.61761 4.75235L0.816406 3.87395L1.98321 2.27075L2.30681 2.50595L1.42041 3.72395L2.79241 4.39275L2.61761 4.75235Z" fill="#005FB9"/>
<path d="M10.1358 15.7752C9.62659 15.7752 9.11019 15.72 8.64299 15.616C7.84579 15.4384 6.16859 14.1588 5.81379 13.7912C5.49299 13.4588 4.63379 12.1828 4.50779 11.1448C4.45259 10.6928 4.79939 9.34599 5.22379 8.86679C5.30739 8.77279 5.39499 8.70959 5.48459 8.67839C5.46659 8.63719 5.44819 8.59599 5.42979 8.55519C5.15379 7.95439 4.74499 7.26039 4.38419 6.64759C3.77339 5.60999 3.54579 5.19559 3.58419 4.95959C3.64859 4.55959 3.97659 4.09799 4.41339 4.01719L4.49059 4.00159C4.59139 3.98039 4.70539 3.95679 4.83419 3.95679C5.21539 3.95679 5.56459 4.17439 5.93379 4.64119C6.25339 5.04559 6.77099 6.16199 7.20659 7.17199C7.18659 6.91759 7.19419 6.70519 7.24779 6.58119C7.46379 6.07999 8.06619 5.88279 8.24979 5.87119L8.29499 5.86999C8.41139 5.86999 9.00699 5.89919 9.28299 6.47839C9.32699 6.57119 9.36899 6.67119 9.40779 6.77239C9.45739 6.60039 9.52779 6.45039 9.62819 6.36479C9.93699 6.10239 10.3598 5.96639 10.6474 6.04719C10.9566 6.13399 11.217 6.46119 11.311 6.88239C11.3514 6.79119 11.4002 6.71719 11.4578 6.67399C11.7374 6.46439 12.2238 6.44199 12.5318 6.65559C12.9078 6.91639 13.7726 8.47879 13.9246 9.84519C14.049 10.9684 14.1894 12.9756 13.7258 13.8028C13.2442 14.6608 12.259 15.3272 11.5474 15.5828C11.201 15.7064 10.6998 15.7752 10.1358 15.7752ZM5.62779 9.06319C5.36219 9.08959 4.84179 10.5776 4.90459 11.0956C5.01739 12.0268 5.81699 13.218 6.10179 13.5132C6.44059 13.8644 8.04459 15.0724 8.72939 15.2248C9.16899 15.3228 9.65459 15.3748 10.1354 15.3748C10.647 15.3748 11.1118 15.3128 11.411 15.2048C11.949 15.0116 12.9154 14.4264 13.3758 13.6052C13.675 13.0728 13.7298 11.7176 13.5262 9.88839C13.3818 8.58519 12.539 7.14679 12.3034 6.98279C12.1142 6.85199 11.799 6.91599 11.697 6.99279C11.6406 7.05719 11.557 7.43399 11.5246 7.79279L11.4242 8.89959L11.1326 7.82719C11.1326 7.82719 11.003 7.35119 10.9214 6.97399C10.8518 6.65519 10.6742 6.46879 10.5386 6.43119C10.3894 6.38879 10.0898 6.49559 9.88699 6.66839C9.77659 6.76239 9.69459 7.30559 9.69099 7.73359L9.67579 9.39639L9.29619 7.77719C9.29459 7.76999 9.13579 7.09599 8.92179 6.64919C8.74899 6.28679 8.36899 6.26839 8.29499 6.26839C8.17859 6.27639 7.75259 6.41959 7.61499 6.73839C7.51899 6.96199 7.73659 8.12879 7.99299 9.08119L7.61379 9.20599C7.60059 9.17119 6.20659 5.62919 5.62059 4.88799C5.24379 4.41119 4.99179 4.35599 4.83499 4.35599C4.74699 4.35599 4.66219 4.37359 4.57299 4.39239L4.48699 4.40959C4.26219 4.45119 4.02579 4.73799 3.97899 5.02319C3.98259 5.17599 4.39659 5.87919 4.72939 6.44439C5.09459 7.06519 5.50899 7.76879 5.79339 8.38759C5.86579 8.54479 5.93299 8.70839 5.99499 8.87559L5.99579 8.87839C6.42979 9.47639 6.64579 11.4432 6.66939 11.6692L6.27219 11.7152C6.27059 11.7012 6.08739 10.3004 5.64339 9.07799C5.63699 9.07119 5.63179 9.06639 5.62779 9.06319Z" fill="#005FB9"/>
</svg>
