<svg width="198" height="180" viewBox="0 0 198 180" fill="none" xmlns="http://www.w3.org/2000/svg">
<g filter="url(#filter0_d_204_327)">
<path fill-rule="evenodd" clip-rule="evenodd" d="M138.614 80.505L79.9693 54.4322C77.3253 53.2567 74.3128 53.1986 71.5946 54.2708C68.8763 55.3429 66.675 57.4574 65.4749 60.149L54.1593 85.5279C51.659 91.1356 54.0951 97.6602 58.975 99.8297L74.5636 106.76C80.8237 109.543 80.4894 121.42 84.137 123.042C87.7846 124.664 97.0777 116.77 102.697 119.268L118.249 126.182C120.893 127.357 123.905 127.416 126.623 126.343C129.342 125.271 131.543 123.157 132.743 120.465L144.059 95.0863C145.259 92.3946 145.359 89.3462 144.338 86.6117C143.317 83.8772 141.258 81.6805 138.614 80.505Z" fill="#6FC7F6"/>
</g>
<g clip-path="url(#clip0_204_327)">
<path d="M107.924 82.9485L104.269 81.2601C103.929 81.1028 103.527 81.1111 103.143 81.2823L96.749 84.1377C96.7423 84.141 96.7332 84.1497 96.7264 84.1531C95.6368 84.6566 95.0377 85.987 95.2612 87.0906C95.4601 88.0796 96.5055 88.8013 97.5822 88.3369C97.5889 88.3336 97.5974 88.3375 97.6041 88.3341L102.803 86.0108C103.224 85.8247 103.649 86.0465 103.74 86.5082C103.836 86.9719 103.566 87.4993 103.142 87.6907L101.444 88.4491L104.736 97.5984C104.801 97.7831 104.847 97.9725 104.883 98.1633L109.637 87.8702L108.655 83.8927C108.552 83.4576 108.286 83.1155 107.924 82.9485ZM110.998 88.5118L105.497 100.422C105.063 101.363 105.32 102.405 106.073 102.753L108.796 104.011L115.084 90.3987L110.998 88.5118ZM107.54 101.365C107.166 101.192 107.036 100.668 107.252 100.2C107.468 99.7317 107.952 99.4902 108.326 99.6632C108.701 99.8361 108.83 100.361 108.614 100.829C108.398 101.297 107.915 101.538 107.54 101.365ZM81.5637 91.4263L84.2872 92.6843C85.0404 93.0322 86.0003 92.5526 86.4352 91.611L91.9337 79.7063L87.8484 77.8193L81.5637 91.4263ZM85.1763 88.9707C85.5508 89.1437 85.6803 89.6682 85.464 90.1363C85.2478 90.6044 84.7645 90.8459 84.3901 90.6729C84.0156 90.4999 83.8861 89.9754 84.1023 89.5073C84.321 89.0339 84.8018 88.7977 85.1763 88.9707ZM103.269 98.5278L99.8934 89.1462L97.941 90.0194C96.0113 90.8772 94.139 89.8446 93.7213 87.7864C93.2989 85.6938 94.5062 83.3147 96.4072 82.4631L101.728 80.0866L98.1623 78.4395C97.8006 78.2725 97.3724 78.2941 96.9696 78.4953L93.3004 80.3246L87.7994 92.2347L88.5781 92.5944L90.4172 98.7298C91.0353 100.455 92.8534 101.023 94.4756 100.004L94.489 99.9973L94.87 101.174C95.2272 102.178 96.2886 102.507 97.2283 101.914L99.5129 100.478L99.6345 100.818C99.9448 101.678 100.854 101.969 101.665 101.453L102.357 101.017C103.172 100.503 103.577 99.3929 103.269 98.5278Z" fill="white"/>
</g>
<defs>
<filter id="filter0_d_204_327" x="0.646126" y="0.988655" width="196.909" height="178.637" filterUnits="userSpaceOnUse" color-interpolation-filters="sRGB">
<feFlood flood-opacity="0" result="BackgroundImageFix"/>
<feColorMatrix in="SourceAlpha" type="matrix" values="0 0 0 0 0 0 0 0 0 0 0 0 0 0 0 0 0 0 127 0" result="hardAlpha"/>
<feOffset/>
<feGaussianBlur stdDeviation="26.259"/>
<feComposite in2="hardAlpha" operator="out"/>
<feColorMatrix type="matrix" values="0 0 0 0 0.266667 0 0 0 0 0.690196 0 0 0 0 0.972549 0 0 0 0.4 0"/>
<feBlend mode="normal" in2="BackgroundImageFix" result="effect1_dropShadow_204_327"/>
<feBlend mode="normal" in="SourceGraphic" in2="effect1_dropShadow_204_327" result="shape"/>
</filter>
<clipPath id="clip0_204_327">
<rect width="30" height="30" fill="white" transform="translate(90.998 71) rotate(24.7912)"/>
</clipPath>
</defs>
</svg>
