<svg width="197" height="185" viewBox="0 0 197 185" fill="none" xmlns="http://www.w3.org/2000/svg">
<g filter="url(#filter0_d_204_320)">
<path fill-rule="evenodd" clip-rule="evenodd" d="M112.365 54.9221L58.2066 89.3586C55.7649 90.9112 54.0423 93.3711 53.4178 96.1973C52.7933 99.0234 53.3181 101.984 54.8766 104.428L69.5719 127.473C72.8189 132.565 79.5682 134.07 84.0747 131.204L98.4708 122.05C104.252 118.374 113.887 125.056 117.256 122.914C120.624 120.773 119.262 108.83 124.452 105.53L138.814 96.3985C141.256 94.8459 142.978 92.386 143.603 89.5599C144.227 86.7337 143.702 83.7729 142.144 81.3288L127.449 58.2838C125.89 55.8396 123.425 54.1123 120.597 53.4819C117.768 52.8514 114.807 53.3695 112.365 54.9221Z" fill="#F67D6F"/>
</g>
<path d="M92.4505 102.911L87.1499 94.5987L88.5616 93.701L93.8622 102.013L92.4505 102.911ZM86.7963 101.656L85.8968 100.246L94.2158 94.9558L95.1153 96.3663L86.7963 101.656ZM99.4069 101.674L98.684 100.54L99.9729 93.1714C100.125 92.3077 100.234 91.5715 100.301 90.9628C100.364 90.3499 100.36 89.8156 100.288 89.3599C100.218 88.8973 100.057 88.4687 99.8049 88.0741C99.5158 87.6207 99.1562 87.2977 98.7263 87.105C98.3005 86.9096 97.8431 86.8405 97.354 86.8977C96.865 86.955 96.3873 87.1319 95.9209 87.4285C95.4251 87.7437 95.058 88.1217 94.8194 88.5625C94.5824 88.9965 94.4795 89.4602 94.5107 89.9536C94.5461 90.4444 94.7205 90.9354 95.0337 91.4266L93.5463 92.3723C93.0644 91.6167 92.8158 90.8425 92.8005 90.0498C92.7851 89.2572 92.9761 88.5103 93.3735 87.8092C93.7751 87.1054 94.3519 86.5144 95.104 86.0362C95.8602 85.5553 96.6321 85.2887 97.4196 85.2364C98.2071 85.1841 98.9394 85.3232 99.6167 85.6537C100.294 85.9842 100.844 86.4811 101.267 87.1444C101.57 87.6188 101.779 88.1375 101.896 88.7004C102.014 89.2564 102.04 89.9451 101.973 90.7664C101.908 91.5808 101.759 92.6199 101.525 93.8835L100.602 98.8251L100.666 98.9258L106.666 95.1108L107.549 96.4962L99.4069 101.674ZM112.7 93.469C111.75 94.0728 110.777 94.3289 109.78 94.2373C108.78 94.1415 107.789 93.7125 106.807 92.9504C105.822 92.1841 104.882 91.0998 103.988 89.6977C103.1 88.3039 102.517 87.0016 102.241 85.7906C101.966 84.5728 101.997 83.4912 102.333 82.5459C102.671 81.5937 103.31 80.8183 104.251 80.2199C105.192 79.6215 106.164 79.3722 107.167 79.4722C108.171 79.5653 109.166 79.995 110.15 80.7613C111.136 81.5208 112.074 82.5974 112.963 83.9912C113.857 85.3933 114.443 86.702 114.722 87.9171C114.998 89.1281 114.969 90.2062 114.632 91.1516C114.294 92.0927 113.649 92.8652 112.7 93.469ZM111.817 92.0836C112.758 91.4852 113.2 90.5669 113.142 89.3289C113.085 88.0908 112.521 86.6322 111.45 84.9529C110.738 83.8363 110.012 82.9615 109.272 82.3288C108.536 81.6934 107.814 81.3115 107.107 81.1833C106.403 81.0524 105.74 81.1847 105.119 81.5801C104.186 82.1732 103.75 83.0964 103.811 84.3497C103.869 85.5988 104.433 87.0609 105.501 88.7359C106.213 89.8526 106.936 90.7266 107.669 91.3578C108.402 91.989 109.119 92.368 109.82 92.4947C110.525 92.6187 111.19 92.4817 111.817 92.0836ZM122.733 83.4433L122.299 82.7632C121.999 82.293 121.821 81.8012 121.766 81.2879C121.711 80.7677 121.796 80.2712 122.02 79.7984C122.246 79.3186 122.628 78.9078 123.165 78.5658C123.712 78.2185 124.246 78.047 124.768 78.0511C125.288 78.0511 125.768 78.1883 126.209 78.4627C126.647 78.7329 127.016 79.1031 127.315 79.5733L127.749 80.2534C128.049 80.7236 128.228 81.2174 128.286 81.7349C128.346 82.2456 128.266 82.7394 128.044 83.2165C127.824 83.6867 127.446 84.0927 126.908 84.4347C126.362 84.782 125.827 84.957 125.303 84.9597C124.776 84.9582 124.292 84.8236 123.85 84.5561C123.405 84.2844 123.032 83.9134 122.733 83.4433ZM123.585 81.9457L124.018 82.6258C124.267 83.0162 124.583 83.3079 124.966 83.501C125.346 83.69 125.763 83.6401 126.217 83.3516C126.658 83.0711 126.872 82.7202 126.857 82.2988C126.844 81.8706 126.712 81.4613 126.463 81.0709L126.03 80.3908C125.781 80.0004 125.47 79.708 125.099 79.5138C124.724 79.3153 124.31 79.3604 123.856 79.6489C123.415 79.9294 123.197 80.2865 123.202 80.72C123.208 81.1467 123.336 81.5552 123.585 81.9457ZM111.598 80.1506L111.164 79.4705C110.864 79.0003 110.687 78.5086 110.631 77.9953C110.577 77.4751 110.662 76.9786 110.886 76.5057C111.111 76.026 111.493 75.6151 112.031 75.2732C112.577 74.9259 113.111 74.7543 113.634 74.7585C114.153 74.7585 114.633 74.8957 115.074 75.1701C115.512 75.4403 115.881 75.8105 116.181 76.2806L116.615 76.9607C116.914 77.4309 117.093 77.9248 117.152 78.4423C117.212 78.9529 117.131 79.4468 116.91 79.9238C116.69 80.394 116.311 80.8001 115.773 81.1421C115.227 81.4894 114.692 81.6644 114.168 81.667C113.642 81.6655 113.157 81.531 112.715 81.2635C112.27 80.9917 111.898 80.6208 111.598 80.1506ZM112.45 78.653L112.884 79.3331C113.133 79.7235 113.449 80.0153 113.831 80.2084C114.212 80.3973 114.629 80.3475 115.083 80.059C115.524 79.7784 115.737 79.4275 115.722 79.0062C115.709 78.578 115.578 78.1687 115.329 77.7782L114.895 77.0982C114.646 76.7077 114.336 76.4154 113.964 76.2211C113.589 76.0227 113.175 76.0677 112.721 76.3563C112.28 76.6368 112.062 76.9938 112.067 77.4274C112.073 77.854 112.201 78.2626 112.45 78.653ZM118.325 89.6443L118.975 71.1055L120.412 70.1918L119.762 88.7306L118.325 89.6443Z" fill="white"/>
<path d="M76.1496 106.098C73.7385 106.9 72.7154 106.776 72.1555 105.912C71.513 104.922 71.9831 103.635 73.5193 102.639C74.81 101.802 75.7736 101.875 76.5169 102.503C76.8617 102.796 77.3385 102.874 77.7202 102.627L77.9929 102.45C78.5928 102.061 78.6369 101.193 78.0624 100.765C76.9852 99.94 75.5168 99.6269 73.8748 100.201L73.4681 99.5738C72.9789 98.8193 71.975 98.6052 71.2206 99.0945C70.4661 99.5837 70.252 100.588 70.7413 101.342L71.1303 101.942C69.6144 103.467 68.9391 105.532 70.0767 107.286C71.4382 109.386 73.8521 109.305 76.783 108.27C79.4091 107.342 80.3823 107.847 80.9304 108.692C81.3371 109.32 81.5401 110.608 79.5313 111.911C78.0315 112.883 76.9111 112.848 76.116 112.279C75.7498 112.013 75.2758 111.959 74.9031 112.2L74.6486 112.366C74.0396 112.76 74.0132 113.656 74.6058 114.072C75.9432 114.999 77.6354 114.961 79.1875 114.367L79.5824 114.976C80.0716 115.731 81.0755 115.945 81.83 115.456C82.5844 114.967 82.7985 113.963 82.3093 113.208L81.9262 112.617C83.4806 111.132 84.2234 109.191 83.0151 107.328C81.3412 104.746 78.5607 105.297 76.1496 106.098Z" fill="white"/>
<defs>
<filter id="filter0_d_204_320" x="0.816727" y="0.876541" width="195.386" height="184.109" filterUnits="userSpaceOnUse" color-interpolation-filters="sRGB">
<feFlood flood-opacity="0" result="BackgroundImageFix"/>
<feColorMatrix in="SourceAlpha" type="matrix" values="0 0 0 0 0 0 0 0 0 0 0 0 0 0 0 0 0 0 127 0" result="hardAlpha"/>
<feOffset/>
<feGaussianBlur stdDeviation="26.1717"/>
<feComposite in2="hardAlpha" operator="out"/>
<feColorMatrix type="matrix" values="0 0 0 0 0.964706 0 0 0 0 0.490196 0 0 0 0 0.435294 0 0 0 0.6 0"/>
<feBlend mode="normal" in2="BackgroundImageFix" result="effect1_dropShadow_204_320"/>
<feBlend mode="normal" in="SourceGraphic" in2="effect1_dropShadow_204_320" result="shape"/>
</filter>
</defs>
</svg>
