<svg width="16" height="12" viewBox="0 0 16 12" fill="none" xmlns="http://www.w3.org/2000/svg">
<path d="M4 0.85C4 0.380558 4.38056 0 4.85 0H15.15C15.6194 0 16 0.380558 16 0.85C16 1.31944 15.6194 1.7 15.15 1.7H4.85C4.38056 1.7 4 1.31944 4 0.85Z" fill="#333333"/>
<path d="M2 0.85C2 0.380558 1.61944 0 1.15 0H0.85C0.380558 0 0 0.380558 0 0.85C0 1.31944 0.380558 1.7 0.85 1.7H1.15C1.61944 1.7 2 1.31944 2 0.85Z" fill="#333333"/>
<path d="M4 5.54995C4 5.08051 4.38056 4.69995 4.85 4.69995H15.15C15.6194 4.69995 16 5.08051 16 5.54995C16 6.01939 15.6194 6.39995 15.15 6.39995H4.85C4.38056 6.39995 4 6.01939 4 5.54995Z" fill="#333333"/>
<path d="M2 5.54995C2 5.08051 1.61944 4.69995 1.15 4.69995H0.85C0.380558 4.69995 0 5.08051 0 5.54995C0 6.01939 0.380558 6.39995 0.85 6.39995H1.15C1.61944 6.39995 2 6.01939 2 5.54995Z" fill="#333333"/>
<path d="M4 10.2499C4 9.78046 4.38056 9.3999 4.85 9.3999H15.15C15.6194 9.3999 16 9.78046 16 10.2499C16 10.7193 15.6194 11.0999 15.15 11.0999H4.85C4.38056 11.0999 4 10.7193 4 10.2499Z" fill="#333333"/>
<path d="M2 10.2499C2 9.78046 1.61944 9.3999 1.15 9.3999H0.85C0.380558 9.3999 0 9.78046 0 10.2499C0 10.7193 0.380558 11.0999 0.85 11.0999H1.15C1.61944 11.0999 2 10.7193 2 10.2499Z" fill="#333333"/>
</svg>
