<svg width="20" height="17" viewBox="0 0 20 17" fill="none" xmlns="http://www.w3.org/2000/svg">
<path fill-rule="evenodd" clip-rule="evenodd" d="M2.625 0.625H16.625C18.0707 0.625 19.25 1.80425 19.25 3.25V13.75C19.25 15.1957 18.0707 16.375 16.625 16.375H2.625C1.17925 16.375 0 15.1957 0 13.7493L0.0087497 3.25C0.0087497 1.80393 1.17955 0.625 2.625 0.625ZM3.9233 5.87507C3.50938 5.62568 3.37601 5.08795 3.6254 4.67403C3.8748 4.26011 4.41253 4.12674 4.82645 4.37614L9.59912 7.2518L14.5788 4.25139C14.9934 4.00159 15.532 4.13518 15.7818 4.54976C16.0311 4.96341 15.8987 5.50072 15.4859 5.75128L9.63342 9.30326L9.62798 9.31229L3.9233 5.87507Z" fill="#424B5A"/>
</svg>
