<svg width="20" height="16" viewBox="0 0 20 16" fill="none" xmlns="http://www.w3.org/2000/svg">
<path d="M2.77831 2.13689e-07C2.04136 0.000288164 1.33497 0.293194 0.813953 0.814378C0.292932 1.33556 5.72204e-05 2.04221 0 2.77916V11.0249C0.00017254 11.7618 0.292945 12.4686 0.813953 12.9897C1.33496 13.5108 2.04144 13.8038 2.77831 13.8041H3.15895V15.511C3.15917 15.6026 3.18507 15.6925 3.23372 15.7701C3.28237 15.8478 3.35188 15.9101 3.43423 15.9502C3.51659 15.9904 3.60818 16.0068 3.69932 15.9974C3.79047 15.9879 3.87676 15.9529 3.94912 15.8967L6.53031 13.872C6.58561 13.8281 6.65508 13.8043 6.72573 13.8041H16.969C17.334 13.8042 17.6954 13.7325 18.0327 13.5929C18.37 13.4533 18.6768 13.2486 18.935 12.9905C19.1932 12.7325 19.3985 12.4259 19.5383 12.0886C19.6781 11.7514 19.7489 11.3899 19.749 11.0249V2.77916C19.7489 2.41408 19.678 2.05269 19.5383 1.71542C19.3985 1.37814 19.1932 1.07162 18.935 0.813528C18.6768 0.555434 18.37 0.350742 18.0327 0.211135C17.6954 0.0715286 17.334 -0.000142828 16.969 2.13689e-07H2.77831ZM2.77831 0.60919H16.969C17.2542 0.608933 17.5363 0.664619 17.7999 0.773595C18.0635 0.882572 18.3033 1.0427 18.5051 1.24429C18.7069 1.44589 18.8666 1.68515 18.9758 1.94864C19.085 2.21213 19.1424 2.4948 19.1423 2.78001V11.0249C19.1424 11.3101 19.085 11.5928 18.9758 11.8563C18.8666 12.1198 18.7069 12.359 18.5051 12.5606C18.3033 12.7622 18.0635 12.9223 17.7999 13.0313C17.5363 13.1403 17.2542 13.196 16.969 13.1957H6.72573C6.51863 13.1955 6.31597 13.2649 6.15307 13.3928L3.76559 15.2671V13.748C3.7656 13.6755 3.75255 13.6034 3.72481 13.5364C3.69707 13.4694 3.65542 13.4088 3.60416 13.3576C3.5529 13.3063 3.49272 13.2655 3.42574 13.2378C3.35876 13.21 3.28752 13.1957 3.21503 13.1957H2.77831C2.49328 13.1957 2.2107 13.1396 1.94737 13.0305C1.68404 12.9214 1.4454 12.7613 1.24387 12.5598C1.04234 12.3582 0.882222 12.1192 0.77317 11.8558C0.664119 11.5925 0.608312 11.3099 0.60834 11.0249V2.78001C0.608312 2.49498 0.664119 2.21242 0.77317 1.94907C0.882222 1.68572 1.04234 1.44671 1.24387 1.24514C1.4454 1.04357 1.68404 0.883549 1.94737 0.774445C2.2107 0.66534 2.49328 0.609219 2.77831 0.60919Z" fill="black"/>
</svg>
