<svg width="33" height="30" viewBox="0 0 33 30" fill="none" xmlns="http://www.w3.org/2000/svg">
<path opacity="0.6" d="M19.0025 13.8461V3.46152C19.0025 2.54346 19.3361 1.66289 19.9301 1.01392C20.5241 0.364671 21.3295 4.82077e-05 22.1695 4.82077e-05H29.5594C30.3994 4.82077e-05 31.2051 0.36465 31.7988 1.01392C32.3929 1.66291 32.7265 2.54346 32.7265 3.46152V18.4615C32.7265 20.4871 32.2387 22.4767 31.3121 24.2308C30.3857 25.9848 29.0528 27.4416 27.448 28.4541C25.8431 29.4669 24.0227 30 22.1695 30C21.6096 30 21.0725 29.7569 20.6765 29.3242C20.2806 28.8914 20.0582 28.3044 20.0582 27.6925C20.07 27.0792 20.3002 26.4951 20.6996 26.0642C21.099 25.6334 21.6365 25.3895 22.1977 25.3847C23.8727 25.3766 25.4766 24.6437 26.6585 23.3462C27.8402 22.0487 28.5037 20.2923 28.5037 18.4615V17.3079H22.1695C21.3295 17.3079 20.5241 16.943 19.9301 16.294C19.336 15.6447 19.0024 14.7643 19.0024 13.8461L19.0025 13.8461ZM3.16699 17.3075H9.50119V18.4615C9.50119 20.2922 8.83767 22.0487 7.65579 23.3461C6.47409 24.6436 4.87025 25.3765 3.1952 25.3846C2.63382 25.3894 2.09652 25.6333 1.69711 26.0642C1.29749 26.495 1.06746 27.0791 1.05546 27.6924C1.05546 28.3044 1.2781 28.8914 1.67404 29.3241C2.06998 29.7569 2.60708 30 3.16697 30C5.01998 30 6.84062 29.4669 8.44547 28.4541C10.0503 27.4416 11.383 25.9848 12.3096 24.2307C13.2362 22.4767 13.724 20.487 13.724 18.4615V3.46147C13.724 2.54341 13.3904 1.66284 12.7963 1.01387C12.2023 0.364622 11.3969 0 10.5569 0H3.16704C2.32706 0 1.5214 0.364602 0.927634 1.01387C0.333608 1.66286 0 2.54341 0 3.46147V13.8461C0 14.7642 0.333589 15.6447 0.927634 16.294C1.52141 16.943 2.32706 17.3078 3.16704 17.3078L3.16699 17.3075Z" fill="#C2D1D9"/>
</svg>
