<svg width="160" height="178" viewBox="0 0 160 178" fill="none" xmlns="http://www.w3.org/2000/svg">
<path d="M29.1587 133.1C28.9404 132.769 28.613 132.57 28.2419 132.482C27.8708 132.416 27.4779 132.482 27.1722 132.703L14.5547 141.36L20.7762 122.611C21.0818 121.639 21.0599 121.109 20.6452 120.513L20.3396 120.071C19.8811 119.386 18.9861 119.21 18.2876 119.673L2.96316 130.185C2.30827 130.627 2.13363 131.532 2.57022 132.195C3.00682 132.858 3.90183 133.034 4.55672 132.593L17.5672 123.671L11.1711 142.972C10.8655 143.944 10.8873 144.474 11.3021 145.07L11.3894 145.202C11.8478 145.887 12.7428 146.064 13.4414 145.6L28.7876 135.088C29.4207 134.668 29.5953 133.763 29.1587 133.1Z" fill="#3F892C"/>
<path d="M41.4052 143.502L41.165 143.325C40.4228 142.795 39.5933 142.773 38.742 143.281L21.4529 153.572C21.2564 153.683 21.0163 153.837 20.9071 153.992C20.6888 154.279 20.6015 154.632 20.667 154.986C20.7107 155.317 20.9071 155.626 21.1909 155.825C21.693 156.178 22.2824 156.2 22.85 155.847L27.0194 153.285L36.5372 160.175L35.5112 164.813C35.2929 165.873 35.7076 166.337 36.0569 166.58C36.6681 167.022 37.4977 166.867 37.9343 166.249C38.0216 166.138 38.0871 165.939 38.1307 165.674L42.2129 145.777C42.4093 144.805 42.1474 144.054 41.4052 143.502ZM37.0611 157.68L29.1369 151.938L39.8553 145.269L37.0611 157.68Z" fill="#3F892C"/>
<path d="M65.1995 155.096L51.0321 150.171C50.9011 150.127 50.7701 150.105 50.6173 150.105C50.4208 150.105 50.2244 150.149 50.0497 150.238C49.7441 150.392 49.504 150.657 49.3948 150.966C49.1765 151.629 49.5258 152.38 50.1807 152.601L55.8782 154.588L50.268 171.151C50.0061 171.946 50.399 172.763 51.1849 173.05C51.556 173.183 51.9707 173.161 52.32 172.984C52.6693 172.808 52.9312 172.498 53.0622 172.123L58.6724 155.56L64.37 157.525C64.6974 157.636 65.0248 157.614 65.3305 157.459C65.6361 157.305 65.8762 157.04 65.9853 156.73C66.2036 156.068 65.8544 155.317 65.1995 155.096Z" fill="#3F892C"/>
<path d="M87.2038 156.2H87.182C86.3743 156.2 85.7194 156.841 85.7194 157.658L85.5447 168.766C85.4792 173.006 83.1435 175.48 79.3233 175.436C77.4459 175.413 75.896 174.751 74.8482 173.514C73.8004 172.278 73.2765 170.555 73.3201 168.391L73.4948 157.459C73.4948 157.062 73.3638 156.664 73.08 156.399C72.7962 156.134 72.4469 155.957 72.0322 155.957H72.0103C71.2027 155.957 70.5478 156.598 70.5478 157.415L70.3731 168.479C70.3295 171.571 71.0935 173.956 72.6434 175.568C74.1497 177.136 76.3544 177.953 79.2141 177.997C85.1954 178.108 88.3826 174.861 88.4917 168.612L88.6664 157.702C88.6664 156.885 88.0115 156.222 87.2038 156.2Z" fill="#3F892C"/>
<path d="M116.128 167.485L110.059 163.797L111.151 162.803C113.268 160.86 113.858 158.453 112.875 155.648L112.854 155.582C112.221 153.793 111.151 152.49 109.754 151.806C108.924 151.408 107.986 151.209 106.981 151.209C105.89 151.209 104.689 151.43 103.401 151.894L95.7828 154.632C95.4117 154.765 95.1061 155.03 94.9315 155.383C94.7568 155.737 94.7568 156.134 94.8878 156.532L101.044 174.044C101.175 174.42 101.437 174.729 101.786 174.906C102.135 175.082 102.528 175.082 102.921 174.95C103.707 174.663 104.1 173.823 103.816 173.05L101.742 167.154L107.134 165.211L114.404 169.826C115.102 170.268 115.648 170.356 116.281 170.135C116.892 169.915 117.394 169.23 117.11 168.457C116.979 168.126 116.761 167.883 116.128 167.485ZM106.872 162.826L100.956 164.946L97.9876 156.487L103.816 154.389C106.829 153.307 109.186 154.235 110.125 156.863L110.147 156.951C110.562 158.166 110.474 159.425 109.885 160.463C109.317 161.5 108.269 162.318 106.872 162.826Z" fill="#3F892C"/>
<path d="M142.127 149.619L124.205 140.499C123.812 140.3 123.419 140.189 123.07 140.189C122.611 140.189 122.197 140.344 121.804 140.675L121.564 140.874C120.865 141.47 120.625 142.265 120.887 143.237L126.235 162.781C126.301 163.002 126.388 163.289 126.497 163.422C126.977 163.996 127.741 164.084 128.309 163.621C128.789 163.223 128.942 162.649 128.767 162.008L127.392 157.282L136.43 149.774L140.599 151.96C141.56 152.446 142.105 152.159 142.433 151.894C143.022 151.408 143.088 150.569 142.607 149.973C142.52 149.84 142.367 149.73 142.127 149.619ZM126.694 154.809L123.114 142.619L134.225 148.559L126.694 154.809Z" fill="#3F892C"/>
<path d="M157.102 128.904C156.819 128.728 156.491 128.662 156.164 128.728C155.836 128.794 155.574 128.993 155.378 129.28L149.68 138.312L135.054 128.838C134.814 128.684 134.53 128.595 134.247 128.595C134.138 128.595 134.05 128.617 133.941 128.639C133.57 128.728 133.243 128.949 133.024 129.302C132.588 130.009 132.784 130.914 133.483 131.356L148.96 141.36C149.287 141.581 149.702 141.647 150.073 141.559C150.444 141.47 150.772 141.249 150.99 140.896L157.473 130.627C157.648 130.34 157.714 130.009 157.648 129.677C157.583 129.368 157.386 129.081 157.102 128.904Z" fill="#3F892C"/>
<path d="M32.8043 17.8218C32.9134 17.7556 33.1099 17.601 33.2845 17.4022L35.5548 15.0392L44.636 30.1889C45.0507 30.8735 45.9239 31.0943 46.6225 30.6747C47.2992 30.2551 47.5175 29.3718 47.1027 28.6872L37.3885 12.4554C36.9738 11.7708 36.1006 11.5499 35.402 11.9695L35.3584 11.9916C34.8781 12.3008 34.376 12.7646 33.7648 13.4271L31.4508 15.9667C31.0579 16.4084 30.9706 16.9605 31.2544 17.4464C31.56 17.9543 32.3022 18.131 32.8043 17.8218Z" fill="#3F892C"/>
<path d="M50.0715 16.3201C50.9011 19.3014 52.5165 21.7748 54.6558 23.2545C56.8169 24.7562 59.3273 25.1537 61.9032 24.4249C64.4791 23.6962 66.422 22.0178 67.5134 19.5885C68.5831 17.1814 68.7359 14.2 67.9064 11.2187L67.8845 11.1524C67.055 8.17109 65.4178 5.71976 63.2785 4.24013C61.1174 2.73842 58.6069 2.34091 56.0529 3.0476C50.8792 4.50514 48.347 10.0482 50.0497 16.2318L50.0715 16.3201ZM56.6641 5.45475C58.4323 4.94682 60.266 5.41059 61.8159 6.73563C63.213 7.95025 64.3263 9.82739 64.9375 12.0358L64.9594 12.1241C66.291 16.9605 64.7847 21.0461 61.3138 22.0399C60.8336 22.1724 60.3315 22.2386 59.8731 22.2386C56.8824 22.2386 54.1973 19.6327 53.0404 15.4367L53.0185 15.3705C51.6651 10.512 53.1714 6.42645 56.6641 5.45475Z" fill="#3F892C"/>
<path d="M84.4969 22.1282C84.7152 22.1503 84.9335 22.1503 85.1518 22.1503C90.1944 22.1503 94.102 17.8881 94.5385 11.7487V11.6825C94.9751 5.32225 91.4387 0.419597 86.1123 0.0441681C85.894 0 85.6539 0 85.4356 0C83.0562 0 80.9168 0.927529 79.236 2.67217C77.4023 4.57139 76.289 7.3319 76.0707 10.4016V10.4678C75.8524 13.5596 76.5728 16.4305 78.079 18.5506C79.6071 20.6927 81.8337 21.9294 84.4969 22.1282ZM79.1486 10.6445V10.5782C79.4979 5.56518 82.2703 2.23049 85.8722 2.4955C89.4741 2.7605 91.8098 6.55896 91.4606 11.5279V11.5941C91.2859 13.935 90.6092 15.9447 89.4959 17.4022C88.3608 18.8818 86.8109 19.6769 85.13 19.6769C84.999 19.6769 84.868 19.6769 84.737 19.6548C82.8815 19.5223 81.3098 18.4843 80.3056 16.6955C79.3888 15.1055 78.974 12.9854 79.1486 10.6445Z" fill="#3F892C"/>
<path d="M71.5738 115.279L72.0977 116.206C74.4116 120.292 76.2016 124.642 77.4241 129.147L77.4459 129.236C77.4896 129.501 77.6424 129.722 77.8607 129.92L77.9698 130.009C78.0135 130.031 78.0572 130.053 78.1445 130.097H78.1663C78.2318 130.141 78.3191 130.163 78.4283 130.185C78.4719 130.185 78.5156 130.207 78.5592 130.23H78.5811C78.6247 130.23 78.6684 130.23 78.7121 130.252C78.7557 130.252 78.7994 130.252 78.843 130.23C78.8649 130.207 78.9085 130.207 78.9522 130.185C78.974 130.163 78.9958 130.163 79.0395 130.141C79.5197 129.965 79.8035 129.545 79.8035 129.037V128.927C80.6767 120.998 81.7464 111.105 86.156 100.659L86.4834 99.864L87.3348 99.9965C91.0895 100.615 94.604 100.924 97.7693 100.924C108.771 100.924 117.503 97.501 124.423 90.4783C130.514 84.2947 134.443 76.1457 137.914 68.9463C140.424 63.7566 142.564 59.2735 145.205 55.9168C148.239 52.03 151.47 50.2191 155.443 50.1749C156.033 50.1749 156.535 49.7111 156.622 49.1149C156.688 48.5186 156.316 47.9444 155.749 47.7898C128.789 40.215 103.794 44.6539 90.5219 59.3398C81.3316 69.5205 79.1486 83.2789 84.3878 98.0973L84.5406 98.5169L84.3659 98.9144C81.659 105.098 79.8254 111.613 78.6029 119.386L78.0353 122.986L76.5291 119.673C75.7214 117.885 74.7609 116.074 73.5166 114.02L73.2546 113.578L73.4293 113.092C76.5946 104.038 74.739 95.0938 68.3648 88.5349C58.3886 78.2879 40.3137 76.1899 21.2127 83.0801C20.798 83.2347 20.4924 83.6322 20.4269 84.0739C20.3614 84.5377 20.5797 84.9793 20.9508 85.2223C27.8708 89.8158 31.2544 94.8288 34.8344 100.151C37.8906 104.678 41.0341 109.36 46.4697 113.379C50.0279 116.03 56.031 117.73 61.7286 117.73C65.2868 117.73 68.3648 117.067 70.6569 115.831L71.5738 115.279ZM84.737 75.4611C85.9158 70.0285 88.4481 65.1258 92.2464 60.9298C103.532 48.4524 124.052 43.6822 147.17 48.2094L149.724 48.7174L147.585 50.2191C142.542 53.7525 139.246 60.6207 135.731 67.8642C132.02 75.5715 127.807 84.3168 120.821 90.3899C114.622 95.7784 106.916 98.4285 97.4855 98.4285C94.8005 98.4285 91.9845 98.2077 89.0156 97.7881L87.4876 97.5672L88.1861 96.198C94.9315 82.9697 106.174 71.5523 122.59 61.2611C122.852 61.0844 123.048 60.8194 123.114 60.5102C123.179 60.2011 123.135 59.8698 122.961 59.6048C122.786 59.3398 122.524 59.141 122.219 59.0748C121.913 59.0085 121.585 59.0527 121.324 59.2294C105.475 69.1672 94.3203 80.2092 87.2256 93.04L85.894 95.4693L85.2173 92.775C83.7329 86.6577 83.5801 80.8496 84.737 75.4611ZM69.1725 113.843C67.2733 114.771 64.5228 115.257 61.5321 115.257C56.7732 115.257 51.4032 114.02 47.8449 111.392C42.7368 107.593 39.8334 103.287 36.7773 98.7377L36.7555 98.7156C33.8521 94.4092 30.8396 89.9483 25.8406 85.8185L24.2252 84.4935L26.2117 83.8972C35.2056 81.2471 43.5881 80.673 51.0757 82.2188C59.109 83.8531 63.9552 87.4528 66.6184 90.1691C71.4209 95.1159 73.3638 101.631 72.1195 108.521L71.6611 110.994L70.1767 108.985C60.4188 95.8447 47.0372 89.0428 38.5673 87.2098C37.9343 87.0773 37.2794 87.4969 37.1484 88.1374C37.0829 88.4465 37.1484 88.7778 37.323 89.0428C37.4977 89.3078 37.7596 89.5066 38.0652 89.5728C46.7534 91.45 60.2223 98.5169 69.5872 112.231L70.3076 113.291L69.1725 113.843Z" fill="#3F892C"/>
<path d="M112.333 18.7104L112.317 18.7535C111.283 20.6886 111.962 22.8818 114.209 23.8279C116.472 24.7883 118.865 23.8279 119.9 21.8927L119.916 21.8497C120.95 19.9146 120.271 17.7214 118.024 16.7753C115.745 15.8149 113.368 16.7609 112.333 18.7104ZM117.555 20.9036L117.539 20.9466C117.07 21.8354 116.149 22.4374 115.211 22.0504C114.322 21.6777 114.176 20.6169 114.678 19.6995L114.694 19.6565C115.179 18.7535 116.084 18.1657 117.022 18.5528C117.911 18.9255 118.057 19.9862 117.555 20.9036Z" fill="#3F892C"/>
<path d="M105.454 19.4142C105.775 19.5593 106.17 19.5593 106.477 19.3852L121.313 11.3902C121.533 11.2741 121.708 11.1145 121.839 10.8533C122.088 10.331 121.869 9.72155 121.343 9.47488C121.021 9.32978 120.626 9.32978 120.319 9.5039L105.483 17.4844C105.278 17.6005 105.074 17.7601 104.957 18.0213C104.708 18.5436 104.927 19.1675 105.454 19.4142Z" fill="#3F892C"/>
<path d="M108.769 12.1158C111.029 13.077 113.419 12.1158 114.453 10.1791L114.469 10.1361C115.518 8.19935 114.84 6.00443 112.596 5.0576C110.319 4.11077 107.945 5.04325 106.896 6.9943L106.88 7.03734C105.846 8.97403 106.525 11.169 108.769 12.1158ZM109.237 7.98417L109.253 7.94113C109.738 7.03734 110.642 6.44915 111.578 6.83649C112.466 7.20949 112.612 8.27108 112.111 9.18922L112.095 9.23226C111.627 10.1217 110.707 10.7242 109.77 10.3369C108.882 9.9639 108.737 8.9023 109.237 7.98417Z" fill="#3F892C"/>
<path d="M14.1955 45.6338L14.216 45.6544C15.2724 46.3854 16.7186 46.1177 17.4469 45.0573C18.1751 43.9969 17.929 42.5452 16.8725 41.8143L16.852 41.7937C15.7955 41.0627 14.3493 41.3304 13.6211 42.3908C12.8928 43.4409 13.139 44.9029 14.1955 45.6338Z" fill="#3F892C"/>
<path d="M3.3514 73.3245L3.38208 73.3348C4.62981 73.6228 5.86732 72.8308 6.15368 71.5761C6.44005 70.3214 5.673 69.0666 4.42527 68.7787L4.39459 68.7684C3.13663 68.4804 1.89912 69.2723 1.61276 70.5271C1.32639 71.7818 2.10367 73.0365 3.3514 73.3245Z" fill="#3F892C"/>
<path d="M2.66344 102.256H2.69421C3.96602 102.06 4.82758 100.864 4.6327 99.5953C4.43783 98.3164 3.26858 97.4295 1.99676 97.6255H1.96599C0.69417 97.8111 -0.167385 99.0074 0.0274907 100.286C0.212109 101.555 1.39162 102.452 2.66344 102.256Z" fill="#3F892C"/>
<path d="M158.058 99.2002L158.028 99.1899C156.766 98.9839 155.576 99.8594 155.37 101.126C155.165 102.393 156.017 103.598 157.279 103.804L157.309 103.815C158.571 104.021 159.761 103.145 159.967 101.878C160.182 100.611 159.331 99.4062 158.058 99.2002Z" fill="#3F892C"/>
<path d="M155.635 69.5449L155.604 69.5552C154.354 69.8328 153.565 71.0769 153.842 72.3313C154.118 73.5856 155.348 74.3979 156.598 74.1203L156.629 74.11C157.879 73.8324 158.668 72.5883 158.391 71.3339C158.115 70.0693 156.885 69.2673 155.635 69.5449Z" fill="#3F892C"/>
</svg>
