<svg width="80" height="42" viewBox="0 0 80 42" fill="none" xmlns="http://www.w3.org/2000/svg">
<path opacity="0.8" d="M42.2892 20.9477C42.2892 19.8442 42.2832 18.7576 42.1185 17.7987H22.1911V27.3842H28.1062C28.1062 28.3423 25.3721 30.312 21.2699 30.312C16.7572 30.312 11.648 26.764 11.5459 21.0558C11.4392 15.1419 16.5556 11.2741 21.2699 11.4425C25.0985 11.5793 26.5607 12.6771 28.6958 14.7787C28.6958 14.7787 41.1194 14.7881 41.4449 14.7881C41.0745 13.3643 40.1571 11.213 38.5876 8.98604C38.4564 8.80068 38.3227 8.6138 38.1814 8.42844C35.0426 4.25059 29.5891 0.00906401 21.1155 2.1856e-05C11.1593 -0.0139181 3.47498 6.64224 0.940918 14.7919C0.910777 14.8902 0.881767 14.9885 0.852004 15.0876C0.852004 15.0921 0.85012 15.0989 0.848236 15.1027C0.327935 16.9262 0.046875 18.8507 0.046875 20.838C0.0657128 22.741 0.312865 24.5627 0.761959 26.2814C2.36091 32.2274 6.52256 37.1346 12.0017 39.7667C12.0458 39.7874 12.0895 39.8089 12.1347 39.8284C12.163 39.8435 12.192 39.8545 12.218 39.8676C14.983 41.1252 18.089 41.8256 21.3867 41.8516C28.3793 41.7951 34.5642 38.3734 38.3747 33.1369C38.4527 33.0288 42.2892 27.4791 42.2892 20.9477Z" fill="black"/>
<path opacity="0.8" d="M73.7725 33.0456C73.7725 33.0456 77.6561 28.086 77.6708 21.4822C77.7017 8.51315 68.6169 0.14313 55.9432 0.124292C48.601 0.112989 41.8318 4.01807 38.3653 8.70341C35.2819 12.8718 34.7737 16.3448 34.7737 18.8709C34.6275 22.0138 34.9364 23.5001 34.9364 23.5001C35.384 26.7727 36.6544 29.9917 38.6049 32.7993C42.296 38.1142 48.4247 41.9657 56.0159 41.9657C61.0539 41.9665 64.6177 39.6001 65.2615 39.258L66.5968 40.8042H79.5014L73.7725 33.0456ZM65.9167 23.9451L64.8151 22.5914H51.7235L57.046 30.1461C51.5077 31.2316 46.273 26.5255 46.3495 21.1349C46.4271 15.6271 50.8721 11.5362 56.1874 11.572C62.0226 11.609 67.8434 17.9351 65.9167 23.9451Z" fill="black"/>
<g opacity="0.5">
<path opacity="0.5" d="M41.446 14.7938C41.0756 13.3701 40.1582 11.2161 38.5886 8.99026C38.5231 8.8957 38.4519 8.80113 38.3844 8.70581C38.3788 8.71335 38.3724 8.72088 38.3667 8.72842C36.7109 10.9656 35.7991 12.9989 35.3086 14.7923C38.3339 14.7931 41.2892 14.7938 41.446 14.7938Z" fill="black"/>
<path opacity="0.5" d="M42.2884 20.9478C42.2884 19.8442 42.2824 18.7577 42.1178 17.7988H34.8091C34.785 17.7988 34.7737 18.5403 34.7737 18.8884C34.6275 22.0317 34.9364 23.5078 34.9364 23.5078C35.3821 26.7781 36.6514 29.9914 38.5985 32.7964C39.4311 31.489 42.2884 26.5844 42.2884 20.9478Z" fill="black"/>
</g>
</svg>
