<svg width="127" height="44" viewBox="0 0 127 44" fill="none" xmlns="http://www.w3.org/2000/svg">
<path d="M54.9631 0.0898085H48.2724L48.1377 0.404138C48.8112 0.85318 50.2931 3.90667 50.2931 4.71494V24.9218L49.844 32.7801H56.2204C55.4591 30.2424 55.0364 27.6152 54.9631 24.9668V0.0898085ZM44.6352 0.0898085H37.9893L37.8546 0.404138C38.5282 0.85318 39.9651 3.90667 39.9651 4.71494V24.9218L39.5161 32.7801H45.8925C45.1312 30.2424 44.7084 27.6152 44.6352 24.9668V0.0898085ZM29.1881 0.0449042H22.5423L22.3627 0.359234C23.1709 1.70636 24.9671 5.74774 24.6977 6.46621L17.7824 25.9546L11.0468 8.71142C10.5977 7.58881 9.52005 2.1554 9.25062 0.0449042H1.07805L0.898438 0.359234L4.93982 8.71142L14.9086 32.6903H17.2436L26.7633 6.19678L29.1881 0V0.0449042ZM30.176 29.2776L30.0413 29.1428L35.1155 15.5818H28.4696L28.29 15.941C28.7391 16.4799 29.6371 17.8719 29.3677 18.6353L25.2814 29.2776C24.5181 31.2084 25.461 32.9597 27.3919 32.9597C29.3228 32.9597 30.8496 31.6575 32.3314 30.3104L35.34 27.6161L34.6215 26.6282C34.6215 26.6282 31.0292 28.8285 30.1311 29.2776H30.176ZM34.2174 7.00506C33.7713 6.99911 33.3286 7.08183 32.9148 7.24841C32.501 7.415 32.1244 7.66213 31.8069 7.97545C31.4894 8.28878 31.2373 8.66206 31.0652 9.07361C30.8932 9.48517 30.8046 9.92681 30.8046 10.3729C30.8046 11.9894 31.6129 13.0671 33.4989 13.0671C35.4298 13.0671 36.8218 11.4057 36.8218 9.65441C36.8218 7.99295 35.7441 7.00506 34.2174 7.00506ZM107.366 13.5162C109.477 13.5162 110.51 15.941 110.824 18.7251L104.088 20.2967C104.088 16.2553 105.211 13.5611 107.366 13.5611V13.5162ZM125.148 20.9254C123.936 20.9254 122.319 22.048 121.691 22.7664V23.0808C122.589 23.9789 123.756 25.5954 124.026 26.5833C122.769 28.7387 119.041 30.7594 114.82 30.7594C108.085 30.7594 104.492 27.5712 104.133 21.554C107.187 21.1948 113.428 20.5661 115.449 20.5212C115.449 15.1327 113.249 11.8547 108.175 11.8547C102.921 11.8547 99.2836 16.2104 99.2836 22.2725C99.2836 29.6368 103.864 34.711 112.126 34.711C118.862 34.711 126.047 30.2205 126.047 23.9789C126.047 23.0808 125.777 21.554 125.148 20.9703V20.9254ZM89.4047 40.9976C86.1267 40.9976 82.3547 40.324 82.3547 37.7645C82.3547 36.8215 83.0732 35.6989 83.7916 34.9355H91.6499C94.2094 34.9355 95.1524 35.5192 95.1524 36.5969C95.1524 38.0788 92.5929 40.0995 89.4047 40.9976ZM86.4859 13.3815C88.9107 13.3815 89.9435 16.9289 89.9435 20.5661C89.9435 23.5298 89.1801 25.9546 87.2044 25.9546C84.555 25.9546 83.7467 22.1378 83.7467 18.6353C83.7467 15.7165 84.555 13.3815 86.4859 13.3815ZM93.0419 30.2655H83.3426C83.5671 29.4572 84.0611 28.2897 84.6897 27.3467C85.2735 27.4365 85.8572 27.4814 86.4859 27.4814C91.5601 27.4814 95.0177 24.5626 95.0177 19.0394C95.0177 17.6474 94.7034 16.39 94.1196 15.3572L98.61 15.8961V12.169C97.2629 12.7977 94.3441 13.7856 93.1317 14.0999C92.3141 13.3066 91.3421 12.69 90.276 12.2883C89.21 11.8866 88.0727 11.7084 86.9349 11.7649C81.5464 11.7649 78.5378 15.1776 78.5378 19.8477C78.5378 23.5747 80.4687 25.9995 83.2977 26.9874C81.5913 28.604 79.5257 31.0288 78.5827 33.274C78.942 34.4864 80.1544 34.8906 82.3996 34.9355C80.334 36.2826 78.8073 37.6297 78.8073 39.5606C78.8073 42.1202 81.6811 43.8714 86.89 43.8714C91.6948 42.8835 98.9693 37.8543 98.9693 34.1272C98.9693 31.6126 96.769 30.3104 93.1317 30.3104L93.0419 30.2655ZM76.5171 3.59234C77.1458 3.59234 77.3254 4.13119 77.4152 5.02927L75.4844 5.47832C75.4844 4.40061 75.7089 3.54743 76.5171 3.54743V3.59234ZM79.391 7.58881L78.9869 7.27449C78.4722 7.72192 77.8261 7.98985 77.1458 8.03786C75.9334 8.03786 75.5742 7.13977 75.5293 5.97226L78.9869 5.74774C78.942 4.04138 78.0888 2.96368 76.607 2.96368C74.9006 2.96368 73.778 4.13119 73.778 6.19678C73.778 7.99295 74.8108 9.34008 76.6519 9.34008C77.8643 9.34008 78.7175 8.62161 79.3461 7.54391L79.391 7.58881ZM61.1599 0.763372H62.3723V6.46621C62.3723 7.13977 62.2825 8.62161 62.1478 9.16046H64.5277C64.3032 8.57671 64.2583 7.27449 64.2583 6.46621V0.718468H65.4258C65.8748 0.718468 66.6831 1.16751 67.222 1.48184V7.31939L67.0873 9.11556H69.2876C69.108 8.62161 68.9732 7.81334 68.9732 7.27449V4.58023C69.4223 4.31081 69.7366 4.13119 70.0958 4.13119C71.1286 4.13119 71.1286 4.84966 71.1286 5.83755V9.16046H73.1493C73.0146 8.80123 72.8799 7.85824 72.8799 7.31939V5.02927C72.8799 3.77196 72.2063 2.87387 70.9939 2.87387C70.0509 2.87387 69.4672 3.41272 68.9732 3.99648V0H58.9596V2.02069H59.1392C59.8128 1.48184 60.8456 0.763372 61.1599 0.763372ZM69.4672 28.2448C68.7487 29.1877 67.671 29.996 66.6831 29.996C65.0666 29.996 64.2134 28.7387 64.2134 27.1222C64.2134 25.2811 65.2462 24.2483 66.8178 23.44C67.8955 22.8563 69.063 22.0929 69.4672 21.6438V28.2897V28.2448ZM74.227 17.1983C74.227 13.5611 71.0837 11.7649 67.4465 11.7649C63.8093 11.7649 59.4086 14.5041 59.4086 18.1413C59.4086 18.8598 59.5434 19.4884 59.723 19.9375C61.0701 19.9375 63.5847 18.9945 64.3032 18.276C64.2134 15.7614 64.4828 14.4143 64.7073 13.9652C65.0666 13.6958 65.6054 13.5162 66.4586 13.5162C68.2997 13.5162 69.4672 15.5369 69.4672 18.0515V19.7579C68.7487 20.5212 67.7608 21.105 66.5035 21.7336C62.1478 23.8441 59.1392 25.1015 59.1392 28.6489C59.1392 31.0737 60.3965 33.1393 63.8093 33.1393C66.2341 33.1393 68.2997 31.3432 69.4672 29.9511V32.7352H75.2149C74.5382 30.8488 74.2037 28.8567 74.227 26.8527V17.1983Z" fill="#333333"/>
</svg>
