<svg width="138" height="31" viewBox="0 0 138 31" fill="none" xmlns="http://www.w3.org/2000/svg">
<path d="M129.075 0L129.027 0.00954404L123.125 0.458114L123.077 0.467658V0.505834V2.02334V2.07106H123.125H123.875C124.112 2.07106 124.28 2.12489 124.396 2.27148C124.512 2.41807 124.577 2.67193 124.577 3.08272V27.7445C124.577 28.0813 124.543 28.2866 124.444 28.4031C124.345 28.5195 124.171 28.5653 123.875 28.5653H123.647H123.599V28.613V30.1305H123.647V30.1782H123.704H130.005H130.052V30.1305V28.613V28.5653H130.005H129.596C129.356 28.5653 129.224 28.5381 129.16 28.4699C129.096 28.4017 129.075 28.2743 129.075 28.0499V13.5621C129.075 12.6378 129.154 11.8211 129.426 11.2429C129.697 10.6646 130.149 10.3171 130.944 10.3171C131.23 10.3171 131.453 10.3641 131.618 10.4507C131.783 10.5373 131.895 10.663 131.978 10.842C132.145 11.2001 132.178 11.766 132.178 12.5409V27.9354C132.178 28.2115 132.11 28.3634 132.007 28.4508C131.903 28.5382 131.754 28.5653 131.551 28.5653H131.134H131.086V28.613V30.1305V30.1782H131.134H137.643H137.691V30.1305V28.613V28.5653H137.643H137.302C137.043 28.5653 136.888 28.5296 136.799 28.4317C136.709 28.3337 136.675 28.1578 136.675 27.859V11.7105C136.675 10.343 136.429 9.27375 135.84 8.55146C135.252 7.82917 134.318 7.46344 132.975 7.46344C131.273 7.46344 130.045 8.44721 129.075 9.93534V0.0572642V0ZM128.98 0.104984V10.0785V10.2503L129.075 10.1071C130.048 8.56415 131.263 7.55888 132.975 7.55888C134.3 7.55888 135.197 7.92201 135.764 8.61827C136.332 9.31453 136.58 10.3547 136.58 11.7105V27.859C136.58 28.1659 136.615 28.3695 136.732 28.4985C136.85 28.6275 137.034 28.6607 137.302 28.6607H137.596V30.0828H131.181V28.6607H131.551C131.763 28.6607 131.941 28.6382 132.073 28.5271C132.205 28.416 132.272 28.2267 132.272 27.9354V12.5409C132.272 11.7636 132.245 11.1926 132.064 10.8039C131.973 10.6095 131.849 10.4613 131.665 10.3648C131.481 10.2683 131.24 10.2217 130.944 10.2217C130.121 10.2217 129.623 10.5915 129.34 11.1952C129.057 11.7988 128.98 12.6325 128.98 13.5621V28.0499C128.98 28.2797 128.998 28.4347 129.094 28.5367C129.189 28.6387 129.348 28.6607 129.596 28.6607H129.957V30.0828H123.704V28.6607H123.875C124.181 28.6607 124.393 28.6183 124.52 28.4699C124.646 28.3215 124.681 28.0885 124.681 27.7445V3.08272C124.681 2.66158 124.61 2.38876 124.472 2.21422C124.334 2.03967 124.126 1.97562 123.875 1.97562H123.172V0.563098L128.98 0.104984ZM98.0052 27.8986C96.8003 27.8986 96.6889 27.103 96.6889 24.2654C96.6889 19.2729 97.0272 18.5918 99.6601 17.1155V25.1355C99.6601 26.7261 99.3969 27.8986 98.0052 27.8986ZM26.6448 16.815C26.7565 10.0807 26.9833 9.36176 28.3373 9.36176C29.8419 9.36176 29.6904 10.2319 29.6904 16.815H26.6448ZM28.3373 30.5089C32.0237 30.5089 33.9042 28.9189 33.4517 23.1696H31.8731C31.9848 28.0113 31.195 28.466 29.428 28.466C26.8327 28.466 26.6445 27.103 26.6445 19.0838C26.6445 18.9327 26.6445 18.7057 26.6445 18.4031H33.8277C33.8277 10.3079 32.2854 7.50945 28.337 7.50945C24.6874 7.50945 21.8674 11.4049 21.8674 19.1596C21.8677 27.6704 24.4633 30.5089 28.3373 30.5089ZM55.1416 30.5089C58.3752 30.5089 60.1807 28.3136 60.1807 24.9844C60.1807 21.5048 58.9783 19.9927 56.4947 17.23C54.1262 14.6197 53.2235 13.6366 53.2235 11.4807C53.2235 10.2319 53.637 9.4378 55.0663 9.4378C56.4947 9.4378 57.3231 10.0053 57.5854 12.1984L57.8487 14.3179H59.5039V7.88755H58.1499C58.0758 8.6813 58.0758 9.13484 57.849 9.02061C57.5116 8.71917 56.1953 7.50914 54.3145 7.50914C51.7192 7.50914 49.3871 9.17271 49.3871 12.8422C49.3871 16.2845 50.5532 17.646 53.0732 20.5223C55.2549 23.0181 56.3444 24.1152 56.3444 26.1568C56.3444 27.7837 55.8941 28.6917 54.2015 28.6917C52.7713 28.6917 51.8309 28.011 51.3806 25.1352L51.0797 23.169H49.4248V30.1302H50.8164C50.9667 29.4103 51.3429 28.7293 51.6815 28.9562C52.1698 29.5243 53.2985 30.5089 55.1416 30.5089ZM86.0322 30.5089C89.7185 30.5089 91.5991 28.9189 91.1466 23.1696H89.5679C89.6809 28.0113 88.8911 28.466 87.1229 28.466C84.5276 28.466 84.3396 27.103 84.3396 19.0838C84.3396 18.9327 84.3396 18.7057 84.3396 18.4031H91.5225C91.5225 10.3079 89.9818 7.50945 86.0322 7.50945C82.3835 7.50945 79.5626 11.4049 79.5626 19.1596C79.5626 27.6704 82.1591 30.5089 86.0322 30.5089ZM96.1247 30.5089C98.3441 30.5089 99.4345 28.9189 100.037 27.784C100.413 29.524 100.901 30.5089 103.196 30.5089C105.828 30.5089 106.429 28.9189 106.429 25.8178H105.077C105.077 28.0501 105 28.277 104.512 28.277C104.06 28.277 104.06 28.0879 104.06 26.8382V13.0694C104.06 8.64252 101.692 7.50945 98.5697 7.50945C94.5825 7.50945 92.3257 10.3079 93.8306 13.1073C94.4698 14.2795 95.7111 14.62 96.7633 13.8262C97.8552 12.9946 98.0432 11.2532 95.2599 9.85469C95.6358 9.51354 96.7265 9.21058 97.479 9.21058C99.6607 9.21058 99.6607 10.0062 99.6607 12.0491C99.6607 12.3511 99.6607 15.3398 99.6607 15.9067C94.2445 17.7614 92.364 18.7818 92.364 24.6466C92.3633 29.1847 94.0933 30.5089 96.1247 30.5089ZM33.8037 30.1308H40.6492V28.6175H40.2344C39.7456 28.6175 39.6702 28.503 39.6702 28.05V13.5617C39.6702 11.7079 39.9712 10.27 41.5884 10.27C42.7544 10.27 42.8683 10.989 42.8683 12.5398V27.9355C42.8683 28.503 42.6038 28.6175 42.1903 28.6175H41.7767V30.1308H48.2827V28.6175H47.9454C47.4188 28.6175 47.2685 28.466 47.2685 27.8607V11.7079C47.2685 8.98366 46.2905 7.50914 43.6211 7.50914C41.8896 7.50914 40.5733 8.53012 39.5952 10.0804V7.62153L33.7663 8.0375V9.55081H34.5188C35.0077 9.55081 35.2712 9.77833 35.2712 10.61V27.7462C35.2712 28.4281 35.1194 28.6175 34.5188 28.6175H33.804V30.1308H33.8037ZM115.131 25.5521C115.131 29.1471 115.619 30.5089 119.155 30.5089C121.449 30.5089 122.991 29.524 122.991 26.2341V23.0184H121.375V26.5746C121.375 27.8989 121.187 28.4285 120.434 28.4285C119.682 28.4285 119.531 27.8989 119.531 26.7261V9.55111H122.916V7.88755H119.569V2.02338H118.027C116.297 7.28131 115.507 7.88785 114.078 7.88785H113.626V9.51354H115.131V25.5521H115.131ZM0.234598 30.1308H6.10359V28.6175H5.20083C4.37216 28.6175 3.99715 27.6326 3.99715 26.2707V7.31918L8.73535 30.0917H10.9921L15.7312 7.24374V26.6488C15.7312 28.011 15.5056 28.6172 14.7531 28.6172H13.7001V30.1305H22.1619V28.6172H21.5225C20.7703 28.6172 20.5456 28.011 20.5456 26.6488V3.99052C20.5456 2.62901 20.7703 2.02338 21.5225 2.02338H22.1619V0.510079H15.092L11.4057 19.1987L7.49401 0.510079H0.234598V2.02338H0.837649C1.5901 2.02338 2.04132 2.93136 2.04132 4.33167V26.271C2.04132 27.6329 1.5901 28.6178 0.837649 28.6178H0.234598V30.1308ZM60.8588 30.1308H69.396V28.6175H68.5309C67.7399 28.6175 67.5155 28.3515 67.5155 27.0275V16.0588H73.2326V27.0275C73.2326 28.3515 72.9682 28.6175 72.216 28.6175H71.3518V30.1308H79.8514V28.6175H79.0989C78.3088 28.6175 78.0844 28.3515 78.0844 27.0275V3.61273C78.0844 2.24969 78.3088 2.02338 79.0989 2.02338H79.8514V0.510079H71.3518V2.02338H72.216C72.9682 2.02338 73.2326 2.24969 73.2326 3.61273V14.2795H67.5155V3.61273C67.5155 2.24969 67.7399 2.02338 68.5309 2.02338H69.396V0.510079H60.8588V2.02338H61.6477C62.4375 2.02338 62.6631 2.24969 62.6631 3.61273V27.7843C62.6631 28.4285 62.4375 28.6178 61.6477 28.6178H60.8588V30.1308ZM106.932 30.1308H113.889V28.6175H112.987C112.498 28.6175 112.31 28.4284 112.31 27.8219V0.0565466L106.405 0.509772V2.02308H107.232C107.722 2.02308 107.91 2.17425 107.91 2.77927V27.8986C107.91 28.4657 107.834 28.6175 107.308 28.6175H106.932V30.1308H106.932ZM123.65 30.1308H130.007V28.6175H129.592C129.104 28.6175 129.028 28.503 129.028 28.05V13.5617C129.028 11.7079 129.329 10.27 130.947 10.27C132.112 10.27 132.225 10.989 132.225 12.5398V27.9355C132.225 28.503 131.962 28.6175 131.548 28.6175H131.136V30.1308H137.64V28.6175H137.302C136.776 28.6175 136.626 28.466 136.626 27.8607V11.7079C136.626 8.98366 135.648 7.50914 132.977 7.50914C131.247 7.50914 130.007 8.53012 129.028 10.0804V0.0565466L123.122 0.509772V2.02308H123.876C124.363 2.02308 124.628 2.24938 124.628 3.08224V27.7462C124.628 28.4281 124.478 28.6175 123.876 28.6175H123.65V30.1308H123.65ZM48.3966 8.64252C52.1567 5.80679 52.9092 3.68786 51.6688 1.75829C50.9919 0.699129 49.4497 0.0186759 48.3213 0.964223C46.9661 2.09912 47.3059 4.10322 49.8259 5.20025C49.3735 5.73044 48.3213 6.7896 47.4562 7.62153L48.3966 8.64252ZM84.3393 16.815C84.4532 10.0807 84.6779 9.36176 86.0319 9.36176C87.5365 9.36176 87.3859 10.2319 87.3859 16.815H84.3393ZM43.6249 7.46344C41.9258 7.46344 40.6232 8.44269 39.6489 9.9258V7.62569V7.56842L39.592 7.57797L33.7657 7.98836H33.7182V8.03608V9.55358V9.6013H33.7657H34.5153C34.7518 9.6013 34.9211 9.65515 35.0372 9.80173C35.1533 9.9483 35.227 10.2024 35.227 10.613V27.7445C35.227 28.0813 35.1841 28.2865 35.0846 28.4031C34.9852 28.5196 34.8107 28.5653 34.5153 28.5653H33.8036H33.7562V28.613V30.1305V30.1782H33.8036H40.6548H40.7022V30.1305V28.613V28.5653H40.6548H40.2372C39.9965 28.5653 39.8648 28.5381 39.8007 28.4699C39.7367 28.4016 39.7153 28.2743 39.7153 28.0499V13.5621C39.7153 12.6378 39.795 11.8211 40.0664 11.2429C40.3379 10.6646 40.7903 10.3171 41.5847 10.3171C41.8713 10.3171 42.0933 10.3641 42.2584 10.4507C42.4235 10.5373 42.5356 10.663 42.619 10.842C42.7858 11.2001 42.8183 11.766 42.8183 12.5409V27.9354C42.8183 28.2115 42.7604 28.3634 42.657 28.4508C42.5535 28.5382 42.3944 28.5653 42.192 28.5653H41.7745H41.727V28.613V30.1305V30.1782H41.7745H48.284H48.3315V30.1305V28.613V28.5653H48.284H47.9424C47.6838 28.5653 47.5382 28.5296 47.449 28.4317C47.3598 28.3337 47.3161 28.1578 47.3161 27.859V11.7105C47.3161 10.343 47.0699 9.27375 46.4811 8.55146C45.8923 7.82917 44.9684 7.46344 43.6249 7.46344ZM43.6249 7.55888C44.9507 7.55888 45.8376 7.92201 46.4052 8.61827C46.9728 9.31453 47.2213 10.3547 47.2213 11.7105V27.859C47.2213 28.1659 47.2555 28.3695 47.3731 28.4985C47.4906 28.6275 47.6746 28.6607 47.9424 28.6607H48.2366V30.0828H41.8219V28.6607H42.192C42.4032 28.6607 42.5823 28.6383 42.7139 28.5271C42.8455 28.416 42.9132 28.2267 42.9132 27.9354V12.5409C42.9132 11.7636 42.895 11.1926 42.7139 10.8039C42.6234 10.6095 42.4898 10.4613 42.3059 10.3648C42.1219 10.2683 41.8812 10.2217 41.5847 10.2217C40.7618 10.2217 40.2644 10.5915 39.981 11.1952C39.6977 11.7988 39.6205 12.6325 39.6205 13.5621V28.0499C39.6205 28.2797 39.6385 28.4347 39.7343 28.5367C39.8301 28.6386 39.9891 28.6607 40.2372 28.6607H40.5978V30.0828H33.8511V28.6607H34.5153C34.8208 28.6607 35.034 28.6182 35.1606 28.4699C35.2871 28.3215 35.3219 28.0885 35.3219 27.7445V10.613C35.3219 10.192 35.2513 9.90941 35.1131 9.73492C34.9749 9.56043 34.7667 9.50586 34.5153 9.50586H33.8131V8.0838L39.5445 7.67341V10.0785V10.2503L39.6394 10.1071C40.6118 8.5651 41.9124 7.55888 43.6249 7.55888ZM28.3379 7.46344C26.4959 7.46344 24.8654 8.44853 23.6977 10.403C22.5299 12.3575 21.8188 15.2716 21.8188 19.1549C21.8188 23.4154 22.471 26.264 23.6123 28.0499C24.7536 29.8359 26.389 30.56 28.3379 30.56C30.1878 30.56 31.5982 30.1547 32.4846 29.0234C33.371 27.8921 33.7266 26.0441 33.5 23.1634V23.1157H33.4525H31.8773H31.8204L31.8299 23.1729C31.8863 25.5914 31.7122 26.9093 31.3175 27.6109C31.1201 27.9617 30.8699 28.1546 30.5583 28.2694C30.2468 28.3843 29.8687 28.4126 29.4291 28.4126C28.7845 28.4126 28.3005 28.3332 27.9298 28.0881C27.5592 27.843 27.2977 27.436 27.1138 26.771C26.7459 25.4411 26.6962 23.0882 26.6962 19.0785C26.6962 18.9389 26.6962 18.7195 26.6962 18.4486H33.8321H33.8795V18.4009C33.8795 14.3502 33.4941 11.6225 32.608 9.89717C31.7219 8.17179 30.3234 7.46344 28.3379 7.46344ZM28.3379 7.55888C30.3007 7.55888 31.6504 8.24663 32.5226 9.94489C33.391 11.6359 33.7813 14.3373 33.7846 18.3532H26.6488H26.6014V18.4009C26.6014 18.7027 26.6014 18.9283 26.6014 19.0785C26.6014 23.0889 26.6438 25.434 27.0189 26.7901C27.2064 27.4682 27.4783 27.9035 27.8729 28.1645C28.2675 28.4254 28.7761 28.5176 29.4291 28.5176C29.8728 28.5176 30.2567 28.4865 30.5868 28.3649C30.9169 28.2432 31.1958 28.0267 31.4029 27.6586C31.8129 26.9299 31.9764 25.599 31.9248 23.2206H33.4051C33.6224 26.06 33.2659 27.8722 32.4087 28.9662C31.5463 30.0668 30.174 30.455 28.3379 30.455C26.4125 30.455 24.8132 29.7626 23.6882 28.0022C22.5632 26.2418 21.9137 23.4055 21.9137 19.1549C21.9137 15.2835 22.6189 12.3833 23.7736 10.4507C24.9283 8.51817 26.5302 7.55888 28.3379 7.55888ZM28.3379 9.31498C27.9951 9.31498 27.7094 9.36156 27.4838 9.54404C27.2583 9.72652 27.102 10.0303 26.9809 10.5462C26.7387 11.5779 26.6578 13.4494 26.6014 16.8166V16.8643H26.6488H29.6948H29.7423V16.8166C29.7423 13.526 29.7799 11.6626 29.6284 10.613C29.5526 10.0882 29.4306 9.75951 29.2204 9.56313C29.0102 9.36674 28.7187 9.31498 28.3379 9.31498ZM28.3379 9.41042C28.7094 9.41042 28.9694 9.46704 29.1539 9.63948C29.3385 9.81192 29.4591 10.1071 29.5335 10.6225C29.6814 11.6472 29.6478 13.5146 29.6474 16.7689H26.6962C26.7527 13.4405 26.8399 11.5797 27.0758 10.5748C27.1945 10.0693 27.3492 9.78307 27.5503 9.62039C27.7514 9.45771 28.0036 9.41042 28.3379 9.41042ZM86.0318 9.31498C85.6891 9.31498 85.4033 9.36151 85.1778 9.54404C84.9523 9.72657 84.7959 10.0398 84.6749 10.5557C84.4328 11.5876 84.3523 13.4489 84.2953 16.8166L84.2858 16.8643H84.3428H87.3888H87.4362V16.8166C87.4362 13.5254 87.4741 11.6627 87.3224 10.613C87.2465 10.0881 87.1246 9.75953 86.9143 9.56313C86.704 9.36672 86.4126 9.31498 86.0318 9.31498ZM86.0318 9.41042C86.4033 9.41042 86.6632 9.46701 86.8479 9.63948C87.0325 9.81194 87.1529 10.107 87.2275 10.6225C87.3756 11.6473 87.3418 13.514 87.3413 16.7689H84.3902C84.4471 13.44 84.534 11.5799 84.7698 10.5748C84.8884 10.0692 85.0432 9.78311 85.2442 9.62039C85.4452 9.45767 85.6976 9.41042 86.0318 9.41042ZM49.214 0.49629C48.892 0.550305 48.582 0.683973 48.2935 0.925772C47.6036 1.50353 47.3365 2.31316 47.5724 3.11136C47.8043 3.89632 48.5149 4.6696 49.7454 5.22059C49.282 5.75679 48.2678 6.77181 47.4205 7.58751L47.3921 7.61614L47.4205 7.65432L48.36 8.67553L48.3884 8.70416L48.4264 8.68507C50.3098 7.2642 51.4476 6.01505 51.9563 4.877C52.4651 3.73896 52.3366 2.70331 51.7096 1.72747C51.3647 1.18835 50.8054 0.751252 50.1819 0.563098C49.8701 0.46902 49.5359 0.442275 49.214 0.49629ZM49.233 0.59173C49.5387 0.540596 49.854 0.568186 50.1534 0.658539C50.7523 0.839243 51.2923 1.26592 51.6242 1.78474C52.2376 2.73939 52.3589 3.72608 51.8614 4.83883C51.3673 5.94416 50.2521 7.16661 48.3979 8.57055L47.5249 7.61614C48.3825 6.78911 49.4106 5.75586 49.8592 5.23013L49.9067 5.18241L49.8497 5.15378C48.5989 4.60909 47.8925 3.8451 47.6672 3.08272C47.442 2.32035 47.6852 1.55927 48.3505 1.00212C48.6262 0.770996 48.9272 0.642865 49.233 0.59173ZM112.355 0L112.307 0.00954404L106.405 0.458114L106.358 0.467658V0.505834V2.02334V2.07106H106.405H107.231C107.471 2.07106 107.63 2.10571 107.724 2.20467C107.818 2.30364 107.866 2.47986 107.866 2.77732V27.8972C107.866 28.1788 107.842 28.3502 107.771 28.4412C107.736 28.4868 107.684 28.5156 107.61 28.5367C107.536 28.5577 107.436 28.5653 107.306 28.5653H106.936H106.879V28.613V30.1305H106.936V30.1782H106.984H113.892H113.939V30.1305V28.613V28.5653H113.892H112.99C112.752 28.5653 112.602 28.5213 112.507 28.4126C112.411 28.3039 112.355 28.1186 112.355 27.8209V0.0572642V0ZM112.26 0.104984V27.8209C112.26 28.1288 112.31 28.3422 112.431 28.4794C112.551 28.6166 112.74 28.6607 112.99 28.6607H113.844V30.0828H106.984V28.6607H107.306C107.44 28.6607 107.55 28.6572 107.639 28.6321C107.727 28.607 107.798 28.5618 107.847 28.4985C107.946 28.372 107.961 28.1831 107.961 27.8972V2.77732C107.961 2.46976 107.912 2.26574 107.79 2.13786C107.669 2.00999 107.48 1.97562 107.231 1.97562H106.452V0.563098L112.26 0.104984ZM60.8097 0.458114V0.505834V2.02334V2.07106H60.8571H61.6447C61.8399 2.07106 62.0043 2.08839 62.1287 2.12832C62.2531 2.16826 62.3416 2.23356 62.4134 2.33829C62.5569 2.54774 62.6126 2.92961 62.6126 3.60765V27.7827C62.6126 28.0984 62.5628 28.2881 62.4229 28.4031C62.2829 28.518 62.0358 28.5653 61.6447 28.5653H60.8571H60.8097V28.613V30.1305V30.1782H60.8571H69.3974H69.4448V30.1305V28.613V28.5653H69.3974H68.5339C68.3393 28.5653 68.1834 28.5508 68.0594 28.508C67.9354 28.4653 67.8371 28.3959 67.7652 28.2885C67.6215 28.0737 67.566 27.6879 67.566 27.0287V16.1008H73.1835V27.0287C73.1835 27.6874 73.1139 28.0731 72.9653 28.2885C72.891 28.3962 72.8031 28.4653 72.6806 28.508C72.5581 28.5508 72.4009 28.5653 72.2156 28.5653H71.3521H71.3047V28.613V30.1305V30.1782H71.3521H79.8544H79.9018V30.1305V28.613V28.5653H79.8544H79.0953C78.9004 28.5653 78.7449 28.5508 78.6208 28.508C78.4967 28.4653 78.4079 28.3959 78.3361 28.2885C78.1926 28.0737 78.1369 27.6879 78.1369 27.0287V3.60765C78.1369 2.92958 78.1931 2.54771 78.3361 2.33829C78.4076 2.23358 78.4966 2.16825 78.6208 2.12832C78.745 2.08839 78.9 2.07106 79.0953 2.07106H79.8544H79.9018V2.02334V0.505834V0.458114H79.8544H71.3521H71.3047V0.505834V2.02334V2.07106H71.3521H72.2156C72.4013 2.07106 72.558 2.08839 72.6806 2.12832C72.8032 2.16825 72.8913 2.23327 72.9653 2.33829C73.1134 2.54832 73.1835 2.93005 73.1835 3.60765V14.2302H67.566V3.60765C67.566 2.9296 67.6221 2.54773 67.7652 2.33829C67.8368 2.23357 67.9258 2.16825 68.0499 2.12832C68.174 2.08839 68.3389 2.07106 68.5339 2.07106H69.3974H69.4448V2.02334V0.505834V0.458114H69.3974H60.8571H60.8097ZM60.9046 0.563098H69.3499V1.97562H68.5339C68.3343 1.97562 68.1615 1.98783 68.0214 2.03288C67.8814 2.07793 67.7728 2.15898 67.6893 2.28103C67.5225 2.52511 67.4711 2.92418 67.4711 3.60765V14.2779V14.3256H67.5185H73.231H73.2784V14.2779V3.60765C73.2784 2.92373 73.2224 2.52452 73.0507 2.28103C72.9649 2.15927 72.8474 2.07793 72.7091 2.03288C72.5707 1.98783 72.4062 1.97562 72.2156 1.97562H71.3996V0.563098H79.807V1.97562H79.0953C78.8954 1.97562 78.7325 1.98783 78.5923 2.03288C78.4522 2.07793 78.3341 2.15897 78.2507 2.28103C78.084 2.52514 78.0325 2.9242 78.0325 3.60765V27.0287C78.0325 27.6935 78.0846 28.0972 78.2507 28.3458C78.3338 28.4701 78.4521 28.5552 78.5923 28.6035C78.7326 28.6518 78.8951 28.6607 79.0953 28.6607H79.807V30.0828H71.3996V28.6607H72.2156C72.4066 28.6607 72.5706 28.6518 72.7091 28.6035C72.8475 28.5552 72.9651 28.4698 73.0507 28.3458C73.2218 28.0978 73.2784 27.6939 73.2784 27.0287V16.0531V16.0054H73.231H67.5185H67.4711V16.0531V27.0287C67.4711 27.6935 67.523 28.0972 67.6893 28.3458C67.7725 28.4701 67.8813 28.5552 68.0214 28.6035C68.1616 28.6518 68.3339 28.6607 68.5339 28.6607H69.3499V30.0828H60.9046V28.6607H61.6447C62.0435 28.6607 62.3089 28.6198 62.4798 28.4794C62.6507 28.339 62.717 28.1099 62.717 27.7827V3.60765C62.717 2.92417 62.6566 2.52511 62.4893 2.28103C62.4056 2.15899 62.2974 2.07792 62.1572 2.03288C62.0169 1.98784 61.8445 1.97562 61.6447 1.97562H60.9046V0.563098ZM0.183594 0.458114V0.505834V2.02334V2.07106H0.240529H0.838344C1.19523 2.07106 1.48119 2.28109 1.68288 2.67233C1.88456 3.06358 1.99602 3.63812 1.99602 4.33299V26.2747C1.99602 26.9502 1.88501 27.5293 1.68288 27.9354C1.48074 28.3415 1.19342 28.5653 0.838344 28.5653H0.240529H0.183594V28.613V30.1305V30.1782H0.240529H6.10482H6.15226V30.1305V28.613V28.5653H6.10482H5.20335C4.80807 28.5653 4.52286 28.3409 4.33035 27.9354C4.13783 27.5299 4.04567 26.9511 4.04567 26.2747V7.78794L8.68586 30.1019L8.69535 30.1401H8.73331H10.9917H11.0297L11.0392 30.1019L15.6794 7.7593V26.647C15.6794 27.3253 15.6244 27.8178 15.4801 28.1263C15.3357 28.4347 15.1222 28.5653 14.7589 28.5653H13.7056H13.6487V28.613V30.1305V30.1782H13.7056H22.1604H22.2079V30.1305V28.613V28.5653H22.1604H21.5247C21.1614 28.5653 20.9381 28.4347 20.794 28.1263C20.65 27.8178 20.5947 27.3253 20.5947 26.647V3.98941C20.5947 3.31135 20.6499 2.82792 20.794 2.51963C20.9381 2.21133 21.1615 2.07106 21.5247 2.07106H22.1604H22.2079V2.02334V0.505834V0.458114H22.1604H15.091H15.0531L15.0436 0.49629L11.4092 18.9545L7.53768 0.49629V0.458114H7.49023H0.240529H0.183594ZM0.287974 0.563098H7.46176L11.3618 19.1835V19.2026H11.4567V19.1835L15.129 0.563098H22.113V1.97562H21.5247C21.1357 1.97562 20.8649 2.13746 20.7086 2.47191C20.5523 2.80635 20.4998 3.30596 20.4998 3.98941V26.647C20.4998 27.3307 20.5523 27.8299 20.7086 28.1645C20.8649 28.4991 21.1355 28.6607 21.5247 28.6607H22.113V30.0828H13.7531V28.6607H14.7589C15.148 28.6607 15.4089 28.499 15.5655 28.1645C15.7221 27.8299 15.7837 27.3307 15.7837 26.647V7.25347V7.24393H15.7363L15.6888 7.23438V7.24393H15.6794V7.2821L10.9538 30.0446H8.77126L4.04567 7.32028V7.31073L3.99823 7.32028H3.95078V7.32982V26.2747C3.95078 26.9602 4.04233 27.5468 4.24495 27.9736C4.44756 28.4004 4.76996 28.6607 5.20335 28.6607H6.05737V30.0828H0.287974V28.6607H0.838344C1.23541 28.6607 1.55616 28.3998 1.76828 27.9736C1.9804 27.5474 2.09091 26.9611 2.09091 26.2747V4.33299C2.09091 3.62757 1.98078 3.03682 1.76828 2.62461C1.55578 2.2124 1.23391 1.97562 0.838344 1.97562H0.287974V0.563098ZM117.991 1.97562L117.982 2.00425C117.117 4.63164 116.489 6.10112 115.904 6.90034C115.318 7.69956 114.789 7.83566 114.082 7.83566H113.626H113.579V7.88338V9.51541V9.56313H113.626H115.088V25.5494C115.088 27.348 115.204 28.5987 115.78 29.4052C116.356 30.2116 117.385 30.56 119.158 30.56C120.313 30.56 121.283 30.3033 121.967 29.6342C122.652 28.9652 123.039 27.8893 123.039 26.2366V23.0202V22.9725H122.992H121.379H121.322V23.0202V26.5706C121.322 27.2303 121.276 27.6899 121.142 27.9736C121.007 28.2572 120.795 28.3744 120.43 28.3744C120.065 28.3744 119.872 28.2574 119.747 27.9927C119.622 27.7279 119.576 27.3082 119.576 26.7233V9.6013H122.916H122.964V9.55358V7.88338V7.83566H122.916H119.614V2.02334V1.97562H119.566H118.029H117.991ZM118.067 2.07106H119.519V7.88338V7.9311H119.566H122.869V9.50586H119.528H119.481V9.55358V26.7233C119.481 27.3124 119.523 27.7474 119.661 28.0404C119.8 28.3333 120.042 28.4699 120.43 28.4699C120.817 28.4699 121.079 28.3328 121.227 28.0213C121.375 27.7098 121.426 27.2349 121.426 26.5706V23.0679H122.945V26.2366C122.945 27.874 122.561 28.9222 121.901 29.5674C121.241 30.2127 120.299 30.455 119.158 30.455C117.397 30.455 116.408 30.1206 115.856 29.3479C115.304 28.5753 115.182 27.3436 115.182 25.5494V9.51541V9.46769H115.135H113.674V7.9311H114.082C114.803 7.9311 115.38 7.77552 115.98 6.9576C116.575 6.14447 117.209 4.67272 118.067 2.07106ZM98.567 7.46344C96.5622 7.46344 94.993 8.16554 94.1071 9.22908C93.2212 10.2926 93.0241 11.718 93.7845 13.1326C94.1096 13.7286 94.5957 14.1131 95.1319 14.2492C95.6681 14.3854 96.2565 14.2719 96.7925 13.8675C97.3504 13.442 97.6828 12.7786 97.5137 12.0446C97.3482 11.3261 96.6985 10.5517 95.3597 9.85899C95.5475 9.71089 95.8607 9.55763 96.2421 9.4486C96.6519 9.33147 97.106 9.25772 97.4757 9.25772C98.0182 9.25772 98.4296 9.30686 98.7283 9.41042C99.027 9.51399 99.2145 9.67026 99.3451 9.88762C99.6063 10.3224 99.6108 11.0231 99.6108 12.0446C99.6108 12.3463 99.6108 15.2929 99.6108 15.8813C96.9273 16.8007 95.0974 17.51 93.9458 18.7349C92.7875 19.967 92.3136 21.7061 92.3136 24.6427C92.3133 26.9189 92.7469 28.3988 93.4428 29.3097C94.1388 30.2207 95.1021 30.56 96.1283 30.56C97.2493 30.56 98.0864 30.1508 98.7188 29.6056C99.3205 29.0869 99.7197 28.4496 100.019 27.8972C100.202 28.7152 100.417 29.3809 100.863 29.8347C101.331 30.3096 102.044 30.56 103.198 30.56C104.523 30.56 105.357 30.1474 105.845 29.3479C106.333 28.5484 106.481 27.3708 106.481 25.8166V25.7689H106.433H105.077H105.029V25.8166C105.029 26.932 105.011 27.5443 104.934 27.8686C104.896 28.0308 104.845 28.1177 104.782 28.1645C104.719 28.2112 104.635 28.2313 104.517 28.2313C104.407 28.2313 104.331 28.2136 104.279 28.1835C104.228 28.1535 104.192 28.1062 104.166 28.0118C104.113 27.8228 104.109 27.4621 104.109 26.8378V13.0658C104.109 10.8442 103.51 9.43745 102.514 8.58963C101.519 7.74182 100.134 7.46344 98.567 7.46344ZM98.567 7.55888C100.122 7.55888 101.488 7.84008 102.458 8.66599C103.427 9.49189 104.014 10.8617 104.014 13.0658V26.8378C104.014 27.4621 104.01 27.8227 104.071 28.0404C104.101 28.1492 104.156 28.225 104.232 28.2694C104.308 28.3139 104.4 28.3267 104.517 28.3267C104.642 28.3267 104.751 28.3063 104.839 28.2408C104.928 28.1753 104.988 28.0708 105.029 27.8972C105.11 27.558 105.123 26.933 105.124 25.8643H106.386C106.382 27.3853 106.225 28.5388 105.76 29.3002C105.289 30.0706 104.504 30.455 103.198 30.455C102.058 30.455 101.375 30.2198 100.93 29.7679C100.485 29.3159 100.273 28.6407 100.085 27.7732L100.057 27.6395L99.9904 27.7636C99.6907 28.3286 99.2706 29.0059 98.6524 29.5388C98.0342 30.0717 97.2263 30.455 96.1283 30.455C95.123 30.455 94.1956 30.1385 93.5188 29.2525C92.8419 28.3665 92.4177 26.9064 92.418 24.6427C92.418 21.7166 92.8855 20.0102 94.0217 18.8018C95.1578 17.5933 96.97 16.8745 99.6772 15.9481L99.7057 15.9385V15.9004C99.7057 15.3329 99.7057 12.3478 99.7057 12.0446C99.7057 11.0231 99.7148 10.3131 99.4305 9.8399C99.2884 9.60332 99.0717 9.43375 98.7568 9.32452C98.4418 9.21531 98.0241 9.16228 97.4757 9.16228C97.093 9.16228 96.6312 9.23382 96.2137 9.35316C95.7962 9.47249 95.4273 9.64043 95.2268 9.82082L95.1794 9.86854L95.2363 9.89717C96.6199 10.5935 97.2588 11.3692 97.4188 12.0637C97.5788 12.7581 97.2697 13.3838 96.7356 13.7911C96.2195 14.1805 95.6581 14.2826 95.1509 14.1538C94.6437 14.0251 94.1842 13.6611 93.8699 13.0849C93.1256 11.7001 93.3199 10.3225 94.183 9.28635C95.0461 8.25021 96.5848 7.55888 98.567 7.55888ZM86.0318 7.46344C84.1909 7.46344 82.5597 8.44854 81.3916 10.403C80.2236 12.3575 79.5128 15.2716 79.5128 19.1549C79.5129 23.4154 80.1648 26.264 81.3062 28.0499C82.4477 29.8359 84.0837 30.56 86.0318 30.56C87.8818 30.56 89.2922 30.1547 90.1786 29.0234C91.065 27.8921 91.4206 26.0441 91.1939 23.1634V23.1157H91.1465H89.5713H89.5238V23.1729C89.5801 25.5914 89.406 26.9093 89.0114 27.6109C88.8141 27.9617 88.5639 28.1546 88.2523 28.2694C87.9407 28.3843 87.5631 28.4126 87.1231 28.4126C86.4785 28.4126 85.9944 28.3332 85.6238 28.0881C85.2532 27.843 84.9916 27.436 84.8077 26.771C84.4399 25.4411 84.3902 23.0882 84.3902 19.0785C84.3902 18.9389 84.3902 18.7195 84.3902 18.4486H91.526H91.5735V18.4009C91.5735 14.3502 91.1878 11.6225 90.3019 9.89717C89.4161 8.17179 88.0179 7.46344 86.0318 7.46344ZM86.0318 7.55888C87.9951 7.55888 89.3446 8.24663 90.2165 9.94489C91.0848 11.6359 91.4753 14.3373 91.4786 18.3532H84.3428H84.2953V18.4009C84.2953 18.7027 84.2953 18.9283 84.2953 19.0785C84.2953 23.0889 84.3378 25.434 84.7128 26.7901C84.9004 27.4682 85.1723 27.9035 85.5669 28.1645C85.9614 28.4254 86.47 28.5176 87.1231 28.5176C87.5672 28.5176 87.9506 28.4865 88.2808 28.3649C88.6109 28.2432 88.8898 28.0267 89.0968 27.6586C89.5067 26.9299 89.6702 25.599 89.6187 23.2206H91.099C91.3164 26.06 90.9598 27.8722 90.1027 28.9662C89.2403 30.0668 87.8679 30.455 86.0318 30.455C84.1072 30.455 82.5073 29.7627 81.3822 28.0022C80.257 26.2418 79.6078 23.4055 79.6077 19.1549C79.6077 15.2835 80.3126 12.3833 81.4676 10.4507C82.6225 8.51817 84.2252 7.55888 86.0318 7.55888ZM54.3191 7.46344C53.0112 7.46344 51.7638 7.8768 50.8461 8.76143C49.9284 9.64605 49.3373 10.9922 49.3373 12.8367C49.3373 14.5639 49.6286 15.7845 50.2388 16.9216C50.849 18.0587 51.778 19.1111 53.0381 20.5483C54.1293 21.797 54.9447 22.6992 55.4863 23.5356C56.0279 24.372 56.2929 25.1476 56.2929 26.1602C56.2929 26.9691 56.1794 27.5859 55.8659 28.0022C55.5523 28.4185 55.0431 28.6417 54.2053 28.6417C53.4977 28.6417 52.9194 28.4824 52.4593 27.964C51.9991 27.4457 51.6494 26.5628 51.4249 25.1295L51.1308 23.1634L51.1213 23.1157H51.0833H49.4227H49.3753V23.1729V30.1305V30.1782H49.4227H50.8176H50.8556L50.8651 30.1401C50.9394 29.7856 51.0667 29.4377 51.2162 29.2143C51.2909 29.1026 51.3707 29.0224 51.4439 28.9852C51.5171 28.9481 51.5811 28.9466 51.6527 28.9948C52.1529 29.5707 53.2934 30.56 55.1447 30.56C56.7724 30.56 58.0466 29.999 58.9119 29.0234C59.7771 28.0478 60.2309 26.6596 60.2309 24.9863C60.2309 23.2404 59.9253 21.981 59.3104 20.8155C58.6955 19.6501 57.7716 18.579 56.5301 17.1984C55.3458 15.8932 54.5334 14.999 54.0155 14.1634C53.4976 13.3277 53.2753 12.5524 53.2753 11.4815C53.2753 10.8623 53.3738 10.3625 53.6454 10.0212C53.917 9.67994 54.363 9.48677 55.0688 9.48677C55.7764 9.48677 56.3225 9.62617 56.7294 10.0308C57.1362 10.4354 57.4056 11.1153 57.5359 12.2068L57.8016 14.3256L57.8111 14.3638H57.8491H59.5002H59.5571V14.3161V7.88338V7.83566H59.5002H58.1527H58.1053V7.88338C58.0682 8.28127 58.0468 8.58825 58.0104 8.78051C57.9922 8.87665 57.9656 8.94595 57.944 8.9714C57.9332 8.98412 57.9247 8.9892 57.9155 8.99048C57.9081 8.99152 57.8935 8.98736 57.8776 8.98094C57.8767 8.98015 57.869 8.98174 57.8681 8.98094C57.5276 8.67531 56.2153 7.46344 54.3191 7.46344ZM54.3191 7.55888C56.179 7.55888 57.4821 8.75361 57.8206 9.05729L57.8301 9.06684C57.8642 9.08401 57.9 9.09073 57.9345 9.08592C57.969 9.08112 57.9976 9.06443 58.0199 9.0382C58.0644 8.98575 58.0859 8.90207 58.1053 8.7996C58.1425 8.60322 58.1662 8.30396 58.2002 7.9311H59.4528V14.2683H57.887L57.6308 12.1877C57.4991 11.0852 57.2258 10.3916 56.7958 9.96398C56.3658 9.53635 55.7892 9.39133 55.0688 9.39133C54.3452 9.39133 53.8622 9.59612 53.5695 9.96398C53.2768 10.3318 53.1804 10.8515 53.1804 11.4815C53.1804 12.5661 53.4045 13.3631 53.9301 14.2111C54.4557 15.0591 55.2795 15.96 56.4637 17.2652C57.7045 18.6451 58.6175 19.7118 59.225 20.8633C59.8326 22.0148 60.136 23.2517 60.136 24.9863C60.136 26.6419 59.6819 28.0123 58.836 28.9662C57.99 29.92 56.7506 30.455 55.1447 30.455C53.3186 30.455 52.2035 29.4888 51.7191 28.928L51.7096 28.9184C51.6125 28.8531 51.5028 28.8502 51.406 28.8993C51.3091 28.9485 51.2205 29.0371 51.1403 29.157C50.9864 29.3871 50.8667 29.7344 50.7892 30.0828H49.4702V23.2206H51.0454L51.3301 25.139C51.5559 26.5814 51.9031 27.4803 52.3833 28.0213C52.8636 28.5623 53.4824 28.7371 54.2053 28.7371C55.0603 28.7371 55.6166 28.5039 55.9513 28.0595C56.2859 27.6151 56.3973 26.9782 56.3973 26.1602C56.3973 25.1302 56.1203 24.3255 55.5717 23.4783C55.0231 22.6312 54.2046 21.739 53.114 20.4911C51.8541 19.054 50.927 17.997 50.3242 16.8739C49.7214 15.7507 49.4322 14.5528 49.4322 12.8367C49.4322 11.013 50.0154 9.70261 50.9125 8.83778C51.8097 7.97295 53.0318 7.55888 54.3191 7.55888ZM99.7057 17.0361L99.6393 17.0743C98.3208 17.8136 97.563 18.3632 97.1436 19.3553C96.7242 20.3474 96.6407 21.763 96.6407 24.2609C96.6407 25.6802 96.6664 26.5956 96.8494 27.1623C96.941 27.4457 97.0763 27.6471 97.267 27.7732C97.4577 27.8992 97.7009 27.9449 98.0071 27.9449C98.7165 27.9449 99.1559 27.6385 99.402 27.1337C99.6481 26.6289 99.7057 25.9364 99.7057 25.139V17.1125V17.0361ZM99.6108 17.2079V25.139C99.6108 25.931 99.55 26.6168 99.3166 27.0955C99.0832 27.5743 98.6894 27.8495 98.0071 27.8495C97.7115 27.8495 97.4929 27.7989 97.3239 27.6873C97.1549 27.5756 97.0315 27.4036 96.9443 27.1337C96.77 26.5938 96.7356 25.6789 96.7356 24.2609C96.7356 21.7652 96.8209 20.3588 97.229 19.3935C97.6274 18.4512 98.3549 17.918 99.6108 17.2079Z" fill="#333333"/>
</svg>
