<svg width="58" height="58" viewBox="0 0 58 58" fill="none" xmlns="http://www.w3.org/2000/svg">
<path fill-rule="evenodd" clip-rule="evenodd" d="M0.504479 0.000521149C19.5953 -0.0002425 38.6856 -0.000242467 57.7764 0.00103024C57.7764 19.0913 57.778 38.1816 57.7759 57.2725C38.6856 57.2732 19.5953 57.2732 0.504479 57.2725C0.503715 38.1816 0.503715 19.0913 0.504479 0.000521149ZM2.40669 1.90248C2.40592 19.7254 2.40592 37.5476 2.40669 55.3705C20.2294 55.371 38.0515 55.371 55.8745 55.3705C55.875 37.5476 55.875 19.7254 55.8745 1.90248C38.0515 1.90197 20.2294 1.9012 2.40669 1.90248ZM15.0998 14.5951C24.4604 14.5943 33.8213 14.5943 43.1814 14.5951C43.1819 17.072 43.1819 19.5482 43.1814 22.025C39.7394 22.0262 36.2975 22.0245 32.856 22.0257C32.8555 25.7283 32.856 29.4302 32.856 33.132C32.8456 33.8404 32.8756 34.5521 32.841 35.2577C30.374 37.7347 27.8952 40.2004 25.4274 42.6772L25.4223 42.6087C25.4289 40.1488 25.4228 37.6889 25.4256 35.2297C25.4249 30.8286 25.4256 26.4268 25.4249 22.0257C21.9829 22.0245 18.5417 22.0262 15.0998 22.025C15.0998 19.5482 15.099 17.072 15.0998 14.5951Z" fill="#333333"/>
</svg>
