<svg width="169" height="38" viewBox="0 0 169 38" fill="none" xmlns="http://www.w3.org/2000/svg">
<path fill-rule="evenodd" clip-rule="evenodd" d="M139.952 25.711C139.952 26.2403 140.032 26.692 140.232 27.0691C140.432 27.4089 140.632 27.5965 140.873 27.5965H99.3432C99.6236 27.5965 99.8648 27.4099 100.026 27.0691C100.224 26.7294 100.304 26.2786 100.304 25.7502V11.6615C100.304 11.1715 100.224 10.757 100.026 10.4172C99.8236 10.0401 99.5844 9.85159 99.3039 9.85159H108.234V23.6848H116.164V11.6615C116.164 11.1715 116.083 10.757 115.883 10.4172C115.683 10.0401 115.442 9.85159 115.161 9.85159H124.093V23.6848H132.023V11.6615C132.023 11.1715 131.941 10.757 131.742 10.4172C131.541 10.0401 131.301 9.85159 131.021 9.85159H139.951V25.711H139.952ZM168.259 26.9581C168.057 26.5437 167.977 26.091 167.977 25.6009V13.5499C167.977 12.5698 167.577 11.7017 166.857 10.9858C166.094 10.2316 165.175 9.85446 164.094 9.85446H143.908L142.867 13.8504C143.106 13.6006 143.284 13.4599 143.413 13.3661C143.801 13.0854 144.27 12.938 144.749 12.9459H158.205C158.685 12.9459 159.127 13.1345 159.487 13.4733C159.848 13.8131 160.048 14.2275 160.048 14.7176V14.9396H147.192C145.99 14.9396 144.99 15.3502 144.147 16.2174C143.347 17.0472 142.866 18.1019 142.866 19.3462V23.904C142.866 24.9214 143.266 25.7895 144.027 26.5064C144.788 27.2223 145.71 27.5956 146.792 27.5956H168.898C168.659 27.5946 168.459 27.4118 168.259 26.9581ZM152.68 23.6819C152.159 23.6819 151.719 23.5135 151.359 23.1737C150.998 22.8339 150.798 22.4195 150.798 21.9294L150.757 20.644C150.757 20.153 150.958 19.7386 151.319 19.3998C151.673 19.0571 152.147 18.8675 152.639 18.8724H160.049V23.681H152.68V23.6819ZM67.5535 10.9724C66.7926 10.2182 65.8719 9.85064 64.7903 9.85064H52.7632V0H44.8306V9.85064H32.9002C31.8186 9.85064 30.8979 10.2182 30.137 10.935C29.3761 11.6519 28.976 12.5191 28.976 13.5365V23.9116C28.976 24.9281 29.3761 25.7962 30.137 26.5131C30.8979 27.229 31.8186 27.5956 32.9002 27.5956H44.8345V37.45H52.7613V27.5956H64.7903C65.8049 27.6059 66.7828 27.2172 67.5133 26.5131C68.2742 25.7962 68.6753 24.929 68.6753 23.9116V13.5365C68.6753 12.5564 68.2742 11.6883 67.5535 10.9724ZM37.4656 23.1861C37.1048 22.8473 36.9048 22.4329 36.9048 21.9419V15.6192C36.9048 15.1282 37.0646 14.7147 37.4254 14.3749C37.7788 14.0315 38.2535 13.8416 38.7463 13.8466H44.8335V23.6944H38.7864C38.2658 23.6944 37.8255 23.5259 37.4656 23.1861ZM60.7446 21.9065C60.7446 22.3975 60.5446 22.8109 60.2249 23.1517C59.8641 23.4905 59.4238 23.6953 58.9031 23.6953H52.7661V13.8437H58.8639C59.3491 13.8433 59.8184 14.0176 60.1856 14.3347C60.5455 14.6745 60.7456 15.0889 60.7456 15.579V21.9065H60.7446ZM79.7261 21.3896L88.9384 9.84968H96.9054V25.7081C96.9054 26.2374 96.9858 26.6882 97.1858 27.0663C97.3859 27.4061 97.5859 27.5936 97.8271 27.5936H88.0147C88.2952 27.5936 88.4876 27.3812 88.6953 27.0663C89.0054 26.5982 88.9776 25.9273 88.9776 25.667V15.9331L79.685 27.5936H70.8355C71.1159 27.5936 71.3561 27.407 71.5169 27.0663C71.717 26.7265 71.7964 26.2747 71.7964 25.7474V11.6586C71.7964 11.1686 71.717 10.7532 71.5169 10.4144C71.3159 10.0373 71.0757 9.84872 70.7962 9.84872H79.7271V21.3896H79.7261ZM26.0779 26.9581C25.8778 26.5437 25.7984 26.091 25.7984 25.6009V13.5355C25.7984 12.5564 25.3983 11.6883 24.6776 10.9724C23.9167 10.2182 22.996 9.84106 21.9144 9.84106H1.72884L0.6875 13.838C0.927736 13.5882 1.10385 13.4475 1.23306 13.3537C1.62141 13.0731 2.09014 12.9257 2.56919 12.9335H16.0262C16.5067 12.9335 16.947 13.1221 17.3078 13.4618C17.6677 13.8006 17.8677 14.2294 17.8677 14.7185V14.9406H5.01271C3.81153 14.9406 2.81038 15.3512 1.96908 16.2183C1.16797 17.0481 0.6875 18.1029 0.6875 19.3471V23.9049C0.6875 24.9223 1.08853 25.7904 1.84944 26.5073C2.60939 27.2232 3.53109 27.5965 4.61263 27.5965H26.7182C26.4779 27.5946 26.2789 27.4118 26.0779 26.9581ZM10.4989 23.6819C9.97918 23.6819 9.53795 23.5135 9.17712 23.1737C8.81724 22.8339 8.6172 22.4195 8.6172 21.9294L8.57701 20.644C8.57701 20.153 8.77704 19.7386 9.13788 19.3998C9.49169 19.0572 9.96621 18.8677 10.4587 18.8724H17.8677V23.681H10.4989V23.6819Z" fill="#333333"/>
</svg>
