<svg width="120" height="32" viewBox="0 0 120 32" fill="none" xmlns="http://www.w3.org/2000/svg">
<path d="M11.5055 2.9077H14.1156C15.7051 2.67353 17.3284 2.87941 18.8091 3.50297C20.6668 4.62062 22.0142 6.41992 22.564 8.51703C22.9532 9.616 22.9532 9.616 23.8919 9.22679H24.6245V0.526591H0.0579253V2.06057H1.06532C1.50308 2.05754 1.93597 2.15262 2.33217 2.33884C2.72837 2.52505 3.07782 2.79767 3.35484 3.13665C4.29355 4.64774 4.45381 6.34198 4.45381 15.1567C4.45381 24.5208 4.24776 26.8103 3.35484 27.978C3.1344 28.2782 2.84901 28.5247 2.51996 28.6991C2.19091 28.8736 1.8267 28.9714 1.45454 28.9854C0.0579253 29.2372 0.0579253 29.2143 0.0579253 29.8325C-0.0193084 30.0392 -0.0193084 30.2669 0.0579253 30.4736H15.558C15.6606 30.2714 15.714 30.0478 15.714 29.8211C15.714 29.5943 15.6606 29.3708 15.558 29.1685C15.1826 29.0641 14.8 28.9876 14.4132 28.9396C13.9949 28.8898 13.5814 28.8056 13.1769 28.6877C12.5977 28.2649 12.1388 27.6982 11.8457 27.0437C11.5526 26.3892 11.4353 25.6695 11.5055 24.9558C11.2766 23.4447 11.1621 20.6744 11.1621 18.3849V16.5762H12.0779C13.2189 16.5413 14.3593 16.6645 15.4664 16.9425C15.9968 17.2703 16.4483 17.7111 16.7887 18.2335C17.1291 18.7559 17.3499 19.347 17.4354 19.9647L17.6415 20.6744H19.0381V10.5318H17.756L17.5499 11.5163C17.4632 12.1479 17.2295 12.7504 16.8677 13.2753C16.5058 13.8001 16.0259 14.2328 15.4664 14.5385C14.9246 14.6997 14.3538 14.7388 13.7951 14.653H11.1621V12.1803C11.1621 9.616 11.2995 4.21273 11.3911 3.3656L11.5055 2.9077ZM118.655 21.0636C117.573 19.3218 115.885 18.0415 113.916 17.4691C112.406 16.9972 111.011 16.2176 109.818 15.1795C109.549 14.9198 109.348 14.5984 109.233 14.2432C109.117 13.888 109.09 13.5099 109.154 13.1419C109.156 12.42 109.444 11.7283 109.955 11.2187C110.302 10.8557 110.74 10.5937 111.224 10.4606C111.708 10.3275 112.219 10.3284 112.703 10.4631C113.703 10.7484 114.609 11.2991 115.322 12.0568C116.035 12.8146 116.531 13.7512 116.755 14.7674C117.121 15.7977 117.167 15.7977 117.831 15.523L118.243 15.3627V9.6618L117.946 9.52442C115.692 8.73277 113.301 8.40567 110.917 8.56282C108.864 8.61484 106.904 9.43131 105.422 10.8523C104.75 11.4817 104.223 12.2504 103.879 13.1047C103.535 13.9589 103.382 14.8781 103.43 15.7977C103.443 17.2038 104.001 18.5499 104.987 19.5525C106.076 20.624 107.413 21.4104 108.879 21.8421C112.428 23.2387 113.458 24.1316 113.458 25.7572C113.473 26.4427 113.255 27.113 112.839 27.658C112.423 28.203 111.834 28.5904 111.169 28.7564C110.369 28.9321 109.541 28.9321 108.742 28.7564C107.695 28.3502 106.76 27.6999 106.016 26.8596C105.271 26.0194 104.738 25.0135 104.46 23.9255L104.163 23.1929H103.751C103.554 23.2075 103.36 23.2539 103.178 23.3303H102.949V29.8325H103.338C104.885 30.3471 106.481 30.7 108.101 30.8857H110.39C111.383 30.9586 112.381 30.8657 113.344 30.6109C114.565 30.3855 115.707 29.8442 116.655 29.0409C117.603 28.2376 118.324 27.2002 118.747 26.0319C119.02 25.3793 119.16 24.6788 119.159 23.9713C119.249 22.9747 119.075 21.9719 118.655 21.0636ZM97.088 9.22679C95.716 8.65076 94.2378 8.37134 92.7502 8.40685C91.2626 8.44237 89.7994 8.79201 88.4565 9.43284C87.1942 10.0503 86.0754 10.9256 85.1723 12.0022C84.2692 13.0788 83.6019 14.3328 83.2135 15.6832C82.7182 17.1564 82.5084 18.7105 82.5953 20.2623C82.5789 21.1066 82.6479 21.9504 82.8013 22.7808C83.1711 24.8226 84.1568 26.7023 85.6261 28.1675C87.0954 29.6328 88.9779 30.6132 91.0207 30.9773C92.351 31.1449 93.6971 31.1449 95.0274 30.9773C96.4078 30.734 97.729 30.2288 98.9196 29.4891C99.9044 28.937 100.738 28.1506 101.347 27.1996C101.307 27.0503 101.239 26.9105 101.144 26.7886C101.05 26.6666 100.932 26.565 100.797 26.4898C100.536 26.5844 100.289 26.7155 100.064 26.879C98.9256 27.6295 97.5809 28.0057 96.218 27.9551C95.3134 28.0162 94.4065 27.8754 93.563 27.5428C92.7196 27.2101 91.9606 26.6941 91.3413 26.0319C90.8622 25.5869 90.4667 25.0596 90.1736 24.475C89.4622 23.0517 89.0788 21.487 89.0518 19.896V19.0031H101.736V18.5451C101.764 18.0877 101.764 17.6289 101.736 17.1714C101.731 15.5548 101.299 13.9682 100.482 12.5728C99.6661 11.1774 98.495 10.023 97.088 9.22679ZM90.7002 17.1485H89.0975V15.7977C89.6241 12.3405 90.9292 10.28 92.5318 10.28C94.1345 10.28 94.8214 12.3176 95.119 16.0496V17.1028H93.7453L90.7002 17.1485ZM57.7768 8.47124C56.9857 8.44056 56.1993 8.60572 55.4873 8.95204C53.9399 9.70353 52.69 10.9534 51.9386 12.5008L51.6409 13.0503V8.47124H51.5264C51.2517 8.47124 42.7805 10.1655 42.5057 10.28C42.231 10.3944 42.3226 10.4173 42.3226 10.8295C42.3226 11.2416 42.3226 11.3103 42.5057 11.3331L43.3986 11.5163C43.6487 11.5224 43.8941 11.5854 44.1163 11.7005C44.3384 11.8155 44.5314 11.9796 44.6808 12.1803C45.2531 12.9358 45.3676 14.2637 45.3676 19.9189C45.4807 22.4647 45.3735 25.0156 45.0471 27.543C44.9703 27.9241 44.777 28.2719 44.494 28.5385C44.2111 28.8051 43.8523 28.9772 43.4673 29.0312L42.6889 29.1914H42.3912V29.8325C42.3082 30.046 42.3082 30.2829 42.3912 30.4965H55.1897V29.8325C55.2341 29.6134 55.2341 29.3876 55.1897 29.1685C54.4191 29.1385 53.6528 29.0389 52.9002 28.8709C52.4903 28.6565 52.155 28.323 51.9384 27.9143C51.7218 27.5056 51.634 27.0409 51.6867 26.5814C51.5035 25.2535 51.412 21.3613 51.4578 18.3849C51.5036 15.4085 51.4578 15.2253 51.7096 15.0193C52.4757 14.4319 53.4238 14.1321 54.3883 14.1722C55.2976 14.192 56.1903 14.4191 56.9984 14.8361C57.2786 14.9917 57.5791 15.1073 57.8913 15.1795C57.8913 15.1795 60.1808 9.6389 60.1808 9.38705C59.8879 9.04659 59.5146 8.78455 59.0948 8.62464C58.6751 8.46474 58.2221 8.41201 57.7768 8.47124ZM42.3454 18.0872C42.2655 16.4512 41.7958 14.8579 40.9754 13.4401C40.155 12.0223 39.0077 10.8211 37.629 9.93654C35.9906 9.05266 34.1678 8.56531 32.3069 8.51362C30.446 8.46193 28.599 8.84734 26.914 9.6389C24.5318 10.8951 22.7331 13.0306 21.9 15.5917C21.0395 18.4591 21.0395 21.516 21.9 24.3834C22.3511 25.9506 23.1942 27.3768 24.3498 28.5275C25.789 29.9318 27.6447 30.8315 29.6386 31.0917C30.9185 31.1988 32.2051 31.1988 33.485 31.0917C33.956 31.0201 34.4223 30.9207 34.8816 30.7941C36.7452 30.2728 38.4218 29.2315 39.7152 27.7922C41.0086 26.3528 41.8653 24.5748 42.1852 22.6663C42.4137 21.1511 42.4675 19.6147 42.3454 18.0872ZM32.821 29.5349C30.5315 30.2217 28.8144 28.0009 28.242 23.3303C28.0318 20.885 28.0318 18.4262 28.242 15.9809C28.6999 12.2261 29.8675 10.3258 31.6763 10.3258C32.0412 10.3031 32.4062 10.3682 32.7408 10.5156C33.0754 10.663 33.3698 10.8884 33.5995 11.1729C35.1334 12.7069 35.889 15.7519 35.889 20.331C36.0795 22.9225 35.6722 25.5231 34.6984 27.9322C34.2685 28.6348 33.6032 29.1622 32.821 29.4204V29.5349ZM74.0325 8.92915C73.3864 8.84601 72.7324 8.84601 72.0864 8.92915C70.8463 8.92809 69.6204 9.19357 68.4918 9.70759L67.7821 10.0052V5.03695C67.9061 3.36026 67.9061 1.67669 67.7821 0C67.5073 0 58.7613 1.67135 58.624 1.74004C58.5564 1.90907 58.5564 2.09759 58.624 2.26663C58.624 2.74743 58.624 2.72453 59.6543 2.95349C59.9435 3.01836 60.2214 3.12642 60.4785 3.27402C60.9254 3.69428 61.2228 4.24899 61.3256 4.85379C61.5863 6.59617 61.6707 8.36039 61.5775 10.1197V30.2217L62.1956 30.3591C63.1114 30.5652 65.6986 31.0002 66.5457 31.0917C68.2373 31.2263 69.9369 31.2263 71.6285 31.0917C73.506 30.9 75.2957 30.1995 76.8046 29.0658C78.3135 27.9321 79.4845 26.4082 80.1913 24.6582C80.6127 23.535 80.9046 22.3674 81.0613 21.1781C81.1976 19.5671 81.1438 17.9456 80.901 16.3472C80.6554 14.5555 79.8646 12.8826 78.6359 11.5556C77.4072 10.2286 75.8001 9.31167 74.0325 8.92915ZM68.0339 29.1456C68.0339 28.848 67.805 18.8199 67.8508 14.8132V11.6766L68.5147 11.5163C68.9627 11.4521 69.4175 11.4521 69.8655 11.5163C70.361 11.4659 70.8593 11.5785 71.285 11.8368C72.1401 12.4269 72.8501 13.2033 73.3617 14.1075C73.8732 15.0117 74.1731 16.0201 74.2385 17.057C74.4053 18.7242 74.4053 20.4038 74.2385 22.071C74.1015 24.4941 73.1678 26.8041 71.5827 28.642C71.1328 29.0693 70.5677 29.3558 69.9571 29.4662C69.495 29.5465 69.0226 29.5465 68.5605 29.4662C68.1255 29.4662 68.1255 29.3288 68.1255 29.1456H68.0339Z" fill="#333333"/>
</svg>
