<svg width="265" height="37" viewBox="0 0 265 37" fill="none" xmlns="http://www.w3.org/2000/svg">
<path d="M214.106 16.4669L203.982 5.65088H198.062V30.6938H204.243V14.7159L213.486 24.1822H214.629L223.713 14.7159V30.6938H229.893V5.65088H223.974L214.106 16.4669H214.106Z" fill="black"/>
<path d="M259.338 5.65088L244.02 21.9278V5.65088H237.84V30.6938H243.502L258.82 14.4167V30.6938H265V5.65088H259.338Z" fill="black"/>
<path d="M164.775 14.8144C164.775 18.8015 167.045 21.9424 170.528 23.2593L163.996 30.6937H171.561L177.502 23.9305H183.932V30.6937H190.111V5.65088H174.378C168.512 5.65088 164.775 9.5067 164.775 14.8144L164.775 14.8144ZM183.935 11.1664V18.5717H175.524C172.718 18.5717 171.212 17.0687 171.212 14.8654C171.212 12.6621 172.77 11.1591 175.524 11.1591L183.935 11.1664Z" fill="black"/>
<path d="M136.055 10.6594C135.677 19.2721 133.786 24.8315 130.083 24.8315H129.156V30.8433L130.144 30.8944C137.568 31.292 141.672 25.0322 142.345 11.3598H152.11V30.6937H158.279V5.65088H136.263L136.055 10.6594L136.055 10.6594Z" fill="black"/>
<path d="M112.79 5.30078C104.432 5.30078 98.418 10.8602 98.418 18.1706C98.418 25.7327 104.961 31.0951 112.79 31.0951C120.944 31.0951 127.279 25.4336 127.279 18.1706C127.279 10.9076 120.944 5.30078 112.79 5.30078ZM112.79 25.0834C108.066 25.0834 104.848 22.1286 104.848 18.1706C104.848 14.1141 108.07 11.2396 112.79 11.2396C117.51 11.2396 120.838 14.2455 120.838 18.1706C120.838 22.0958 117.465 25.0834 112.79 25.0834Z" fill="black"/>
<path d="M91.8609 5.69897H70.0495L69.8412 10.7075C69.5313 17.9231 67.5721 24.7848 63.8695 24.8833L62.1562 24.9344V36.6077H68.3889V30.6981H90.0415V36.6077H96.3277V24.8833H91.8609V5.69897ZM85.6808 24.8833H72.4927C74.7241 21.6294 75.9192 16.92 76.1274 11.4116H85.6808V24.8833Z" fill="black"/>
<path d="M47.942 0H41.9492V30.8273H47.942V0Z" fill="black"/>
<path d="M33.9615 1.927H27.9688V32.7543H33.9615V1.927Z" fill="black"/>
<path d="M19.9732 3.85352H13.9805V34.6808H19.9732V3.85352Z" fill="black"/>
<path d="M5.99273 5.78052H0V36.6078H5.99273V5.78052Z" fill="black"/>
</svg>
