<svg width="113" height="25" viewBox="0 0 113 25" fill="none" xmlns="http://www.w3.org/2000/svg">
<path fill-rule="evenodd" clip-rule="evenodd" d="M13.5317 0.570335C11.0151 0.305245 8.47822 0.826111 6.26966 2.06134C4.0611 3.29657 2.28934 5.18552 1.19789 7.46856C0.106449 9.7516 -0.251093 12.3166 0.174412 14.8111C0.599918 17.3056 1.78758 19.6071 3.57416 21.3992C5.36073 23.1913 7.65852 24.3861 10.1517 24.8193C12.6448 25.2525 15.211 24.9029 17.4974 23.8185C19.7838 22.7342 21.6782 20.9682 22.9203 18.7635C24.1623 16.5588 24.691 14.0235 24.4337 11.5061C24.1506 8.70783 22.9119 6.0926 20.9262 4.10076C18.9405 2.10892 16.3291 0.862134 13.5317 0.570335ZM13.1348 19.2335C11.7813 19.4151 10.405 19.168 9.19915 18.5269C7.99334 17.8859 7.01872 16.8831 6.41226 15.6595C5.8058 14.4359 5.59799 13.0531 5.81803 11.7053C6.03807 10.3575 6.67491 9.11258 7.63904 8.14543C8.60317 7.17828 9.84612 6.53755 11.1932 6.31329C12.5403 6.08903 13.9238 6.29251 15.1492 6.89514C16.3747 7.49777 17.3805 8.46925 18.0254 9.67305C18.6702 10.8768 18.9216 12.2524 18.7443 13.6065C18.5582 15.0307 17.9077 16.3539 16.8937 17.3711C15.8796 18.3884 14.5585 19.0429 13.1348 19.2335ZM30.985 1.0549C30.5602 1.05592 30.1409 1.15163 29.7577 1.33508C29.3746 1.51852 29.0371 1.78509 28.7699 2.11537C28.5027 2.44565 28.3125 2.83135 28.2132 3.24439C28.1138 3.65743 28.1078 4.08742 28.1955 4.50309C28.4643 5.8497 29.7221 6.7698 31.0923 6.7698H39.0439L26.6694 23.1457C26.5779 23.2666 26.5219 23.4106 26.5076 23.5615C26.4933 23.7125 26.5214 23.8644 26.5886 24.0003C26.6559 24.1362 26.7597 24.2507 26.8883 24.331C27.017 24.4112 27.1654 24.454 27.3171 24.4546H46.7276C48.0968 24.4546 49.3556 23.5347 49.6243 22.1879C49.7121 21.7723 49.7061 21.3423 49.6068 20.9293C49.5076 20.5163 49.3175 20.1307 49.0504 19.8004C48.7834 19.4701 48.446 19.2034 48.063 19.0199C47.68 18.8363 47.2608 18.7404 46.836 18.7392H37.1477L49.5126 2.37608C49.605 2.25401 49.6616 2.1086 49.676 1.95617C49.6904 1.80374 49.662 1.65032 49.594 1.51312C49.5261 1.37593 49.4212 1.26037 49.2913 1.17944C49.1613 1.0985 49.0114 1.05537 48.8583 1.0549H30.985ZM108.548 1.12082C107.905 1.27363 107.334 1.64118 106.929 2.16269C106.523 2.6842 106.308 3.32845 106.319 3.98891V13.504L90.9005 1.23462C90.7796 1.13865 90.6341 1.07875 90.4806 1.06183C90.3272 1.04491 90.1721 1.07164 90.0332 1.13896C89.8943 1.20628 89.7772 1.31145 89.6954 1.44237C89.6136 1.57329 89.5704 1.72465 89.5708 1.87902V21.5257C89.5603 22.1861 89.7756 22.8304 90.181 23.3519C90.5864 23.8735 91.1576 24.241 91.8003 24.3938C92.2176 24.4856 92.6502 24.4825 93.0661 24.3849C93.4821 24.2872 93.8708 24.0974 94.2037 23.8295C94.5365 23.5615 94.8049 23.2223 94.9892 22.8368C95.1734 22.4512 95.2687 22.0293 95.2681 21.602V12.0045L110.686 24.2742C110.807 24.3701 110.953 24.43 111.106 24.4469C111.26 24.4638 111.415 24.437 111.553 24.3697C111.692 24.3024 111.809 24.1973 111.891 24.0665C111.973 23.9356 112.016 23.7843 112.016 23.63V3.91166C112.016 3.48448 111.921 3.06265 111.736 2.67726C111.552 2.29188 111.284 1.95277 110.951 1.68493C110.618 1.4171 110.23 1.22737 109.814 1.12974C109.398 1.03211 108.965 1.02906 108.548 1.12082ZM68.4036 6.22278C74.9251 6.22278 79.7978 9.66912 79.7978 12.7519C79.7978 15.8346 74.9251 19.2809 68.4036 19.2809C61.8822 19.2809 57.0094 15.8346 57.0094 12.7519C57.0094 9.66912 61.8822 6.22278 68.4036 6.22278ZM68.4036 0.508116C58.9641 0.508116 51.3121 5.98987 51.3121 12.7519C51.3121 19.5138 58.9641 24.9956 68.4036 24.9956C77.8431 24.9956 85.4949 19.5138 85.4949 12.7519C85.4949 5.98987 77.8429 0.508116 68.4036 0.508116Z" fill="#0069FF"/>
</svg>
