<svg width="144" height="41" viewBox="0 0 144 41" fill="none" xmlns="http://www.w3.org/2000/svg">
<path d="M30.1845 40.759C36.2385 40.759 41.1463 35.8291 41.1463 29.7477C41.1463 23.6663 36.2385 18.7363 30.1845 18.7363C24.1304 18.7363 19.2227 23.6663 19.2227 29.7477C19.2227 35.8291 24.1304 40.759 30.1845 40.759Z" fill="#97CF26"/>
<path d="M9.58102 34.8732C12.399 34.8732 14.6835 32.5784 14.6835 29.7476C14.6835 26.9169 12.399 24.6221 9.58102 24.6221C6.76298 24.6221 4.47852 26.9169 4.47852 29.7476C4.47852 32.5784 6.76298 34.8732 9.58102 34.8732Z" fill="#A169F7"/>
<path d="M30.1865 16.1369C34.0832 16.1369 37.2421 12.9637 37.2421 9.0494C37.2421 5.13509 34.0832 1.96191 30.1865 1.96191C26.2898 1.96191 23.1309 5.13509 23.1309 9.0494C23.1309 12.9637 26.2898 16.1369 30.1865 16.1369Z" fill="#FF6163"/>
<path d="M9.57903 18.0988C14.5544 18.0988 18.5878 14.0473 18.5878 9.04942C18.5878 4.05156 14.5544 0 9.57903 0C4.60365 0 0.570312 4.05156 0.570312 9.04942C0.570312 14.0473 4.60365 18.0988 9.57903 18.0988Z" fill="#00AAFF"/>
<path d="M69.6449 34.8135H75.3353L64.7968 5.98877H60.6694L50.1289 34.8145H55.8198L57.8325 29.3122H67.6322L69.6449 34.8145L59.4174 24.9744L62.7328 15.9103L66.0463 24.9744H59.4174L69.6449 34.8135ZM89.4416 15.1343L84.2048 29.4535L78.9705 15.1343H73.6238L80.822 34.8135H87.5886L94.7858 15.1343H89.4406H89.4416ZM97.0236 15.1343H102.37V34.8135H97.0236V15.1343Z" fill="black"/>
<path d="M99.7138 12.8997C101.615 12.8997 103.156 11.3515 103.156 9.4418C103.156 7.53205 101.615 5.98389 99.7138 5.98389C97.8127 5.98389 96.2715 7.53205 96.2715 9.4418C96.2715 11.3515 97.8127 12.8997 99.7138 12.8997Z" fill="black"/>
<path d="M121.248 19.4711V15.1342H114.843V9.70557H109.5V15.1342H105.271V19.4711H109.5V27.9378C109.5 32.3051 111.674 35.22 117.225 35.22C119.368 35.22 121.248 34.4294 121.248 34.4294L120.599 30.1803C120.599 30.1803 119.546 30.4962 118.252 30.4962C116.666 30.4962 114.843 29.8095 114.843 27.6072V19.4706H121.248V19.4711ZM133.509 30.3152C130.528 30.3152 128.112 27.9413 128.112 25.0131C128.112 22.0873 130.528 19.7129 133.508 19.7129C136.49 19.7129 138.904 22.0878 138.904 25.0136C138.904 27.9417 136.49 30.3157 133.509 30.3157V30.3152ZM133.509 14.632C127.714 14.632 123.014 19.2499 123.014 24.9419C123.014 30.6365 127.714 35.2519 133.508 35.2519C139.3 35.2519 144 30.6365 144 24.9419C144 19.2499 139.3 14.632 133.508 14.632" fill="black"/>
</svg>
