<svg width="155" height="38" viewBox="0 0 155 38" fill="none" xmlns="http://www.w3.org/2000/svg">
<path d="M0 18.8871C0 29.338 8.44887 37.7742 18.9154 37.7742C29.3819 37.7742 37.8308 29.338 37.8308 18.8871C37.8308 8.43624 29.3819 0 18.9154 0C8.44887 0 0 8.43624 0 18.8871ZM6.55733 18.8871C6.55733 12.3396 11.6014 7.05118 18.0327 6.54753V13.0951C15.2584 13.4728 13.1147 15.8652 13.1147 18.7612C13.1147 21.909 15.6367 24.5532 18.9154 24.5532C22.194 24.5532 24.7161 22.0349 24.7161 18.7612C24.7161 15.8652 22.5724 13.4728 19.7981 13.0951V6.54753C26.2293 6.92527 31.2734 12.3396 31.2734 18.8871C31.2734 25.6864 25.7249 31.2267 18.9154 31.2267C12.1058 31.2267 6.55733 25.6864 6.55733 18.8871ZM16.3933 3.27376C16.3933 1.88871 17.5283 0.755484 18.9154 0.755484C20.3025 0.755484 21.4374 1.88871 21.4374 3.27376C21.4374 4.65882 20.3025 5.79204 18.9154 5.79204C17.5283 5.79204 16.3933 4.65882 16.3933 3.27376Z" fill="#B74746"/>
<path d="M50.4398 23.0421H45.0174C44.1346 23.0421 43.6302 22.5384 43.6302 21.657V16.2427C43.6302 15.2354 44.1346 14.8577 45.0174 14.8577H50.4398C51.3225 14.8577 51.8269 15.3613 51.8269 16.2427V21.657C51.8269 22.5384 51.3225 23.0421 50.4398 23.0421ZM55.1056 15.9909C55.1056 12.969 53.5923 11.458 50.692 11.458H44.7652C41.7387 11.458 40.3516 12.969 40.3516 15.9909V21.657C40.3516 24.679 41.8648 26.1899 44.7652 26.1899H50.692C53.5923 26.1899 55.1056 24.679 55.1056 21.657V15.9909Z" fill="#B74746"/>
<path d="M71.5001 11.458H56.7461V14.7318H62.5468V26.3159H65.8255V14.7318H71.5001V11.458Z" fill="#B74746"/>
<path d="M88.0188 15.991C88.0188 13.095 86.6316 11.584 83.8574 11.584H73.1387V14.8577H83.2269C84.2357 14.8577 84.7401 15.2355 84.7401 16.1169C84.7401 16.9983 84.2357 17.376 83.2269 17.376H78.9394V20.6498H83.2269C84.2357 20.6498 84.7401 21.0275 84.7401 21.9089C84.7401 22.7903 84.2357 23.1681 83.2269 23.1681H73.1387V26.4418H83.2269C86.3794 26.4418 88.0188 25.1827 88.0188 22.5385C88.0188 21.2794 87.7666 20.0202 87.1361 19.1388C87.7666 17.8797 88.0188 16.8724 88.0188 15.991Z" fill="#B74746"/>
<path d="M99.7464 23.0421H94.324C93.4413 23.0421 92.9369 22.5384 92.9369 21.657V16.2427C92.9369 15.2354 93.4413 14.8577 94.324 14.8577H99.7464C100.629 14.8577 101.134 15.3613 101.134 16.2427V21.657C101.134 22.5384 100.629 23.0421 99.7464 23.0421ZM104.412 15.9909C104.412 12.969 102.899 11.458 99.9986 11.458H94.0718C91.0453 11.458 89.6582 12.969 89.6582 15.9909V21.657C89.6582 24.679 91.1714 26.1899 94.0718 26.1899H99.9986C102.899 26.1899 104.412 24.679 104.412 21.657V15.9909Z" fill="#B74746"/>
<path d="M117.653 21.783C117.653 20.9016 117.149 20.5238 116.266 20.5238H109.456V23.0421H116.266C117.149 23.0421 117.653 22.5384 117.653 21.783ZM117.653 15.9909C117.653 15.1095 117.149 14.7318 116.266 14.7318H109.456V17.25H116.266C117.149 17.25 117.653 16.8723 117.653 15.9909ZM120.932 21.783C120.932 24.8049 119.419 26.1899 116.518 26.1899H106.178V11.458H116.518C119.419 11.458 120.932 12.969 120.932 15.865C120.932 17.2501 120.553 18.2574 120.049 18.761C120.553 19.5165 120.932 20.5238 120.932 21.783Z" fill="#B74746"/>
<path d="M137.324 26.3159H134.046V15.9909L125.849 26.3159H122.57V11.458H125.849V21.783L134.046 11.458H137.324V26.3159Z" fill="#B74746"/>
<path d="M148.17 18.8869L154.097 11.458H150.314L145.648 17.25H142.244V11.458H138.965V26.3159H142.244V20.5238H145.648L150.314 26.3159H154.097L148.17 18.8869Z" fill="#B74746"/>
</svg>
