<svg width="194" height="36" viewBox="0 0 194 36" fill="none" xmlns="http://www.w3.org/2000/svg">
<path d="M90.8908 30.2325H94.7251L100.084 10.353V30.2325H104.398V3.9585H98.4723L93.113 23.229L87.7537 3.9585H81.6973V30.2325H85.4008V10.353L90.8908 30.2325ZM122.437 17.226C122.437 12.5715 120.127 10.8315 115.334 10.8315C112.328 10.8315 109.975 11.745 108.581 12.5715V16.269C109.757 15.3555 112.415 14.3985 114.768 14.3985C116.99 14.3985 117.905 15.225 117.905 17.1825V18.2265H117.208C110.324 18.2265 107.187 20.532 107.187 24.4035C107.187 28.275 109.496 30.45 113.025 30.45C115.683 30.45 116.859 29.6235 117.687 28.71H117.905C117.905 29.1885 118.123 29.8845 118.254 30.2325H122.698C122.567 28.71 122.48 27.1005 122.48 25.578C122.437 25.578 122.437 17.226 122.437 17.226ZM117.905 25.7085C117.339 26.535 116.293 27.231 114.637 27.231C112.764 27.231 111.849 26.0565 111.849 24.447C111.849 22.2285 113.374 21.4455 117.339 21.4455H118.036V25.752H117.905V25.7085ZM130.236 11.1795H126.053V35.7135H130.584V28.0575C131.761 29.7975 133.373 30.624 135.377 30.624C139.822 30.624 142.828 27.144 142.828 20.7495C142.828 14.355 139.909 10.875 135.595 10.875C133.504 10.875 131.761 11.7885 130.454 13.659C130.497 13.6155 130.236 11.1795 130.236 11.1795ZM134.114 27.1005C131.804 27.1005 130.497 25.143 130.497 20.8365C130.497 16.3995 131.761 14.442 134.332 14.442C136.772 14.442 138.035 16.3995 138.035 20.706C138.035 25.143 136.772 27.1005 134.114 27.1005ZM156.902 30.2325H162.043L154.81 20.01L161.215 11.1795H156.684L150.279 20.01V11.1795H145.747V30.2325H150.279V20.9235L156.902 30.2325ZM177.162 28.971V25.2735C175.768 26.187 173.459 27.0135 171.237 27.0135C167.969 27.0135 166.705 25.491 166.444 22.2285H177.249V19.7925C177.249 13.1805 174.33 10.7445 169.799 10.7445C164.309 10.7445 161.651 14.9205 161.651 20.7495C161.651 27.3615 164.919 30.624 170.627 30.624C173.807 30.5805 175.899 29.8845 177.162 28.971ZM169.842 14.442C172.064 14.442 172.762 16.3125 172.762 18.618V18.966H166.444C166.574 15.9645 167.751 14.442 169.842 14.442ZM193.458 14.79V11.1795H178.339V14.79H183.698V30.2325H188.229V14.79H193.458Z" fill="black"/>
<path d="M54.8127 34.887C64.4856 34.887 72.2848 27.1005 72.2848 17.4435C72.2848 7.7865 64.4856 0 54.8127 0C45.1398 0 37.3406 7.7865 37.3406 17.4435C37.2534 27.1005 45.1834 34.887 54.8127 34.887Z" fill="#FED42B"/>
<path d="M17.4721 34.887C27.1217 34.887 34.9443 27.0773 34.9443 17.4435C34.9443 7.80972 27.1217 0 17.4721 0C7.82254 0 0 7.80972 0 17.4435C0 27.0773 7.82254 34.887 17.4721 34.887Z" fill="#FC3F1D"/>
<path d="M19.9989 9.78746H18.2561C15.2496 9.78746 13.7246 11.31 13.7246 13.6155C13.7246 16.182 14.7703 17.4435 16.9925 18.966L18.7353 20.2275L13.7246 28.014H9.62891L14.4218 20.9235C11.6332 18.966 10.1082 17.0955 10.1082 13.833C10.1082 9.74396 12.8968 6.95996 18.2561 6.95996H23.6153V27.8835H20.1296V9.74396H19.9989V9.78746Z" fill="white"/>
<path d="M46.2284 9.57007L30.8477 29.6671L34.9434 34.3216L46.3591 19.2271L45.1827 27.4921L51.5877 29.7106L59.3869 17.2696C59.0384 19.5751 58.4719 24.9256 63.5698 26.5786C71.5869 29.0146 78.6019 14.6161 81.8262 7.30807L77.1641 4.87207C73.5477 12.4411 67.9705 20.7931 65.7484 20.2276C63.5262 19.6621 65.5305 12.5716 66.7941 8.00407V7.87357L59.6919 5.43757L51.1955 19.2706L52.3719 11.7016L46.2284 9.57007Z" fill="black"/>
</svg>
