<svg width="174" height="41" viewBox="0 0 174 41" fill="none" xmlns="http://www.w3.org/2000/svg">
<path d="M173.875 0H0V40.4H173.875V0Z" fill="#AE119C"/>
<path fill-rule="evenodd" clip-rule="evenodd" d="M16.6234 28.6616L12.0352 11.7389H15.0741L18.5897 24.7288L22.3437 11.7389H25.1443L28.9579 24.7884L32.4735 11.7389H35.5124L30.9242 28.6616H27.4682L23.8334 16.0291L20.139 28.6616H16.6234ZM37.4788 11.7389H40.339V28.6616H37.4788V11.7389ZM46.4169 25.9801H53.329V28.6616H43.6163V11.7389H46.4169V25.9801ZM62.1478 11.7984C64.4717 11.7984 66.4381 12.6327 67.9874 14.2415C69.5366 15.8504 70.3113 17.8763 70.3113 20.2598C70.3113 22.5837 69.5366 24.6096 67.9874 26.2781C66.4381 27.8869 64.4717 28.7211 62.1478 28.7211H55.4741V11.7389L62.1478 11.7984ZM62.1478 26.0397C63.7567 26.0397 65.0676 25.5034 66.0806 24.4309C67.0935 23.3583 67.6298 21.9282 67.6298 20.2598C67.6298 18.5914 67.0935 17.2209 66.0806 16.0887C65.0676 15.0161 63.7567 14.4799 62.1478 14.4799H58.2747V26.0397H62.1478ZM85.3868 23.835C85.3868 25.2055 84.9101 26.3377 83.8971 27.2911C82.8841 28.1849 81.6924 28.6616 80.2623 28.6616H72.9331V11.7389H79.726C81.1561 11.7389 82.2882 12.2155 83.3012 13.1094C84.3142 14.0032 84.7909 15.1353 84.7909 16.4462C84.7909 17.9359 84.195 19.0681 83.0629 19.9023C84.493 20.6769 85.3868 22.107 85.3868 23.835ZM75.7933 14.3607V18.8297H79.7856C81.0369 18.8297 81.9903 17.8763 81.9903 16.5654C81.9903 15.3141 81.0369 14.3011 79.7856 14.3011L75.7933 14.3607ZM80.2623 26.0397C81.5732 26.0397 82.5862 25.0268 82.5862 23.7158C82.5862 22.4049 81.5732 21.3919 80.2623 21.3919H75.7337V26.0993L80.2623 26.0397ZM90.8688 25.9801H98.4363V28.6616H88.0682V11.7389H98.3171V14.4203H90.8688V18.8297H97.7213V21.4515H90.8688V25.9801ZM110.652 28.6616L107.017 22.5241H103.74V28.6616H100.939V11.7389H107.791C109.341 11.7389 110.652 12.2751 111.665 13.3477C112.737 14.3607 113.273 15.6716 113.273 17.1613C113.273 19.3064 111.903 21.2728 109.877 22.0474L113.75 28.602H110.652V28.6616ZM103.74 14.3607V20.0214H107.732C109.222 20.0214 110.413 18.7701 110.413 17.1613C110.413 15.612 109.222 14.3011 107.732 14.3011L103.74 14.3607ZM125.608 28.6616L121.973 22.5241H118.696V28.6616H115.895V11.7389H122.748C124.297 11.7389 125.608 12.2751 126.621 13.3477C127.694 14.3607 128.23 15.6716 128.23 17.1613C128.23 19.3064 126.859 21.2728 124.833 22.0474L128.766 28.602H125.608V28.6616ZM118.696 14.3607V20.0214H122.688C124.178 20.0214 125.37 18.7701 125.37 17.1613C125.37 15.612 124.178 14.3011 122.688 14.3011L118.696 14.3607ZM130.792 11.7389H133.593V28.6616H130.792V11.7389ZM139.671 25.9801H147.238V28.6616H136.87V11.7389H147.119V14.4203H139.671V18.8297H146.523V21.4515H139.671V25.9801ZM149.204 24.848L151.588 23.4179C152.303 25.3247 153.673 26.2781 155.819 26.2781C157.964 26.2781 158.977 25.3843 158.977 24.0138C158.977 23.2987 158.679 22.822 158.143 22.4645C157.606 22.107 156.593 21.6899 155.104 21.2728C153.495 20.7961 152.66 20.4981 151.528 19.7235C150.456 18.9489 149.86 17.8167 149.86 16.3271C149.86 14.8374 150.396 13.6456 151.469 12.7518C152.541 11.858 153.793 11.4409 155.342 11.4409C158.083 11.4409 160.168 12.871 161.301 15.1949L158.977 16.5654C158.262 15.0161 157.07 14.2415 155.401 14.2415C153.793 14.2415 152.72 15.0757 152.72 16.3271C152.72 17.5784 153.554 18.1742 156.176 18.9489C156.832 19.1276 157.308 19.3064 157.606 19.4256C157.904 19.4852 158.321 19.7235 158.858 19.9023C159.394 20.081 159.811 20.379 160.109 20.6173C161.003 21.3324 161.956 22.4645 161.837 24.0734C161.837 25.6226 161.301 26.8144 160.168 27.7082C159.096 28.602 157.606 29.0191 155.819 29.0191C152.482 28.9595 150.098 27.4102 149.204 24.848Z" fill="white"/>
</svg>
