<svg width="259" height="67" viewBox="0 0 259 67" fill="none" xmlns="http://www.w3.org/2000/svg">
<path d="M12.8227 31.145C10.1104 27.3496 8.51763 22.7351 8.30829 18.2934C8.29009 17.9749 8.29009 17.6654 8.29009 17.3377V17.3195V17.3104C8.29009 13.6242 9.37319 10.2657 11.1571 7.72633C12.1492 6.03341 14.3609 4.31318 17.2098 3.18457C15.9264 3.66696 14.6886 4.29498 13.5054 5.04132C-7.09181 17.6017 4.06689 49.8946 12.4769 59.8792C12.5952 60.0248 13.5054 61.026 13.7875 61.299C19.0665 66.487 26.6301 67.3517 30.6712 63.2286C34.6123 59.2147 33.7385 51.9243 28.7781 46.7545C23.5628 41.1478 17.6467 38.2717 12.8227 31.145Z" fill="#00A8FF"/>
<path d="M23.1622 2.00166C22.8437 2.01076 22.5251 2.02897 22.2065 2.05627C23.9086 1.96525 25.383 2.2292 26.3933 2.82081C26.5663 2.92093 26.7483 3.03015 26.9121 3.14848C27.7313 3.71278 28.3957 4.45002 28.8872 5.32379C29.6791 6.63443 30.0795 8.24544 30.0795 10.0203C30.0795 10.0658 30.0795 10.1022 30.0795 10.1477C30.0522 13.7429 28.4321 17.9661 25.3011 21.4975C25.2192 21.5885 25.1373 21.6796 25.0554 21.7706C25.0554 21.7706 25.0554 21.7706 25.0554 21.7797C24.7914 22.0891 24.5366 22.4077 24.2999 22.7445C21.2054 27.1952 21.8789 33.0203 25.8017 35.7508C29.7246 38.4813 35.4222 37.0797 38.5259 32.6198C38.6806 32.4014 38.8263 32.1738 38.9628 31.9463C47.837 18.0025 37.5065 1.39184 23.1622 2.00166Z" fill="#00A8FF"/>
<path d="M15.6076 26.9491C16.0445 19.5494 20.8229 13.8062 26.284 14.1339C27.2942 14.1976 28.3045 14.507 29.1965 14.9439C29.7699 13.2965 30.0703 11.6673 30.0794 10.1473V10.0199C30.0794 8.24505 29.688 6.63405 28.887 5.3234C28.3956 4.45874 27.7311 3.7215 26.912 3.14809C26.739 3.02977 26.5661 2.92055 26.3841 2.82043C24.5455 1.72822 21.1233 1.74643 17.6009 3.03887C14.5518 4.15838 12.1854 5.96052 11.1478 7.72626C9.36387 10.2747 8.28076 13.6333 8.28076 17.3104C8.28076 17.6289 8.28986 17.9475 8.30807 18.266C8.5083 22.7077 10.1102 27.3223 12.8225 31.1359C15.016 34.3761 17.428 36.7425 19.9037 38.8814C17.0639 36.3967 15.3164 31.9277 15.6076 26.9491Z" fill="#F57B20"/>
<path d="M203.531 46.6459C203.749 46.6459 203.931 46.4639 203.931 46.2546L203.913 43.3602C203.913 43.1418 203.74 42.9598 203.513 42.9598C203.394 42.9598 200.345 42.9598 199.699 42.9598C196.204 42.9598 193.856 40.657 193.856 37.2075C193.856 33.3847 196.422 31.3005 199.772 31.3005L203.212 31.2914C203.413 31.2914 203.585 31.1275 203.595 30.9182L203.604 28.0147C203.604 27.7872 203.422 27.6143 203.212 27.6143H198.925C192.154 27.6143 188.631 31.8739 188.631 36.9526C188.631 41.9859 192.026 46.655 198.834 46.655H203.531V46.6459V46.6459Z" fill="white"/>
<path d="M115.326 35.2961C113.788 34.7773 111.986 34.4951 111.986 32.8386C111.986 32.3562 112.15 31.2822 114.944 31.2822H119.34C119.559 31.2822 119.741 31.1002 119.741 30.8818V28.0147C119.741 27.7963 119.568 27.6143 119.34 27.6143H113.952C108.336 27.6143 107.007 30.7726 107.007 32.9388C107.007 36.1699 109.11 37.3895 112.123 38.4908C113.925 39.1461 115.436 39.5921 115.436 41.1667C115.436 41.9403 114.844 42.9597 112.277 42.9597H107.308C107.089 42.9597 106.916 43.1327 106.907 43.342V46.2455C106.907 46.4548 107.089 46.6277 107.308 46.6277H113.005C118.111 46.6277 120.423 44.061 120.423 41.0484C120.423 37.3167 117.493 35.9969 115.326 35.2961Z" fill="white"/>
<path d="M93.9374 43.3322C91.7348 43.3322 89.341 41.53 89.341 37.1248C89.341 32.7105 91.7348 30.9174 93.9374 30.9174C96.14 30.9174 98.5337 32.7105 98.5337 37.1248C98.5337 41.5391 96.14 43.3322 93.9374 43.3322ZM93.9374 27.3223C88.2761 27.3223 84.1257 30.7809 84.1257 37.1339C84.1257 43.4869 88.2761 46.9456 93.9374 46.9456C99.5895 46.9456 103.749 43.496 103.749 37.1339C103.749 30.7718 99.5895 27.3223 93.9374 27.3223Z" fill="white"/>
<path d="M215.645 43.3322C213.443 43.3322 211.049 41.53 211.049 37.1248C211.049 32.7105 213.443 30.9174 215.645 30.9174C217.848 30.9174 220.233 32.7105 220.233 37.1248C220.233 41.5391 217.848 43.3322 215.645 43.3322ZM215.645 27.3223C209.984 27.3223 205.834 30.7809 205.834 37.1339C205.834 43.4869 209.984 46.9456 215.645 46.9456C221.307 46.9456 225.448 43.496 225.448 37.1339C225.448 30.7718 221.307 27.3223 215.645 27.3223Z" fill="white"/>
<path d="M176.817 30.763C178.647 30.763 180.822 32.01 180.758 35.2138H172.922C172.958 32.7017 174.615 30.763 176.817 30.763ZM183.762 42.486C183.762 42.486 181.195 42.7318 179.266 42.7318C175.862 42.7318 173.067 41.0571 172.922 38.6269H183.525C184.709 38.6269 185.692 37.653 185.692 36.4698C185.564 33.6574 184.59 27.3135 177.118 27.3135C172.012 27.3135 167.707 30.9906 167.707 37.1251C167.707 43.8513 173.359 46.6455 179.075 46.6455C181.295 46.6455 183.753 46.3998 183.753 46.3998C183.971 46.3998 184.144 46.2268 184.162 46.0175V42.8592C184.135 42.6408 183.971 42.486 183.762 42.486Z" fill="white"/>
<path d="M146.791 30.763C148.629 30.763 150.796 32.01 150.723 35.2138H142.895C142.941 32.7017 144.588 30.763 146.791 30.763ZM153.735 42.486C153.735 42.486 151.16 42.7318 149.239 42.7318C145.844 42.7318 143.041 41.0571 142.895 38.6269H153.499C154.691 38.6269 155.656 37.653 155.656 36.4698C155.528 33.6574 154.545 27.3135 147.073 27.3135C141.967 27.3135 137.671 30.9906 137.671 37.1251C137.671 43.8513 143.323 46.6455 149.039 46.6455C151.269 46.6455 153.735 46.3998 153.735 46.3998C153.945 46.3998 154.118 46.2268 154.136 46.0175V42.8592C154.118 42.6408 153.945 42.486 153.735 42.486Z" fill="white"/>
<path d="M163.838 20.9336H161.39C160.216 20.9336 159.233 21.9075 159.233 23.0907V46.2546C159.233 46.4639 159.415 46.6459 159.633 46.6459H163.829C164.048 46.6459 164.23 46.4639 164.23 46.2546V21.325C164.23 21.1065 164.048 20.9336 163.838 20.9336Z" fill="white"/>
<path d="M71.0647 32.0195H68.2705V24.9748H71.0647C75.1787 24.9748 75.4426 27.6234 75.4426 28.4607C75.4426 29.9625 74.3686 32.0195 71.0647 32.0195ZM82.5146 46.1818L78.5281 36.6887C77.9001 35.2233 77.09 34.2676 75.8431 33.9672V33.8944C77.6452 33.4576 80.8035 32.1287 80.8035 27.9055C80.8035 24.456 79.0378 20.9336 72.166 20.9336H65.2123C64.0291 20.9336 63.0552 21.9075 63.0552 23.0907V46.2546C63.0552 46.473 63.2372 46.6459 63.4557 46.6459H67.87C68.0884 46.6459 68.2705 46.4639 68.2705 46.2546V36.0606H70.2546C71.984 36.0606 72.9396 36.9526 73.5677 38.4908L76.7078 46.2455C76.817 46.5094 76.9808 46.6368 77.2539 46.6368H82.2416C82.4691 46.6368 82.6239 46.4275 82.5146 46.1818Z" fill="white"/>
<path d="M135.104 42.9591H134.221C130.99 42.9591 131.09 41.1388 131.09 39.2638V31.2816H135.104C135.323 31.2816 135.505 31.1087 135.505 30.8902V28.0141C135.505 27.7957 135.323 27.6136 135.104 27.6136H131.09V23.6544C131.09 23.4359 130.908 23.2539 130.699 23.2539H128.26C127.077 23.2539 126.103 24.2278 126.103 25.411V27.6045H122.753C122.544 27.6045 122.362 27.7684 122.353 27.9777V30.9084C122.362 31.1087 122.544 31.2725 122.753 31.2725H126.103V41.066C126.103 44.1332 127.941 46.6271 133.111 46.6271H135.113C135.332 46.6271 135.514 46.4451 135.514 46.2357V43.3505C135.505 43.1503 135.314 42.9591 135.104 42.9591Z" fill="white"/>
<path d="M251.242 27.3223C248.821 27.3223 246.354 28.3508 244.998 30.8901H244.889C244.407 29.2336 243.087 27.3223 239.674 27.3223C237.244 27.3223 234.932 28.4327 233.83 30.8537H233.712V29.7797C233.712 28.5965 232.729 27.6226 231.546 27.6226H229.371C229.152 27.6226 228.97 27.8047 228.97 28.0231V46.2629C228.97 46.4723 229.152 46.6543 229.371 46.6543H233.576C233.794 46.6543 233.967 46.4723 233.967 46.2629V36.1327C233.967 32.7105 236.097 31.3998 237.899 31.3998C240.393 31.3998 240.648 33.6753 240.648 35.9507V46.2447C240.648 46.4541 240.839 46.6361 241.057 46.6361H245.244C245.444 46.6361 245.608 46.4905 245.635 46.3084V36.1327C245.635 32.938 247.583 31.3998 249.504 31.3998C252.371 31.3998 252.325 34.185 252.325 35.9507V46.2447C252.325 46.4541 252.507 46.6361 252.735 46.6361H256.931C257.149 46.6361 257.331 46.4541 257.331 46.2447V33.9756C257.34 27.7227 252.935 27.3223 251.242 27.3223Z" fill="white"/>
</svg>
