<svg width="135" height="67" viewBox="0 0 135 67" fill="none" xmlns="http://www.w3.org/2000/svg">
<path d="M42.0884 42.8096H50.4546V45.5432H46.4747V64.7503H42.0884V42.8096Z" fill="white"/>
<path d="M55.4149 56.5136L56.1666 45.5432H56.4184L57.1702 56.5136H55.4149ZM50.5574 64.7503H54.852L55.2584 58.9234H57.3266L57.7349 64.7503H62.0277L59.7401 42.8096H52.845L50.5574 64.7503Z" fill="white"/>
<path d="M68.3095 57.0711V61.2074C68.3095 61.765 68.7412 61.9268 68.9929 61.9268C69.4066 61.9268 69.6943 61.5851 69.6943 61.2074V56.0999C69.6943 55.4165 69.5684 54.6612 67.9319 54.6612H66.1514V52.2513H68.0038C69.2447 52.2513 69.6943 51.9635 69.6943 50.6147V46.2625C69.6943 45.8849 69.4066 45.5432 68.9929 45.5432C68.7412 45.5432 68.3095 45.6871 68.3095 46.2625V49.8414H63.9214V46.7301C63.9214 45.2015 64.1012 42.8096 67.1765 42.8096H70.8093C73.8846 42.8096 74.0825 45.2015 74.0825 46.7301V50.2371C74.0825 52.629 72.4099 53.2764 71.0971 53.2224V53.4383C74.0465 53.3663 74.0825 55.6323 74.0825 56.4057V60.8298C74.0825 62.3764 73.8846 64.7503 70.8093 64.7503H67.1765C64.1012 64.7503 63.9214 62.3764 63.9214 60.8298V57.0711H68.3095Z" fill="white"/>
<path d="M76.96 42.8096H87.121V64.7503H82.7329V45.5432H81.3481V64.7503H76.96V42.8096Z" fill="white"/>
<path d="M94.3864 54.877V45.5432H94.9619C95.4295 45.5432 95.7712 45.9388 95.7712 46.6402V53.78C95.7712 54.4813 95.4295 54.877 94.9619 54.877H94.3864ZM89.9983 64.7503H94.3864V57.2869H96.9042C99.9616 57.2869 100.159 54.913 100.159 53.3663V46.7301C100.159 45.2015 99.9616 42.8096 96.9042 42.8096H89.9983V64.7503Z" fill="white"/>
<path d="M108.81 61.2074C108.81 61.5851 108.522 61.9268 108.109 61.9268C107.857 61.9268 107.425 61.765 107.425 61.2074V46.2625C107.425 45.6871 107.857 45.5432 108.109 45.5432C108.522 45.5432 108.81 45.8849 108.81 46.2625V61.2074ZM103.037 60.8298C103.037 62.3764 103.235 64.7503 106.292 64.7503H109.943C113 64.7503 113.198 62.3764 113.198 60.8298V46.7301C113.198 45.2015 113 42.8096 109.943 42.8096H106.292C103.235 42.8096 103.037 45.2015 103.037 46.7301V60.8298Z" fill="white"/>
<path d="M127.477 42.8096H133.196V64.7503H128.808V50.9924H128.646L126.38 64.7503H122.873L120.625 50.9924H120.464V64.7503H116.075V42.8096H121.776L124.636 58.24L127.477 42.8096Z" fill="white"/>
<path d="M36.4017 12.812C35.0583 6.93115 31.6917 2.14735 31.2277 1.37402C30.4939 2.47106 27.8089 6.69735 26.4439 11.3733C24.953 16.6067 24.7336 21.2466 25.2479 25.7966C25.7587 30.3646 27.6884 35.0585 27.6884 35.0585C28.7135 37.5043 30.2493 40.148 31.2492 41.4429C32.715 39.5366 36.0834 33.8535 37.1337 26.444C37.7182 22.3077 37.7433 18.6928 36.4017 12.812ZM31.2277 39.9682C30.5676 38.7273 29.5425 36.3713 29.4454 32.7026C29.4202 29.1776 30.8356 26.1383 31.2492 25.5089C31.6179 26.1383 32.8372 28.782 32.9829 32.3968C33.0818 35.9217 31.9093 38.7093 31.2277 39.9682ZM36.0115 22.7932C35.9611 25.0413 35.6931 27.4152 35.3514 28.8359C35.4737 26.3901 35.1806 22.9551 34.6195 20.2575C34.0584 17.5778 32.4704 13.0818 31.2025 11.0136C30.0317 12.9918 28.5894 16.8764 27.834 20.2395C27.0751 23.6025 27.0535 27.6849 27.0535 28.9079C26.8521 27.8828 26.3485 24.196 26.4906 20.5092C26.6093 17.4699 27.3215 14.3227 27.7117 12.8839C29.2008 8.08215 30.886 5.00684 31.2025 4.52126C31.519 5.00684 33.6411 8.8015 34.7418 12.776C35.837 16.7505 36.0582 20.5632 36.0115 22.7932Z" fill="white"/>
<path d="M33.5063 42.8101H23.293V49.662C23.302 49.662 23.3092 49.6441 23.3182 49.6441C25.7245 47.2342 29.6271 47.2342 32.0352 49.6441C34.4415 52.036 34.4415 55.9386 32.0352 58.3484C32.0244 58.3664 32.0136 58.3664 32.0028 58.3844C31.9902 58.3844 31.9776 58.4024 31.9668 58.4204C29.566 60.7943 26.4295 61.9813 23.293 61.9813C20.1422 61.9813 16.9914 60.7943 14.5887 58.3844C10.3516 54.1581 9.84984 47.5939 13.0798 42.8101C13.515 42.1626 14.0168 41.5512 14.5887 40.9757C16.9914 38.5658 20.1422 37.3788 23.293 37.3788V20.9053C11.1861 20.9053 1.37207 30.7067 1.37207 42.8101C1.37207 54.9134 11.1861 64.7328 23.293 64.7328C29.6055 64.7328 35.2921 62.0532 39.2918 57.7909V42.8101H33.5063Z" fill="white"/>
</svg>
