<svg width="180" height="40" viewBox="0 0 180 40" fill="none" xmlns="http://www.w3.org/2000/svg">
<g clip-path="url(#clip0_54_424)">
<path d="M3.98457 3.43358H21.9649V23.4924H3.98457V3.43358ZM22.6502 2.74902H3.29932V24.1791H22.6502V2.74902Z" fill="#20231E"/>
<path d="M174.766 29.3125H3.29712V39.5868H174.766V29.3125Z" fill="#FEEB17"/>
<path d="M56.3935 16.7593L57.903 11.1753L59.4246 16.7593H56.3935ZM63.6283 7.95257H68.3462V2.75014H63.2918V7.04355L61.6993 2.75014L54.1109 2.74805L52.5134 7.05716V2.75014H47.4601V7.95257H52.1818L47.4653 20.6753L41.7298 11.8351L47.1644 2.7484H38.6952L35.6896 9.33425V2.74805H27.7646V24.1802H35.6138V15.651L40.8295 24.1798H54.1381L55.0544 21.1456H60.7571L61.6776 24.1798H69.6455L63.6283 7.95257Z" fill="#20231E"/>
<path d="M125.005 2.74805V10.8629H120.869L120.87 2.74805H113.316L113.315 24.1781H120.869V16.0657H125.005V24.1781H132.552V2.74805H125.005Z" fill="#20231E"/>
<path d="M153.104 18.975H142.669V16.0657H151.181L151.18 10.8629H142.669V7.95047H153.104V2.74805H134.902V24.1781L153.104 24.1802V18.975Z" fill="#20231E"/>
<path d="M6.69859 11.4873H9.56633L12.928 17.0106L16.2999 11.4873H19.1994L12.965 18.7165L6.69859 11.4873ZM10.7815 8.25863L12.9465 12.3035L15.1004 8.25863H17.7409L12.9354 13.6649L8.13578 8.25863H10.7815ZM9.56738 5.01423H16.3131L12.9821 9.16276L9.56738 5.01423ZM16.5425 11.0904L18.5029 7.87952H15.3029L17.0333 4.62988H8.84023L10.5787 7.87952H7.37058L9.32511 11.0904H5.91943L12.9486 22.6336L19.9551 11.0904H16.5425Z" fill="#20231E"/>
<path d="M78.3185 7.94982C78.4616 7.94982 81.351 7.94982 81.351 7.94982C81.4072 7.95611 82.9096 8.13379 82.9096 9.91657C82.9096 10.502 82.7564 10.9527 82.4506 11.2564C82.0526 11.6522 81.5157 11.6802 81.3614 11.6791C81.3614 11.6791 78.4619 11.6781 78.3188 11.6781C78.3185 11.5367 78.3185 8.0912 78.3185 7.94982ZM90.6482 24.0486C90.097 23.5323 89.9968 21.4622 89.9947 21.4193C89.9947 21.4039 90.0059 21.0542 90.0059 20.4202C90.0059 19.9242 89.9985 19.2574 89.9741 18.4458C89.883 15.3637 87.8234 14.5657 87.0306 14.372C88.0412 14.0089 90.2645 12.66 90.2645 9.62823C90.2645 9.52839 90.2624 9.42715 90.2572 9.32347C90.1612 7.30017 89.4718 5.70311 88.2088 4.57416C85.9474 2.55365 82.5818 2.7467 82.548 2.74914H70.751V24.1792L78.3181 24.1781C78.3181 24.1781 78.3192 16.9067 78.3192 16.7593C78.4581 16.7593 80.2828 16.7593 80.2828 16.7593C82.0387 16.7593 82.1717 18.6095 82.178 18.688C82.179 18.71 82.3518 20.763 82.3651 21.9649C82.3836 23.7435 82.8824 24.1474 82.903 24.1628L82.9236 24.1792L90.7843 24.1781L90.6482 24.0486Z" fill="#20231E"/>
<path d="M162.667 7.94989C162.81 7.94989 165.703 7.95199 165.703 7.95199C165.759 7.95827 167.259 8.13316 167.259 9.91664C167.259 10.501 167.104 10.9517 166.8 11.2547C166.401 11.6509 165.865 11.6792 165.71 11.6781C165.71 11.6781 162.81 11.6781 162.667 11.6781C162.667 11.5367 162.667 8.09127 162.667 7.94989ZM174.998 24.0476C174.446 23.5313 174.345 21.4623 174.344 21.4173C174.344 21.403 174.355 21.0532 174.355 20.4192C174.355 19.9242 174.348 19.2564 174.323 18.4448C174.232 15.3638 172.173 14.5647 171.38 14.372C172.391 14.0079 174.614 12.6601 174.614 9.62725C174.614 9.52741 174.612 9.42618 174.607 9.3225C174.511 7.30024 173.82 5.70213 172.557 4.57319C170.296 2.55268 166.931 2.74572 166.897 2.74816H155.099L155.097 24.1782H162.666C162.666 24.1782 162.668 16.9057 162.668 16.7584C162.807 16.7584 164.632 16.7584 164.632 16.7584C166.388 16.7584 166.521 18.6085 166.526 18.6871C166.528 18.7091 166.701 20.761 166.714 21.9639C166.733 23.7425 167.231 24.1464 167.252 24.1628L167.273 24.1792L175.134 24.1782L174.998 24.0476Z" fill="#20231E"/>
<path d="M111.912 14.7834L105.105 14.7845C104.788 18.1371 103.24 18.9075 101.894 18.9243V18.9257C101.889 18.9257 101.884 18.9243 101.879 18.9243C101.878 18.9243 101.878 18.9243 101.877 18.9243C100.381 18.9065 98.6008 17.9612 98.5701 13.5752C98.5547 11.2489 99.0211 9.54225 99.9189 8.63707C100.425 8.1281 101.075 7.86734 101.849 7.85931V7.85616C102.641 7.85616 103.303 8.11903 103.816 8.63602C104.449 9.27276 104.867 10.3095 105.053 11.6787C105.053 11.6808 111.935 11.6787 111.936 11.6787C111.903 8.56306 110.848 6.14285 108.796 4.48504C107.057 3.07997 104.641 2.27847 101.808 2.16746C99.0354 2.05855 96.4406 3.02691 94.5057 4.89452C92.3295 6.99427 91.138 10.0509 91.1502 13.5026C91.1614 16.9338 92.2293 19.7994 94.2348 21.7927C96.1586 23.7043 98.8256 24.7188 101.948 24.7268C104.874 24.7348 107.47 23.7563 109.258 21.9704C110.998 20.2348 111.916 17.788 111.914 14.8941L111.912 14.7834Z" fill="#20231E"/>
</g>
<defs>
<clipPath id="clip0_54_424">
<rect width="179.801" height="40" fill="white"/>
</clipPath>
</defs>
</svg>
