<svg width="338" height="487" viewBox="0 0 338 487" fill="none" xmlns="http://www.w3.org/2000/svg">
<path d="M337.679 412.955V487H9.90871V423.815L164.909 257.626C180.486 240.294 192.771 225.047 201.766 211.883C210.762 198.5 217.234 186.543 221.183 176.013C225.351 165.263 227.435 155.061 227.435 145.408C227.435 130.928 225.022 118.532 220.195 108.221C215.369 97.69 208.239 89.5725 198.805 83.8683C189.59 78.1642 178.182 75.3121 164.58 75.3121C150.1 75.3121 137.594 78.8223 127.064 85.8429C116.752 92.8634 108.854 102.626 103.369 115.132C98.104 127.637 95.4713 141.788 95.4713 157.584H0.365183C0.365183 129.063 7.16632 102.955 20.7686 79.2611C34.3708 55.3474 53.5676 36.3701 78.3588 22.329C103.15 8.0686 132.548 0.938385 166.554 0.938385C200.121 0.938385 228.423 6.42317 251.459 17.3927C274.714 28.1429 292.265 43.7197 304.113 64.1231C316.179 84.3071 322.212 108.44 322.212 136.522C322.212 152.318 319.689 167.786 314.643 182.924C309.597 197.842 302.357 212.761 292.924 227.679C283.709 242.379 272.52 257.297 259.357 272.435C246.193 287.573 231.604 303.26 215.588 319.495L132.329 412.955H337.679Z" fill="#CC0000"/>
</svg>
