<svg width="335" height="494" viewBox="0 0 335 494" fill="none" xmlns="http://www.w3.org/2000/svg">
<path d="M109.989 206.289H160.669C176.904 206.289 190.287 203.546 200.817 198.062C211.348 192.357 219.137 184.459 224.183 174.367C229.448 164.056 232.081 152.099 232.081 138.497C232.081 126.211 229.667 115.351 224.841 105.917C220.234 96.2639 213.103 88.8046 203.45 83.5392C193.797 78.0545 181.621 75.3121 166.921 75.3121C155.294 75.3121 144.544 77.6157 134.671 82.2229C124.798 86.8301 116.9 93.3022 110.977 101.639C105.053 109.976 102.091 120.068 102.091 131.915H6.98514C6.98514 105.588 14.0057 82.6617 28.0467 63.1358C42.3072 43.61 61.3942 28.3623 85.3079 17.3927C109.222 6.42317 135.548 0.938385 164.289 0.938385C196.759 0.938385 225.17 6.20378 249.522 16.7346C273.875 27.046 292.852 42.2937 306.454 62.4777C320.057 82.6617 326.858 107.672 326.858 137.51C326.858 152.648 323.348 167.347 316.327 181.607C309.306 195.648 299.214 208.373 286.051 219.781C273.107 230.97 257.311 239.965 238.662 246.766C220.014 253.348 199.062 256.639 175.807 256.639H109.989V206.289ZM109.989 278.359V229.325H175.807C201.914 229.325 224.841 232.287 244.586 238.21C264.331 244.134 280.895 252.69 294.278 263.879C307.661 274.849 317.753 287.902 324.554 303.04C331.355 317.959 334.756 334.523 334.756 352.732C334.756 375.11 330.478 395.075 321.921 412.626C313.365 429.958 301.299 444.657 285.722 456.724C270.364 468.791 252.374 478.005 231.752 484.367C211.129 490.51 188.641 493.582 164.289 493.582C144.105 493.582 124.25 490.839 104.724 485.355C85.4176 479.65 67.8662 471.204 52.0701 460.015C36.4933 448.607 23.988 434.346 14.5541 417.234C5.33971 399.902 0.732486 379.389 0.732486 355.694H95.8387C95.8387 367.98 98.9101 378.95 105.053 388.603C111.196 398.256 119.643 405.825 130.393 411.31C141.362 416.795 153.539 419.537 166.921 419.537C182.059 419.537 195.004 416.795 205.754 411.31C216.723 405.606 225.06 397.708 230.764 387.616C236.688 377.304 239.65 365.347 239.65 351.745C239.65 334.194 236.469 320.153 230.106 309.622C223.744 298.872 214.639 290.974 202.792 285.928C190.945 280.882 176.904 278.359 160.669 278.359H109.989Z" fill="#CC0000"/>
</svg>
