<svg xmlns="http://www.w3.org/2000/svg" viewBox="0 0 128 128"><defs><style>.cls-1{fill:#d19e93;}.cls-2{fill:#8c3418;}.cls-3{fill:#fff;}.cls-4{fill:#27221e;}</style></defs><g id="Лучшее"><g id="Большие_06-17_2" data-name="Большие (06-17)"><g id="_06-11-2" data-name="06-11"><g id="_09_-_В_наличии_и_под_заказ-2" data-name="09 - В наличии и под заказ"><path class="cls-1" d="M31.05,64.48h0l-7.31-.06a.47.47,0,1,1,0-.94h0l7.31.06a.47.47,0,0,1,.46.47A.46.46,0,0,1,31.05,64.48Z"/><path class="cls-1" d="M22.4,64.37H18.79a.47.47,0,0,1-.47-.47.48.48,0,0,1,.47-.47H22.4a.48.48,0,0,1,.47.47A.47.47,0,0,1,22.4,64.37Z"/><path class="cls-1" d="M29.63,61.32h-.05L18.25,59.84a.47.47,0,0,1,.12-.93L29.7,60.38a.47.47,0,0,1-.07.94Z"/><path class="cls-1" d="M15.84,59.45h-.08l-4-.66a.46.46,0,0,1-.38-.54.46.46,0,0,1,.53-.38l4.05.66a.46.46,0,0,1,.39.53A.48.48,0,0,1,15.84,59.45Z"/><path class="cls-1" d="M37,59.45l-.12,0-8.64-2.29a.49.49,0,0,1-.34-.58.46.46,0,0,1,.58-.33l8.65,2.29a.47.47,0,0,1-.13.93Z"/><path class="cls-1" d="M26.06,56.73l-.11,0-12.53-3.3a.47.47,0,1,1,.24-.9L26.18,55.8a.47.47,0,0,1,.34.57A.49.49,0,0,1,26.06,56.73Z"/><path class="cls-1" d="M38.7,56.71l-.18,0L35,55.26a.48.48,0,0,1-.26-.62.49.49,0,0,1,.61-.26l3.5,1.43a.46.46,0,0,1,.26.61A.48.48,0,0,1,38.7,56.71Z"/><path class="cls-1" d="M33.23,54.63a.51.51,0,0,1-.17,0l-5.48-2.3a.47.47,0,0,1,.37-.87l5.46,2.3a.47.47,0,0,1,.26.62A.49.49,0,0,1,33.23,54.63Z"/><path class="cls-1" d="M24.81,51.57a.37.37,0,0,1-.18,0L20.9,50a.5.5,0,0,1-.25-.62.48.48,0,0,1,.61-.26L25,50.67a.46.46,0,0,1,.25.61A.46.46,0,0,1,24.81,51.57Z"/><path class="cls-1" d="M36.52,52A.49.49,0,0,1,36.3,52L22,44.51a.47.47,0,0,1-.19-.63.46.46,0,0,1,.63-.2l14.33,7.44a.46.46,0,0,1,.2.63A.45.45,0,0,1,36.52,52Z"/><path class="cls-1" d="M20.32,43.8a.71.71,0,0,1-.2,0L16.51,42a.47.47,0,1,1,.41-.84l3.61,1.75a.46.46,0,0,1,.21.62A.44.44,0,0,1,20.32,43.8Z"/><path class="cls-1" d="M41.77,51.9a.44.44,0,0,1-.25-.08L25.1,41.1a.47.47,0,0,1,.51-.79L42,51a.47.47,0,0,1,.14.66A.46.46,0,0,1,41.77,51.9Z"/><path class="cls-1" d="M22.84,39.21a.5.5,0,0,1-.26-.08l-2-1.31a.47.47,0,0,1-.13-.65.46.46,0,0,1,.65-.14l2,1.32a.47.47,0,0,1,.13.65A.48.48,0,0,1,22.84,39.21Z"/><path class="cls-1" d="M44.06,49.16a.45.45,0,0,1-.3-.11L39.5,45.44a.46.46,0,1,1,.6-.71l4.27,3.6a.47.47,0,0,1-.31.83Z"/><path class="cls-1" d="M37.4,43.69a.4.4,0,0,1-.3-.11L32.61,40a.47.47,0,0,1-.07-.66.48.48,0,0,1,.66-.07l4.49,3.61a.47.47,0,0,1-.29.84Z"/><path class="cls-1" d="M30.41,38.12a.45.45,0,0,1-.32-.12l-1.66-1.55a.46.46,0,0,1,0-.66.47.47,0,0,1,.66,0l1.66,1.55a.48.48,0,0,1,0,.66A.44.44,0,0,1,30.41,38.12Z"/><path class="cls-1" d="M45.61,46a.44.44,0,0,1-.32-.13L31.05,32.07a.48.48,0,0,1,0-.67.47.47,0,0,1,.66,0l14.24,13.8a.47.47,0,0,1-.33.81Z"/><path class="cls-1" d="M29.62,29.57a.46.46,0,0,1-.33-.13l-1.75-1.76a.47.47,0,0,1,0-.66.48.48,0,0,1,.67,0L30,28.78a.45.45,0,0,1,0,.66A.44.44,0,0,1,29.62,29.57Z"/><path class="cls-1" d="M38.28,32.11a.47.47,0,0,1-.36-.18l-7-8.87a.46.46,0,0,1,.08-.65.46.46,0,0,1,.66.07l7,8.86a.46.46,0,0,1-.08.66A.44.44,0,0,1,38.28,32.11Z"/><path class="cls-1" d="M46.05,42.18a.44.44,0,0,1-.36-.19l-5.85-7.48a.47.47,0,0,1,.75-.57l5.83,7.48a.46.46,0,0,1-.08.65A.46.46,0,0,1,46.05,42.18Z"/><path class="cls-1" d="M51.4,43.15a.48.48,0,0,1-.39-.21l-7.9-11.59a.47.47,0,1,1,.77-.53l7.9,11.59a.46.46,0,0,1-.12.65A.43.43,0,0,1,51.4,43.15Z"/><path class="cls-1" d="M42.21,29.79a.48.48,0,0,1-.39-.19l-3.16-4.48a.48.48,0,0,1,.12-.66.47.47,0,0,1,.65.12l3.16,4.47a.48.48,0,0,1-.11.66A.45.45,0,0,1,42.21,29.79Z"/><path class="cls-1" d="M50.43,34a.47.47,0,0,1-.41-.25L44.53,23.53a.47.47,0,1,1,.82-.45l5.5,10.19a.48.48,0,0,1-.2.64A.6.6,0,0,1,50.43,34Z"/><path class="cls-1" d="M43.63,20.39a.49.49,0,0,1-.42-.27L42,17.72a.46.46,0,0,1,.21-.63.45.45,0,0,1,.62.21l1.21,2.41a.46.46,0,0,1-.21.62A.42.42,0,0,1,43.63,20.39Z"/><path class="cls-1" d="M55.25,37.47a.49.49,0,0,1-.45-.31L49,21.62a.47.47,0,0,1,.27-.6.46.46,0,0,1,.6.28l5.81,15.53a.47.47,0,0,1-.28.6A.34.34,0,0,1,55.25,37.47Z"/><path class="cls-1" d="M48.55,19.62a.48.48,0,0,1-.44-.32L47,16a.47.47,0,0,1,.9-.3L49,19a.46.46,0,0,1-.3.59A.37.37,0,0,1,48.55,19.62Z"/><path class="cls-1" d="M59.06,40.85a.47.47,0,0,1-.46-.36l-1-3.94A.48.48,0,0,1,58,36a.47.47,0,0,1,.57.34l1,3.94a.46.46,0,0,1-.34.57Z"/><path class="cls-1" d="M57.32,33.86a.48.48,0,0,1-.45-.36L55,26.17a.45.45,0,0,1,.33-.57.47.47,0,0,1,.57.34l1.86,7.33a.47.47,0,0,1-.34.57Z"/><path class="cls-1" d="M54.9,23.89a.47.47,0,0,1-.45-.36L53,17.85a.49.49,0,0,1,.35-.57.47.47,0,0,1,.57.35l1.4,5.68a.45.45,0,0,1-.33.56A.25.25,0,0,1,54.9,23.89Z"/><path class="cls-1" d="M60.26,28.15a.48.48,0,0,1-.47-.42l-.87-8.64a.47.47,0,1,1,.93-.1l.88,8.64a.46.46,0,0,1-.42.52Z"/><path class="cls-1" d="M59.16,16.78a.48.48,0,0,1-.46-.42l-.53-4.47a.47.47,0,0,1,.41-.52.46.46,0,0,1,.52.4l.53,4.48a.46.46,0,0,1-.4.52Z"/><path class="cls-1" d="M91,59.45a.46.46,0,0,1-.45-.35.47.47,0,0,1,.33-.58l8.64-2.29a.46.46,0,0,1,.58.33.47.47,0,0,1-.34.58l-8.64,2.29Z"/><path class="cls-1" d="M101.93,56.73a.47.47,0,0,1-.12-.93l12.53-3.29a.47.47,0,0,1,.24.9l-12.53,3.3Z"/><path class="cls-1" d="M89.29,56.71a.46.46,0,0,1-.43-.29.46.46,0,0,1,.25-.61l3.5-1.43a.48.48,0,0,1,.36.88l-3.5,1.42A.57.57,0,0,1,89.29,56.71Z"/><path class="cls-1" d="M94.76,54.63a.47.47,0,0,1-.18-.9l5.47-2.3a.46.46,0,0,1,.61.26.46.46,0,0,1-.25.61l-5.47,2.3Z"/><path class="cls-1" d="M103.19,51.57a.48.48,0,0,1-.44-.29.46.46,0,0,1,.26-.61l3.72-1.54a.47.47,0,0,1,.61.26.48.48,0,0,1-.25.62l-3.73,1.52A.33.33,0,0,1,103.19,51.57Z"/><path class="cls-1" d="M91.47,52a.47.47,0,0,1-.21-.89l14.34-7.44a.47.47,0,1,1,.43.83L91.69,52A.43.43,0,0,1,91.47,52Z"/><path class="cls-1" d="M107.67,43.8a.45.45,0,0,1-.42-.27.46.46,0,0,1,.22-.62l3.61-1.75a.45.45,0,0,1,.62.22.44.44,0,0,1-.22.62l-3.6,1.76A.78.78,0,0,1,107.67,43.8Z"/><path class="cls-1" d="M86.22,51.9a.44.44,0,0,1-.38-.21A.48.48,0,0,1,86,51l16.41-10.72a.47.47,0,0,1,.65.14.48.48,0,0,1-.13.65L86.48,51.82A.47.47,0,0,1,86.22,51.9Z"/><path class="cls-1" d="M105.16,39.21a.49.49,0,0,1-.4-.21.47.47,0,0,1,.14-.65l2-1.32a.46.46,0,0,1,.65.14.47.47,0,0,1-.12.65l-2,1.31A.46.46,0,0,1,105.16,39.21Z"/><path class="cls-1" d="M83.92,49.16a.49.49,0,0,1-.35-.17.46.46,0,0,1,.06-.66l4.26-3.6a.47.47,0,0,1,.61.71l-4.27,3.61A.44.44,0,0,1,83.92,49.16Z"/><path class="cls-1" d="M90.6,43.69a.48.48,0,0,1-.36-.17.49.49,0,0,1,.07-.67l4.48-3.61a.49.49,0,0,1,.67.07.48.48,0,0,1-.07.66L90.9,43.58A.45.45,0,0,1,90.6,43.69Z"/><path class="cls-1" d="M97.59,38.12a.42.42,0,0,1-.34-.15.46.46,0,0,1,0-.66l1.66-1.55a.47.47,0,0,1,.66,0,.45.45,0,0,1,0,.66L97.92,38A.52.52,0,0,1,97.59,38.12Z"/><path class="cls-1" d="M82.38,46a.49.49,0,0,1-.34-.14.48.48,0,0,1,0-.67l14.24-13.8a.48.48,0,0,1,.67,0,.47.47,0,0,1,0,.67L82.7,45.87A.44.44,0,0,1,82.38,46Z"/><path class="cls-1" d="M98.37,29.57a.46.46,0,0,1-.33-.13.47.47,0,0,1,0-.66L99.79,27a.48.48,0,0,1,.67,0,.47.47,0,0,1,0,.66l-1.75,1.76A.5.5,0,0,1,98.37,29.57Z"/><path class="cls-1" d="M89.72,32.11a.48.48,0,0,1-.3-.11.47.47,0,0,1-.08-.66l7-8.86a.47.47,0,0,1,.67-.07.46.46,0,0,1,.07.65l-7,8.87A.5.5,0,0,1,89.72,32.11Z"/><path class="cls-1" d="M81.94,42.18a.43.43,0,0,1-.28-.11.45.45,0,0,1-.08-.65l5.83-7.49a.47.47,0,0,1,.74.58L82.31,42A.47.47,0,0,1,81.94,42.18Z"/><path class="cls-1" d="M76.6,43.15a.48.48,0,0,1-.39-.74L84.1,30.82a.49.49,0,0,1,.66-.12.47.47,0,0,1,.12.65L77,42.94A.5.5,0,0,1,76.6,43.15Z"/><path class="cls-1" d="M85.79,29.79a.43.43,0,0,1-.27-.08.49.49,0,0,1-.12-.66l3.16-4.47a.47.47,0,1,1,.77.54L86.17,29.6A.46.46,0,0,1,85.79,29.79Z"/><path class="cls-1" d="M77.57,34a.55.55,0,0,1-.22-.06.47.47,0,0,1-.2-.64l5.49-10.19a.48.48,0,0,1,.64-.19.46.46,0,0,1,.18.64L78,33.72A.5.5,0,0,1,77.57,34Z"/><path class="cls-1" d="M84.37,20.39a.42.42,0,0,1-.21-.06.45.45,0,0,1-.21-.62l1.21-2.41a.46.46,0,0,1,.62-.21.47.47,0,0,1,.21.63l-1.2,2.4A.5.5,0,0,1,84.37,20.39Z"/><path class="cls-1" d="M72.75,37.47a.29.29,0,0,1-.16,0,.47.47,0,0,1-.28-.6l5.8-15.53a.48.48,0,0,1,.61-.28.47.47,0,0,1,.27.6l-5.8,15.54A.47.47,0,0,1,72.75,37.47Z"/><path class="cls-1" d="M79.44,19.62a.4.4,0,0,1-.15,0A.47.47,0,0,1,79,19l1.09-3.28A.47.47,0,1,1,81,16L79.89,19.3A.48.48,0,0,1,79.44,19.62Z"/><path class="cls-1" d="M68.93,40.85l-.11,0a.47.47,0,0,1-.34-.57l1-3.94A.47.47,0,0,1,70,36a.48.48,0,0,1,.34.57l-1,3.94A.46.46,0,0,1,68.93,40.85Z"/><path class="cls-1" d="M70.67,33.86l-.11,0a.47.47,0,0,1-.34-.57l1.86-7.33a.46.46,0,0,1,.57-.34.47.47,0,0,1,.34.57L71.13,33.5A.48.48,0,0,1,70.67,33.86Z"/><path class="cls-1" d="M73.1,23.89a.27.27,0,0,1-.12,0,.47.47,0,0,1-.34-.56l1.41-5.68a.47.47,0,0,1,.56-.35.48.48,0,0,1,.35.57l-1.41,5.68A.47.47,0,0,1,73.1,23.89Z"/><path class="cls-1" d="M67.73,28.15h0a.48.48,0,0,1-.43-.52L68.14,19a.48.48,0,0,1,.52-.42.49.49,0,0,1,.42.52l-.88,8.64A.48.48,0,0,1,67.73,28.15Z"/><path class="cls-1" d="M68.83,16.78h-.06a.46.46,0,0,1-.4-.52l.53-4.48a.46.46,0,0,1,.51-.4.46.46,0,0,1,.41.52l-.53,4.47A.47.47,0,0,1,68.83,16.78Z"/><path class="cls-1" d="M64.09,40.52a.47.47,0,0,1-.47-.47V35.34a.47.47,0,1,1,.94,0v4.71A.47.47,0,0,1,64.09,40.52Z"/><path class="cls-1" d="M64,33.84a.47.47,0,0,1-.47-.47v-4.7A.47.47,0,0,1,64,28.2a.46.46,0,0,1,.47.47v4.7A.46.46,0,0,1,64,33.84Z"/><path class="cls-1" d="M63.87,27.06a.48.48,0,0,1-.47-.47V14.77a.47.47,0,0,1,.47-.46.46.46,0,0,1,.47.46V26.59A.47.47,0,0,1,63.87,27.06Z"/><path class="cls-1" d="M18.32,69.1a.47.47,0,0,1-.07-.94l11.33-1.47a.46.46,0,1,1,.12.92L18.37,69.09Z"/><path class="cls-1" d="M11.79,70.15a.46.46,0,0,1-.46-.4.47.47,0,0,1,.38-.54l4-.65a.47.47,0,0,1,.54.39.48.48,0,0,1-.39.54l-4.05.65Z"/><path class="cls-1" d="M38.74,78.72a1.41,1.41,0,0,1-.19-.6L25.1,86.9a.48.48,0,0,0-.14.66.5.5,0,0,0,.39.2.4.4,0,0,0,.26-.08L39,79A1.75,1.75,0,0,1,38.74,78.72Z"/><path class="cls-1" d="M20.87,91a.47.47,0,0,1-.39-.2.47.47,0,0,1,.13-.65l2-1.32a.47.47,0,0,1,.65.14.46.46,0,0,1-.13.64l-2,1.32A.48.48,0,0,1,20.87,91Z"/><path class="cls-1" d="M41.14,81.17,39.5,82.56a.48.48,0,0,0-.06.67.48.48,0,0,0,.66,0l1.77-1.5Z"/><path class="cls-1" d="M32.91,88.86a.46.46,0,0,1-.37-.18.47.47,0,0,1,.07-.66l4.49-3.61a.47.47,0,0,1,.66.08.46.46,0,0,1-.07.65L33.2,88.75A.48.48,0,0,1,32.91,88.86Z"/><path class="cls-1" d="M28.75,92.36a.47.47,0,0,1-.32-.81L30.09,90a.46.46,0,0,1,.66,0,.48.48,0,0,1,0,.66l-1.66,1.55A.47.47,0,0,1,28.75,92.36Z"/><path class="cls-1" d="M31.37,96.74a.44.44,0,0,1-.33-.15.47.47,0,0,1,0-.66l14.24-13.8a.47.47,0,0,1,.65.67L31.7,96.6A.47.47,0,0,1,31.37,96.74Z"/><path class="cls-1" d="M27.87,101.12a.5.5,0,0,1-.33-.15.46.46,0,0,1,0-.65l1.75-1.76a.47.47,0,0,1,.66,0,.47.47,0,0,1,0,.67L28.21,101A.53.53,0,0,1,27.87,101.12Z"/><path class="cls-1" d="M31.29,105.7a.51.51,0,0,1-.3-.1.49.49,0,0,1-.08-.67l7-8.85a.45.45,0,0,1,.65-.08.46.46,0,0,1,.08.66l-7,8.86A.49.49,0,0,1,31.29,105.7Z"/><path class="cls-1" d="M40.21,94.24a.44.44,0,0,1-.28-.1.46.46,0,0,1-.09-.65L45.69,86a.45.45,0,0,1,.65-.08.47.47,0,0,1,.08.66l-5.83,7.47A.48.48,0,0,1,40.21,94.24Z"/><path class="cls-1" d="M43.5,97.38a.56.56,0,0,1-.27-.08.49.49,0,0,1-.12-.66L51,85.06a.48.48,0,0,1,.65-.13.47.47,0,0,1,.12.66l-7.9,11.58A.44.44,0,0,1,43.5,97.38Z"/><path class="cls-1" d="M39.05,103.62a.65.65,0,0,1-.27-.08.48.48,0,0,1-.12-.66l3.16-4.48a.47.47,0,0,1,.77.55l-3.16,4.47A.46.46,0,0,1,39.05,103.62Z"/><path class="cls-1" d="M44.94,105.16a.59.59,0,0,1-.22,0,.48.48,0,0,1-.19-.64L50,94.28a.46.46,0,0,1,.63-.19.48.48,0,0,1,.2.64l-5.5,10.19A.46.46,0,0,1,44.94,105.16Z"/><path class="cls-1" d="M42.43,111a.46.46,0,0,1-.21,0,.45.45,0,0,1-.21-.62l1.2-2.42a.47.47,0,0,1,.84.42l-1.21,2.41A.46.46,0,0,1,42.43,111Z"/><path class="cls-1" d="M49.44,107a.45.45,0,0,1-.16,0,.47.47,0,0,1-.27-.61L54.8,90.84a.47.47,0,0,1,.89.33L49.88,106.7A.46.46,0,0,1,49.44,107Z"/><path class="cls-1" d="M47.46,112.6a.44.44,0,0,1-.15,0A.46.46,0,0,1,47,112l1.1-3.29a.47.47,0,0,1,.89.3l-1.09,3.28A.48.48,0,0,1,47.46,112.6Z"/><path class="cls-1" d="M58.07,92H58a.47.47,0,0,1-.34-.57l1-4a.49.49,0,0,1,.57-.34.47.47,0,0,1,.34.58l-1,3.94A.47.47,0,0,1,58.07,92Z"/><path class="cls-1" d="M55.46,102.42l-.11,0a.45.45,0,0,1-.33-.56l1.85-7.34a.47.47,0,0,1,.57-.34.47.47,0,0,1,.34.57l-1.86,7.32A.48.48,0,0,1,55.46,102.42Z"/><path class="cls-1" d="M53.5,110.73h-.12a.5.5,0,0,1-.35-.57l1.42-5.68a.47.47,0,0,1,.57-.34.45.45,0,0,1,.33.57L54,110.37A.48.48,0,0,1,53.5,110.73Z"/><path class="cls-1" d="M59.39,109.43h0a.47.47,0,0,1-.42-.52l.87-8.64a.47.47,0,0,1,.52-.42.46.46,0,0,1,.42.51L59.85,109A.46.46,0,0,1,59.39,109.43Z"/><path class="cls-1" d="M58.64,116.64h-.06a.47.47,0,0,1-.41-.51l.53-4.48a.49.49,0,0,1,.53-.42.48.48,0,0,1,.4.53l-.53,4.47A.47.47,0,0,1,58.64,116.64Z"/><path class="cls-1" d="M92.8,73.65a1.08,1.08,0,0,1-.19,0l-3.5-1.43a.46.46,0,0,1-.25-.61.47.47,0,0,1,.61-.26L93,72.74a.47.47,0,0,1,.25.62A.45.45,0,0,1,92.8,73.65Z"/><path class="cls-1" d="M100.23,76.6a.39.39,0,0,1-.18,0l-5.47-2.29a.47.47,0,0,1-.25-.62.46.46,0,0,1,.61-.25l5.47,2.3a.45.45,0,0,1,.25.61A.46.46,0,0,1,100.23,76.6Z"/><path class="cls-1" d="M105.81,84.37a.41.41,0,0,1-.21-.05L91.26,76.88a.47.47,0,0,1-.2-.64.48.48,0,0,1,.63-.2L106,83.48a.47.47,0,0,1,.2.63A.46.46,0,0,1,105.81,84.37Z"/><path class="cls-1" d="M111.29,86.88a.76.76,0,0,1-.21,0l-3.61-1.75a.48.48,0,0,1,.41-.86l3.6,1.76a.46.46,0,0,1-.19.88Z"/><path class="cls-1" d="M102.64,87.76a.42.42,0,0,1-.26-.08L86,77a.48.48,0,0,1-.13-.66.47.47,0,0,1,.64-.13L102.9,86.9a.49.49,0,0,1,.13.66A.5.5,0,0,1,102.64,87.76Z"/><path class="cls-1" d="M107.12,91a.48.48,0,0,1-.26-.07l-2-1.32a.46.46,0,0,1-.14-.64.47.47,0,0,1,.65-.14l2,1.32a.47.47,0,0,1-.27.85Z"/><path class="cls-1" d="M88.2,83.39a.51.51,0,0,1-.31-.11l-4.26-3.62a.45.45,0,0,1-.06-.65.46.46,0,0,1,.66-.06l4.27,3.61a.47.47,0,0,1,0,.67A.48.48,0,0,1,88.2,83.39Z"/><path class="cls-1" d="M95.09,88.86a.5.5,0,0,1-.3-.11l-4.48-3.61a.47.47,0,0,1,.59-.73L95.39,88a.47.47,0,0,1-.3.84Z"/><path class="cls-1" d="M99.25,92.36a.45.45,0,0,1-.32-.12l-1.66-1.55a.46.46,0,0,1,0-.66.47.47,0,0,1,.67,0l1.64,1.55a.45.45,0,0,1,0,.66A.46.46,0,0,1,99.25,92.36Z"/><path class="cls-1" d="M96.62,96.74a.49.49,0,0,1-.33-.14L82.05,82.8a.47.47,0,0,1,0-.66.46.46,0,0,1,.66,0l14.24,13.8a.45.45,0,0,1,0,.66A.45.45,0,0,1,96.62,96.74Z"/><path class="cls-1" d="M100.12,101.12a.48.48,0,0,1-.33-.15L98,99.23a.47.47,0,0,1,.67-.67l1.75,1.76a.46.46,0,0,1,0,.65A.53.53,0,0,1,100.12,101.12Z"/><path class="cls-1" d="M96.72,105.7a.53.53,0,0,1-.38-.18l-7-8.86a.47.47,0,0,1,.08-.66.47.47,0,0,1,.66.08l7,8.85a.49.49,0,0,1-.07.67A.56.56,0,0,1,96.72,105.7Z"/><path class="cls-1" d="M87.78,94.24a.46.46,0,0,1-.37-.18l-5.83-7.47a.47.47,0,1,1,.73-.58l5.84,7.48a.47.47,0,0,1-.08.65A.46.46,0,0,1,87.78,94.24Z"/><path class="cls-1" d="M84.5,97.38a.48.48,0,0,1-.4-.21L76.21,85.59a.48.48,0,0,1,.12-.66.49.49,0,0,1,.66.13l7.89,11.58a.48.48,0,0,1-.12.66A.5.5,0,0,1,84.5,97.38Z"/><path class="cls-1" d="M89,103.62a.49.49,0,0,1-.39-.2L85.4,99a.49.49,0,0,1,.12-.66.46.46,0,0,1,.65.11l3.16,4.48a.47.47,0,0,1-.12.66A.61.61,0,0,1,89,103.62Z"/><path class="cls-1" d="M83.05,105.16a.46.46,0,0,1-.41-.24L77.15,94.73a.47.47,0,0,1,.83-.45l5.48,10.19a.46.46,0,0,1-.18.64A.59.59,0,0,1,83.05,105.16Z"/><path class="cls-1" d="M85.58,111a.44.44,0,0,1-.42-.26L84,108.29a.46.46,0,0,1,.21-.63.48.48,0,0,1,.63.21l1.2,2.42a.46.46,0,0,1-.21.62A.53.53,0,0,1,85.58,111Z"/><path class="cls-1" d="M78.55,107a.47.47,0,0,1-.44-.31l-5.8-15.53a.48.48,0,0,1,.28-.61.47.47,0,0,1,.6.28L79,106.37a.47.47,0,0,1-.27.61A.51.51,0,0,1,78.55,107Z"/><path class="cls-1" d="M80.54,112.6a.47.47,0,0,1-.45-.32L79,109a.46.46,0,0,1,.29-.59.47.47,0,0,1,.6.29L81,112a.45.45,0,0,1-.29.58A.44.44,0,0,1,80.54,112.6Z"/><path class="cls-1" d="M69.93,92a.46.46,0,0,1-.46-.35l-1-3.94a.47.47,0,1,1,.91-.24l1,4A.47.47,0,0,1,70,92Z"/><path class="cls-1" d="M72.53,102.42a.47.47,0,0,1-.45-.37l-1.86-7.32a.47.47,0,0,1,.34-.57.48.48,0,0,1,.57.34L73,101.84a.47.47,0,0,1-.34.56Z"/><path class="cls-1" d="M74.5,110.73a.46.46,0,0,1-.45-.36l-1.41-5.67a.47.47,0,0,1,.34-.57.47.47,0,0,1,.57.34L75,110.15a.49.49,0,0,1-.35.57Z"/><path class="cls-1" d="M68.6,109.43a.47.47,0,0,1-.46-.43l-.88-8.64a.48.48,0,0,1,.43-.51.47.47,0,0,1,.51.42l.88,8.64a.49.49,0,0,1-.42.52Z"/><path class="cls-1" d="M69.36,116.64a.47.47,0,0,1-.46-.42l-.53-4.47a.47.47,0,0,1,.4-.53.5.5,0,0,1,.52.42l.53,4.47a.46.46,0,0,1-.41.52Z"/><path class="cls-1" d="M64.09,93.12a.46.46,0,0,1-.47-.46V88a.47.47,0,1,1,.94,0v4.7A.46.46,0,0,1,64.09,93.12Z"/><path class="cls-1" d="M64,99.8a.47.47,0,0,1-.47-.47v-4.7a.47.47,0,0,1,.47-.47.46.46,0,0,1,.47.47v4.7A.46.46,0,0,1,64,99.8Z"/><path class="cls-1" d="M63.87,113.7a.48.48,0,0,1-.47-.47V101.41a.48.48,0,0,1,.47-.47.47.47,0,0,1,.47.47v11.82A.47.47,0,0,1,63.87,113.7Z"/><path class="cls-2" d="M33.9,63.7A57.09,57.09,0,0,1,24,63.38V80.07l-1.87-9.33A48.06,48.06,0,0,1,6.32,65.3c2.23,4.25,4.46,8.28,6.7,12.13-2.24,2.43-4.47,4.69-6.7,6.72a49.85,49.85,0,0,0,26.87,6.07V82.58a76.53,76.53,0,0,0,8.65-.86Z"/><path class="cls-2" d="M121.68,65.3a48.09,48.09,0,0,0-15.75-5.44l-1.88,8.77V51.94a65.59,65.59,0,0,0-17.91.52L91.49,64.6l-4.85,6.64a75.26,75.26,0,0,1,8.17-.79v7.64a50,50,0,0,1,26.87,6.06q-3.36-6.74-6.7-12.87A88.14,88.14,0,0,1,121.68,65.3Z"/><polygon class="cls-3" points="76.91 40.22 50.89 37.4 35.44 58.52 46 82.46 72.02 85.29 87.48 64.17 76.91 40.22"/><path class="cls-2" d="M75.58,77.89l3.24.65L89.2,64.35,77.94,38.82l-27.75-3L33.71,58.33,45,83.86l27.74,3,4-5.43-3.24-.65L71.32,83.7,48.74,81.25,62.16,62.93l9.41,1-4,5.53,6,.24,3.77-5.15,7.42.81ZM85.06,62.4l-7.43-.81L68.46,40.81l7.43.81ZM53.31,39.17l9.41,1L71.89,61l-9.41-1Z"/><polygon class="cls-3" points="65.12 79.31 56.35 89.39 60.7 102.02 73.81 104.57 82.58 94.49 78.23 81.86 65.12 79.31"/><path class="cls-4" d="M84.28,94.82,79.36,80.55,64.55,77.67l-9.9,11.39,4.92,14.27,14.81,2.88Zm-3.41-.66-6.48,7.46-3.23-9.35,2.45-2.81L74.48,92l2.18-2.89-.78-2.25,1.77-2Zm-12-3.86-9.71-1.89,2.44-2.81,9.71,1.89ZM65.68,81l9.71,1.89-1.77,2L63.91,83Z"/></g></g></g></g></svg>