<svg xmlns="http://www.w3.org/2000/svg" viewBox="0 0 128 128"><defs><style>.cls-1{fill:#d19e93;}.cls-2{fill:#8c3418;}.cls-3{fill:#27221e;}.cls-4{fill:#fff;}</style></defs><g id="Лучшее"><g id="Большие_06-17_2" data-name="Большие (06-17)"><g id="_06-11-2" data-name="06-11"><g id="_08_-_Производство_по_фотографии-2" data-name="08 - Производство по фотографии"><path class="cls-1" d="M38.06,64.69H34.19a.46.46,0,0,1-.45-.46.46.46,0,0,1,.45-.46h3.87a.45.45,0,0,1,.45.46A.46.46,0,0,1,38.06,64.69Z"/><path class="cls-1" d="M31.73,64.47h0l-7.16-.06a.47.47,0,0,1-.46-.46.46.46,0,0,1,.46-.46h0l7.16.06a.47.47,0,0,1,.46.46A.45.45,0,0,1,31.73,64.47Z"/><path class="cls-1" d="M23.27,64.37H19.73a.47.47,0,0,1,0-.93h3.54a.47.47,0,0,1,0,.93Z"/><path class="cls-1" d="M30.35,61.37H30.3L19.21,59.92a.45.45,0,0,1-.4-.51.46.46,0,0,1,.52-.4l11.09,1.45a.46.46,0,0,1-.07.91Z"/><path class="cls-1" d="M16.84,59.54h-.07l-4-.65a.45.45,0,0,1-.38-.53A.48.48,0,0,1,13,58l4,.65a.46.46,0,0,1-.07.91Z"/><path class="cls-1" d="M37.52,59.54a.25.25,0,0,1-.12,0l-8.46-2.24a.46.46,0,0,1,.23-.89l8.47,2.25a.46.46,0,0,1-.12.9Z"/><path class="cls-1" d="M26.86,56.88l-.12,0L14.47,53.63a.46.46,0,0,1,.24-.88L27,56a.49.49,0,0,1,.34.56A.48.48,0,0,1,26.86,56.88Z"/><path class="cls-1" d="M39.23,56.86l-.18,0-3.42-1.39a.46.46,0,0,1-.25-.6.47.47,0,0,1,.6-.26L39.41,56a.46.46,0,0,1,.25.6A.47.47,0,0,1,39.23,56.86Z"/><path class="cls-1" d="M33.87,54.83a.35.35,0,0,1-.17,0l-5.36-2.25a.46.46,0,0,1,.36-.85L34.05,54a.45.45,0,0,1,.25.6A.47.47,0,0,1,33.87,54.83Z"/><path class="cls-1" d="M25.63,51.83a.53.53,0,0,1-.18,0L21.8,50.3a.47.47,0,0,1-.24-.61.46.46,0,0,1,.59-.25l3.65,1.5a.45.45,0,0,1,.25.6A.46.46,0,0,1,25.63,51.83Z"/><path class="cls-1" d="M37.09,52.26a.42.42,0,0,1-.21-.06l-14-7.28a.46.46,0,0,1,.43-.82l14,7.29a.45.45,0,0,1,.19.62A.44.44,0,0,1,37.09,52.26Z"/><path class="cls-1" d="M21.23,44.22a.41.41,0,0,1-.19,0L17.5,42.46a.46.46,0,1,1,.4-.82l3.54,1.71a.46.46,0,0,1,.2.61A.44.44,0,0,1,21.23,44.22Z"/><path class="cls-1" d="M42.23,52.15a.37.37,0,0,1-.24-.08L25.91,41.58a.47.47,0,0,1-.13-.64.45.45,0,0,1,.63-.13L42.48,51.3a.45.45,0,0,1,.13.64A.43.43,0,0,1,42.23,52.15Z"/><path class="cls-1" d="M23.7,39.72a.59.59,0,0,1-.26-.07l-1.93-1.29A.46.46,0,0,1,22,37.6L24,38.88a.46.46,0,0,1-.25.84Z"/><path class="cls-1" d="M44.48,49.47a.41.41,0,0,1-.29-.11L40,45.83a.45.45,0,0,1-.06-.65.46.46,0,0,1,.65,0l4.18,3.53a.46.46,0,0,1,0,.65A.48.48,0,0,1,44.48,49.47Z"/><path class="cls-1" d="M38,44.12a.44.44,0,0,1-.29-.11l-4.39-3.53a.46.46,0,1,1,.57-.72l4.4,3.53a.48.48,0,0,1,.07.66A.53.53,0,0,1,38,44.12Z"/><path class="cls-1" d="M31.11,38.66a.45.45,0,0,1-.31-.12L29.17,37a.46.46,0,0,1,0-.65.47.47,0,0,1,.65,0l1.62,1.52a.47.47,0,0,1,0,.65A.43.43,0,0,1,31.11,38.66Z"/><path class="cls-1" d="M46,46.37a.45.45,0,0,1-.31-.12L31.73,32.74a.48.48,0,0,1,0-.66.46.46,0,0,1,.64,0l14,13.51a.47.47,0,0,1,0,.66A.43.43,0,0,1,46,46.37Z"/><path class="cls-1" d="M30.34,30.29a.46.46,0,0,1-.33-.13L28.3,28.44a.46.46,0,0,1,0-.65.48.48,0,0,1,.65,0l1.71,1.72a.46.46,0,0,1,0,.65A.42.42,0,0,1,30.34,30.29Z"/><path class="cls-1" d="M38.82,32.77a.46.46,0,0,1-.36-.17L31.6,23.91a.46.46,0,0,1,.73-.56L39.18,32a.46.46,0,0,1-.08.64A.42.42,0,0,1,38.82,32.77Z"/><path class="cls-1" d="M46.42,42.63a.45.45,0,0,1-.35-.18l-5.72-7.32a.47.47,0,0,1,.08-.65.46.46,0,0,1,.65.09l5.71,7.32a.46.46,0,0,1-.08.64A.51.51,0,0,1,46.42,42.63Z"/><path class="cls-1" d="M51.66,43.58a.46.46,0,0,1-.38-.2L43.55,32a.45.45,0,0,1,.12-.63.44.44,0,0,1,.63.12L52,42.86a.46.46,0,0,1-.12.64A.5.5,0,0,1,51.66,43.58Z"/><path class="cls-1" d="M42.66,30.5a.44.44,0,0,1-.37-.19l-3.1-4.38a.47.47,0,0,1,.11-.64.45.45,0,0,1,.64.11L43,29.78a.45.45,0,0,1-.11.64A.4.4,0,0,1,42.66,30.5Z"/><path class="cls-1" d="M50.71,34.59a.46.46,0,0,1-.4-.24l-5.38-10a.46.46,0,1,1,.81-.43l5.38,10a.47.47,0,0,1-.41.68Z"/><path class="cls-1" d="M44.05,21.29a.45.45,0,0,1-.4-.25l-1.19-2.36a.46.46,0,0,1,.21-.61.44.44,0,0,1,.61.2l1.18,2.36a.44.44,0,0,1-.2.61A.41.41,0,0,1,44.05,21.29Z"/><path class="cls-1" d="M55.43,38a.45.45,0,0,1-.43-.3L49.32,22.51a.46.46,0,0,1,.86-.32l5.68,15.2a.47.47,0,0,1-.27.6Z"/><path class="cls-1" d="M48.87,20.54a.46.46,0,0,1-.43-.31L47.36,17a.46.46,0,0,1,.3-.58.44.44,0,0,1,.58.29l1.07,3.21a.46.46,0,0,1-.29.58A.36.36,0,0,1,48.87,20.54Z"/><path class="cls-1" d="M59.16,41.33a.45.45,0,0,1-.44-.35l-1-3.86a.46.46,0,0,1,.33-.56.45.45,0,0,1,.55.34l1,3.86a.46.46,0,0,1-.34.55Z"/><path class="cls-1" d="M57.46,34.48a.45.45,0,0,1-.44-.34L55.2,27a.45.45,0,0,1,.33-.56.47.47,0,0,1,.56.34l1.82,7.17a.47.47,0,0,1-.34.56Z"/><path class="cls-1" d="M55.09,24.73a.46.46,0,0,1-.44-.36l-1.39-5.55a.49.49,0,0,1,.34-.57.46.46,0,0,1,.56.34l1.37,5.56a.45.45,0,0,1-.33.56Z"/><path class="cls-1" d="M60.34,28.9a.47.47,0,0,1-.46-.41L59,20a.46.46,0,0,1,.41-.5.45.45,0,0,1,.49.41l.87,8.46a.46.46,0,0,1-.41.51Z"/><path class="cls-1" d="M59.26,17.76a.47.47,0,0,1-.45-.41L58.29,13a.47.47,0,0,1,.4-.51.45.45,0,0,1,.51.4l.52,4.38a.46.46,0,0,1-.39.52Z"/><path class="cls-1" d="M90.48,59.54A.44.44,0,0,1,90,59.2a.45.45,0,0,1,.31-.56l8.47-2.25a.46.46,0,0,1,.57.33.47.47,0,0,1-.33.56l-8.47,2.24A.2.2,0,0,1,90.48,59.54Z"/><path class="cls-1" d="M101.14,56.88A.46.46,0,0,1,101,56l12.26-3.22a.46.46,0,0,1,.56.32.45.45,0,0,1-.33.56l-12.27,3.23Z"/><path class="cls-1" d="M88.77,56.86a.46.46,0,0,1-.18-.88L92,54.58a.48.48,0,0,1,.6.26.47.47,0,0,1-.25.6l-3.43,1.39Z"/><path class="cls-1" d="M94.12,54.83a.46.46,0,0,1-.42-.28.45.45,0,0,1,.24-.6l5.36-2.26a.46.46,0,0,1,.6.25.46.46,0,0,1-.25.6L94.3,54.79A.39.39,0,0,1,94.12,54.83Z"/><path class="cls-1" d="M102.37,51.83a.48.48,0,0,1-.43-.29.46.46,0,0,1,.25-.6l3.65-1.5a.47.47,0,0,1,.6.25.49.49,0,0,1-.25.61l-3.65,1.49A.47.47,0,0,1,102.37,51.83Z"/><path class="cls-1" d="M90.9,52.26a.45.45,0,0,1-.4-.25.45.45,0,0,1,.2-.62l14-7.29a.46.46,0,0,1,.42.82l-14,7.28A.43.43,0,0,1,90.9,52.26Z"/><path class="cls-1" d="M106.76,44.22a.46.46,0,0,1-.19-.87l3.53-1.71a.45.45,0,1,1,.39.82L107,44.18A.45.45,0,0,1,106.76,44.22Z"/><path class="cls-1" d="M85.76,52.15a.46.46,0,0,1-.38-.21.47.47,0,0,1,.13-.64l16.07-10.49a.47.47,0,0,1,.64.13.48.48,0,0,1-.13.64L86,52.07A.38.38,0,0,1,85.76,52.15Z"/><path class="cls-1" d="M104.3,39.72a.47.47,0,0,1-.39-.2.46.46,0,0,1,.14-.64L106,37.6a.46.46,0,1,1,.51.76l-1.93,1.29A.55.55,0,0,1,104.3,39.72Z"/><path class="cls-1" d="M83.51,49.47a.47.47,0,0,1-.34-.16.45.45,0,0,1,0-.65l4.18-3.53a.46.46,0,0,1,.59.7l-4.18,3.53A.43.43,0,0,1,83.51,49.47Z"/><path class="cls-1" d="M90.05,44.12a.51.51,0,0,1-.36-.17.47.47,0,0,1,.07-.66l4.39-3.53a.46.46,0,1,1,.58.72L90.34,44A.48.48,0,0,1,90.05,44.12Z"/><path class="cls-1" d="M96.89,38.66a.44.44,0,0,1-.34-.14.46.46,0,0,1,0-.65l1.62-1.52a.46.46,0,0,1,.64,0,.44.44,0,0,1,0,.65l-1.61,1.51A.47.47,0,0,1,96.89,38.66Z"/><path class="cls-1" d="M82,46.37a.44.44,0,0,1-.33-.13.47.47,0,0,1,0-.66L95.62,32.07a.47.47,0,0,1,.65,0,.45.45,0,0,1,0,.66L82.31,46.25A.45.45,0,0,1,82,46.37Z"/><path class="cls-1" d="M97.66,30.29a.46.46,0,0,1-.33-.78L99,27.79a.49.49,0,0,1,.66,0,.48.48,0,0,1,0,.65L98,30.16A.45.45,0,0,1,97.66,30.29Z"/><path class="cls-1" d="M89.18,32.77a.46.46,0,0,1-.37-.74l6.86-8.68a.45.45,0,0,1,.65-.08.46.46,0,0,1,.07.64L89.54,32.6A.49.49,0,0,1,89.18,32.77Z"/><path class="cls-1" d="M81.56,42.63a.47.47,0,0,1-.27-.1.45.45,0,0,1-.08-.64l5.71-7.33a.47.47,0,0,1,.65-.08.48.48,0,0,1,.08.65l-5.72,7.32A.49.49,0,0,1,81.56,42.63Z"/><path class="cls-1" d="M76.33,43.58a.52.52,0,0,1-.26-.08.46.46,0,0,1-.11-.64l7.73-11.34a.46.46,0,0,1,.76.51L76.72,43.38A.49.49,0,0,1,76.33,43.58Z"/><path class="cls-1" d="M85.33,30.5a.42.42,0,0,1-.26-.08.45.45,0,0,1-.11-.64l3.09-4.38a.46.46,0,0,1,.75.53l-3.09,4.38A.45.45,0,0,1,85.33,30.5Z"/><path class="cls-1" d="M77.29,34.59a.43.43,0,0,1-.22-.06.45.45,0,0,1-.19-.62l5.37-10a.46.46,0,0,1,.62-.19.44.44,0,0,1,.18.62l-5.36,10A.48.48,0,0,1,77.29,34.59Z"/><path class="cls-1" d="M84,21.29a.36.36,0,0,1-.21-.05.44.44,0,0,1-.21-.61l1.18-2.36a.45.45,0,0,1,.61-.2.46.46,0,0,1,.22.61L84.36,21A.48.48,0,0,1,84,21.29Z"/><path class="cls-1" d="M72.57,38a.41.41,0,0,1-.16,0,.46.46,0,0,1-.27-.6l5.68-15.2a.46.46,0,1,1,.86.32L73,37.72A.45.45,0,0,1,72.57,38Z"/><path class="cls-1" d="M79.12,20.54a.39.39,0,0,1-.15,0,.46.46,0,0,1-.28-.58l1.06-3.21a.46.46,0,0,1,.59-.29.45.45,0,0,1,.29.58l-1.07,3.21A.47.47,0,0,1,79.12,20.54Z"/><path class="cls-1" d="M68.83,41.33l-.11,0a.46.46,0,0,1-.33-.55l1-3.86a.46.46,0,1,1,.89.22l-1,3.86A.46.46,0,0,1,68.83,41.33Z"/><path class="cls-1" d="M70.53,34.48h-.11a.47.47,0,0,1-.33-.56l1.82-7.17a.46.46,0,1,1,.89.22L71,34.14A.46.46,0,0,1,70.53,34.48Z"/><path class="cls-1" d="M72.91,24.73l-.12,0a.46.46,0,0,1-.33-.56l1.38-5.56a.46.46,0,0,1,.55-.34.47.47,0,0,1,.34.57l-1.38,5.55A.47.47,0,0,1,72.91,24.73Z"/><path class="cls-1" d="M67.65,28.9h0a.46.46,0,0,1-.41-.51l.85-8.46a.48.48,0,0,1,.51-.41A.47.47,0,0,1,69,20l-.86,8.47A.46.46,0,0,1,67.65,28.9Z"/><path class="cls-1" d="M68.73,17.76h-.06a.46.46,0,0,1-.4-.52l.53-4.38a.46.46,0,0,1,.5-.4.45.45,0,0,1,.4.51l-.52,4.39A.46.46,0,0,1,68.73,17.76Z"/><path class="cls-1" d="M64.09,41a.45.45,0,0,1-.46-.46V35.94a.46.46,0,1,1,.91,0v4.61A.45.45,0,0,1,64.09,41Z"/><path class="cls-1" d="M64,34.47a.46.46,0,0,1-.46-.46V29.4a.46.46,0,0,1,.92,0V34A.46.46,0,0,1,64,34.47Z"/><path class="cls-1" d="M63.87,27.83a.47.47,0,0,1-.46-.46V15.8a.47.47,0,0,1,.46-.46.45.45,0,0,1,.46.46V27.37A.46.46,0,0,1,63.87,27.83Z"/><path class="cls-1" d="M35.8,73.45a.45.45,0,0,1-.42-.29.46.46,0,0,1,.25-.6l3.42-1.39a.48.48,0,0,1,.61.25.47.47,0,0,1-.25.6L36,73.42A1.13,1.13,0,0,1,35.8,73.45Z"/><path class="cls-1" d="M28.52,76.34a.47.47,0,0,1-.42-.28.45.45,0,0,1,.24-.6L33.7,73.2a.47.47,0,0,1,.6.25.45.45,0,0,1-.25.6L28.7,76.3A.39.39,0,0,1,28.52,76.34Z"/><path class="cls-1" d="M23.05,84a.44.44,0,0,1-.4-.25.46.46,0,0,1,.19-.62l14-7.29a.46.46,0,0,1,.61.2.45.45,0,0,1-.19.62l-14,7.29A.54.54,0,0,1,23.05,84Z"/><path class="cls-1" d="M17.7,86.41a.45.45,0,0,1-.42-.26.46.46,0,0,1,.22-.61L21,83.82a.45.45,0,0,1,.6.22.47.47,0,0,1-.2.62L17.9,86.37A.48.48,0,0,1,17.7,86.41Z"/><path class="cls-1" d="M26.16,87.26a.44.44,0,0,1-.38-.2.47.47,0,0,1,.13-.64L42,75.93a.45.45,0,1,1,.49.76L26.41,87.19A.43.43,0,0,1,26.16,87.26Z"/><path class="cls-1" d="M21.77,90.48a.44.44,0,0,1-.38-.2.46.46,0,0,1,.12-.64l1.93-1.29a.47.47,0,0,1,.64.14.46.46,0,0,1-.13.63L22,90.41A.51.51,0,0,1,21.77,90.48Z"/><path class="cls-1" d="M40.3,83a.46.46,0,0,1-.35-.17.44.44,0,0,1,.06-.64l4.18-3.54a.45.45,0,0,1,.64,0,.46.46,0,0,1,0,.65L40.6,82.88A.46.46,0,0,1,40.3,83Z"/><path class="cls-1" d="M33.56,88.34a.5.5,0,0,1-.37-.17.46.46,0,0,1,.08-.65L37.66,84a.47.47,0,0,1,.65.08.46.46,0,0,1-.07.64l-4.4,3.54A.46.46,0,0,1,33.56,88.34Z"/><path class="cls-1" d="M29.48,91.77a.46.46,0,0,1-.31-.79l1.63-1.52a.44.44,0,0,1,.64,0,.46.46,0,0,1,0,.64L29.8,91.65A.47.47,0,0,1,29.48,91.77Z"/><path class="cls-1" d="M32.05,96.05a.41.41,0,0,1-.32-.14.47.47,0,0,1,0-.65l14-13.51a.45.45,0,0,1,.64,0,.46.46,0,0,1,0,.65l-14,13.51A.44.44,0,0,1,32.05,96.05Z"/><path class="cls-1" d="M28.62,100.34a.47.47,0,0,1-.32-.14.45.45,0,0,1,0-.64L30,97.84a.46.46,0,1,1,.65.65L29,100.2A.47.47,0,0,1,28.62,100.34Z"/><path class="cls-1" d="M32,104.83a.48.48,0,0,1-.29-.1.46.46,0,0,1-.08-.65l6.86-8.67a.45.45,0,0,1,.64-.08.47.47,0,0,1,.08.65l-6.85,8.67A.47.47,0,0,1,32,104.83Z"/><path class="cls-1" d="M40.71,93.61a.44.44,0,0,1-.28-.1.46.46,0,0,1-.08-.64l5.72-7.32a.45.45,0,0,1,.64-.08.47.47,0,0,1,.08.65l-5.71,7.31A.46.46,0,0,1,40.71,93.61Z"/><path class="cls-1" d="M43.93,96.68a.4.4,0,0,1-.26-.08.46.46,0,0,1-.12-.64l7.73-11.34a.46.46,0,1,1,.76.52L44.3,96.48A.45.45,0,0,1,43.93,96.68Z"/><path class="cls-1" d="M39.57,102.79a.53.53,0,0,1-.27-.08.47.47,0,0,1-.11-.64l3.1-4.38a.44.44,0,0,1,.63-.11.45.45,0,0,1,.11.64l-3.09,4.37A.44.44,0,0,1,39.57,102.79Z"/><path class="cls-1" d="M45.34,104.31a.55.55,0,0,1-.22-.06.46.46,0,0,1-.19-.62l5.38-10a.46.46,0,0,1,.62-.19.47.47,0,0,1,.19.63l-5.38,10A.46.46,0,0,1,45.34,104.31Z"/><path class="cls-1" d="M42.88,110a.5.5,0,0,1-.21,0,.46.46,0,0,1-.21-.61L43.65,107a.45.45,0,1,1,.81.41l-1.18,2.35A.44.44,0,0,1,42.88,110Z"/><path class="cls-1" d="M49.75,106.11a.41.41,0,0,1-.16,0,.45.45,0,0,1-.27-.59L55,90.28a.45.45,0,0,1,.59-.27.46.46,0,0,1,.27.59l-5.68,15.21A.46.46,0,0,1,49.75,106.11Z"/><path class="cls-1" d="M47.8,111.59a.35.35,0,0,1-.14,0,.46.46,0,0,1-.3-.57l1.08-3.22a.46.46,0,0,1,.87.29l-1.07,3.21A.45.45,0,0,1,47.8,111.59Z"/><path class="cls-1" d="M58.19,91.45l-.1,0a.44.44,0,0,1-.33-.55l1-3.87a.47.47,0,0,1,.55-.33.47.47,0,0,1,.34.56l-1,3.86A.46.46,0,0,1,58.19,91.45Z"/><path class="cls-1" d="M55.64,101.62l-.11,0a.44.44,0,0,1-.33-.55L57,93.87a.46.46,0,0,1,.55-.34.46.46,0,0,1,.34.56l-1.82,7.17A.48.48,0,0,1,55.64,101.62Z"/><path class="cls-1" d="M53.71,109.76l-.11,0a.48.48,0,0,1-.34-.55l1.39-5.56a.45.45,0,1,1,.88.22l-1.37,5.55A.46.46,0,0,1,53.71,109.76Z"/><path class="cls-1" d="M59.48,108.48h0A.46.46,0,0,1,59,108l.85-8.45a.47.47,0,0,1,.51-.42.48.48,0,0,1,.41.51l-.87,8.45A.44.44,0,0,1,59.48,108.48Z"/><path class="cls-1" d="M58.75,115.54h-.06a.47.47,0,0,1-.4-.51l.52-4.38a.48.48,0,0,1,.52-.41.46.46,0,0,1,.39.51l-.52,4.38A.45.45,0,0,1,58.75,115.54Z"/><path class="cls-1" d="M108.73,69h-.06L97.58,67.54a.47.47,0,0,1-.4-.51.46.46,0,0,1,.52-.4l11.09,1.44a.46.46,0,0,1-.06.92Z"/><path class="cls-1" d="M115.12,70h-.07l-4-.64a.45.45,0,0,1-.37-.53.47.47,0,0,1,.52-.38l4,.65a.46.46,0,0,1,.39.52A.47.47,0,0,1,115.12,70Z"/><path class="cls-1" d="M98.94,71.63l-.12,0-8.46-2.25A.45.45,0,0,1,90,68.8a.46.46,0,0,1,.55-.33l8.47,2.25a.48.48,0,0,1,.33.57A.47.47,0,0,1,98.94,71.63Z"/><path class="cls-1" d="M113.4,75.27a.22.22,0,0,1-.11,0L101,72a.45.45,0,0,1-.33-.56.45.45,0,0,1,.55-.33l12.27,3.23a.45.45,0,0,1,.33.56A.46.46,0,0,1,113.4,75.27Z"/><path class="cls-1" d="M92.2,73.45a1,1,0,0,1-.18,0L88.59,72a.46.46,0,0,1-.25-.6.46.46,0,0,1,.6-.25l3.43,1.39a.46.46,0,0,1-.17.89Z"/><path class="cls-1" d="M99.48,76.34a.39.39,0,0,1-.18,0l-5.36-2.25a.45.45,0,0,1-.24-.6.46.46,0,0,1,.6-.25l5.35,2.26a.46.46,0,0,1,.25.6A.47.47,0,0,1,99.48,76.34Z"/><path class="cls-1" d="M106,78.59a.51.51,0,0,1-.17,0l-3.65-1.5a.46.46,0,0,1,.35-.86l3.65,1.51a.46.46,0,0,1,.25.6A.48.48,0,0,1,106,78.59Z"/><path class="cls-1" d="M104.94,84a.54.54,0,0,1-.21,0l-14-7.29a.45.45,0,0,1-.2-.62.47.47,0,0,1,.62-.2l14,7.29a.47.47,0,0,1,.2.62A.45.45,0,0,1,104.94,84Z"/><path class="cls-1" d="M110.3,86.41a.48.48,0,0,1-.2,0l-3.53-1.71a.46.46,0,0,1-.22-.62.45.45,0,0,1,.61-.22l3.53,1.72a.46.46,0,0,1-.19.87Z"/><path class="cls-1" d="M101.83,87.26a.47.47,0,0,1-.25-.07L85.51,76.69a.45.45,0,1,1,.5-.76l16.08,10.49a.46.46,0,0,1-.26.84Z"/><path class="cls-1" d="M106.23,90.48a.48.48,0,0,1-.26-.07l-1.92-1.29a.45.45,0,0,1-.14-.63.47.47,0,0,1,.64-.14l1.93,1.29a.47.47,0,0,1,.13.64A.47.47,0,0,1,106.23,90.48Z"/><path class="cls-1" d="M87.69,83a.46.46,0,0,1-.29-.11l-4.18-3.54a.46.46,0,0,1,.59-.7L88,82.18a.45.45,0,0,1,.05.64A.46.46,0,0,1,87.69,83Z"/><path class="cls-1" d="M94.44,88.34a.46.46,0,0,1-.29-.1L89.76,84.7a.45.45,0,0,1-.07-.64.47.47,0,0,1,.65-.08l4.39,3.54a.46.46,0,0,1,.07.65A.48.48,0,0,1,94.44,88.34Z"/><path class="cls-1" d="M98.51,91.77a.45.45,0,0,1-.31-.12l-1.62-1.52a.45.45,0,0,1,0-.64.46.46,0,0,1,.66,0L98.82,91a.43.43,0,0,1,0,.64A.41.41,0,0,1,98.51,91.77Z"/><path class="cls-1" d="M95.94,96.05a.45.45,0,0,1-.32-.13L81.68,82.41a.46.46,0,0,1,0-.65.45.45,0,0,1,.64,0L96.25,95.26a.44.44,0,0,1,0,.65A.43.43,0,0,1,95.94,96.05Z"/><path class="cls-1" d="M99.37,100.34a.49.49,0,0,1-.33-.14l-1.71-1.71a.46.46,0,1,1,.65-.65l1.72,1.72a.47.47,0,0,1,0,.64A.51.51,0,0,1,99.37,100.34Z"/><path class="cls-1" d="M96,104.83a.46.46,0,0,1-.37-.18L88.81,96a.47.47,0,0,1,.08-.65.46.46,0,0,1,.65.08l6.85,8.67a.47.47,0,0,1-.07.65A.53.53,0,0,1,96,104.83Z"/><path class="cls-1" d="M87.29,93.61a.46.46,0,0,1-.37-.18l-5.71-7.31a.46.46,0,0,1,.08-.65.45.45,0,0,1,.64.08l5.72,7.32a.47.47,0,0,1-.08.64A.46.46,0,0,1,87.29,93.61Z"/><path class="cls-1" d="M84.07,96.68a.46.46,0,0,1-.38-.2L76,85.14a.46.46,0,0,1,.11-.64.48.48,0,0,1,.65.12L84.45,96a.46.46,0,0,1-.12.64A.42.42,0,0,1,84.07,96.68Z"/><path class="cls-1" d="M88.43,102.79a.47.47,0,0,1-.38-.2L85,98.22a.46.46,0,1,1,.75-.53l3.09,4.38a.46.46,0,0,1-.11.64A.5.5,0,0,1,88.43,102.79Z"/><path class="cls-1" d="M82.65,104.31a.46.46,0,0,1-.4-.24l-5.37-10a.46.46,0,1,1,.81-.44l5.36,10a.44.44,0,0,1-.18.62A.55.55,0,0,1,82.65,104.31Z"/><path class="cls-1" d="M85.13,110a.46.46,0,0,1-.42-.26l-1.18-2.35a.46.46,0,0,1,.21-.62.47.47,0,0,1,.62.21l1.18,2.36a.46.46,0,0,1-.22.61A.45.45,0,0,1,85.13,110Z"/><path class="cls-1" d="M78.25,106.11a.45.45,0,0,1-.43-.3L72.14,90.6a.46.46,0,0,1,.86-.32l5.68,15.21a.45.45,0,0,1-.27.59A.41.41,0,0,1,78.25,106.11Z"/><path class="cls-1" d="M80.19,111.59a.47.47,0,0,1-.44-.32l-1.06-3.21a.45.45,0,0,1,.28-.57.45.45,0,0,1,.59.28L80.63,111a.45.45,0,0,1-.29.57A.4.4,0,0,1,80.19,111.59Z"/><path class="cls-1" d="M69.8,91.45a.46.46,0,0,1-.45-.35l-1-3.86a.46.46,0,1,1,.89-.23l1,3.87a.45.45,0,0,1-.33.55Z"/><path class="cls-1" d="M72.36,101.62a.46.46,0,0,1-.45-.36l-1.82-7.17a.46.46,0,1,1,.89-.22l1.82,7.18a.46.46,0,0,1-.33.55Z"/><path class="cls-1" d="M74.28,109.76a.46.46,0,0,1-.44-.36l-1.38-5.55a.46.46,0,1,1,.89-.22l1.38,5.56a.46.46,0,0,1-.34.55Z"/><path class="cls-1" d="M68.51,108.48a.46.46,0,0,1-.46-.42l-.85-8.45a.47.47,0,0,1,.41-.51.46.46,0,0,1,.5.42L69,108a.47.47,0,0,1-.41.51Z"/><path class="cls-1" d="M69.25,115.54a.44.44,0,0,1-.45-.41l-.53-4.38a.47.47,0,0,1,.4-.51.47.47,0,0,1,.51.41L69.7,115a.45.45,0,0,1-.4.52Z"/><path class="cls-1" d="M64.09,92.52a.46.46,0,0,1-.46-.46v-4.6a.46.46,0,1,1,.91,0v4.6A.46.46,0,0,1,64.09,92.52Z"/><path class="cls-1" d="M64,99.05a.45.45,0,0,1-.46-.45V94a.46.46,0,1,1,.92,0V98.6A.45.45,0,0,1,64,99.05Z"/><path class="cls-1" d="M63.87,112.67a.48.48,0,0,1-.46-.47V100.63a.47.47,0,0,1,.46-.46.46.46,0,0,1,.46.46V112.2A.47.47,0,0,1,63.87,112.67Z"/><polygon class="cls-2" points="122.16 53.37 108.38 55.14 106.73 63.27 106.73 48.67 21.27 59.64 21.27 74.24 19.62 66.53 5.84 68.3 11.7 75.47 5.84 84.8 29.35 81.78 29.35 75.1 98.65 66.2 98.65 72.89 122.16 69.87 116.3 62.04 122.16 53.37"/><path class="cls-3" d="M95.93,64a3.78,3.78,0,0,0-1.39-3c1.33-6.36,1.54-15.53-4-19.15-6.08-4-13.15-1.51-14-1.51C68.15,40.38,66,37.89,64,35.57v-.09s0,0,0,0l0,0v.09c-2,2.32-4.1,4.81-12.46,4.81-.88,0-8-2.45-14,1.51-5.55,3.62-5.34,12.79-4,19.15a3.86,3.86,0,0,0,0,5.92c-1.32,6.37-1.52,15.49,4,19.09,6.08,3.94,13,1.58,14,1.58,8.35,0,10.5,2.48,12.46,4.8v.09l0,0,0,0v-.09c2-2.32,4.11-4.8,12.47-4.8,1,0,7.94,2.36,14-1.58,5.54-3.6,5.34-12.72,4-19.09A3.74,3.74,0,0,0,95.93,64Z"/><path class="cls-4" d="M91.18,65.67l2-1.67-2.09-1.67.4-1.94c.58-2.88,2.11-12.52-2.83-15.82a12.33,12.33,0,0,0-6.94-2,21.34,21.34,0,0,0-4.59.56,7.86,7.86,0,0,1-1.12.18c-6.77,0-9.57-1.71-11.41-3.37L64,39.4l-.63.58c-1.85,1.67-4.65,3.38-11.42,3.38a6.38,6.38,0,0,1-1.17-.19,21.73,21.73,0,0,0-4.53-.55,12.27,12.27,0,0,0-7,2c-4.95,3.3-3.42,12.93-2.83,15.79l.38,2L34.77,64l2.08,1.7-.39,1.91c-.58,2.87-2.09,12.48,2.84,15.76a12.54,12.54,0,0,0,7,2,22.68,22.68,0,0,0,4.44-.51A7.63,7.63,0,0,1,52,84.65c6.81,0,9.59,1.7,11.42,3.37l.63.57.63-.58c1.83-1.66,4.62-3.36,11.42-3.36a7.8,7.8,0,0,1,1.21.19,22.93,22.93,0,0,0,4.4.5,12.52,12.52,0,0,0,7-2c4.94-3.29,3.42-12.89,2.84-15.74ZM38.36,68.05,39,64.86,38,64l1-.82L38.37,60c-.23-1.11-2.1-10.92,2-13.64a10.51,10.51,0,0,1,5.91-1.63,19.53,19.53,0,0,1,4.2.52,9.79,9.79,0,0,0,1.5.21c6.77,0,9.95-1.62,12-3.33,2.1,1.71,5.29,3.33,12,3.33a9.16,9.16,0,0,0,1.57-.23,19.85,19.85,0,0,1,4.14-.5,10.47,10.47,0,0,1,5.9,1.63c4.08,2.72,2.2,12.53,2,13.64L89,63.18,90,64l-1,.8.6,3.23c1,5,1.1,11.53-2,13.58a10.62,10.62,0,0,1-6,1.66,20.26,20.26,0,0,1-4.07-.48,9,9,0,0,0-1.54-.21c-5.51,0-9.17,1-12,3.31-2.88-2.32-6.54-3.31-12-3.31a9.12,9.12,0,0,0-1.61.23,20.58,20.58,0,0,1-4,.46,10.68,10.68,0,0,1-6-1.66C37.27,79.59,37.35,73,38.36,68.05Z"/><path class="cls-4" d="M80.85,55.11A2.1,2.1,0,0,1,83,57.21V74.6a2.1,2.1,0,0,1-2.11,2.11H47.15A2.1,2.1,0,0,1,45,74.6V57.21a2.1,2.1,0,0,1,2.11-2.1h8l1.07-3.69a2.29,2.29,0,0,1,2.2-1.65H69.63a2.29,2.29,0,0,1,2.2,1.65l1.07,3.69ZM73.5,64.8A9.5,9.5,0,1,0,64,74.29,9.51,9.51,0,0,0,73.5,64.8Zm-3,0A6.5,6.5,0,1,1,64,58.3,6.5,6.5,0,0,1,70.5,64.8Zm-16.87-7h-6v3.18h6Z"/></g></g></g></g></svg>