<svg xmlns="http://www.w3.org/2000/svg" viewBox="0 0 128 128"><defs><style>.cls-1{fill:#d19e93;}.cls-2{fill:#8c3418;}.cls-3{fill:#27221e;}.cls-4,.cls-5{fill:#fff;}.cls-5{stroke:#27221e;stroke-width:3px;}.cls-5,.cls-6{stroke-miterlimit:10;}.cls-6{fill:none;stroke:#8c3418;stroke-width:2px;}</style></defs><g id="Лучшее"><g id="Большие_06-17_2" data-name="Большие (06-17)"><g id="_06-11-2" data-name="06-11"><g id="_11_-_Предоставляем_сертификаты-2" data-name="11 - Предоставляем сертификаты"><path class="cls-1" d="M29.77,61.33h-.05L18.43,59.85a.46.46,0,0,1-.4-.52.46.46,0,0,1,.52-.4L29.83,60.4a.47.47,0,0,1-.06.93Z"/><path class="cls-1" d="M16,59.47H16l-4-.66a.46.46,0,0,1-.39-.53.48.48,0,0,1,.54-.39l4,.66a.45.45,0,0,1,.38.53A.46.46,0,0,1,16,59.47Z"/><path class="cls-1" d="M37.06,59.47l-.12,0-8.61-2.29a.46.46,0,0,1-.33-.57.45.45,0,0,1,.57-.33l8.61,2.29a.46.46,0,0,1,.33.57A.47.47,0,0,1,37.06,59.47Z"/><path class="cls-1" d="M26.21,56.76l-.11,0L13.62,53.46a.47.47,0,0,1-.33-.58.46.46,0,0,1,.57-.33l12.47,3.28a.48.48,0,0,1,.34.57A.49.49,0,0,1,26.21,56.76Z"/><path class="cls-1" d="M38.8,56.74l-.18,0-3.48-1.42a.47.47,0,0,1-.26-.61.48.48,0,0,1,.61-.26L39,55.84a.47.47,0,0,1-.18.9Z"/><path class="cls-1" d="M33.35,54.67a.35.35,0,0,1-.17,0l-5.46-2.29a.47.47,0,0,1,.37-.86l5.44,2.29a.46.46,0,0,1,.26.61A.48.48,0,0,1,33.35,54.67Z"/><path class="cls-1" d="M25,51.62a.47.47,0,0,1-.17,0l-3.72-1.52a.48.48,0,0,1-.25-.61.47.47,0,0,1,.61-.26l3.71,1.53a.45.45,0,0,1,.25.61A.46.46,0,0,1,25,51.62Z"/><path class="cls-1" d="M36.63,52.06a.55.55,0,0,1-.22-.06L22.13,44.59a.47.47,0,1,1,.43-.83l14.28,7.41a.47.47,0,0,1,.2.63A.49.49,0,0,1,36.63,52.06Z"/><path class="cls-1" d="M20.49,43.88a.58.58,0,0,1-.19,0l-3.61-1.75a.48.48,0,0,1-.22-.62.47.47,0,0,1,.63-.22L20.7,43a.47.47,0,0,1,.21.62A.44.44,0,0,1,20.49,43.88Z"/><path class="cls-1" d="M41.86,52a.38.38,0,0,1-.25-.09L25.25,41.19a.48.48,0,0,1-.13-.65.45.45,0,0,1,.64-.13L42.11,51.08a.47.47,0,0,1,.13.66A.45.45,0,0,1,41.86,52Z"/><path class="cls-1" d="M23,39.3a.59.59,0,0,1-.26-.07l-2-1.31a.47.47,0,0,1,.52-.78l2,1.31a.47.47,0,0,1,.13.65A.47.47,0,0,1,23,39.3Z"/><path class="cls-1" d="M44.14,49.22a.45.45,0,0,1-.3-.11l-4.25-3.6a.48.48,0,0,1-.06-.66.47.47,0,0,1,.66-.05l4.26,3.6a.47.47,0,0,1-.31.82Z"/><path class="cls-1" d="M37.5,43.77a.39.39,0,0,1-.29-.11l-4.47-3.59a.47.47,0,0,1-.08-.66.47.47,0,0,1,.66-.07l4.47,3.6a.47.47,0,0,1-.29.83Z"/><path class="cls-1" d="M30.54,38.22a.49.49,0,0,1-.32-.12l-1.65-1.54a.47.47,0,0,1,.63-.69l1.66,1.55a.48.48,0,0,1,0,.66A.45.45,0,0,1,30.54,38.22Z"/><path class="cls-1" d="M45.68,46.07a.45.45,0,0,1-.32-.13L31.18,32.2a.48.48,0,0,1,0-.67.47.47,0,0,1,.66,0L46,45.26a.47.47,0,0,1-.33.81Z"/><path class="cls-1" d="M29.76,29.71a.44.44,0,0,1-.33-.13l-1.75-1.75a.47.47,0,0,1,0-.66.48.48,0,0,1,.67,0l1.74,1.74a.48.48,0,0,1,0,.67A.46.46,0,0,1,29.76,29.71Z"/><path class="cls-1" d="M38.39,32.23a.48.48,0,0,1-.37-.17l-7-8.84a.46.46,0,0,1,.08-.65.47.47,0,0,1,.66.07l7,8.83a.47.47,0,0,1-.08.66A.42.42,0,0,1,38.39,32.23Z"/><path class="cls-1" d="M46.12,42.26a.45.45,0,0,1-.36-.18l-5.82-7.45A.49.49,0,0,1,40,34a.48.48,0,0,1,.66.09l5.81,7.45a.46.46,0,0,1-.08.65A.51.51,0,0,1,46.12,42.26Z"/><path class="cls-1" d="M51.45,43.23a.46.46,0,0,1-.39-.21L43.19,31.48a.47.47,0,0,1,.13-.65A.46.46,0,0,1,44,31l7.87,11.54a.48.48,0,0,1-.12.66A.5.5,0,0,1,51.45,43.23Z"/><path class="cls-1" d="M42.3,29.93a.47.47,0,0,1-.39-.2l-3.15-4.45a.48.48,0,0,1,.12-.66.46.46,0,0,1,.65.12l3.14,4.45a.47.47,0,0,1-.11.65A.45.45,0,0,1,42.3,29.93Z"/><path class="cls-1" d="M50.48,34.08a.47.47,0,0,1-.41-.24L44.6,23.69a.47.47,0,0,1,.83-.45L50.9,33.39a.46.46,0,0,1-.2.63A.4.4,0,0,1,50.48,34.08Z"/><path class="cls-1" d="M43.71,20.56a.49.49,0,0,1-.42-.26l-1.2-2.4a.48.48,0,0,1,.21-.63.46.46,0,0,1,.63.21l1.2,2.4a.48.48,0,0,1-.21.63A.54.54,0,0,1,43.71,20.56Z"/><path class="cls-1" d="M55.28,37.57a.46.46,0,0,1-.44-.31L49.07,21.79a.47.47,0,0,1,.87-.33l5.78,15.47a.48.48,0,0,1-.28.61A.41.41,0,0,1,55.28,37.57Z"/><path class="cls-1" d="M48.61,19.79a.47.47,0,0,1-.44-.32l-1.09-3.26a.49.49,0,0,1,.29-.6.47.47,0,0,1,.6.3l1.09,3.27a.47.47,0,0,1-.3.59Z"/><path class="cls-1" d="M59.08,40.94a.45.45,0,0,1-.45-.35l-1-3.93a.46.46,0,0,1,.34-.57.47.47,0,0,1,.56.34l1,3.93a.46.46,0,0,1-.34.56Z"/><path class="cls-1" d="M57.35,34a.46.46,0,0,1-.45-.35l-1.85-7.3a.46.46,0,0,1,.33-.57.47.47,0,0,1,.57.34l1.85,7.3a.47.47,0,0,1-.34.57Z"/><path class="cls-1" d="M54.94,24.05a.47.47,0,0,1-.45-.36L53.08,18a.48.48,0,0,1,.35-.58.47.47,0,0,1,.56.35l1.4,5.66a.47.47,0,0,1-.34.56Z"/><path class="cls-1" d="M60.27,28.29a.47.47,0,0,1-.46-.42l-.87-8.61a.47.47,0,0,1,.42-.51.46.46,0,0,1,.5.42l.88,8.61a.46.46,0,0,1-.41.51Z"/><path class="cls-1" d="M59.18,17a.48.48,0,0,1-.46-.42l-.53-4.46a.47.47,0,0,1,.41-.52.46.46,0,0,1,.52.41l.53,4.46a.46.46,0,0,1-.4.52Z"/><path class="cls-1" d="M98.22,61.33a.47.47,0,0,1-.06-.93l11.28-1.47a.46.46,0,0,1,.52.4.46.46,0,0,1-.4.52L98.28,61.33Z"/><path class="cls-1" d="M112,59.47a.47.47,0,0,1-.46-.4.46.46,0,0,1,.38-.53l4-.66a.48.48,0,0,1,.54.39.46.46,0,0,1-.39.53l-4,.66Z"/><path class="cls-1" d="M90.94,59.47a.46.46,0,0,1-.45-.35.45.45,0,0,1,.32-.57l8.61-2.29a.46.46,0,0,1,.58.33.48.48,0,0,1-.34.57l-8.61,2.29Z"/><path class="cls-1" d="M101.78,56.76a.47.47,0,0,1-.12-.93l12.48-3.28a.46.46,0,0,1,.57.33.47.47,0,0,1-.33.58L101.9,56.74Z"/><path class="cls-1" d="M89.19,56.74a.46.46,0,0,1-.43-.29.47.47,0,0,1,.25-.61l3.49-1.42a.47.47,0,0,1,.36.87l-3.49,1.42Z"/><path class="cls-1" d="M94.64,54.67a.46.46,0,0,1-.43-.29.47.47,0,0,1,.25-.61l5.45-2.29a.47.47,0,0,1,.36.86l-5.45,2.29A.39.39,0,0,1,94.64,54.67Z"/><path class="cls-1" d="M103,51.62a.47.47,0,0,1-.44-.29.46.46,0,0,1,.25-.61l3.71-1.53a.47.47,0,0,1,.61.26.47.47,0,0,1-.25.61l-3.71,1.52A.59.59,0,0,1,103,51.62Z"/><path class="cls-1" d="M91.37,52.06A.46.46,0,0,1,91,51.8a.46.46,0,0,1,.2-.63l14.27-7.41a.47.47,0,1,1,.43.83L91.59,52A.66.66,0,0,1,91.37,52.06Z"/><path class="cls-1" d="M107.5,43.88a.45.45,0,0,1-.42-.27.46.46,0,0,1,.22-.62l3.59-1.74a.47.47,0,1,1,.41.84l-3.59,1.75A.78.78,0,0,1,107.5,43.88Z"/><path class="cls-1" d="M86.14,52a.48.48,0,0,1-.26-.87l16.35-10.67a.46.46,0,0,1,.65.13.47.47,0,0,1-.14.65L86.39,51.86A.4.4,0,0,1,86.14,52Z"/><path class="cls-1" d="M105,39.3a.47.47,0,0,1-.39-.2.47.47,0,0,1,.14-.65l2-1.31a.47.47,0,0,1,.65.13.46.46,0,0,1-.13.65l-2,1.31A.59.59,0,0,1,105,39.3Z"/><path class="cls-1" d="M83.85,49.22a.46.46,0,0,1-.35-.17.45.45,0,0,1,0-.65l4.25-3.6a.47.47,0,0,1,.61.71l-4.26,3.6A.41.41,0,0,1,83.85,49.22Z"/><path class="cls-1" d="M90.5,43.77a.5.5,0,0,1-.37-.17.48.48,0,0,1,.07-.66l4.47-3.6a.47.47,0,1,1,.59.73l-4.47,3.59A.42.42,0,0,1,90.5,43.77Z"/><path class="cls-1" d="M97.46,38.22a.44.44,0,0,1-.34-.14.46.46,0,0,1,0-.66l1.65-1.55a.47.47,0,0,1,.66,0,.45.45,0,0,1,0,.66L97.78,38.1A.47.47,0,0,1,97.46,38.22Z"/><path class="cls-1" d="M82.31,46.07a.48.48,0,0,1-.34-.14.48.48,0,0,1,0-.67L96.17,31.52a.47.47,0,0,1,.66,0,.47.47,0,0,1,0,.67L82.63,45.94A.45.45,0,0,1,82.31,46.07Z"/><path class="cls-1" d="M98.24,29.71a.46.46,0,0,1-.33-.13.47.47,0,0,1,0-.67l1.74-1.74a.48.48,0,0,1,.67,0,.49.49,0,0,1,0,.66l-1.75,1.75A.46.46,0,0,1,98.24,29.71Z"/><path class="cls-1" d="M89.62,32.23a.47.47,0,0,1-.3-.1.48.48,0,0,1-.08-.66l7-8.83a.47.47,0,0,1,.66-.07.46.46,0,0,1,.07.65l-7,8.84A.51.51,0,0,1,89.62,32.23Z"/><path class="cls-1" d="M81.87,42.26a.48.48,0,0,1-.28-.1.45.45,0,0,1-.08-.65l5.81-7.46a.47.47,0,1,1,.73.58l-5.81,7.45A.51.51,0,0,1,81.87,42.26Z"/><path class="cls-1" d="M76.55,43.23a.53.53,0,0,1-.27-.08.48.48,0,0,1-.12-.66L84,31a.47.47,0,0,1,.65-.12.47.47,0,0,1,.12.65L76.94,43A.47.47,0,0,1,76.55,43.23Z"/><path class="cls-1" d="M85.7,29.93a.48.48,0,0,1-.27-.09.47.47,0,0,1-.11-.65l3.15-4.45a.46.46,0,0,1,.65-.12.48.48,0,0,1,.11.66l-3.14,4.45A.49.49,0,0,1,85.7,29.93Z"/><path class="cls-1" d="M77.51,34.08a.43.43,0,0,1-.22-.06.46.46,0,0,1-.19-.63l5.47-10.15a.47.47,0,0,1,.63-.19.46.46,0,0,1,.18.64L77.92,33.84A.46.46,0,0,1,77.51,34.08Z"/><path class="cls-1" d="M84.29,20.56a.54.54,0,0,1-.21,0,.47.47,0,0,1-.21-.63l1.2-2.4a.46.46,0,0,1,.62-.21.47.47,0,0,1,.22.63l-1.2,2.4A.49.49,0,0,1,84.29,20.56Z"/><path class="cls-1" d="M72.72,37.57a.51.51,0,0,1-.17,0,.47.47,0,0,1-.27-.61l5.78-15.47a.47.47,0,1,1,.87.33L73.16,37.26A.47.47,0,0,1,72.72,37.57Z"/><path class="cls-1" d="M79.38,19.79l-.15,0a.47.47,0,0,1-.29-.59L80,15.91a.48.48,0,0,1,.6-.3.47.47,0,0,1,.3.6l-1.09,3.26A.47.47,0,0,1,79.38,19.79Z"/><path class="cls-1" d="M68.92,40.94l-.12,0a.45.45,0,0,1-.33-.56l1-3.93a.46.46,0,0,1,.56-.34.47.47,0,0,1,.34.57l-1,3.93A.46.46,0,0,1,68.92,40.94Z"/><path class="cls-1" d="M70.65,34h-.12a.48.48,0,0,1-.34-.57l1.86-7.3a.45.45,0,0,1,.56-.34.47.47,0,0,1,.34.57l-1.85,7.3A.47.47,0,0,1,70.65,34Z"/><path class="cls-1" d="M73.06,24.05l-.12,0a.47.47,0,0,1-.33-.56L74,17.81a.47.47,0,0,1,.56-.35.48.48,0,0,1,.34.58l-1.4,5.65A.47.47,0,0,1,73.06,24.05Z"/><path class="cls-1" d="M67.72,28.29h0a.47.47,0,0,1-.42-.51l.87-8.61a.49.49,0,0,1,.52-.42.48.48,0,0,1,.42.51l-.88,8.61A.46.46,0,0,1,67.72,28.29Z"/><path class="cls-1" d="M68.81,17h-.06a.46.46,0,0,1-.4-.52L68.88,12a.47.47,0,0,1,.51-.41.46.46,0,0,1,.41.52l-.53,4.46A.47.47,0,0,1,68.81,17Z"/><path class="cls-1" d="M64.09,40.61a.46.46,0,0,1-.47-.46V35.46a.47.47,0,1,1,.93,0v4.69A.46.46,0,0,1,64.09,40.61Z"/><path class="cls-1" d="M64,34a.46.46,0,0,1-.46-.47V28.81a.47.47,0,1,1,.93,0v4.68A.46.46,0,0,1,64,34Z"/><path class="cls-1" d="M63.87,27.21a.48.48,0,0,1-.47-.47V15a.48.48,0,0,1,.47-.47.47.47,0,0,1,.47.47V26.74A.47.47,0,0,1,63.87,27.21Z"/><path class="cls-1" d="M35.32,73.61a.47.47,0,0,1-.18-.9l3.48-1.42a.48.48,0,0,1,.62.26.48.48,0,0,1-.26.61l-3.49,1.42A.51.51,0,0,1,35.32,73.61Z"/><path class="cls-1" d="M27.91,76.55a.47.47,0,0,1-.43-.28.46.46,0,0,1,.24-.61l5.46-2.3a.49.49,0,0,1,.61.25.47.47,0,0,1-.26.62l-5.44,2.28A.42.42,0,0,1,27.91,76.55Z"/><path class="cls-1" d="M21.26,78.84a.48.48,0,0,1-.44-.29.47.47,0,0,1,.25-.6l3.72-1.54a.46.46,0,0,1,.6.26.45.45,0,0,1-.25.61l-3.71,1.53Z"/><path class="cls-1" d="M22.35,84.29a.47.47,0,0,1-.22-.88L36.41,76a.47.47,0,0,1,.43.83L22.56,84.24A.54.54,0,0,1,22.35,84.29Z"/><path class="cls-1" d="M16.9,86.79a.46.46,0,0,1-.21-.88l3.61-1.75a.46.46,0,0,1,.61.23.46.46,0,0,1-.21.62l-3.6,1.75A.64.64,0,0,1,16.9,86.79Z"/><path class="cls-1" d="M25.5,87.67a.47.47,0,0,1-.38-.21.48.48,0,0,1,.13-.65L41.61,76.13a.46.46,0,0,1,.5.78L25.76,87.59A.38.38,0,0,1,25.5,87.67Z"/><path class="cls-1" d="M21,90.94a.46.46,0,0,1-.39-.21.45.45,0,0,1,.13-.64l2-1.32a.48.48,0,0,1,.65.14.46.46,0,0,1-.13.64l-2,1.31A.5.5,0,0,1,21,90.94Z"/><path class="cls-1" d="M39.89,83.31a.46.46,0,0,1-.36-.16.48.48,0,0,1,.06-.66l4.25-3.6a.47.47,0,0,1,.61.71l-4.26,3.6A.46.46,0,0,1,39.89,83.31Z"/><path class="cls-1" d="M33,88.76a.5.5,0,0,1-.37-.17.47.47,0,0,1,.08-.66l4.47-3.6a.45.45,0,0,1,.65.08.46.46,0,0,1-.07.65l-4.47,3.6A.46.46,0,0,1,33,88.76Z"/><path class="cls-1" d="M28.89,92.25a.47.47,0,0,1-.32-.81l1.65-1.54a.45.45,0,0,1,.66,0,.47.47,0,0,1,0,.65L29.2,92.13A.45.45,0,0,1,28.89,92.25Z"/><path class="cls-1" d="M31.5,96.61a.44.44,0,0,1-.33-.15.47.47,0,0,1,0-.66L45.36,82.06a.47.47,0,1,1,.65.67L31.83,96.47A.45.45,0,0,1,31.5,96.61Z"/><path class="cls-1" d="M28,101a.49.49,0,0,1-.33-.14.47.47,0,0,1,0-.66l1.75-1.75a.47.47,0,0,1,.66,0,.48.48,0,0,1,0,.67l-1.74,1.74A.51.51,0,0,1,28,101Z"/><path class="cls-1" d="M31.41,105.53a.45.45,0,0,1-.29-.1.47.47,0,0,1-.08-.66L38,96a.46.46,0,0,1,.65-.08.47.47,0,0,1,.08.66l-7,8.82A.47.47,0,0,1,31.41,105.53Z"/><path class="cls-1" d="M40.31,94.12A.46.46,0,0,1,40,94a.47.47,0,0,1-.08-.65l5.82-7.45a.46.46,0,0,1,.65-.08.47.47,0,0,1,.08.66l-5.81,7.44A.46.46,0,0,1,40.31,94.12Z"/><path class="cls-1" d="M43.58,97.25a.5.5,0,0,1-.26-.08.47.47,0,0,1-.13-.65L51.06,85a.47.47,0,0,1,.65-.13.48.48,0,0,1,.12.66L44,97A.44.44,0,0,1,43.58,97.25Z"/><path class="cls-1" d="M39.15,103.46a.5.5,0,0,1-.27-.08.48.48,0,0,1-.12-.66l3.15-4.45a.47.47,0,0,1,.76.54l-3.14,4.45A.46.46,0,0,1,39.15,103.46Z"/><path class="cls-1" d="M45,105a.49.49,0,0,1-.22-.06.47.47,0,0,1-.19-.63l5.47-10.15a.47.47,0,0,1,.83.45l-5.47,10.15A.49.49,0,0,1,45,105Z"/><path class="cls-1" d="M42.51,110.77a.41.41,0,0,1-.21,0,.46.46,0,0,1-.21-.61l1.2-2.41a.47.47,0,0,1,.84.42l-1.2,2.39A.47.47,0,0,1,42.51,110.77Z"/><path class="cls-1" d="M49.5,106.84a.45.45,0,0,1-.16,0,.47.47,0,0,1-.27-.6l5.77-15.48a.48.48,0,0,1,.6-.28.49.49,0,0,1,.28.61l-5.78,15.47A.47.47,0,0,1,49.5,106.84Z"/><path class="cls-1" d="M47.52,112.41a.44.44,0,0,1-.15,0,.46.46,0,0,1-.29-.58l1.09-3.28a.47.47,0,0,1,.89.3L48,112.09A.47.47,0,0,1,47.52,112.41Z"/><path class="cls-1" d="M58.09,91.92H58a.46.46,0,0,1-.34-.57l1-3.93a.47.47,0,1,1,.9.24l-1,3.92A.47.47,0,0,1,58.09,91.92Z"/><path class="cls-1" d="M55.5,102.27l-.12,0a.46.46,0,0,1-.33-.56l1.85-7.31a.46.46,0,0,1,.56-.34.47.47,0,0,1,.34.57L56,101.9A.48.48,0,0,1,55.5,102.27Z"/><path class="cls-1" d="M53.54,110.55l-.11,0a.47.47,0,0,1-.35-.56l1.41-5.66a.46.46,0,0,1,.56-.34.47.47,0,0,1,.34.57L54,110.19A.48.48,0,0,1,53.54,110.55Z"/><path class="cls-1" d="M59.4,109.25h0a.47.47,0,0,1-.42-.52l.87-8.6a.47.47,0,1,1,.93.09l-.88,8.6A.45.45,0,0,1,59.4,109.25Z"/><path class="cls-1" d="M58.66,116.43H58.6a.47.47,0,0,1-.41-.52l.53-4.46a.48.48,0,0,1,.53-.41.47.47,0,0,1,.4.52L59.12,116A.46.46,0,0,1,58.66,116.43Z"/><path class="cls-1" d="M92.68,73.61a.57.57,0,0,1-.18,0L89,72.16a.47.47,0,0,1,.36-.87l3.49,1.42a.47.47,0,0,1,.25.61A.46.46,0,0,1,92.68,73.61Z"/><path class="cls-1" d="M100.09,76.55a.39.39,0,0,1-.18,0l-5.45-2.28a.47.47,0,0,1,.36-.87l5.45,2.3a.46.46,0,0,1-.18.89Z"/><path class="cls-1" d="M106.74,78.84a.57.57,0,0,1-.18,0l-3.71-1.53a.46.46,0,0,1-.25-.61.48.48,0,0,1,.61-.26L106.92,78a.45.45,0,0,1,.25.6A.46.46,0,0,1,106.74,78.84Z"/><path class="cls-1" d="M105.65,84.29a.59.59,0,0,1-.22-.05L91.16,76.83a.46.46,0,0,1-.2-.63.47.47,0,0,1,.63-.2l14.27,7.41a.47.47,0,0,1,.2.63A.45.45,0,0,1,105.65,84.29Z"/><path class="cls-1" d="M111.1,86.79a.76.76,0,0,1-.21,0L107.3,85a.46.46,0,0,1-.22-.62.47.47,0,0,1,.63-.23l3.59,1.75a.46.46,0,0,1-.2.88Z"/><path class="cls-1" d="M102.48,87.67a.41.41,0,0,1-.25-.08L85.88,76.91a.48.48,0,0,1-.13-.65.47.47,0,0,1,.64-.13l16.35,10.68a.47.47,0,0,1,.14.65A.5.5,0,0,1,102.48,87.67Z"/><path class="cls-1" d="M107,90.94a.53.53,0,0,1-.27-.08l-2-1.31a.46.46,0,0,1-.14-.64.48.48,0,0,1,.65-.14l2,1.32a.46.46,0,0,1-.25.85Z"/><path class="cls-1" d="M88.1,83.31a.5.5,0,0,1-.3-.11l-4.25-3.6a.46.46,0,0,1,.6-.71l4.26,3.6a.48.48,0,0,1,0,.66A.46.46,0,0,1,88.1,83.31Z"/><path class="cls-1" d="M95,88.76a.46.46,0,0,1-.29-.1l-4.47-3.6a.47.47,0,0,1,.59-.73l4.47,3.6a.48.48,0,0,1,.08.66A.52.52,0,0,1,95,88.76Z"/><path class="cls-1" d="M99.11,92.25a.49.49,0,0,1-.32-.12l-1.65-1.55a.47.47,0,0,1,.64-.68l1.64,1.54a.45.45,0,0,1,0,.66A.46.46,0,0,1,99.11,92.25Z"/><path class="cls-1" d="M96.49,96.61a.43.43,0,0,1-.32-.14L82,82.73a.47.47,0,0,1,0-.66.46.46,0,0,1,.66,0L96.81,95.8a.45.45,0,0,1,0,.66A.45.45,0,0,1,96.49,96.61Z"/><path class="cls-1" d="M100,101a.47.47,0,0,1-.33-.14l-1.74-1.74a.46.46,0,0,1,0-.67.47.47,0,0,1,.66,0l1.75,1.75a.49.49,0,0,1,0,.66A.51.51,0,0,1,100,101Z"/><path class="cls-1" d="M96.59,105.53a.46.46,0,0,1-.37-.18l-7-8.82a.48.48,0,0,1,.08-.66A.48.48,0,0,1,90,96l7,8.82a.47.47,0,0,1-.07.66A.48.48,0,0,1,96.59,105.53Z"/><path class="cls-1" d="M87.69,94.12a.46.46,0,0,1-.37-.18L81.51,86.5a.46.46,0,0,1,.08-.66.46.46,0,0,1,.65.08l5.81,7.45A.47.47,0,0,1,88,94,.48.48,0,0,1,87.69,94.12Z"/><path class="cls-1" d="M84.41,97.25A.44.44,0,0,1,84,97L76.16,85.51a.47.47,0,1,1,.78-.53L84.8,96.52a.47.47,0,0,1-.12.65A.5.5,0,0,1,84.41,97.25Z"/><path class="cls-1" d="M88.85,103.46a.46.46,0,0,1-.38-.2l-3.15-4.45a.47.47,0,0,1,.11-.65.48.48,0,0,1,.66.11l3.14,4.45a.48.48,0,0,1-.11.66A.56.56,0,0,1,88.85,103.46Z"/><path class="cls-1" d="M83,105a.46.46,0,0,1-.4-.24L77.1,94.61a.47.47,0,1,1,.82-.45l5.46,10.15a.45.45,0,0,1-.18.63A.46.46,0,0,1,83,105Z"/><path class="cls-1" d="M85.49,110.77a.46.46,0,0,1-.42-.26l-1.2-2.39a.47.47,0,0,1,.21-.63.48.48,0,0,1,.63.21l1.2,2.41a.45.45,0,0,1-.22.61A.39.39,0,0,1,85.49,110.77Z"/><path class="cls-1" d="M78.49,106.84a.46.46,0,0,1-.43-.31L72.28,91.06a.48.48,0,0,1,.27-.61.49.49,0,0,1,.61.28l5.77,15.48a.47.47,0,0,1-.27.6A.51.51,0,0,1,78.49,106.84Z"/><path class="cls-1" d="M80.47,112.41a.49.49,0,0,1-.45-.32l-1.08-3.27a.45.45,0,0,1,.29-.58.46.46,0,0,1,.6.28l1.09,3.28a.45.45,0,0,1-.3.58A.37.37,0,0,1,80.47,112.41Z"/><path class="cls-1" d="M69.9,91.92a.46.46,0,0,1-.45-.35l-1-3.92a.47.47,0,0,1,.33-.58.48.48,0,0,1,.57.34l1,3.93a.47.47,0,0,1-.34.57Z"/><path class="cls-1" d="M72.5,102.27a.47.47,0,0,1-.45-.37l-1.86-7.29a.47.47,0,1,1,.91-.23L73,101.69a.47.47,0,0,1-.34.56Z"/><path class="cls-1" d="M74.46,110.55a.47.47,0,0,1-.45-.36l-1.4-5.65a.46.46,0,1,1,.9-.23l1.4,5.66a.47.47,0,0,1-.34.56Z"/><path class="cls-1" d="M68.59,109.25a.48.48,0,0,1-.47-.43l-.87-8.6a.48.48,0,0,1,.42-.51.46.46,0,0,1,.51.42l.88,8.6a.49.49,0,0,1-.42.52Z"/><path class="cls-1" d="M69.34,116.43a.46.46,0,0,1-.46-.41l-.53-4.46a.46.46,0,0,1,.4-.52.48.48,0,0,1,.52.41l.53,4.46a.46.46,0,0,1-.41.52Z"/><path class="cls-1" d="M64.09,93a.47.47,0,0,1-.47-.46V87.86a.47.47,0,1,1,.93,0v4.69A.47.47,0,0,1,64.09,93Z"/><path class="cls-1" d="M64,99.66a.46.46,0,0,1-.46-.47V94.51a.47.47,0,1,1,.93,0v4.68A.46.46,0,0,1,64,99.66Z"/><path class="cls-1" d="M63.87,113.51a.48.48,0,0,1-.47-.48V101.26a.48.48,0,0,1,.47-.47.48.48,0,0,1,.47.47V113A.48.48,0,0,1,63.87,113.51Z"/><polygon class="cls-2" points="122.16 62.84 108.38 62.84 106.73 70.76 106.73 56.16 21.27 56.16 21.27 70.76 19.62 62.84 5.84 62.84 11.7 70.76 5.84 79.34 29.35 79.34 29.35 72.65 98.65 72.65 98.65 79.34 122.16 79.34 116.3 70.76 122.16 62.84"/><path class="cls-3" d="M91.35,46.87c.2-.46.4-.88.59-1.24a1.5,1.5,0,0,0-1.31-2.16c-3.54-.14-9.44-1.12-9.44-6.16H46.81c0,5-5.9,6-9.44,6.16a1.5,1.5,0,0,0-1.31,2.16c.19.36.39.78.59,1.24,1.54,3.48-.91,16.88-.91,27.94S41.54,91,51,90.5s13,8.39,13,8.39S67.54,90,77,90.5s15.26-4.62,15.26-15.69S89.82,50.35,91.35,46.87Z"/><path class="cls-4" d="M88.62,61.29l0-.29c-.59-6.91-.91-11.27-.14-13.72l.33-1.11L87.65,46a16.52,16.52,0,0,1-3.9-.93,7.65,7.65,0,0,1-4.62-4.25l-.25-.62H49.12l-.24.63c-1.06,2.79-4.09,4.62-8.53,5.17l-1.14.14.34,1.11c.76,2.43.44,6.79-.14,13.7-.36,4.28-.78,9.13-.78,13.56,0,8.79,3.88,13.25,11.54,13.25h.68l.45,0,.92,0a14.11,14.11,0,0,1,11,5.27l.75.89.74-.89a14.08,14.08,0,0,1,11-5.27l.94,0,.45,0h.67c3.69,0,6.53-1,8.46-3.14S89.37,79,89.37,74.55C89.37,70.26,89,65.5,88.62,61.29ZM77.83,85.87l-.89,0h-.41l-.76,0A15.82,15.82,0,0,0,64,90.93a15.83,15.83,0,0,0-11.78-5.12c-.13,0-.41,0-.73,0h-.43l-.89,0c-6.55,0-9.6-3.6-9.6-11.32,0-4.29.41-9.1.77-13.39.54-6.32.85-10.54.32-13.36,4.3-.75,7.37-2.72,8.76-5.62H77.59a9.72,9.72,0,0,0,5.46,4.73,16.65,16.65,0,0,0,3.29.89c-.53,2.82-.21,7,.32,13.33v.14c.34,4,.76,8.89.76,13.28,0,4-.86,6.94-2.57,8.79C83.32,85,81,85.87,77.83,85.87Z"/><rect class="cls-5" x="45.5" y="33.5" width="36" height="46"/><rect class="cls-2" x="57" y="41" width="14" height="3"/><rect class="cls-3" x="52" y="48" width="24" height="2"/><rect class="cls-3" x="52" y="52" width="24" height="2"/><rect class="cls-3" x="52" y="56" width="24" height="2"/><rect class="cls-3" x="52" y="60" width="16" height="2"/><rect class="cls-2" x="52" y="69" width="10" height="2"/><circle class="cls-6" cx="72" cy="70" r="4"/></g></g></g></g></svg>