<?xml version="1.0" encoding="utf-8"?>
<!-- Generator: Adobe Illustrator 21.0.0, SVG Export Plug-In . SVG Version: 6.00 Build 0)  -->
<svg version="1.1" id="Слой_1" xmlns="http://www.w3.org/2000/svg" xmlns:xlink="http://www.w3.org/1999/xlink" x="0px" y="0px"
	 viewBox="0 0 128 88.8" style="enable-background:new 0 0 128 88.8;" xml:space="preserve">
<style type="text/css">
	.st0{fill:#27221E;}
	.st1{fill:#FFFFFF;}
</style>
<g id="_10_-_Брендирование">
	<path class="st0" d="M0.1,40.7c1.3,9.9,9.3,11,14.9,27.9c1.5,4.5,5.1,7.4,9.6,9c0.1,0.7,0.4,1.4,0.9,1.9c1.4,1.4,3.3,2.1,5.2,2h0.5
		l0,0c0.3,0.1,0.5,0.3,0.8,0.4c0.1,0.6,0.3,1.1,0.7,1.6c1.2,1.1,2.8,1.7,4.4,1.6h0.5c1.7-0.1,3.3-0.1,5-0.1
		c10.5,0,17.2,1.9,21.4,3.9l0,0h0l0,0c4.2-2,10.9-3.9,21.4-3.9c1.6,0,3.3,0,5,0.1h0.4c1.6,0.1,3.2-0.5,4.3-1.7
		c0.4-0.4,0.6-1,0.7-1.6c0.3-0.1,0.6-0.3,0.8-0.4l0,0h0.5c1.9,0.1,3.8-0.6,5.2-2c0.5-0.5,0.8-1.2,0.9-1.9c4.6-1.6,8.2-4.5,9.7-9
		c5.6-16.9,13.5-18,14.9-27.9c0.9-6.5-3.3-11.9-10.2-14.1c-0.6-6.2-6.4-11.2-13.7-12v-0.1c0,0-13.9-1.4-13.9-7.1
		C78.8,7.1,68.2,2.5,64.1,0.2V0L64,0.1c0,0-0.1-0.1-0.2-0.1v0.1c-4,2.3-14.7,7-25.9,7.2c-0.1,5.7-13.9,7.1-13.9,7.1v0.1
		c-7.4,0.8-13.1,5.8-13.8,12C3.5,28.8-0.7,34.2,0.1,40.7z"/>
	<path class="st1" d="M116,31.3l-3-0.9l-0.3-3.1c-0.4-4-4.4-7.2-9.3-7.7c-6.9-1.8-14.7-4.5-16.5-6.8l-0.4-0.5L85.7,12
		c-7.3-0.8-14.4-2.9-21-6L64,5.7L63.3,6c-6.6,3.1-13.7,5.2-21,6l-0.7,0.1l-0.5,0.6c-1.8,2.3-9.5,5.1-16.4,6.8
		c-5,0.6-8.9,3.8-9.4,7.8L15,30.3l-3,0.9c-1.8,0.6-7.7,2.9-6.9,8.8c0.4,3.3,1.8,5.1,4.4,8.5c4.5,5.4,8,11.7,10.1,18.4
		c0.9,2.7,3.1,4.7,6.7,6l2.7,1l0.1,1l-0.1,1.6h1.6l5.8,1.6l0.3,2l1.6-0.1c1.5-0.1,2.9-0.1,4.3-0.1c7.9,0,21,3.2,21.2,3.2l0.5,0.1
		l0.5-0.2c5.6-2.1,12.5-3.1,20.5-3.1c1.3,0,2.6,0,4.1,0.1h1.7l0.1-1.8l7.4-2.1l0.3-2.2l2.7-1c3.6-1.3,5.8-3.3,6.7-6
		c2.2-6.8,5.6-13,10.2-18.4c2.6-3.3,4-5.2,4.4-8.5C123.5,35.4,119.8,32.4,116,31.3z M87.8,75.6v0.9h-2.5c-8.2,0-15.3,1.1-21.2,3.2
		c-3-0.7-14.1-3.2-21.4-3.2c-0.9,0-1.9,0-2.9,0.1l-0.2-1.2l-1.1-0.3l-6-1.7l-0.3-2l-4.7-1.7c-2.5-0.9-4-2.2-4.6-3.8
		c-2.3-7.1-5.9-13.8-10.8-19.5c-2.4-3.1-3.4-4.4-3.7-6.8c-0.4-3.2,3-4.6,4.5-5.1l5.2-1.6l0.6-5.4c0.3-2.3,3-4.3,6.4-4.7h0.2
		c2.4-0.6,14-3.5,17.9-7.5c7.2-0.9,14.2-2.9,20.7-5.9c6.6,3,13.6,5,20.7,5.9c4.2,4.1,17.4,7.3,18.2,7.5c3.4,0.3,6.1,2.3,6.4,4.7
		l0.6,5.4l5.2,1.6c1.5,0.5,4.9,1.9,4.5,5.1c-0.3,2.4-1.3,3.7-3.7,6.8c-4.8,5.7-8.5,12.4-10.7,19.5c-0.5,1.6-2.1,2.9-4.6,3.8
		l-4.7,1.7l-0.3,2.1L87.8,75.6z"/>
	<path class="st1" d="M87.3,66H40.7v-3.3h46.5V66z M97.3,30.2c-1.4,0-2.5,1.1-2.5,2.5c0,0,0,0,0,0c0,0.3,0.1,0.6,0.2,0.9l-13.8,5.4
		v2.6c0,3.5-2.9,6.4-6.4,6.4c-3.5,0-6.4-2.9-6.4-6.4c0-1.4,0.5-2.8,1.4-4l3.9-4.9L65.6,23c1.1-0.9,1.2-2.4,0.3-3.5
		c-0.9-1.1-2.4-1.2-3.5-0.3c-1.1,0.9-1.2,2.4-0.3,3.5c0.1,0.1,0.2,0.2,0.3,0.3l-8.1,9.8l3.9,4.9c2.2,2.8,1.7,6.8-1,9
		c-2.8,2.2-6.8,1.7-9-1c-0.9-1.1-1.4-2.5-1.4-4v-2.6l-13.8-5.4c0.1-0.3,0.2-0.6,0.2-0.9c0-1.4-1.1-2.5-2.5-2.5s-2.5,1.1-2.5,2.5
		c0,1.4,1.1,2.5,2.5,2.5c0.3,0,0.7-0.1,1-0.2l10.6,24.3h43.2L96.2,35c0.3,0.1,0.7,0.2,1,0.2c1.4,0,2.5-1.1,2.5-2.5
		C99.7,31.3,98.6,30.2,97.3,30.2L97.3,30.2z M64,55.8l-3.7-5.8l3.7-5.8l3.7,5.8L64,55.8z M64,37.3l-3.7-4.7L64,28l3.7,4.7L64,37.3z
		 M45.4,55.8l-4.8-11.5l6.1,5.8L45.4,55.8z M81.4,50.1l6.1-5.8l-4.8,11.5L81.4,50.1z"/>
</g>
</svg>
