<?xml version="1.0" encoding="utf-8"?>
<!-- Generator: Adobe Illustrator 21.0.0, SVG Export Plug-In . SVG Version: 6.00 Build 0)  -->
<svg version="1.1" id="Слой_1" xmlns="http://www.w3.org/2000/svg" xmlns:xlink="http://www.w3.org/1999/xlink" x="0px" y="0px"
	 viewBox="0 0 101.3 118.6" style="enable-background:new 0 0 101.3 118.6;" xml:space="preserve">
<style type="text/css">
	.st0{fill:#27221E;}
	.st1{fill:#FFFFFF;}
	.st2{fill:#FFFFFF;stroke:#27221E;stroke-width:3;stroke-miterlimit:10;}
	.st3{fill:#8C3418;}
	.st4{fill:none;stroke:#8C3418;stroke-width:2;stroke-miterlimit:10;}
</style>
<g id="_11_-_Предоставляем_сертификаты">
	<path class="st0" d="M99.6,25.5c0.4-0.8,0.7-1.6,1-2.2c0.7-1.3,0.1-2.9-1.2-3.6c-0.3-0.2-0.7-0.3-1.1-0.3c-6.3-0.2-16.9-2-16.9-11
		H19.8c0,9-10.6,10.8-16.9,11c-1.5,0-2.7,1.3-2.6,2.7c0,0.4,0.1,0.8,0.3,1.1c0.3,0.7,0.7,1.4,1.1,2.2C4.4,31.7,0,55.7,0,75.5
		s10.4,29.1,27.3,28.1s23.3,15,23.3,15s6.3-16,23.3-15s27.3-8.3,27.3-28.1S96.9,31.7,99.6,25.5z"/>
	<path class="st1" d="M94.8,51.3l-0.1-0.5c-1-12.4-1.6-20.2-0.2-24.6l0.6-2L93,23.9c-2.4-0.3-4.7-0.8-7-1.7c-4.1-1.6-7-4.2-8.3-7.6
		l-0.4-1.1H24l-0.4,1.1c-1.9,5-7.3,8.3-15.3,9.3l-2.1,0.3l0.6,2c1.4,4.4,0.8,12.2-0.3,24.6c-0.7,7.7-1.4,16.3-1.4,24.3
		c0,15.8,7,23.8,20.7,23.8h1.2h0.8l1.7-0.1c7.7,0,15,3.5,19.8,9.4l1.3,1.5l1.3-1.6c4.8-6,12.1-9.5,19.8-9.4l1.7,0.1h0.8h1.2
		c6.6,0,11.7-1.9,15.2-5.6c3.7-4,5.5-10.1,5.5-18.1C96.1,67.4,95.4,58.8,94.8,51.3z M75.4,95.3c-0.3,0-0.9,0-1.6-0.1h-0.7h-1.4
		c-8-0.1-15.7,3.2-21.1,9.1c-5.4-5.9-13.1-9.2-21.1-9.2h-1.3h-0.8c-0.7,0-1.3,0.1-1.6,0.1C14.1,95.3,8.6,88.9,8.6,75.1
		c0-7.7,0.7-16.3,1.4-24c1-11.3,1.5-18.9,0.6-23.9c7.7-1.3,13.2-4.9,15.7-10.1H75c1.8,3.8,5.2,6.7,9.8,8.5c1.9,0.7,3.9,1.2,5.9,1.5
		c-0.9,5-0.4,12.6,0.6,23.9v0.3c0.7,7.1,1.4,16,1.4,23.9c0,7.1-1.5,12.4-4.6,15.8C85.3,93.8,81,95.3,75.4,95.3z"/>
	<rect x="17.5" y="1.5" class="st2" width="64.5" height="82.4"/>
	<rect x="38.1" y="14.9" class="st3" width="25.1" height="5.4"/>
	<rect x="29.1" y="27.5" class="st0" width="43" height="3.6"/>
	<rect x="29.1" y="34.7" class="st0" width="43" height="3.6"/>
	<rect x="29.1" y="41.8" class="st0" width="43" height="3.6"/>
	<rect x="29.1" y="49" class="st0" width="28.7" height="3.6"/>
	<rect x="29.1" y="65.1" class="st3" width="17.9" height="3.6"/>
	<circle class="st4" cx="65" cy="66.9" r="7.2"/>
</g>
</svg>
