<?xml version="1.0" encoding="utf-8"?>
<!-- Generator: Adobe Illustrator 21.0.0, SVG Export Plug-In . SVG Version: 6.00 Build 0)  -->
<svg version="1.1" id="Слой_1" xmlns="http://www.w3.org/2000/svg" xmlns:xlink="http://www.w3.org/1999/xlink" x="0px" y="0px"
	 viewBox="0 0 32 28.6" style="enable-background:new 0 0 32 28.6;" xml:space="preserve">
<style type="text/css">
	.st0{fill:none;stroke:#8C3418;stroke-width:3;stroke-miterlimit:10;}
	.st1{fill:none;stroke:#27221E;stroke-width:3;stroke-miterlimit:10;}
</style>
<g id="Лучшее">
	<g id="Малые_01-05_2">
		<g id="_05_-_Прикрепить_файл-2">
			<path class="st0" d="M29,3c2,2,2,5.4,0,7.4L14.5,24.9c-3,3-7.8,3-10.8,0l0,0c-3-3-3-7.8,0-10.8L14.8,3"/>
			<line class="st0" x1="29" y1="3" x2="29" y2="3"/>
			<path class="st1" d="M22.2,10.4l-9.1,9.1c-1.1,1.1-2.9,1.1-4,0l0,0c-1.1-1.1-1.1-2.9,0-4L21.6,3c2-2,5.4-2.1,7.4,0c0,0,0,0,0,0"
				/>
		</g>
	</g>
</g>
</svg>
