<?xml version="1.0" encoding="utf-8"?>
<!-- Generator: Adobe Illustrator 21.0.0, SVG Export Plug-In . SVG Version: 6.00 Build 0)  -->
<svg version="1.1" id="Слой_1" xmlns="http://www.w3.org/2000/svg" xmlns:xlink="http://www.w3.org/1999/xlink" x="0px" y="0px"
	 viewBox="0 0 58.2 44.3" style="enable-background:new 0 0 58.2 44.3;" xml:space="preserve">
<style type="text/css">
	.st0{fill:#27221E;}
	.st1{fill:#8C3418;}
	.st2{fill:#FFFFFF;}
</style>
<g id="Лучшее">
	<g id="Большие_06-17_2">
		<g id="_12-17-2">
			<g id="_15_-_Маркетплейсы-2">
				<path class="st0" d="M53.8,20.9c0-6.5-5.2-11.7-11.7-11.7c-4.7,0-9,2.8-10.8,7.2c-1.4-1.7-3.6-2.7-5.8-2.7H25
					C23.1,6.9,16,3,9.2,5s-10.7,9.1-8.7,15.9c1.3,4.5,5,8,9.7,8.9c-0.3,0.6-0.4,1.2-0.4,1.9c0,2.5,2,4.5,4.5,4.5c0,0,0,0,0,0
					c0.6,0,1.2-0.1,1.8-0.4c1.5,6,7.5,9.6,13.5,8.1c3.1-0.8,5.7-2.8,7.1-5.6c2.7,2.6,7,2.5,9.7-0.2c1.2-1.3,1.9-3,1.9-4.7
					c0-0.8-0.1-1.6-0.4-2.4C51.5,29,53.8,25.1,53.8,20.9z"/>
				<circle class="st1" cx="35.3" cy="12.6" r="12.6"/>
				<circle class="st1" cx="50.8" cy="30.4" r="7"/>
				<circle class="st1" cx="7.2" cy="28.6" r="6.5"/>
				<circle class="st1" cx="54.6" cy="6.1" r="3.6"/>
				<path class="st2" d="M12.5,32.7L7.8,15.4h3.1l3.6,13.3l3.9-13.3h2.9l3.9,13.4l3.6-13.4h3.1l-4.7,17.3h-3.6l-3.8-13l-3.8,13H12.5
					z"/>
				<path class="st2" d="M47.1,27.8c0,1.3-0.5,2.6-1.5,3.5c-1,0.9-2.4,1.5-3.8,1.4h-7.6V15.4h7c1.3,0,2.7,0.5,3.7,1.4
					c1,0.9,1.5,2.1,1.5,3.5c0,1.4-0.7,2.7-1.8,3.5C46.1,24.5,47.1,26,47.1,27.8z M37.2,18.1v4.6h4.1c1.3,0,2.3-1,2.3-2.3
					c0-1.3-1-2.3-2.3-2.3H37.2z M41.8,30.1c1.3,0,2.4-1.1,2.4-2.4c0-1.3-1.1-2.4-2.4-2.4h-4.6v4.9L41.8,30.1L41.8,30.1z"/>
			</g>
		</g>
	</g>
</g>
</svg>
