<?xml version="1.0" encoding="utf-8"?>
<!-- Generator: Adobe Illustrator 21.0.0, SVG Export Plug-In . SVG Version: 6.00 Build 0)  -->
<svg version="1.1" id="Слой_1" xmlns="http://www.w3.org/2000/svg" xmlns:xlink="http://www.w3.org/1999/xlink" x="0px" y="0px"
	 viewBox="0 0 61.9 13.6" style="enable-background:new 0 0 61.9 13.6;" xml:space="preserve">
<style type="text/css">
	.st0{fill:#8C3418;}
</style>
<g id="Лучшее">
	<g id="Большие_06-17_2">
		<g id="_12-17-2">
			<g id="_15_-_Маркетплейсы-2">
				<path class="st0" d="M7.5,0.1C3.8-0.3,0.4,2.4,0,6.1s2.3,7.1,6,7.5c3.7,0.4,7.1-2.3,7.5-6c0,0,0,0,0,0c0.1-0.5,0.1-0.9,0-1.4
					C13.2,2.9,10.7,0.4,7.5,0.1z M7.3,10.3c-2,0.3-3.8-1.1-4.1-3.1C3,5.3,4.4,3.5,6.3,3.2c2-0.3,3.8,1.1,4.1,3.1c0,0.3,0,0.7,0,1
					C10.2,8.9,8.9,10.1,7.3,10.3z M17.1,0.3c-0.9,0-1.6,0.7-1.6,1.6c0,0.1,0,0.2,0,0.3c0.2,0.7,0.8,1.3,1.6,1.3h4.4l-6.8,9
					c-0.1,0.2-0.1,0.5,0.1,0.6h0c0.1,0.1,0.2,0.1,0.3,0.1h10.8c0.8,0,1.4-0.5,1.6-1.3c0.2-0.8-0.4-1.7-1.2-1.9c-0.1,0-0.2,0-0.3,0
					h-5.4l6.8-9c0.1-0.2,0.1-0.5-0.1-0.6c0,0,0,0,0,0c-0.1-0.1-0.2-0.1-0.3-0.1L17.1,0.3z M60,0.3c-0.7,0.2-1.3,0.8-1.2,1.6v5.3
					l-8.5-6.8c-0.2-0.2-0.5-0.1-0.6,0.1c-0.1,0.1-0.1,0.2-0.1,0.3v10.9c0,0.7,0.5,1.4,1.2,1.6c0.9,0.2,1.7-0.4,1.9-1.2
					c0-0.1,0-0.2,0-0.3V6.4l8.5,6.8c0.2,0.2,0.5,0.1,0.6-0.1c0.1-0.1,0.1-0.2,0.1-0.3V1.9c0-0.9-0.7-1.6-1.6-1.6c0,0,0,0,0,0
					C60.2,0.3,60.1,0.3,60,0.3L60,0.3z M37.8,3.2c3.6,0,6.3,1.9,6.3,3.6s-2.7,3.6-6.3,3.6s-6.3-1.9-6.3-3.6S34.2,3.2,37.8,3.2
					 M37.8,0c-5.2,0-9.4,3-9.4,6.8s4.2,6.8,9.4,6.8s9.5-3,9.5-6.8S43,0,37.8,0z"/>
			</g>
		</g>
	</g>
</g>
</svg>
