<?xml version="1.0" encoding="utf-8"?>
<!-- Generator: Adobe Illustrator 21.0.0, SVG Export Plug-In . SVG Version: 6.00 Build 0)  -->
<svg version="1.1" id="Слой_1" xmlns="http://www.w3.org/2000/svg" xmlns:xlink="http://www.w3.org/1999/xlink" x="0px" y="0px"
	 viewBox="0 0 63.5 47.5" style="enable-background:new 0 0 63.5 47.5;" xml:space="preserve">
<style type="text/css">
	.st0{fill:#8C3418;}
	.st1{fill:#27221E;}
	.st2{fill:#FFFFFF;}
</style>
<g id="Лучшее">
	<g id="Большие_06-17_2">
		<g id="_12-17-2">
			<g id="_12_-_Работаем_с_физ._и_юр._лицами-2">
				<path class="st0" d="M23.5,26c0-3,2.5-5.5,5.5-5.5h11.5V3H52v17.5h3V0H0v30h23.5V26z M3,27V3h7.5v24H3z"/>
				<rect x="6.5" y="5.5" class="st1" width="17" height="3"/>
				<path class="st0" d="M29,22.5h31c1.9,0,3.5,1.6,3.5,3.5v18c0,1.9-1.6,3.5-3.5,3.5H29c-1.9,0-3.5-1.6-3.5-3.5V26
					C25.5,24.1,27.1,22.5,29,22.5z"/>
				<rect x="25.5" y="26.5" class="st1" width="38" height="6"/>
				<rect x="39.5" y="35.5" class="st2" width="14" height="4"/>
				<path class="st2" d="M31,35.5h3c1.4,0,2.5,1.1,2.5,2.5l0,0c0,1.4-1.1,2.5-2.5,2.5h-3c-1.4,0-2.5-1.1-2.5-2.5l0,0
					C28.5,36.6,29.6,35.5,31,35.5z"/>
			</g>
		</g>
	</g>
</g>
</svg>
