<?xml version="1.0" encoding="utf-8"?>
<!-- Generator: Adobe Illustrator 21.0.0, SVG Export Plug-In . SVG Version: 6.00 Build 0)  -->
<svg version="1.1" id="Слой_1" xmlns="http://www.w3.org/2000/svg" xmlns:xlink="http://www.w3.org/1999/xlink" x="0px" y="0px"
	 viewBox="0 0 112.4 100.4" style="enable-background:new 0 0 112.4 100.4;" xml:space="preserve">
<style type="text/css">
	.st0{fill:#27221E;}
	.st1{fill:#FFFFFF;}
</style>
<g id="_08_-_Производство_по_фотографии">
	<path class="st0" d="M112.4,50.2c0-2-0.9-3.9-2.4-5.2c2.3-11.2,2.7-27.4-7.1-33.7C92.2,4.3,79.8,8.6,78.2,8.6
		c-14.7,0-18.5-4.4-22-8.5V0l-0.1,0.1L56.1,0v0.2c-3.4,4-7.2,8.4-21.9,8.4c-1.5,0-14-4.3-24.7,2.7C-0.3,17.6,0.1,33.8,2.4,45
		c-2.9,2.4-3.3,6.7-0.8,9.6c0.3,0.3,0.5,0.6,0.8,0.8C0.1,66.6-0.3,82.7,9.5,89c10.7,7,23,2.8,24.7,2.8c14.7,0,18.5,4.4,21.9,8.4v0.2
		c0,0,0.1,0,0.1-0.1l0.1,0.1v-0.2c3.5-4.1,7.3-8.4,22-8.4c1.7,0,14,4.2,24.7-2.8c9.8-6.3,9.4-22.4,7.1-33.6
		C111.6,54.1,112.4,52.2,112.4,50.2z"/>
	<path class="st1" d="M104,53.1l3.6-2.9l-3.7-2.9l0.7-3.4c1-5.1,3.7-22-5-27.8c-3.6-2.3-7.9-3.5-12.2-3.4c-2.7,0-5.4,0.4-8.1,1
		c-0.7,0.1-1.3,0.3-2,0.3c-11.9,0-16.9-3-20.1-5.9l-1.1-1l-1.1,1c-3.3,2.9-8.2,6-20.1,6c-0.7-0.1-1.4-0.2-2.1-0.3
		c-2.6-0.6-5.3-1-8-1c-4.3-0.1-8.6,1.1-12.2,3.4c-8.7,5.8-6,22.8-5,27.8l0.7,3.5l-3.6,2.9l3.7,3l-0.7,3.4c-1,5-3.7,22,5,27.7
		c3.7,2.4,8,3.6,12.4,3.5c2.6,0,5.2-0.3,7.8-0.9c0.7-0.2,1.4-0.3,2.1-0.3c12,0,16.9,3,20.1,5.9l1.1,1l1.1-1
		c3.2-2.9,8.1-5.9,20.1-5.9c0.7,0,1.4,0.2,2.1,0.3c2.5,0.5,5.1,0.8,7.8,0.9c4.4,0.1,8.7-1.1,12.4-3.5c8.7-5.8,6-22.7,5-27.7
		L104,53.1z M11,57.3l1.2-5.6l-1.8-1.5l1.8-1.4l-1.1-5.7c-0.4-2-3.7-19.2,3.5-24c3.1-2,6.7-3,10.4-2.9c2.5,0,5,0.4,7.4,0.9
		c0.9,0.2,1.8,0.3,2.7,0.4c11.9,0,17.5-2.9,21.2-5.9c3.7,3,9.3,5.9,21.2,5.9c0.9-0.1,1.9-0.2,2.8-0.4c2.4-0.5,4.8-0.8,7.3-0.9
		c3.7-0.1,7.3,0.9,10.4,2.9c7.2,4.8,3.9,22.1,3.5,24l-1.1,5.7l1.8,1.5l-1.7,1.4l1.1,5.7c1.8,8.8,1.9,20.3-3.5,23.9
		c-3.1,2-6.8,3.1-10.6,3c-2.4,0-4.8-0.3-7.2-0.8c-0.9-0.2-1.8-0.3-2.7-0.4c-9.7,0-16.2,1.8-21.2,5.8C51.1,84.7,44.7,83,35,83
		c-1,0-1.9,0.2-2.8,0.4c-2.3,0.5-4.6,0.8-7,0.8c-3.8,0.1-7.5-1-10.6-3C9.2,77.6,9.3,66.1,11,57.3L11,57.3z"/>
	<path class="st1" d="M85.9,34.5c2,0,3.7,1.7,3.7,3.7v30.6c0,2-1.7,3.7-3.7,3.7H26.5c-2,0-3.7-1.7-3.7-3.7V38.3c0-2,1.7-3.7,3.7-3.7
		h14l1.9-6.5c0.5-1.7,2.1-2.9,3.9-2.9h19.8c1.8,0,3.4,1.2,3.9,2.9l1.9,6.5L85.9,34.5z M72.9,51.6c0-9.2-7.5-16.7-16.7-16.7
		s-16.7,7.5-16.7,16.7s7.5,16.7,16.7,16.7c0,0,0,0,0,0C65.4,68.3,72.9,60.8,72.9,51.6L72.9,51.6z M67.6,51.6
		c0,6.3-5.1,11.4-11.4,11.4S44.7,58,44.7,51.6s5.1-11.4,11.4-11.4c0,0,0,0,0.1,0C62.5,40.2,67.6,45.3,67.6,51.6L67.6,51.6z
		 M37.9,39.2H27.4v5.6h10.6V39.2z"/>
</g>
</svg>
