<?xml version="1.0" encoding="utf-8"?>
<!-- Generator: Adobe Illustrator 21.0.0, SVG Export Plug-In . SVG Version: 6.00 Build 0)  -->
<svg version="1.1" id="Слой_1" xmlns="http://www.w3.org/2000/svg" xmlns:xlink="http://www.w3.org/1999/xlink" x="0px" y="0px"
	 viewBox="0 0 47 64" style="enable-background:new 0 0 47 64;" xml:space="preserve">
<style type="text/css">
	.st0{fill:#8C3418;}
	.st1{fill:#27221E;}
</style>
<g id="Лучшее">
	<g id="Большие_06-17_2">
		<g id="_12-17-2">
			<g id="_16_-_Корпоротивные_подарки-2">
				<path class="st0" d="M7.5,55H41l0,0v3l0,0H7.5C6.7,58,6,57.3,6,56.5l0,0C6,55.7,6.7,55,7.5,55z"/>
				<path class="st1" d="M0,28.6V7.5C0,3.4,3.4,0,7.5,0h35C45,0,47,2,47,4.5V26H33.8c1.5-0.7,2.9-1.7,4.1-2.8c1.5-1.3,2.5-3,3-5
					c0.5-2.2-0.2-4.5-2-6c-1.7-1.2-3.9-1.5-5.8-0.7c-1.7,0.7-3.1,1.8-4.3,3.3c-1.6,2-2.9,4.3-3.8,6.8c-0.9-2.4-2.2-4.7-3.9-6.7
					c-1.1-1.4-2.6-2.6-4.3-3.3c-1.9-0.8-4.1-0.5-5.8,0.7c-1.8,1.5-2.5,3.8-2,6c0.5,1.9,1.5,3.7,3,5c1.2,1.1,2.6,2.1,4.1,2.8H6.5
					C4.1,26,1.8,26.9,0,28.6z M38,17.6c0.3-1.1-0.1-2.2-0.9-3c-0.5-0.3-1.1-0.5-1.7-0.5c-0.4,0-0.9,0.1-1.3,0.2
					c-1.2,0.5-2.2,1.3-3,2.3c-2.1,2.5-3.5,5.5-4.3,8.7c3.2-0.9,6.6-2.1,9-4.4C36.9,20.1,37.6,18.9,38,17.6L38,17.6z M15.8,14.4
					c-0.4-0.2-0.8-0.2-1.3-0.2c-0.6,0-1.2,0.2-1.6,0.5c-0.8,0.8-1.2,1.9-0.9,3c0.4,1.3,1.1,2.5,2.1,3.4c2.4,2.3,5.8,3.5,9,4.4
					c-0.8-3.2-2.2-6.2-4.3-8.7C18,15.7,17,14.9,15.8,14.4z M7.5,52h35c2.5,0,4.5-2,4.5-4.5V29H28.8c0.7,1.3,0.8,2.9,0.5,4.3
					c-0.5,1.4-1.2,2.7-2.2,3.8c-0.3,0.4-0.6,0.8-0.9,1.3c-0.5,0.8-1.3,2.4-0.5,3.7L23,43.7c-1.2-2-1-4.5,0.6-6.9
					c0.3-0.5,0.7-1,1-1.4c0.7-0.8,1.3-1.8,1.7-2.9c0.2-1,0-2.1-0.7-2.9c-0.7,0.7-1.4,1.3-2.3,1.7c-1,0.5-2,1-3,1.5s-2,0.9-2.9,1.4
					c-1.6,0.8-3,2-3.9,3.5c-0.7,1.4-0.4,3.1,0.7,4.2L12,44c-1.8-2.1-2.2-5-1-7.5c1.1-2.1,2.9-3.8,5.1-4.9c1-0.6,2.1-1.1,3.1-1.5
					c0.8-0.4,1.5-0.7,2.2-1.1H6.5C2.9,29,0,31.9,0,35.5v21C0,60.6,3.4,64,7.5,64l0,0h35c2.5,0,4.5-2,4.5-4.5v-5.9l-3,1v5
					c0,0.8-0.7,1.4-1.5,1.4h-35C5,61,3,59,3,56.5S5,52,7.5,52z"/>
			</g>
		</g>
	</g>
</g>
</svg>
