<?xml version="1.0" encoding="utf-8"?>
<!-- Generator: Adobe Illustrator 21.0.0, SVG Export Plug-In . SVG Version: 6.00 Build 0)  -->
<svg version="1.1" id="_06_-_Собственное_производство"
	 xmlns="http://www.w3.org/2000/svg" xmlns:xlink="http://www.w3.org/1999/xlink" x="0px" y="0px" viewBox="0 0 106.3 124.2"
	 style="enable-background:new 0 0 106.3 124.2;" xml:space="preserve">
<style type="text/css">
	.st0{fill:#27221E;}
	.st1{fill:#FFFFFF;}
</style>
<path class="st0" d="M63.8,0C70.7,10.2,82.3,13.8,98,11.6l8.3,13.2c-16.1,21-17.3,48.2,0,68.4l-4.1,14.4c-19.6-1.9-39.2,2.5-49,16.5
	c-9.8-14.1-29.5-18.5-49-16.5L0,93.2C17.3,73,16.1,45.8,0,24.8l8.3-13.2C24,13.8,35.6,10.2,42.5,0L63.8,0z"/>
<path class="st1" d="M53.2,116.2l-0.6-0.6c-0.8-0.8-1.7-1.5-2.5-2.2l1.1-1.3c0.7,0.6,1.4,1.2,2,1.8c0.7-0.6,1.3-1.2,2-1.8l1.1,1.3
	c-0.9,0.7-1.7,1.4-2.5,2.2L53.2,116.2z"/>
<path class="st1" d="M47.6,111.5c-1.7-1.2-3.5-2.2-5.3-3.2l0.8-1.5c1.9,1,3.8,2.1,5.5,3.3L47.6,111.5z M39.4,107.1
	c-1.9-0.8-3.9-1.5-5.8-2.1l0.5-1.6c2,0.6,4,1.3,6,2.2L39.4,107.1z M30.6,104.1c-2-0.5-4-0.9-6.1-1.2l0.3-1.7
	c2.1,0.3,4.3,0.7,6.3,1.2L30.6,104.1z M21.4,102.5c-2-0.2-4.1-0.3-6.2-0.4v-1.7c2.2,0.1,4.3,0.2,6.4,0.4L21.4,102.5z"/>
<path class="st1" d="M7.9,102.2l-1.1-4l1.6-0.5l0.8,2.7c0.9,0,1.9,0,2.8-0.1v1.8c-1.1,0-2.3,0-3.4,0.1H7.9z"/>
<path class="st1" d="M6.8,98.1l-1.1-3.7L6,94c0.7-0.9,1.4-1.8,2-2.7l1.4,1c-0.6,0.8-1.2,1.7-1.8,2.5l0.8,2.9L6.8,98.1z"/>
<path class="st1" d="M11.3,89.2l-1.5-0.9c1.2-2,2.3-4.1,3.2-6.3l1.6,0.7C13.6,84.9,12.5,87.1,11.3,89.2z M15.9,79.3l-1.6-0.6
	c0.8-2.2,1.4-4.5,2-6.8l1.7,0.4C17.4,74.7,16.8,77,15.9,79.3z M18.6,68.8l-1.7-0.3c0.4-2.3,0.6-4.7,0.6-7h1.7
	C19.2,63.9,19,66.4,18.6,68.8z M17.6,58c-0.1-2.3-0.3-4.7-0.7-7l1.7-0.3c0.4,2.4,0.6,4.8,0.7,7.2L17.6,58z M16.3,47.5
	c-0.5-2.3-1.1-4.6-1.9-6.8l1.6-0.6c0.8,2.3,1.4,4.6,2,7L16.3,47.5z M13.1,37.3c-0.9-2.2-1.9-4.3-3-6.4l1.5-0.8
	c1.1,2.1,2.2,4.3,3.1,6.6L13.1,37.3z"/>
<path class="st1" d="M8.4,27.9c-0.6-1-1.2-1.9-1.8-2.9l-0.3-0.5l2.1-3.4l1.5,0.9l-1.5,2.5c0.5,0.8,1.1,1.6,1.6,2.5L8.4,27.9z"/>
<path class="st1" d="M10.2,21.3l-1.5-0.9l2.1-3.3l0.5,0c1.1,0.1,2.3,0.2,3.4,0.2l-0.1,1.7c-1,0-2-0.1-3-0.2L10.2,21.3z"/>
<path class="st1" d="M17.9,19.1v-1.7c2,0,4-0.2,6-0.5l0.3,1.7C22,18.9,20,19,17.9,19.1z M27.2,18l-0.4-1.7c2-0.4,3.9-1,5.7-1.8
	l0.7,1.5C31.3,16.9,29.3,17.5,27.2,18L27.2,18z M36.2,14.8l-0.8-1.5c1.8-0.9,3.4-2,5-3.3l1.1,1.3C39.8,12.6,38,13.8,36.2,14.8z"/>
<path class="st1" d="M43.8,9.2l-1.2-1.2c0.8-0.8,1.5-1.6,2.3-2.5l0.3-0.3h3.8v1.7h-3C45.2,7.7,44.5,8.4,43.8,9.2z"/>
<rect x="51" y="5.2" class="st1" width="4.2" height="1.7"/>
<path class="st1" d="M62.5,9.2c-0.7-0.7-1.4-1.5-2.1-2.3h-3V5.2h3.8l0.3,0.3c0.7,0.9,1.5,1.7,2.3,2.5L62.5,9.2z"/>
<path class="st1" d="M88.4,19.1c-2.1-0.1-4.2-0.2-6.3-0.6l0.3-1.7c2,0.3,4,0.5,6,0.5L88.4,19.1z M79.1,18c-2-0.5-4.1-1.1-6-1.9
	l0.7-1.6c1.9,0.8,3.8,1.4,5.7,1.8L79.1,18z M70.2,14.7c-1.9-1-3.6-2.1-5.3-3.5l1.1-1.3c1.6,1.3,3.2,2.4,5,3.3L70.2,14.7z"/>
<path class="st1" d="M96.1,21.3l-1.6-2.5c-1,0.1-2,0.1-3,0.2l-0.1-1.7c1.1,0,2.2-0.1,3.4-0.2l0.5,0l2.1,3.4L96.1,21.3z"/>
<path class="st1" d="M97.9,27.9L96.5,27c0.5-0.8,1-1.6,1.6-2.5l-1.5-2.4l1.5-0.9l2.1,3.4L99.8,25C99.2,25.9,98.5,26.9,97.9,27.9z"/>
<path class="st1" d="M95,89.2c-1.2-2.1-2.3-4.3-3.3-6.5l1.6-0.7c0.9,2.2,2,4.3,3.2,6.3L95,89.2z M90.4,79.3c-0.8-2.3-1.5-4.6-2-7
	l1.7-0.4c0.5,2.3,1.2,4.6,2,6.8L90.4,79.3z M87.7,68.8c-0.4-2.4-0.6-4.8-0.7-7.2l1.7,0c0.1,2.3,0.3,4.7,0.6,7L87.7,68.8z M88.7,57.9
	L87,57.9c0.1-2.4,0.3-4.8,0.7-7.2l1.7,0.3C89,53.2,88.8,55.6,88.7,57.9z M90.1,47.4l-1.7-0.4c0.5-2.4,1.2-4.7,2-7l1.6,0.5
	C91.2,42.9,90.6,45.1,90.1,47.4z M93.2,37.3l-1.6-0.6c0.9-2.3,2-4.5,3.1-6.6l1.5,0.8C95.1,33,94,35.1,93.2,37.3z"/>
<path class="st1" d="M99.5,98.1l-1.7-0.5l0.8-2.9c-0.6-0.8-1.2-1.6-1.8-2.5l1.4-1c0.6,0.9,1.3,1.8,2,2.7l0.3,0.3L99.5,98.1z"/>
<path class="st1" d="M98.4,102.2h-0.7c-1.2,0-2.3-0.1-3.4-0.1v-1.7c0.9,0,1.9,0,2.8,0.1l0.8-2.7l1.7,0.5L98.4,102.2z"/>
<path class="st1" d="M58.8,111.5l-1-1.4c1.8-1.2,3.6-2.3,5.5-3.3l0.8,1.5C62.2,109.3,60.4,110.3,58.8,111.5z M66.9,107.1l-0.7-1.6
	c2-0.8,4-1.6,6-2.2l0.5,1.7C70.7,105.6,68.8,106.3,66.9,107.1z M75.7,104.1l-0.4-1.7c2-0.5,4.1-0.9,6.3-1.2l0.3,1.7
	C79.7,103.2,77.7,103.6,75.7,104.1z M84.9,102.5l-0.2-1.7c2.1-0.2,4.2-0.4,6.4-0.4l0,1.7C89,102.1,87,102.3,84.9,102.5L84.9,102.5z"
	/>
<path class="st1" d="M78.2,33.3v15.8c0,1.1-0.9,2.1-2.1,2.1c-1.1,0-2.1-0.9-2.1-2.1V33.3c0-1.1,0.9-2.1,2.1-2.1
	C77.2,31.2,78.2,32.1,78.2,33.3z M71.3,52.3c0-4.1,1-8.6,0.1-12.6c-0.8-3.4-3.5-5.9-6.9-6.7v-7.6h-1.8v7.6c-4.6,0.3-9,1.9-13.5,2.7
	c-4.3,0.8-8.9,0.7-12.7-1.5v-2.5h-5.4v21.5h1.9v7.8h1.8v-7.8h1.8v-4c2.9-0.5,5.4-2,8-3.1c3-1.3,6.3-2.5,9.4-1.7
	c3.6,0.9,6.1,4,6.2,7.7c0,4-3,7.4-3.8,11.2H28.1v11.5h50V63.3h-5.3C71.8,59.8,71.2,56.1,71.3,52.3z"/>
<path class="st1" d="M76.2,88.3H64.5c-5.5,0-22-0.1-37.7-2.7c12.5-1.8,25.1-2.7,37.7-2.7h11.6c1.5,0,2.7,1.2,2.7,2.7l0,0
	C78.9,87.1,77.6,88.3,76.2,88.3z M75.9,86.2v-1.1c0-0.4-0.3-0.7-0.7-0.7l0,0h-5.8c-0.4,0-0.7,0.3-0.7,0.7v1c0,0.4,0.3,0.7,0.7,0.7
	l0,0h5.8C75.5,86.8,75.8,86.5,75.9,86.2L75.9,86.2z"/>
</svg>
