<?xml version="1.0" encoding="utf-8"?>
<!-- Generator: Adobe Illustrator 21.0.0, SVG Export Plug-In . SVG Version: 6.00 Build 0)  -->
<svg version="1.1" id="Слой_1" xmlns="http://www.w3.org/2000/svg" xmlns:xlink="http://www.w3.org/1999/xlink" x="0px" y="0px"
	 viewBox="0 0 41.2 63.9" style="enable-background:new 0 0 41.2 63.9;" xml:space="preserve">
<style type="text/css">
	.st0{fill:#27221E;}
	.st1{fill:#8C3418;}
	.st2{fill:#FFFFFF;}
</style>
<g id="Лучшее">
	<g id="Большие_06-17_2">
		<g id="_12-17-2">
			<g id="_13_-_Гибкая_система_оплаты-2">
				<path class="st0" d="M29.8,13l-3-0.4l0.2-1.5c0.3-2.9,0.1-5.9-0.7-8.8L26,0.9l2.9-0.7l0.3,1.5c0.8,3.2,1.1,6.6,0.7,9.9L29.8,13z
					"/>
				<path class="st1" d="M33.4,63.9L0,57.9l7.8-43.7l11-7.7l14.7,2.6l7.7,11L33.4,63.9z M24.9,14.7c-2.7-0.5-5.3,1.3-5.8,4
					c-0.5,2.7,1.3,5.3,4,5.8s5.3-1.3,5.8-4c0,0,0,0,0,0C29.4,17.8,27.6,15.2,24.9,14.7z"/>
				<path class="st0" d="M30.9,20.9c-0.7,3.8-4.3,6.4-8.1,5.7s-6.4-4.3-5.7-8.1s4.3-6.4,8.1-5.7c0,0,0,0,0,0
					C29.1,13.5,31.6,17.1,30.9,20.9z M24.6,16.7c-1.6-0.3-3.2,0.8-3.5,2.4s0.8,3.2,2.4,3.5s3.2-0.8,3.5-2.4c0,0,0,0,0,0
					C27.3,18.5,26.2,17,24.6,16.7z"/>
				<path class="st0" d="M25.3,21l-1.7-2.5l1.2-0.9C30.2,13.9,33.9,8,35,1.5L35.3,0l3,0.5L38,2c-1.2,7.4-5.3,13.9-11.4,18.2L25.3,21
					z"/>
				<path class="st2" d="M28.9,36.4c-1.4-1.6-3.3-2.6-5.4-2.9L15.3,32l-1.9,10.5L10.1,42l-0.5,3l3.3,0.6l-0.4,1.9l-3.3-0.6l-0.5,3
					l3.3,0.6l-0.5,3l3.7,0.7l0.5-3l8.8,1.6l0.5-3l-8.8-1.6l0.3-1.9L21,47c2.1,0.5,4.2,0.2,6.1-0.7c1.7-1,2.8-2.7,3-4.6
					C30.6,39.9,30.1,37.9,28.9,36.4z M26.4,41.1c-0.1,1-0.7,2-1.5,2.5c-1,0.5-2.1,0.7-3.2,0.4l-4.5-0.8l1.3-7.5l4.6,0.8
					c1.1,0.2,2.1,0.7,2.7,1.6C26.4,39,26.6,40.1,26.4,41.1z"/>
			</g>
		</g>
	</g>
</g>
</svg>
