<svg xmlns="http://www.w3.org/2000/svg" viewBox="0 0 64 64"><defs><style>.cls-1,.cls-3{fill:#8c3418;}.cls-1,.cls-2{fill-rule:evenodd;}.cls-2{fill:#27221e;}.cls-4{fill:#fff;}</style></defs><g id="Лучшее"><g id="Большие_06-17_2" data-name="Большие (06-17)"><g id="_12-17-2" data-name="12-17"><g id="_15_-_Маркетплейсы-2" data-name="15 - Маркетплейсы"><path class="cls-1" d="M8.6,49a6.77,6.77,0,1,0,6,7.44,6.55,6.55,0,0,0,0-1.4A6.75,6.75,0,0,0,8.6,49ZM8.38,59.28a3.61,3.61,0,1,1,3.1-4.06,3.78,3.78,0,0,1,0,1A3.61,3.61,0,0,1,8.38,59.28Zm9.86-10.05a1.59,1.59,0,0,0-1.57,1.59,1.73,1.73,0,0,0,0,.32,1.62,1.62,0,0,0,1.6,1.25h4.4l-6.84,9a.45.45,0,0,0,.09.63.49.49,0,0,0,.27.1H26.94a1.6,1.6,0,0,0,1.6-1.26A1.58,1.58,0,0,0,27.32,59,1.66,1.66,0,0,0,27,59H21.65l6.83-9a.45.45,0,0,0-.09-.63.43.43,0,0,0-.27-.1Zm42.87,0a1.6,1.6,0,0,0-1.24,1.59v5.25l-8.52-6.78a.45.45,0,0,0-.63.08.42.42,0,0,0-.1.28V60.55a1.6,1.6,0,0,0,1.23,1.58,1.58,1.58,0,0,0,1.88-1.2,1.32,1.32,0,0,0,0-.34v-5.3l8.52,6.78a.45.45,0,0,0,.63-.08.42.42,0,0,0,.1-.28V50.81a1.57,1.57,0,0,0-1.57-1.58,1.86,1.86,0,0,0-.34,0ZM38.92,52.09c3.61,0,6.3,1.9,6.3,3.61s-2.69,3.61-6.3,3.61-6.29-1.91-6.29-3.61,2.69-3.61,6.29-3.61m0-3.16c-5.21,0-9.44,3-9.44,6.77s4.23,6.76,9.44,6.76,9.45-3,9.45-6.76S44.14,48.93,38.92,48.93Z"/><path class="cls-2" d="M57.28,22.66a11.7,11.7,0,0,0-22.49-4.52A7.55,7.55,0,0,0,29,15.46l-.52,0A12.78,12.78,0,1,0,13.61,31.57a4.41,4.41,0,0,0-.43,1.89,4.49,4.49,0,0,0,4.5,4.5,4.43,4.43,0,0,0,1.78-.37,11.15,11.15,0,0,0,20.65,2.59A6.84,6.84,0,0,0,51.7,35.26a6.93,6.93,0,0,0-.43-2.38A11.69,11.69,0,0,0,57.28,22.66Z"/><circle class="cls-3" cx="38.74" cy="14.38" r="12.6"/><circle class="cls-3" cx="54.22" cy="32.2" r="7.02"/><circle class="cls-3" cx="10.66" cy="30.4" r="6.48"/><circle class="cls-3" cx="58" cy="7.9" r="3.6"/><path class="cls-4" d="M15.91,34.5,11.2,17.15h3.09l3.62,13.33,3.87-13.33h2.88l3.89,13.4,3.63-13.39h3.09L30.56,34.5H27l-3.76-13-3.76,13Z"/><path class="cls-4" d="M50.5,29.54A4.59,4.59,0,0,1,49,33.08a5.34,5.34,0,0,1-3.75,1.42H37.69V17.16h7a5.26,5.26,0,0,1,3.65,1.38A4.43,4.43,0,0,1,49.81,22,4.15,4.15,0,0,1,48,25.5,4.42,4.42,0,0,1,50.5,29.54Zm-9.91-9.7V24.4h4.09a2.28,2.28,0,0,0,0-4.56Zm4.64,12a2.42,2.42,0,0,0,0-4.84H40.59v4.86h4.64Z"/></g></g></g></g></svg>