<svg xmlns="http://www.w3.org/2000/svg" viewBox="0 0 64 64"><defs><style>.cls-1{fill:#fff;}.cls-2{fill:#27221e;}.cls-3{fill:#8c3418;}</style></defs><g id="Лучшее"><g id="Большие_06-17_2" data-name="Большие (06-17)"><g id="_12-17-2" data-name="12-17"><g id="_14_-_Дропшипинг-2" data-name="14 - Дропшипинг"><polygon class="cls-1" points="32 1.79 15.24 11.46 15.24 30.82 32 40.5 48.76 30.82 48.76 11.46 32 1.79"/><path class="cls-2" d="M32,.06,13.74,10.6V31.69L32,42.23,50.26,31.69V10.6ZM45.76,11.47,41,14.2,27.26,6.26,32,3.52ZM32,19.41,18.24,11.47l6-3.48,13.76,8ZM33.5,37.9V22l6-3.48v4.59l3-2V16.8l4.74-2.74V30Z"/><path class="cls-3" d="M11.22,35.64A3.57,3.57,0,0,0,9,35.2H9a3.55,3.55,0,0,0-3.09,3,3.72,3.72,0,0,0,1.56,3.51l9.24,6.72-1.18,1.62L6.29,43.34a5.71,5.71,0,0,1-2.4-5.07A5.56,5.56,0,0,1,9,33.19V27.63A13.86,13.86,0,0,0,4.33,17.25,2.59,2.59,0,0,0,0,19.16v24.6a5.5,5.5,0,0,0,2.11,4.33L15,58.22v4.4c4.09,1.91,10.3,1.44,15-.62V49.62a5.43,5.43,0,0,0-2.72-4.7Z"/><path class="cls-3" d="M52.78,35.64A3.57,3.57,0,0,1,55,35.2h0a3.55,3.55,0,0,1,3.09,3,3.72,3.72,0,0,1-1.56,3.51l-9.24,6.72,1.18,1.62,9.24-6.72a5.71,5.71,0,0,0,2.4-5.07A5.56,5.56,0,0,0,55,33.19V27.63a13.86,13.86,0,0,1,4.67-10.38A2.59,2.59,0,0,1,64,19.16v24.6a5.5,5.5,0,0,1-2.11,4.33L49,58.22v4.4c-4.09,1.91-10.3,1.44-15-.62V49.62a5.43,5.43,0,0,1,2.72-4.7Z"/></g></g></g></g></svg>