<svg id="_06_-_Собственное_производство" data-name="06 - Собственное производство" xmlns="http://www.w3.org/2000/svg" viewBox="0 0 128 128"><defs><style>.cls-1{fill:#27221e;}.cls-2{fill:#fff;}</style></defs><path class="cls-1" d="M74.67,1.91c6.89,10.18,18.49,13.76,34.23,11.55l8.25,13.2c-16.08,21-17.32,48.24,0,68.45L113,109.55c-19.57-1.92-39.18,2.47-49,16.54C54.15,112,34.54,107.63,15,109.55L10.85,95.11c17.32-20.21,16.08-47.42,0-68.45l8.25-13.2c15.74,2.21,27.34-1.37,34.23-11.55Z"/><path class="cls-2" d="M64,118.08l-.59-.57c-.81-.77-1.65-1.52-2.52-2.22L62,114c.69.57,1.37,1.16,2,1.76.66-.6,1.34-1.19,2-1.76l1.08,1.34c-.87.7-1.71,1.45-2.52,2.22Z"/><path class="cls-2" d="M58.42,113.44a45.26,45.26,0,0,0-5.32-3.17l.77-1.53A47.94,47.94,0,0,1,59.4,112ZM50.29,109a56.66,56.66,0,0,0-5.84-2.12l.5-1.64a53.59,53.59,0,0,1,6,2.19ZM41.45,106c-2-.48-4-.89-6.12-1.2l.26-1.7c2.14.32,4.25.74,6.27,1.23Zm-9.21-1.6c-2-.21-4.11-.35-6.23-.41l0-1.72c2.16.07,4.31.21,6.36.43Z"/><path class="cls-2" d="M18.78,104.09l-1.13-4,1.65-.47.76,2.65c.93,0,1.87,0,2.79-.06V104c-1.12,0-2.26,0-3.41.09Z"/><path class="cls-2" d="M17.61,100l-1.06-3.72.26-.35c.69-.9,1.35-1.81,2-2.74l1.42,1c-.56.84-1.16,1.67-1.77,2.48l.82,2.89Z"/><path class="cls-2" d="M22.16,91.09l-1.48-.87a55.5,55.5,0,0,0,3.2-6.29l1.58.68A59.8,59.8,0,0,1,22.16,91.09Zm4.64-9.86-1.62-.58a54.56,54.56,0,0,0,1.95-6.77l1.68.37A58,58,0,0,1,26.8,81.23Zm2.68-10.56-1.69-.26a58.88,58.88,0,0,0,.64-7l1.71,0A56.47,56.47,0,0,1,29.48,70.67ZM28.42,59.86a57.82,57.82,0,0,0-.67-7l1.7-.26a60.94,60.94,0,0,1,.68,7.23Zm-1.31-10.5a62,62,0,0,0-1.9-6.8L26.84,42a65.69,65.69,0,0,1,1.95,7ZM24,39.25a65.08,65.08,0,0,0-3-6.4L22.49,32a65.2,65.2,0,0,1,3.08,6.57Z"/><path class="cls-2" d="M19.21,29.76c-.58-1-1.2-1.91-1.83-2.86l-.32-.46,2.12-3.39,1.46.91-1.53,2.45c.54.81,1.07,1.63,1.57,2.46Z"/><path class="cls-2" d="M21.09,23.23l-1.45-.91L21.74,19l.52.05c1.15.09,2.28.16,3.39.2l-.06,1.72c-1,0-1.95-.09-2.95-.17Z"/><path class="cls-2" d="M28.72,21l0-1.72a48.41,48.41,0,0,0,6-.49l.25,1.7A51.83,51.83,0,0,1,28.72,21Zm9.34-1.08-.37-1.68a35.57,35.57,0,0,0,5.74-1.79L44.08,18A38.44,38.44,0,0,1,38.06,19.87ZM47,16.66l-.79-1.53a29.93,29.93,0,0,0,5-3.28l1.08,1.34A32.38,32.38,0,0,1,47,16.66Z"/><path class="cls-2" d="M54.62,11.07l-1.2-1.23a29.45,29.45,0,0,0,2.25-2.46l.26-.31h3.84V8.79h-3C56.06,9.59,55.35,10.35,54.62,11.07Z"/><rect class="cls-2" x="61.89" y="7.07" width="4.23" height="1.72"/><path class="cls-2" d="M73.38,11.07c-.73-.72-1.44-1.48-2.12-2.28h-3V7.07h3.84l.26.31a31.27,31.27,0,0,0,2.25,2.47Z"/><path class="cls-2" d="M99.25,21A49.84,49.84,0,0,1,93,20.43l.26-1.7a48.06,48.06,0,0,0,6,.5Zm-9.34-1.09a37.35,37.35,0,0,1-6-1.88l.66-1.59a35.57,35.57,0,0,0,5.74,1.79ZM81,16.65a32.38,32.38,0,0,1-5.29-3.47l1.08-1.34a29.72,29.72,0,0,0,5,3.28Z"/><path class="cls-2" d="M106.91,23.23l-1.55-2.47c-1,.08-2,.14-3,.17l-.06-1.72c1.11,0,2.24-.11,3.39-.2l.52-.05,2.1,3.36Z"/><path class="cls-2" d="M108.79,29.76l-1.47-.89c.5-.83,1-1.65,1.57-2.46L107.36,24l1.46-.91,2.12,3.39-.32.46C110,27.85,109.37,28.8,108.79,29.76Z"/><path class="cls-2" d="M105.83,91.08a58,58,0,0,1-3.29-6.48l1.57-.68a57.06,57.06,0,0,0,3.2,6.28Zm-4.63-9.86a58,58,0,0,1-2-7l1.67-.37a56.38,56.38,0,0,0,2,6.77ZM98.51,70.66a58.13,58.13,0,0,1-.65-7.24l1.71-.05a58.67,58.67,0,0,0,.64,7Zm1.07-10.81-1.71-.06a60.74,60.74,0,0,1,.68-7.23l1.7.26A59.49,59.49,0,0,0,99.58,59.85Zm1.32-10.5L99.22,49a60.57,60.57,0,0,1,2-7l1.62.55A61.52,61.52,0,0,0,100.9,49.35ZM104,39.23l-1.6-.64A67.56,67.56,0,0,1,105.52,32l1.51.81A65.08,65.08,0,0,0,104,39.23Z"/><path class="cls-2" d="M110.39,100l-1.65-.48.82-2.89c-.61-.81-1.21-1.64-1.77-2.48l1.42-1c.63.93,1.29,1.84,2,2.74l.26.35Z"/><path class="cls-2" d="M109.22,104.09l-.67,0c-1.15,0-2.29-.08-3.41-.09v-1.72c.92,0,1.86,0,2.79.06l.76-2.65,1.65.47Z"/><path class="cls-2" d="M69.6,113.43l-1-1.42a48.38,48.38,0,0,1,5.52-3.28l.78,1.53A44.2,44.2,0,0,0,69.6,113.43ZM77.73,109l-.68-1.58a56.41,56.41,0,0,1,6-2.19l.5,1.65A53.08,53.08,0,0,0,77.73,109ZM86.57,106l-.41-1.67c2-.5,4.13-.92,6.27-1.23l.25,1.7C90.59,105.12,88.54,105.52,86.57,106Zm9.21-1.6-.18-1.71c2.06-.21,4.2-.36,6.36-.42L102,104C99.89,104.06,97.8,104.2,95.78,104.41Z"/><path class="cls-2" d="M89,35.19V51a2.06,2.06,0,0,1-4.12,0V35.19a2.06,2.06,0,0,1,4.12,0ZM82.2,54.25c0-4.06,1-8.64.07-12.6A9,9,0,0,0,75.36,35V27.39H73.59V35c-4.56.35-9,1.91-13.52,2.71-4.28.76-8.89.73-12.72-1.46V33.72H41.9V55.23h1.85V63h1.76v-7.8h1.84v-4c2.87-.55,5.37-1.95,8-3.13,3-1.35,6.26-2.46,9.42-1.73A8.21,8.21,0,0,1,71,54c0,4.05-3,7.42-3.8,11.2H39V76.73H89V65.24H83.73A33.4,33.4,0,0,1,82.2,54.25Z"/><path class="cls-2" d="M87,90.26H75.37c-5.49,0-22-.13-37.66-2.71a263.67,263.67,0,0,1,37.66-2.71H87a2.71,2.71,0,0,1,2.71,2.71h0A2.71,2.71,0,0,1,87,90.26Zm-.27-2.19V87a.72.72,0,0,0-.72-.72H80.18a.73.73,0,0,0-.72.72v1a.72.72,0,0,0,.72.72H86A.72.72,0,0,0,86.68,88.07Z"/></svg>