<?xml version="1.0" encoding="utf-8"?>
<!-- Generator: Adobe Illustrator 21.0.0, SVG Export Plug-In . SVG Version: 6.00 Build 0)  -->
<svg version="1.1" id="Слой_1" xmlns="http://www.w3.org/2000/svg" xmlns:xlink="http://www.w3.org/1999/xlink" x="0px" y="0px"
	 viewBox="0 0 118.3 115.5" style="enable-background:new 0 0 118.3 115.5;" xml:space="preserve">
<style type="text/css">
	.st0{fill:#8C3418;}
	.st1{fill:#27221E;}
	.st2{fill:#FFFFFF;}
</style>
<g id="_07_-_Упаковка_и_маркировка">
	<rect x="50.4" class="st0" width="17.5" height="26"/>
	<polygon class="st0" points="59.1,41.4 34.9,17.2 83.4,17.2 	"/>
	<polygon class="st0" points="104.6,69.5 104.6,110.4 59.1,110.4 59.1,47.1 11.2,47.1 8.6,56.6 8.6,115.5 109.7,115.5 109.7,69.5 	
		"/>
	<polygon class="st1" points="0,66.1 48,66.1 59.1,47.1 11.2,47.1 	"/>
	<polygon class="st1" points="118.3,66.1 70.3,66.1 59.1,47.1 107.1,47.1 	"/>
	<rect x="28.4" y="90.2" class="st2" width="21.6" height="15.9"/>
	<polygon class="st1" points="40.9,96.3 40.9,93.3 31.3,93.3 31.3,99.4 47.1,99.4 47.1,96.3 	"/>
</g>
</svg>
