<?xml version="1.0" encoding="utf-8"?>
<!-- Generator: Adobe Illustrator 21.0.0, SVG Export Plug-In . SVG Version: 6.00 Build 0)  -->
<svg version="1.1" id="Слой_1" xmlns="http://www.w3.org/2000/svg" xmlns:xlink="http://www.w3.org/1999/xlink" x="0px" y="0px"
	 viewBox="0 0 98.2 124.6" style="enable-background:new 0 0 98.2 124.6;" xml:space="preserve">
<style type="text/css">
	.st0{fill:#FFFFFF;}
	.st1{fill:#8C3418;}
	.st2{fill:#27221E;}
</style>
<g id="_09_-_В_наличии_и_под_заказ">
	<polygon class="st0" points="76.5,7.8 30.4,2.8 3.1,40.2 21.7,82.6 67.8,87.6 95.2,50.2 	"/>
	<path class="st1" d="M74.1,74.5l5.7,1.2l18.4-25.1L78.3,5.3L29.2,0L0,39.9L19.9,85L69,90.4l7-9.6l-5.7-1.2l-3.8,5.2l-40-4.3
		L50.3,48L67,49.8l-7.2,9.8L70.5,60l6.7-9.1l13.1,1.4L74.1,74.5z M90.9,47l-13.2-1.4L61.5,8.9l13.2,1.4L90.9,47z M34.7,5.9l16.6,1.8
		l16.2,36.8l-16.7-1.8L34.7,5.9z"/>
	<polygon class="st0" points="55.6,77 40.1,94.8 47.8,117.2 71,121.7 86.5,103.8 78.8,81.5 	"/>
	<path class="st2" d="M89.5,104.4l-8.7-25.3l-26.2-5.1L37.1,94.3l8.7,25.3l26.2,5.1L89.5,104.4z M83.5,103.3L72,116.5l-5.7-16.5
		l4.3-5l1.5,4.5l3.8-5.1l-1.4-4l3.1-3.6L83.5,103.3z M62.3,96.4l-17.2-3.3l4.3-5l17.2,3.4L62.3,96.4z M56.6,79.9l17.2,3.3l-3.1,3.6
		l-17.2-3.3L56.6,79.9z"/>
</g>
</svg>
