<svg xmlns="http://www.w3.org/2000/svg" viewBox="0 0 32 32"><defs><style>.cls-1{fill:#fff;}.cls-2{fill:#8c3418;}.cls-3{fill:#27221e;}</style></defs><g id="Лучшее"><g id="Малые_01-05_2" data-name="Малые (01-05)"><g id="_01_-_WhatsApp-2" data-name="01 - WhatsApp"><path class="cls-1" d="M3.81,23.85a14.55,14.55,0,1,1,4.84,4.64L1.49,30.78Z"/><path class="cls-2" d="M16,3A13,13,0,1,1,8.85,26.85l-5,1.6,1.62-4.83A13,13,0,0,1,16,3h0m0-3h0A16,16,0,0,0,2.17,24L1,27.49-.87,33.11l5.64-1.8,3.71-1.19A16,16,0,1,0,16,0Z"/><path class="cls-3" d="M23.57,21.36A3.68,3.68,0,0,1,21,23.19c-.68.15-1.57.26-4.56-1-3.82-1.58-6.28-5.46-6.47-5.71a7.47,7.47,0,0,1-1.54-3.92A4.13,4.13,0,0,1,9.78,9.41,1.88,1.88,0,0,1,11.11,9h.43c.38,0,.57,0,.83.64.31.76,1.07,2.62,1.17,2.82a.77.77,0,0,1,.05.7,2.41,2.41,0,0,1-.42.6c-.19.22-.37.39-.57.62s-.37.43-.15.81a11.49,11.49,0,0,0,2.11,2.62,9.48,9.48,0,0,0,3,1.88.82.82,0,0,0,.91-.14,14.23,14.23,0,0,0,1-1.35.73.73,0,0,1,.93-.28c.35.12,2.21,1,2.59,1.23s.64.28.73.44a3.29,3.29,0,0,1-.22,1.81Z"/></g></g></g></svg>