<svg width="146" height="146" viewBox="0 0 146 146" fill="none" xmlns="http://www.w3.org/2000/svg">
<path d="M70.2172 121.926L99.7822 62.7347H79.3422V24.5922L48.9255 83.783H70.2172V121.926ZM73.2589 12.4255C89.988 12.4255 104.284 18.5089 116.146 30.3714C128.009 42.2339 134.092 56.5297 134.092 73.2589C134.092 89.988 128.009 104.284 116.146 116.146C104.284 128.009 89.988 134.092 73.2589 134.092C56.5297 134.092 42.2339 128.009 30.3714 116.146C18.5089 104.284 12.4255 89.988 12.4255 73.2589C12.4255 56.5297 18.5089 42.2339 30.3714 30.3714C42.2339 18.5089 56.5297 12.4255 73.2589 12.4255Z" fill="#61879F"/>
<circle cx="73" cy="73" r="54.9326" stroke="white" stroke-width="3"/>
</svg>
