<svg width="475" height="75" viewBox="0 0 475 75" fill="none" xmlns="http://www.w3.org/2000/svg">
<g clip-path="url(#clip0_1_18)">
<path d="M224.61 14.1687H252.522H277.683V0H224.61V14.1687Z" fill="white"/>
<path d="M141.812 24.073C141.812 10.1794 132.382 0 116.963 0H82.3607V13.9936H114.7C121.015 13.9936 125.792 17.7452 125.792 24.073C125.792 30.4007 121.015 34.0773 114.7 34.0773H98.105V22.3972H82.3607V74.8075H98.105V48.1459H109.698L124.216 74.6699H142.212L125.579 46.2326C133.595 44.2942 141.812 37.2787 141.812 24.073Z" fill="white"/>
<path d="M179.265 0H149.715V14.0311H179.24C194.622 14.0311 202.7 24.248 202.7 37.4913C202.7 50.1718 194.059 60.8389 179.24 60.8389H164.721V22.4597H149.715V74.87H179.24C202.7 74.87 218.97 60.0511 218.97 37.4913C218.97 14.9315 202.725 0 179.265 0Z" fill="white"/>
<path d="M356.142 22.4597V74.87H372.449V22.4597H369.398H356.142Z" fill="white"/>
<path d="M394.559 0H333.907V14.1687H394.559V0Z" fill="white"/>
<path d="M442.054 0H429.236V37.2037H442.054V0Z" fill="white"/>
<path d="M448.12 0.100037V14.0686C453.069 16.8362 456.961 21.1675 459.185 26.384C461.409 31.6005 461.84 37.4074 460.41 42.8949C458.98 48.3825 455.77 53.2406 451.283 56.7082C446.796 60.1758 441.285 62.057 435.614 62.057C429.943 62.057 424.433 60.1758 419.946 56.7082C415.459 53.2406 412.249 48.3825 410.819 42.8949C409.389 37.4074 409.819 31.6005 412.043 26.384C414.267 21.1675 418.159 16.8362 423.109 14.0686V0.100037C414.507 3.05915 407.234 8.97256 402.581 16.789C397.929 24.6055 396.199 33.8185 397.699 42.7903C399.199 51.7621 403.832 59.9112 410.774 65.789C417.716 71.6668 426.518 74.8925 435.614 74.8925C444.71 74.8925 453.512 71.6668 460.454 65.789C467.396 59.9112 472.029 51.7621 473.53 42.7903C475.03 33.8185 473.3 24.6055 468.647 16.789C463.995 8.97256 456.721 3.05915 448.12 0.100037Z" fill="white"/>
<path d="M31.0885 34.5025H15.5442H15.0315L0 74.87H17.3951L26.3614 48.446H28.5749H36.3533L31.9514 34.5025H31.0885Z" fill="white"/>
<path d="M29.6754 0L57.475 74.87H74.87L47.2706 0H29.6754Z" fill="white"/>
<path d="M301.706 20.759C301.706 16.4071 305.232 13.4809 311.548 13.4809H318.538V0H312.936C296.679 0 286.674 10.0043 286.674 22.0596C286.674 49.3339 326.467 40.5301 326.467 53.3231C326.467 57.4499 322.527 61.3641 314.436 61.3641C310.294 61.3554 306.198 60.4797 302.414 58.7933C298.63 57.107 295.241 54.6473 292.464 51.5724L284.486 63.315C290.914 70.168 300.443 74.8325 313.711 74.8325C332.369 74.8325 341.386 64.8281 341.386 51.5724C341.398 24.5607 301.706 32.264 301.706 20.759Z" fill="white"/>
<path d="M239.579 44.5193H255.723H277.02V30.3507H239.579V22.4597H224.61V60.7014V74.87H239.579H252.522H277.683V60.7014H239.579V44.5193Z" fill="white"/>
</g>
<defs>
<clipPath id="clip0_1_18">
<rect width="474.093" height="74.87" fill="white"/>
</clipPath>
</defs>
</svg>
