<svg width="281" height="43" viewBox="0 0 281 43" fill="none" xmlns="http://www.w3.org/2000/svg">
<path d="M23.5882 14.6924C24.7136 15.1328 25.4541 16.2178 25.4541 17.4263V18.487C25.4541 19.5459 24.3887 20.2731 23.4026 19.8873L13.2779 15.9254C11.3526 15.172 9.27245 16.5918 9.27245 18.6593V30.8483C9.27245 32.0568 10.013 33.1418 11.1384 33.5822L23.7083 38.4967C24.6466 38.8636 25.0686 39.956 24.6207 40.8585C24.034 42.0403 22.6489 42.5874 21.413 42.1254L8.02829 37.1221C6.9029 36.6817 6.16235 35.5967 6.16235 34.3882V12.1748C6.16235 10.1074 8.24249 8.6876 10.1678 9.44099L23.5882 14.6924Z" fill="#2D9CDB"/>
<path fill-rule="evenodd" clip-rule="evenodd" d="M1.59937 4.17508C0.634758 4.55253 0 5.48254 0 6.51838V23.6635C0 25.4356 1.78298 26.6526 3.43327 26.0068L13.6546 22.0072C14.6192 21.6297 15.254 20.6997 15.254 19.6639V2.51873C15.254 0.746596 13.471 -0.470338 11.8207 0.175426L1.59937 4.17508ZM3.60969 7.0298C2.94409 7.29025 2.50609 7.93198 2.50609 8.64673V20.4773C2.50609 21.7001 3.73638 22.5398 4.87512 22.0942L11.9281 19.3343C12.5937 19.0739 13.0317 18.4322 13.0317 17.7174V5.88688C13.0317 4.66407 11.8014 3.82436 10.6626 4.26995L3.60969 7.0298Z" fill="#56CCF2"/>
<path d="M17.8413 27.2147C17.8413 25.8352 19.202 24.8679 20.5049 25.3211L23.3532 26.312C24.1592 26.5924 24.6994 27.3522 24.6994 28.2055L24.6994 28.3507C24.6994 29.7301 23.3386 30.6975 22.0358 30.2443L19.1875 29.2534C18.3815 28.9731 17.8413 28.2132 17.8413 27.3599L17.8413 27.2147Z" fill="#2D9CDB"/>
<path d="M63.7337 21.2728C63.7337 23.1865 63.3656 24.8087 62.6296 26.1393C61.8935 27.4699 60.897 28.4806 59.64 29.1714C58.3887 29.8621 56.9845 30.2075 55.4274 30.2075C53.8646 30.2075 52.4576 29.8593 51.2063 29.1629C49.955 28.4664 48.9613 27.4558 48.2252 26.1308C47.4948 24.8002 47.1296 23.1809 47.1296 21.2728C47.1296 19.359 47.4948 17.7368 48.2252 16.4062C48.9613 15.0756 49.955 14.0649 51.2063 13.3741C52.4576 12.6834 53.8646 12.338 55.4274 12.338C56.9845 12.338 58.3887 12.6834 59.64 13.3741C60.897 14.0649 61.8935 15.0756 62.6296 16.4062C63.3656 17.7368 63.7337 19.359 63.7337 21.2728ZM59.4361 21.2728C59.4361 20.1403 59.2748 19.1834 58.952 18.4021C58.635 17.6207 58.1763 17.029 57.5761 16.627C56.9816 16.225 56.2654 16.024 55.4274 16.024C54.5951 16.024 53.8788 16.225 53.2786 16.627C52.6784 17.029 52.217 17.6207 51.8942 18.4021C51.5772 19.1834 51.4186 20.1403 51.4186 21.2728C51.4186 22.4052 51.5772 23.3621 51.8942 24.1434C52.217 24.9248 52.6784 25.5165 53.2786 25.9185C53.8788 26.3205 54.5951 26.5215 55.4274 26.5215C56.2654 26.5215 56.9816 26.3205 57.5761 25.9185C58.1763 25.5165 58.635 24.9248 58.952 24.1434C59.2748 23.3621 59.4361 22.4052 59.4361 21.2728ZM76.8131 29.9697L71.3435 22.7506H70.3923V29.9697H66.1882V12.5758H70.3923V19.3278H71.0632L76.4479 12.5758H81.7051L75.0041 20.7886L82.0534 29.9697H76.8131ZM98.978 21.2728C98.978 23.1865 98.61 24.8087 97.8739 26.1393C97.1379 27.4699 96.1413 28.4806 94.8844 29.1714C93.633 29.8621 92.2288 30.2075 90.6718 30.2075C89.109 30.2075 87.702 29.8593 86.4507 29.1629C85.1994 28.4664 84.2057 27.4558 83.4696 26.1308C82.7392 24.8002 82.374 23.1809 82.374 21.2728C82.374 19.359 82.7392 17.7368 83.4696 16.4062C84.2057 15.0756 85.1994 14.0649 86.4507 13.3741C87.702 12.6834 89.109 12.338 90.6718 12.338C92.2288 12.338 93.633 12.6834 94.8844 13.3741C96.1413 14.0649 97.1379 15.0756 97.8739 16.4062C98.61 17.7368 98.978 19.359 98.978 21.2728ZM94.6805 21.2728C94.6805 20.1403 94.5192 19.1834 94.1964 18.4021C93.8793 17.6207 93.4207 17.029 92.8205 16.627C92.226 16.225 91.5098 16.024 90.6718 16.024C89.8394 16.024 89.1232 16.225 88.523 16.627C87.9228 17.029 87.4614 17.6207 87.1386 18.4021C86.8215 19.1834 86.663 20.1403 86.663 21.2728C86.663 22.4052 86.8215 23.3621 87.1386 24.1434C87.4614 24.9248 87.9228 25.5165 88.523 25.9185C89.1232 26.3205 89.8394 26.5215 90.6718 26.5215C91.5098 26.5215 92.226 26.3205 92.8205 25.9185C93.4207 25.5165 93.8793 24.9248 94.1964 24.1434C94.5192 23.3621 94.6805 22.4052 94.6805 21.2728ZM101.433 29.9697V12.5758H105.637V19.5571H112.491V12.5758H116.686V29.9697H112.491V22.9799H105.637V29.9697H101.433ZM119.323 29.9697V12.5758H123.527V19.5571H130.381V12.5758H134.577V29.9697H130.381V22.9799H123.527V29.9697H119.323ZM139.923 18.7078H143.796C145.218 18.7078 146.452 18.9371 147.499 19.3958C148.547 19.8544 149.356 20.4999 149.928 21.3322C150.506 22.1645 150.795 23.1441 150.795 24.2708C150.795 25.3976 150.506 26.3885 149.928 27.2434C149.356 28.0984 148.547 28.7665 147.499 29.2478C146.452 29.7291 145.218 29.9697 143.796 29.9697H137.299V12.5758H141.495V26.6404H143.796C144.408 26.6404 144.923 26.5357 145.342 26.3262C145.767 26.111 146.087 25.8222 146.302 25.4599C146.523 25.0918 146.63 24.6842 146.625 24.2369C146.63 23.5914 146.39 23.0535 145.903 22.6232C145.416 22.1872 144.714 21.9692 143.796 21.9692H139.923V18.7078ZM156.307 12.5758V29.9697H152.111V12.5758H156.307ZM158.935 12.5758H163.131V22.5977H163.275L170.121 12.5758H173.739V29.9697H169.535V19.9308H169.424L162.494 29.9697H158.935V12.5758ZM168.048 7.95552H170.783C170.778 9.02 170.376 9.87497 169.577 10.5204C168.785 11.1659 167.709 11.4887 166.35 11.4887C164.991 11.4887 163.912 11.1659 163.114 10.5204C162.321 9.87497 161.928 9.02 161.933 7.95552H164.643C164.637 8.32922 164.764 8.66895 165.025 8.9747C165.285 9.28045 165.727 9.43333 166.35 9.43333C166.956 9.43333 167.389 9.28328 167.649 8.98319C167.91 8.6831 168.043 8.34054 168.048 7.95552ZM197.309 18.8777H193.063C193.006 18.4417 192.89 18.0482 192.715 17.6971C192.539 17.3461 192.307 17.046 192.018 16.7969C191.729 16.5477 191.387 16.3581 190.991 16.2278C190.6 16.0919 190.167 16.024 189.691 16.024C188.847 16.024 188.12 16.2307 187.508 16.644C186.903 17.0573 186.435 17.6547 186.107 18.436C185.784 19.2174 185.623 20.163 185.623 21.2728C185.623 22.4278 185.787 23.396 186.115 24.1774C186.45 24.9531 186.917 25.5391 187.517 25.9355C188.123 26.3262 188.839 26.5215 189.666 26.5215C190.13 26.5215 190.552 26.4621 190.931 26.3432C191.316 26.2243 191.653 26.0516 191.942 25.8251C192.236 25.5929 192.477 25.3127 192.664 24.9843C192.856 24.6502 192.989 24.2737 193.063 23.8547L197.309 23.8801C197.236 24.6502 197.012 25.4089 196.638 26.1563C196.27 26.9037 195.764 27.586 195.118 28.2032C194.473 28.8147 193.686 29.3016 192.757 29.664C191.834 30.0263 190.775 30.2075 189.581 30.2075C188.007 30.2075 186.597 29.8621 185.351 29.1714C184.111 28.4749 183.132 27.4614 182.412 26.1308C181.693 24.8002 181.334 23.1809 181.334 21.2728C181.334 19.359 181.699 17.7368 182.429 16.4062C183.16 15.0756 184.148 14.0649 185.394 13.3741C186.639 12.6834 188.035 12.338 189.581 12.338C190.634 12.338 191.608 12.4852 192.502 12.7796C193.397 13.0684 194.184 13.493 194.863 14.0536C195.543 14.6085 196.095 15.2908 196.52 16.1004C196.944 16.9101 197.208 17.8359 197.309 18.8777ZM199.715 29.9697V12.5758H211.843V15.99H203.919V19.5571H211.223V22.9799H203.919V26.5555H211.843V29.9697H199.715ZM214.476 29.9697V12.5758H221.661C222.964 12.5758 224.088 12.8306 225.033 13.3402C225.984 13.8441 226.718 14.549 227.233 15.455C227.748 16.3552 228.006 17.4027 228.006 18.5974C228.006 19.7978 227.742 20.8481 227.216 21.7484C226.695 22.643 225.95 23.3366 224.982 23.8292C224.014 24.3218 222.865 24.5681 221.534 24.5681H217.101V21.2558H220.753C221.387 21.2558 221.916 21.1454 222.341 20.9245C222.771 20.7037 223.097 20.3951 223.318 19.9988C223.538 19.5968 223.649 19.1297 223.649 18.5974C223.649 18.0595 223.538 17.5952 223.318 17.2045C223.097 16.8082 222.771 16.5024 222.341 16.2873C221.911 16.0721 221.381 15.9645 220.753 15.9645H218.68V29.9697H214.476ZM230.078 29.9697V12.5758H237.331C238.633 12.5758 239.723 12.7598 240.601 13.1278C241.484 13.4959 242.147 14.0111 242.588 14.6736C243.036 15.3361 243.259 16.1033 243.259 16.9752C243.259 17.6377 243.121 18.2294 242.843 18.7503C242.566 19.2655 242.184 19.693 241.697 20.0328C241.21 20.3725 240.646 20.6103 240.007 20.7462V20.916C240.709 20.95 241.357 21.1397 241.951 21.4851C242.552 21.8305 243.033 22.3118 243.395 22.9289C243.758 23.5404 243.939 24.2652 243.939 25.1032C243.939 26.0374 243.701 26.8726 243.225 27.6086C242.75 28.339 242.062 28.9166 241.162 29.3412C240.261 29.7602 239.169 29.9697 237.883 29.9697H230.078ZM234.282 26.581H236.881C237.793 26.581 238.464 26.4083 238.894 26.0629C239.33 25.7175 239.548 25.2362 239.548 24.6191C239.548 24.1717 239.443 23.7867 239.234 23.464C239.024 23.1356 238.727 22.8836 238.342 22.7081C237.957 22.5269 237.495 22.4363 236.958 22.4363H234.282V26.581ZM234.282 19.727H236.609C237.068 19.727 237.476 19.6506 237.832 19.4977C238.189 19.3448 238.466 19.124 238.665 18.8352C238.868 18.5465 238.97 18.1982 238.97 17.7906C238.97 17.2074 238.764 16.7487 238.35 16.4147C237.937 16.0806 237.379 15.9136 236.677 15.9136H234.282V19.727ZM245.96 12.5758H250.156V22.5977H250.3L257.146 12.5758H260.764V29.9697H256.56V19.9308H256.449L249.519 29.9697H245.96V12.5758ZM279.196 18.8777H274.949C274.893 18.4417 274.777 18.0482 274.601 17.6971C274.426 17.3461 274.194 17.046 273.905 16.7969C273.616 16.5477 273.273 16.3581 272.877 16.2278C272.486 16.0919 272.053 16.024 271.578 16.024C270.734 16.024 270.006 16.2307 269.395 16.644C268.789 17.0573 268.322 17.6547 267.994 18.436C267.671 19.2174 267.509 20.163 267.509 21.2728C267.509 22.4278 267.674 23.396 268.002 24.1774C268.336 24.9531 268.803 25.5391 269.403 25.9355C270.009 26.3262 270.726 26.5215 271.552 26.5215C272.016 26.5215 272.438 26.4621 272.818 26.3432C273.203 26.2243 273.54 26.0516 273.828 25.8251C274.123 25.5929 274.363 25.3127 274.55 24.9843C274.743 24.6502 274.876 24.2737 274.949 23.8547L279.196 23.8801C279.122 24.6502 278.899 25.4089 278.525 26.1563C278.157 26.9037 277.65 27.586 277.005 28.2032C276.359 28.8147 275.572 29.3016 274.644 29.664C273.721 30.0263 272.662 30.2075 271.467 30.2075C269.893 30.2075 268.483 29.8621 267.238 29.1714C265.998 28.4749 265.018 27.4614 264.299 26.1308C263.58 24.8002 263.22 23.1809 263.22 21.2728C263.22 19.359 263.586 17.7368 264.316 16.4062C265.046 15.0756 266.034 14.0649 267.28 13.3741C268.526 12.6834 269.921 12.338 271.467 12.338C272.52 12.338 273.494 12.4852 274.389 12.7796C275.283 13.0684 276.071 13.493 276.75 14.0536C277.429 14.6085 277.981 15.2908 278.406 16.1004C278.831 16.9101 279.094 17.8359 279.196 18.8777Z" fill="#010A13"/>
</svg>
