<svg width="73" height="160" viewBox="0 0 73 160" fill="none" xmlns="http://www.w3.org/2000/svg">
<path d="M65.6095 40.8677C68.7397 42.0926 70.7995 45.1105 70.7995 48.4718V51.422C70.7995 54.3674 67.836 56.3901 65.0931 55.3167L36.9321 44.2972C31.5769 42.2017 25.7912 46.1507 25.7912 51.9013V85.8042C25.7912 89.1655 27.851 92.1834 30.9811 93.4082L65.9434 107.078C68.5533 108.098 69.7272 111.137 68.4812 113.647C66.8496 116.934 62.9969 118.456 59.5594 117.171L22.3306 103.254C19.2004 102.029 17.1406 99.0115 17.1406 95.6502V33.8652C17.1406 28.1146 22.9264 24.1656 28.2816 26.2612L65.6095 40.8677Z" fill="#2D9CDB"/>
<path fill-rule="evenodd" clip-rule="evenodd" d="M4.44855 11.6127C1.76554 12.6626 0 15.2493 0 18.1305V65.8185C0 70.7476 4.95923 74.1324 9.5494 72.3363L37.9794 61.2115C40.6624 60.1616 42.4279 57.5748 42.4279 54.6937V7.00568C42.4279 2.07661 37.4687 -1.30822 32.8785 0.487935L4.44855 11.6127ZM10.0397 19.553C8.18838 20.2774 6.97012 22.0623 6.97012 24.0504V56.9562C6.97012 60.3574 10.3921 62.693 13.5594 61.4536L33.1767 53.7772C35.0281 53.0528 36.2463 51.2679 36.2463 49.2798V16.374C36.2463 12.9728 32.8244 10.6372 29.657 11.8766L10.0397 19.553Z" fill="#56CCF2"/>
<path d="M49.623 75.6947C49.623 71.8578 53.4078 69.1672 57.0317 70.4279L64.954 73.1839C67.1958 73.9637 68.6983 76.0771 68.6983 78.4507L68.6983 78.8544C68.6983 82.6912 64.9135 85.3819 61.2897 84.1212L53.3673 81.3653C51.1255 80.5855 49.623 78.472 49.623 76.0985L49.623 75.6947Z" fill="#2D9CDB"/>
<path d="M11.6336 137.356C11.6336 138.358 11.4407 139.209 11.055 139.906C10.6693 140.603 10.147 141.133 9.48832 141.495C8.83258 141.857 8.09673 142.038 7.28076 142.038C6.46183 142.038 5.72449 141.855 5.06875 141.49C4.41301 141.125 3.89227 140.596 3.50655 139.901C3.12378 139.204 2.9324 138.355 2.9324 137.356C2.9324 136.353 3.12378 135.503 3.50655 134.805C3.89227 134.108 4.41301 133.578 5.06875 133.216C5.72449 132.854 6.46183 132.673 7.28076 132.673C8.09673 132.673 8.83258 132.854 9.48832 133.216C10.147 133.578 10.6693 134.108 11.055 134.805C11.4407 135.503 11.6336 136.353 11.6336 137.356ZM9.38151 137.356C9.38151 136.762 9.29694 136.261 9.12782 135.851C8.96165 135.442 8.72132 135.132 8.4068 134.921C8.09525 134.71 7.7199 134.605 7.28076 134.605C6.84459 134.605 6.46925 134.71 6.15473 134.921C5.84021 135.132 5.59839 135.442 5.42926 135.851C5.2631 136.261 5.18002 136.762 5.18002 137.356C5.18002 137.949 5.2631 138.45 5.42926 138.86C5.59839 139.269 5.84021 139.579 6.15473 139.79C6.46925 140.001 6.84459 140.106 7.28076 140.106C7.7199 140.106 8.09525 140.001 8.4068 139.79C8.72132 139.579 8.96165 139.269 9.12782 138.86C9.29694 138.45 9.38151 137.949 9.38151 137.356ZM18.4877 141.913L15.6214 138.13H15.1229V141.913H12.9198V132.798H15.1229V136.336H15.4746L18.2963 132.798H21.0513L17.5397 137.102L21.2338 141.913H18.4877ZM30.103 137.356C30.103 138.358 29.9101 139.209 29.5244 139.906C29.1387 140.603 28.6164 141.133 27.9577 141.495C27.302 141.857 26.5661 142.038 25.7502 142.038C24.9312 142.038 24.1939 141.855 23.5382 141.49C22.8824 141.125 22.3617 140.596 21.976 139.901C21.5932 139.204 21.4018 138.355 21.4018 137.356C21.4018 136.353 21.5932 135.503 21.976 134.805C22.3617 134.108 22.8824 133.578 23.5382 133.216C24.1939 132.854 24.9312 132.673 25.7502 132.673C26.5661 132.673 27.302 132.854 27.9577 133.216C28.6164 133.578 29.1387 134.108 29.5244 134.805C29.9101 135.503 30.103 136.353 30.103 137.356ZM27.8509 137.356C27.8509 136.762 27.7664 136.261 27.5972 135.851C27.4311 135.442 27.1907 135.132 26.8762 134.921C26.5647 134.71 26.1893 134.605 25.7502 134.605C25.314 134.605 24.9387 134.71 24.6241 134.921C24.3096 135.132 24.0678 135.442 23.8987 135.851C23.7325 136.261 23.6494 136.762 23.6494 137.356C23.6494 137.949 23.7325 138.45 23.8987 138.86C24.0678 139.269 24.3096 139.579 24.6241 139.79C24.9387 140.001 25.314 140.106 25.7502 140.106C26.1893 140.106 26.5647 140.001 26.8762 139.79C27.1907 139.579 27.4311 139.269 27.5972 138.86C27.7664 138.45 27.8509 137.949 27.8509 137.356ZM31.3892 141.913V132.798H33.5924V136.456H37.1841V132.798H39.3828V141.913H37.1841V138.25H33.5924V141.913H31.3892ZM40.7647 141.913V132.798H42.9678V136.456H46.5596V132.798H48.7582V141.913H46.5596V138.25H42.9678V141.913H40.7647ZM51.5599 136.011H53.5895C54.3342 136.011 54.9811 136.132 55.53 136.372C56.0789 136.612 56.5032 136.951 56.8029 137.387C57.1056 137.823 57.2569 138.336 57.2569 138.927C57.2569 139.517 57.1056 140.036 56.8029 140.484C56.5032 140.932 56.0789 141.283 55.53 141.535C54.9811 141.787 54.3342 141.913 53.5895 141.913H50.1847V132.798H52.3833V140.168H53.5895C53.9099 140.168 54.1799 140.114 54.3995 140.004C54.622 139.891 54.7897 139.74 54.9024 139.55C55.0182 139.357 55.0745 139.143 55.0716 138.909C55.0745 138.571 54.9484 138.289 54.6933 138.063C54.4381 137.835 54.0702 137.72 53.5895 137.72H51.5599V136.011ZM60.1454 132.798V141.913H57.9467V132.798H60.1454ZM61.5229 132.798H63.7216V138.05H63.7972L67.3845 132.798H69.2805V141.913H67.0774V136.652H67.0196L63.3878 141.913H61.5229V132.798ZM66.2985 130.377H67.7317C67.7287 130.935 67.518 131.383 67.0997 131.721C66.6843 132.059 66.1205 132.228 65.4084 132.228C64.6963 132.228 64.131 132.059 63.7127 131.721C63.2973 131.383 63.091 130.935 63.094 130.377H64.5138C64.5108 130.573 64.5776 130.751 64.7141 130.911C64.8506 131.071 65.082 131.151 65.4084 131.151C65.7259 131.151 65.9529 131.073 66.0894 130.915C66.2258 130.758 66.2956 130.579 66.2985 130.377ZM18.8988 151.1H16.6735C16.6438 150.872 16.583 150.666 16.491 150.482C16.399 150.298 16.2774 150.141 16.126 150.01C15.9747 149.879 15.7952 149.78 15.5875 149.712C15.3828 149.641 15.1558 149.605 14.9065 149.605C14.4644 149.605 14.0831 149.713 13.7627 149.93C13.4452 150.146 13.2004 150.46 13.0283 150.869C12.8592 151.278 12.7746 151.774 12.7746 152.356C12.7746 152.961 12.8607 153.468 13.0328 153.878C13.2078 154.284 13.4526 154.591 13.7671 154.799C14.0846 155.004 14.46 155.106 14.8932 155.106C15.1365 155.106 15.3575 155.075 15.5563 155.013C15.7581 154.95 15.9346 154.86 16.086 154.741C16.2403 154.619 16.3664 154.473 16.4643 154.301C16.5652 154.125 16.6349 153.928 16.6735 153.709L18.8988 153.722C18.8603 154.125 18.7431 154.523 18.5472 154.915C18.3544 155.306 18.0888 155.664 17.7505 155.987C17.4123 156.308 16.9999 156.563 16.5132 156.753C16.0296 156.943 15.4747 157.038 14.8487 157.038C14.0238 157.038 13.285 156.857 12.6322 156.495C11.9824 156.13 11.4691 155.599 11.0923 154.901C10.7154 154.204 10.527 153.355 10.527 152.356C10.527 151.353 10.7184 150.503 11.1012 149.805C11.4839 149.108 12.0017 148.578 12.6545 148.216C13.3072 147.854 14.0386 147.673 14.8487 147.673C15.4006 147.673 15.9109 147.751 16.3797 147.905C16.8485 148.056 17.261 148.279 17.617 148.572C17.9731 148.863 18.2624 149.221 18.4849 149.645C18.7075 150.069 18.8454 150.554 18.8988 151.1ZM20.1595 156.913V147.798H26.5151V149.587H22.3626V151.456H26.1902V153.25H22.3626V155.124H26.5151V156.913H20.1595ZM27.8949 156.913V147.798H31.6602C32.3426 147.798 32.9316 147.932 33.4271 148.199C33.9256 148.463 34.3099 148.832 34.5799 149.307C34.8499 149.779 34.9849 150.327 34.9849 150.954C34.9849 151.583 34.8469 152.133 34.571 152.605C34.298 153.074 33.9078 153.437 33.4004 153.695C32.893 153.953 32.2907 154.082 31.5934 154.082H29.2701V152.347H31.184C31.5163 152.347 31.7937 152.289 32.0162 152.173C32.2417 152.057 32.4124 151.896 32.5281 151.688C32.6438 151.477 32.7017 151.232 32.7017 150.954C32.7017 150.672 32.6438 150.428 32.5281 150.224C32.4124 150.016 32.2417 149.856 32.0162 149.743C31.7907 149.63 31.5133 149.574 31.184 149.574H30.098V156.913H27.8949ZM36.0709 156.913V147.798H39.8718C40.5542 147.798 41.1254 147.894 41.5853 148.087C42.0482 148.28 42.3953 148.55 42.6268 148.897C42.8612 149.244 42.9784 149.647 42.9784 150.103C42.9784 150.451 42.9057 150.761 42.7603 151.034C42.6149 151.304 42.4146 151.528 42.1595 151.706C41.9043 151.884 41.609 152.008 41.2738 152.08V152.169C41.6417 152.186 41.9814 152.286 42.293 152.467C42.6075 152.648 42.8597 152.9 43.0496 153.223C43.2395 153.544 43.3344 153.924 43.3344 154.363C43.3344 154.852 43.2098 155.29 42.9606 155.676C42.7113 156.059 42.3508 156.361 41.8791 156.584C41.4073 156.803 40.8346 156.913 40.1611 156.913H36.0709ZM38.274 155.137H39.6359C40.1136 155.137 40.4652 155.047 40.6907 154.866C40.9192 154.685 41.0334 154.433 41.0334 154.109C41.0334 153.875 40.9785 153.673 40.8687 153.504C40.759 153.332 40.6032 153.2 40.4014 153.108C40.1997 153.013 39.9578 152.965 39.6759 152.965H38.274V155.137ZM38.274 151.546H39.4935C39.7338 151.546 39.9474 151.505 40.1344 151.425C40.3213 151.345 40.4667 151.23 40.5705 151.078C40.6774 150.927 40.7308 150.744 40.7308 150.531C40.7308 150.225 40.6225 149.985 40.4059 149.81C40.1893 149.635 39.897 149.547 39.5291 149.547H38.274V151.546ZM44.3937 147.798H46.5924V153.05H46.668L50.2553 147.798H52.1513V156.913H49.9482V151.652H49.8904L46.2586 156.913H44.3937V147.798ZM61.8105 151.1H59.5852C59.5555 150.872 59.4947 150.666 59.4027 150.482C59.3107 150.298 59.1891 150.141 59.0377 150.01C58.8864 149.879 58.7069 149.78 58.4992 149.712C58.2945 149.641 58.0675 149.605 57.8182 149.605C57.3761 149.605 56.9948 149.713 56.6744 149.93C56.3569 150.146 56.1121 150.46 55.94 150.869C55.7709 151.278 55.6863 151.774 55.6863 152.356C55.6863 152.961 55.7724 153.468 55.9445 153.878C56.1195 154.284 56.3643 154.591 56.6788 154.799C56.9963 155.004 57.3717 155.106 57.8049 155.106C58.0482 155.106 58.2692 155.075 58.468 155.013C58.6698 154.95 58.8463 154.86 58.9977 154.741C59.152 154.619 59.2781 154.473 59.376 154.301C59.4769 154.125 59.5466 153.928 59.5852 153.709L61.8105 153.722C61.772 154.125 61.6548 154.523 61.4589 154.915C61.2661 155.306 61.0005 155.664 60.6622 155.987C60.324 156.308 59.9116 156.563 59.4249 156.753C58.9413 156.943 58.3864 157.038 57.7604 157.038C56.9355 157.038 56.1967 156.857 55.5439 156.495C54.8941 156.13 54.3808 155.599 54.004 154.901C53.6271 154.204 53.4387 153.355 53.4387 152.356C53.4387 151.353 53.6301 150.503 54.0129 149.805C54.3956 149.108 54.9134 148.578 55.5662 148.216C56.2189 147.854 56.9503 147.673 57.7604 147.673C58.3123 147.673 58.8226 147.751 59.2914 147.905C59.7602 148.056 60.1727 148.279 60.5287 148.572C60.8848 148.863 61.1741 149.221 61.3966 149.645C61.6192 150.069 61.7571 150.554 61.8105 151.1Z" fill="#010A13"/>
</svg>
