<svg width="316" height="86" viewBox="0 0 316 86" fill="none" xmlns="http://www.w3.org/2000/svg">
<path d="M47.0619 29.4799C49.3072 30.3585 50.7847 32.5233 50.7847 34.9344V37.0506C50.7847 39.1634 48.659 40.6142 46.6915 39.8443L26.4915 31.9399C22.6502 30.4368 18.5 33.2694 18.5 37.3944V61.7131C18.5 64.1242 19.9775 66.289 22.2228 67.1676L47.3014 76.9728C49.1736 77.7048 50.0156 79.8843 49.1218 81.6848C47.9514 84.0427 45.1879 85.1342 42.7221 84.2125L16.0177 74.2302C13.7724 73.3516 12.2949 71.1868 12.2949 68.7758V24.457C12.2949 20.3321 16.4451 17.4994 20.2864 19.0026L47.0619 29.4799Z" fill="#2D9CDB"/>
<path fill-rule="evenodd" clip-rule="evenodd" d="M3.19097 8.49488C1.26643 9.24796 0 11.1035 0 13.1701V47.377C0 50.9127 3.55729 53.3406 6.84984 52.0522L27.2428 44.0724C29.1674 43.3193 30.4338 41.4638 30.4338 39.3972V5.19024C30.4338 1.65458 26.8765 -0.773373 23.584 0.515017L3.19097 8.49488ZM7.20184 14.1904C5.87387 14.7101 5 15.9904 5 17.4165V41.02C5 43.4597 7.4546 45.135 9.72654 44.246L23.7982 38.7397C25.1261 38.2201 26 36.9397 26 35.5137V11.9102C26 9.47049 23.5454 7.79514 21.2735 8.68416L7.20184 14.1904Z" fill="#56CCF2"/>
<path d="M35.5957 54.4611C35.5957 51.7089 38.3106 49.7789 40.9099 50.6832L46.5927 52.6601C48.2008 53.2195 49.2785 54.7354 49.2785 56.438L49.2785 56.7276C49.2785 59.4798 46.5636 61.4098 43.9642 60.5055L38.2815 58.5287C36.6734 57.9693 35.5957 56.4533 35.5957 54.7507L35.5957 54.4611Z" fill="#2D9CDB"/>
<path d="M89.6073 22.7112C89.6073 24.625 89.2393 26.2472 88.5032 27.5778C87.7671 28.9084 86.7706 29.9191 85.5136 30.6098C84.2623 31.3006 82.8581 31.646 81.301 31.646C79.7383 31.646 78.3313 31.2978 77.0799 30.6014C75.8286 29.9049 74.8349 28.8942 74.0989 27.5693C73.3684 26.2387 73.0032 24.6194 73.0032 22.7112C73.0032 20.7974 73.3684 19.1753 74.0989 17.8447C74.8349 16.5141 75.8286 15.5034 77.0799 14.8126C78.3313 14.1218 79.7383 13.7765 81.301 13.7765C82.8581 13.7765 84.2623 14.1218 85.5136 14.8126C86.7706 15.5034 87.7671 16.5141 88.5032 17.8447C89.2393 19.1753 89.6073 20.7974 89.6073 22.7112ZM85.3098 22.7112C85.3098 21.5788 85.1484 20.6219 84.8257 19.8406C84.5086 19.0592 84.05 18.4675 83.4498 18.0655C82.8553 17.6635 82.139 17.4625 81.301 17.4625C80.4687 17.4625 79.7525 17.6635 79.1523 18.0655C78.5521 18.4675 78.0906 19.0592 77.7679 19.8406C77.4508 20.6219 77.2923 21.5788 77.2923 22.7112C77.2923 23.8437 77.4508 24.8005 77.7679 25.5819C78.0906 26.3633 78.5521 26.955 79.1523 27.357C79.7525 27.759 80.4687 27.96 81.301 27.96C82.139 27.96 82.8553 27.759 83.4498 27.357C84.05 26.955 84.5086 26.3633 84.8257 25.5819C85.1484 24.8005 85.3098 23.8437 85.3098 22.7112ZM102.687 31.4082L97.2172 24.189H96.2659V31.4082H92.0618V14.0143H96.2659V20.7663H96.9369L102.322 14.0143H107.579L100.878 22.2271L107.927 31.4082H102.687ZM124.852 22.7112C124.852 24.625 124.484 26.2472 123.748 27.5778C123.012 28.9084 122.015 29.9191 120.758 30.6098C119.507 31.3006 118.102 31.646 116.545 31.646C114.983 31.646 113.576 31.2978 112.324 30.6014C111.073 29.9049 110.079 28.8942 109.343 27.5693C108.613 26.2387 108.248 24.6194 108.248 22.7112C108.248 20.7974 108.613 19.1753 109.343 17.8447C110.079 16.5141 111.073 15.5034 112.324 14.8126C113.576 14.1218 114.983 13.7765 116.545 13.7765C118.102 13.7765 119.507 14.1218 120.758 14.8126C122.015 15.5034 123.012 16.5141 123.748 17.8447C124.484 19.1753 124.852 20.7974 124.852 22.7112ZM120.554 22.7112C120.554 21.5788 120.393 20.6219 120.07 19.8406C119.753 19.0592 119.294 18.4675 118.694 18.0655C118.1 17.6635 117.383 17.4625 116.545 17.4625C115.713 17.4625 114.997 17.6635 114.397 18.0655C113.796 18.4675 113.335 19.0592 113.012 19.8406C112.695 20.6219 112.537 21.5788 112.537 22.7112C112.537 23.8437 112.695 24.8005 113.012 25.5819C113.335 26.3633 113.796 26.955 114.397 27.357C114.997 27.759 115.713 27.96 116.545 27.96C117.383 27.96 118.1 27.759 118.694 27.357C119.294 26.955 119.753 26.3633 120.07 25.5819C120.393 24.8005 120.554 23.8437 120.554 22.7112ZM127.306 31.4082V14.0143H131.51V20.9956H138.364V14.0143H142.56V31.4082H138.364V24.4184H131.51V31.4082H127.306ZM145.197 31.4082V14.0143H149.401V20.9956H156.255V14.0143H160.451V31.4082H156.255V24.4184H149.401V31.4082H145.197ZM165.797 20.1463H169.67C171.091 20.1463 172.325 20.3756 173.373 20.8343C174.42 21.2929 175.23 21.9384 175.802 22.7707C176.38 23.603 176.668 24.5826 176.668 25.7093C176.668 26.8361 176.38 27.8269 175.802 28.6819C175.23 29.5369 174.42 30.205 173.373 30.6863C172.325 31.1676 171.091 31.4082 169.67 31.4082H163.173V14.0143H167.368V28.0789H169.67C170.281 28.0789 170.797 27.9741 171.216 27.7646C171.64 27.5495 171.96 27.2607 172.175 26.8983C172.396 26.5303 172.504 26.1226 172.498 25.6753C172.504 25.0299 172.263 24.492 171.776 24.0616C171.289 23.6257 170.587 23.4077 169.67 23.4077H165.797V20.1463ZM182.18 14.0143V31.4082H177.985V14.0143H182.18ZM184.809 14.0143H189.005V24.0362H189.149L195.994 14.0143H199.613V31.4082H195.408V21.3693H195.298L188.368 31.4082H184.809V14.0143ZM193.922 9.394H196.657C196.651 10.4585 196.249 11.3134 195.451 11.9589C194.658 12.6044 193.582 12.9271 192.223 12.9271C190.865 12.9271 189.786 12.6044 188.988 11.9589C188.195 11.3134 187.801 10.4585 187.807 9.394H190.516C190.511 9.7677 190.638 10.1074 190.899 10.4132C191.159 10.7189 191.601 10.8718 192.223 10.8718C192.829 10.8718 193.262 10.7218 193.523 10.4217C193.783 10.1216 193.916 9.77902 193.922 9.394ZM223.183 20.3162H218.937C218.88 19.8802 218.764 19.4867 218.588 19.1356C218.413 18.7846 218.181 18.4845 217.892 18.2354C217.603 17.9862 217.261 17.7965 216.864 17.6663C216.474 17.5304 216.04 17.4625 215.565 17.4625C214.721 17.4625 213.994 17.6691 213.382 18.0825C212.776 18.4958 212.309 19.0932 211.981 19.8745C211.658 20.6559 211.497 21.6015 211.497 22.7112C211.497 23.8663 211.661 24.8345 211.989 25.6159C212.323 26.3916 212.79 26.9776 213.391 27.374C213.996 27.7646 214.713 27.96 215.539 27.96C216.004 27.96 216.425 27.9005 216.805 27.7816C217.19 27.6627 217.527 27.49 217.815 27.2636C218.11 27.0314 218.35 26.7511 218.537 26.4227C218.73 26.0887 218.863 25.7121 218.937 25.2931L223.183 25.3186C223.109 26.0887 222.886 26.8474 222.512 27.5948C222.144 28.3422 221.637 29.0245 220.992 29.6416C220.346 30.2531 219.559 30.7401 218.631 31.1025C217.708 31.4648 216.649 31.646 215.454 31.646C213.88 31.646 212.47 31.3006 211.225 30.6098C209.985 29.9134 209.005 28.8999 208.286 27.5693C207.567 26.2387 207.207 24.6194 207.207 22.7112C207.207 20.7974 207.573 19.1753 208.303 17.8447C209.034 16.5141 210.022 15.5034 211.267 14.8126C212.513 14.1218 213.909 13.7765 215.454 13.7765C216.507 13.7765 217.481 13.9237 218.376 14.2181C219.271 14.5069 220.058 14.9315 220.737 15.4921C221.417 16.047 221.969 16.7292 222.393 17.5389C222.818 18.3486 223.081 19.2743 223.183 20.3162ZM225.589 31.4082V14.0143H237.717V17.4285H229.793V20.9956H237.097V24.4184H229.793V27.994H237.717V31.4082H225.589ZM240.35 31.4082V14.0143H247.535C248.837 14.0143 249.961 14.2691 250.907 14.7786C251.858 15.2826 252.591 15.9875 253.107 16.8934C253.622 17.7937 253.879 18.8412 253.879 20.0359C253.879 21.2363 253.616 22.2866 253.09 23.1868C252.569 24.0815 251.824 24.7751 250.856 25.2677C249.888 25.7603 248.738 26.0066 247.408 26.0066H242.974V22.6942H246.626C247.26 22.6942 247.79 22.5838 248.214 22.363C248.645 22.1422 248.97 21.8336 249.191 21.4373C249.412 21.0353 249.522 20.5681 249.522 20.0359C249.522 19.498 249.412 19.0337 249.191 18.643C248.97 18.2467 248.645 17.9409 248.214 17.7258C247.784 17.5106 247.255 17.403 246.626 17.403H244.554V31.4082H240.35ZM255.952 31.4082V14.0143H263.205C264.507 14.0143 265.597 14.1983 266.475 14.5663C267.358 14.9344 268.02 15.4496 268.462 16.1121C268.909 16.7745 269.133 17.5417 269.133 18.4137C269.133 19.0762 268.994 19.6679 268.717 20.1888C268.439 20.704 268.057 21.1315 267.57 21.4712C267.083 21.811 266.52 22.0488 265.88 22.1847V22.3545C266.582 22.3885 267.231 22.5782 267.825 22.9236C268.425 23.2689 268.907 23.7502 269.269 24.3674C269.631 24.9789 269.813 25.7036 269.813 26.5416C269.813 27.4759 269.575 28.311 269.099 29.0471C268.623 29.7775 267.936 30.3551 267.035 30.7797C266.135 31.1987 265.042 31.4082 263.757 31.4082H255.952ZM260.156 28.0194H262.755C263.666 28.0194 264.337 27.8467 264.768 27.5014C265.204 27.156 265.422 26.6747 265.422 26.0575C265.422 25.6102 265.317 25.2252 265.107 24.9025C264.898 24.5741 264.601 24.3221 264.216 24.1466C263.831 23.9654 263.369 23.8748 262.831 23.8748H260.156V28.0194ZM260.156 21.1655H262.483C262.942 21.1655 263.349 21.089 263.706 20.9362C264.063 20.7833 264.34 20.5625 264.538 20.2737C264.742 19.9849 264.844 19.6367 264.844 19.229C264.844 18.6459 264.637 18.1872 264.224 17.8532C263.811 17.5191 263.253 17.3521 262.551 17.3521H260.156V21.1655ZM271.834 14.0143H276.03V24.0362H276.174L283.019 14.0143H286.637V31.4082H282.433V21.3693H282.323L275.393 31.4082H271.834V14.0143ZM305.07 20.3162H300.823C300.766 19.8802 300.65 19.4867 300.475 19.1356C300.299 18.7846 300.067 18.4845 299.778 18.2354C299.49 17.9862 299.147 17.7965 298.751 17.6663C298.36 17.5304 297.927 17.4625 297.451 17.4625C296.608 17.4625 295.88 17.6691 295.269 18.0825C294.663 18.4958 294.196 19.0932 293.867 19.8745C293.544 20.6559 293.383 21.6015 293.383 22.7112C293.383 23.8663 293.547 24.8345 293.876 25.6159C294.21 26.3916 294.677 26.9776 295.277 27.374C295.883 27.7646 296.599 27.96 297.426 27.96C297.89 27.96 298.312 27.9005 298.691 27.7816C299.076 27.6627 299.413 27.49 299.702 27.2636C299.996 27.0314 300.237 26.7511 300.424 26.4227C300.616 26.0887 300.749 25.7121 300.823 25.2931L305.07 25.3186C304.996 26.0887 304.772 26.8474 304.399 27.5948C304.031 28.3422 303.524 29.0245 302.878 29.6416C302.233 30.2531 301.446 30.7401 300.517 31.1025C299.594 31.4648 298.536 31.646 297.341 31.646C295.767 31.646 294.357 31.3006 293.111 30.6098C291.871 29.9134 290.892 28.8999 290.173 27.5693C289.454 26.2387 289.094 24.6194 289.094 22.7112C289.094 20.7974 289.459 19.1753 290.19 17.8447C290.92 16.5141 291.908 15.5034 293.154 14.8126C294.399 14.1218 295.795 13.7765 297.341 13.7765C298.394 13.7765 299.368 13.9237 300.263 14.2181C301.157 14.5069 301.944 14.9315 302.624 15.4921C303.303 16.047 303.855 16.7292 304.28 17.5389C304.704 18.3486 304.968 19.2743 305.07 20.3162Z" fill="#010A13"/>
<path d="M81.1425 44.6382V55.5918H80.1477V45.5367H74.2484V55.5918H73.2482V44.6382H81.1425ZM83.7793 58.6725V47.3766H84.7046V48.9437H84.8169C84.931 48.6976 85.0879 48.4463 85.2876 48.1895C85.4872 47.9293 85.7511 47.71 86.0791 47.5317C86.4107 47.3534 86.8279 47.2643 87.3307 47.2643C88.0081 47.2643 88.6 47.4425 89.1064 47.7991C89.6162 48.1521 90.012 48.6477 90.2937 49.286C90.579 49.9207 90.7216 50.6605 90.7216 51.5056C90.7216 52.3542 90.579 53.0976 90.2937 53.7359C90.012 54.3741 89.6162 54.8715 89.1064 55.2281C88.6 55.5847 88.0117 55.7629 87.3414 55.7629C86.8457 55.7629 86.4303 55.6738 86.0952 55.4955C85.7636 55.3172 85.4944 55.098 85.2876 54.8377C85.0843 54.5738 84.9274 54.3171 84.8169 54.0675H84.7313V58.6725H83.7793ZM84.7206 51.4895C84.7206 52.1527 84.8187 52.7411 85.0148 53.2545C85.2145 53.7644 85.4997 54.1655 85.8705 54.4579C86.2449 54.7467 86.6978 54.8912 87.229 54.8912C87.7746 54.8912 88.2346 54.7414 88.6089 54.4419C88.9869 54.1388 89.2739 53.7305 89.47 53.2171C89.6697 52.7036 89.7696 52.1278 89.7696 51.4895C89.7696 50.8584 89.6715 50.2897 89.4754 49.7834C89.2829 49.2771 88.9976 48.8759 88.6196 48.58C88.2417 48.2805 87.7782 48.1307 87.229 48.1307C86.6942 48.1307 86.2396 48.2751 85.8652 48.5639C85.4908 48.8492 85.2056 49.245 85.0094 49.7513C84.8169 50.254 84.7206 50.8335 84.7206 51.4895ZM96.0032 55.7629C95.2936 55.7629 94.6661 55.5829 94.1205 55.2228C93.5785 54.8626 93.1542 54.3652 92.8476 53.7305C92.5409 53.0923 92.3876 52.356 92.3876 51.5216C92.3876 50.6801 92.5409 49.9403 92.8476 49.302C93.1542 48.6602 93.5785 48.161 94.1205 47.8045C94.6661 47.4443 95.2936 47.2643 96.0032 47.2643C96.7127 47.2643 97.3385 47.4443 97.8805 47.8045C98.4225 48.1646 98.8468 48.6638 99.1534 49.302C99.4636 49.9403 99.6187 50.6801 99.6187 51.5216C99.6187 52.356 99.4654 53.0923 99.1588 53.7305C98.8521 54.3652 98.426 54.8626 97.8805 55.2228C97.3385 55.5829 96.7127 55.7629 96.0032 55.7629ZM96.0032 54.8912C96.5737 54.8912 97.0568 54.7378 97.4526 54.4312C97.8484 54.1245 98.1479 53.7163 98.3511 53.2064C98.5579 52.6965 98.6613 52.1349 98.6613 51.5216C98.6613 50.9083 98.5579 50.345 98.3511 49.8315C98.1479 49.3181 97.8484 48.9062 97.4526 48.596C97.0568 48.2858 96.5737 48.1307 96.0032 48.1307C95.4362 48.1307 94.9531 48.2858 94.5537 48.596C94.158 48.9062 93.8567 49.3181 93.6499 49.8315C93.4466 50.345 93.345 50.9083 93.345 51.5216C93.345 52.1349 93.4466 52.6965 93.6499 53.2064C93.8567 53.7163 94.158 54.1245 94.5537 54.4312C94.9495 54.7378 95.4327 54.8912 96.0032 54.8912ZM105.18 58.3944V44.6382H106.137V58.3944H105.18ZM105.18 55.7629C104.613 55.7629 104.092 55.6595 103.618 55.4527C103.144 55.2459 102.732 54.9535 102.383 54.5756C102.037 54.1941 101.767 53.7448 101.575 53.2278C101.382 52.7108 101.286 52.1438 101.286 51.527C101.286 50.903 101.382 50.3307 101.575 49.8101C101.767 49.2895 102.037 48.8403 102.383 48.4623C102.732 48.0844 103.144 47.792 103.618 47.5852C104.092 47.3748 104.613 47.2696 105.18 47.2696H105.463V55.7629H105.18ZM105.18 54.8912H105.335V48.1414H105.18C104.72 48.1414 104.308 48.2323 103.944 48.4142C103.581 48.5925 103.272 48.8385 103.019 49.1523C102.766 49.466 102.573 49.8262 102.441 50.2327C102.309 50.6391 102.243 51.0706 102.243 51.527C102.243 52.1331 102.359 52.6912 102.591 53.201C102.826 53.7109 103.163 54.121 103.602 54.4312C104.041 54.7414 104.566 54.8947 105.18 54.8912ZM106.137 55.7629H105.848V47.2696H106.137C106.701 47.2696 107.219 47.3748 107.694 47.5852C108.171 47.792 108.583 48.0844 108.929 48.4623C109.278 48.8403 109.549 49.2895 109.742 49.8101C109.935 50.3307 110.031 50.903 110.031 51.527C110.031 52.1438 109.935 52.7108 109.742 53.2278C109.549 53.7448 109.278 54.1941 108.929 54.5756C108.583 54.9535 108.171 55.2459 107.694 55.4527C107.219 55.6595 106.701 55.7629 106.137 55.7629ZM106.137 54.8912C106.597 54.8912 107.007 54.8038 107.367 54.6291C107.731 54.4508 108.039 54.2048 108.293 53.891C108.549 53.5772 108.744 53.2189 108.876 52.816C109.007 52.4095 109.073 51.9798 109.073 51.527C109.073 50.9208 108.956 50.361 108.72 49.8476C108.489 49.3341 108.154 48.9223 107.715 48.6121C107.276 48.2983 106.75 48.1414 106.137 48.1414H105.977V54.8912H106.137ZM115.443 55.7629C114.677 55.7629 114.014 55.5847 113.454 55.2281C112.894 54.868 112.461 54.3706 112.154 53.7359C111.851 53.0976 111.7 52.3631 111.7 51.5323C111.7 50.7051 111.851 49.9706 112.154 49.3288C112.461 48.6834 112.883 48.1788 113.422 47.8152C113.964 47.4479 114.589 47.2643 115.299 47.2643C115.745 47.2643 116.174 47.3463 116.588 47.5103C117.002 47.6707 117.372 47.9186 117.7 48.2537C118.032 48.5853 118.294 49.0043 118.487 49.5106C118.679 50.0134 118.776 50.6088 118.776 51.297V51.7677H112.357V50.928H117.802C117.802 50.4002 117.695 49.926 117.481 49.5053C117.271 49.081 116.977 48.7458 116.599 48.4998C116.224 48.2537 115.791 48.1307 115.299 48.1307C114.778 48.1307 114.32 48.2698 113.924 48.5479C113.529 48.826 113.218 49.1933 112.994 49.6497C112.773 50.1061 112.66 50.6053 112.657 51.1472V51.65C112.657 52.3025 112.769 52.873 112.994 53.3615C113.222 53.8464 113.545 54.2226 113.962 54.49C114.379 54.7574 114.873 54.8912 115.443 54.8912C115.832 54.8912 116.173 54.8305 116.465 54.7093C116.761 54.5881 117.009 54.4258 117.208 54.2226C117.412 54.0158 117.565 53.7894 117.668 53.5433L118.572 53.8375C118.447 54.1834 118.242 54.5025 117.957 54.7949C117.676 55.0873 117.323 55.3226 116.898 55.5009C116.477 55.6756 115.993 55.7629 115.443 55.7629ZM124.083 55.7629C123.348 55.7629 122.708 55.5793 122.162 55.2121C121.62 54.8448 121.2 54.342 120.9 53.7038C120.601 53.0655 120.451 52.3382 120.451 51.5216C120.451 50.698 120.602 49.9652 120.906 49.3234C121.212 48.6816 121.636 48.1788 122.178 47.8152C122.72 47.4479 123.35 47.2643 124.066 47.2643C124.616 47.2643 125.113 47.3712 125.559 47.5852C126.004 47.7955 126.372 48.0933 126.66 48.4784C126.953 48.8599 127.136 49.3056 127.211 49.8155H126.249C126.149 49.3519 125.908 48.9562 125.527 48.6281C125.149 48.2965 124.667 48.1307 124.083 48.1307C123.558 48.1307 123.095 48.2733 122.692 48.5586C122.289 48.8403 121.973 49.2343 121.745 49.7406C121.521 50.2434 121.408 50.8263 121.408 51.4895C121.408 52.1563 121.519 52.7464 121.74 53.2599C121.961 53.7698 122.271 54.1691 122.671 54.4579C123.073 54.7467 123.544 54.8912 124.083 54.8912C124.446 54.8912 124.778 54.8234 125.077 54.6879C125.38 54.5488 125.634 54.3527 125.837 54.0996C126.044 53.8464 126.183 53.5451 126.254 53.1957H127.217C127.145 53.6913 126.969 54.1335 126.687 54.5221C126.409 54.9072 126.047 55.2103 125.601 55.4313C125.159 55.6524 124.653 55.7629 124.083 55.7629ZM132.466 55.7629C131.732 55.7629 131.092 55.5793 130.546 55.2121C130.004 54.8448 129.583 54.342 129.284 53.7038C128.984 53.0655 128.835 52.3382 128.835 51.5216C128.835 50.698 128.986 49.9652 129.289 49.3234C129.596 48.6816 130.02 48.1788 130.562 47.8152C131.104 47.4479 131.733 47.2643 132.45 47.2643C132.999 47.2643 133.497 47.3712 133.942 47.5852C134.388 47.7955 134.755 48.0933 135.044 48.4784C135.337 48.8599 135.52 49.3056 135.595 49.8155H134.632C134.532 49.3519 134.292 48.9562 133.91 48.6281C133.532 48.2965 133.051 48.1307 132.466 48.1307C131.942 48.1307 131.479 48.2733 131.076 48.5586C130.673 48.8403 130.357 49.2343 130.129 49.7406C129.904 50.2434 129.792 50.8263 129.792 51.4895C129.792 52.1563 129.903 52.7464 130.124 53.2599C130.345 53.7698 130.655 54.1691 131.054 54.4579C131.457 54.7467 131.928 54.8912 132.466 54.8912C132.83 54.8912 133.162 54.8234 133.461 54.6879C133.764 54.5488 134.017 54.3527 134.22 54.0996C134.427 53.8464 134.566 53.5451 134.638 53.1957H135.6C135.529 53.6913 135.353 54.1335 135.071 54.5221C134.793 54.9072 134.431 55.2103 133.985 55.4313C133.543 55.6524 133.037 55.7629 132.466 55.7629ZM138.593 54.2386L142.93 47.3766H144.07V55.5918H143.118V48.7297L138.796 55.5918H137.641V47.3766H138.593V54.2386ZM149.776 55.7629C149.067 55.7629 148.439 55.5829 147.894 55.2228C147.352 54.8626 146.928 54.3652 146.621 53.7305C146.314 53.0923 146.161 52.356 146.161 51.5216C146.161 50.6801 146.314 49.9403 146.621 49.302C146.928 48.6602 147.352 48.161 147.894 47.8045C148.439 47.4443 149.067 47.2643 149.776 47.2643C150.486 47.2643 151.112 47.4443 151.654 47.8045C152.196 48.1646 152.62 48.6638 152.927 49.302C153.237 49.9403 153.392 50.6801 153.392 51.5216C153.392 52.356 153.239 53.0923 152.932 53.7305C152.625 54.3652 152.199 54.8626 151.654 55.2228C151.112 55.5829 150.486 55.7629 149.776 55.7629ZM149.776 54.8912C150.347 54.8912 150.83 54.7378 151.226 54.4312C151.622 54.1245 151.921 53.7163 152.124 53.2064C152.331 52.6965 152.435 52.1349 152.435 51.5216C152.435 50.9083 152.331 50.345 152.124 49.8315C151.921 49.3181 151.622 48.9062 151.226 48.596C150.83 48.2858 150.347 48.1307 149.776 48.1307C149.21 48.1307 148.726 48.2858 148.327 48.596C147.931 48.9062 147.63 49.3181 147.423 49.8315C147.22 50.345 147.118 50.9083 147.118 51.5216C147.118 52.1349 147.22 52.6965 147.423 53.2064C147.63 53.7163 147.931 54.1245 148.327 54.4312C148.723 54.7378 149.206 54.8912 149.776 54.8912ZM161.028 51.0403V51.9388H156.199V51.0403H161.028ZM156.434 47.3766V55.5918H155.482V47.3766H156.434ZM161.729 47.3766V55.5918H160.777V47.3766H161.729ZM166.557 55.779C166.062 55.779 165.609 55.6827 165.199 55.4902C164.789 55.2941 164.462 55.0124 164.22 54.6451C163.977 54.2743 163.856 53.825 163.856 53.2973C163.856 52.8908 163.933 52.5485 164.086 52.2704C164.24 51.9923 164.457 51.7641 164.739 51.5858C165.02 51.4075 165.354 51.2667 165.739 51.1633C166.124 51.0599 166.548 50.9797 167.012 50.9226C167.472 50.8656 167.86 50.8156 168.178 50.7728C168.499 50.7301 168.743 50.6623 168.911 50.5696C169.078 50.4769 169.162 50.3271 169.162 50.1203V49.9278C169.162 49.368 168.994 48.9276 168.659 48.6067C168.328 48.2823 167.85 48.12 167.226 48.12C166.634 48.12 166.151 48.2502 165.776 48.5105C165.406 48.7707 165.145 49.0774 164.995 49.4304L164.092 49.1041C164.277 48.6549 164.534 48.2965 164.862 48.0291C165.19 47.7581 165.557 47.5638 165.964 47.4461C166.37 47.3249 166.782 47.2643 167.199 47.2643C167.513 47.2643 167.839 47.3053 168.178 47.3873C168.52 47.4693 168.837 47.6119 169.13 47.8152C169.422 48.0148 169.659 48.2947 169.841 48.6549C170.023 49.0114 170.114 49.4643 170.114 50.0134V55.5918H169.162V54.2921H169.103C168.989 54.5346 168.82 54.7699 168.595 54.9981C168.37 55.2263 168.089 55.4135 167.75 55.5597C167.411 55.7059 167.014 55.779 166.557 55.779ZM166.686 54.9072C167.192 54.9072 167.63 54.7949 168.001 54.5702C168.372 54.3456 168.657 54.0479 168.857 53.6771C169.06 53.3027 169.162 52.8908 169.162 52.4416V51.2542C169.091 51.322 168.971 51.3826 168.804 51.4361C168.64 51.4895 168.449 51.5377 168.231 51.5805C168.017 51.6197 167.803 51.6536 167.589 51.6821C167.376 51.7106 167.183 51.7356 167.012 51.757C166.548 51.814 166.153 51.9032 165.824 52.0244C165.496 52.1456 165.245 52.3132 165.07 52.5271C164.896 52.7375 164.808 53.0085 164.808 53.3401C164.808 53.8393 164.987 54.2262 165.343 54.5007C165.7 54.7717 166.147 54.9072 166.686 54.9072ZM171.839 55.5918V54.6933H172.096C172.388 54.6933 172.623 54.6398 172.802 54.5328C172.983 54.4223 173.124 54.2369 173.224 53.9766C173.324 53.7163 173.399 53.3615 173.449 52.9122C173.499 52.463 173.538 51.8996 173.566 51.2221L173.743 47.3766H178.963V55.5918H178.006V48.2751H174.647L174.492 51.543C174.46 52.2098 174.406 52.7963 174.331 53.3027C174.26 53.809 174.142 54.2315 173.978 54.5702C173.818 54.909 173.593 55.1639 173.304 55.3351C173.019 55.5062 172.645 55.5918 172.181 55.5918H171.839ZM182.278 50.5482H184.679C185.603 50.5482 186.316 50.7728 186.818 51.2221C187.321 51.6714 187.573 52.2793 187.573 53.0459C187.573 53.5558 187.46 54.0015 187.236 54.383C187.011 54.7646 186.683 55.0623 186.252 55.2762C185.82 55.4866 185.296 55.5918 184.679 55.5918H181.486V47.3766H182.438V54.6933H184.679C185.26 54.6933 185.729 54.5542 186.086 54.2761C186.442 53.998 186.621 53.6022 186.621 53.0887C186.621 52.5646 186.442 52.1599 186.086 51.8746C185.729 51.5894 185.26 51.4468 184.679 51.4468H182.278V50.5482ZM195.21 51.0403V51.9388H190.381V51.0403H195.21ZM190.616 47.3766V55.5918H189.664V47.3766H190.616ZM195.911 47.3766V55.5918H194.959V47.3766H195.911ZM199.247 50.5482H201.654C202.577 50.5482 203.29 50.7728 203.793 51.2221C204.296 51.6714 204.547 52.2793 204.547 53.0459C204.547 53.5558 204.433 54.0015 204.205 54.383C203.98 54.7646 203.652 55.0623 203.221 55.2762C202.789 55.4866 202.267 55.5918 201.654 55.5918H198.455V47.3766H199.413V54.6933H201.654C202.235 54.6933 202.702 54.5542 203.055 54.2761C203.412 53.998 203.59 53.6022 203.59 53.0887C203.59 52.5646 203.412 52.1599 203.055 51.8746C202.702 51.5894 202.235 51.4468 201.654 51.4468H199.247V50.5482ZM205.932 55.5918V47.3766H206.884V55.5918H205.932ZM210.369 54.2386L214.707 47.3766H215.846V55.5918H214.894V48.7297L210.572 55.5918H209.417V47.3766H210.369V54.2386ZM213.616 44.6382H214.514C214.514 45.1481 214.345 45.5617 214.006 45.879C213.671 46.1964 213.213 46.355 212.631 46.355C212.057 46.355 211.603 46.1964 211.268 45.879C210.932 45.5617 210.765 45.1481 210.765 44.6382H211.663C211.663 44.9163 211.738 45.1516 211.888 45.3442C212.041 45.5332 212.289 45.6276 212.631 45.6276C212.974 45.6276 213.223 45.5332 213.38 45.3442C213.537 45.1516 213.616 44.9163 213.616 44.6382ZM222.596 58.6725V47.3766H223.521V48.9437H223.633C223.747 48.6976 223.904 48.4463 224.104 48.1895C224.303 47.9293 224.567 47.71 224.895 47.5317C225.227 47.3534 225.644 47.2643 226.147 47.2643C226.824 47.2643 227.416 47.4425 227.923 47.7991C228.432 48.1521 228.828 48.6477 229.11 49.286C229.395 49.9207 229.538 50.6605 229.538 51.5056C229.538 52.3542 229.395 53.0976 229.11 53.7359C228.828 54.3741 228.432 54.8715 227.923 55.2281C227.416 55.5847 226.828 55.7629 226.158 55.7629C225.662 55.7629 225.247 55.6738 224.911 55.4955C224.58 55.3172 224.311 55.098 224.104 54.8377C223.901 54.5738 223.744 54.3171 223.633 54.0675H223.548V58.6725H222.596ZM223.537 51.4895C223.537 52.1527 223.635 52.7411 223.831 53.2545C224.031 53.7644 224.316 54.1655 224.687 54.4579C225.061 54.7467 225.514 54.8912 226.045 54.8912C226.591 54.8912 227.051 54.7414 227.425 54.4419C227.803 54.1388 228.09 53.7305 228.286 53.2171C228.486 52.7036 228.586 52.1278 228.586 51.4895C228.586 50.8584 228.488 50.2897 228.292 49.7834C228.099 49.2771 227.814 48.8759 227.436 48.58C227.058 48.2805 226.594 48.1307 226.045 48.1307C225.51 48.1307 225.056 48.2751 224.681 48.5639C224.307 48.8492 224.022 49.245 223.826 49.7513C223.633 50.254 223.537 50.8335 223.537 51.4895ZM234.948 55.7629C234.181 55.7629 233.518 55.5847 232.958 55.2281C232.398 54.868 231.965 54.3706 231.658 53.7359C231.355 53.0976 231.204 52.3631 231.204 51.5323C231.204 50.7051 231.355 49.9706 231.658 49.3288C231.965 48.6834 232.388 48.1788 232.926 47.8152C233.468 47.4479 234.094 47.2643 234.803 47.2643C235.249 47.2643 235.679 47.3463 236.092 47.5103C236.506 47.6707 236.877 47.9186 237.205 48.2537C237.536 48.5853 237.799 49.0043 237.991 49.5106C238.184 50.0134 238.28 50.6088 238.28 51.297V51.7677H231.862V50.928H237.306C237.306 50.4002 237.199 49.926 236.986 49.5053C236.775 49.081 236.481 48.7458 236.103 48.4998C235.729 48.2537 235.295 48.1307 234.803 48.1307C234.283 48.1307 233.825 48.2698 233.429 48.5479C233.033 48.826 232.723 49.1933 232.498 49.6497C232.277 50.1061 232.165 50.6053 232.161 51.1472V51.65C232.161 52.3025 232.274 52.873 232.498 53.3615C232.726 53.8464 233.049 54.2226 233.466 54.49C233.883 54.7574 234.377 54.8912 234.948 54.8912C235.336 54.8912 235.677 54.8305 235.969 54.7093C236.265 54.5881 236.513 54.4258 236.713 54.2226C236.916 54.0158 237.069 53.7894 237.173 53.5433L238.077 53.8375C237.952 54.1834 237.747 54.5025 237.462 54.7949C237.18 55.0873 236.827 55.3226 236.403 55.5009C235.982 55.6756 235.497 55.7629 234.948 55.7629ZM244.673 54.26L247.759 47.3766H248.684L245.052 55.5918H244.293L240.704 47.3766H241.613L244.673 54.26ZM241.33 47.3766V55.5918H240.378V47.3766H241.33ZM248.015 55.5918V47.3766H248.967V55.5918H248.015ZM254.69 55.7629C253.981 55.7629 253.353 55.5829 252.808 55.2228C252.266 54.8626 251.841 54.3652 251.535 53.7305C251.228 53.0923 251.075 52.356 251.075 51.5216C251.075 50.6801 251.228 49.9403 251.535 49.302C251.841 48.6602 252.266 48.161 252.808 47.8045C253.353 47.4443 253.981 47.2643 254.69 47.2643C255.4 47.2643 256.026 47.4443 256.568 47.8045C257.11 48.1646 257.534 48.6638 257.84 49.302C258.151 49.9403 258.306 50.6801 258.306 51.5216C258.306 52.356 258.152 53.0923 257.846 53.7305C257.539 54.3652 257.113 54.8626 256.568 55.2228C256.026 55.5829 255.4 55.7629 254.69 55.7629ZM254.69 54.8912C255.261 54.8912 255.744 54.7378 256.14 54.4312C256.535 54.1245 256.835 53.7163 257.038 53.2064C257.245 52.6965 257.348 52.1349 257.348 51.5216C257.348 50.9083 257.245 50.345 257.038 49.8315C256.835 49.3181 256.535 48.9062 256.14 48.596C255.744 48.2858 255.261 48.1307 254.69 48.1307C254.123 48.1307 253.64 48.2858 253.241 48.596C252.845 48.9062 252.544 49.3181 252.337 49.8315C252.134 50.345 252.032 50.9083 252.032 51.5216C252.032 52.1349 252.134 52.6965 252.337 53.2064C252.544 53.7163 252.845 54.1245 253.241 54.4312C253.637 54.7378 254.12 54.8912 254.69 54.8912ZM265.942 51.0403V51.9388H261.112V51.0403H265.942ZM261.348 47.3766V55.5918H260.396V47.3766H261.348ZM266.643 47.3766V55.5918H265.691V47.3766H266.643ZM268.027 48.2751V47.3766H274.445V48.2751H271.728V55.5918H270.776V48.2751H268.027ZM74.0826 72.2386L78.4202 65.3766H79.5594V73.5918H78.6074V66.7297L74.2858 73.5918H73.1305V65.3766H74.0826V72.2386ZM89.5021 73.7629C88.7926 73.7629 88.165 73.5829 87.6195 73.2228C87.0775 72.8626 86.6532 72.3652 86.3466 71.7305C86.0399 71.0923 85.8866 70.356 85.8866 69.5216C85.8866 68.6801 86.0399 67.9403 86.3466 67.302C86.6532 66.6602 87.0775 66.161 87.6195 65.8045C88.165 65.4443 88.7926 65.2643 89.5021 65.2643C90.2117 65.2643 90.8375 65.4443 91.3794 65.8045C91.9214 66.1646 92.3457 66.6638 92.6524 67.302C92.9626 67.9403 93.1177 68.6801 93.1177 69.5216C93.1177 70.356 92.9644 71.0923 92.6577 71.7305C92.3511 72.3652 91.925 72.8626 91.3794 73.2228C90.8375 73.5829 90.2117 73.7629 89.5021 73.7629ZM89.5021 72.8912C90.0726 72.8912 90.5558 72.7378 90.9516 72.4312C91.3474 72.1245 91.6469 71.7163 91.8501 71.2064C92.0569 70.6965 92.1603 70.1349 92.1603 69.5216C92.1603 68.9083 92.0569 68.345 91.8501 67.8315C91.6469 67.3181 91.3474 66.9062 90.9516 66.596C90.5558 66.2858 90.0726 66.1307 89.5021 66.1307C88.9352 66.1307 88.4521 66.2858 88.0527 66.596C87.6569 66.9062 87.3556 67.3181 87.1488 67.8315C86.9456 68.345 86.844 68.9083 86.844 69.5216C86.844 70.1349 86.9456 70.6965 87.1488 71.2064C87.3556 71.7163 87.6569 72.1245 88.0527 72.4312C88.4485 72.7378 88.9316 72.8912 89.5021 72.8912ZM101.123 62.2959L101.62 62.9003C101.396 63.1178 101.127 63.2675 100.813 63.3495C100.503 63.428 100.155 63.4725 99.7698 63.4832C99.3883 63.4939 98.9765 63.51 98.5343 63.5314C97.8996 63.5635 97.3773 63.7293 96.9672 64.0288C96.5572 64.3247 96.2452 64.7526 96.0313 65.3124C95.8209 65.8686 95.689 66.5479 95.6355 67.3502H95.7424C96.017 66.7904 96.4039 66.3643 96.903 66.0719C97.4058 65.7795 97.9585 65.6333 98.5611 65.6333C99.1922 65.6333 99.7591 65.7884 100.262 66.0986C100.768 66.4053 101.168 66.8563 101.46 67.4518C101.756 68.0437 101.904 68.7657 101.904 69.6179C101.904 70.4594 101.756 71.1921 101.46 71.8161C101.164 72.4365 100.75 72.9161 100.219 73.2548C99.6878 73.5936 99.0656 73.7629 98.3525 73.7629C97.6358 73.7629 97.0082 73.5954 96.4698 73.2602C95.935 72.9215 95.5196 72.4241 95.2236 71.768C94.9313 71.1083 94.7851 70.2972 94.7851 69.3344V68.4733C94.7851 66.5586 95.0881 65.1181 95.6943 64.1518C96.3005 63.1855 97.2329 62.681 98.4915 62.6382C98.898 62.6239 99.2671 62.6204 99.5987 62.6275C99.9303 62.631 100.223 62.615 100.476 62.5793C100.729 62.5401 100.945 62.4456 101.123 62.2959ZM98.3525 72.8912C98.8838 72.8912 99.3437 72.7574 99.7324 72.49C100.121 72.219 100.421 71.8375 100.631 71.3454C100.845 70.8534 100.952 70.2775 100.952 69.6179C100.952 68.9618 100.843 68.402 100.626 67.9385C100.412 67.475 100.112 67.1202 99.727 66.8741C99.3419 66.6281 98.8909 66.5051 98.3739 66.5051C97.9674 66.5051 97.6019 66.5835 97.2774 66.7404C96.9565 66.8938 96.682 67.113 96.4538 67.3983C96.2256 67.6835 96.0509 68.0187 95.9296 68.4038C95.8084 68.7889 95.746 69.2114 95.7424 69.6714C95.7424 70.6662 95.9742 71.4524 96.4377 72.0301C96.9048 72.6041 97.5431 72.8912 98.3525 72.8912ZM107.197 73.7629C106.463 73.7629 105.823 73.5793 105.277 73.2121C104.735 72.8448 104.315 72.342 104.015 71.7038C103.716 71.0655 103.566 70.3382 103.566 69.5216C103.566 68.698 103.717 67.9652 104.02 67.3234C104.327 66.6816 104.751 66.1788 105.293 65.8152C105.835 65.4479 106.465 65.2643 107.181 65.2643C107.731 65.2643 108.228 65.3712 108.674 65.5852C109.119 65.7955 109.487 66.0933 109.775 66.4784C110.068 66.8599 110.251 67.3056 110.326 67.8155H109.364C109.264 67.3519 109.023 66.9562 108.642 66.6281C108.264 66.2965 107.782 66.1307 107.197 66.1307C106.673 66.1307 106.21 66.2733 105.807 66.5586C105.404 66.8403 105.088 67.2343 104.86 67.7406C104.636 68.2434 104.523 68.8263 104.523 69.4895C104.523 70.1563 104.634 70.7464 104.855 71.2599C105.076 71.7698 105.386 72.1691 105.785 72.4579C106.188 72.7467 106.659 72.8912 107.197 72.8912C107.561 72.8912 107.893 72.8234 108.192 72.6879C108.495 72.5488 108.749 72.3527 108.952 72.0996C109.159 71.8464 109.298 71.5451 109.369 71.1957H110.332C110.26 71.6913 110.084 72.1335 109.802 72.5221C109.524 72.9072 109.162 73.2103 108.716 73.4313C108.274 73.6524 107.768 73.7629 107.197 73.7629ZM111.564 73.5918V72.6933H111.821C112.114 72.6933 112.349 72.6398 112.527 72.5328C112.709 72.4223 112.85 72.2369 112.95 71.9766C113.05 71.7163 113.124 71.3615 113.174 70.9122C113.224 70.463 113.264 69.8996 113.292 69.2221L113.469 65.3766H118.689V73.5918H117.731V66.2751H114.372L114.217 69.543C114.185 70.2098 114.132 70.7963 114.057 71.3027C113.986 71.809 113.868 72.2315 113.704 72.5702C113.543 72.909 113.319 73.1639 113.03 73.3351C112.745 73.5062 112.37 73.5918 111.907 73.5918H111.564ZM121.581 76.6725C121.392 76.6725 121.215 76.6547 121.051 76.619C120.887 76.5834 120.757 76.5441 120.661 76.5014L120.918 75.6616C121.242 75.7615 121.531 75.7971 121.784 75.7686C122.037 75.7437 122.262 75.6296 122.458 75.4263C122.654 75.2266 122.829 74.92 122.982 74.5064L123.282 73.672L120.26 65.3766H121.292L123.731 72.3349H123.806L126.245 65.3766H127.277L123.8 74.8915C123.654 75.2873 123.474 75.6171 123.26 75.8809C123.046 76.1484 122.798 76.3462 122.517 76.4746C122.239 76.6065 121.927 76.6725 121.581 76.6725ZM128.626 73.5918L132.252 69.4414L128.674 65.3766H129.835L132.985 69.0296H133.536V65.3766H134.493V69.0296H135.033L138.184 65.3766H139.344L135.777 69.4414L139.392 73.5918H138.216L135.017 69.9281H134.493V73.5918H133.536V69.9281H133.012L129.803 73.5918H128.626ZM142.343 72.2386L146.681 65.3766H147.82V73.5918H146.868V66.7297L142.547 73.5918H141.391V65.3766H142.343V72.2386ZM150.334 73.5918V65.3766H153.57C154.443 65.3766 155.132 65.5656 155.634 65.9435C156.141 66.3215 156.394 66.8314 156.394 67.4732C156.394 67.9617 156.253 68.3521 155.971 68.6445C155.69 68.9369 155.312 69.1437 154.837 69.2649C155.155 69.3184 155.449 69.4343 155.72 69.6126C155.994 69.7908 156.217 70.0262 156.388 70.3185C156.56 70.6109 156.645 70.9604 156.645 71.3668C156.645 71.7947 156.538 72.1762 156.324 72.5114C156.11 72.8466 155.809 73.1104 155.42 73.303C155.032 73.4955 154.572 73.5918 154.04 73.5918H150.334ZM151.243 72.7093H154.04C154.543 72.7093 154.941 72.5809 155.233 72.3242C155.526 72.0639 155.672 71.7181 155.672 71.2866C155.672 70.8267 155.533 70.4594 155.255 70.1848C154.98 69.9067 154.611 69.7677 154.147 69.7677H151.243V72.7093ZM151.243 68.9226H153.629C153.999 68.9226 154.32 68.8656 154.591 68.7515C154.862 68.6374 155.071 68.4769 155.217 68.2701C155.367 68.0597 155.44 67.8137 155.436 67.532C155.436 67.1291 155.272 66.8171 154.944 66.596C154.616 66.3714 154.158 66.2591 153.57 66.2591H151.243V68.9226ZM161.027 73.779C160.531 73.779 160.078 73.6827 159.668 73.4902C159.258 73.2941 158.932 73.0124 158.69 72.6451C158.447 72.2743 158.326 71.825 158.326 71.2973C158.326 70.8908 158.403 70.5485 158.556 70.2704C158.709 69.9923 158.927 69.7641 159.208 69.5858C159.49 69.4075 159.824 69.2667 160.209 69.1633C160.594 69.0599 161.018 68.9797 161.482 68.9226C161.941 68.8656 162.33 68.8156 162.647 68.7728C162.968 68.7301 163.213 68.6623 163.38 68.5696C163.548 68.4769 163.632 68.3271 163.632 68.1203V67.9278C163.632 67.368 163.464 66.9276 163.129 66.6067C162.797 66.2823 162.319 66.12 161.695 66.12C161.104 66.12 160.62 66.2502 160.246 66.5105C159.875 66.7707 159.615 67.0774 159.465 67.4304L158.561 67.1041C158.747 66.6549 159.003 66.2965 159.331 66.0291C159.659 65.7581 160.027 65.5638 160.433 65.4461C160.84 65.3249 161.252 65.2643 161.669 65.2643C161.982 65.2643 162.309 65.3053 162.647 65.3873C162.99 65.4693 163.307 65.6119 163.6 65.8152C163.892 66.0148 164.129 66.2947 164.311 66.6549C164.493 67.0114 164.584 67.4643 164.584 68.0134V73.5918H163.632V72.2921H163.573C163.459 72.5346 163.289 72.7699 163.065 72.9981C162.84 73.2263 162.558 73.4135 162.22 73.5597C161.881 73.7059 161.483 73.779 161.027 73.779ZM161.155 72.9072C161.662 72.9072 162.1 72.7949 162.471 72.5702C162.842 72.3456 163.127 72.0479 163.327 71.6771C163.53 71.3027 163.632 70.8908 163.632 70.4416V69.2542C163.56 69.322 163.441 69.3826 163.273 69.4361C163.109 69.4895 162.918 69.5377 162.701 69.5805C162.487 69.6197 162.273 69.6536 162.059 69.6821C161.845 69.7106 161.653 69.7356 161.482 69.757C161.018 69.814 160.622 69.9032 160.294 70.0244C159.966 70.1456 159.715 70.3132 159.54 70.5271C159.365 70.7375 159.278 71.0085 159.278 71.3401C159.278 71.8393 159.456 72.2262 159.813 72.5007C160.169 72.7717 160.617 72.9072 161.155 72.9072ZM172.662 69.0403V69.9388H167.833V69.0403H172.662ZM168.068 65.3766V73.5918H167.116V65.3766H168.068ZM173.363 65.3766V73.5918H172.411V65.3766H173.363ZM176.849 72.2386L181.187 65.3766H182.326V73.5918H181.374V66.7297L177.052 73.5918H175.897V65.3766H176.849V72.2386ZM188.161 73.7629C187.394 73.7629 186.731 73.5847 186.171 73.2281C185.611 72.868 185.178 72.3706 184.872 71.7359C184.569 71.0976 184.417 70.3631 184.417 69.5323C184.417 68.7051 184.569 67.9706 184.872 67.3288C185.178 66.6834 185.601 66.1788 186.139 65.8152C186.681 65.4479 187.307 65.2643 188.017 65.2643C188.462 65.2643 188.892 65.3463 189.305 65.5103C189.719 65.6707 190.09 65.9186 190.418 66.2537C190.75 66.5853 191.012 67.0043 191.204 67.5106C191.397 68.0134 191.493 68.6088 191.493 69.297V69.7677H185.075V68.928H190.52C190.52 68.4002 190.413 67.926 190.199 67.5053C189.988 67.081 189.694 66.7458 189.316 66.4998C188.942 66.2537 188.509 66.1307 188.017 66.1307C187.496 66.1307 187.038 66.2698 186.642 66.5479C186.246 66.826 185.936 67.1933 185.711 67.6497C185.49 68.1061 185.378 68.6053 185.374 69.1472V69.65C185.374 70.3025 185.487 70.873 185.711 71.3615C185.94 71.8464 186.262 72.2226 186.679 72.49C187.097 72.7574 187.59 72.8912 188.161 72.8912C188.55 72.8912 188.89 72.8305 189.182 72.7093C189.478 72.5881 189.726 72.4258 189.926 72.2226C190.129 72.0158 190.282 71.7894 190.386 71.5433L191.29 71.8375C191.165 72.1834 190.96 72.5025 190.675 72.7949C190.393 73.0873 190.04 73.3226 189.616 73.5009C189.195 73.6756 188.71 73.7629 188.161 73.7629ZM201.02 73.7629C200.31 73.7629 199.683 73.5829 199.137 73.2228C198.595 72.8626 198.171 72.3652 197.864 71.7305C197.558 71.0923 197.404 70.356 197.404 69.5216C197.404 68.6801 197.558 67.9403 197.864 67.302C198.171 66.6602 198.595 66.161 199.137 65.8045C199.683 65.4443 200.31 65.2643 201.02 65.2643C201.729 65.2643 202.355 65.4443 202.897 65.8045C203.439 66.1646 203.864 66.6638 204.17 67.302C204.48 67.9403 204.635 68.6801 204.635 69.5216C204.635 70.356 204.482 71.0923 204.175 71.7305C203.869 72.3652 203.443 72.8626 202.897 73.2228C202.355 73.5829 201.729 73.7629 201.02 73.7629ZM201.02 72.8912C201.59 72.8912 202.074 72.7378 202.469 72.4312C202.865 72.1245 203.165 71.7163 203.368 71.2064C203.575 70.6965 203.678 70.1349 203.678 69.5216C203.678 68.9083 203.575 68.345 203.368 67.8315C203.165 67.3181 202.865 66.9062 202.469 66.596C202.074 66.2858 201.59 66.1307 201.02 66.1307C200.453 66.1307 199.97 66.2858 199.57 66.596C199.175 66.9062 198.873 67.3181 198.667 67.8315C198.463 68.345 198.362 68.9083 198.362 69.5216C198.362 70.1349 198.463 70.6965 198.667 71.2064C198.873 71.7163 199.175 72.1245 199.57 72.4312C199.966 72.7378 200.449 72.8912 201.02 72.8912ZM206.725 73.5918V65.3766H207.677V69.0724H208.571L211.625 65.3766H212.855L209.56 69.3291L212.93 73.5918H211.699L208.865 69.9709H207.677V73.5918H206.725ZM217.346 73.7629C216.636 73.7629 216.009 73.5829 215.463 73.2228C214.921 72.8626 214.497 72.3652 214.19 71.7305C213.884 71.0923 213.731 70.356 213.731 69.5216C213.731 68.6801 213.884 67.9403 214.19 67.302C214.497 66.6602 214.921 66.161 215.463 65.8045C216.009 65.4443 216.636 65.2643 217.346 65.2643C218.056 65.2643 218.681 65.4443 219.223 65.8045C219.765 66.1646 220.19 66.6638 220.496 67.302C220.807 67.9403 220.962 68.6801 220.962 69.5216C220.962 70.356 220.808 71.0923 220.502 71.7305C220.195 72.3652 219.769 72.8626 219.223 73.2228C218.681 73.5829 218.056 73.7629 217.346 73.7629ZM217.346 72.8912C217.917 72.8912 218.4 72.7378 218.795 72.4312C219.191 72.1245 219.491 71.7163 219.694 71.2064C219.901 70.6965 220.004 70.1349 220.004 69.5216C220.004 68.9083 219.901 68.345 219.694 67.8315C219.491 67.3181 219.191 66.9062 218.795 66.596C218.4 66.2858 217.917 66.1307 217.346 66.1307C216.779 66.1307 216.296 66.2858 215.897 66.596C215.501 66.9062 215.2 67.3181 214.993 67.8315C214.789 68.345 214.688 68.9083 214.688 69.5216C214.688 70.1349 214.789 70.6965 214.993 71.2064C215.2 71.7163 215.501 72.1245 215.897 72.4312C216.292 72.7378 216.776 72.8912 217.346 72.8912ZM228.598 69.0403V69.9388H223.768V69.0403H228.598ZM224.004 65.3766V73.5918H223.052V65.3766H224.004ZM229.298 65.3766V73.5918H228.346V65.3766H229.298ZM237.379 69.0403V69.9388H232.549V69.0403H237.379ZM232.784 65.3766V73.5918H231.832V65.3766H232.784ZM238.079 65.3766V73.5918H237.127V65.3766H238.079ZM241.415 68.5482H243.822C244.746 68.5482 245.459 68.7728 245.962 69.2221C246.464 69.6714 246.716 70.2793 246.716 71.0459C246.716 71.5558 246.602 72.0015 246.373 72.383C246.149 72.7646 245.821 73.0623 245.389 73.2762C244.958 73.4866 244.435 73.5918 243.822 73.5918H240.624V65.3766H241.581V72.6933H243.822C244.403 72.6933 244.87 72.5542 245.223 72.2761C245.58 71.998 245.758 71.6022 245.758 71.0887C245.758 70.5646 245.58 70.1599 245.223 69.8746C244.87 69.5894 244.403 69.4468 243.822 69.4468H241.415V68.5482ZM248.101 73.5918V65.3766H249.053V73.5918H248.101ZM252.174 65.3766L254.292 68.8798L256.41 65.3766H257.517L254.875 69.4842L257.517 73.5918H256.41L254.292 70.2009L252.174 73.5918H251.072L253.682 69.4842L251.072 65.3766H252.174ZM266.958 73.7629C266.224 73.7629 265.584 73.5793 265.038 73.2121C264.496 72.8448 264.075 72.342 263.776 71.7038C263.476 71.0655 263.327 70.3382 263.327 69.5216C263.327 68.698 263.478 67.9652 263.781 67.3234C264.088 66.6816 264.512 66.1788 265.054 65.8152C265.596 65.4479 266.225 65.2643 266.942 65.2643C267.491 65.2643 267.989 65.3712 268.434 65.5852C268.88 65.7955 269.247 66.0933 269.536 66.4784C269.829 66.8599 270.012 67.3056 270.087 67.8155H269.124C269.025 67.3519 268.784 66.9562 268.402 66.6281C268.024 66.2965 267.543 66.1307 266.958 66.1307C266.434 66.1307 265.971 66.2733 265.568 66.5586C265.165 66.8403 264.849 67.2343 264.621 67.7406C264.396 68.2434 264.284 68.8263 264.284 69.4895C264.284 70.1563 264.395 70.7464 264.616 71.2599C264.837 71.7698 265.147 72.1691 265.546 72.4579C265.949 72.7467 266.42 72.8912 266.958 72.8912C267.322 72.8912 267.654 72.8234 267.953 72.6879C268.256 72.5488 268.509 72.3527 268.713 72.0996C268.919 71.8464 269.058 71.5451 269.13 71.1957H270.092C270.021 71.6913 269.845 72.1335 269.563 72.5221C269.285 72.9072 268.923 73.2103 268.477 73.4313C268.035 73.6524 267.529 73.7629 266.958 73.7629ZM273.085 72.2386L277.422 65.3766H278.562V73.5918H277.61V66.7297L273.288 73.5918H272.133V65.3766H273.085V72.2386ZM284.285 73.7629C283.55 73.7629 282.91 73.5793 282.364 73.2121C281.822 72.8448 281.402 72.342 281.102 71.7038C280.803 71.0655 280.653 70.3382 280.653 69.5216C280.653 68.698 280.804 67.9652 281.108 67.3234C281.414 66.6816 281.839 66.1788 282.38 65.8152C282.922 65.4479 283.552 65.2643 284.268 65.2643C284.818 65.2643 285.315 65.3712 285.761 65.5852C286.206 65.7955 286.574 66.0933 286.862 66.4784C287.155 66.8599 287.338 67.3056 287.413 67.8155H286.451C286.351 67.3519 286.11 66.9562 285.729 66.6281C285.351 66.2965 284.869 66.1307 284.285 66.1307C283.76 66.1307 283.297 66.2733 282.894 66.5586C282.491 66.8403 282.175 67.2343 281.947 67.7406C281.723 68.2434 281.61 68.8263 281.61 69.4895C281.61 70.1563 281.721 70.7464 281.942 71.2599C282.163 71.7698 282.473 72.1691 282.873 72.4579C283.275 72.7467 283.746 72.8912 284.285 72.8912C284.648 72.8912 284.98 72.8234 285.279 72.6879C285.582 72.5488 285.836 72.3527 286.039 72.0996C286.246 71.8464 286.385 71.5451 286.456 71.1957H287.419C287.347 71.6913 287.171 72.1335 286.889 72.5221C286.611 72.9072 286.249 73.2103 285.803 73.4313C285.361 73.6524 284.855 73.7629 284.285 73.7629ZM288.78 66.2751V65.3766H295.198V66.2751H292.481V73.5918H291.529V66.2751H288.78ZM300.105 73.7629C299.339 73.7629 298.675 73.5847 298.116 73.2281C297.556 72.868 297.123 72.3706 296.816 71.7359C296.513 71.0976 296.361 70.3631 296.361 69.5323C296.361 68.7051 296.513 67.9706 296.816 67.3288C297.123 66.6834 297.545 66.1788 298.084 65.8152C298.625 65.4479 299.251 65.2643 299.961 65.2643C300.407 65.2643 300.836 65.3463 301.25 65.5103C301.663 65.6707 302.034 65.9186 302.362 66.2537C302.694 66.5853 302.956 67.0043 303.148 67.5106C303.341 68.0134 303.437 68.6088 303.437 69.297V69.7677H297.019V68.928H302.464C302.464 68.4002 302.357 67.926 302.143 67.5053C301.933 67.081 301.638 66.7458 301.26 66.4998C300.886 66.2537 300.453 66.1307 299.961 66.1307C299.44 66.1307 298.982 66.2698 298.586 66.5479C298.19 66.826 297.88 67.1933 297.656 67.6497C297.435 68.1061 297.322 68.6053 297.319 69.1472V69.65C297.319 70.3025 297.431 70.873 297.656 71.3615C297.884 71.8464 298.207 72.2226 298.624 72.49C299.041 72.7574 299.535 72.8912 300.105 72.8912C300.494 72.8912 300.834 72.8305 301.127 72.7093C301.423 72.5881 301.671 72.4258 301.87 72.2226C302.073 72.0158 302.227 71.7894 302.33 71.5433L303.234 71.8375C303.109 72.1834 302.904 72.5025 302.619 72.7949C302.337 73.0873 301.984 73.3226 301.56 73.5009C301.139 73.6756 300.654 73.7629 300.105 73.7629ZM309.83 72.26L312.916 65.3766H313.841L310.21 73.5918H309.45L305.862 65.3766H306.771L309.83 72.26ZM306.487 65.3766V73.5918H305.535V65.3766H306.487ZM313.173 73.5918V65.3766H314.125V73.5918H313.173Z" fill="#010A13"/>
</svg>
