<svg width="222" height="60" viewBox="0 0 222 60" fill="none" xmlns="http://www.w3.org/2000/svg">
<path d="M32.9604 20.5312C34.533 21.1465 35.5678 22.6627 35.5678 24.3513V25.8334C35.5678 27.3131 34.079 28.3293 32.701 27.79L18.5536 22.2541C15.8633 21.2014 12.9567 23.1852 12.9567 26.0742V43.1062C12.9567 44.7949 13.9915 46.311 15.564 46.9263L33.1282 53.7936C34.4394 54.3062 35.0291 55.8326 34.4031 57.0937C33.5834 58.7451 31.648 59.5095 29.921 58.864L11.2182 51.8727C9.64563 51.2574 8.61084 49.7413 8.61084 48.0526V17.0133C8.61084 14.1243 11.5175 12.1405 14.2078 13.1932L32.9604 20.5312Z" fill="#2D9CDB"/>
<path fill-rule="evenodd" clip-rule="evenodd" d="M2.23485 5.83395C0.886964 6.36138 0 7.66091 0 9.10831V33.0657C0 35.5419 2.4914 37.2424 4.79739 36.34L19.0799 30.7512C20.4278 30.2238 21.3148 28.9242 21.3148 27.4768V3.51949C21.3148 1.04324 18.8234 -0.657217 16.5174 0.245127L2.23485 5.83395ZM5.04383 9.82305C4.11376 10.187 3.50173 11.0837 3.50173 12.0824V28.6135C3.50173 30.3222 5.22085 31.4956 6.81204 30.8729L16.6673 27.0165C17.5974 26.6526 18.2094 25.7559 18.2094 24.7571V8.22602C18.2094 6.51735 16.4903 5.344 14.8991 5.96664L5.04383 9.82305Z" fill="#56CCF2"/>
<path d="M24.9299 38.0271C24.9299 36.0996 26.8313 34.7479 28.6518 35.3812L32.6319 36.7657C33.7581 37.1575 34.5129 38.2193 34.5129 39.4117L34.5129 39.6145C34.5129 41.542 32.6115 42.8937 30.791 42.2604L26.811 40.8759C25.6847 40.4841 24.9299 39.4224 24.9299 38.23L24.9299 38.0271Z" fill="#2D9CDB"/>
<path d="M62.7579 15.4441C62.7579 16.7844 62.5002 17.9206 61.9847 18.8525C61.4691 19.7844 60.7712 20.4922 59.8909 20.976C59.0145 21.4598 58.031 21.7017 56.9405 21.7017C55.846 21.7017 54.8606 21.4578 53.9842 20.9701C53.1078 20.4823 52.4119 19.7745 51.8963 18.8465C51.3848 17.9146 51.129 16.7805 51.129 15.4441C51.129 14.1037 51.3848 12.9676 51.8963 12.0357C52.4119 11.1038 53.1078 10.396 53.9842 9.91218C54.8606 9.42839 55.846 9.18649 56.9405 9.18649C58.031 9.18649 59.0145 9.42839 59.8909 9.91218C60.7712 10.396 61.4691 11.1038 61.9847 12.0357C62.5002 12.9676 62.7579 14.1037 62.7579 15.4441ZM59.7481 15.4441C59.7481 14.651 59.6351 13.9808 59.409 13.4336C59.187 12.8863 58.8658 12.4719 58.4454 12.1904C58.029 11.9088 57.5274 11.7681 56.9405 11.7681C56.3576 11.7681 55.8559 11.9088 55.4356 12.1904C55.0152 12.4719 54.692 12.8863 54.466 13.4336C54.2439 13.9808 54.1329 14.651 54.1329 15.4441C54.1329 16.2372 54.2439 16.9074 54.466 17.4546C54.692 18.0019 55.0152 18.4163 55.4356 18.6978C55.8559 18.9794 56.3576 19.1201 56.9405 19.1201C57.5274 19.1201 58.029 18.9794 58.4454 18.6978C58.8658 18.4163 59.187 18.0019 59.409 17.4546C59.6351 16.9074 59.7481 16.2372 59.7481 15.4441ZM71.9183 21.5352L68.0876 16.4791H67.4214V21.5352H64.477V9.35304H67.4214V14.0819H67.8913L71.6625 9.35304H75.3445L70.6513 15.105L75.5884 21.5352H71.9183ZM87.4419 15.4441C87.4419 16.7844 87.1841 17.9206 86.6686 18.8525C86.1531 19.7844 85.4552 20.4922 84.5748 20.976C83.6984 21.4598 82.715 21.7017 81.6244 21.7017C80.53 21.7017 79.5445 21.4578 78.6681 20.9701C77.7918 20.4823 77.0958 19.7745 76.5803 18.8465C76.0687 17.9146 75.813 16.7805 75.813 15.4441C75.813 14.1037 76.0687 12.9676 76.5803 12.0357C77.0958 11.1038 77.7918 10.396 78.6681 9.91218C79.5445 9.42839 80.53 9.18649 81.6244 9.18649C82.715 9.18649 83.6984 9.42839 84.5748 9.91218C85.4552 10.396 86.1531 11.1038 86.6686 12.0357C87.1841 12.9676 87.4419 14.1037 87.4419 15.4441ZM84.432 15.4441C84.432 14.651 84.319 13.9808 84.093 13.4336C83.8709 12.8863 83.5497 12.4719 83.1294 12.1904C82.713 11.9088 82.2113 11.7681 81.6244 11.7681C81.0415 11.7681 80.5399 11.9088 80.1195 12.1904C79.6992 12.4719 79.376 12.8863 79.15 13.4336C78.9279 13.9808 78.8169 14.651 78.8169 15.4441C78.8169 16.2372 78.9279 16.9074 79.15 17.4546C79.376 18.0019 79.6992 18.4163 80.1195 18.6978C80.5399 18.9794 81.0415 19.1201 81.6244 19.1201C82.2113 19.1201 82.713 18.9794 83.1294 18.6978C83.5497 18.4163 83.8709 18.0019 84.093 17.4546C84.319 16.9074 84.432 16.2372 84.432 15.4441ZM89.1609 21.5352V9.35304H92.1054V14.2425H96.9056V9.35304H99.8441V21.5352H96.9056V16.6397H92.1054V21.5352H89.1609ZM101.691 21.5352V9.35304H104.635V14.2425H109.436V9.35304H112.374V21.5352H109.436V16.6397H104.635V21.5352H101.691ZM116.119 13.6477H118.831C119.826 13.6477 120.691 13.8083 121.425 14.1295C122.158 14.4507 122.725 14.9028 123.126 15.4857C123.53 16.0687 123.732 16.7547 123.732 17.5438C123.732 18.333 123.53 19.027 123.126 19.6258C122.725 20.2245 122.158 20.6925 121.425 21.0296C120.691 21.3666 119.826 21.5352 118.831 21.5352H114.281V9.35304H117.219V19.2034H118.831C119.259 19.2034 119.62 19.1301 119.914 18.9833C120.211 18.8326 120.435 18.6304 120.586 18.3766C120.74 18.1189 120.816 17.8333 120.812 17.5201C120.816 17.068 120.647 16.6913 120.306 16.3899C119.965 16.0845 119.473 15.9319 118.831 15.9319H116.119V13.6477ZM127.593 9.35304V21.5352H124.654V9.35304H127.593ZM129.434 9.35304H132.372V16.372H132.473L137.268 9.35304H139.802V21.5352H136.857V14.5043H136.78L131.926 21.5352H129.434V9.35304ZM135.816 6.11717H137.732C137.728 6.86269 137.446 7.46148 136.887 7.91355C136.332 8.36562 135.578 8.59166 134.627 8.59166C133.675 8.59166 132.92 8.36562 132.36 7.91355C131.805 7.46148 131.53 6.86269 131.534 6.11717H133.431C133.427 6.37889 133.516 6.61683 133.699 6.83096C133.881 7.0451 134.191 7.15217 134.627 7.15217C135.051 7.15217 135.354 7.04709 135.537 6.83691C135.719 6.62674 135.812 6.38682 135.816 6.11717ZM156.31 13.7667H153.336C153.296 13.4613 153.215 13.1857 153.092 12.9399C152.969 12.694 152.806 12.4838 152.604 12.3093C152.402 12.1349 152.162 12.002 151.884 11.9108C151.611 11.8156 151.307 11.7681 150.974 11.7681C150.383 11.7681 149.874 11.9128 149.445 12.2023C149.021 12.4918 148.694 12.9101 148.464 13.4574C148.238 14.0046 148.125 14.6669 148.125 15.4441C148.125 16.2531 148.24 16.9312 148.47 17.4784C148.704 18.0217 149.031 18.4321 149.451 18.7097C149.876 18.9833 150.377 19.1201 150.956 19.1201C151.281 19.1201 151.577 19.0785 151.843 18.9952C152.112 18.912 152.348 18.791 152.55 18.6324C152.757 18.4698 152.925 18.2735 153.056 18.0435C153.191 17.8095 153.284 17.5458 153.336 17.2524L156.31 17.2702C156.258 17.8095 156.102 18.3409 155.84 18.8644C155.582 19.3878 155.227 19.8657 154.775 20.2979C154.323 20.7262 153.772 21.0672 153.122 21.321C152.475 21.5748 151.734 21.7017 150.897 21.7017C149.794 21.7017 148.807 21.4598 147.935 20.976C147.066 20.4883 146.38 19.7784 145.876 18.8465C145.373 17.9146 145.121 16.7805 145.121 15.4441C145.121 14.1037 145.377 12.9676 145.888 12.0357C146.4 11.1038 147.092 10.396 147.964 9.91218C148.837 9.42839 149.814 9.18649 150.897 9.18649C151.634 9.18649 152.316 9.28959 152.943 9.4958C153.57 9.69804 154.121 9.99546 154.597 10.388C155.073 10.7767 155.459 11.2545 155.757 11.8216C156.054 12.3887 156.238 13.037 156.31 13.7667ZM157.995 21.5352V9.35304H166.489V11.7443H160.939V14.2425H166.055V16.6397H160.939V19.1439H166.489V21.5352H157.995ZM168.333 21.5352V9.35304H173.365C174.277 9.35304 175.064 9.53149 175.727 9.88839C176.393 10.2413 176.906 10.735 177.267 11.3695C177.628 12 177.808 12.7337 177.808 13.5704C177.808 14.4111 177.624 15.1467 177.255 15.7772C176.89 16.4038 176.369 16.8895 175.691 17.2345C175.013 17.5795 174.208 17.752 173.276 17.752H170.171V15.4322H172.729C173.173 15.4322 173.543 15.3549 173.841 15.2002C174.142 15.0456 174.37 14.8294 174.525 14.5519C174.68 14.2703 174.757 13.9431 174.757 13.5704C174.757 13.1937 174.68 12.8685 174.525 12.5949C174.37 12.3173 174.142 12.1031 173.841 11.9524C173.54 11.8018 173.169 11.7264 172.729 11.7264H171.277V21.5352H168.333ZM179.26 21.5352V9.35304H184.34C185.252 9.35304 186.015 9.48192 186.63 9.73968C187.248 9.99744 187.712 10.3583 188.022 10.8223C188.335 11.2862 188.492 11.8236 188.492 12.4343C188.492 12.8982 188.394 13.3126 188.2 13.6775C188.006 14.0383 187.738 14.3377 187.397 14.5756C187.056 14.8136 186.661 14.9801 186.213 15.0753V15.1943C186.705 15.2181 187.159 15.3509 187.576 15.5928C187.996 15.8347 188.333 16.1718 188.587 16.604C188.841 17.0323 188.967 17.5399 188.967 18.1268C188.967 18.7811 188.801 19.366 188.468 19.8815C188.135 20.3931 187.653 20.7976 187.022 21.095C186.392 21.3884 185.626 21.5352 184.726 21.5352H179.26ZM182.204 19.1618H184.024C184.663 19.1618 185.133 19.0408 185.434 18.7989C185.739 18.557 185.892 18.22 185.892 17.7877C185.892 17.4745 185.819 17.2048 185.672 16.9788C185.525 16.7488 185.317 16.5723 185.048 16.4494C184.778 16.3225 184.455 16.259 184.078 16.259H182.204V19.1618ZM182.204 14.3615H183.834C184.155 14.3615 184.441 14.308 184.691 14.2009C184.94 14.0938 185.135 13.9392 185.274 13.7369C185.416 13.5347 185.488 13.2908 185.488 13.0053C185.488 12.5968 185.343 12.2756 185.053 12.0417C184.764 11.8077 184.373 11.6907 183.882 11.6907H182.204V14.3615ZM190.383 9.35304H193.322V16.372H193.423L198.217 9.35304H200.751V21.5352H197.807V14.5043H197.729L192.875 21.5352H190.383V9.35304ZM213.66 13.7667H210.686C210.647 13.4613 210.565 13.1857 210.442 12.9399C210.319 12.694 210.157 12.4838 209.955 12.3093C209.752 12.1349 209.512 12.002 209.235 11.9108C208.961 11.8156 208.658 11.7681 208.325 11.7681C207.734 11.7681 207.224 11.9128 206.796 12.2023C206.372 12.4918 206.045 12.9101 205.815 13.4574C205.588 14.0046 205.475 14.6669 205.475 15.4441C205.475 16.2531 205.59 16.9312 205.82 17.4784C206.054 18.0217 206.382 18.4321 206.802 18.7097C207.226 18.9833 207.728 19.1201 208.307 19.1201C208.632 19.1201 208.927 19.0785 209.193 18.9952C209.463 18.912 209.699 18.791 209.901 18.6324C210.107 18.4698 210.276 18.2735 210.407 18.0435C210.541 17.8095 210.635 17.5458 210.686 17.2524L213.66 17.2702C213.609 17.8095 213.452 18.3409 213.19 18.8644C212.933 19.3878 212.578 19.8657 212.126 20.2979C211.674 20.7262 211.122 21.0672 210.472 21.321C209.826 21.5748 209.084 21.7017 208.247 21.7017C207.145 21.7017 206.158 21.4598 205.285 20.976C204.417 20.4883 203.731 19.7784 203.227 18.8465C202.723 17.9146 202.472 16.7805 202.472 15.4441C202.472 14.1037 202.727 12.9676 203.239 12.0357C203.75 11.1038 204.442 10.396 205.315 9.91218C206.187 9.42839 207.165 9.18649 208.247 9.18649C208.985 9.18649 209.667 9.28959 210.294 9.4958C210.92 9.69804 211.471 9.99546 211.947 10.388C212.423 10.7767 212.81 11.2545 213.107 11.8216C213.405 12.3887 213.589 13.037 213.66 13.7667Z" fill="white"/>
<path d="M56.8295 30.7938V38.4653H56.1327V31.4231H52.0011V38.4653H51.3006V30.7938H56.8295ZM58.6762 40.623V32.7117H59.3242V33.8092H59.4029C59.4828 33.6369 59.5927 33.4609 59.7325 33.2811C59.8724 33.0988 60.0572 32.9452 60.2869 32.8203C60.5192 32.6954 60.8113 32.633 61.1634 32.633C61.6379 32.633 62.0525 32.7579 62.4071 33.0076C62.7642 33.2548 63.0414 33.6019 63.2387 34.049C63.4384 34.4935 63.5383 35.0116 63.5383 35.6035C63.5383 36.1978 63.4384 36.7185 63.2387 37.1655C63.0414 37.6125 62.7642 37.9609 62.4071 38.2106C62.0525 38.4603 61.6404 38.5852 61.1709 38.5852C60.8238 38.5852 60.5329 38.5228 60.2982 38.3979C60.0659 38.273 59.8774 38.1195 59.7325 37.9372C59.5902 37.7524 59.4803 37.5726 59.4029 37.3978H59.343V40.623H58.6762ZM59.3355 35.5923C59.3355 36.0567 59.4041 36.4688 59.5415 36.8284C59.6813 37.1855 59.8811 37.4664 60.1408 37.6712C60.403 37.8735 60.7202 37.9746 61.0923 37.9746C61.4744 37.9746 61.7965 37.8697 62.0587 37.66C62.3234 37.4477 62.5244 37.1618 62.6618 36.8022C62.8016 36.4426 62.8716 36.0393 62.8716 35.5923C62.8716 35.1502 62.8029 34.7519 62.6655 34.3973C62.5307 34.0427 62.3309 33.7618 62.0662 33.5545C61.8015 33.3447 61.4769 33.2398 61.0923 33.2398C60.7177 33.2398 60.3993 33.341 60.1371 33.5433C59.8749 33.743 59.6751 34.0202 59.5377 34.3748C59.4029 34.727 59.3355 35.1328 59.3355 35.5923ZM67.2374 38.5852C66.7404 38.5852 66.3009 38.4591 65.9188 38.2069C65.5392 37.9546 65.2421 37.6063 65.0273 37.1618C64.8125 36.7148 64.7052 36.1991 64.7052 35.6147C64.7052 35.0254 64.8125 34.5072 65.0273 34.0602C65.2421 33.6107 65.5392 33.2611 65.9188 33.0113C66.3009 32.7591 66.7404 32.633 67.2374 32.633C67.7343 32.633 68.1726 32.7591 68.5522 33.0113C68.9318 33.2636 69.2289 33.6132 69.4437 34.0602C69.6609 34.5072 69.7696 35.0254 69.7696 35.6147C69.7696 36.1991 69.6622 36.7148 69.4474 37.1618C69.2327 37.6063 68.9342 37.9546 68.5522 38.2069C68.1726 38.4591 67.7343 38.5852 67.2374 38.5852ZM67.2374 37.9746C67.6369 37.9746 67.9753 37.8672 68.2525 37.6525C68.5297 37.4377 68.7395 37.1518 68.8818 36.7947C69.0266 36.4376 69.0991 36.0443 69.0991 35.6147C69.0991 35.1852 69.0266 34.7906 68.8818 34.431C68.7395 34.0714 68.5297 33.783 68.2525 33.5657C67.9753 33.3485 67.6369 33.2398 67.2374 33.2398C66.8403 33.2398 66.5019 33.3485 66.2222 33.5657C65.945 33.783 65.734 34.0714 65.5892 34.431C65.4468 34.7906 65.3757 35.1852 65.3757 35.6147C65.3757 36.0443 65.4468 36.4376 65.5892 36.7947C65.734 37.1518 65.945 37.4377 66.2222 37.6525C66.4994 37.8672 66.8378 37.9746 67.2374 37.9746ZM73.6643 40.4282V30.7938H74.3349V40.4282H73.6643ZM73.6643 38.5852C73.2673 38.5852 72.9027 38.5128 72.5705 38.3679C72.2384 38.2231 71.95 38.0183 71.7053 37.7536C71.463 37.4864 71.2745 37.1718 71.1396 36.8097C71.0048 36.4476 70.9374 36.0505 70.9374 35.6185C70.9374 35.1815 71.0048 34.7806 71.1396 34.416C71.2745 34.0515 71.463 33.7368 71.7053 33.4721C71.95 33.2074 72.2384 33.0026 72.5705 32.8578C72.9027 32.7104 73.2673 32.6368 73.6643 32.6368H73.8629V38.5852H73.6643ZM73.6643 37.9746H73.773V33.2473H73.6643C73.3422 33.2473 73.0538 33.311 72.799 33.4384C72.5443 33.5632 72.3283 33.7356 72.151 33.9553C71.9737 34.1751 71.8389 34.4273 71.7465 34.712C71.6541 34.9967 71.6079 35.2988 71.6079 35.6185C71.6079 36.043 71.689 36.4338 71.8513 36.7909C72.0162 37.148 72.2521 37.4352 72.5593 37.6525C72.8665 37.8697 73.2348 37.9771 73.6643 37.9746ZM74.3349 38.5852H74.1326V32.6368H74.3349C74.7294 32.6368 75.0928 32.7104 75.4249 32.8578C75.7595 33.0026 76.048 33.2074 76.2902 33.4721C76.5349 33.7368 76.7247 34.0515 76.8596 34.416C76.9944 34.7806 77.0618 35.1815 77.0618 35.6185C77.0618 36.0505 76.9944 36.4476 76.8596 36.8097C76.7247 37.1718 76.5349 37.4864 76.2902 37.7536C76.048 38.0183 75.7595 38.2231 75.4249 38.3679C75.0928 38.5128 74.7294 38.5852 74.3349 38.5852ZM74.3349 37.9746C74.657 37.9746 74.9442 37.9134 75.1964 37.7911C75.4511 37.6662 75.6671 37.4939 75.8444 37.2741C76.0242 37.0544 76.1603 36.8034 76.2527 36.5212C76.3451 36.2365 76.3913 35.9356 76.3913 35.6185C76.3913 35.1939 76.3089 34.8019 76.1441 34.4423C75.9818 34.0827 75.747 33.7942 75.4399 33.577C75.1327 33.3572 74.7644 33.2473 74.3349 33.2473H74.2225V37.9746H74.3349ZM80.8527 38.5852C80.3158 38.5852 79.8513 38.4603 79.4592 38.2106C79.0671 37.9584 78.7637 37.61 78.549 37.1655C78.3367 36.7185 78.2306 36.2041 78.2306 35.6222C78.2306 35.0429 78.3367 34.5284 78.549 34.0789C78.7637 33.6269 79.0596 33.2736 79.4367 33.0188C79.8163 32.7616 80.2546 32.633 80.7515 32.633C81.0637 32.633 81.3646 32.6905 81.6543 32.8053C81.944 32.9177 82.2037 33.0913 82.4334 33.326C82.6657 33.5582 82.8492 33.8517 82.9841 34.2063C83.1189 34.5584 83.1863 34.9754 83.1863 35.4574V35.787H78.6913V35.1989H82.5046C82.5046 34.8293 82.4297 34.4972 82.2798 34.2025C82.1325 33.9054 81.9265 33.6706 81.6618 33.4983C81.3996 33.326 81.0961 33.2398 80.7515 33.2398C80.3869 33.2398 80.066 33.3372 79.7888 33.532C79.5116 33.7268 79.2944 33.984 79.1371 34.3037C78.9822 34.6233 78.9036 34.9729 78.9011 35.3525V35.7046C78.9011 36.1616 78.9797 36.5612 79.1371 36.9033C79.2969 37.2429 79.5229 37.5064 79.8151 37.6937C80.1072 37.881 80.4531 37.9746 80.8527 37.9746C81.1249 37.9746 81.3633 37.9322 81.5681 37.8473C81.7754 37.7624 81.949 37.6487 82.0888 37.5064C82.2311 37.3615 82.3385 37.203 82.4109 37.0307L83.044 37.2367C82.9566 37.4789 82.813 37.7024 82.6132 37.9072C82.4159 38.112 82.1687 38.2768 81.8715 38.4017C81.5769 38.524 81.2372 38.5852 80.8527 38.5852ZM86.9032 38.5852C86.3887 38.5852 85.9405 38.4566 85.5584 38.1994C85.1788 37.9422 84.8842 37.59 84.6744 37.143C84.4646 36.696 84.3597 36.1866 84.3597 35.6147C84.3597 35.0379 84.4659 34.5247 84.6781 34.0752C84.8929 33.6257 85.1901 33.2736 85.5696 33.0188C85.9492 32.7616 86.39 32.633 86.8919 32.633C87.2765 32.633 87.6249 32.7079 87.937 32.8578C88.2492 33.0051 88.5064 33.2136 88.7087 33.4833C88.9135 33.7505 89.0421 34.0627 89.0945 34.4198H88.4203C88.3503 34.0952 88.1818 33.818 87.9146 33.5882C87.6499 33.356 87.3127 33.2398 86.9032 33.2398C86.5361 33.2398 86.2114 33.3397 85.9292 33.5395C85.6471 33.7368 85.4261 34.0127 85.2662 34.3674C85.1089 34.7195 85.0302 35.1278 85.0302 35.5923C85.0302 36.0592 85.1077 36.4725 85.2625 36.8321C85.4173 37.1892 85.6346 37.4689 85.9143 37.6712C86.1965 37.8735 86.5261 37.9746 86.9032 37.9746C87.1579 37.9746 87.3901 37.9272 87.5999 37.8323C87.8122 37.7349 87.9895 37.5975 88.1318 37.4202C88.2767 37.2429 88.3741 37.0319 88.424 36.7872H89.0983C89.0483 37.1343 88.9247 37.444 88.7274 37.7162C88.5326 37.9859 88.2792 38.1981 87.967 38.353C87.6573 38.5078 87.3027 38.5852 86.9032 38.5852ZM92.7748 38.5852C92.2604 38.5852 91.8121 38.4566 91.4301 38.1994C91.0505 37.9422 90.7558 37.59 90.546 37.143C90.3363 36.696 90.2314 36.1866 90.2314 35.6147C90.2314 35.0379 90.3375 34.5247 90.5498 34.0752C90.7645 33.6257 91.0617 33.2736 91.4413 33.0188C91.8209 32.7616 92.2616 32.633 92.7636 32.633C93.1482 32.633 93.4965 32.7079 93.8087 32.8578C94.1208 33.0051 94.3781 33.2136 94.5803 33.4833C94.7851 33.7505 94.9137 34.0627 94.9662 34.4198H94.2919C94.222 34.0952 94.0534 33.818 93.7862 33.5882C93.5215 33.356 93.1844 33.2398 92.7748 33.2398C92.4077 33.2398 92.0831 33.3397 91.8009 33.5395C91.5187 33.7368 91.2977 34.0127 91.1379 34.3674C90.9806 34.7195 90.9019 35.1278 90.9019 35.5923C90.9019 36.0592 90.9793 36.4725 91.1341 36.8321C91.289 37.1892 91.5062 37.4689 91.7859 37.6712C92.0681 37.8735 92.3977 37.9746 92.7748 37.9746C93.0295 37.9746 93.2618 37.9272 93.4716 37.8323C93.6838 37.7349 93.8611 37.5975 94.0035 37.4202C94.1483 37.2429 94.2457 37.0319 94.2956 36.7872H94.9699C94.92 37.1343 94.7963 37.444 94.5991 37.7162C94.4043 37.9859 94.1508 38.1981 93.8386 38.353C93.529 38.5078 93.1744 38.5852 92.7748 38.5852ZM97.0657 37.5176L100.104 32.7117H100.901V38.4653H100.235V33.6594L97.2081 38.4653H96.3989V32.7117H97.0657V37.5176ZM104.898 38.5852C104.401 38.5852 103.962 38.4591 103.58 38.2069C103.2 37.9546 102.903 37.6063 102.688 37.1618C102.473 36.7148 102.366 36.1991 102.366 35.6147C102.366 35.0254 102.473 34.5072 102.688 34.0602C102.903 33.6107 103.2 33.2611 103.58 33.0113C103.962 32.7591 104.401 32.633 104.898 32.633C105.395 32.633 105.834 32.7591 106.213 33.0113C106.593 33.2636 106.89 33.6132 107.105 34.0602C107.322 34.5072 107.431 35.0254 107.431 35.6147C107.431 36.1991 107.323 36.7148 107.108 37.1618C106.894 37.6063 106.595 37.9546 106.213 38.2069C105.834 38.4591 105.395 38.5852 104.898 38.5852ZM104.898 37.9746C105.298 37.9746 105.636 37.8672 105.913 37.6525C106.191 37.4377 106.4 37.1518 106.543 36.7947C106.688 36.4376 106.76 36.0443 106.76 35.6147C106.76 35.1852 106.688 34.7906 106.543 34.431C106.4 34.0714 106.191 33.783 105.913 33.5657C105.636 33.3485 105.298 33.2398 104.898 33.2398C104.501 33.2398 104.163 33.3485 103.883 33.5657C103.606 33.783 103.395 34.0714 103.25 34.431C103.108 34.7906 103.037 35.1852 103.037 35.6147C103.037 36.0443 103.108 36.4376 103.25 36.7947C103.395 37.1518 103.606 37.4377 103.883 37.6525C104.16 37.8672 104.499 37.9746 104.898 37.9746ZM112.779 35.2776V35.9069H109.396V35.2776H112.779ZM109.561 32.7117V38.4653H108.894V32.7117H109.561ZM113.269 32.7117V38.4653H112.603V32.7117H113.269ZM116.651 38.5964C116.304 38.5964 115.987 38.529 115.7 38.3942C115.412 38.2568 115.184 38.0595 115.014 37.8023C114.844 37.5426 114.759 37.2279 114.759 36.8584C114.759 36.5737 114.813 36.3339 114.92 36.1391C115.028 35.9444 115.18 35.7845 115.377 35.6597C115.575 35.5348 115.808 35.4362 116.078 35.3638C116.348 35.2913 116.645 35.2351 116.969 35.1952C117.292 35.1552 117.564 35.1203 117.786 35.0903C118.011 35.0603 118.182 35.0129 118.299 34.948C118.417 34.883 118.475 34.7782 118.475 34.6333V34.4985C118.475 34.1064 118.358 33.798 118.123 33.5732C117.891 33.346 117.556 33.2324 117.119 33.2324C116.705 33.2324 116.366 33.3235 116.104 33.5058C115.844 33.6881 115.662 33.9029 115.557 34.1501L114.924 33.9216C115.054 33.6069 115.234 33.356 115.464 33.1687C115.693 32.9789 115.95 32.8428 116.235 32.7604C116.52 32.6755 116.808 32.633 117.1 32.633C117.32 32.633 117.549 32.6617 117.786 32.7192C118.026 32.7766 118.248 32.8765 118.453 33.0188C118.658 33.1587 118.824 33.3547 118.951 33.6069C119.078 33.8567 119.142 34.1738 119.142 34.5584V38.4653H118.475V37.5551H118.434C118.354 37.7249 118.235 37.8897 118.078 38.0495C117.921 38.2094 117.724 38.3405 117.486 38.4429C117.249 38.5452 116.971 38.5964 116.651 38.5964ZM116.741 37.9859C117.095 37.9859 117.403 37.9072 117.662 37.7499C117.922 37.5925 118.122 37.384 118.262 37.1243C118.404 36.8621 118.475 36.5737 118.475 36.259V35.4274C118.425 35.4749 118.342 35.5173 118.224 35.5548C118.109 35.5923 117.976 35.626 117.823 35.6559C117.674 35.6834 117.524 35.7071 117.374 35.7271C117.224 35.7471 117.089 35.7646 116.969 35.7795C116.645 35.8195 116.368 35.8819 116.138 35.9668C115.908 36.0517 115.732 36.1691 115.61 36.319C115.487 36.4663 115.426 36.6561 115.426 36.8883C115.426 37.2379 115.551 37.5089 115.801 37.7012C116.05 37.891 116.364 37.9859 116.741 37.9859ZM120.35 38.4653V37.836H120.53C120.735 37.836 120.899 37.7986 121.024 37.7237C121.152 37.6462 121.25 37.5164 121.32 37.3341C121.39 37.1518 121.443 36.9033 121.478 36.5887C121.512 36.274 121.54 35.8794 121.56 35.405L121.684 32.7117H125.34V38.4653H124.669V33.341H122.317L122.208 35.6297C122.185 36.0967 122.148 36.5075 122.096 36.8621C122.046 37.2167 121.963 37.5126 121.848 37.7499C121.736 37.9871 121.579 38.1657 121.376 38.2855C121.177 38.4054 120.914 38.4653 120.59 38.4653H120.35ZM127.661 34.933H129.343C129.99 34.933 130.489 35.0903 130.841 35.405C131.193 35.7196 131.369 36.1454 131.369 36.6823C131.369 37.0394 131.291 37.3516 131.133 37.6188C130.976 37.886 130.746 38.0945 130.444 38.2443C130.142 38.3917 129.775 38.4653 129.343 38.4653H127.107V32.7117H127.773V37.836H129.343C129.75 37.836 130.078 37.7386 130.328 37.5438C130.578 37.3491 130.703 37.0719 130.703 36.7123C130.703 36.3452 130.578 36.0617 130.328 35.862C130.078 35.6622 129.75 35.5623 129.343 35.5623H127.661V34.933ZM136.719 35.2776V35.9069H133.336V35.2776H136.719ZM133.501 32.7117V38.4653H132.834V32.7117H133.501ZM137.209 32.7117V38.4653H136.542V32.7117H137.209ZM139.546 34.933H141.231C141.878 34.933 142.378 35.0903 142.73 35.405C143.082 35.7196 143.258 36.1454 143.258 36.6823C143.258 37.0394 143.178 37.3516 143.018 37.6188C142.861 37.886 142.631 38.0945 142.329 38.2443C142.027 38.3917 141.661 38.4653 141.231 38.4653H138.991V32.7117H139.662V37.836H141.231C141.638 37.836 141.966 37.7386 142.213 37.5438C142.463 37.3491 142.587 37.0719 142.587 36.7123C142.587 36.3452 142.463 36.0617 142.213 35.862C141.966 35.6622 141.638 35.5623 141.231 35.5623H139.546V34.933ZM144.228 38.4653V32.7117H144.895V38.4653H144.228ZM147.335 37.5176L150.373 32.7117H151.171V38.4653H150.504V33.6594L147.478 38.4653H146.668V32.7117H147.335V37.5176ZM149.609 30.7938H150.238C150.238 31.1509 150.12 31.4406 149.882 31.6628C149.648 31.8851 149.327 31.9962 148.92 31.9962C148.518 31.9962 148.199 31.8851 147.965 31.6628C147.73 31.4406 147.612 31.1509 147.612 30.7938H148.242C148.242 30.9886 148.294 31.1534 148.399 31.2883C148.506 31.4206 148.68 31.4868 148.92 31.4868C149.159 31.4868 149.334 31.4206 149.444 31.2883C149.554 31.1534 149.609 30.9886 149.609 30.7938ZM155.898 40.623V32.7117H156.546V33.8092H156.625C156.705 33.6369 156.815 33.4609 156.955 33.2811C157.094 33.0988 157.279 32.9452 157.509 32.8203C157.741 32.6954 158.033 32.633 158.386 32.633C158.86 32.633 159.275 32.7579 159.629 33.0076C159.986 33.2548 160.263 33.6019 160.461 34.049C160.661 34.4935 160.76 35.0116 160.76 35.6035C160.76 36.1978 160.661 36.7185 160.461 37.1655C160.263 37.6125 159.986 37.9609 159.629 38.2106C159.275 38.4603 158.863 38.5852 158.393 38.5852C158.046 38.5852 157.755 38.5228 157.52 38.3979C157.288 38.273 157.099 38.1195 156.955 37.9372C156.812 37.7524 156.702 37.5726 156.625 37.3978H156.565V40.623H155.898ZM156.558 35.5923C156.558 36.0567 156.626 36.4688 156.764 36.8284C156.903 37.1855 157.103 37.4664 157.363 37.6712C157.625 37.8735 157.942 37.9746 158.314 37.9746C158.696 37.9746 159.019 37.8697 159.281 37.66C159.546 37.4477 159.747 37.1618 159.884 36.8022C160.024 36.4426 160.094 36.0393 160.094 35.5923C160.094 35.1502 160.025 34.7519 159.888 34.3973C159.753 34.0427 159.553 33.7618 159.288 33.5545C159.024 33.3447 158.699 33.2398 158.314 33.2398C157.94 33.2398 157.621 33.341 157.359 33.5433C157.097 33.743 156.897 34.0202 156.76 34.3748C156.625 34.727 156.558 35.1328 156.558 35.5923ZM164.549 38.5852C164.012 38.5852 163.548 38.4603 163.156 38.2106C162.764 37.9584 162.46 37.61 162.246 37.1655C162.033 36.7185 161.927 36.2041 161.927 35.6222C161.927 35.0429 162.033 34.5284 162.246 34.0789C162.46 33.6269 162.756 33.2736 163.133 33.0188C163.513 32.7616 163.951 32.633 164.448 32.633C164.76 32.633 165.061 32.6905 165.351 32.8053C165.641 32.9177 165.9 33.0913 166.13 33.326C166.362 33.5582 166.546 33.8517 166.681 34.2063C166.816 34.5584 166.883 34.9754 166.883 35.4574V35.787H162.388V35.1989H166.201C166.201 34.8293 166.126 34.4972 165.977 34.2025C165.829 33.9054 165.623 33.6706 165.358 33.4983C165.096 33.326 164.793 33.2398 164.448 33.2398C164.084 33.2398 163.763 33.3372 163.486 33.532C163.208 33.7268 162.991 33.984 162.834 34.3037C162.679 34.6233 162.6 34.9729 162.598 35.3525V35.7046C162.598 36.1616 162.676 36.5612 162.834 36.9033C162.994 37.2429 163.22 37.5064 163.512 37.6937C163.804 37.881 164.15 37.9746 164.549 37.9746C164.822 37.9746 165.06 37.9322 165.265 37.8473C165.472 37.7624 165.646 37.6487 165.786 37.5064C165.928 37.3615 166.035 37.203 166.108 37.0307L166.741 37.2367C166.653 37.4789 166.51 37.7024 166.31 37.9072C166.113 38.112 165.865 38.2768 165.568 38.4017C165.274 38.524 164.934 38.5852 164.549 38.5852ZM171.36 37.5326L173.522 32.7117H174.17L171.626 38.4653H171.094L168.581 32.7117H169.218L171.36 37.5326ZM169.019 32.7117V38.4653H168.352V32.7117H169.019ZM173.701 38.4653V32.7117H174.368V38.4653H173.701ZM178.376 38.5852C177.879 38.5852 177.44 38.4591 177.058 38.2069C176.678 37.9546 176.381 37.6063 176.166 37.1618C175.951 36.7148 175.844 36.1991 175.844 35.6147C175.844 35.0254 175.951 34.5072 176.166 34.0602C176.381 33.6107 176.678 33.2611 177.058 33.0113C177.44 32.7591 177.879 32.633 178.376 32.633C178.873 32.633 179.312 32.7591 179.691 33.0113C180.071 33.2636 180.368 33.6132 180.583 34.0602C180.8 34.5072 180.909 35.0254 180.909 35.6147C180.909 36.1991 180.801 36.7148 180.586 37.1618C180.372 37.6063 180.073 37.9546 179.691 38.2069C179.312 38.4591 178.873 38.5852 178.376 38.5852ZM178.376 37.9746C178.776 37.9746 179.114 37.8672 179.391 37.6525C179.669 37.4377 179.878 37.1518 180.021 36.7947C180.166 36.4376 180.238 36.0443 180.238 35.6147C180.238 35.1852 180.166 34.7906 180.021 34.431C179.878 34.0714 179.669 33.783 179.391 33.5657C179.114 33.3485 178.776 33.2398 178.376 33.2398C177.979 33.2398 177.641 33.3485 177.361 33.5657C177.084 33.783 176.873 34.0714 176.728 34.431C176.586 34.7906 176.515 35.1852 176.515 35.6147C176.515 36.0443 176.586 36.4376 176.728 36.7947C176.873 37.1518 177.084 37.4377 177.361 37.6525C177.638 37.8672 177.977 37.9746 178.376 37.9746ZM186.257 35.2776V35.9069H182.874V35.2776H186.257ZM183.039 32.7117V38.4653H182.372V32.7117H183.039ZM186.747 32.7117V38.4653H186.081V32.7117H186.747ZM187.717 33.341V32.7117H192.212V33.341H190.309V38.4653H189.642V33.341H187.717ZM51.8849 50.5176L54.9228 45.7117H55.7207V51.4653H55.0539V46.6594L52.0273 51.4653H51.2182V45.7117H51.8849V50.5176ZM62.6843 51.5852C62.1873 51.5852 61.7478 51.4591 61.3657 51.2069C60.9861 50.9546 60.689 50.6063 60.4742 50.1618C60.2594 49.7148 60.1521 49.1991 60.1521 48.6147C60.1521 48.0254 60.2594 47.5072 60.4742 47.0602C60.689 46.6107 60.9861 46.2611 61.3657 46.0113C61.7478 45.7591 62.1873 45.633 62.6843 45.633C63.1812 45.633 63.6195 45.7591 63.9991 46.0113C64.3786 46.2636 64.6758 46.6132 64.8906 47.0602C65.1078 47.5072 65.2165 48.0254 65.2165 48.6147C65.2165 49.1991 65.1091 49.7148 64.8943 50.1618C64.6796 50.6063 64.3811 50.9546 63.9991 51.2069C63.6195 51.4591 63.1812 51.5852 62.6843 51.5852ZM62.6843 50.9746C63.0838 50.9746 63.4222 50.8672 63.6994 50.6525C63.9766 50.4377 64.1864 50.1518 64.3287 49.7947C64.4735 49.4376 64.546 49.0443 64.546 48.6147C64.546 48.1852 64.4735 47.7906 64.3287 47.431C64.1864 47.0714 63.9766 46.783 63.6994 46.5657C63.4222 46.3485 63.0838 46.2398 62.6843 46.2398C62.2872 46.2398 61.9488 46.3485 61.6691 46.5657C61.3919 46.783 61.1809 47.0714 61.0361 47.431C60.8937 47.7906 60.8226 48.1852 60.8226 48.6147C60.8226 49.0443 60.8937 49.4376 61.0361 49.7947C61.1809 50.1518 61.3919 50.4377 61.6691 50.6525C61.9463 50.8672 62.2847 50.9746 62.6843 50.9746ZM70.8231 43.5541L71.1715 43.9773C71.0141 44.1297 70.8256 44.2346 70.6058 44.292C70.3886 44.3469 70.1451 44.3782 69.8754 44.3856C69.6082 44.3931 69.3198 44.4044 69.0101 44.4194C68.5656 44.4418 68.1997 44.558 67.9126 44.7677C67.6254 44.975 67.4069 45.2747 67.257 45.6667C67.1097 46.0563 67.0173 46.532 66.9798 47.0939H67.0548C67.247 46.7018 67.518 46.4034 67.8676 46.1986C68.2197 45.9939 68.6068 45.8915 69.0288 45.8915C69.4708 45.8915 69.8679 46.0001 70.22 46.2174C70.5746 46.4321 70.8543 46.748 71.0591 47.1651C71.2664 47.5796 71.37 48.0853 71.37 48.6822C71.37 49.2715 71.2664 49.7847 71.0591 50.2217C70.8518 50.6562 70.5621 50.9921 70.19 51.2293C69.818 51.4666 69.3822 51.5852 68.8827 51.5852C68.3808 51.5852 67.9413 51.4678 67.5642 51.2331C67.1896 50.9958 66.8987 50.6475 66.6914 50.188C66.4866 49.726 66.3842 49.1579 66.3842 48.4836V47.8805C66.3842 46.5395 66.5965 45.5306 67.021 44.8539C67.4456 44.1771 68.0986 43.8238 68.9801 43.7938C69.2648 43.7838 69.5233 43.7813 69.7555 43.7863C69.9878 43.7888 70.1925 43.7776 70.3699 43.7526C70.5472 43.7251 70.6982 43.6589 70.8231 43.5541ZM68.8827 50.9746C69.2548 50.9746 69.577 50.881 69.8492 50.6937C70.1214 50.5039 70.3311 50.2367 70.4785 49.8921C70.6283 49.5474 70.7032 49.1441 70.7032 48.6822C70.7032 48.2227 70.6271 47.8306 70.4747 47.506C70.3249 47.1813 70.1151 46.9328 69.8454 46.7605C69.5757 46.5882 69.2598 46.5021 68.8977 46.5021C68.613 46.5021 68.3571 46.557 68.1298 46.6669C67.9051 46.7743 67.7128 46.9278 67.553 47.1276C67.3931 47.3274 67.2708 47.5621 67.1859 47.8318C67.101 48.1015 67.0573 48.3975 67.0548 48.7196C67.0548 49.4163 67.2171 49.967 67.5417 50.3715C67.8689 50.7736 68.3159 50.9746 68.8827 50.9746ZM75.0775 51.5852C74.563 51.5852 74.1148 51.4566 73.7327 51.1994C73.3531 50.9422 73.0584 50.59 72.8487 50.143C72.6389 49.696 72.534 49.1866 72.534 48.6147C72.534 48.0379 72.6402 47.5247 72.8524 47.0752C73.0672 46.6257 73.3644 46.2736 73.7439 46.0188C74.1235 45.7616 74.5643 45.633 75.0662 45.633C75.4508 45.633 75.7992 45.7079 76.1113 45.8578C76.4235 46.0051 76.6807 46.2136 76.883 46.4833C77.0878 46.7505 77.2164 47.0627 77.2688 47.4198H76.5945C76.5246 47.0952 76.3561 46.818 76.0889 46.5882C75.8241 46.356 75.487 46.2398 75.0775 46.2398C74.7104 46.2398 74.3857 46.3397 74.1035 46.5395C73.8214 46.7368 73.6003 47.0127 73.4405 47.3674C73.2832 47.7195 73.2045 48.1278 73.2045 48.5923C73.2045 49.0592 73.282 49.4725 73.4368 49.8321C73.5916 50.1892 73.8089 50.4689 74.0886 50.6712C74.3707 50.8735 74.7004 50.9746 75.0775 50.9746C75.3322 50.9746 75.5644 50.9272 75.7742 50.8323C75.9865 50.7349 76.1638 50.5975 76.3061 50.4202C76.451 50.2429 76.5483 50.0319 76.5983 49.7872H77.2725C77.2226 50.1343 77.099 50.444 76.9017 50.7162C76.7069 50.9859 76.4535 51.1981 76.1413 51.353C75.8316 51.5078 75.477 51.5852 75.0775 51.5852ZM78.136 51.4653V50.836H78.3158C78.5205 50.836 78.6854 50.7986 78.8102 50.7237C78.9376 50.6462 79.0362 50.5164 79.1062 50.3341C79.1761 50.1518 79.2285 49.9033 79.2635 49.5887C79.2984 49.274 79.3259 48.8794 79.3459 48.405L79.4695 45.7117H83.1255V51.4653H82.455V46.341H80.1026L79.9939 48.6297C79.9714 49.0967 79.934 49.5075 79.8815 49.8621C79.8316 50.2167 79.7492 50.5126 79.6343 50.7499C79.5219 50.9871 79.3646 51.1657 79.1623 51.2855C78.9626 51.4054 78.7003 51.4653 78.3757 51.4653H78.136ZM85.151 53.623C85.0187 53.623 84.8951 53.6105 84.7802 53.5855C84.6653 53.5605 84.5742 53.5331 84.5068 53.5031L84.6866 52.915C84.9138 52.9849 85.1161 53.0099 85.2934 52.9899C85.4707 52.9724 85.628 52.8925 85.7654 52.7502C85.9027 52.6103 86.0251 52.3956 86.1325 52.1059L86.3422 51.5215L84.2258 45.7117H84.9488L86.6569 50.5851H86.7093L88.4174 45.7117H89.1404L86.7056 52.3756C86.6032 52.6528 86.4771 52.8838 86.3272 53.0686C86.1774 53.2559 86.0039 53.3945 85.8066 53.4844C85.6118 53.5768 85.3933 53.623 85.151 53.623ZM90.0853 51.4653L92.625 48.5585L90.119 45.7117H90.9319L93.1382 48.2701H93.524V45.7117H94.1945V48.2701H94.5728L96.7791 45.7117H97.592L95.0935 48.5585L97.6257 51.4653H96.8016L94.5616 48.8994H94.1945V51.4653H93.524V48.8994H93.1569L90.9094 51.4653H90.0853ZM99.6925 50.5176L102.73 45.7117H103.528V51.4653H102.862V46.6594L99.8348 51.4653H99.0257V45.7117H99.6925V50.5176ZM105.289 51.4653V45.7117H107.555C108.167 45.7117 108.649 45.844 109.001 46.1087C109.356 46.3734 109.533 46.7306 109.533 47.1801C109.533 47.5222 109.434 47.7956 109.237 48.0004C109.04 48.2052 108.775 48.35 108.443 48.4349C108.665 48.4724 108.871 48.5535 109.061 48.6784C109.253 48.8033 109.409 48.9681 109.529 49.1729C109.649 49.3776 109.709 49.6224 109.709 49.9071C109.709 50.2067 109.634 50.4739 109.484 50.7087C109.334 50.9434 109.123 51.1282 108.851 51.2631C108.579 51.3979 108.257 51.4653 107.885 51.4653H105.289ZM105.926 50.8473H107.885C108.237 50.8473 108.515 50.7574 108.72 50.5776C108.925 50.3953 109.027 50.153 109.027 49.8509C109.027 49.5287 108.93 49.2715 108.735 49.0792C108.543 48.8844 108.284 48.787 107.96 48.787H105.926V50.8473ZM105.926 48.1952H107.596C107.856 48.1952 108.081 48.1552 108.271 48.0753C108.46 47.9954 108.606 47.883 108.709 47.7382C108.814 47.5909 108.865 47.4185 108.862 47.2213C108.862 46.9391 108.748 46.7206 108.518 46.5657C108.288 46.4084 107.967 46.3297 107.555 46.3297H105.926V48.1952ZM112.778 51.5964C112.431 51.5964 112.113 51.529 111.826 51.3942C111.539 51.2568 111.311 51.0595 111.141 50.8023C110.971 50.5426 110.886 50.2279 110.886 49.8584C110.886 49.5737 110.94 49.3339 111.047 49.1391C111.155 48.9444 111.307 48.7845 111.504 48.6597C111.701 48.5348 111.935 48.4362 112.205 48.3638C112.474 48.2913 112.772 48.2351 113.096 48.1952C113.418 48.1552 113.69 48.1203 113.913 48.0903C114.137 48.0603 114.309 48.0129 114.426 47.948C114.543 47.883 114.602 47.7782 114.602 47.6333V47.4985C114.602 47.1064 114.485 46.798 114.25 46.5732C114.018 46.346 113.683 46.2324 113.246 46.2324C112.831 46.2324 112.493 46.3235 112.231 46.5058C111.971 46.6881 111.789 46.9029 111.684 47.1501L111.051 46.9216C111.181 46.6069 111.361 46.356 111.59 46.1687C111.82 45.9789 112.077 45.8428 112.362 45.7604C112.647 45.6755 112.935 45.633 113.227 45.633C113.447 45.633 113.676 45.6617 113.913 45.7192C114.152 45.7766 114.375 45.8765 114.58 46.0188C114.784 46.1587 114.95 46.3547 115.078 46.6069C115.205 46.8567 115.269 47.1738 115.269 47.5584V51.4653H114.602V50.5551H114.561C114.481 50.7249 114.362 50.8897 114.205 51.0495C114.048 51.2094 113.85 51.3405 113.613 51.4429C113.376 51.5452 113.097 51.5964 112.778 51.5964ZM112.868 50.9859C113.222 50.9859 113.529 50.9072 113.789 50.7499C114.049 50.5925 114.249 50.384 114.388 50.1243C114.531 49.8621 114.602 49.5737 114.602 49.259V48.4274C114.552 48.4749 114.468 48.5173 114.351 48.5548C114.236 48.5923 114.103 48.626 113.95 48.6559C113.8 48.6834 113.651 48.7071 113.501 48.7271C113.351 48.7471 113.216 48.7646 113.096 48.7795C112.772 48.8195 112.494 48.8819 112.265 48.9668C112.035 49.0517 111.859 49.1691 111.736 49.319C111.614 49.4663 111.553 49.6561 111.553 49.8883C111.553 50.2379 111.678 50.5089 111.927 50.7012C112.177 50.891 112.491 50.9859 112.868 50.9859ZM120.927 48.2776V48.9069H117.544V48.2776H120.927ZM117.709 45.7117V51.4653H117.042V45.7117H117.709ZM121.418 45.7117V51.4653H120.751V45.7117H121.418ZM123.859 50.5176L126.897 45.7117H127.695V51.4653H127.028V46.6594L124.001 51.4653H123.192V45.7117H123.859V50.5176ZM131.781 51.5852C131.245 51.5852 130.78 51.4603 130.388 51.2106C129.996 50.9584 129.693 50.61 129.478 50.1655C129.265 49.7185 129.159 49.2041 129.159 48.6222C129.159 48.0429 129.265 47.5284 129.478 47.0789C129.693 46.6269 129.988 46.2736 130.366 46.0188C130.745 45.7616 131.183 45.633 131.68 45.633C131.992 45.633 132.293 45.6905 132.583 45.8053C132.873 45.9177 133.132 46.0913 133.362 46.326C133.594 46.5582 133.778 46.8517 133.913 47.2063C134.048 47.5584 134.115 47.9754 134.115 48.4574V48.787H129.62V48.1989H133.433C133.433 47.8293 133.358 47.4972 133.209 47.2025C133.061 46.9054 132.855 46.6706 132.591 46.4983C132.328 46.326 132.025 46.2398 131.68 46.2398C131.316 46.2398 130.995 46.3372 130.718 46.532C130.44 46.7268 130.223 46.984 130.066 47.3037C129.911 47.6233 129.832 47.9729 129.83 48.3525V48.7046C129.83 49.1616 129.909 49.5612 130.066 49.9033C130.226 50.2429 130.452 50.5064 130.744 50.6937C131.036 50.881 131.382 50.9746 131.781 50.9746C132.054 50.9746 132.292 50.9322 132.497 50.8473C132.704 50.7624 132.878 50.6487 133.018 50.5064C133.16 50.3615 133.267 50.203 133.34 50.0307L133.973 50.2367C133.885 50.4789 133.742 50.7024 133.542 50.9072C133.345 51.112 133.098 51.2768 132.8 51.4017C132.506 51.524 132.166 51.5852 131.781 51.5852ZM140.787 51.5852C140.291 51.5852 139.851 51.4591 139.469 51.2069C139.089 50.9546 138.792 50.6063 138.577 50.1618C138.363 49.7148 138.255 49.1991 138.255 48.6147C138.255 48.0254 138.363 47.5072 138.577 47.0602C138.792 46.6107 139.089 46.2611 139.469 46.0113C139.851 45.7591 140.291 45.633 140.787 45.633C141.284 45.633 141.723 45.7591 142.102 46.0113C142.482 46.2636 142.779 46.6132 142.994 47.0602C143.211 47.5072 143.32 48.0254 143.32 48.6147C143.32 49.1991 143.212 49.7148 142.998 50.1618C142.783 50.6063 142.484 50.9546 142.102 51.2069C141.723 51.4591 141.284 51.5852 140.787 51.5852ZM140.787 50.9746C141.187 50.9746 141.525 50.8672 141.803 50.6525C142.08 50.4377 142.29 50.1518 142.432 49.7947C142.577 49.4376 142.649 49.0443 142.649 48.6147C142.649 48.1852 142.577 47.7906 142.432 47.431C142.29 47.0714 142.08 46.783 141.803 46.5657C141.525 46.3485 141.187 46.2398 140.787 46.2398C140.39 46.2398 140.052 46.3485 139.772 46.5657C139.495 46.783 139.284 47.0714 139.139 47.431C138.997 47.7906 138.926 48.1852 138.926 48.6147C138.926 49.0443 138.997 49.4376 139.139 49.7947C139.284 50.1518 139.495 50.4377 139.772 50.6525C140.05 50.8672 140.388 50.9746 140.787 50.9746ZM144.783 51.4653V45.7117H145.45V48.3001H146.076L148.215 45.7117H149.076L146.769 48.4799L149.129 51.4653H148.267L146.282 48.9294H145.45V51.4653H144.783ZM152.222 51.5852C151.725 51.5852 151.285 51.4591 150.903 51.2069C150.524 50.9546 150.226 50.6063 150.012 50.1618C149.797 49.7148 149.69 49.1991 149.69 48.6147C149.69 48.0254 149.797 47.5072 150.012 47.0602C150.226 46.6107 150.524 46.2611 150.903 46.0113C151.285 45.7591 151.725 45.633 152.222 45.633C152.719 45.633 153.157 45.7591 153.537 46.0113C153.916 46.2636 154.213 46.6132 154.428 47.0602C154.645 47.5072 154.754 48.0254 154.754 48.6147C154.754 49.1991 154.647 49.7148 154.432 50.1618C154.217 50.6063 153.919 50.9546 153.537 51.2069C153.157 51.4591 152.719 51.5852 152.222 51.5852ZM152.222 50.9746C152.621 50.9746 152.96 50.8672 153.237 50.6525C153.514 50.4377 153.724 50.1518 153.866 49.7947C154.011 49.4376 154.083 49.0443 154.083 48.6147C154.083 48.1852 154.011 47.7906 153.866 47.431C153.724 47.0714 153.514 46.783 153.237 46.5657C152.96 46.3485 152.621 46.2398 152.222 46.2398C151.825 46.2398 151.486 46.3485 151.207 46.5657C150.929 46.783 150.718 47.0714 150.574 47.431C150.431 47.7906 150.36 48.1852 150.36 48.6147C150.36 49.0443 150.431 49.4376 150.574 49.7947C150.718 50.1518 150.929 50.4377 151.207 50.6525C151.484 50.8672 151.822 50.9746 152.222 50.9746ZM160.102 48.2776V48.9069H156.72V48.2776H160.102ZM156.884 45.7117V51.4653H156.218V45.7117H156.884ZM160.593 45.7117V51.4653H159.926V45.7117H160.593ZM166.252 48.2776V48.9069H162.869V48.2776H166.252ZM163.034 45.7117V51.4653H162.367V45.7117H163.034ZM166.743 45.7117V51.4653H166.076V45.7117H166.743ZM169.079 47.933H170.765C171.411 47.933 171.911 48.0903 172.263 48.405C172.615 48.7196 172.791 49.1454 172.791 49.6823C172.791 50.0394 172.711 50.3516 172.551 50.6188C172.394 50.886 172.164 51.0945 171.862 51.2443C171.56 51.3917 171.194 51.4653 170.765 51.4653H168.525V45.7117H169.195V50.836H170.765C171.172 50.836 171.499 50.7386 171.746 50.5438C171.996 50.3491 172.121 50.0719 172.121 49.7123C172.121 49.3452 171.996 49.0617 171.746 48.862C171.499 48.6622 171.172 48.5623 170.765 48.5623H169.079V47.933ZM173.761 51.4653V45.7117H174.428V51.4653H173.761ZM176.614 45.7117L178.097 48.1652L179.581 45.7117H180.356L178.506 48.5885L180.356 51.4653H179.581L178.097 49.0905L176.614 51.4653H175.842L177.67 48.5885L175.842 45.7117H176.614ZM186.968 51.5852C186.454 51.5852 186.006 51.4566 185.624 51.1994C185.244 50.9422 184.949 50.59 184.74 50.143C184.53 49.696 184.425 49.1866 184.425 48.6147C184.425 48.0379 184.531 47.5247 184.743 47.0752C184.958 46.6257 185.255 46.2736 185.635 46.0188C186.014 45.7616 186.455 45.633 186.957 45.633C187.342 45.633 187.69 45.7079 188.002 45.8578C188.314 46.0051 188.572 46.2136 188.774 46.4833C188.979 46.7505 189.107 47.0627 189.16 47.4198H188.485C188.416 47.0952 188.247 46.818 187.98 46.5882C187.715 46.356 187.378 46.2398 186.968 46.2398C186.601 46.2398 186.277 46.3397 185.994 46.5395C185.712 46.7368 185.491 47.0127 185.331 47.3674C185.174 47.7195 185.095 48.1278 185.095 48.5923C185.095 49.0592 185.173 49.4725 185.328 49.8321C185.483 50.1892 185.7 50.4689 185.979 50.6712C186.262 50.8735 186.591 50.9746 186.968 50.9746C187.223 50.9746 187.455 50.9272 187.665 50.8323C187.877 50.7349 188.055 50.5975 188.197 50.4202C188.342 50.2429 188.439 50.0319 188.489 49.7872H189.163C189.114 50.1343 188.99 50.444 188.793 50.7162C188.598 50.9859 188.344 51.1981 188.032 51.353C187.723 51.5078 187.368 51.5852 186.968 51.5852ZM191.259 50.5176L194.297 45.7117H195.095V51.4653H194.428V46.6594L191.402 51.4653H190.593V45.7117H191.259V50.5176ZM199.103 51.5852C198.589 51.5852 198.14 51.4566 197.758 51.1994C197.379 50.9422 197.084 50.59 196.874 50.143C196.665 49.696 196.56 49.1866 196.56 48.6147C196.56 48.0379 196.666 47.5247 196.878 47.0752C197.093 46.6257 197.39 46.2736 197.77 46.0188C198.149 45.7616 198.59 45.633 199.092 45.633C199.476 45.633 199.825 45.7079 200.137 45.8578C200.449 46.0051 200.706 46.2136 200.909 46.4833C201.113 46.7505 201.242 47.0627 201.294 47.4198H200.62C200.55 47.0952 200.382 46.818 200.115 46.5882C199.85 46.356 199.513 46.2398 199.103 46.2398C198.736 46.2398 198.411 46.3397 198.129 46.5395C197.847 46.7368 197.626 47.0127 197.466 47.3674C197.309 47.7195 197.23 48.1278 197.23 48.5923C197.23 49.0592 197.308 49.4725 197.462 49.8321C197.617 50.1892 197.835 50.4689 198.114 50.6712C198.396 50.8735 198.726 50.9746 199.103 50.9746C199.358 50.9746 199.59 50.9272 199.8 50.8323C200.012 50.7349 200.189 50.5975 200.332 50.4202C200.477 50.2429 200.574 50.0319 200.624 49.7872H201.298C201.248 50.1343 201.125 50.444 200.927 50.7162C200.733 50.9859 200.479 51.1981 200.167 51.353C199.857 51.5078 199.503 51.5852 199.103 51.5852ZM202.252 46.341V45.7117H206.747V46.341H204.844V51.4653H204.177V46.341H202.252ZM210.183 51.5852C209.646 51.5852 209.182 51.4603 208.79 51.2106C208.398 50.9584 208.094 50.61 207.88 50.1655C207.667 49.7185 207.561 49.2041 207.561 48.6222C207.561 48.0429 207.667 47.5284 207.88 47.0789C208.094 46.6269 208.39 46.2736 208.767 46.0188C209.147 45.7616 209.585 45.633 210.082 45.633C210.394 45.633 210.695 45.6905 210.985 45.8053C211.275 45.9177 211.534 46.0913 211.764 46.326C211.996 46.5582 212.18 46.8517 212.315 47.2063C212.45 47.5584 212.517 47.9754 212.517 48.4574V48.787H208.022V48.1989H211.835C211.835 47.8293 211.76 47.4972 211.611 47.2025C211.463 46.9054 211.257 46.6706 210.993 46.4983C210.73 46.326 210.427 46.2398 210.082 46.2398C209.718 46.2398 209.397 46.3372 209.12 46.532C208.842 46.7268 208.625 46.984 208.468 47.3037C208.313 47.6233 208.234 47.9729 208.232 48.3525V48.7046C208.232 49.1616 208.31 49.5612 208.468 49.9033C208.628 50.2429 208.854 50.5064 209.146 50.6937C209.438 50.881 209.784 50.9746 210.183 50.9746C210.456 50.9746 210.694 50.9322 210.899 50.8473C211.106 50.7624 211.28 50.6487 211.42 50.5064C211.562 50.3615 211.669 50.203 211.742 50.0307L212.375 50.2367C212.287 50.4789 212.144 50.7024 211.944 50.9072C211.747 51.112 211.499 51.2768 211.202 51.4017C210.908 51.524 210.568 51.5852 210.183 51.5852ZM216.994 50.5326L219.156 45.7117H219.804L217.26 51.4653H216.728L214.215 45.7117H214.852L216.994 50.5326ZM214.653 45.7117V51.4653H213.986V45.7117H214.653ZM219.336 51.4653V45.7117H220.002V51.4653H219.336Z" fill="white"/>
</svg>
