<svg width="332" height="749" viewBox="0 0 332 749" fill="none" xmlns="http://www.w3.org/2000/svg">
<path d="M3.16921 0.377364C2.27305 -0.268373 1.0231 -0.0653672 0.377364 0.83079C-0.268373 1.72695 -0.0653672 2.9769 0.83079 3.62264L3.16921 0.377364ZM290.138 747.231C290.542 748.259 291.702 748.765 292.731 748.362L309.487 741.786C310.515 741.382 311.021 740.222 310.618 739.194C310.214 738.165 309.053 737.659 308.025 738.062L293.131 743.908L287.286 729.013C286.882 727.985 285.722 727.479 284.694 727.882C283.665 728.286 283.159 729.447 283.562 730.475L290.138 747.231ZM266.5 275.5L268.277 274.582L266.5 275.5ZM2 2C0.83079 3.62264 0.831318 3.62302 0.832593 3.62394C0.834015 3.62496 0.836036 3.62642 0.838875 3.62847C0.844552 3.63256 0.853205 3.63881 0.864814 3.64719C0.888033 3.66396 0.923077 3.68929 0.969792 3.72311C1.06322 3.79074 1.20333 3.89233 1.38889 4.02729C1.76001 4.29721 2.3129 4.70064 3.03766 5.23296C4.4872 6.29762 6.6242 7.87783 9.36945 9.93676C14.86 14.0547 22.7833 20.0872 32.5056 27.7396C51.9515 43.0453 78.5883 64.8265 107.35 90.7259C164.927 142.573 230.817 210.746 264.723 276.418L268.277 274.582C234.019 208.227 167.659 139.65 110.027 87.7534C81.1842 61.7813 54.4768 39.9426 34.9796 24.5964C25.2303 16.9228 17.2823 10.8713 11.7694 6.73675C9.013 4.66943 6.86528 3.08127 5.40551 2.0091C4.67563 1.47302 4.11773 1.06593 3.74171 0.79244C3.5537 0.655695 3.41116 0.552349 3.31533 0.482978C3.26742 0.448292 3.23118 0.4221 3.20678 0.404474C3.19457 0.395661 3.18533 0.388989 3.17906 0.384468C3.17593 0.382207 3.17346 0.380431 3.1719 0.3793C3.17018 0.378062 3.16921 0.377364 2 2ZM264.723 276.418C327.098 397.233 333.456 514.567 324.211 601.727C319.588 645.306 311.066 681.328 303.703 706.445C300.021 719.003 296.63 728.833 294.163 735.515C292.93 738.857 291.927 741.411 291.235 743.126C290.888 743.983 290.62 744.631 290.438 745.062C290.348 745.278 290.279 745.439 290.233 745.546C290.211 745.599 290.193 745.639 290.182 745.665C290.177 745.677 290.173 745.687 290.17 745.693C290.169 745.696 290.168 745.698 290.167 745.699C290.167 745.7 290.167 745.7 292 746.5C293.833 747.3 293.834 747.298 293.835 747.296C293.836 747.294 293.837 747.29 293.839 747.286C293.842 747.278 293.847 747.267 293.854 747.252C293.867 747.222 293.886 747.178 293.91 747.121C293.959 747.006 294.032 746.836 294.126 746.612C294.314 746.164 294.59 745.499 294.944 744.623C295.65 742.873 296.668 740.281 297.916 736.901C300.412 730.14 303.832 720.223 307.541 707.57C314.959 682.266 323.536 646.007 328.189 602.148C337.493 514.433 331.101 396.267 268.277 274.582L264.723 276.418Z" fill="#010A13"/>
</svg>
