<svg width="474" height="68" viewBox="0 0 474 68" fill="none" xmlns="http://www.w3.org/2000/svg">
<path d="M1.34872 25.6343C0.320493 26.0379 -0.185915 27.1985 0.217619 28.2267L6.79339 44.9826C7.19693 46.0108 8.3576 46.5172 9.3858 46.1137C10.414 45.7102 10.9205 44.5495 10.5169 43.5213L4.67178 28.6272L19.5659 22.7821C20.5941 22.3785 21.1005 21.2179 20.697 20.1897C20.2935 19.1614 19.1328 18.655 18.1046 19.0585L1.34872 25.6343ZM472.162 0.218966C351.347 62.594 234.013 68.9524 146.853 59.7069C103.273 55.0843 67.2517 46.5618 42.1342 39.1986C29.5763 35.5173 19.7467 32.1265 13.0641 29.6593C9.72281 28.4257 7.16855 27.4231 5.45355 26.7307C4.59607 26.3844 3.94842 26.1157 3.51718 25.9345C3.30154 25.8439 3.14004 25.7751 3.03341 25.7294C2.98013 25.7066 2.94055 25.6896 2.91482 25.6784C2.90194 25.6729 2.89255 25.6688 2.88659 25.6662C2.88363 25.6649 2.88177 25.6641 2.88028 25.6635C2.8793 25.663 2.87921 25.663 2.07937 27.4961C1.27954 29.3292 1.28119 29.3299 1.28369 29.331C1.28567 29.3319 1.28906 29.3333 1.29306 29.3351C1.30102 29.3385 1.3125 29.3435 1.32742 29.35C1.35724 29.3629 1.40094 29.3817 1.4584 29.4063C1.5733 29.4555 1.74322 29.5279 1.96734 29.622C2.41559 29.8104 3.08062 30.0863 3.95593 30.4397C5.70651 31.1466 8.29825 32.1637 11.6787 33.4117C18.4394 35.9078 28.3559 39.3279 41.0089 43.0371C66.3133 50.455 102.573 59.0324 146.431 63.6846C234.146 72.9889 352.312 66.5973 473.997 3.77322L472.162 0.218966Z" fill="#71DB1D"/>
</svg>
