<svg width="543" height="390" viewBox="0 0 543 390" fill="none" xmlns="http://www.w3.org/2000/svg">
<path d="M526.857 389.046C527.638 389.827 528.905 389.827 529.686 389.046L542.414 376.318C543.195 375.537 543.195 374.271 542.414 373.49C541.633 372.709 540.366 372.709 539.585 373.49L528.272 384.803L516.958 373.49C516.177 372.709 514.91 372.709 514.129 373.49C513.348 374.271 513.348 375.537 514.129 376.318L526.857 389.046ZM-7.40989e-08 4.5C263.577 4.5 394.981 100.536 460.588 196.197C493.43 244.083 509.855 291.977 518.068 327.901C522.173 345.86 524.225 360.82 525.249 371.278C525.762 376.507 526.017 380.609 526.145 383.398C526.208 384.792 526.24 385.858 526.256 386.571C526.264 386.928 526.268 387.197 526.27 387.374C526.271 387.463 526.271 387.529 526.271 387.572C526.271 387.594 526.271 387.61 526.272 387.62C526.271 387.624 526.271 387.628 526.272 387.63C526.272 387.632 526.271 387.632 528.272 387.632C530.272 387.632 530.272 387.629 530.271 387.625C530.272 387.621 530.271 387.616 530.271 387.609C530.271 387.595 530.271 387.576 530.271 387.551C530.271 387.501 530.27 387.427 530.269 387.331C530.267 387.138 530.263 386.855 530.255 386.483C530.238 385.739 530.206 384.642 530.14 383.215C530.01 380.362 529.75 376.19 529.23 370.888C528.191 360.284 526.115 345.156 521.967 327.009C513.671 290.721 497.079 242.331 463.887 193.935C397.427 97.0299 264.694 0.500006 7.40989e-08 0.5L-7.40989e-08 4.5Z" fill="white"/>
</svg>
