<svg width="174" height="205" viewBox="0 0 174 205" fill="none" xmlns="http://www.w3.org/2000/svg">
<path d="M68.0849 47.8965C55.6409 84.4997 41.3778 120.44 28.8779 157.018C27.4127 161.306 26.0242 165.605 24.3502 169.817C24.1645 170.285 23.5869 171.677 23.7684 171.209C24.7234 168.741 24.4597 169.579 25.6908 166.074C31.5505 149.388 36.6359 132.38 42.183 115.585C48.9651 95.0515 55.4218 74.3539 60.9264 53.4361C61.8129 50.0675 62.6512 46.6878 63.4306 43.2929C63.7894 41.7302 63.8087 37.2705 64.6448 38.6386C65.9406 40.7591 66.111 46.8101 66.3395 48.6048C68.2296 63.4475 69.2916 78.3155 70.159 93.2501C71.754 120.709 73.5417 148.11 78.0004 175.281C78.5301 178.509 78.5569 177.283 78.5569 175.23C78.5569 171.96 78.5161 168.686 78.5822 165.416C78.6608 161.526 79.3001 157.987 80.4287 154.236C83.7004 143.361 88.2879 132.918 91.9126 122.162C93.875 116.338 96.3102 109.993 97.0221 103.823C97.7561 97.4617 89.0257 97.8834 85.0324 97.8284C61.7987 97.5089 37.5207 99.4136 14.7129 103.798C10.1216 104.681 4.97423 105.022 1.30663 107.921C-0.0363268 108.983 3.36672 111.126 5.05026 111.437C18.2513 113.872 41.438 111.531 53.4139 109.768C62.6733 108.404 71.8157 106.31 80.9346 104.203C87.6584 102.649 94.2304 100.495 100.917 98.7896C103.954 98.0153 106.966 96.7952 110.1 96.7661C110.954 96.7581 111.985 97.8557 111.794 98.6885C111.291 100.889 109.522 102.59 108.329 104.506C103.873 111.661 100.036 117.342 95.0491 124.363C84.1086 139.766 72.4679 154.647 59.8894 168.755C49.2306 180.71 37.8504 193.144 24.8308 202.65C20.8844 205.532 21.7403 204.083 24.3502 199.109C43.1281 163.319 63.8108 128.061 86.6512 94.7172C102.492 71.592 120.104 49.9056 139.619 29.7855C145.72 23.4943 155.315 14.5121 162.434 8.63903C174.879 -1.62652 163.305 8.43696 173.261 1" stroke="#010A13" stroke-width="1.4483" stroke-linecap="round"/>
</svg>
