<svg width="102" height="29" viewBox="0 0 102 29" fill="none" xmlns="http://www.w3.org/2000/svg">
<path fill-rule="evenodd" clip-rule="evenodd" d="M35.6117 15.8678H35.3365V19.5866H41.2296V28.6385H45.1588V19.5866H51.0528V15.8678H35.6117ZM65.9062 15.8678H65.7829L65.701 15.9607L61.2788 21.0021L56.8736 15.9609L56.7915 15.8681H51.799L52.2191 16.3368L59.323 24.2676V28.6387H63.253V24.2672L70.3398 16.3364L70.7588 15.8678H65.9062ZM75.3049 24.8668V15.8678H71.3746V28.6385H85.8086V24.8668H75.3049ZM101.725 15.8678H87.1679V28.6385H102V25.114H91.011V23.6441H102V20.8624H91.011V19.3749H102V15.8678H101.725ZM30.0097 15.543H21.7537C20.6504 15.543 19.5924 15.9887 18.8122 16.782C18.0321 17.5754 17.5939 18.6514 17.5939 19.7734C17.5939 20.8954 18.0321 21.9714 18.8122 22.7647C19.5924 23.5581 20.6504 24.0038 21.7537 24.0038H30.0097C30.163 24.0041 30.3099 24.0662 30.4182 24.1766C30.5266 24.2869 30.5874 24.4364 30.5875 24.5923V24.768C30.5874 24.9239 30.5266 25.0734 30.4182 25.1837C30.3099 25.294 30.163 25.3561 30.0097 25.3565H21.7537C21.6004 25.3562 21.4534 25.2941 21.345 25.1838C21.2366 25.0734 21.1758 24.9239 21.1757 24.768V24.5923H17.598V24.768C17.5983 25.8893 18.036 26.9646 18.8151 27.7581C19.5943 28.5515 20.6511 28.9982 21.7537 29H30.0097C31.112 28.9981 32.1685 28.5516 32.9476 27.7586C33.7266 26.9655 34.1645 25.8906 34.1652 24.7696V24.5939C34.1645 23.4729 33.7266 22.398 32.9476 21.6049C32.1685 20.8119 31.112 20.3654 30.0097 20.3635H21.7537C21.6002 20.3635 21.453 20.3015 21.3445 20.1911C21.236 20.0808 21.175 19.9311 21.175 19.775C21.175 19.6189 21.236 19.4692 21.3445 19.3589C21.453 19.2485 21.6002 19.1865 21.7537 19.1865H30.0097C30.163 19.1868 30.3099 19.2489 30.4182 19.3593C30.5266 19.4696 30.5874 19.6191 30.5875 19.775V19.9432H34.1652V19.775C34.1646 18.6539 33.7268 17.5789 32.9477 16.7857C32.1687 15.9925 31.1121 15.546 30.0097 15.5441V15.543ZM4.50508 4.49468C5.01394 4.00736 5.76011 3.76068 6.71849 3.76068H11.4634C11.9866 3.75255 12.5088 3.8103 13.018 3.93264C13.4311 4.04041 13.8088 4.257 14.1133 4.56058L14.3228 4.76688L14.5074 4.53715L16.3986 2.18199L16.5551 1.98706L16.3769 1.81255C15.7824 1.22299 15.0532 0.792792 14.2548 0.560601C13.3435 0.319878 12.4043 0.206521 11.4629 0.223654H6.7194C5.76655 0.20999 4.81809 0.35734 3.91271 0.65969C3.12636 0.92462 2.40342 1.35436 1.79058 1.92116C1.20543 2.47796 0.74998 3.16067 0.45751 3.91941C0.1434 4.75225 -0.0116454 5.63838 0.000681293 6.53029V6.54747C-0.0108296 7.44213 0.144573 8.33091 0.458652 9.1667C0.74949 9.92899 1.20516 10.615 1.79194 11.174C2.40467 11.741 3.12765 12.1707 3.91408 12.4355C4.81942 12.738 5.76791 12.8853 6.72077 12.8715H11.4657C11.9817 12.874 12.4973 12.8446 13.0098 12.7836C13.4517 12.7304 13.8882 12.6379 14.3141 12.5069C14.7012 12.3868 15.0737 12.2229 15.4247 12.0182C15.7707 11.8127 16.0913 11.5658 16.3794 11.2826L16.5574 11.1088L16.402 10.9136L14.5106 8.54131L14.3233 8.30623L14.1129 8.52042C13.8216 8.81741 13.4602 9.03318 13.0632 9.14698C12.5417 9.28312 12.0042 9.34605 11.4659 9.33402H6.7194C5.76992 9.33402 5.03082 9.08711 4.52197 8.60025C4.00969 8.10991 3.75549 7.43741 3.74613 6.54375V6.52983C3.74522 5.64963 3.99394 4.98363 4.50508 4.49468ZM27.9941 0.453159L27.9152 0.326456H24.3445L24.2656 0.453159L16.8525 12.3491L16.5914 12.7682H20.7768L20.8549 12.6357L22.0433 10.6196H30.2324L31.4042 12.6343L31.482 12.7682H35.6685L35.4072 12.3491L27.9941 0.453159ZM28.2419 7.35758H24.018L26.1298 3.97882L28.2419 7.35758ZM90.1932 12.3491L82.7801 0.453159L82.7011 0.326456H79.1305L79.0515 0.453159L71.6384 12.3491L71.3772 12.7682H75.5628L75.6408 12.6357L76.8292 10.6196H85.0181L86.1899 12.6343L86.2677 12.7682H90.4538L90.1932 12.3491ZM83.0281 7.35758H78.8037L80.9158 3.97882L83.0281 7.35758ZM71.4687 0.290485H67.8106V9.23214C67.8105 9.2863 67.7949 9.33926 67.7656 9.38448C67.7363 9.42969 67.6946 9.46519 67.6457 9.48659C67.5967 9.50798 67.5427 9.51434 67.4903 9.50488C67.4378 9.49542 67.3893 9.47055 67.3506 9.43334L58.7112 1.09666C58.1535 0.558719 57.4529 0.19895 56.6961 0.0618976C55.9394 -0.0751548 55.1597 0.0165274 54.4536 0.325594C53.7476 0.63466 53.1462 1.14754 52.7239 1.80071C52.3016 2.45389 52.077 3.21869 52.0778 4.0004V8.99661C52.0779 9.05086 52.0624 9.10394 52.033 9.14927C52.0037 9.1946 51.962 9.23019 51.913 9.25161C51.864 9.27304 51.8098 9.27936 51.7573 9.26979C51.7048 9.26023 51.6562 9.23519 51.6176 9.1978L43.2233 1.09666C42.6655 0.558751 41.9649 0.19901 41.2082 0.0619737C40.4514 -0.0750621 39.6717 0.0166251 38.9657 0.325682C38.2596 0.634739 37.6582 1.14759 37.2359 1.80075C36.8136 2.45391 36.5889 3.21869 36.5897 4.0004V12.8128H40.2473V4.0004C40.2472 3.94619 40.2628 3.89316 40.2921 3.84788C40.3214 3.80259 40.3631 3.76704 40.4121 3.74563C40.4611 3.72421 40.5151 3.71787 40.5676 3.7274C40.6201 3.73692 40.6687 3.76188 40.7073 3.7992L49.1016 11.8994C49.6593 12.4374 50.3598 12.7972 51.1165 12.9343C51.8732 13.0715 52.6529 12.9799 53.3589 12.6709C54.065 12.3619 54.6664 11.8492 55.0888 11.1961C55.5112 10.543 55.7359 9.77828 55.7352 8.99661V4.0004C55.7352 3.94619 55.7508 3.89316 55.78 3.84788C55.8093 3.80259 55.8511 3.76704 55.9 3.74563C55.949 3.72421 56.0031 3.71787 56.0555 3.7274C56.108 3.73692 56.1566 3.76188 56.1952 3.7992L64.8346 12.1361C65.5554 12.8429 66.517 13.2392 67.5183 13.2421C68.0593 13.2407 68.5943 13.1269 69.0905 12.9077C69.8009 12.6044 70.4064 12.0928 70.83 11.4382C71.2535 10.7836 71.4758 10.0157 71.4687 9.23214V0.290485Z" fill="white"/>
</svg>
