<svg width="607" height="396" viewBox="0 0 607 396" fill="none" xmlns="http://www.w3.org/2000/svg">
<path fill-rule="evenodd" clip-rule="evenodd" d="M230.869 204.603H229.525V222.556H258.298V266.255H277.481V222.556H306.258V204.603H230.869ZM378.777 204.603H378.176L377.776 205.051L356.185 229.39L334.677 205.053L334.276 204.604H309.901L311.952 206.867L346.636 245.154V266.256H365.824V245.152L400.424 206.865L402.469 204.603H378.777ZM424.665 248.047V204.603H405.476V266.255H475.948V248.047H424.665ZM553.656 204.603H482.584V266.255H555V249.24H501.348V242.144H555V228.715H501.348V221.534H555V204.603H553.656ZM203.518 203.035H163.209C157.823 203.035 152.657 205.187 148.848 209.017C145.039 212.847 142.899 218.041 142.899 223.458C142.899 228.874 145.039 234.069 148.848 237.899C152.657 241.729 157.823 243.88 163.209 243.88H203.518C204.266 243.882 204.984 244.182 205.513 244.714C206.041 245.247 206.339 245.969 206.339 246.721V247.569C206.339 248.322 206.041 249.044 205.513 249.576C204.984 250.109 204.266 250.409 203.518 250.41H163.209C162.461 250.409 161.743 250.109 161.214 249.577C160.685 249.044 160.387 248.322 160.387 247.569V246.721H142.919V247.569C142.921 252.983 145.058 258.174 148.862 262.005C152.666 265.835 157.826 267.991 163.209 268H203.518C208.9 267.991 214.058 265.836 217.862 262.007C221.665 258.178 223.803 252.989 223.807 247.577V246.729C223.803 241.318 221.665 236.128 217.862 232.3C214.058 228.471 208.9 226.316 203.518 226.307H163.209C162.46 226.307 161.741 226.007 161.211 225.474C160.682 224.942 160.384 224.219 160.384 223.466C160.384 222.712 160.682 221.989 161.211 221.457C161.741 220.924 162.46 220.624 163.209 220.624H203.518C204.266 220.626 204.984 220.926 205.513 221.459C206.041 221.991 206.339 222.713 206.339 223.466V224.278H223.807V223.466C223.804 218.053 221.666 212.864 217.862 209.034C214.059 205.205 208.9 203.05 203.518 203.041V203.035ZM78.9954 149.698C81.4798 147.346 85.1229 146.155 89.802 146.155H112.968C115.523 146.116 118.072 146.395 120.559 146.985C122.575 147.505 124.42 148.551 125.906 150.017L126.929 151.013L127.83 149.903L137.064 138.534L137.828 137.593L136.958 136.75C134.055 133.904 130.495 131.827 126.597 130.706C122.148 129.544 117.562 128.997 112.966 129.08H89.8065C85.1543 129.014 80.5236 129.725 76.1032 131.185C72.264 132.464 68.7343 134.538 65.7422 137.275C62.8853 139.963 60.6617 143.258 59.2337 146.921C57.7001 150.942 56.9431 155.22 57.0033 159.526V159.608C56.9471 163.928 57.7059 168.218 59.2393 172.253C60.6593 175.933 62.884 179.245 65.7489 181.943C68.7405 184.68 72.2703 186.755 76.1099 188.033C80.5301 189.494 85.161 190.205 89.8132 190.138H112.979C115.499 190.15 118.016 190.008 120.519 189.714C122.676 189.457 124.807 189.01 126.887 188.378C128.776 187.799 130.595 187.007 132.309 186.019C133.998 185.027 135.563 183.835 136.97 182.468L137.839 181.629L137.081 180.687L127.846 169.234L126.931 168.099L125.904 169.133C124.482 170.567 122.717 171.608 120.779 172.158C118.233 172.815 115.609 173.119 112.981 173.061H89.8065C85.1708 173.061 81.5622 171.869 79.0778 169.518C76.5767 167.151 75.3356 163.905 75.2899 159.591V159.523C75.2855 155.274 76.4998 152.059 78.9954 149.698ZM193.677 130.188L193.292 129.576H175.859L175.473 130.188L139.28 187.617L138.005 189.64H158.44L158.821 189L164.623 179.267H204.605L210.326 188.993L210.706 189.64H231.146L229.871 187.617L193.677 130.188ZM194.887 163.519H174.264L184.575 147.208L194.887 163.519ZM497.355 187.617L461.162 130.188L460.776 129.576H443.343L442.957 130.188L406.764 187.617L405.488 189.64H425.924L426.305 189L432.107 179.267H472.089L477.809 188.993L478.189 189.64H498.627L497.355 187.617ZM462.373 163.519H441.748L452.06 147.208L462.373 163.519ZM405.935 129.402H388.075V172.569C388.075 172.83 387.999 173.086 387.855 173.304C387.712 173.523 387.509 173.694 387.27 173.797C387.031 173.901 386.767 173.931 386.511 173.886C386.255 173.84 386.018 173.72 385.829 173.54L343.649 133.294C340.926 130.697 337.505 128.96 333.81 128.299C330.116 127.637 326.309 128.08 322.862 129.572C319.415 131.064 316.479 133.54 314.417 136.693C312.355 139.846 311.258 143.538 311.262 147.312V171.432C311.263 171.694 311.187 171.95 311.044 172.169C310.901 172.388 310.697 172.56 310.457 172.663C310.218 172.766 309.954 172.797 309.698 172.751C309.441 172.705 309.204 172.584 309.015 172.403L268.031 133.294C265.308 130.697 261.888 128.961 258.193 128.299C254.498 127.638 250.691 128.08 247.244 129.572C243.797 131.064 240.861 133.54 238.799 136.693C236.737 139.846 235.64 143.538 235.644 147.312V189.855H253.501V147.312C253.501 147.051 253.577 146.795 253.72 146.576C253.863 146.357 254.067 146.186 254.306 146.082C254.545 145.979 254.809 145.948 255.065 145.994C255.322 146.04 255.559 146.161 255.747 146.341L296.731 185.445C299.454 188.043 302.874 189.78 306.569 190.442C310.263 191.104 314.07 190.661 317.517 189.17C320.964 187.678 323.901 185.203 325.963 182.05C328.025 178.897 329.122 175.206 329.119 171.432V147.312C329.119 147.051 329.195 146.795 329.338 146.576C329.481 146.357 329.685 146.186 329.924 146.082C330.163 145.979 330.427 145.948 330.683 145.994C330.939 146.04 331.176 146.161 331.365 146.341L373.545 186.588C377.065 190 381.759 191.913 386.648 191.927C389.289 191.921 391.902 191.371 394.324 190.313C397.793 188.849 400.749 186.379 402.817 183.219C404.885 180.059 405.97 176.352 405.935 172.569V129.402Z" fill="white"/>
<path opacity="0.1" d="M563.391 118.717C574.945 156.441 556.438 199.592 516.907 238.897C477.393 278.184 416.969 313.521 344.995 335.567C273.021 357.613 203.171 362.178 148.433 351.76C93.6697 341.337 54.1708 315.954 42.616 278.23C31.0612 240.507 49.5684 197.356 89.1002 158.051C128.614 118.764 189.038 83.4267 261.012 61.381C332.986 39.3353 402.835 34.77 457.574 45.1878C512.337 55.6104 551.836 80.9935 563.391 118.717Z" stroke="white"/>
<path fill-rule="evenodd" clip-rule="evenodd" d="M543 128.5C543 128.5 555.924 128.374 561.149 123.149C566.374 117.924 566.5 105 566.5 105C566.5 105 566.626 117.924 571.851 123.149C577.076 128.374 590 128.5 590 128.5C590 128.5 577.076 128.626 571.851 133.851C566.626 139.076 566.5 152 566.5 152C566.5 152 566.374 139.076 561.149 133.851C555.924 128.626 543 128.5 543 128.5Z" fill="white"/>
</svg>
