<svg width="128" height="36" viewBox="0 0 128 36" fill="none" xmlns="http://www.w3.org/2000/svg">
<path fill-rule="evenodd" clip-rule="evenodd" d="M44.6892 19.698H44.3438V24.3144H51.7391V35.5512H56.6698V24.3144H64.0663V19.698H44.6892ZM82.7058 19.698H82.5511L82.4483 19.8132L76.8988 26.0716L71.3708 19.8135L71.2677 19.6983H65.0027L65.5298 20.2802L74.4445 30.1253V35.5515H79.3764V30.1248L88.2696 20.2796L88.7953 19.698H82.7058ZM94.5003 30.8692V19.698H89.5682V35.5512H107.681V30.8692H94.5003ZM127.655 19.698H109.387V35.5512H128V31.1759H114.21V29.3513H128V25.8982H114.21V24.0516H128V19.698H127.655ZM37.6592 19.2947H27.2987C25.9143 19.2947 24.5865 19.848 23.6075 20.8329C22.6285 21.8177 22.0786 23.1535 22.0786 24.5463C22.0786 25.9391 22.6285 27.2748 23.6075 28.2597C24.5865 29.2445 25.9143 29.7978 27.2987 29.7978H37.6592C37.8516 29.7982 38.036 29.8753 38.1719 30.0123C38.3078 30.1492 38.3842 30.3348 38.3843 30.5284V30.7464C38.3842 30.94 38.3078 31.1256 38.1719 31.2625C38.036 31.3995 37.8516 31.4766 37.6592 31.477H27.2987C27.1063 31.4767 26.9219 31.3996 26.7859 31.2626C26.6499 31.1257 26.5735 30.94 26.5734 30.7464V30.5284H22.0837V30.7464C22.0841 32.1384 22.6334 33.4734 23.6111 34.4583C24.5889 35.4432 25.9151 35.9977 27.2987 36H37.6592C39.0425 35.9976 40.3683 35.4434 41.3459 34.4589C42.3236 33.4744 42.8731 32.14 42.874 30.7485V30.5304C42.8731 29.1388 42.3236 27.8044 41.3459 26.8199C40.3683 25.8354 39.0425 25.2812 37.6592 25.2788H27.2987C27.1062 25.2788 26.9214 25.2019 26.7853 25.0649C26.6491 24.9278 26.5726 24.742 26.5726 24.5483C26.5726 24.3545 26.6491 24.1687 26.7853 24.0317C26.9214 23.8947 27.1062 23.8177 27.2987 23.8177H37.6592C37.8516 23.8181 38.036 23.8952 38.1719 24.0322C38.3078 24.1691 38.3842 24.3547 38.3843 24.5483V24.7571H42.874V24.5483C42.8732 23.1566 42.3238 21.8221 41.3461 20.8374C40.3685 19.8528 39.0426 19.2985 37.6592 19.2961V19.2947ZM5.65344 5.5796C6.292 4.97465 7.22837 4.66843 8.43105 4.66843H14.3854C15.042 4.65833 15.6973 4.73003 16.3364 4.88189C16.8547 5.01568 17.3287 5.28455 17.7108 5.66142L17.9737 5.91751L18.2054 5.63232L20.5786 2.70868L20.7751 2.4667L20.5514 2.25007C19.8054 1.51819 18.8903 0.984156 17.8884 0.695919C16.7448 0.39709 15.5662 0.256371 14.3849 0.27764H8.43219C7.23646 0.260678 6.04623 0.443594 4.91007 0.818926C3.92328 1.1478 3.01605 1.68128 2.247 2.38488C1.51269 3.07609 0.941152 3.92359 0.57413 4.86547C0.179953 5.89935 -0.0146138 6.99936 0.000854956 8.10657V8.12789C-0.0135901 9.23851 0.181424 10.3418 0.575564 11.3794C0.940536 12.3256 1.51236 13.1773 2.24871 13.8712C3.01763 14.575 3.9249 15.1085 4.91178 15.4371C6.0479 15.8126 7.23816 15.9956 8.43391 15.9784H14.3883C15.0358 15.9815 15.6829 15.945 16.326 15.8692C16.8806 15.8033 17.4283 15.6884 17.9628 15.5259C18.4485 15.3768 18.916 15.1733 19.3565 14.9192C19.7907 14.6641 20.193 14.3575 20.5546 14.006L20.778 13.7902L20.5829 13.548L18.2094 10.603L17.9743 10.3112L17.7103 10.5771C17.3448 10.9457 16.8912 11.2136 16.393 11.3549C15.7385 11.5239 15.0641 11.602 14.3886 11.5871H8.43219C7.24068 11.5871 6.31319 11.2805 5.67462 10.6762C5.03176 10.0675 4.71277 9.23265 4.70103 8.12328V8.10599C4.69988 7.01334 5.01201 6.18657 5.65344 5.5796ZM35.1299 0.562542L35.0308 0.405256H30.55L30.4509 0.562542L21.1482 15.33L20.8206 15.8502H26.0729L26.1708 15.6857L27.6621 13.183H37.9387L39.4091 15.684L39.5068 15.8502H44.7605L44.4326 15.33L35.1299 0.562542ZM35.4409 9.13355H30.1402L32.7904 4.93922L35.4409 9.13355ZM113.184 15.33L103.881 0.562542L103.782 0.405256H99.301L99.2019 0.562542L89.8992 15.33L89.5713 15.8502H94.8239L94.9218 15.6857L96.4131 13.183H106.689L108.16 15.684L108.257 15.8502H113.511L113.184 15.33ZM104.192 9.13355H98.8909L101.541 4.93922L104.192 9.13355ZM89.6862 0.360603H85.0957V11.4606C85.0956 11.5278 85.0759 11.5936 85.0392 11.6497C85.0024 11.7058 84.9501 11.7499 84.8887 11.7765C84.8273 11.803 84.7595 11.8109 84.6937 11.7992C84.6279 11.7874 84.5669 11.7565 84.5184 11.7104L73.6768 1.36137C72.9769 0.693582 72.0977 0.246972 71.1481 0.0768384C70.1984 -0.0932956 69.22 0.0205167 68.334 0.404185C67.448 0.787854 66.6933 1.42453 66.1634 2.23537C65.6334 3.04621 65.3515 3.99561 65.3526 4.96601V11.1682C65.3527 11.2355 65.3331 11.3014 65.2964 11.3577C65.2596 11.414 65.2072 11.4582 65.1457 11.4848C65.0842 11.5114 65.0163 11.5192 64.9504 11.5073C64.8845 11.4955 64.8235 11.4644 64.775 11.418L54.241 1.36137C53.5411 0.693622 52.6619 0.247046 51.7122 0.0769329C50.7625 -0.0931806 49.7841 0.0206381 48.8981 0.404295C48.0121 0.787952 47.2574 1.4246 46.7274 2.23542C46.1974 3.04623 45.9155 3.99561 45.9165 4.96601V15.9055H50.5064V4.96601C50.5063 4.89872 50.5259 4.83289 50.5627 4.77668C50.5994 4.72046 50.6518 4.67633 50.7132 4.64974C50.7747 4.62316 50.8425 4.61529 50.9084 4.62711C50.9742 4.63893 51.0352 4.66993 51.0837 4.71625L61.6177 14.7717C62.3175 15.4395 63.1966 15.8862 64.1462 16.0564C65.0958 16.2266 66.0742 16.1129 66.9602 15.7294C67.8463 15.3459 68.601 14.7093 69.131 13.8986C69.6611 13.0879 69.9431 12.1386 69.9422 11.1682V4.96601C69.9422 4.89872 69.9617 4.83289 69.9985 4.77668C70.0353 4.72046 70.0876 4.67633 70.1491 4.64974C70.2105 4.62316 70.2783 4.61529 70.3442 4.62711C70.41 4.63893 70.471 4.66993 70.5195 4.71625L81.3611 15.0655C82.2657 15.943 83.4723 16.4349 84.7288 16.4385C85.4077 16.4368 86.0791 16.2955 86.7018 16.0234C87.5933 15.6468 88.3532 15.0118 88.8847 14.1992C89.4161 13.3866 89.6952 12.4333 89.6862 11.4606V0.360603Z" fill="white"/>
</svg>
