<svg width="12" height="12" viewBox="0 0 12 12" fill="none" xmlns="http://www.w3.org/2000/svg">
<path d="M4.36477 1.65803C4.1759 1.45657 3.85949 1.44637 3.65803 1.63523C3.45657 1.8241 3.44637 2.14051 3.63523 2.34197L4.36477 1.65803ZM8 6.26667L8.34116 6.63219C8.43824 6.54158 8.49529 6.41607 8.49972 6.28334C8.50415 6.15062 8.4556 6.02158 8.36477 5.9247L8 6.26667ZM3.65884 9.63447C3.45697 9.82289 3.44606 10.1393 3.63447 10.3412C3.82289 10.543 4.13928 10.5539 4.34116 10.3655L3.65884 9.63447ZM3.63523 2.34197L7.63523 6.60864L8.36477 5.9247L4.36477 1.65803L3.63523 2.34197ZM7.65884 5.90114L3.65884 9.63447L4.34116 10.3655L8.34116 6.63219L7.65884 5.90114Z" fill="#2B96D3"/>
</svg>
