<svg width="14" height="16" viewBox="0 0 14 16" fill="none" xmlns="http://www.w3.org/2000/svg">
<path d="M12.3914 1.84388H10.6638V1.30768C10.6638 0.870802 10.3064 0.513428 9.86952 0.513428C9.43264 0.513428 9.07527 0.870802 9.07527 1.30768L9.07513 1.84388H4.90494V1.30768C4.90494 0.870802 4.54756 0.513428 4.11069 0.513428C3.67381 0.513428 3.31643 0.870802 3.31643 1.30768L3.3163 1.84388H1.58868C0.71489 1.84388 0 2.55877 0 3.43256V13.8978C0 14.7715 0.71489 15.4864 1.58868 15.4864H12.4113C13.2851 15.4864 14 14.7715 14 13.8978V3.43256C13.9802 2.55877 13.2653 1.84388 12.3915 1.84388H12.3914ZM9.21402 12.3687H4.76582C4.32894 12.3687 3.97157 12.0113 3.97157 11.5744C3.97157 11.1375 4.32894 10.7801 4.76582 10.7801H9.23388C9.67076 10.7801 10.0281 11.1375 10.0281 11.5744C10.0281 12.0113 9.67076 12.3687 9.21392 12.3687H9.21402ZM10.346 9.72753H3.63398C3.19711 9.72753 2.83973 9.37016 2.83973 8.93328C2.83973 8.4964 3.19711 8.13903 3.63398 8.13903H10.3261C10.763 8.13903 11.1204 8.4964 11.1204 8.93328C11.1205 9.37016 10.783 9.72753 10.3461 9.72753H10.346ZM1.5886 5.61691V3.43246H3.31622V3.96866C3.31622 4.40554 3.67359 4.76291 4.11047 4.76291C4.54735 4.76291 4.90472 4.40554 4.90472 3.96866L4.90486 3.43246H9.07505V3.96866C9.07505 4.40554 9.43243 4.76291 9.8693 4.76291C10.3062 4.76291 10.6636 4.40554 10.6636 3.96866L10.6637 3.43246H12.3913V5.61691H1.5886Z" fill="#2D9CDB"/>
</svg>
