<svg width="28" height="28" viewBox="0 0 28 28" fill="none" xmlns="http://www.w3.org/2000/svg">
<path fill-rule="evenodd" clip-rule="evenodd" d="M25.6406 6.22202C26.9933 8.24646 27.7914 10.5836 27.9643 13.0008C28.0037 13.5517 27.5523 14 27 14C26.4477 14 26.0044 13.5507 25.959 13.0003C25.4509 6.84063 20.2908 2.00001 14 2.00001C7.37259 2.00001 2.00001 7.37259 2.00001 14C2.00001 20.2908 6.84063 25.4509 13.0003 25.959C13.5507 26.0044 14 26.4477 14 27C14 27.5523 13.5517 28.0037 13.0008 27.9643C10.5836 27.7914 8.24646 26.9933 6.22202 25.6406C3.91974 24.1022 2.12532 21.9157 1.06569 19.3576C0.006066 16.7994 -0.271181 13.9845 0.269012 11.2687C0.809205 8.55301 2.14258 6.05845 4.10051 4.10051C6.05845 2.14258 8.55301 0.809206 11.2687 0.269012C13.9845 -0.271181 16.7994 0.00606597 19.3576 1.06569C21.9157 2.12532 24.1022 3.91973 25.6406 6.22202Z" fill="white"/>
<path d="M14 6.5V14.5L20 18.5" stroke="white" stroke-width="2" stroke-linecap="round" stroke-linejoin="round"/>
</svg>
