<svg width="64" height="64" viewBox="0 0 64 64" fill="none" xmlns="http://www.w3.org/2000/svg">
<path d="M44 23C45.6477 23 47 24.3523 47 26V48C47 49.6477 45.6477 51 44 51H20C18.3523 51 17 49.6477 17 48V43.2C17 42.96 17.1126 42.7467 17.3355 42.5857C17.5474 42.4326 17.8403 42.3462 18.1466 42.3748C19.1899 42.7775 20.2648 43 21 43C24.3523 43 27 40.3523 27 37C27 33.6477 24.3523 31 21 31C20.245 31 19.1316 31.2347 18.0622 31.6582C17.8247 31.7296 17.5775 31.6768 17.3639 31.5106C17.1355 31.3329 17 31.0645 17 30.8V26C17 24.3523 18.3523 23 20 23H28.4C29.1263 23 29.7105 22.5461 30.0187 22.0619C30.3344 21.5657 30.4999 20.8072 30.072 20.1077C29.7879 19.5372 29.5165 18.9435 29.3159 18.3863C29.1042 17.7983 29 17.3272 29 17C29 14.7523 30.7523 13 33 13C35.2477 13 37 14.7523 37 17C37 17.3272 36.8958 17.7983 36.6841 18.3863C36.4837 18.9431 36.2125 19.5363 35.9287 20.1065C35.1415 21.381 36.0488 23 37.6 23H44Z" stroke="#2D9CDB" stroke-width="2"/>
<rect x="1" y="1" width="62" height="62" rx="22.625" stroke="#2D9CDB" stroke-width="2"/>
</svg>
