<svg width="51" height="31" viewBox="0 0 51 31" fill="none" xmlns="http://www.w3.org/2000/svg">
<path d="M32.7995 10.7855L18.3785 6.04881C18.2206 5.99631 18.1152 6.10131 18.1152 6.25918V25.8907C18.1152 25.9961 18.1677 26.0486 18.2731 26.1011L32.6941 30.8377C32.7995 30.8902 32.9574 30.7852 32.9574 30.6274V10.9958C32.9049 10.8905 32.8524 10.838 32.7995 10.7851V10.7855Z" fill="#2D9CDB"/>
<path d="M46.9629 4.21061L34.1209 0H34.0155L21.1734 4.21061C20.963 4.26311 20.963 4.52635 21.1734 4.57921L34.0155 8.78983H34.1209L46.9629 4.57921C47.1208 4.57921 47.1208 4.31598 46.9629 4.21061Z" fill="#2D9CDB"/>
<path d="M49.7449 6.04881L35.3239 10.7855C35.2185 10.838 35.166 10.8908 35.166 10.9958V30.6274C35.166 30.7852 35.3239 30.8377 35.4292 30.8377L49.8503 26.1011C49.9556 26.0486 50.0081 25.9957 50.0081 25.8907V6.25918C50.0081 6.10131 49.8503 5.99631 49.7449 6.04881Z" fill="#2D9CDB"/>
<path d="M11.8519 5.99609H1.48345C0.694126 5.99609 0.00976562 6.62756 0.00976562 7.46978C0.00976562 8.2591 0.641231 8.94346 1.48345 8.94346H11.8519C12.6412 8.94346 13.3255 8.31199 13.3255 7.46978C13.273 6.68009 12.6412 5.99609 11.8519 5.99609Z" fill="#2D9CDB"/>
<path d="M11.8519 14.1602H1.48345C0.694126 14.1602 0.00976562 14.7916 0.00976562 15.6338C0.00976562 16.4232 0.641231 17.1075 1.48345 17.1075L11.8519 17.1079C12.6412 17.1079 13.3255 16.4764 13.3255 15.6342C13.273 14.8445 12.6412 14.1602 11.8519 14.1602V14.1602Z" fill="#2D9CDB"/>
<path d="M11.8519 22.3682H1.48345C0.694126 22.3682 0.00976562 22.9996 0.00976562 23.8418C0.00976562 24.684 0.641231 25.3155 1.48345 25.3155H11.8519C12.6412 25.3155 13.3255 24.6841 13.3255 23.8418C13.3255 22.9997 12.6412 22.3682 11.8519 22.3682Z" fill="#2D9CDB"/>
</svg>
