<svg width="35" height="34" viewBox="0 0 35 34" fill="none" xmlns="http://www.w3.org/2000/svg">
<path d="M28.9848 11.6526L18.7004 17.0206C18.3321 17.2171 17.9169 17.3083 17.5003 17.2846C17.0838 17.3083 16.6686 17.2171 16.3003 17.0206L6.01591 11.6526C5.49582 11.3806 5.5 11.7006 5.5 11.9447V21.6684C5.55608 22.0012 5.71429 22.3084 5.95313 22.5473C6.19198 22.7862 6.49917 22.9444 6.83207 23.0004H28.1679C28.5008 22.9444 28.808 22.7862 29.0469 22.5473C29.2857 22.3085 29.4439 22.0013 29.5 21.6684V11.944C29.5 11.7002 29.5007 11.4006 28.9848 11.6526Z" stroke="#2D9CDB" stroke-width="2"/>
<path d="M6.24849 11.7159L16.2486 17.0879C17.0106 17.4367 17.8867 17.4367 18.6487 17.0879L28.6845 11.7159C29.3366 11.3638 29.9527 10 28.7565 10H6.17991C4.98404 10 5.6001 11.3642 6.24799 11.7159H6.24849Z" stroke="#2D9CDB" stroke-width="2"/>
</svg>
