<svg width="15" height="16" viewBox="0 0 15 16" fill="none" xmlns="http://www.w3.org/2000/svg">
<path d="M7.49999 1.85138C9.50258 1.85138 9.73977 1.859 10.5306 1.89508C11.2619 1.92846 11.659 2.05064 11.9233 2.15332C12.2733 2.28937 12.5232 2.45193 12.7856 2.71436C13.0481 2.97679 13.2106 3.22666 13.3467 3.57671C13.4494 3.84102 13.5715 4.23814 13.6049 4.96936C13.641 5.76023 13.6486 5.99742 13.6486 8.00002C13.6486 10.0026 13.641 10.2398 13.6049 11.0306C13.5715 11.7619 13.4494 12.159 13.3467 12.4233C13.2106 12.7734 13.0481 13.0232 12.7856 13.2857C12.5232 13.5481 12.2733 13.7107 11.9233 13.8467C11.659 13.9494 11.2619 14.0716 10.5306 14.1049C9.73989 14.141 9.5027 14.1487 7.49999 14.1487C5.49727 14.1487 5.26008 14.141 4.46936 14.1049C3.73811 14.0716 3.34099 13.9494 3.07671 13.8467C2.72663 13.7107 2.47676 13.5481 2.21433 13.2857C1.9519 13.0232 1.78934 12.7734 1.65332 12.4233C1.55061 12.159 1.42843 11.7619 1.39505 11.0307C1.35897 10.2398 1.35135 10.0026 1.35135 8.00002C1.35135 5.99742 1.35897 5.76023 1.39505 4.96939C1.42843 4.23814 1.55061 3.84102 1.65332 3.57671C1.78934 3.22666 1.9519 2.97679 2.21433 2.71436C2.47676 2.45193 2.72663 2.28937 3.07671 2.15332C3.34099 2.05064 3.73811 1.92846 4.46933 1.89508C5.2602 1.859 5.49739 1.85138 7.49999 1.85138ZM7.49999 0.5C5.46309 0.5 5.20771 0.508634 4.40776 0.545133C3.60944 0.581573 3.06427 0.70834 2.58719 0.893755C2.09399 1.08542 1.67574 1.34187 1.25879 1.75882C0.841843 2.17577 0.585393 2.59402 0.393725 3.08721C0.20831 3.5643 0.0815436 4.10947 0.0451035 4.90779C0.0086039 5.70771 0 5.96312 0 8.00002C0 10.0369 0.0086039 10.2923 0.0451035 11.0922C0.0815436 11.8906 0.20831 12.4357 0.393725 12.9128C0.585393 13.406 0.841843 13.8243 1.25879 14.2412C1.67574 14.6582 2.09399 14.9146 2.58719 15.1063C3.06427 15.2917 3.60944 15.4185 4.40776 15.4549C5.20771 15.4914 5.46309 15.5 7.49999 15.5C9.53688 15.5 9.79229 15.4914 10.5922 15.4549C11.3905 15.4185 11.9357 15.2917 12.4128 15.1063C12.906 14.9146 13.3242 14.6582 13.7412 14.2412C14.1581 13.8243 14.4146 13.406 14.6062 12.9128C14.7917 12.4357 14.9184 11.8906 14.9549 11.0922C14.9914 10.2923 15 10.0369 15 8.00002C15 5.96312 14.9914 5.70771 14.9549 4.90779C14.9184 4.10947 14.7917 3.5643 14.6062 3.08721C14.4146 2.59402 14.1581 2.17577 13.7412 1.75882C13.3242 1.34187 12.906 1.08542 12.4128 0.893755C11.9357 0.70834 11.3905 0.581573 10.5922 0.545133C9.79229 0.508634 9.53688 0.5 7.49999 0.5ZM7.49999 4.14865C5.37295 4.14865 3.64862 5.87298 3.64862 8.00002C3.64862 10.1271 5.37295 11.8514 7.49999 11.8514C9.62703 11.8514 11.3513 10.1271 11.3513 8.00002C11.3513 5.87298 9.62703 4.14865 7.49999 4.14865ZM7.49999 10.5C6.11928 10.5 4.99997 9.38072 4.99997 8.00002C4.99997 6.61931 6.11928 5.5 7.49999 5.5C8.88069 5.5 10 6.61931 10 8.00002C10 9.38072 8.88069 10.5 7.49999 10.5ZM12.4035 3.99649C12.4035 4.49355 12.0006 4.89651 11.5035 4.89651C11.0064 4.89651 10.6035 4.49355 10.6035 3.99649C10.6035 3.49943 11.0064 3.0965 11.5035 3.0965C12.0006 3.0965 12.4035 3.49943 12.4035 3.99649Z" fill="white"/>
</svg>
