<svg width="13" height="15" viewBox="0 0 13 15" fill="none" xmlns="http://www.w3.org/2000/svg">
<path d="M10.7408 2.01448C9.57151 0.841716 8.03571 0.258789 6.50001 0.258789C4.9643 0.258789 3.42834 0.841716 2.25918 2.01448C-0.086392 4.36021 -0.086392 8.15772 2.25918 10.5002L6.50001 14.741L10.7408 10.5002C11.9136 9.33085 12.5 7.79506 12.5 6.25935C12.5002 4.72336 11.9138 3.18753 10.7408 2.01488V2.01448ZM6.50001 9.08307C4.93973 9.08307 3.67617 7.81951 3.67617 6.25923C3.67617 4.69895 4.93973 3.43191 6.50001 3.43191C8.06028 3.43191 9.32384 4.69891 9.32384 6.25923C9.32384 7.81934 8.06028 9.08307 6.50001 9.08307Z" fill="white"/>
</svg>
