<svg width="35" height="34" viewBox="0 0 35 34" fill="none" xmlns="http://www.w3.org/2000/svg">
<path d="M24.0827 7.72693C22.1338 5.77233 19.5742 4.80078 17.0147 4.80078C14.4551 4.80078 11.8952 5.77233 9.94661 7.72693C6.03733 11.6365 6.03733 17.9657 9.94661 21.8698L17.0147 28.9378L24.0827 21.8698C26.0373 19.9209 27.0146 17.3612 27.0146 14.8017C27.0149 12.2417 26.0376 9.68201 24.0827 7.72761V7.72693ZM17.0147 19.5079C14.4142 19.5079 12.3083 17.402 12.3083 14.8015C12.3083 12.2011 14.4142 10.0893 17.0147 10.0893C19.6151 10.0893 21.7211 12.201 21.7211 14.8015C21.7211 17.4017 19.6151 19.5079 17.0147 19.5079Z" stroke="#2D9CDB" stroke-width="2"/>
</svg>
