<svg width="33" height="32" viewBox="0 0 33 32" fill="none" xmlns="http://www.w3.org/2000/svg">
<path d="M5.80035 27V11.5H13.9996V19.5H27.8004V27H5.80035Z" stroke="#56CCF2" stroke-width="2" stroke-linejoin="round"/>
<path d="M17.9996 7V6C17.4473 6 16.9996 6.44772 16.9996 7H17.9996ZM21.9996 7H22.9996C22.9996 6.44772 22.5519 6 21.9996 6V7ZM20.9996 19C20.9996 19.5523 21.4473 20 21.9996 20C22.5519 20 22.9996 19.5523 22.9996 19H20.9996ZM16.9996 19C16.9996 19.5523 17.4473 20 17.9996 20C18.5519 20 18.9996 19.5523 18.9996 19H16.9996ZM17.9996 8H21.9996V6H17.9996V8ZM20.9996 7V19H22.9996V7H20.9996ZM16.9996 7V19H18.9996V7H16.9996Z" fill="#56CCF2"/>
<path d="M21.9996 12V11C21.4473 11 20.9996 11.4477 20.9996 12H21.9996ZM25.9996 12H26.9996C26.9996 11.4477 26.5519 11 25.9996 11V12ZM24.9996 19C24.9996 19.5523 25.4473 20 25.9996 20C26.5519 20 26.9996 19.5523 26.9996 19H24.9996ZM20.9996 19C20.9996 19.5523 21.4473 20 21.9996 20C22.5519 20 22.9996 19.5523 22.9996 19H20.9996ZM21.9996 13H25.9996V11H21.9996V13ZM24.9996 12V19H26.9996V12H24.9996ZM20.9996 12V19H22.9996V12H20.9996Z" fill="#56CCF2"/>
<path d="M10.9996 24C10.9996 23.4477 10.5519 23 9.99957 23C9.44729 23 8.99957 23.4477 8.99957 24H10.9996ZM8.99957 27C8.99957 27.5523 9.44729 28 9.99957 28C10.5519 28 10.9996 27.5523 10.9996 27H8.99957ZM8.99957 24V27H10.9996V24H8.99957Z" fill="#56CCF2"/>
</svg>
