<svg width="33" height="32" viewBox="0 0 33 32" fill="none" xmlns="http://www.w3.org/2000/svg">
<path d="M5.79999 27V5H27.8V27H5.79999Z" stroke="#56CCF2" stroke-width="2" stroke-linejoin="round"/>
<path d="M15.9992 5V27.5" stroke="#56CCF2" stroke-width="2" stroke-linejoin="round"/>
<path d="M27.9992 5L18.9992 8C18.9992 16.7868 18.9992 21.7132 18.9992 30.5L27.9992 27" stroke="#56CCF2" stroke-width="2" stroke-linejoin="round"/>
<path d="M19.667 18.0671C19.1461 18.2505 18.8725 18.8216 19.056 19.3425C19.2395 19.8634 19.8105 20.1369 20.3314 19.9535L19.667 18.0671ZM23.2001 18.943C23.721 18.7595 23.9945 18.1885 23.811 17.6676C23.6276 17.1467 23.0565 16.8731 22.5356 17.0566L23.2001 18.943ZM20.3314 19.9535L23.2001 18.943L22.5356 17.0566L19.667 18.0671L20.3314 19.9535Z" fill="#56CCF2"/>
</svg>
