<svg width="30" height="39" viewBox="0 0 30 39" fill="none" xmlns="http://www.w3.org/2000/svg">
<path d="M27.5813 10.212L27.5827 10.2064L27.424 9.88333C23.966 2.84156 15.5618 -0.0300031 8.65064 3.52707C1.74609 7.08059 -0.905116 15.9546 2.44131 22.6918C3.22533 24.2775 5.18493 27.0311 7.22016 29.741C9.27736 32.4802 11.4861 35.2708 12.8324 36.9713C13.9081 38.3571 15.9311 38.3236 17.0191 36.9867L17.0192 36.9867L17.0275 36.9762C18.376 35.2731 20.5684 32.4811 22.6225 29.7402C24.6562 27.0265 26.6128 24.2867 27.444 22.7181C29.514 18.8561 29.477 14.2891 27.5813 10.212ZM20.6997 16.3396H20.6997L20.6997 16.3488C20.7297 19.6019 18.1224 22.2502 14.9493 22.2502C11.7843 22.2502 9.19889 19.6085 9.19889 16.3396C9.19889 13.0382 11.7811 10.429 14.9493 10.429C18.1143 10.429 20.6997 13.0707 20.6997 16.3396Z" stroke="white" stroke-width="2"/>
</svg>
