<svg width="40" height="40" viewBox="0 0 40 40" fill="none" xmlns="http://www.w3.org/2000/svg">
<g clip-path="url(#clip0_472_380)">
<path d="M34.967 8.09326C35.8902 9.28566 36.6595 10.5935 37.3134 11.9783L19.5421 25.0949L12.0801 20.4021V14.7862L19.5041 19.4405L34.967 8.09326Z" fill="#21A038"/>
<path d="M4.50047 20.0137C4.50047 19.7444 4.50047 19.5137 4.53894 19.2444L0.0384731 19.0137C0.0384731 19.3214 0 19.6676 0 19.9753C0 25.3605 2.19253 30.2453 5.73133 33.7846L8.92393 30.5919C6.19287 27.8993 4.5004 24.1682 4.5004 20.0139L4.50047 20.0137Z" fill="url(#paint0_linear_472_380)"/>
<path d="M19.5033 5.01316C19.7725 5.01316 20.0033 5.01316 20.2726 5.05163L20.5034 0.551161C20.1957 0.551161 19.8495 0.512695 19.5418 0.512695C14.1566 0.512695 9.27176 2.70523 5.73242 6.24403L8.92502 9.43663C11.6176 6.70556 15.3872 5.01309 19.503 5.01309L19.5033 5.01316Z" fill="url(#paint1_linear_472_380)"/>
<path d="M19.506 35.0192C19.2367 35.0192 19.0059 35.0192 18.7367 34.9808L18.5059 39.4812C18.8136 39.4812 19.1598 39.5197 19.4675 39.5197C24.8527 39.5197 29.7375 37.3272 33.2769 33.7884L30.0843 30.5957C27.3917 33.3652 23.6605 35.0192 19.5063 35.0192H19.506Z" fill="url(#paint2_linear_472_380)"/>
<path d="M27.9646 7.63312L31.7726 4.82512C28.4262 2.13258 24.1566 0.478516 19.502 0.478516V4.97898C22.6561 5.01745 25.5795 5.97912 27.9646 7.63312H27.9646Z" fill="url(#paint3_linear_472_380)"/>
<path d="M39.0426 20.014C39.0426 18.8216 38.9272 17.6676 38.7349 16.5137L34.5421 19.6294V20.0141C34.5421 24.4376 32.6189 28.3994 29.5801 31.1307L32.6189 34.4773C36.5423 30.9385 39.0426 25.7459 39.0426 20.0139L39.0426 20.014Z" fill="#21A038"/>
<path d="M19.5022 35.0207C15.0787 35.0207 11.1169 33.0974 8.38553 30.0586L5.03906 33.0974C8.61633 37.0593 13.7704 39.5211 19.5024 39.5211L19.5022 35.0207Z" fill="url(#paint4_linear_472_380)"/>
<path d="M9.46253 8.90073L6.42373 5.5542C2.4618 9.13147 0 14.2855 0 20.0169H4.50047C4.50047 15.6318 6.42373 11.6315 9.46253 8.9002V8.90073Z" fill="url(#paint5_linear_472_380)"/>
</g>
<defs>
<linearGradient id="paint0_linear_472_380" x1="5.25005" y1="33.2628" x2="0.656132" y2="19.9837" gradientUnits="userSpaceOnUse">
<stop offset="0.1444" stop-color="#F2E913"/>
<stop offset="0.3037" stop-color="#E7E518"/>
<stop offset="0.5823" stop-color="#CADB26"/>
<stop offset="0.891" stop-color="#A3CD39"/>
</linearGradient>
<linearGradient id="paint1_linear_472_380" x1="6.99701" y1="5.71867" x2="18.6673" y2="1.27152" gradientUnits="userSpaceOnUse">
<stop offset="0.0592" stop-color="#0FA8E0"/>
<stop offset="0.5385" stop-color="#0099F9"/>
<stop offset="0.9234" stop-color="#0291EB"/>
</linearGradient>
<linearGradient id="paint2_linear_472_380" x1="18.2438" y1="35.6982" x2="32.1535" y2="32.5547" gradientUnits="userSpaceOnUse">
<stop offset="0.1226" stop-color="#A3CD39"/>
<stop offset="0.2846" stop-color="#86C339"/>
<stop offset="0.8693" stop-color="#21A038"/>
</linearGradient>
<linearGradient id="paint3_linear_472_380" x1="18.569" y1="3.35693" x2="30.1365" y2="6.92628" gradientUnits="userSpaceOnUse">
<stop offset="0.0566" stop-color="#0291EB"/>
<stop offset="0.79" stop-color="#0C8ACB"/>
</linearGradient>
<linearGradient id="paint4_linear_472_380" x1="6.16682" y1="33.8384" x2="18.588" y2="38.4811" gradientUnits="userSpaceOnUse">
<stop offset="0.1324" stop-color="#F2E913"/>
<stop offset="0.2977" stop-color="#EBE716"/>
<stop offset="0.5306" stop-color="#D9E01F"/>
<stop offset="0.8023" stop-color="#BBD62D"/>
<stop offset="0.9829" stop-color="#A3CD39"/>
</linearGradient>
<linearGradient id="paint5_linear_472_380" x1="3.4206" y1="20.5684" x2="8.38786" y2="7.64733" gradientUnits="userSpaceOnUse">
<stop offset="0.0698" stop-color="#A3CD39"/>
<stop offset="0.2599" stop-color="#81C55F"/>
<stop offset="0.9216" stop-color="#0FA8E0"/>
</linearGradient>
<clipPath id="clip0_472_380">
<rect width="39.3333" height="40" fill="white"/>
</clipPath>
</defs>
</svg>
