<svg width="33" height="40" viewBox="0 0 33 40" fill="none" xmlns="http://www.w3.org/2000/svg">
<g clip-path="url(#clip0_472_391)">
<path d="M0.333008 8.70679L5.17701 17.3651V22.6465L0.338674 31.2878L0.333008 8.70679Z" fill="#5B57A2"/>
<path d="M18.9316 14.2143L23.4706 11.4323L32.76 11.4236L18.9316 19.8949V14.2143Z" fill="#D90751"/>
<path d="M18.9058 8.65567L18.9315 20.119L14.0762 17.1357V0L18.9062 8.65567H18.9058Z" fill="#FAB718"/>
<path d="M32.7598 11.4237L23.4702 11.4323L18.9058 8.65567L14.0762 0L32.7595 11.4237H32.7598Z" fill="#ED6F26"/>
<path d="M18.9315 31.3357V25.7741L14.0762 22.8474L14.0788 40.0001L18.9315 31.3357Z" fill="#63B22F"/>
<path d="M23.4597 28.5791L5.17667 17.3651L0.333008 8.70679L32.7407 28.5678L23.4593 28.5791H23.4597Z" fill="#1487C9"/>
<path d="M14.0801 40L18.9321 31.3356L23.4597 28.579L32.7407 28.5676L14.0801 40Z" fill="#017F36"/>
<path d="M0.338867 31.2876L14.1165 22.8476L9.48453 20.0056L5.1772 22.6463L0.338867 31.2876Z" fill="#984995"/>
</g>
<defs>
<clipPath id="clip0_472_391">
<rect width="32.6667" height="40" fill="white" transform="translate(0.333008)"/>
</clipPath>
</defs>
</svg>
