<svg width="41" height="40" viewBox="0 0 41 40" fill="none" xmlns="http://www.w3.org/2000/svg">
<g clip-path="url(#clip0_472_389)">
<path fill-rule="evenodd" clip-rule="evenodd" d="M27.3004 34.7675C30.6866 34.7675 34.3604 35.9262 38.4279 39.5225C38.8354 39.8825 39.3779 39.435 39.0216 38.9875C35.0254 33.9512 31.3291 32.9925 27.6429 32.1825C23.1329 31.19 20.8141 28.6575 19.1979 25.8775C18.8766 25.325 18.7316 25.4225 18.7029 26.1337C18.6666 27.0025 18.7279 28.1537 18.9229 29.2862C18.7404 29.2937 18.5579 29.2925 18.3729 29.2925C11.9229 29.2925 6.69285 24.0725 6.69285 17.6337C6.69285 11.1962 11.9229 5.9775 18.3741 5.9775C24.8241 5.9775 30.0541 11.1962 30.0541 17.6337C30.0541 18.0925 30.0316 18.5462 29.9791 18.99C29.1266 18.8362 27.4479 18.8187 26.2704 18.92C25.8279 18.9587 25.8904 19.165 26.2254 19.225C30.0866 19.9212 32.7379 22.31 33.3454 26.6437C33.3579 26.7437 33.4904 26.7725 33.5416 26.6862C35.1834 23.9525 36.0482 20.8226 36.0429 17.6337C36.0429 7.89625 28.1316 0 18.3741 0C8.61535 0 0.704102 7.895 0.704102 17.6337C0.704102 27.3737 8.61535 35.27 18.3741 35.27C20.9616 35.27 23.5316 34.7675 27.3004 34.7675ZM28.6154 28.365C29.4016 29.0275 29.6404 29.8162 29.2254 30.3725C28.9941 30.6775 28.6191 30.8462 28.1691 30.8462C27.7301 30.8463 27.305 30.6924 26.9679 30.4112C26.2529 29.7875 26.0429 28.7775 26.5091 28.2037C26.6916 27.9787 26.9879 27.855 27.3429 27.855C27.7741 27.855 28.2266 28.0362 28.6154 28.365ZM32.2429 26.68C32.3579 27.4525 32.1141 27.7725 31.8679 27.7725C31.5991 27.7725 31.2629 27.46 30.8666 26.8412C30.4741 26.2312 30.3304 25.5312 30.5254 25.1775C30.6529 24.9437 30.9216 24.8412 31.2604 24.97C31.9166 25.2162 32.1729 26.2187 32.2429 26.68Z" fill="#FF8C00"/>
</g>
<defs>
<clipPath id="clip0_472_389">
<rect width="40" height="40" fill="white" transform="translate(0.333008)"/>
</clipPath>
</defs>
</svg>
