<svg width="51" height="50" viewBox="0 0 51 50" fill="none" xmlns="http://www.w3.org/2000/svg">
<path fill-rule="evenodd" clip-rule="evenodd" d="M8.58129 6.66675C7.3369 6.66675 6.32812 7.67553 6.32812 8.91992V19.0592C6.32812 20.3036 7.3369 21.3123 8.58129 21.3123H29.9864C31.2308 21.3123 32.2395 20.3036 32.2395 19.0592V18.4958H6.32829V15.6793H32.2395V8.91991C32.2395 7.67553 31.2308 6.66675 29.9864 6.66675H8.58129Z" fill="#56CCF2"/>
<path fill-rule="evenodd" clip-rule="evenodd" d="M15.2638 15.5869C13.6738 15.5869 12.3848 16.8759 12.3848 18.466V27.1032H45.4938V18.466C45.4938 16.8759 44.2048 15.5869 42.6148 15.5869H15.2638ZM45.4938 30.702H12.3848V31.4217C12.3848 33.0117 13.6738 34.3007 15.2638 34.3007H42.6148C44.2048 34.3007 45.4938 33.0117 45.4938 31.4217V30.702Z" fill="#2D9CDB"/>
<path d="M14.2948 43.0417H13.2115V45.5H12.1448V39.6667H13.2115V42.1083H14.3281L16.0031 39.6667H17.1531L15.1615 42.4917L17.2281 45.5H16.0031L14.2948 43.0417ZM19.5621 41C20.2177 41 20.7177 41.1583 21.0621 41.475C21.4121 41.7861 21.5871 42.2583 21.5871 42.8917V45.5H20.6038V44.9583C20.476 45.1528 20.2927 45.3028 20.0538 45.4083C19.8204 45.5083 19.5371 45.5583 19.2038 45.5583C18.8704 45.5583 18.5788 45.5028 18.3288 45.3917C18.0788 45.275 17.8843 45.1167 17.7454 44.9167C17.6121 44.7111 17.5454 44.4806 17.5454 44.225C17.5454 43.825 17.6927 43.5056 17.9871 43.2667C18.2871 43.0222 18.7566 42.9 19.3954 42.9H20.5454V42.8333C20.5454 42.5222 20.451 42.2833 20.2621 42.1167C20.0788 41.95 19.8038 41.8667 19.4371 41.8667C19.1871 41.8667 18.9399 41.9056 18.6954 41.9833C18.4566 42.0611 18.2538 42.1694 18.0871 42.3083L17.6788 41.55C17.9121 41.3722 18.1927 41.2361 18.5204 41.1417C18.8482 41.0472 19.1954 41 19.5621 41ZM19.4204 44.8C19.6816 44.8 19.9121 44.7417 20.1121 44.625C20.3177 44.5028 20.4621 44.3306 20.5454 44.1083V43.5917H19.4704C18.8704 43.5917 18.5704 43.7889 18.5704 44.1833C18.5704 44.3722 18.6454 44.5222 18.7954 44.6333C18.9454 44.7444 19.1538 44.8 19.4204 44.8ZM25.3428 41C25.7761 41 26.1622 41.0944 26.5011 41.2833C26.8456 41.4722 27.115 41.7389 27.3094 42.0833C27.5039 42.4278 27.6011 42.825 27.6011 43.275C27.6011 43.725 27.5039 44.125 27.3094 44.475C27.115 44.8194 26.8456 45.0861 26.5011 45.275C26.1622 45.4639 25.7761 45.5583 25.3428 45.5583C24.7428 45.5583 24.2678 45.3583 23.9178 44.9583V47.1167H22.8761V41.05H23.8678V41.6333C24.04 41.4222 24.2511 41.2639 24.5011 41.1583C24.7567 41.0528 25.0372 41 25.3428 41ZM25.2261 44.6667C25.6094 44.6667 25.9233 44.5389 26.1678 44.2833C26.4178 44.0278 26.5428 43.6917 26.5428 43.275C26.5428 42.8583 26.4178 42.5222 26.1678 42.2667C25.9233 42.0111 25.6094 41.8833 25.2261 41.8833C24.9761 41.8833 24.7511 41.9417 24.5511 42.0583C24.3511 42.1694 24.1928 42.3306 24.0761 42.5417C23.9594 42.7528 23.9011 42.9972 23.9011 43.275C23.9011 43.5528 23.9594 43.7972 24.0761 44.0083C24.1928 44.2194 24.3511 44.3833 24.5511 44.5C24.7511 44.6111 24.9761 44.6667 25.2261 44.6667ZM32.0001 41.9333H30.4417V45.5H29.4001V41.9333H27.8334V41.05H32.0001V41.9333ZM34.9223 42.5167C35.489 42.5167 35.9223 42.6444 36.2223 42.9C36.5223 43.1556 36.6723 43.5167 36.6723 43.9833C36.6723 44.4722 36.5057 44.85 36.1723 45.1167C35.8446 45.3833 35.3779 45.5139 34.7723 45.5083L32.7557 45.5V41.05H33.7973V42.5083L34.9223 42.5167ZM37.2473 41.05H38.289V45.5H37.2473V41.05ZM34.6807 44.7417C34.9862 44.7472 35.2196 44.6833 35.3807 44.55C35.5418 44.4167 35.6223 44.2222 35.6223 43.9667C35.6223 43.7167 35.5446 43.5333 35.389 43.4167C35.2334 43.3 34.9973 43.2389 34.6807 43.2333L33.7973 43.225V44.7333L34.6807 44.7417Z" fill="black"/>
</svg>
