<svg width="75" height="24" viewBox="0 0 75 24" fill="none" xmlns="http://www.w3.org/2000/svg">
<g clip-path="url(#clip0_475_66)">
<path d="M32.14 23.6545H26.1328L29.8902 0.421875H35.8971L32.14 23.6545Z" fill="#00579F"/>
<path d="M53.9146 0.989106C52.7297 0.519026 50.8504 0 48.5266 0C42.5942 0 38.4167 3.16343 38.3911 7.68618C38.3418 11.0231 41.3821 12.8764 43.6559 13.9891C45.98 15.126 46.7701 15.8681 46.7701 16.8815C46.7464 18.4379 44.8921 19.1553 43.1625 19.1553C40.7642 19.1553 39.4791 18.7854 37.5262 17.9195L36.7352 17.5483L35.8945 22.7635C37.3035 23.4054 39.8992 23.975 42.5942 24C48.8974 24 53.001 20.8855 53.0496 16.0658C53.0736 13.4211 51.4683 11.3946 48.0072 9.73863C45.9061 8.67561 44.6194 7.95883 44.6194 6.87118C44.6441 5.8824 45.7077 4.86964 48.0795 4.86964C50.0324 4.82004 51.4673 5.28946 52.5543 5.75921L53.0976 6.00591L53.9146 0.989106Z" fill="#00579F"/>
<path d="M61.8879 15.424C62.3826 14.0893 64.2863 8.92371 64.2863 8.92371C64.2613 8.97331 64.78 7.56439 65.0766 6.69946L65.4965 8.70132C65.4965 8.70132 66.634 14.2624 66.8811 15.424C65.9422 15.424 63.0745 15.424 61.8879 15.424ZM69.3031 0.421875H64.6565C63.2236 0.421875 62.1349 0.841694 61.5167 2.3495L52.5938 23.6542H58.897C58.897 23.6542 59.9347 20.7867 60.1577 20.1692C60.8492 20.1692 66.9809 20.1692 67.8705 20.1692C68.043 20.9848 68.5873 23.6542 68.5873 23.6542H74.1494L69.3031 0.421875Z" fill="#00579F"/>
<path d="M21.1126 0.421875L15.2295 16.2643L14.5866 13.0513C13.499 9.34386 10.0879 5.31583 6.28125 3.31298L11.6699 23.6299H18.0224L27.4647 0.421875H21.1126Z" fill="#00579F"/>
<path d="M9.76392 0.421875H0.0988772L0 0.891297C7.53934 2.81925 12.5325 7.4665 14.584 13.0523L12.4829 2.37479C12.137 0.890969 11.074 0.470821 9.76392 0.421875Z" fill="#FAA61A"/>
</g>
<defs>
<clipPath id="clip0_475_66">
<rect width="74.1569" height="24" fill="white"/>
</clipPath>
</defs>
</svg>
