<svg width="51" height="50" viewBox="0 0 51 50" fill="none" xmlns="http://www.w3.org/2000/svg">
<rect x="7.16211" y="8.33325" width="36.25" height="24.1667" rx="3.33333" fill="#2D9CDB"/>
<rect x="13.2031" y="13.6199" width="24.1667" height="2.26562" fill="white"/>
<rect x="13.2031" y="17.3958" width="24.1667" height="2.26562" fill="white"/>
<rect x="13.2031" y="21.1719" width="14.349" height="2.26562" fill="white"/>
<rect x="13.2031" y="24.948" width="14.349" height="2.26562" fill="white"/>
<circle cx="33.5941" cy="24.1927" r="3.02083" fill="#56CCF2"/>
<path d="M18.1621 45.5833C17.5732 45.5833 17.0399 45.4556 16.5621 45.2C16.0899 44.9389 15.7177 44.5806 15.4454 44.125C15.1788 43.6694 15.0454 43.1556 15.0454 42.5833C15.0454 42.0111 15.1816 41.4972 15.4538 41.0417C15.726 40.5861 16.0982 40.2306 16.5704 39.975C17.0482 39.7139 17.5816 39.5833 18.1704 39.5833C18.6482 39.5833 19.0843 39.6667 19.4788 39.8333C19.8732 40 20.2066 40.2417 20.4788 40.5583L19.7788 41.2167C19.3566 40.7611 18.8371 40.5333 18.2204 40.5333C17.8204 40.5333 17.4621 40.6222 17.1454 40.8C16.8288 40.9722 16.5816 41.2139 16.4038 41.525C16.226 41.8361 16.1371 42.1889 16.1371 42.5833C16.1371 42.9778 16.226 43.3306 16.4038 43.6417C16.5816 43.9528 16.8288 44.1972 17.1454 44.375C17.4621 44.5472 17.8204 44.6333 18.2204 44.6333C18.8371 44.6333 19.3566 44.4028 19.7788 43.9417L20.4788 44.6083C20.2066 44.925 19.8704 45.1667 19.4704 45.3333C19.076 45.5 18.6399 45.5833 18.1621 45.5833ZM25.0209 41.05V45.5H23.9792V43.775C23.5515 43.9806 23.1042 44.0833 22.6376 44.0833C22.0653 44.0833 21.6265 43.9528 21.3209 43.6917C21.0153 43.425 20.8626 43.0194 20.8626 42.475V41.05H21.9042V42.4083C21.9042 42.6917 21.9876 42.9028 22.1542 43.0417C22.3209 43.1806 22.557 43.25 22.8626 43.25C23.2515 43.25 23.6237 43.1667 23.9792 43V41.05H25.0209ZM30.5883 43.3C30.5883 43.3722 30.5828 43.475 30.5717 43.6083H27.08C27.1411 43.9361 27.2995 44.1972 27.555 44.3917C27.8161 44.5806 28.1383 44.675 28.5217 44.675C29.0106 44.675 29.4133 44.5139 29.73 44.1917L30.2883 44.8333C30.0883 45.0722 29.8356 45.2528 29.53 45.375C29.2245 45.4972 28.88 45.5583 28.4967 45.5583C28.0078 45.5583 27.5772 45.4611 27.205 45.2667C26.8328 45.0722 26.5439 44.8028 26.3383 44.4583C26.1383 44.1083 26.0383 43.7139 26.0383 43.275C26.0383 42.8417 26.1356 42.4528 26.33 42.1083C26.53 41.7583 26.805 41.4861 27.155 41.2917C27.505 41.0972 27.8995 41 28.3383 41C28.7717 41 29.1578 41.0972 29.4967 41.2917C29.8411 41.4806 30.1078 41.75 30.2967 42.1C30.4911 42.4444 30.5883 42.8444 30.5883 43.3ZM28.3383 41.8333C28.005 41.8333 27.7217 41.9333 27.4883 42.1333C27.2606 42.3278 27.1217 42.5889 27.0717 42.9167H29.5967C29.5522 42.5944 29.4161 42.3333 29.1883 42.1333C28.9606 41.9333 28.6772 41.8333 28.3383 41.8333ZM35.0899 41.9333H33.5316V45.5H32.4899V41.9333H30.9232V41.05H35.0899V41.9333Z" fill="black"/>
</svg>
