<svg width="64" height="64" viewBox="0 0 64 64" fill="none" xmlns="http://www.w3.org/2000/svg">
<circle cx="32" cy="32" r="21" stroke="#2D9CDB" stroke-width="2"/>
<path d="M31.035 36.255C31.035 35.435 31.165 34.715 31.425 34.095C31.705 33.475 32.045 32.945 32.445 32.505C32.845 32.065 33.365 31.565 34.005 31.005C34.865 30.245 35.495 29.585 35.895 29.025C36.315 28.445 36.525 27.745 36.525 26.925C36.525 25.825 36.095 24.945 35.235 24.285C34.375 23.605 33.195 23.265 31.695 23.265C29.215 23.265 27.305 24.075 25.965 25.695L24.375 24.495C26.075 22.415 28.565 21.375 31.845 21.375C33.945 21.375 35.615 21.845 36.855 22.785C38.115 23.725 38.745 24.995 38.745 26.595C38.745 27.415 38.605 28.145 38.325 28.785C38.065 29.405 37.735 29.935 37.335 30.375C36.955 30.815 36.445 31.325 35.805 31.905C34.945 32.685 34.305 33.385 33.885 34.005C33.465 34.605 33.255 35.355 33.255 36.255H31.035ZM32.145 42.705C31.705 42.705 31.335 42.555 31.035 42.255C30.735 41.935 30.585 41.565 30.585 41.145C30.585 40.705 30.735 40.345 31.035 40.065C31.335 39.765 31.705 39.615 32.145 39.615C32.605 39.615 32.985 39.765 33.285 40.065C33.585 40.345 33.735 40.705 33.735 41.145C33.735 41.565 33.575 41.935 33.255 42.255C32.955 42.555 32.585 42.705 32.145 42.705Z" fill="#2D9CDB"/>
<rect x="1" y="1" width="62" height="62" rx="22.625" stroke="#2D9CDB" stroke-width="2"/>
</svg>
