<svg width="16" height="16" viewBox="0 0 16 16" fill="none" xmlns="http://www.w3.org/2000/svg">
<path fill-rule="evenodd" clip-rule="evenodd" d="M5 9.5V3.5H8.5C9.88071 3.5 11 4.61929 11 6C11 7.38071 9.88071 8.5 8.5 8.5H7V9.5H8C8.55228 9.5 9 9.94772 9 10.5C9 11.0523 8.55228 11.5 8 11.5H7C7 12.0523 6.55228 12.5 6 12.5C5.44772 12.5 5 12.0523 5 11.5C4.44772 11.5 4 11.0523 4 10.5C4 9.94772 4.44772 9.5 5 9.5ZM8.5 7C9.05228 7 9.5 6.55228 9.5 6C9.5 5.44772 9.05228 5 8.5 5H7V7H8.5Z" fill="black"/>
<rect x="1" y="1" width="14" height="14" rx="7" stroke="black" stroke-width="2"/>
</svg>
