<svg width="43" height="31" viewBox="0 0 43 31" fill="none" xmlns="http://www.w3.org/2000/svg">
<path d="M23.1332 26.8697L33.0726 11.0648C33.9102 9.73286 32.953 8.00002 31.3796 8.00003L21.5 8.00013L10.7645 8.00003C9.16158 8.00002 8.20992 9.79124 9.10712 11.1195L19.7828 26.9244C20.5915 28.1217 22.364 28.0928 23.1332 26.8697Z" stroke="white" stroke-width="2"/>
<path d="M18 15.7692L21.0769 19L26 13" stroke="white" stroke-width="2" stroke-linecap="round" stroke-linejoin="round"/>
<path d="M41.4957 16.7678L37.3347 18.1547C36.6319 18.389 36.1162 18.9926 35.9944 19.7233L35.6832 21.5904C35.5614 22.3211 35.0457 22.9247 34.3429 23.159L31.1827 24.2123C30.5565 24.4211 30.0735 24.9255 29.8922 25.5603L28.7678 29.4957" stroke="white" stroke-width="2" stroke-linecap="round" stroke-linejoin="round"/>
<path d="M12 1L15.923 2.96148C16.5856 3.29279 17.377 3.23069 17.9799 2.80009L19.5201 1.69991C20.123 1.26931 20.9144 1.20721 21.577 1.53852L24.5565 3.02823C25.1469 3.32347 25.8451 3.3083 26.4222 2.98769L30 1" stroke="white" stroke-width="2" stroke-linecap="round" stroke-linejoin="round"/>
<path d="M1.00006 16.7678L5.16099 18.1547C5.86379 18.389 6.37953 18.9926 6.50132 19.7233L6.8125 21.5904C6.93429 22.3211 7.45003 22.9247 8.15283 23.159L11.313 24.2123C11.9393 24.4211 12.4222 24.9255 12.6036 25.5603L13.728 29.4957" stroke="white" stroke-width="2" stroke-linecap="round" stroke-linejoin="round"/>
</svg>
