<svg width="37" height="28" viewBox="0 0 37 28" fill="none" xmlns="http://www.w3.org/2000/svg">
<path d="M12.6863 12.2359C14.0876 12.8865 15.1635 13.8624 15.9142 15.1635C16.7149 16.4147 17.1153 17.891 17.1153 19.5925C17.1153 22.0947 16.3146 24.1215 14.7131 25.6729C13.1117 27.2243 11.0599 28 8.55764 28C6.05541 28 4.00358 27.2243 2.40215 25.6729C0.800715 24.1215 0 22.0947 0 19.5925C0 18.4415 0.150134 17.2904 0.450402 16.1394C0.75067 14.9884 1.42627 13.2869 2.47721 11.0349L7.2815 0H16.2145L12.6863 12.2359ZM32.3539 12.2359C33.7551 12.8865 34.8311 13.8624 35.5818 15.1635C36.3825 16.4147 36.7828 17.891 36.7828 19.5925C36.7828 22.0947 35.9821 24.1215 34.3807 25.6729C32.7793 27.2243 30.7274 28 28.2252 28C25.723 28 23.6711 27.2243 22.0697 25.6729C20.4683 24.1215 19.6676 22.0947 19.6676 19.5925C19.6676 18.4415 19.8177 17.2904 20.118 16.1394C20.4182 14.9884 21.0938 13.2869 22.1448 11.0349L26.9491 0H35.882L32.3539 12.2359Z" fill="#2D9CDB"/>
</svg>
