<svg width="141" height="22" viewBox="0 0 141 22" fill="none" xmlns="http://www.w3.org/2000/svg">
<path d="M11.3837 0.775391L14.498 7.08561L21.4617 8.0975L16.4227 13.0093L17.6123 19.9449L11.3837 16.6704L5.15517 19.9449L6.34472 13.0093L1.30572 8.0975L8.26945 7.08561L11.3837 0.775391Z" fill="#A2C614"/>
<path d="M41.1386 0.775391L44.2529 7.08561L51.2167 8.0975L46.1776 13.0093L47.3672 19.9449L41.1386 16.6704L34.9101 19.9449L36.0996 13.0093L31.0606 8.0975L38.0244 7.08561L41.1386 0.775391Z" fill="#A2C614"/>
<path d="M70.8935 0.775391L74.0078 7.08561L80.9715 8.0975L75.9325 13.0093L77.1221 19.9449L70.8935 16.6704L64.665 19.9449L65.8545 13.0093L60.8155 8.0975L67.7792 7.08561L70.8935 0.775391Z" fill="#A2C614"/>
<path d="M100.648 0.775391L103.763 7.08561L110.726 8.0975L105.687 13.0093L106.877 19.9449L100.648 16.6704L94.4199 19.9449L95.6094 13.0093L90.5704 8.0975L97.5341 7.08561L100.648 0.775391Z" fill="#A2C614"/>
<path d="M130.403 0.775391L133.518 7.08561L140.481 8.0975L135.442 13.0093L136.632 19.9449L130.403 16.6704L124.175 19.9449L125.364 13.0093L120.325 8.0975L127.289 7.08561L130.403 0.775391Z" fill="#A2C614"/>
</svg>
