<svg width="32" height="32" viewBox="0 0 32 32" fill="none" xmlns="http://www.w3.org/2000/svg">
<path d="M31.4939 5.80365L30.5515 6.13822C31.5197 8.86529 30.9216 12.0209 28.7521 14.1904L28.752 14.1905C26.6537 16.2894 23.6259 16.9045 20.9514 16.0585L20.3725 15.8754L19.943 16.3046L6.10853 30.1273L6.10823 30.1276C4.9446 31.2912 3.03634 31.2912 1.87272 30.1276C0.709094 28.964 0.709094 27.0557 1.87272 25.8921L1.873 25.8918L15.6957 12.058L16.1249 11.6285L15.9418 11.0496C15.0958 8.37546 15.7111 5.34765 17.8099 3.2489L17.8099 3.24888C19.437 1.6216 21.625 0.878671 23.7683 1.01606L23.7684 1.01607C24.4788 1.06153 25.1786 1.2062 25.8611 1.44838C25.8904 1.45896 25.9124 1.48377 25.9193 1.51424C25.9261 1.54423 25.9173 1.57585 25.8956 1.5981C25.8954 1.59828 25.8952 1.59845 25.8951 1.59862L22.2598 5.24532L21.8457 5.66069L22.0061 6.22483L22.6882 8.62341L22.8406 9.15937L23.3765 9.31177L25.7751 9.99381L26.3393 10.1542L26.7546 9.74016L30.401 6.10522C30.4012 6.10503 30.4014 6.10485 30.4016 6.10466C30.4244 6.08243 30.4563 6.0739 30.4857 6.0806L30.4859 6.08064C30.5163 6.08758 30.5413 6.10967 30.5519 6.13939L31.4939 5.80365ZM31.4939 5.80365C31.3685 5.45197 31.0722 5.18859 30.708 5.10563L23.8322 0.0181088C21.4177 -0.136669 18.944 0.70041 17.1028 2.5418C14.7245 4.92005 14.0366 8.34274 14.9884 11.3512L1.16561 25.185C-0.388537 26.7391 -0.388537 29.2806 1.16561 30.8347C2.71976 32.3889 5.26119 32.3889 6.81533 30.8347L20.6498 17.012C23.6586 17.9637 27.0812 17.2761 29.4592 14.8976C31.9143 12.4424 32.5849 8.87687 31.4939 5.80365Z" stroke="white" stroke-width="2"/>
</svg>
