<svg width="16" height="14" viewBox="0 0 16 14" fill="none" xmlns="http://www.w3.org/2000/svg">
<path d="M14.175 0.756708L0.732963 5.85465C-0.00328243 6.0666 0.019028 6.79169 0.565634 6.97017L3.93451 8.01876L5.22852 11.9677C5.38469 12.4028 5.51856 12.5589 5.78628 12.5701C6.06516 12.5701 6.17671 12.4697 6.46675 12.2131C6.81256 11.8896 7.3257 11.3876 8.15119 10.5845L11.6539 13.1725C12.3009 13.5294 12.7695 13.3398 12.9256 12.5701L15.1121 1.7049C15.3463 0.756708 14.7886 0.477827 14.175 0.756708ZM4.45881 7.77335L12.1113 2.96544C12.4906 2.70887 12.6021 2.99891 12.4348 3.18855L6.08747 8.91118L5.76397 11.7669L4.45881 7.77335Z" fill="white"/>
</svg>
