<svg width="34" height="25" viewBox="0 0 34 25" fill="none" xmlns="http://www.w3.org/2000/svg">
<path d="M13 8L15.4997 5.7503C18.9517 2.64348 24.3149 3.11921 27.1662 6.78512L28.1111 8" stroke="white" stroke-width="2" stroke-linecap="round" stroke-linejoin="round"/>
<path d="M9 24L14.1223 19.3899C16.1573 17.5584 19.3191 17.8388 21 20V20C22.6809 22.1611 25.8427 22.4416 27.8777 20.6101L33 16" stroke="white" stroke-width="2" stroke-linecap="round" stroke-linejoin="round"/>
<path d="M1 15L4.93089 12.0518C6.48708 10.8847 8.67273 11.0779 10 12.5V12.5C11.3273 13.9221 13.5129 14.1153 15.0691 12.9482L15.8781 12.3414C17.7079 10.9691 20.2408 11.034 21.9979 12.4982L25 15" stroke="white" stroke-width="2" stroke-linecap="round" stroke-linejoin="round"/>
</svg>
