<svg width="18" height="14" viewBox="0 0 18 14" fill="none" xmlns="http://www.w3.org/2000/svg">
<path d="M9 0.25C4.03036 0.25 0 7 0 7C0 7 4.03022 13.75 9 13.75C13.9705 13.75 18 7 18 7C18 7 13.9706 0.25 9 0.25ZM9 11.5C6.51518 11.5 4.5 9.48531 4.5 7C4.5 4.51482 6.51522 2.5 9 2.5C11.4852 2.5 13.5 4.51469 13.5 7C13.5 9.48518 11.4851 11.5 9 11.5Z" fill="#2D9CDB"/>
<path d="M11.2498 6.99991C11.2498 8.24259 10.2426 9.24982 8.99991 9.24982C7.75723 9.24982 6.75 8.24259 6.75 6.99991C6.75 5.75723 7.75723 4.75 8.99991 4.75C10.2426 4.75 11.2498 5.75723 11.2498 6.99991Z" fill="#2D9CDB"/>
</svg>
