<svg width="16" height="16" viewBox="0 0 16 16" fill="none" xmlns="http://www.w3.org/2000/svg">
<path fill-rule="evenodd" clip-rule="evenodd" d="M8.13386 0.441895C4.07257 0.441895 0.76768 3.73514 0.76768 7.80807C0.76768 9.2045 1.1517 10.4962 1.82664 11.6133L0.500031 15.5583L4.57296 14.2549C5.63192 14.8368 6.84216 15.1742 8.13386 15.1742C12.1951 15.1742 15.5 11.881 15.5 7.80807C15.5 3.73514 12.2068 0.441895 8.13386 0.441895ZM8.13386 13.9291C6.8887 13.9291 5.72501 13.5567 4.75915 12.9167L2.40849 13.6731L3.17652 11.4039C2.4434 10.3915 2.01283 9.14631 2.01283 7.80807C2.01283 4.43336 4.75915 1.67541 8.14549 1.67541C11.5202 1.67541 14.2782 4.42172 14.2782 7.80807C14.2665 11.1828 11.5202 13.9291 8.13386 13.9291ZM11.59 9.47215C11.4038 9.36742 10.4962 8.87866 10.3332 8.80884C10.1587 8.73902 10.0423 8.70411 9.90267 8.8903C9.77466 9.07649 9.39064 9.48378 9.28591 9.60015C9.16954 9.71652 9.06481 9.72816 8.87862 9.63506C8.69243 9.53033 8.09894 9.30923 7.40073 8.64593C6.86543 8.12226 6.50469 7.49387 6.39995 7.30768C6.29522 7.10985 6.39995 7.01676 6.49305 6.92366C6.58614 6.8422 6.69088 6.7142 6.78397 6.60946C6.87707 6.50473 6.91198 6.42327 6.9818 6.3069C7.05162 6.1789 7.01671 6.07417 6.9818 5.98107C6.93525 5.88797 6.59778 4.94538 6.45814 4.56137C6.31849 4.17735 6.15558 4.23553 6.05085 4.23553C5.94611 4.23553 5.81811 4.21226 5.6901 4.21226C5.56209 4.21226 5.36427 4.24717 5.17808 4.43336C5.00352 4.61955 4.4915 5.05012 4.45659 5.98107C4.42168 6.90039 5.06171 7.8197 5.1548 7.94771C5.2479 8.07572 6.37668 10.0773 8.26186 10.9035C10.147 11.7297 10.1587 11.4737 10.4962 11.4621C10.8453 11.4388 11.6249 11.0431 11.7995 10.6126C11.974 10.182 11.9857 9.79798 11.9391 9.72816C11.8926 9.63507 11.7762 9.57688 11.59 9.47215Z" fill="white"/>
</svg>
