<svg width="184" height="41" viewBox="0 0 184 41" fill="none" xmlns="http://www.w3.org/2000/svg">
<path d="M60.5977 29.9419C58.0868 29.9419 56.0131 29.1075 54.3763 27.4387C52.7396 25.7698 51.9214 23.7116 51.9214 21.2639C51.9214 18.8004 52.7396 16.7421 54.3763 15.0892C56.0131 13.4203 58.0868 12.5859 60.5977 12.5859C62.1073 12.5859 63.4976 12.9435 64.7691 13.6587C66.0562 14.3581 67.0572 15.3117 67.7722 16.5196L64.9359 18.1646C64.5226 17.4176 63.9345 16.8375 63.1719 16.4243C62.409 15.9951 61.5512 15.7806 60.5977 15.7806C58.9766 15.7806 57.6659 16.2892 56.6649 17.3064C55.6794 18.3236 55.1869 19.6428 55.1869 21.2639C55.1869 22.8692 55.6794 24.1805 56.6649 25.1976C57.6659 26.2148 58.9766 26.7235 60.5977 26.7235C61.5512 26.7235 62.409 26.5168 63.1719 26.1036C63.9505 25.6744 64.5386 25.0943 64.9359 24.3632L67.7722 26.0082C67.0572 27.2161 66.0642 28.1777 64.7927 28.8929C63.5216 29.5923 62.1233 29.9419 60.5977 29.9419Z" fill="#292929"/>
<path d="M73.8224 26.5187H80.1866V29.6656H70.5332V12.9772H73.8224V26.5187Z" fill="#292929"/>
<path d="M83.6997 12.9196H86.9889V29.6081H83.6997V12.9196Z" fill="#292929"/>
<path d="M99.1827 29.9419C96.6721 29.9419 94.5985 29.1075 92.9617 27.4387C91.3249 25.7698 90.5063 23.7116 90.5063 21.2639C90.5063 18.8004 91.3249 16.7421 92.9617 15.0892C94.5985 13.4203 96.6721 12.5859 99.1827 12.5859C100.692 12.5859 102.083 12.9435 103.354 13.6587C104.641 14.3581 105.642 15.3117 106.358 16.5196L103.521 18.1646C103.108 17.4176 102.52 16.8375 101.757 16.4243C100.994 15.9951 100.136 15.7806 99.1827 15.7806C97.5619 15.7806 96.2508 16.2892 95.2498 17.3064C94.2648 18.3236 93.7719 19.6428 93.7719 21.2639C93.7719 22.8692 94.2648 24.1805 95.2498 25.1976C96.2508 26.2148 97.5619 26.7235 99.1827 26.7235C100.136 26.7235 100.994 26.5168 101.757 26.1036C102.536 25.6744 103.124 25.0943 103.521 24.3632L106.358 26.0082C105.642 27.2161 104.649 28.1777 103.378 28.8929C102.107 29.5923 100.708 29.9419 99.1827 29.9419Z" fill="#292929"/>
<path d="M122.608 29.6081H118.818L112.859 21.7884V29.6081H109.57V12.9196H112.859V20.2864L118.58 12.9196H122.37L116.197 21.0255L122.608 29.6081Z" fill="#292929"/>
<path d="M128.715 26.4612H135.08V29.6082H125.426V12.9196H128.715V26.4612Z" fill="url(#paint0_linear)"/>
<path d="M141.429 26.4612H148.461V29.6082H138.14V12.9196H148.342V16.0666H141.429V19.6189H147.746V22.7182H141.429V26.4612Z" fill="url(#paint1_linear)"/>
<path d="M162.954 29.6082L161.953 26.6042H155.303L154.301 29.6082H150.75L156.59 12.9196H160.665L166.529 29.6082H162.954ZM156.351 23.5288H160.928L158.639 16.7103L156.351 23.5288Z" fill="url(#paint2_linear)"/>
<path d="M175.967 12.9196C178.256 12.9196 180.162 13.7223 181.688 15.3276C183.229 16.9328 184 18.9116 184 21.2639C184 23.6162 183.229 25.595 181.688 27.2002C180.162 28.8055 178.256 29.6082 175.967 29.6082H169.341V12.9196H175.967ZM175.967 26.4612C177.413 26.4612 178.589 25.9843 179.495 25.0307C180.401 24.0612 180.854 22.8056 180.854 21.2639C180.854 19.7222 180.401 18.4745 179.495 17.5209C178.589 16.5514 177.413 16.0666 175.967 16.0666H172.63V26.4612H175.967Z" fill="url(#paint3_linear)"/>
<path d="M39.5371 20.483C39.5371 24.3937 38.3779 28.2165 36.2056 31.4681C34.0334 34.7198 30.946 37.2541 27.3337 38.7506C23.7215 40.2471 19.7467 40.6388 15.9119 39.8756C12.0772 39.1129 8.55479 37.2297 5.79011 34.4645C3.02541 31.6991 1.14263 28.176 0.379858 24.3405C-0.382919 20.505 0.00856503 16.5294 1.50481 12.9164C3.00104 9.30343 5.53483 6.21538 8.78578 4.04273C12.0367 1.87012 15.8588 0.71048 19.7686 0.71048L17.0932 10.8198C14.8636 11.7861 15.2643 11.6032 14.2772 12.2629C12.6517 13.3492 11.3848 14.8933 10.6367 16.6997C9.88858 18.5062 9.69283 20.494 10.0742 22.4117C10.4556 24.3295 11.397 26.0911 12.7793 27.4737C14.1617 28.8563 15.9229 29.7979 17.8403 30.1794C19.7576 30.5608 21.745 30.3651 23.5512 29.6168C25.3573 28.8685 26.901 27.6013 27.9871 25.9756C28.7762 24.7944 28.9841 24.1997 29.2813 23.159L39.5371 20.483Z" fill="url(#paint4_linear)"/>
<path d="M21.458 18.794L26.2428 0.933258L39.315 14.0082L21.458 18.794Z" fill="#292929"/>
<defs>
<linearGradient id="paint0_linear" x1="195.487" y1="12.9196" x2="116.336" y2="32.3753" gradientUnits="userSpaceOnUse">
<stop stop-color="#FF5F43"/>
<stop offset="1" stop-color="#FF2300"/>
</linearGradient>
<linearGradient id="paint1_linear" x1="195.487" y1="12.9196" x2="116.336" y2="32.3752" gradientUnits="userSpaceOnUse">
<stop stop-color="#FF5F43"/>
<stop offset="1" stop-color="#FF2300"/>
</linearGradient>
<linearGradient id="paint2_linear" x1="195.487" y1="12.9196" x2="116.336" y2="32.3752" gradientUnits="userSpaceOnUse">
<stop stop-color="#FF5F43"/>
<stop offset="1" stop-color="#FF2300"/>
</linearGradient>
<linearGradient id="paint3_linear" x1="195.487" y1="12.9196" x2="116.336" y2="32.3752" gradientUnits="userSpaceOnUse">
<stop stop-color="#FF5F43"/>
<stop offset="1" stop-color="#FF2300"/>
</linearGradient>
<linearGradient id="paint4_linear" x1="47.2908" y1="0.710441" x2="-9.08722" y2="4.65797" gradientUnits="userSpaceOnUse">
<stop stop-color="#FF5F43"/>
<stop offset="1" stop-color="#FF2300"/>
</linearGradient>
</defs>
</svg>
