<svg width="20" height="20" viewBox="0 0 20 20" fill="none" xmlns="http://www.w3.org/2000/svg">
<path d="M0.190458 0.190458C-0.0634768 0.444393 -0.0634955 0.856149 0.190458 1.1101L9.08036 10L0.190458 18.8899C-0.0634768 19.1438 -0.0634955 19.5556 0.190458 19.8095C0.444412 20.0635 0.856168 20.0635 1.1101 19.8095L10 10.9196L18.8899 19.8095C19.1439 20.0635 19.5556 20.0635 19.8095 19.8095C20.0635 19.5556 20.0635 19.1439 19.8095 18.8899L10.9196 10L19.8095 1.1101C20.0635 0.856168 20.0635 0.444412 19.8095 0.190458C19.5556 -0.0634955 19.1438 -0.0634768 18.8899 0.190458L10 9.08036L1.1101 0.190458C0.856149 -0.0634955 0.444393 -0.0634768 0.190458 0.190458Z" fill="white"/>
</svg>
