<svg id="Слой_1" data-name="Слой 1" xmlns="http://www.w3.org/2000/svg" viewBox="0 0 1920 456"><defs><style>.cls-1{fill:#aa0303;}</style></defs><title>zlodei logo (2)</title><path d="M1426.92,227.66q0-80.52-.08-161c0-3.13.85-3.77,3.84-3.77q128.86.12,257.74,0c2.88,0,3.7.68,3.68,3.64-.13,23.36-.06,46.73-.08,70.1,0,4.73.42,4.08-4,4.08H1521.27c-3.89,0-3.9,0-3.9,3.92v41.7c0,4.13,0,4.14,4.29,4.14h149.87c4.6,0,3.86-.33,3.87,3.84,0,21.75-.05,43.51.08,65.26,0,2.73-.74,3.28-3.34,3.28q-75.39-.12-150.77-.06c-4,0-4,0-4,4.13,0,14.8.08,29.61-.07,44.41,0,2.89.71,3.71,3.66,3.7q84.6-.13,169.21-.06c4.72,0,4.06-.41,4.06,4,0,23.56,0,47.13.07,70.7,0,2.56-.72,3.13-3.19,3.13q-130.53-.11-261.06,0c-2.91,0-3.18-1-3.18-3.45Q1427,308.49,1426.92,227.66Z"/><path d="M1024.8,227.45c.18,70.57-43.08,131.71-110.28,154.9-47.11,16.26-93.95,14.57-138.84-7.39-51.13-25-81.79-66.36-90-122.86-7.4-51.18,6.68-96.7,41.5-135,27.25-30,62-46.72,101.87-52.28,43.51-6.07,84.54,1.68,121.77,25.53,41.35,26.48,64.63,64.92,72.42,113.05.79,4.86,1.14,9.8,1.49,14.72C1025,221.19,1024.8,224.33,1024.8,227.45ZM854.14,142.16c-27.56.08-50,12-65.32,34.85-13.79,20.56-17.06,43.27-13.37,67.31,4.77,31.09,31.39,66.06,72.64,68.73,29.19,1.89,53.2-7.72,70.8-31.57,15.28-20.7,19.22-44.11,15.69-69.11C930.09,180.62,902.84,141.7,854.14,142.16Z"/><path d="M269.31,140.68h-3.93q-75.7,0-151.39.07c-3,0-3.86-.64-3.84-3.77q.22-35.2,0-70.4c0-3.25,1-3.72,3.9-3.72Q239,63,363.94,62.92c9.87,0,19.74,0,29.61,0,2,0,2.8.48,2.79,2.66q-.12,31.27,0,62.55a5.24,5.24,0,0,1-1.62,3.72Q349,182.93,303.41,234.09q-35.09,39.32-70.16,78.65c-.45.5-1.15.86-1.12,1.88,1.16.59,2.47.3,3.71.3q78.27,0,156.52,0c3.93,0,3.93,0,3.93,3.86,0,23.47,0,46.94.06,70.4,0,2.63-.5,3.58-3.41,3.57q-142.47-.12-284.94,0c-2.53,0-3.4-.44-3.38-3.24.14-20.34.1-40.69,0-61a6.18,6.18,0,0,1,1.77-4.54q80.26-89.87,160.45-179.81C267.72,143.19,268.82,142.4,269.31,140.68Z"/><path d="M426.11,227.92q0-80.68-.06-161.35c0-2.8.52-3.74,3.56-3.73q42.3.19,84.6,0c2.63,0,3.33.62,3.32,3.31q-.12,121.17-.14,242.32c0,3.19.85,3.9,3.94,3.9,50.66-.1,101.32-.05,152-.14,2.9,0,3.92.49,3.89,3.71q-.23,36.71,0,73.42c0,2.55-.47,3.39-3.25,3.38q-122.37-.12-244.74,0c-2.55,0-3.13-.72-3.13-3.19Q426.17,308.74,426.11,227.92Z"/><path d="M1176.21,102.92c0-12.38.06-24.77,0-37.15,0-2.22.5-2.93,2.81-2.9,18.42.23,36.85-.5,55.24,1,34.2,2.74,66.65,11.31,95.57,30.38,35.68,23.53,56.59,57.12,64.5,98.76,6.1,32.16,4.27,64-7.46,94.78-16.59,43.53-47.41,72.93-90.55,89.83-25.79,10.1-52.63,14.65-80.22,15.07-12.38.19-24.77,0-37.15.08-2.05,0-2.74-.46-2.74-2.64q.12-37.61,0-75.22c0-2.24.79-2.61,2.79-2.61,13.89.05,27.81.4,41.68-.15,22.66-.92,43.35-7.46,60.17-23.52,11-10.55,17.73-23.55,20.71-38.44,3.71-18.5,3.51-36.92-3-54.77-9.35-25.64-28.39-40.77-54.13-48.14-10.33-3-21-3.87-31.65-3.94q-16.77-.1-33.53,0c-2.28,0-3.09-.48-3.06-3C1176.29,127.9,1176.21,115.41,1176.21,102.92Z"/><path class="cls-1" d="M1146.6,227.59q0,80.82.05,161.65c0,2.63-.49,3.54-3.38,3.53q-42.6-.18-85.2,0c-2.46,0-3.41-.34-3.41-3.2q.13-161.79,0-323.59c0-2.65.86-3.09,3.24-3.08q42.75.12,85.51,0c2.77,0,3.24.86,3.23,3.4Q1146.54,146.92,1146.6,227.59Z"/><path d="M1723.86,227.72q0-80.5-.07-161c0-3,.59-3.89,3.75-3.87q42.14.21,84.28,0c2.66,0,3.56.56,3.56,3.44q-.12,161.46,0,322.93c0,2.68-.59,3.54-3.44,3.53q-42.29-.17-84.58,0c-3.07,0-3.56-1-3.55-3.74Q1723.92,308.38,1723.86,227.72Z"/></svg>