<svg width="8" height="8" viewBox="0 0 8 8" fill="none" xmlns="http://www.w3.org/2000/svg">
<path d="M7.92424 0.581215L8 5.5073C7.99974 5.63772 7.94824 5.76125 7.85658 5.85127C7.76493 5.9413 7.64046 5.99062 7.50999 5.98861C7.37951 5.98661 7.25346 5.93343 7.159 5.84055C7.06453 5.74766 7.0092 5.62249 7.00493 5.492L6.94764 1.76717L0.854944 7.85987C0.763059 7.95176 0.637296 8.00224 0.505322 8.00021C0.373347 7.99818 0.245972 7.94381 0.151217 7.84905C0.0564618 7.7543 0.00208866 7.62692 5.8924e-05 7.49495C-0.00197081 7.36297 0.0485091 7.23721 0.140394 7.14532L6.23309 1.05262L2.50827 0.995337C2.44222 0.995469 2.37641 0.982439 2.31466 0.957007C2.25291 0.931575 2.19647 0.894251 2.14864 0.847212C2.1008 0.800173 2.06252 0.744362 2.03603 0.683034C2.00954 0.621706 1.99538 0.556091 1.99436 0.490016C1.99334 0.423941 2.0055 0.35873 2.03011 0.298188C2.05472 0.237646 2.0913 0.182986 2.13772 0.137397C2.18413 0.0918076 2.23945 0.0562024 2.30044 0.0326583C2.36144 0.00911424 2.42688 -0.00189732 2.49296 0.000266996L7.41905 0.0760289C7.551 0.0780782 7.67834 0.13245 7.77308 0.227186C7.86782 0.321923 7.92219 0.449267 7.92424 0.581215Z" fill="#805DB9"/>
</svg>
