<svg width="19" height="14" viewBox="0 0 19 14" fill="none" xmlns="http://www.w3.org/2000/svg">
<path d="M18.2605 7.58452L12.5332 13.2719C12.3789 13.4199 12.1722 13.5018 11.9577 13.5C11.7432 13.4981 11.538 13.4127 11.3863 13.262C11.2346 13.1114 11.1485 12.9076 11.1467 12.6945C11.1448 12.4815 11.2272 12.2763 11.3763 12.123L15.7069 7.82254L1.3182 7.82231C1.10121 7.82231 0.893095 7.7367 0.739652 7.58433C0.586209 7.43195 0.500004 7.22529 0.5 7.0098C0.499996 6.79431 0.586195 6.58765 0.739632 6.43528C0.89307 6.28291 1.10118 6.19731 1.31818 6.19731L15.7069 6.19754L11.3761 1.89691C11.298 1.82196 11.2356 1.7323 11.1927 1.63318C11.1499 1.53405 11.1273 1.42743 11.1263 1.31955C11.1254 1.21166 11.1461 1.10468 11.1872 1.00482C11.2284 0.90497 11.2891 0.814254 11.3659 0.737968C11.4428 0.66168 11.5341 0.601351 11.6347 0.560499C11.7352 0.519648 11.843 0.499091 11.9516 0.500031C12.0602 0.50097 12.1676 0.523387 12.2674 0.565971C12.3672 0.608554 12.4575 0.670453 12.533 0.748056L18.2604 6.43565C18.4138 6.58802 18.5 6.79464 18.5 7.01009C18.5 7.22554 18.4138 7.43216 18.2605 7.58452Z" fill="white"/>
</svg>
