<svg width="21" height="23" viewBox="0 0 21 23" fill="none" xmlns="http://www.w3.org/2000/svg">
<path d="M3.98444 22.96H16.5029C18.7 22.96 20.4874 21.1726 20.4874 18.9755V7.0646C20.4874 6.67605 20.1694 6.35814 19.7809 6.35814H15.5421V5.29845C15.5421 2.37724 13.1649 0 10.2437 0C7.32246 0 4.94522 2.37724 4.94522 5.29845V6.35814H0.70646C0.317907 6.35814 0 6.67605 0 7.0646V18.9755C0 21.1726 1.78734 22.96 3.98444 22.96ZM6.35814 5.29845C6.35814 3.15435 8.09957 1.41292 10.2437 1.41292C12.3878 1.41292 14.1292 3.15435 14.1292 5.29845V6.35814H6.35814V5.29845ZM1.41292 7.77106H4.94522V9.53722C4.94522 9.92577 5.26313 10.2437 5.65168 10.2437C6.04024 10.2437 6.35814 9.92577 6.35814 9.53722V7.77106H14.1292V9.53722C14.1292 9.92577 14.4471 10.2437 14.8357 10.2437C15.2242 10.2437 15.5421 9.92577 15.5421 9.53722V7.77106H19.0744V18.9755C19.0744 20.392 17.9194 21.547 16.5029 21.547H3.98444C2.56798 21.547 1.41292 20.392 1.41292 18.9755V7.77106Z" fill="#805DB9"/>
</svg>
