<svg width="70" height="48" viewBox="0 0 70 48" fill="none" xmlns="http://www.w3.org/2000/svg">
<path d="M38.8056 11.7026C38.4056 10.2099 36.8712 9.32401 35.3786 9.72396L9.70162 16.6041C8.20886 17.0041 7.32302 18.5385 7.72299 20.0312L12.0683 36.2482C12.4683 37.7409 14.0026 38.6268 15.4954 38.2268L41.1723 31.3467C41.6112 31.2291 41.9976 31.0134 42.3143 30.7296C43.0751 30.0481 43.4338 28.9733 43.1513 27.9193L38.8056 11.7026Z" fill="#949494"/>
<path d="M13.105 28.8152C13.1069 28.8222 13.1089 28.829 13.1111 28.8358L13.1308 28.9095C13.1867 29.118 13.4687 29.2236 13.7606 29.1454L17.6484 28.1037C17.9403 28.0255 18.1317 27.793 18.0758 27.5845L17.3565 24.902C17.2866 24.6414 16.9934 24.4935 16.7014 24.5717L12.8137 25.6134C12.5217 25.6916 12.3417 25.9664 12.4115 26.227L13.105 28.8152Z" fill="#F6F6F6"/>
<path d="M32.8518 16.9192C32.9268 17.1991 32.7607 17.4868 32.4808 17.5618L32.4133 17.5799C32.1334 17.6549 31.8457 17.4888 31.7707 17.2089C31.6957 16.9291 31.8618 16.6413 32.1417 16.5663L32.2093 16.5482C32.4891 16.4732 32.7769 16.6394 32.8518 16.9192ZM33.5198 15.0172C33.2401 14.9418 32.952 15.1074 32.8766 15.3872C32.8012 15.667 32.9668 15.955 33.2467 16.0304C33.548 16.1117 33.7852 16.3482 33.8654 16.6477C33.9457 16.9472 33.8587 17.2706 33.6382 17.4917C33.4336 17.6969 33.4342 18.0291 33.6393 18.2337C33.7767 18.3707 33.9712 18.4158 34.146 18.3689C34.2322 18.3459 34.3137 18.3004 34.3813 18.2326C34.8651 17.7474 35.0557 17.036 34.8789 16.3762C34.7021 15.7164 34.1813 15.1955 33.5198 15.0172ZM34.5571 13.4839C34.2775 13.4087 33.9895 13.5743 33.9142 13.8542C33.8389 14.134 34.0047 14.4219 34.2845 14.4971C35.0672 14.7076 35.6833 15.3235 35.8926 16.1044C36.1018 16.8853 35.8762 17.7268 35.3037 18.3005C35.099 18.5056 35.0993 18.8378 35.3044 19.0424C35.4419 19.1797 35.6364 19.2247 35.8113 19.1778C35.8975 19.1547 35.9789 19.1093 36.0465 19.0417C36.8826 18.2038 37.212 16.9743 36.9062 15.8328C36.6003 14.6913 35.7002 13.7914 34.5571 13.4839Z" fill="white"/>
<path d="M69.1772 24.2313C69.1772 22.686 67.9243 21.4331 66.379 21.4331H39.7962C38.2508 21.4331 36.998 22.686 36.998 24.2313V41.0204C36.998 42.5657 38.2508 43.8186 39.7962 43.8186H66.379C67.3448 43.8186 68.1964 43.3292 68.6993 42.5849C69.001 42.1383 69.1772 41.5999 69.1772 41.0204V24.2313Z" fill="#949494"/>
<path d="M44.496 34.5976H40.4711C40.4493 34.5976 40.4278 34.5965 40.4067 34.5943C40.1348 34.5715 39.9238 34.4064 39.9238 34.2061V31.4295C39.9238 31.1597 40.1688 30.9409 40.4711 30.9409H44.496C44.7982 30.9409 45.0432 31.1597 45.0432 31.4295V34.2061C45.0432 34.4063 44.8324 34.5714 44.5606 34.5943C44.5394 34.5965 44.5179 34.5976 44.496 34.5976Z" fill="#F6F6F6"/>
<path d="M62.0763 27.7293C62.0763 28.019 61.8414 28.2539 61.5517 28.2539H61.4817C61.192 28.2539 60.957 28.019 60.957 27.7293C60.957 27.4395 61.192 27.2046 61.4817 27.2046H61.5517C61.8414 27.2046 62.0763 27.4395 62.0763 27.7293ZM63.2138 26.0649C62.9632 25.9197 62.642 26.0051 62.4967 26.2559C62.3515 26.5066 62.437 26.8276 62.6877 26.9729C62.9578 27.1294 63.1257 27.4192 63.1257 27.7293C63.1257 28.0394 62.9579 28.3292 62.6877 28.4857C62.437 28.631 62.3515 28.9521 62.4967 29.2028C62.594 29.3707 62.7702 29.4646 62.9512 29.4646C63.0404 29.4646 63.1309 29.4417 63.2137 29.3938C63.8066 29.0503 64.1749 28.4125 64.1749 27.7294C64.1749 27.0463 63.8066 26.4084 63.2138 26.0649ZM64.6126 24.8523C64.362 24.7073 64.0409 24.7928 63.8958 25.0436C63.7506 25.2944 63.8362 25.6154 64.0871 25.7605C64.7886 26.1664 65.2243 26.9208 65.2243 27.7292C65.2243 28.5377 64.7886 29.2921 64.0871 29.698C63.8364 29.8432 63.7506 30.1641 63.8958 30.4149C63.9931 30.583 64.1693 30.6769 64.3504 30.6769C64.4396 30.6769 64.53 30.6541 64.6128 30.6062C65.6373 30.0133 66.2737 28.911 66.2737 27.7292C66.2737 26.5475 65.6371 25.4452 64.6126 24.8523Z" fill="white"/>
</svg>
