<svg width="10" height="6" viewBox="0 0 10 6" fill="none" xmlns="http://www.w3.org/2000/svg">
<path d="M9.99983 0.705711C10.0031 0.568144 9.96023 0.433053 9.87718 0.319218C9.79414 0.205383 9.67499 0.11846 9.53641 0.070536C9.39783 0.0226117 9.24668 0.0160665 9.10392 0.0518101C8.96116 0.0875537 8.83397 0.16381 8.73993 0.269978L5.0115 4.32087L1.28438 0.269977C1.22639 0.196536 1.15277 0.135031 1.06806 0.0893129C0.983344 0.0435952 0.889377 0.0146503 0.792089 0.00429045C0.694802 -0.00606943 0.596285 0.00237915 0.502668 0.029107C0.409052 0.0558349 0.322345 0.100266 0.248031 0.159618C0.173717 0.218971 0.113436 0.291966 0.0708341 0.374032C0.0282326 0.456098 0.00430486 0.545468 0.000529261 0.636544C-0.00324539 0.727619 0.0131673 0.81844 0.0488481 0.903317C0.0845298 0.988194 0.138654 1.0653 0.207833 1.12981L4.47113 5.76771C4.53791 5.84054 4.62079 5.89903 4.7142 5.93913C4.80761 5.97923 4.90929 6 5.01216 6C5.11503 6 5.2167 5.97923 5.31011 5.93913C5.40352 5.89903 5.48648 5.84054 5.55326 5.76771L9.82066 1.12981C9.93247 1.01265 9.99603 0.862372 9.99999 0.705711L9.99983 0.705711Z" fill="#805DB9"/>
</svg>
