<svg width="30" height="34" viewBox="0 0 30 34" fill="none" xmlns="http://www.w3.org/2000/svg">
<path fill-rule="evenodd" clip-rule="evenodd" d="M17.5691 0.745856C16.0773 -0.248619 14.0884 -0.248619 12.4309 0.745856L2.65193 6.54696C0.994475 7.37569 0 9.1989 0 11.0221V22.2928C0 24.116 0.994475 25.7735 2.65193 26.768L12.4309 32.4033C13.9227 33.3978 15.9116 33.3978 17.5691 32.4033L27.3481 26.768C29.0055 25.9392 30 24.116 30 22.2928V10.8564C30 9.03315 29.0055 7.37569 27.3481 6.38122L17.5691 0.745856ZM20.3076 12.7085L21.7218 14.1227L13.6517 22.1927L9 17.541L10.4142 16.1268L13.6518 19.3644L20.3076 12.7085Z" fill="#805DB9"/>
</svg>
