<svg width="28" height="28" viewBox="0 0 28 28" fill="none" xmlns="http://www.w3.org/2000/svg">
<path d="M0.266642 0.266642C-0.0888675 0.622151 -0.0888937 1.19861 0.266642 1.55414L12.7125 14L0.266642 26.4459C-0.0888675 26.8014 -0.0888937 27.3778 0.266642 27.7334C0.622177 28.0889 1.19863 28.0889 1.55414 27.7334L14 15.2875L26.4459 27.7334C26.8014 28.0889 27.3778 28.0889 27.7334 27.7334C28.0889 27.3778 28.0889 26.8014 27.7334 26.4459L15.2875 14L27.7334 1.55414C28.0889 1.19863 28.0889 0.622177 27.7334 0.266642C27.3778 -0.0888937 26.8014 -0.0888675 26.4459 0.266642L14 12.7125L1.55414 0.266642C1.19861 -0.0888937 0.622151 -0.0888675 0.266642 0.266642Z" fill="#0F0F0F"/>
</svg>
