<svg width="20" height="18" viewBox="0 0 20 18" fill="none" xmlns="http://www.w3.org/2000/svg">
<path d="M9.72 13.5451C9.63128 13.5093 9.55075 13.4567 9.48307 13.3906L5.32945 9.36353C5.19283 9.23108 5.11608 9.05143 5.11609 8.86412C5.11609 8.6768 5.19283 8.49716 5.32945 8.36471C5.46606 8.23225 5.65135 8.15784 5.84456 8.15784C6.03776 8.15784 6.22305 8.23225 6.35966 8.36471L9.27193 11.1882V0.705882C9.27193 0.518671 9.34864 0.339127 9.48518 0.206748C9.62172 0.0743695 9.8069 0 10 0C10.1931 0 10.3783 0.0743695 10.5148 0.206748C10.6514 0.339127 10.7281 0.518671 10.7281 0.705882V11.1988L13.6403 8.37529C13.7806 8.26467 13.9584 8.20864 14.139 8.2181C14.3196 8.22756 14.49 8.30184 14.6172 8.42649C14.7444 8.55113 14.8192 8.7172 14.8271 8.89237C14.8349 9.06754 14.7752 9.23927 14.6596 9.37412L10.5169 13.3906C10.4492 13.4567 10.3687 13.5093 10.28 13.5451C10.1913 13.5809 10.0961 13.5994 10 13.5994C9.90388 13.5994 9.80872 13.5809 9.72 13.5451Z" fill="#805DB9"/>
<path d="M18.7571 11.5362C18.8937 11.4038 19.0788 11.3294 19.2719 11.3294C19.465 11.3294 19.6502 11.4038 19.7868 11.5362C19.9233 11.6685 20 11.8481 20 12.0353V14.4459C19.999 15.3882 19.6125 16.2917 18.9252 16.958C18.238 17.6243 17.3061 17.9991 16.3342 18H3.66582C2.69388 17.9991 1.76202 17.6243 1.07476 16.958C0.387492 16.2917 0.000963748 15.3882 0 14.4459V12.0353C0 11.8481 0.0767068 11.6685 0.213246 11.5362C0.349785 11.4038 0.534972 11.3294 0.728067 11.3294C0.921162 11.3294 1.10635 11.4038 1.24289 11.5362C1.37943 11.6685 1.45613 11.8481 1.45613 12.0353V14.4459C1.45613 15.0141 1.68894 15.559 2.10334 15.9608C2.51773 16.3625 3.07977 16.5882 3.66582 16.5882H16.3342C16.9202 16.5882 17.4823 16.3625 17.8967 15.9608C18.3111 15.559 18.5439 15.0141 18.5439 14.4459V12.0353C18.5439 11.8481 18.6206 11.6685 18.7571 11.5362Z" fill="#805DB9"/>
</svg>
