<svg width="89" height="38" viewBox="0 0 89 38" fill="none" xmlns="http://www.w3.org/2000/svg">
<path fill-rule="evenodd" clip-rule="evenodd" d="M58.2147 29.9551C56.5696 30.4142 54.4272 30.6055 52.5909 30.6055C47.8089 30.6055 44.6719 28.1188 44.6719 23.5663C44.6719 19.2432 47.6176 16.4505 51.9023 16.4505C52.8587 16.4505 53.8916 16.5653 54.5037 16.8713V10.5972H58.2147V29.9551ZM54.5037 20.0849C53.9299 19.8171 53.1265 19.664 52.2083 19.664C49.9513 19.664 48.4593 21.0413 48.4593 23.4515C48.4593 26.0147 50.0661 27.4684 52.7057 27.4684C53.1647 27.4684 53.8916 27.4684 54.5037 27.3154V20.0849ZM88.7056 29.9551C87.0605 30.4142 84.9181 30.6055 83.0435 30.6055C78.2996 30.6055 75.1243 28.1188 75.1243 23.5663C75.1243 19.2432 78.0701 16.4505 82.3549 16.4505C83.3496 16.4505 84.3443 16.5653 84.9564 16.8713V10.5972H88.7056V29.9551ZM84.9564 20.0849C84.3825 19.8171 83.6174 19.664 82.6992 19.664C80.4038 19.664 78.9118 21.0413 78.9118 23.4515C78.9118 26.0147 80.5568 27.4684 83.1966 27.4684C83.6556 27.4684 84.3443 27.4684 84.9564 27.3154V20.0849ZM64.068 20.0849C64.6801 19.8171 65.56 19.7406 66.2869 19.7406C68.5823 19.7406 70.1509 21.0413 70.1509 23.375C70.1509 26.1294 68.3911 27.3919 66.0574 27.4302V30.6055H66.2487C71.0691 30.6055 73.9383 27.9658 73.9383 23.2602C73.9383 18.9754 70.8778 16.4505 66.3634 16.4505C64.068 16.4505 61.8108 16.9861 60.3188 17.5982V35.7702H64.068V20.0849Z" fill="#949494"/>
<path d="M15.8768 0.0765136C15.8998 0.0707512 15.9229 0.0649887 15.9459 0.059357C15.9618 0.0523361 15.9772 0.0453154 15.9912 0.0382944L15.9985 0.0467964C16.111 0.0206594 16.2234 0 16.3359 0H16.4506L16.4539 0.00377574C16.6328 0.0158648 16.7904 0.0584878 16.948 0.153027L17.1775 0.267797L17.1899 0.282282L17.9141 0.668512L17.8658 0.612127L18.7938 1.12106L18.7839 1.10949L19.9699 1.75985L19.9819 1.77389L20.888 2.25713L20.8939 2.26389L21.8444 2.7545L21.8804 2.79633L22.763 3.25186L22.7752 3.26601L23.6812 3.74922L23.6868 3.75575L24.6375 4.24646L24.6496 4.26055L25.5557 4.74382L25.568 4.75804L26.4739 5.24117L26.4798 5.24796L27.4303 5.73855L27.4425 5.75272L28.3484 6.23591L28.3603 6.2498L29.2666 6.73315L29.2724 6.73988L30.223 7.23051L30.2347 7.24447L31.1411 7.72787L31.1482 7.73619L31.8679 8.11046L31.5977 8.26059L31.6002 8.26347L31.2539 8.45237L31.2559 8.45474L30.9096 8.64363L30.9116 8.64601L30.5653 8.83493L30.5673 8.83739L30.247 9.0121L30.2613 9.02866L29.9055 9.20657L29.917 9.21991L29.5707 9.4088L29.5727 9.41117L29.2264 9.6001L29.2284 9.60243L28.882 9.79137L28.8841 9.79381L28.4633 10.0616L28.4478 10.0436L28.119 10.2529L28.1133 10.2463L27.7742 10.4441L27.7723 10.4418L27.4682 10.6353L27.4528 10.6174L27.1947 10.7817L27.2004 10.7884L26.8541 10.9773L26.8561 10.9797L26.51 11.1685L26.5121 11.171L26.1918 11.3457L26.2061 11.3623L25.85 11.5403L25.8614 11.5536L25.5152 11.7424L25.5173 11.7448L25.171 11.9337L25.1731 11.9361L24.8265 12.1252L24.8284 12.1274L24.4821 12.3163L24.4842 12.3187L24.138 12.5076L24.1401 12.51L23.8199 12.6846L23.8342 12.7013L23.4876 12.8903L23.4895 12.8925L23.1433 13.0814L23.1454 13.0838L22.7245 13.3516L22.7092 13.3336L22.3803 13.5429L22.3648 13.5247L22.0357 13.7342L22.0204 13.7162L21.6915 13.9255L21.6896 13.9233L21.3855 14.1167L21.3717 14.1006L21.2327 14.1933C21.1561 14.2316 21.1179 14.2698 21.0796 14.3463L21.0739 14.3397C21.0144 14.442 20.9646 14.5595 20.9645 14.6522L20.9647 15.6853C20.979 15.7138 20.9879 15.7423 20.9975 15.7728C21.0136 15.8241 21.0315 15.8811 21.0795 15.9531C21.1066 15.9802 21.1289 16.0073 21.1498 16.0327C21.1879 16.079 21.2214 16.1197 21.2708 16.1444L22.0246 16.6032L21.9593 16.5269L22.1505 16.6799L22.1889 16.68L22.2101 16.7047C22.3588 16.7553 22.5519 16.747 22.6862 16.6799L22.6924 16.6872C22.7031 16.6829 22.7137 16.68 22.7243 16.68L22.9594 16.5331L22.9542 16.527L23.3005 16.3381L23.2984 16.3356L23.6446 16.1468L23.6426 16.1444L23.9628 15.9698L23.9485 15.9531L24.295 15.7641L24.2931 15.7618L24.6394 15.5729L24.6373 15.5705L24.9836 15.3816L24.9815 15.3792L25.3281 15.1902L25.3262 15.188L25.6724 14.9991L25.6703 14.9967L26.0912 14.7289L26.0931 14.7311L26.3971 14.5376L26.4125 14.5555L26.7413 14.3463L26.7568 14.3645L27.0859 14.155L27.1012 14.173L27.4301 13.9637L27.4455 13.9817L27.7038 13.8174L27.6981 13.8107L28.0184 13.636L28.0042 13.6194L28.3503 13.4306L28.3481 13.4282L28.6945 13.2392L28.6925 13.2369L29.0388 13.048L29.0367 13.0456L29.3831 12.8567L29.3811 12.8543L29.7273 12.6654L29.7253 12.663L30.0459 12.4881L30.0318 12.4717L30.3876 12.2938L30.3761 12.2805L30.7225 12.0915L30.7204 12.0891L31.0667 11.9002L31.0647 11.8978L31.411 11.7089L31.409 11.7066L31.7553 11.5177L31.7533 11.5153L32.1741 11.2475L32.189 11.2659L32.5184 11.0562L32.5236 11.0641L32.6714 10.9796L32.6715 15.5323L32.6711 15.5318L32.6711 18.3246L32.6715 18.325L32.6715 19.664L32.6711 19.6636L32.6714 21.4238L32.6711 21.4234L32.6715 23.7575L32.6711 23.7571L32.6714 25.5173L32.6711 25.5169L32.6714 27.4302C32.6714 27.5158 32.6501 27.6014 32.6234 27.687L32.6328 27.6979C32.6022 27.8205 32.547 27.9431 32.4672 28.0657L32.4799 28.0804C32.4416 28.1187 32.4034 28.1612 32.3651 28.2037C32.2888 28.2885 32.2125 28.3733 32.1362 28.4244L32.0974 28.4631L31.868 28.5778L31.5475 28.7526L31.5616 28.7691L31.2154 28.958L31.2174 28.9604L30.8712 29.1493L30.8733 29.1517L30.5271 29.3406L30.5291 29.343L30.1083 29.6108L30.0927 29.5926L29.7637 29.802L29.7618 29.7998L29.4577 29.9934L29.4423 29.9754L29.1841 30.1398L29.1897 30.1464L28.8435 30.3352L28.8455 30.3376L28.4992 30.5265L28.5014 30.529L28.1812 30.7036L28.1954 30.7202L27.8489 30.9093L27.8508 30.9115L27.5045 31.1003L27.5066 31.1027L27.1603 31.2916L27.1624 31.2941L26.8162 31.4829L26.8182 31.4853L26.3974 31.7531L26.3953 31.7507L26.091 31.9444L26.0756 31.9265L25.7468 32.1357L25.7314 32.1177L25.4731 32.2821L25.4788 32.2887L25.1326 32.4776L25.1346 32.48L24.8144 32.6547L24.8287 32.6713L24.4824 32.8602L24.4845 32.8626L24.138 33.0516L24.1398 33.0538L23.7936 33.2427L23.7957 33.2452L23.4494 33.4341L23.4515 33.4365L23.0307 33.7043L23.0287 33.7019L22.7244 33.8955L22.709 33.8775L22.38 34.0868L22.3647 34.069L22.1069 34.2331L22.1126 34.2398L21.7662 34.4288L21.7683 34.4311L21.448 34.6058L21.4621 34.6223L21.1157 34.8113L21.1178 34.8137L20.7715 35.0026L20.7734 35.0049L20.4271 35.1939L20.4291 35.1963L20.0828 35.3852L20.0848 35.3876L19.7646 35.5622L19.7788 35.5788L19.3579 35.8466L19.3424 35.8287L19.0136 36.0379L18.9981 36.0199L18.6693 36.2292L18.6538 36.2112L18.3957 36.3754L18.4015 36.3822L18.0551 36.5711L18.0572 36.5736L17.7369 36.7483L17.7511 36.7648L17.4048 36.9538L17.4068 36.9561L17.0606 37.145L17.0626 37.1473L16.9478 37.2238L16.6035 37.3386L16.5903 37.3232C16.5054 37.3387 16.4205 37.3387 16.3357 37.3387H16.1061L16.0998 37.3313C15.9763 37.3169 15.8477 37.2811 15.7618 37.2238L15.2262 36.9178L15.2244 36.9157L14.2315 36.344L14.2296 36.3417L13.4312 35.8821L13.4664 35.9232L12.4426 35.3153L12.4717 35.3493L11.2475 34.6224L11.2181 34.5881L10.2146 34.0103L10.2126 34.008L9.2199 33.4364L9.2179 33.4341L8.22522 32.8625L8.22329 32.8603L7.23054 32.2887L7.22852 32.2864L6.43032 31.8268L6.4654 31.8679L5.44154 31.26L5.47071 31.294L4.20825 30.5672L4.15831 30.5086L3.21357 29.9933L3.14814 29.9162L2.2189 29.3812L2.21692 29.3789L1.45732 28.9416L0.573851 28.463C0.453383 28.3877 0.338842 28.2709 0.244227 28.1337C0.239573 28.1287 0.234782 28.1238 0.229828 28.1188L0.243223 28.1322C0.098017 27.921 0 27.6615 0 27.4301V10.9796L0.306055 11.1327L0.356578 11.1916L1.04437 11.5667L1.03302 11.5535L1.17881 11.64L1.30077 11.7066L1.31106 11.7186L2.05699 12.1615L2.02774 12.1274L3.05187 12.7355L3.02246 12.7013L4.24668 13.3899L4.27039 13.4175L5.05053 13.8564L5.01143 13.8107L6.23565 14.5376L6.23744 14.5397L6.99977 14.9786L8.22526 15.6471L8.28466 15.7164L8.99143 16.1139L8.95193 16.0678L9.97664 16.6762L9.94695 16.6417L10.9705 17.2494L10.9415 17.2156L12.1657 17.9042L12.2159 17.9629L12.9035 18.338L12.8923 18.325L13.118 18.4549L13.1602 18.478L13.1624 18.4805L14.1548 19.0519L14.1636 19.0621L14.729 19.3962C14.8055 19.4344 14.882 19.5492 14.882 19.6257V20.0465L14.8817 20.0461L14.8821 22.3802L14.8817 22.3798L14.8817 25.1725L14.8821 25.1729L14.8819 32.0209C14.8819 32.2122 14.9967 32.4034 15.1497 32.4799L15.9914 32.939L15.9973 32.946L16.0679 32.9773C16.1444 33.0156 16.2209 33.0538 16.3357 33.0538H16.3739C16.3893 33.0538 16.4108 33.0477 16.4335 33.0403L16.4122 33.0156C16.4887 33.0156 16.5652 33.0156 16.6417 32.9773L16.9095 32.8243L16.915 32.8307L17.2538 32.633L17.2582 32.6381L17.5215 32.48C17.5342 32.4758 17.5468 32.4702 17.5593 32.4634C17.5598 32.4581 17.5598 32.451 17.5598 32.4417L17.5721 32.456C17.647 32.4099 17.717 32.3209 17.7598 32.2222L17.7511 32.2122C17.7593 32.204 17.7674 32.1941 17.7752 32.1829C17.7807 32.1673 17.7854 32.1515 17.7894 32.1357L17.7973 32.1449C17.8152 32.1083 17.8276 32.0646 17.8276 32.0209L17.8279 28.7697L17.8274 28.7692L17.8275 25.6702L17.8278 25.6706L17.8274 23.3367L17.8278 23.3371L17.8275 21.5768L17.8278 21.5772L17.8275 19.2048L17.8278 19.2052L17.8277 18.1721L17.8275 18.1337L17.826 18.1191C17.8263 18.1208 17.8267 18.1225 17.8269 18.1241L17.8275 18.1295C17.8274 18.1277 17.8272 18.1259 17.8269 18.1241L17.8189 18.0534C17.7844 17.8911 17.6529 17.7403 17.5215 17.6746L17.2348 17.4834L16.1827 16.9096L16.1323 16.8507L15.1881 16.3357L15.1291 16.2668L14.4216 15.8688L14.461 15.9148L13.4373 15.307L13.4665 15.341L12.4429 14.7333L12.4719 14.7671L11.2477 14.0785L11.2243 14.0511L10.2527 13.5046L10.2025 13.446L9.515 13.0709L9.52608 13.0838L9.30045 12.9539L9.25815 12.9308L9.25599 12.9283L8.2636 12.3569L8.26202 12.3551L7.43987 11.8817L6.31228 11.2474L6.28874 11.2199L5.31772 10.6737L5.29396 10.6458L4.51307 10.2066L4.55238 10.2528L3.32816 9.5259L3.32619 9.5236L2.56268 9.084L1.33903 8.41655L1.29071 8.35749L0.841544 8.11045L1.00988 8.01425L0.994721 7.99573L1.4538 7.76618L1.47407 7.78983L1.72349 7.65377L1.72138 7.65131L2.06792 7.46228L2.06603 7.46007L2.41225 7.27122L2.41021 7.26883L2.7565 7.07994L2.7544 7.07748L3.10062 6.88863L3.09858 6.88624L3.5194 6.65669L3.53979 6.68051L3.78946 6.54432L3.78741 6.54194L4.13371 6.35305L4.1316 6.35058L4.47814 6.16156L4.47625 6.15934L4.82248 5.97049L4.82043 5.9681L5.16672 5.77921L5.16461 5.77675L5.58544 5.54721L5.60568 5.57084L5.85534 5.43466L5.85345 5.43245L6.19968 5.24359L6.19763 5.24119L6.54392 5.05232L6.54181 5.04985L6.88804 4.861L6.88599 4.85862L7.23254 4.66959L7.23064 4.66737L7.65147 4.43783L7.67175 4.46145L7.92112 4.32543L7.91901 4.32296L8.26556 4.13394L8.26366 4.13172L8.60989 3.94287L8.60784 3.94048L8.9636 3.76261L8.95203 3.74913L9.30771 3.57129L9.29621 3.55789L9.75529 3.32835L9.76685 3.34183L9.99654 3.22699L9.98504 3.21358L10.3408 3.0357L10.3292 3.02223L10.6849 2.84437L10.6734 2.831L11.0294 2.65298L11.0181 2.63975L11.3738 2.46188L11.3622 2.4484L11.8213 2.21886L11.8417 2.24257L12.091 2.10657L12.0889 2.1041L12.4354 1.91508L12.4336 1.91286L12.7798 1.72398L12.7777 1.72151L13.124 1.53266L13.1219 1.53027L13.5427 1.30073L13.5583 1.31889L13.8874 1.10949L13.9077 1.1331L14.157 0.997116L14.1549 0.994731L14.5012 0.805841L14.4991 0.803375L14.8457 0.614349L14.8438 0.612135L15.1901 0.423246L15.1879 0.42078L15.6088 0.191239L15.6317 0.218026L15.7617 0.153065C15.7831 0.131595 15.8287 0.110125 15.8781 0.0886547L15.8847 0.0857808L15.8768 0.0765136Z" fill="#949494"/>
<path d="M17.8189 18.0534L17.826 18.1191C17.8228 18.1049 17.8157 18.0906 17.8085 18.0763C17.799 18.0572 17.7894 18.0381 17.7894 18.019L17.8189 18.0534Z" fill="#949494"/>
</svg>
