<svg width="22" height="16" viewBox="0 0 22 16" fill="none" xmlns="http://www.w3.org/2000/svg">
<path d="M18.3333 1.88235C18.3333 0.842758 19.1541 0 20.1667 0C21.1792 0 22 0.842758 22 1.88235C22 2.92195 21.1792 3.76471 20.1667 3.76471C19.1541 3.76471 18.3333 2.92195 18.3333 1.88235Z" fill="black"/>
<path d="M0.916667 0.941176C0.410406 0.941176 0 1.36256 0 1.88235C0 2.40215 0.410406 2.82353 0.916667 2.82353H16.5V0.941176H0.916667Z" fill="black"/>
<path d="M0.916667 7.52941C0.410406 7.52941 0 7.95079 0 8.47059C0 8.99039 0.410406 9.41177 0.916667 9.41177H2.75V7.52941H0.916667Z" fill="black"/>
<path d="M10.0833 7.52941H21.0833C21.5896 7.52941 22 7.95079 22 8.47059C22 8.99039 21.5896 9.41177 21.0833 9.41177H10.0833V7.52941Z" fill="black"/>
<path d="M0.916667 14.1176C0.410406 14.1176 0 14.539 0 15.0588C0 15.5786 0.410406 16 0.916667 16H21.0833C21.5896 16 22 15.5786 22 15.0588C22 14.539 21.5896 14.1176 21.0833 14.1176H0.916667Z" fill="black"/>
<path d="M6.41667 6.58824C5.40414 6.58824 4.58333 7.43099 4.58333 8.47059C4.58333 9.51018 5.40414 10.3529 6.41667 10.3529C7.42919 10.3529 8.25 9.51018 8.25 8.47059C8.25 7.43099 7.42919 6.58824 6.41667 6.58824Z" fill="black"/>
</svg>
