<svg width="30" height="32" viewBox="0 0 30 32" fill="none" xmlns="http://www.w3.org/2000/svg">
<path fill-rule="evenodd" clip-rule="evenodd" d="M9.80756 3L12 7L0.467597 26.3496C-0.184747 27.5337 -0.15191 28.9717 0.549689 30.1294C1.25129 31.2856 2.52387 32 3.89423 32H26.1021C27.4724 32 28.7478 31.2856 29.4494 30.1294C30.1503 28.9717 30.186 27.5337 29.5336 26.3496L18 7L20.1986 3H9.80756ZM17.7971 21.2134C17.7971 20.4609 17.1768 19.8516 16.411 19.8516C15.6451 19.8516 15.0249 20.4629 15.0249 21.2134C15.0249 21.9648 15.6458 22.5747 16.411 22.5747C17.1754 22.5747 17.7971 21.9648 17.7971 21.2134ZM13.8994 13.0269C13.8994 12.2744 13.2791 11.6646 12.5133 11.6646C11.7474 11.6646 11.1279 12.2744 11.1272 13.0269C11.1272 13.7783 11.7474 14.3887 12.5133 14.3887C13.2791 14.3887 13.8994 13.7783 13.8994 13.0269ZM14.7601 18.6245C14.7601 17.4067 13.7537 16.4185 12.5133 16.4185C11.2721 16.4185 10.2664 17.4062 10.2664 18.6245C10.2664 19.8433 11.2721 20.8311 12.5133 20.8311C13.7537 20.8311 14.7601 19.8433 14.7601 18.6245ZM24.0329 28.5049C24.6003 28.5049 25.1278 28.2202 25.4161 27.7378C25.7045 27.2563 25.7116 26.666 25.4368 26.1758L23.853 23.3838C23.4234 22.624 22.4492 22.3481 21.6747 22.769C20.3029 23.5117 18.8626 24.0669 17.311 24.125C15.7362 24.1836 14.0596 23.4941 12.3939 22.8096C10.9953 22.2344 9.60438 21.6621 8.28797 21.5391C7.65278 21.4795 7.04182 21.7939 6.73206 22.3418L4.56013 26.1772C4.28394 26.6665 4.29182 27.2554 4.58015 27.7378C4.86848 28.2202 5.39521 28.5049 5.96332 28.5049H24.0329Z" fill="#181A1C"/>
<path d="M8 2C8 0.895431 8.89543 0 10 0H20C21.1046 0 22 0.895431 22 2H8Z" fill="#181A1C"/>
</svg>
