<svg width="32" height="36" viewBox="0 0 32 36" fill="none" xmlns="http://www.w3.org/2000/svg">
<path d="M23.7185 13.0414C23.544 13.1771 23.3693 13.3177 23.1949 13.4632C23.0926 13.5486 22.9905 13.6354 22.8885 13.7243C22.7887 13.8116 22.689 13.9004 22.5895 13.9907C21.5614 14.9257 20.6217 15.955 19.7829 16.9773L19.5474 17.2127C19.9366 15.6718 20.21 13.9488 20.21 12.1138C20.21 5.65796 16.8732 0.50032 16.7311 0.284205C16.4824 -0.0947351 15.8535 -0.0947351 15.6049 0.284205C15.4627 0.50032 12.126 5.65796 12.126 12.1138C12.126 13.9803 12.4089 15.7315 12.8089 17.2926C11.9069 16.1676 10.8804 15.0219 9.74643 13.9907C5.55046 10.1747 0.96635 9.45378 0.772994 9.42467C0.543372 9.39654 0.31116 9.47845 0.159189 9.65558C0.00851368 9.8342 -0.0388539 10.0779 0.0328759 10.2995C0.110465 10.5393 1.98938 16.2135 6.46031 19.7064C7.3862 20.4297 8.3869 21.0549 9.3802 21.5947C8.95241 21.568 8.51987 21.5508 8.08401 21.5508C3.85121 21.5508 0.465167 23.5851 0.323064 23.6714C0.12169 23.7943 -0.000614444 24.0139 2.32169e-06 24.2492C0.000619087 24.4856 0.125021 24.7042 0.32695 24.8255C0.471026 24.9114 3.9032 26.9438 8.08401 26.9438C8.7284 26.9438 9.36626 26.8796 9.98703 26.773L2.86216 33.8974C3.4566 34.492 4.42036 34.492 5.0148 33.8974L30.5159 8.39639C31.1103 7.80233 31.1103 6.8382 30.5159 6.24413L23.7185 13.0414Z" fill="#181A1C"/>
<path d="M27.7911 13.1761L9.26418 31.7032C9.07952 32.4527 9.09346 32.9999 9.09575 33.0497C9.105 33.2575 9.20892 33.4494 9.37804 33.5698C9.49313 33.6522 9.62999 33.6951 9.76882 33.6951C9.83334 33.6951 9.89779 33.6857 9.96094 33.6675C10.0623 33.6369 12.4727 32.9017 14.3201 30.7657C14.6513 30.3828 14.9182 30.0034 15.1582 29.6309V34.3691C15.1582 34.7416 15.4595 35.0431 15.8319 35.0431C16.2043 35.0431 16.5056 34.7416 16.5056 34.3691V29.6309C16.7455 30.0034 17.0125 30.3828 17.3437 30.7657C19.1911 32.9017 21.6015 33.6369 21.7029 33.6675C21.7383 33.6778 21.7741 33.6852 21.8101 33.6897C21.8384 33.6931 21.8667 33.6951 21.895 33.6951C21.9782 33.6951 22.0607 33.6798 22.1382 33.6497C22.19 33.6295 22.2396 33.6028 22.2858 33.5698C22.4549 33.4494 22.5588 33.2575 22.5681 33.0497C22.5724 32.953 22.6209 30.9922 21.1863 29.3067C22.0642 29.5139 22.986 29.6506 23.916 29.6506C28.1488 29.6506 31.5348 27.6163 31.6769 27.5299C31.8776 27.4076 32 27.189 32 26.9541C31.9998 26.7193 31.8774 26.5007 31.6768 26.3783C31.5347 26.292 28.1485 24.2576 23.9158 24.2576C23.4799 24.2576 23.0474 24.2749 22.6196 24.301C23.6129 23.7617 24.6136 23.1366 25.5395 22.4132C30.0103 18.9204 31.8892 13.2461 31.9668 13.0063C32.0385 12.7843 31.9912 12.5411 31.8405 12.3624C31.6892 12.1853 31.4603 12.1034 31.2267 12.1315C31.1217 12.1473 29.7212 12.3669 27.7911 13.1761Z" fill="#181A1C"/>
</svg>
