<svg width="34" height="32" viewBox="0 0 34 32" fill="none" xmlns="http://www.w3.org/2000/svg">
<path d="M33.3548 20.3041L29.2926 9.90124C29.7037 9.76187 30.0799 9.53192 30.3447 9.19748C31.5944 7.66708 30.4643 5.3652 28.4216 5.3652C28.0314 5.3652 27.7248 5.67876 27.7248 6.06198C27.7248 6.4452 28.0314 6.75876 28.4216 6.75876C29.27 6.75876 29.7852 7.6621 29.2647 8.31954C29.0278 8.61217 28.5609 8.72368 28.122 8.6052L24.3315 7.51822C22.0391 6.86325 19.6213 6.96778 17.4195 7.78998V7.00959L18.9106 5.5115C19.5586 4.87047 19.6979 3.86711 19.245 3.07277L17.9072 0.696778C17.6634 0.264779 17.2104 0 16.7157 0C16.221 0 15.7681 0.264779 15.5242 0.696778L14.1864 3.05887C13.7405 3.85316 13.8798 4.85653 14.5209 5.49759L16.0259 7.00959V7.78998C13.8241 6.96778 11.4063 6.86325 9.11387 7.51822L5.31642 8.6052C4.6287 8.79382 3.97165 8.40898 3.97165 7.7412C3.97165 7.19773 4.44545 6.75876 5.02379 6.75876C5.40701 6.75876 5.72057 6.4452 5.72057 6.06198C5.72057 5.67876 5.40701 5.3652 5.02379 5.3652C3.67204 5.3652 2.57809 6.43125 2.57809 7.7412C2.57809 8.66736 3.1272 9.55593 4.14584 9.90124L0.0905846 20.3041C0.0250354 20.5006 0 20.8281 0 21.0218C0 23.3491 2.29239 25.2373 5.1074 25.2373C7.92934 25.2373 10.2217 23.3491 10.2217 21.0218C10.2217 20.8294 10.1972 20.5021 10.1311 20.3041L6.05501 9.84548L9.49709 8.85607C11.678 8.23593 13.9704 8.40315 16.0259 9.30198V25.8226H12.8625C11.2808 25.8226 9.77582 26.5821 8.84212 27.8572L7.22559 30.0521C7.07232 30.2611 7.04442 30.5398 7.1629 30.7767C7.28134 31.0136 7.5252 31.1599 7.78998 31.1599H25.6554C25.9202 31.1599 26.157 31.0136 26.2755 30.7767C26.394 30.5398 26.373 30.2611 26.2198 30.0521L24.6032 27.8572C23.6695 26.5821 22.1645 25.8226 20.5828 25.8226H17.4195V9.30198C19.468 8.40315 21.7674 8.23593 23.9483 8.85607L27.3904 9.84548L23.3072 20.3041C23.248 20.4817 23.2236 20.8252 23.2236 21.0218C23.2236 23.3491 25.5091 25.2373 28.331 25.2373C31.153 25.2373 33.4454 23.3491 33.4454 21.0218C33.4454 20.8249 33.4198 20.4988 33.3548 20.3041ZM8.46588 19.8652H1.7559L5.11437 11.2669L8.46588 19.8652ZM24.9795 19.8652L28.331 11.2669L31.6825 19.8652H24.9795Z" fill="white"/>
</svg>
