<svg width="24" height="24" viewBox="0 0 24 24" fill="none" xmlns="http://www.w3.org/2000/svg">
<path fill-rule="evenodd" clip-rule="evenodd" d="M9.73295 14.3364L10.1702 15.4955H11.5372L8.57088 7.63636L7.35639 7.63716L4.36364 15.4955H5.73153L6.17301 14.3364H9.73295ZM9.251 13.0575H6.66051L7.9615 9.64067L9.251 13.0575Z" fill="black"/>
<path fill-rule="evenodd" clip-rule="evenodd" d="M18.8076 15.4959H17.5292V14.8311C15.5317 16.3025 12.6276 14.8333 12.6414 12.3332C12.6275 9.83323 15.5322 8.36359 17.5292 9.83523V9.17045H18.8076V15.4959ZM15.7241 10.5285C14.729 10.5285 13.9194 11.3382 13.9194 12.3332C14.0186 14.7273 17.4299 14.7266 17.5287 12.3332C17.5287 11.3382 16.7191 10.5285 15.7241 10.5285Z" fill="black"/>
<path fill-rule="evenodd" clip-rule="evenodd" d="M6.54545 0C2.9305 0 0 2.93049 0 6.54545V17.4545C0 21.0695 2.9305 24 6.54545 24H17.4545C21.0695 24 24 21.0695 24 17.4545V6.54545C24 2.93049 21.0695 0 17.4545 0H6.54545ZM17.4545 1.41824H6.54545C3.71374 1.41824 1.41818 3.71378 1.41818 6.54545V17.4545C1.41818 20.2862 3.71374 22.5818 6.54545 22.5818H17.4545C20.2863 22.5818 22.5818 20.2862 22.5818 17.4545V6.54545C22.5818 3.71378 20.2863 1.41824 17.4545 1.41824Z" fill="black"/>
</svg>
