<svg width="24" height="24" viewBox="0 0 24 24" fill="none" xmlns="http://www.w3.org/2000/svg">
<path d="M12 0C5.38317 0 0 5.38317 0 12C0 18.6168 5.38317 24 12 24C18.6168 24 24 18.6168 24 12C24 5.38317 18.6168 0 12 0ZM12 22.5938C9.29794 22.5938 6.82941 21.5764 4.95595 19.9052C6.89831 18.1696 9.37312 17.2219 12 17.2219C14.6269 17.2219 17.1017 18.1696 19.044 19.9052C17.1706 21.5764 14.7021 22.5938 12 22.5938ZM20.0301 18.902C16.8866 16.0631 13.3967 15.8156 12 15.8156C10.5992 15.8156 7.11263 16.0644 3.96984 18.902C2.37295 17.0467 1.40625 14.6342 1.40625 12C1.40625 6.15858 6.15858 1.40625 12 1.40625C17.8414 1.40625 22.5938 6.15858 22.5938 12C22.5938 14.6342 21.627 17.0467 20.0301 18.902V18.902Z" fill="#805DB9"/>
<path d="M12 3.76562C9.5323 3.76562 7.53125 5.76227 7.53125 8.23441V9.74064C7.53125 12.2084 9.52789 14.2094 12 14.2094C14.4677 14.2094 16.4687 12.2128 16.4687 9.74064V8.23441C16.4687 5.7663 14.4717 3.76562 12 3.76562ZM15.0625 9.74064C15.0625 11.4321 13.6939 12.8032 12 12.8032C10.3362 12.8032 8.9375 11.4586 8.9375 9.74064V8.23441C8.9375 6.51639 10.3363 5.17187 12 5.17187C13.6912 5.17187 15.0625 6.54025 15.0625 8.23441V9.74064Z" fill="#805DB9"/>
</svg>
