<svg width="72" height="22" viewBox="0 0 72 22" fill="none" xmlns="http://www.w3.org/2000/svg">
<path d="M14.866 21.4497C17.905 21.4497 20.3687 18.9749 20.3687 15.9221C20.3687 12.8693 17.905 10.3945 14.866 10.3945C11.8269 10.3945 9.36328 12.8693 9.36328 15.9221C9.36328 18.9749 11.8269 21.4497 14.866 21.4497Z" fill="#97CF26"/>
<path d="M4.52233 18.495C5.93694 18.495 7.08372 17.3431 7.08372 15.9221C7.08372 14.5011 5.93694 13.3491 4.52233 13.3491C3.10771 13.3491 1.96094 14.5011 1.96094 15.9221C1.96094 17.3431 3.10771 18.495 4.52233 18.495Z" fill="#A169F7"/>
<path d="M14.866 9.08978C16.8221 9.08978 18.4079 7.49688 18.4079 5.53195C18.4079 3.56702 16.8221 1.97412 14.866 1.97412C12.9099 1.97412 11.3242 3.56702 11.3242 5.53195C11.3242 7.49688 12.9099 9.08978 14.866 9.08978Z" fill="#FF6163"/>
<path d="M4.52226 10.0746C7.01984 10.0746 9.04453 8.04081 9.04453 5.53195C9.04453 3.02309 7.01984 0.989258 4.52226 0.989258C2.02469 0.989258 0 3.02309 0 5.53195C0 8.04081 2.02469 10.0746 4.52226 10.0746Z" fill="#00AAFF"/>
<path d="M34.6737 18.4653H37.5302L32.24 3.99561H30.1681L24.877 18.4657H27.7337L28.744 15.7037H33.6634L34.6737 18.4657L29.5397 13.5262L31.204 8.97607L32.8673 13.5262H29.5397L34.6737 18.4653ZM44.6114 8.58656L41.9826 15.7746L39.3551 8.58656H36.6711L40.2845 18.4653H43.6812L47.2941 8.58656H44.6109H44.6114ZM48.4175 8.58656H51.1014V18.4653H48.4175V8.58656Z" fill="black"/>
<path d="M49.769 7.46482C50.7234 7.46482 51.4971 6.68766 51.4971 5.72899C51.4971 4.77032 50.7234 3.99316 49.769 3.99316C48.8147 3.99316 48.041 4.77032 48.041 5.72899C48.041 6.68766 48.8147 7.46482 49.769 7.46482Z" fill="black"/>
<path d="M60.5786 10.7635V8.58645H57.3635V5.86133H54.6812V8.58645H52.5586V10.7635H54.6812V15.0137C54.6812 17.206 55.7725 18.6693 58.5589 18.6693C59.6349 18.6693 60.5786 18.2724 60.5786 18.2724L60.2526 16.1394C60.2526 16.1394 59.7244 16.298 59.0748 16.298C58.2787 16.298 57.3635 15.9533 57.3635 14.8477V10.7633H60.5786V10.7635ZM66.7333 16.2071C65.2369 16.2071 64.0243 15.0154 64.0243 13.5455C64.0243 12.0768 65.2369 10.8849 66.7328 10.8849C68.2296 10.8849 69.4417 12.0771 69.4417 13.5457C69.4417 15.0157 68.2296 16.2073 66.7333 16.2073V16.2071ZM66.7333 8.33433C63.8243 8.33433 61.4651 10.6525 61.4651 13.5098C61.4651 16.3684 63.8243 18.6853 66.733 18.6853C69.6405 18.6853 71.9997 16.3684 71.9997 13.5098C71.9997 10.6525 69.6405 8.33433 66.7328 8.33433" fill="black"/>
</svg>
