<svg width="119" height="29" viewBox="0 0 119 29" fill="none" xmlns="http://www.w3.org/2000/svg">
<path d="M118.768 0.856934H0.761963V28.2757H118.768V0.856934Z" fill="#AE119C"/>
<path fill-rule="evenodd" clip-rule="evenodd" d="M12.0439 20.3089L8.92993 8.82379H10.9924L13.3784 17.6399L15.9262 8.82379H17.8269L20.4151 17.6803L22.8011 8.82379H24.8636L21.7496 20.3089H19.4041L16.9372 11.7355L14.4299 20.3089H12.0439ZM26.1981 8.82379H28.1393V20.3089H26.1981V8.82379ZM32.2642 18.4891H36.9553V20.3089H30.3635V8.82379H32.2642V18.4891ZM42.9405 8.86423C44.5177 8.86423 45.8523 9.43039 46.9037 10.5223C47.9552 11.6142 48.4809 12.9892 48.4809 14.6068C48.4809 16.184 47.9552 17.559 46.9037 18.6913C45.8523 19.7832 44.5177 20.3494 42.9405 20.3494H38.4112V8.82379L42.9405 8.86423ZM42.9405 18.5295C44.0324 18.5295 44.9221 18.1656 45.6096 17.4376C46.2971 16.7097 46.6611 15.7391 46.6611 14.6068C46.6611 13.4745 46.2971 12.5443 45.6096 11.776C44.9221 11.048 44.0324 10.6841 42.9405 10.6841H40.3119V18.5295H42.9405ZM58.7124 17.0332C58.7124 17.9634 58.3889 18.7318 57.7014 19.3788C57.0139 19.9854 56.2051 20.3089 55.2345 20.3089H50.2603V8.82379H54.8705C55.8411 8.82379 56.6095 9.14731 57.297 9.75392C57.9845 10.3605 58.308 11.1289 58.308 12.0186C58.308 13.0296 57.9036 13.798 57.1352 14.3642C58.1058 14.8899 58.7124 15.8605 58.7124 17.0332ZM52.2015 10.6032V13.6362H54.911C55.7602 13.6362 56.4073 12.9892 56.4073 12.0995C56.4073 11.2502 55.7602 10.5627 54.911 10.5627L52.2015 10.6032ZM55.2345 18.5295C56.1242 18.5295 56.8117 17.8421 56.8117 16.9524C56.8117 16.0627 56.1242 15.3752 55.2345 15.3752H52.161V18.57L55.2345 18.5295ZM62.4329 18.4891H67.5689V20.3089H60.5322V8.82379H67.488V10.6436H62.4329V13.6362H67.0836V15.4156H62.4329V18.4891ZM75.8593 20.3089L73.3924 16.1435H71.1681V20.3089H69.2674V8.82379H73.9181C74.9696 8.82379 75.8593 9.18775 76.5467 9.91568C77.2747 10.6032 77.6386 11.4929 77.6386 12.5039C77.6386 13.9598 76.7085 15.2943 75.3335 15.82L77.9622 20.2685H75.8593V20.3089ZM71.1681 10.6032V14.445H73.8777C74.8887 14.445 75.6975 13.5958 75.6975 12.5039C75.6975 11.4524 74.8887 10.5627 73.8777 10.5627L71.1681 10.6032ZM86.0099 20.3089L83.543 16.1435H81.3187V20.3089H79.418V8.82379H84.0687C85.1202 8.82379 86.0099 9.18775 86.6974 9.91568C87.4253 10.6032 87.7893 11.4929 87.7893 12.5039C87.7893 13.9598 86.8591 15.2943 85.4841 15.82L88.1532 20.2685H86.0099V20.3089ZM81.3187 10.6032V14.445H84.0283C85.0393 14.445 85.8481 13.5958 85.8481 12.5039C85.8481 11.4524 85.0393 10.5627 84.0283 10.5627L81.3187 10.6032ZM89.5282 8.82379H91.4289V20.3089H89.5282V8.82379ZM95.5539 18.4891H100.69V20.3089H93.6532V8.82379H100.609V10.6436H95.5539V13.6362H100.205V15.4156H95.5539V18.4891ZM102.024 17.7207L103.642 16.7502C104.127 18.0443 105.057 18.6913 106.513 18.6913C107.969 18.6913 108.657 18.0847 108.657 17.1546C108.657 16.6693 108.454 16.3458 108.09 16.1031C107.727 15.8605 107.039 15.5774 106.028 15.2943C104.936 14.9708 104.37 14.7686 103.602 14.2428C102.874 13.7171 102.469 12.9487 102.469 11.9377C102.469 10.9267 102.833 10.1179 103.561 9.51128C104.289 8.90467 105.138 8.62158 106.19 8.62158C108.05 8.62158 109.465 9.59216 110.234 11.1693L108.657 12.0995C108.171 11.048 107.363 10.5223 106.23 10.5223C105.138 10.5223 104.41 11.0885 104.41 11.9377C104.41 12.787 104.977 13.1914 106.756 13.7171C107.201 13.8384 107.524 13.9597 107.727 14.0406C107.929 14.0811 108.212 14.2428 108.576 14.3642C108.94 14.4855 109.223 14.6877 109.425 14.8494C110.032 15.3347 110.679 16.1031 110.598 17.195C110.598 18.2465 110.234 19.0553 109.465 19.6619C108.738 20.2685 107.727 20.5516 106.513 20.5516C104.249 20.5111 102.631 19.4597 102.024 17.7207Z" fill="white"/>
</svg>
