<svg width="90" height="27" viewBox="0 0 90 27" fill="none" xmlns="http://www.w3.org/2000/svg">
<path d="M18.7386 26.1761C22.5013 26.1761 25.5515 23.1121 25.5515 19.3324C25.5515 15.5528 22.5013 12.4888 18.7386 12.4888C14.976 12.4888 11.9258 15.5528 11.9258 19.3324C11.9258 23.1121 14.976 26.1761 18.7386 26.1761Z" fill="#97CF26"/>
<path d="M5.93306 22.5181C7.68448 22.5181 9.1043 21.0919 9.1043 19.3325C9.1043 17.5732 7.68448 16.147 5.93306 16.147C4.18163 16.147 2.76181 17.5732 2.76181 19.3325C2.76181 21.0919 4.18163 22.5181 5.93306 22.5181Z" fill="#A169F7"/>
<path d="M18.7386 10.8728C21.1605 10.8728 23.1238 8.90069 23.1238 6.46792C23.1238 4.03514 21.1605 2.06299 18.7386 2.06299C16.3168 2.06299 14.3535 4.03514 14.3535 6.46792C14.3535 8.90069 16.3168 10.8728 18.7386 10.8728Z" fill="#FF6163"/>
<path d="M5.93298 12.0923C9.02521 12.0923 11.532 9.57425 11.532 6.46804C11.532 3.36183 9.02521 0.84375 5.93298 0.84375C2.84074 0.84375 0.333984 3.36183 0.333984 6.46804C0.333984 9.57425 2.84074 12.0923 5.93298 12.0923Z" fill="#00AAFF"/>
<path d="M43.2641 22.4807H46.8007L40.251 4.56592H37.6857L31.1348 22.4813H34.6717L35.9226 19.0616H42.0132L43.2641 22.4813L36.9076 16.3656L38.9682 10.7322L41.0275 16.3656H36.9076L43.2641 22.4807ZM55.5679 10.25L52.3132 19.1494L49.06 10.25H45.7371L50.2108 22.4807H54.4163L58.8894 10.25H55.5673H55.5679ZM60.2802 10.25H63.6032V22.4807H60.2802V10.25Z" fill="black"/>
<path d="M61.952 8.86123C63.1335 8.86123 64.0914 7.89903 64.0914 6.71211C64.0914 5.52518 63.1335 4.56299 61.952 4.56299C60.7704 4.56299 59.8125 5.52518 59.8125 6.71211C59.8125 7.89903 60.7704 8.86123 61.952 8.86123Z" fill="black"/>
<path d="M75.3357 12.9453V10.2499H71.3551V6.87598H68.0343V10.2499H65.4062V12.9453H68.0343V18.2075C68.0343 20.9218 69.3853 22.7334 72.8352 22.7334C74.1674 22.7334 75.3357 22.242 75.3357 22.242L74.9321 19.6012C74.9321 19.6012 74.2781 19.7975 73.474 19.7975C72.4883 19.7975 71.3551 19.3707 71.3551 18.002V12.945H75.3357V12.9453ZM82.9558 19.685C81.1032 19.685 79.6019 18.2096 79.6019 16.3897C79.6019 14.5713 81.1032 13.0956 82.9552 13.0956C84.8085 13.0956 86.3092 14.5716 86.3092 16.39C86.3092 18.2099 84.8085 19.6853 82.9558 19.6853V19.685ZM82.9558 9.93778C79.3543 9.93778 76.4334 12.8078 76.4334 16.3455C76.4334 19.8847 79.3543 22.7532 82.9555 22.7532C86.5553 22.7532 89.4761 19.8847 89.4761 16.3455C89.4761 12.8078 86.5553 9.93778 82.9552 9.93778" fill="black"/>
</svg>
