<svg width="96" height="23" viewBox="0 0 96 23" fill="none" xmlns="http://www.w3.org/2000/svg">
<path d="M95.3124 0H0V22.1459H95.3124V0Z" fill="#AE119C"/>
<path fill-rule="evenodd" clip-rule="evenodd" d="M9.11276 15.7113L6.59766 6.4348H8.2635L10.1907 13.5555L12.2485 6.4348H13.7837L15.8741 13.5881L17.8013 6.4348H19.4671L16.952 15.7113H15.0575L13.0651 8.78658L11.0399 15.7113H9.11276ZM20.545 6.4348H22.1129V15.7113H20.545V6.4348ZM25.4446 14.2414H29.2335V15.7113H23.9094V6.4348H25.4446V14.2414ZM34.0678 6.46747C35.3416 6.46747 36.4195 6.92476 37.2688 7.80667C38.1181 8.68859 38.5427 9.79915 38.5427 11.1057C38.5427 12.3796 38.1181 13.4901 37.2688 14.4047C36.4195 15.2866 35.3416 15.7439 34.0678 15.7439H30.4094V6.4348L34.0678 6.46747ZM34.0678 14.2741C34.9497 14.2741 35.6683 13.9801 36.2236 13.3922C36.7788 12.8042 37.0728 12.0203 37.0728 11.1057C37.0728 10.1911 36.7788 9.43985 36.2236 8.81925C35.6683 8.2313 34.9497 7.93733 34.0678 7.93733H31.9446V14.2741H34.0678ZM46.8066 13.0655C46.8066 13.8168 46.5453 14.4374 45.99 14.96C45.4347 15.45 44.7814 15.7113 43.9975 15.7113H39.9799V6.4348H43.7035C44.4875 6.4348 45.1081 6.69611 45.6634 7.18606C46.2186 7.67602 46.4799 8.29663 46.4799 9.01523C46.4799 9.83182 46.1533 10.4524 45.5327 10.9097C46.3166 11.3343 46.8066 12.1183 46.8066 13.0655ZM41.5477 7.872V10.3218H43.7362C44.4221 10.3218 44.9448 9.79916 44.9448 9.08056C44.9448 8.39462 44.4221 7.83934 43.7362 7.83934L41.5477 7.872ZM43.9975 14.2741C44.7161 14.2741 45.2714 13.7188 45.2714 13.0002C45.2714 12.2816 44.7161 11.7263 43.9975 11.7263H41.5151V14.3067L43.9975 14.2741ZM49.8116 14.2414H53.9599V15.7113H48.2764V6.4348H53.8946V7.90467H49.8116V10.3218H53.568V11.759H49.8116V14.2414ZM60.656 15.7113L58.6635 12.3469H56.867V15.7113H55.3318V6.4348H59.0881C59.9374 6.4348 60.656 6.72877 61.2112 7.31672C61.7992 7.872 62.0932 8.5906 62.0932 9.40719C62.0932 10.5831 61.3419 11.661 60.2313 12.0856L62.3545 15.6786H60.656V15.7113ZM56.867 7.872V10.975H59.0554C59.872 10.975 60.5253 10.2891 60.5253 9.40719C60.5253 8.55794 59.872 7.83934 59.0554 7.83934L56.867 7.872ZM68.8545 15.7113L66.862 12.3469H65.0655V15.7113H63.5304V6.4348H67.2867C68.1359 6.4348 68.8545 6.72877 69.4098 7.31672C69.9978 7.872 70.2917 8.5906 70.2917 9.40719C70.2917 10.5831 69.5405 11.661 68.4299 12.0856L70.5857 15.6786H68.8545V15.7113ZM65.0655 7.872V10.975H67.254C68.0706 10.975 68.7239 10.2891 68.7239 9.40719C68.7239 8.55794 68.0706 7.83934 67.254 7.83934L65.0655 7.872ZM71.6963 6.4348H73.2315V15.7113H71.6963V6.4348ZM76.5631 14.2414H80.7114V15.7113H75.028V6.4348H80.6461V7.90467H76.5631V10.3218H80.3195V11.759H76.5631V14.2414ZM81.7893 13.6208L83.0959 12.8369C83.4878 13.8821 84.2391 14.4047 85.415 14.4047C86.5909 14.4047 87.1462 13.9148 87.1462 13.1635C87.1462 12.7715 86.9828 12.5102 86.6889 12.3143C86.3949 12.1183 85.8396 11.8896 85.023 11.661C84.1411 11.3997 83.6838 11.2364 83.0632 10.8117C82.4753 10.3871 82.1486 9.76649 82.1486 8.9499C82.1486 8.13331 82.4426 7.48004 83.0305 6.99008C83.6185 6.50013 84.3044 6.27148 85.1537 6.27148C86.6562 6.27148 87.7994 7.05541 88.42 8.32929L87.1462 9.08056C86.7542 8.2313 86.1009 7.80667 85.1863 7.80667C84.3044 7.80667 83.7165 8.26396 83.7165 8.9499C83.7165 9.63584 84.1738 9.96247 85.611 10.3871C85.9703 10.4851 86.2316 10.5831 86.3949 10.6484C86.5582 10.6811 86.7869 10.8117 87.0808 10.9097C87.3748 11.0077 87.6035 11.171 87.7668 11.3017C88.2567 11.6936 88.7793 12.3143 88.714 13.1962C88.714 14.0454 88.42 14.6987 87.7994 15.1887C87.2115 15.6786 86.3949 15.9073 85.415 15.9073C83.5858 15.8746 82.2793 15.0253 81.7893 13.6208Z" fill="white"/>
</svg>
