<svg width="24" height="24" viewBox="0 0 24 24" fill="none" xmlns="http://www.w3.org/2000/svg">
<path d="M12.0002 24C18.6435 24 24 18.6434 24 12C24 5.35661 18.6435 0 12.0002 0C5.35699 0 0.000488599 5.35661 0.000488599 12C-0.0593606 18.6434 5.38691 24 12.0002 24Z" fill="#0069FF"/>
<path fill-rule="evenodd" clip-rule="evenodd" d="M9.0713 6.69975C10.153 6.1451 11.3959 5.9112 12.6285 6.03029C13.9989 6.16129 15.2781 6.72115 16.2507 7.61552C17.2234 8.50998 17.8302 9.68424 17.9689 10.9407C18.095 12.0712 17.8359 13.2095 17.2276 14.1997C16.619 15.1896 15.6912 15.9825 14.5711 16.4695C13.4512 16.9564 12.1941 17.1133 10.9729 16.9188C9.75149 16.7242 8.62605 16.1878 7.75077 15.3832C6.87567 14.5783 6.29394 13.5449 6.08546 12.4248C5.87698 11.3048 6.05214 10.1529 6.58681 9.12782C7.12149 8.10261 7.98939 7.2544 9.0713 6.69975ZM10.5062 14.0934C11.097 14.3813 11.7711 14.4922 12.4341 14.4106C13.1315 14.325 13.7787 14.0311 14.2754 13.5744C14.7722 13.1176 15.0907 12.5234 15.182 11.8839C15.2687 11.2759 15.1456 10.6583 14.8298 10.1176C14.5138 9.57715 14.0212 9.14092 13.4209 8.87035C12.8206 8.59978 12.1429 8.5083 11.4831 8.60901C10.8232 8.70972 10.2143 8.99741 9.74212 9.4318C9.26973 9.86602 8.95777 10.4249 8.8501 11.0302C8.74226 11.6355 8.84407 12.2563 9.14113 12.8059C9.43819 13.3552 9.9156 13.8056 10.5062 14.0934Z" fill="white"/>
</svg>
