<svg width="82" height="21" viewBox="0 0 82 21" fill="none" xmlns="http://www.w3.org/2000/svg">
<path d="M0 10.0504C0 15.6116 4.4959 20.1008 10.0654 20.1008C15.635 20.1008 20.1309 15.6116 20.1309 10.0504C20.1309 4.48918 15.635 0 10.0654 0C4.4959 0 0 4.48918 0 10.0504ZM3.48935 10.0504C3.48935 6.56626 6.17347 3.75215 9.59573 3.48414V6.96827C8.11946 7.16928 6.97871 8.44233 6.97871 9.98339C6.97871 11.6585 8.32077 13.0655 10.0654 13.0655C11.8101 13.0655 13.1522 11.7255 13.1522 9.98339C13.1522 8.44233 12.0114 7.16928 10.5352 6.96827V3.48414C13.9574 3.68514 16.6415 6.56626 16.6415 10.0504C16.6415 13.6685 13.689 16.6166 10.0654 16.6166C6.44189 16.6166 3.48935 13.6685 3.48935 10.0504ZM8.72339 1.74207C8.72339 1.00504 9.32731 0.402016 10.0654 0.402016C10.8036 0.402016 11.4075 1.00504 11.4075 1.74207C11.4075 2.4791 10.8036 3.08212 10.0654 3.08212C9.32731 3.08212 8.72339 2.4791 8.72339 1.74207Z" fill="#B74746"/>
<path d="M26.8409 12.2619H23.9555C23.4857 12.2619 23.2173 11.9939 23.2173 11.5249V8.64376C23.2173 8.10773 23.4857 7.90673 23.9555 7.90673H26.8409C27.3106 7.90673 27.579 8.17474 27.579 8.64376V11.5249C27.579 11.9939 27.3106 12.2619 26.8409 12.2619ZM29.3237 8.50975C29.3237 6.90169 28.5185 6.09766 26.9751 6.09766H23.8213C22.2108 6.09766 21.4727 6.90169 21.4727 8.50975V11.5249C21.4727 13.1329 22.2779 13.937 23.8213 13.937H26.9751C28.5185 13.937 29.3237 13.1329 29.3237 11.5249V8.50975Z" fill="#B74746"/>
<path d="M38.0464 6.09766H30.1953V7.83972H33.282V14.004H35.0267V7.83972H38.0464V6.09766Z" fill="#B74746"/>
<path d="M46.8381 8.50915C46.8381 6.96809 46.0999 6.16406 44.6237 6.16406H38.9199V7.90613H44.2882C44.825 7.90613 45.0934 8.10714 45.0934 8.57616C45.0934 9.04518 44.825 9.24618 44.2882 9.24618H42.0067V10.9883H44.2882C44.825 10.9883 45.0934 11.1893 45.0934 11.6583C45.0934 12.1273 44.825 12.3283 44.2882 12.3283H38.9199V14.0704H44.2882C45.9657 14.0704 46.8381 13.4003 46.8381 11.9933C46.8381 11.3233 46.7039 10.6532 46.3684 10.1842C46.7039 9.51419 46.8381 8.97817 46.8381 8.50915Z" fill="#B74746"/>
<path d="M53.0772 12.2619H50.1918C49.7221 12.2619 49.4537 11.9939 49.4537 11.5249V8.64376C49.4537 8.10773 49.7221 7.90673 50.1918 7.90673H53.0772C53.5469 7.90673 53.8154 8.17474 53.8154 8.64376V11.5249C53.8154 11.9939 53.5469 12.2619 53.0772 12.2619ZM55.56 8.50975C55.56 6.90169 54.7548 6.09766 53.2114 6.09766H50.0576C48.4471 6.09766 47.709 6.90169 47.709 8.50975V11.5249C47.709 13.1329 48.5142 13.937 50.0576 13.937H53.2114C54.7548 13.937 55.56 13.1329 55.56 11.5249V8.50975Z" fill="#B74746"/>
<path d="M62.6064 11.5919C62.6064 11.1229 62.338 10.9218 61.8682 10.9218H58.2447V12.2619H61.8682C62.338 12.2619 62.6064 11.9939 62.6064 11.5919ZM62.6064 8.50975C62.6064 8.04073 62.338 7.83972 61.8682 7.83972H58.2447V9.17978H61.8682C62.338 9.17978 62.6064 8.97877 62.6064 8.50975ZM64.3511 11.5919C64.3511 13.1999 63.5458 13.937 62.0024 13.937H56.5V6.09766H62.0024C63.5458 6.09766 64.3511 6.90169 64.3511 8.44275C64.3511 9.17978 64.1497 9.7158 63.8813 9.98381C64.1497 10.3858 64.3511 10.9218 64.3511 11.5919Z" fill="#B74746"/>
<path d="M73.0737 14.004H71.329V8.50975L66.9673 14.004H65.2227V6.09766H66.9673V11.5919L71.329 6.09766H73.0737V14.004Z" fill="#B74746"/>
<path d="M78.8458 10.0508L81.9996 6.09766H79.9865L77.5037 9.17978H75.6919V6.09766H73.9473V14.004H75.6919V10.9218H77.5037L79.9865 14.004H81.9996L78.8458 10.0508Z" fill="#B74746"/>
</svg>
