<svg width="78" height="17" viewBox="0 0 78 17" fill="none" xmlns="http://www.w3.org/2000/svg">
<path fill-rule="evenodd" clip-rule="evenodd" d="M9.93902 0.0940429C8.21445 -0.0876176 6.47595 0.269321 4.96248 1.1158C3.449 1.96227 2.23485 3.25673 1.4869 4.82125C0.738962 6.38576 0.493947 8.14353 0.785537 9.85295C1.07713 11.5624 1.89101 13.1395 3.11531 14.3676C4.33961 15.5957 5.91423 16.4145 7.62274 16.7113C9.33124 17.0082 11.0898 16.7686 12.6566 16.0255C14.2234 15.2824 15.5216 14.0723 16.3728 12.5614C17.2239 11.0506 17.5862 9.31319 17.4099 7.58807C17.2159 5.67049 16.367 3.87833 15.0063 2.51337C13.6455 1.1484 11.856 0.294007 9.93902 0.0940429ZM9.66703 12.8835C8.7395 13.0079 7.79631 12.8386 6.96999 12.3993C6.14368 11.96 5.47579 11.2728 5.0602 10.4343C4.6446 9.59584 4.50219 8.6482 4.65298 7.7246C4.80378 6.80099 5.24019 5.94786 5.90088 5.28509C6.56158 4.62232 7.41335 4.18324 8.33647 4.02956C9.2596 3.87588 10.2077 4.01533 11.0475 4.4283C11.8872 4.84126 12.5765 5.507 13.0184 6.33193C13.4603 7.15687 13.6326 8.09953 13.511 9.02744C13.3835 10.0034 12.9378 10.9102 12.2429 11.6073C11.548 12.3044 10.6426 12.7529 9.66703 12.8835ZM21.8993 0.426107C21.6082 0.426804 21.3209 0.492394 21.0583 0.618105C20.7958 0.743816 20.5645 0.926485 20.3814 1.15282C20.1983 1.37916 20.068 1.64346 19.9999 1.92651C19.9318 2.20956 19.9277 2.50423 19.9878 2.78907C20.172 3.71188 21.0339 4.3424 21.9729 4.3424H27.4219L18.942 15.5644C18.8793 15.6473 18.8409 15.746 18.8311 15.8494C18.8213 15.9528 18.8405 16.057 18.8866 16.1501C18.9327 16.2432 19.0038 16.3217 19.092 16.3767C19.1802 16.4317 19.2819 16.461 19.3858 16.4614H32.6874C33.6257 16.4614 34.4883 15.831 34.6725 14.9081C34.7326 14.6233 34.7285 14.3286 34.6605 14.0456C34.5925 13.7626 34.4622 13.4983 34.2792 13.272C34.0962 13.0456 33.865 12.8629 33.6025 12.7371C33.34 12.6113 33.0528 12.5456 32.7617 12.5448H26.1225L34.5959 1.33148C34.6593 1.24783 34.698 1.14818 34.7079 1.04373C34.7177 0.939272 34.6983 0.834136 34.6517 0.740116C34.6052 0.646096 34.5333 0.566912 34.4443 0.511446C34.3552 0.455981 34.2524 0.426429 34.1475 0.426107H21.8993ZM75.0516 0.47128C74.6113 0.575997 74.2198 0.827868 73.942 1.18525C73.6642 1.54263 73.5167 1.98412 73.5238 2.43672V8.95722L62.9582 0.549264C62.8753 0.483493 62.7756 0.442449 62.6704 0.430852C62.5653 0.419256 62.459 0.437578 62.3638 0.483712C62.2686 0.529845 62.1883 0.601916 62.1323 0.691632C62.0762 0.781349 62.0466 0.885067 62.0469 0.990854V14.4543C62.0397 14.9069 62.1873 15.3484 62.4651 15.7058C62.7429 16.0632 63.1343 16.315 63.5747 16.4197C63.8607 16.4826 64.1572 16.4806 64.4422 16.4136C64.7273 16.3467 64.9937 16.2166 65.2217 16.033C65.4498 15.8494 65.6338 15.6169 65.76 15.3527C65.8863 15.0885 65.9516 14.7994 65.9512 14.5066V7.92965L76.517 16.3378C76.5998 16.4035 76.6995 16.4445 76.8046 16.4561C76.9098 16.4677 77.016 16.4494 77.1112 16.4033C77.2063 16.3571 77.2865 16.2851 77.3426 16.1954C77.3986 16.1057 77.4282 16.0021 77.4279 15.8963V2.38378C77.4282 2.09104 77.3628 1.80197 77.2366 1.53788C77.1103 1.27378 76.9263 1.04139 76.6983 0.857852C76.4702 0.674311 76.2039 0.544295 75.9189 0.47739C75.6339 0.410485 75.3375 0.408397 75.0516 0.47128ZM47.5415 3.96754C52.0105 3.96754 55.3497 6.32924 55.3497 8.44177C55.3497 10.5543 52.0105 12.916 47.5415 12.916C43.0725 12.916 39.7333 10.5543 39.7333 8.44177C39.7333 6.32924 43.0725 3.96754 47.5415 3.96754ZM47.5415 0.0514056C41.0728 0.0514056 35.8291 3.80793 35.8291 8.44177C35.8291 13.0756 41.0728 16.8321 47.5415 16.8321C54.0102 16.8321 59.2538 13.0756 59.2538 8.44177C59.2538 3.80793 54.01 0.0514056 47.5415 0.0514056Z" fill="#0069FF"/>
</svg>
