<svg width="112" height="22" viewBox="0 0 112 22" fill="none" xmlns="http://www.w3.org/2000/svg">
<path d="M52.3563 18.3523H54.5649L57.652 6.90117V18.3523H60.1367V3.21777H56.7234L53.6363 14.3181L50.5492 3.21777H47.0605V18.3523H49.1939V6.90117L52.3563 18.3523ZM70.5274 10.8602C70.5274 8.17908 69.1972 7.1768 66.4364 7.1768C64.7046 7.1768 63.3493 7.703 62.5462 8.17908V10.3089C63.2238 9.78274 64.7548 9.23148 66.1101 9.23148C67.3901 9.23148 67.9172 9.70757 67.9172 10.8351V11.4365H67.5156C63.5501 11.4365 61.743 12.7645 61.743 14.9946C61.743 17.2247 63.0732 18.4776 65.1062 18.4776C66.6372 18.4776 67.3148 18.0015 67.7917 17.4753H67.9172C67.9172 17.7509 68.0427 18.1518 68.118 18.3523H70.678C70.6027 17.4753 70.5525 16.5482 70.5525 15.6712C70.5274 15.6712 70.5274 10.8602 70.5274 10.8602ZM67.9172 15.7463C67.5909 16.2224 66.9886 16.6233 66.0348 16.6233C64.9556 16.6233 64.4285 15.9468 64.4285 15.0197C64.4285 13.7418 65.307 13.2907 67.5909 13.2907H67.9925V15.7714H67.9172V15.7463ZM75.02 7.37725H72.6106V21.5095H75.2208V17.0994C75.8984 18.1017 76.8271 18.5778 77.9816 18.5778C80.5416 18.5778 82.2734 16.5732 82.2734 12.8898C82.2734 9.20642 80.5918 7.20186 78.1071 7.20186C76.9024 7.20186 75.8984 7.72805 75.1455 8.80551C75.1706 8.78045 75.02 7.37725 75.02 7.37725ZM77.2537 16.5482C75.9235 16.5482 75.1706 15.4206 75.1706 12.9399C75.1706 10.3841 75.8984 9.25654 77.3792 9.25654C78.7847 9.25654 79.5126 10.3841 79.5126 12.8648C79.5126 15.4206 78.7847 16.5482 77.2537 16.5482ZM90.3801 18.3523H93.3417L89.1754 12.4638L92.8649 7.37725H90.2546L86.5652 12.4638V7.37725H83.955V18.3523H86.5652V12.99L90.3801 18.3523ZM102.051 17.6256V15.4958C101.248 16.022 99.9175 16.498 98.6375 16.498C96.7551 16.498 96.0272 15.621 95.8766 13.7418H102.101V12.3386C102.101 8.52988 100.419 7.12668 97.8092 7.12668C94.6468 7.12668 93.1158 9.53217 93.1158 12.8898C93.1158 16.6985 94.9982 18.5778 98.2861 18.5778C100.118 18.5527 101.323 18.1518 102.051 17.6256ZM97.8343 9.25654C99.1143 9.25654 99.5159 10.334 99.5159 11.662V11.8625H95.8766C95.9519 10.1335 96.6296 9.25654 97.8343 9.25654ZM111.438 9.45699V7.37725H102.728V9.45699H105.816V18.3523H108.426V9.45699H111.438Z" fill="black"/>
<path d="M31.5726 21.0333C37.1444 21.0333 41.637 16.5481 41.637 10.9854C41.637 5.42272 37.1444 0.9375 31.5726 0.9375C26.0008 0.9375 21.5082 5.42272 21.5082 10.9854C21.458 16.5481 26.0259 21.0333 31.5726 21.0333Z" fill="#FED42B"/>
<path d="M10.0644 21.0333C15.6228 21.0333 20.1288 16.5347 20.1288 10.9854C20.1288 5.4361 15.6228 0.9375 10.0644 0.9375C4.50598 0.9375 0 5.4361 0 10.9854C0 16.5347 4.50598 21.0333 10.0644 21.0333Z" fill="#FC3F1D"/>
<path d="M11.5203 6.57549H10.5163C8.78455 6.57549 7.90611 7.45248 7.90611 8.78051C7.90611 10.2589 8.50847 10.9855 9.78848 11.8625L10.7924 12.5892L7.90611 17.0744H5.54688L8.30768 12.9901C6.70139 11.8625 5.82296 10.7851 5.82296 8.9058C5.82296 6.55043 7.42924 4.94678 10.5163 4.94678H13.6034V16.9992H11.5956V6.55043H11.5203V6.57549Z" fill="white"/>
<path d="M26.6292 6.45031L17.7695 18.0267L20.1288 20.7078L26.7045 12.013L26.0269 16.7738L29.7163 18.0517L34.2089 10.8854C34.0081 12.2134 33.6818 15.2955 36.6183 16.2476C41.2364 17.6508 45.2772 9.35693 47.1345 5.14734L44.449 3.74414C42.3658 8.10408 39.1532 12.915 37.8732 12.5893C36.5932 12.2636 37.7477 8.17925 38.4756 5.54825V5.47308L34.3846 4.06988L29.4904 12.038L30.1681 7.67811L26.6292 6.45031Z" fill="black"/>
</svg>
