<svg width="103" height="26" viewBox="0 0 103 26" fill="none" xmlns="http://www.w3.org/2000/svg">
<path d="M0.523804 13.3003C0.523804 20.1856 6.09016 25.7436 12.9858 25.7436C19.8814 25.7436 25.4478 20.1856 25.4478 13.3003C25.4478 6.41496 19.8814 0.856934 12.9858 0.856934C6.09016 0.856934 0.523804 6.41496 0.523804 13.3003ZM4.84396 13.3003C4.84396 8.98659 8.16715 5.50245 12.4042 5.17063V9.48432C10.5765 9.73319 9.16411 11.3093 9.16411 13.2173C9.16411 15.2912 10.8257 17.0333 12.9858 17.0333C15.1459 17.0333 16.8075 15.3742 16.8075 13.2173C16.8075 11.3093 15.3951 9.73319 13.5673 9.48432V5.17063C17.8044 5.41949 21.1276 8.98659 21.1276 13.3003C21.1276 17.7799 17.4721 21.4299 12.9858 21.4299C8.49947 21.4299 4.84396 17.7799 4.84396 13.3003ZM11.3242 3.01378C11.3242 2.10127 12.0719 1.35467 12.9858 1.35467C13.8997 1.35467 14.6474 2.10127 14.6474 3.01378C14.6474 3.92629 13.8997 4.67289 12.9858 4.67289C12.0719 4.67289 11.3242 3.92629 11.3242 3.01378Z" fill="#B74746"/>
<path d="M33.7561 16.0382H30.1837C29.6021 16.0382 29.2698 15.7063 29.2698 15.1257V11.5586C29.2698 10.8949 29.6021 10.6461 30.1837 10.6461H33.7561C34.3377 10.6461 34.67 10.9779 34.67 11.5586V15.1257C34.67 15.7063 34.3377 16.0382 33.7561 16.0382ZM36.8301 11.3927C36.8301 9.40172 35.8331 8.40625 33.9223 8.40625H30.0175C28.0236 8.40625 27.1097 9.40172 27.1097 11.3927V15.1257C27.1097 17.1166 28.1067 18.1121 30.0175 18.1121H33.9223C35.8331 18.1121 36.8301 17.1166 36.8301 15.1257V11.3927Z" fill="#B74746"/>
<path d="M47.6288 8.40625H37.9085V10.5631H41.7301V18.195H43.8902V10.5631H47.6288V8.40625Z" fill="#B74746"/>
<path d="M58.5147 11.3927C58.5147 9.48473 57.6009 8.48926 55.7731 8.48926H48.7113V10.6461H55.3577C56.0223 10.6461 56.3546 10.895 56.3546 11.4757C56.3546 12.0564 56.0223 12.3052 55.3577 12.3052H52.533V14.4621H55.3577C56.0223 14.4621 56.3546 14.7109 56.3546 15.2916C56.3546 15.8723 56.0223 16.1212 55.3577 16.1212H48.7113V18.278H55.3577C57.4347 18.278 58.5147 17.4485 58.5147 15.7064C58.5147 14.8768 58.3486 14.0473 57.9332 13.4666C58.3486 12.637 58.5147 11.9734 58.5147 11.3927Z" fill="#B74746"/>
<path d="M66.2385 16.0382H62.666C62.0845 16.0382 61.7521 15.7063 61.7521 15.1257V11.5586C61.7521 10.8949 62.0845 10.6461 62.666 10.6461H66.2385C66.82 10.6461 67.1523 10.9779 67.1523 11.5586V15.1257C67.1523 15.7063 66.82 16.0382 66.2385 16.0382ZM69.3124 11.3927C69.3124 9.40172 68.3155 8.40625 66.4046 8.40625H62.4999C60.506 8.40625 59.5921 9.40172 59.5921 11.3927V15.1257C59.5921 17.1166 60.589 18.1121 62.4999 18.1121H66.4046C68.3155 18.1121 69.3124 17.1166 69.3124 15.1257V11.3927Z" fill="#B74746"/>
<path d="M78.0372 15.2086C78.0372 14.6279 77.7049 14.3791 77.1233 14.3791H72.637V16.0382H77.1233C77.7049 16.0382 78.0372 15.7063 78.0372 15.2086ZM78.0372 11.3927C78.0372 10.812 77.7049 10.5631 77.1233 10.5631H72.637V12.2222H77.1233C77.7049 12.2222 78.0372 11.9733 78.0372 11.3927ZM80.1973 15.2086C80.1973 17.1995 79.2003 18.1121 77.2895 18.1121H70.4769V8.40625H77.2895C79.2003 8.40625 80.1973 9.40172 80.1973 11.3097C80.1973 12.2222 79.948 12.8859 79.6157 13.2177C79.948 13.7154 80.1973 14.3791 80.1973 15.2086Z" fill="#B74746"/>
<path d="M90.996 18.195H88.8359V11.3927L83.4357 18.195H81.2757V8.40625H83.4357V15.2086L88.8359 8.40625H90.996V18.195Z" fill="#B74746"/>
<path d="M98.1433 13.3006L102.048 8.40625H99.5557L96.4817 12.2222H94.2386V8.40625H92.0785V18.195H94.2386V14.3791H96.4817L99.5557 18.195H102.048L98.1433 13.3006Z" fill="#B74746"/>
</svg>
