<svg width="24" height="24" viewBox="0 0 24 24" fill="none" xmlns="http://www.w3.org/2000/svg">
<path d="M12.0002 24C18.6435 24 24 18.6434 24 12C24 5.35661 18.6435 0 12.0002 0C5.35699 0 0.000488599 5.35661 0.000488599 12C-0.0593606 18.6434 5.38691 24 12.0002 24Z" fill="#B74746"/>
<path d="M3 12C3 16.98 7.02 21 12 21C16.98 21 21 16.98 21 12C21 7.02 16.98 3 12 3C7.02 3 3 7.02 3 12ZM6.12 12C6.12 8.88 8.52 6.36 11.58 6.12V9.24C10.26 9.42 9.24 10.56 9.24 11.94C9.24 13.44 10.44 14.7 12 14.7C13.56 14.7 14.76 13.5 14.76 11.94C14.76 10.56 13.74 9.42 12.42 9.24V6.12C15.48 6.3 17.88 8.88 17.88 12C17.88 15.24 15.24 17.88 12 17.88C8.76 17.88 6.12 15.24 6.12 12ZM10.8 4.56C10.8 3.9 11.34 3.36 12 3.36C12.66 3.36 13.2 3.9 13.2 4.56C13.2 5.22 12.66 5.76 12 5.76C11.34 5.76 10.8 5.22 10.8 4.56Z" fill="white"/>
</svg>
