<svg width="62" height="14" viewBox="0 0 62 14" fill="none" xmlns="http://www.w3.org/2000/svg">
<path fill-rule="evenodd" clip-rule="evenodd" d="M7.48973 0.0373084C6.09681 -0.109417 4.69264 0.178879 3.47022 0.862571C2.2478 1.54626 1.26713 2.59179 0.663026 3.85543C0.0589186 5.11908 -0.138978 6.53882 0.0965361 7.9195C0.332051 9.30018 0.989416 10.574 1.97827 11.566C2.96713 12.5579 4.23894 13.2192 5.61889 13.459C6.99884 13.6987 8.41918 13.5052 9.68469 12.905C10.9502 12.3048 11.9988 11.3274 12.6862 10.1071C13.3737 8.88682 13.6663 7.48354 13.5239 6.09018C13.3672 4.54136 12.6816 3.09385 11.5825 1.99138C10.4834 0.888907 9.03806 0.198817 7.48973 0.0373084ZM7.27005 10.3673C6.5209 10.4678 5.75908 10.331 5.09167 9.97617C4.42427 9.62135 3.88482 9.06631 3.54915 8.38907C3.21347 7.71183 3.09845 6.94643 3.22024 6.20045C3.34204 5.45446 3.69452 4.76539 4.22816 4.23008C4.7618 3.69477 5.44977 3.34012 6.19537 3.216C6.94097 3.09187 7.70673 3.2045 8.38502 3.53805C9.0633 3.8716 9.62002 4.40931 9.97693 5.07561C10.3338 5.7419 10.473 6.50328 10.3748 7.25274C10.2718 8.04105 9.91182 8.77342 9.35054 9.33645C8.78926 9.89949 8.05803 10.2618 7.27005 10.3673ZM17.15 0.305514C16.9149 0.306077 16.6828 0.359054 16.4707 0.460589C16.2586 0.562125 16.0719 0.709666 15.924 0.892475C15.7761 1.07528 15.6708 1.28876 15.6158 1.51738C15.5608 1.746 15.5575 1.984 15.6061 2.21406C15.7548 2.95941 16.451 3.46868 17.2094 3.46868H21.6105L14.7614 12.5326C14.7107 12.5995 14.6797 12.6792 14.6718 12.7628C14.6639 12.8463 14.6794 12.9304 14.7167 13.0057C14.7539 13.0809 14.8113 13.1443 14.8825 13.1887C14.9537 13.2331 15.0359 13.2568 15.1198 13.2571H25.8634C26.6213 13.2571 27.318 12.748 27.4668 12.0025C27.5153 11.7725 27.512 11.5345 27.4571 11.3059C27.4021 11.0773 27.2969 10.8638 27.1491 10.681C27.0013 10.4982 26.8146 10.3506 26.6026 10.249C26.3906 10.1474 26.1586 10.0943 25.9235 10.0937H20.561L27.4049 1.03677C27.4561 0.96921 27.4874 0.888729 27.4954 0.804361C27.5033 0.719993 27.4876 0.635076 27.45 0.559137C27.4124 0.483198 27.3544 0.419241 27.2824 0.374442C27.2105 0.329643 27.1275 0.305774 27.0428 0.305514H17.15ZM60.0807 0.342C59.725 0.426579 59.4088 0.630013 59.1845 0.918667C58.9601 1.20732 58.8409 1.56391 58.8467 1.92947V7.19603L50.3129 0.404987C50.246 0.351865 50.1654 0.318713 50.0805 0.309347C49.9956 0.29998 49.9097 0.314779 49.8328 0.352041C49.7559 0.389302 49.6911 0.447513 49.6458 0.519977C49.6006 0.59244 49.5767 0.676212 49.5769 0.761656V11.636C49.5711 12.0015 49.6902 12.3581 49.9146 12.6468C50.139 12.9354 50.4552 13.1389 50.8109 13.2234C51.0419 13.2742 51.2813 13.2726 51.5115 13.2185C51.7418 13.1645 51.9569 13.0594 52.1412 12.9111C52.3254 12.7628 52.474 12.575 52.5759 12.3616C52.6779 12.1483 52.7307 11.9147 52.7303 11.6782V6.36607L61.2643 13.1572C61.3312 13.2103 61.4117 13.2435 61.4966 13.2528C61.5815 13.2622 61.6673 13.2474 61.7442 13.2101C61.821 13.1729 61.8858 13.1147 61.9311 13.0423C61.9763 12.9698 62.0002 12.8861 62 12.8007V1.88671C62.0003 1.65027 61.9474 1.41679 61.8454 1.20348C61.7434 0.990172 61.5949 0.802476 61.4107 0.654231C61.2265 0.505986 61.0114 0.400973 60.7812 0.346935C60.551 0.292896 60.3116 0.29121 60.0807 0.342ZM37.861 3.1659C41.4706 3.1659 44.1676 5.07343 44.1676 6.7797C44.1676 8.48598 41.4706 10.3935 37.861 10.3935C34.2514 10.3935 31.5544 8.48598 31.5544 6.7797C31.5544 5.07343 34.2514 3.1659 37.861 3.1659ZM37.861 0.00287056C32.6363 0.00287056 28.4009 3.03699 28.4009 6.7797C28.4009 10.5224 32.6363 13.5565 37.861 13.5565C43.0857 13.5565 47.3209 10.5224 47.3209 6.7797C47.3209 3.03699 43.0856 0.00287056 37.861 0.00287056Z" fill="#0069FF"/>
</svg>
