<svg width="139" height="27" viewBox="0 0 139 27" fill="none" xmlns="http://www.w3.org/2000/svg">
<path d="M65.6307 22.341H68.3652L72.1873 8.16342V22.341H75.2636V3.60303H71.0375L67.2154 17.3463L63.3933 3.60303H59.074V22.341H61.7153V8.16342L65.6307 22.341ZM88.1282 13.0651C88.1282 9.7456 86.4813 8.50467 83.0632 8.50467C80.9191 8.50467 79.2411 9.15616 78.2467 9.7456V12.3826C79.0857 11.7311 80.9812 11.0486 82.6592 11.0486C84.244 11.0486 84.8966 11.638 84.8966 13.034V13.7786H84.3994C79.4897 13.7786 77.2523 15.4228 77.2523 18.1839C77.2523 20.9449 78.8993 22.4961 81.4163 22.4961C83.3118 22.4961 84.1508 21.9066 84.7412 21.2552H84.8966C84.8966 21.5964 85.0519 22.0928 85.1451 22.341H88.3147C88.2215 21.2552 88.1593 20.1073 88.1593 19.0215C88.1283 19.0215 88.1282 13.0651 88.1282 13.0651ZM84.8966 19.1146C84.4926 19.704 83.7468 20.2004 82.566 20.2004C81.2298 20.2004 80.5773 19.3628 80.5773 18.2149C80.5773 16.6327 81.6648 16.0743 84.4926 16.0743H84.9898V19.1456H84.8966V19.1146ZM93.6905 8.75286H90.7074V26.2499H93.9391V20.7898C94.7781 22.0307 95.9278 22.6202 97.3572 22.6202C100.527 22.6202 102.671 20.1383 102.671 15.5779C102.671 11.0175 100.589 8.5357 97.5126 8.5357C96.0211 8.5357 94.7781 9.18718 93.8459 10.5212C93.8769 10.4902 93.6905 8.75286 93.6905 8.75286ZM96.4561 20.1073C94.8092 20.1073 93.8769 18.7113 93.8769 15.64C93.8769 12.4756 94.7781 11.0796 96.6115 11.0796C98.3516 11.0796 99.2527 12.4756 99.2527 15.5469C99.2527 18.7113 98.3516 20.1073 96.4561 20.1073ZM112.708 22.341H116.375L111.216 15.0505L115.784 8.75286H112.552L107.985 15.0505V8.75286H104.753V22.341H107.985V15.702L112.708 22.341ZM127.157 21.4413V18.8043C126.163 19.4558 124.516 20.0453 122.931 20.0453C120.601 20.0453 119.699 18.9595 119.513 16.6327H127.219V14.8954C127.219 10.1799 125.137 8.44263 121.906 8.44263C117.99 8.44263 116.095 11.4208 116.095 15.5779C116.095 20.2934 118.425 22.6202 122.496 22.6202C124.765 22.5892 126.256 22.0928 127.157 21.4413ZM121.937 11.0796C123.522 11.0796 124.019 12.4136 124.019 14.0578V14.306H119.513C119.606 12.1654 120.445 11.0796 121.937 11.0796ZM138.779 11.3278V8.75286H127.996V11.3278H131.818V22.341H135.05V11.3278H138.779Z" fill="black"/>
<path d="M39.8985 25.6603C46.7969 25.6603 52.3592 20.1072 52.3592 13.22C52.3592 6.33292 46.7969 0.779785 39.8985 0.779785C33.0001 0.779785 27.4378 6.33292 27.4378 13.22C27.3757 20.1072 33.0312 25.6603 39.8985 25.6603Z" fill="#FED42B"/>
<path d="M13.2693 25.6603C20.1511 25.6603 25.73 20.0906 25.73 13.22C25.73 6.34948 20.1511 0.779785 13.2693 0.779785C6.38743 0.779785 0.808594 6.34948 0.808594 13.22C0.808594 20.0906 6.38743 25.6603 13.2693 25.6603Z" fill="#FC3F1D"/>
<path d="M15.0714 7.76015H13.8284C11.6843 7.76015 10.5967 8.84596 10.5967 10.4902C10.5967 12.3205 11.3425 13.2202 12.9273 14.306L14.1703 15.2057L10.5967 20.7588H7.67578L11.0939 15.7021C9.10519 14.306 8.01759 12.972 8.01759 10.6453C8.01759 7.72913 10.0063 5.74365 13.8284 5.74365H17.6505V20.6657H15.1646V7.72913H15.0714V7.76015Z" fill="white"/>
<path d="M33.7777 7.60489L22.8086 21.9376L25.7295 25.257L33.8709 14.492L33.0319 20.3864L37.5998 21.9686L43.1621 13.096C42.9135 14.7402 42.5095 18.556 46.1452 19.7349C51.8628 21.4722 56.8657 11.2036 59.1652 5.99168L55.8403 4.25439C53.2611 9.65241 49.2837 15.6088 47.6989 15.2055C46.1141 14.8022 47.5435 9.74548 48.4447 6.48806V6.39499L43.3796 4.6577L37.3202 14.523L38.1592 9.12502L33.7777 7.60489Z" fill="black"/>
</svg>
