<svg width="219" height="39" viewBox="0 0 219 39" fill="none" xmlns="http://www.w3.org/2000/svg">
<path d="M39.7457 4.16699H22.8047V34.7928H39.7457V4.16699Z" fill="#FF5A00"/>
<path d="M23.933 19.48C23.933 13.2577 26.84 7.73524 31.3008 4.16707C28.0179 1.56974 23.8766 0 19.3594 0C8.65848 0 0 8.71239 0 19.48C0 30.2475 8.65848 38.9599 19.3594 38.9599C23.8766 38.9599 28.0179 37.3902 31.3008 34.7928C26.8338 31.2751 23.933 25.7022 23.933 19.48Z" fill="#EB001B"/>
<path d="M62.6036 19.48C62.6036 30.2475 53.9451 38.9599 43.2442 38.9599C38.727 38.9599 34.5857 37.3902 31.3027 34.7928C35.8199 31.2184 38.6706 25.7022 38.6706 19.48C38.6706 13.2577 35.7635 7.73524 31.3027 4.16707C34.5794 1.56974 38.7207 0 43.2379 0C53.9451 0 62.6036 8.76913 62.6036 19.48Z" fill="#F79E1B"/>
<path fill-rule="evenodd" clip-rule="evenodd" d="M110.813 14.1178V26.882H108.036V25.3332C107.155 26.4814 105.82 27.2024 104.004 27.2024C100.424 27.2024 97.6199 24.3986 97.6199 20.4999C97.6199 16.6012 100.426 13.7973 104.004 13.7973C105.82 13.7973 107.155 14.5183 108.036 15.6666V14.1178H110.813ZM104.351 16.4143C101.946 16.4143 100.477 18.2568 100.477 20.4999C100.477 22.743 101.948 24.5855 104.351 24.5855C106.647 24.5855 108.196 22.8231 108.196 20.4999C108.196 18.1767 106.647 16.4143 104.351 16.4143Z" fill="#0F0F0F"/>
<path fill-rule="evenodd" clip-rule="evenodd" d="M218.447 26.2001C218.396 26.1574 218.321 26.1343 218.225 26.1343V26.1361H217.878V26.8891H218.038V26.6043H218.111L218.34 26.8891H218.533L218.285 26.6043C218.351 26.5994 218.414 26.5732 218.463 26.5295C218.484 26.5095 218.5 26.4854 218.511 26.4587C218.522 26.432 218.527 26.4034 218.526 26.3746C218.527 26.3414 218.521 26.3084 218.507 26.2781C218.493 26.2478 218.473 26.2211 218.447 26.2001ZM218.036 26.4779V26.2767H218.223C218.259 26.2747 218.294 26.2834 218.324 26.3016C218.336 26.3098 218.345 26.3207 218.352 26.3335C218.358 26.3463 218.361 26.3604 218.36 26.3746C218.36 26.4102 218.349 26.4351 218.324 26.4529C218.294 26.4709 218.258 26.4796 218.223 26.4779H218.036Z" fill="#0F0F0F"/>
<path fill-rule="evenodd" clip-rule="evenodd" d="M218.757 25.9389C218.602 25.7867 218.394 25.702 218.177 25.7035V25.7052C218.069 25.7036 217.962 25.7233 217.862 25.7632C217.762 25.803 217.67 25.8623 217.593 25.9376C217.516 26.0129 217.455 26.1027 217.412 26.2018C217.37 26.301 217.348 26.4075 217.347 26.5152C217.35 26.7325 217.439 26.9395 217.595 27.0913C217.75 27.243 217.959 27.3272 218.177 27.3253C218.394 27.3225 218.603 27.2365 218.759 27.0849C218.836 27.0116 218.897 26.9232 218.939 26.8252C218.981 26.7272 219.002 26.6217 219.001 26.5152C218.999 26.2984 218.911 26.0911 218.757 25.9389ZM218.417 27.0988C218.341 27.1303 218.259 27.1462 218.177 27.1454C218.052 27.1466 217.93 27.1107 217.826 27.0422C217.722 26.9737 217.641 26.8758 217.593 26.7609C217.559 26.683 217.542 26.5991 217.542 26.5144C217.542 26.4296 217.559 26.3457 217.593 26.2678C217.657 26.1171 217.777 25.9971 217.927 25.9331C218.023 25.8915 218.128 25.8746 218.232 25.8839C218.336 25.8931 218.436 25.9283 218.524 25.9862C218.611 26.044 218.682 26.1227 218.731 26.2151C218.78 26.3076 218.805 26.4107 218.803 26.5152C218.804 26.5982 218.789 26.6806 218.757 26.7573C218.726 26.8341 218.679 26.9037 218.62 26.9621C218.562 27.0208 218.493 27.0673 218.417 27.0988Z" fill="#0F0F0F"/>
<path fill-rule="evenodd" clip-rule="evenodd" d="M214.931 8.99072V26.882H212.154V25.3332C211.273 26.4814 209.938 27.2024 208.122 27.2024C204.544 27.2024 201.74 24.3986 201.74 20.4999C201.74 16.6012 204.544 13.7973 208.122 13.7973C209.938 13.7973 211.273 14.5183 212.154 15.6666V8.99072H214.931ZM208.469 16.4143C206.066 16.4143 204.595 18.2568 204.595 20.4999H204.597C204.597 22.743 206.066 24.5855 208.469 24.5855C210.766 24.5855 212.314 22.8231 212.314 20.4999C212.314 18.1767 210.766 16.4143 208.469 16.4143Z" fill="#0F0F0F"/>
<path fill-rule="evenodd" clip-rule="evenodd" d="M138.958 20.4999C138.958 16.5211 141.575 13.7973 145.314 13.7973C148.892 13.7973 151.349 16.5211 151.376 20.4999C151.376 20.8737 151.349 21.2209 151.322 21.568H141.842C142.243 23.8645 143.872 24.6923 145.661 24.6923C146.943 24.6923 148.305 24.2116 149.373 23.3571L150.735 25.4133C149.186 26.7218 147.423 27.2024 145.501 27.2024C141.682 27.2024 138.958 24.5588 138.958 20.4999ZM148.492 19.3783C148.198 17.4023 147.05 16.2807 145.26 16.2807C143.284 16.2807 142.163 17.5358 141.869 19.3783H148.492Z" fill="#0F0F0F"/>
<path fill-rule="evenodd" clip-rule="evenodd" d="M189.163 14.1178V26.882H186.385V25.3332C185.502 26.4814 184.167 27.2024 182.351 27.2024C178.773 27.2024 175.969 24.3986 175.969 20.4999C175.969 16.6012 178.773 13.7973 182.351 13.7973C184.169 13.7973 185.504 14.5183 186.385 15.6666V14.1178H189.163ZM182.7 16.4143C180.295 16.4143 178.827 18.2568 178.827 20.4999C178.827 22.743 180.297 24.5855 182.7 24.5855C184.997 24.5855 186.546 22.8231 186.546 20.4999C186.546 18.1767 184.997 16.4143 182.7 16.4143Z" fill="#0F0F0F"/>
<path d="M169.963 27.2024C165.849 27.2024 163.153 24.3719 163.153 20.4999H163.152C163.152 16.6279 165.849 13.7973 169.961 13.7973C171.884 13.7973 173.165 14.2246 174.554 15.3194L173.219 17.5625C172.177 16.8148 171.083 16.4143 169.881 16.4143C167.665 16.441 166.036 18.0432 166.036 20.4999C166.036 22.9566 167.665 24.5588 169.881 24.5855C171.084 24.5855 172.177 24.1849 173.221 23.4372L174.556 25.6803C173.167 26.7752 171.886 27.2024 169.963 27.2024Z" fill="#0F0F0F"/>
<path d="M195.571 15.6666C196.292 14.545 197.334 13.7973 198.936 13.7973C199.61 13.8 200.278 13.9174 200.912 14.1445L200.058 16.7614C199.47 16.5211 198.883 16.441 198.322 16.441C196.506 16.441 195.598 17.6159 195.598 19.7255V26.882H192.821V14.1178H195.571V15.6666Z" fill="#0F0F0F"/>
<path d="M119.332 13.7973C121.361 13.7973 123.204 14.2513 124.539 15.1325L123.337 17.3756C122.563 16.8949 120.987 16.2807 119.358 16.2807C117.836 16.2807 116.928 16.8415 116.928 17.7761C116.928 18.6306 117.89 18.871 119.091 19.0312L120.4 19.2181C123.177 19.6187 124.859 20.7936 124.859 23.0367C124.859 25.4667 122.723 27.2024 119.038 27.2024C116.955 27.2024 115.03 26.6683 113.51 25.5468L114.817 23.3838C115.753 24.1048 117.142 24.719 119.064 24.719C120.96 24.719 121.975 24.1582 121.975 23.1702C121.975 22.4492 121.254 22.0487 119.732 21.835L118.422 21.6481C115.566 21.2476 114.018 19.9658 114.018 17.8829C114.018 15.3461 116.1 13.7973 119.332 13.7973Z" fill="#0F0F0F"/>
<path d="M156.983 15.6666C157.704 14.545 158.746 13.7973 160.348 13.7973C161.021 13.7999 161.69 13.9173 162.324 14.1445L161.469 16.7614C160.882 16.5211 160.294 16.441 159.734 16.441C157.918 16.441 157.01 17.6159 157.01 19.7255V26.882H154.233V14.1178H156.983V15.6666Z" fill="#0F0F0F"/>
<path d="M132.122 14.1178H136.662V16.6546H132.122V22.4225C132.122 23.7043 132.576 24.5588 133.965 24.5588C134.686 24.5588 135.594 24.3185 136.422 23.8378L137.223 26.2144C136.342 26.8286 134.953 27.2024 133.751 27.2024C130.467 27.2024 129.319 25.44 129.319 22.4759V16.6546H126.728V14.1178H129.319V10.2458H132.122V14.1178Z" fill="#0F0F0F"/>
<path d="M95.165 18.871V26.882H92.3593V19.7789C92.3593 17.6159 91.4514 16.4143 89.5555 16.4143C87.713 16.4143 86.4312 17.5892 86.4312 19.8056V26.882H83.6273V19.7789C83.6273 17.6159 82.6927 16.4143 80.8502 16.4143C78.9542 16.4143 77.7259 17.5892 77.7259 19.8056V26.882H74.9238V14.1178H77.701V15.6933C78.7406 14.1979 80.0758 13.7973 81.4394 13.7973C83.387 13.7973 84.7756 14.6518 85.6586 16.0671C86.8335 14.278 88.5141 13.7706 90.1447 13.7973C93.2423 13.824 95.165 15.8535 95.165 18.871Z" fill="#0F0F0F"/>
</svg>
