<svg width="102" height="29" viewBox="0 0 102 29" fill="none" xmlns="http://www.w3.org/2000/svg">
<path fill-rule="evenodd" clip-rule="evenodd" d="M9.43214 0.00492941C10.3434 -0.000730517 13.0515 -0.253973 14.1987 3.76567C14.9714 6.47335 16.2023 10.9086 17.8913 17.0716H18.5792C20.3906 10.5742 21.6349 6.13888 22.3122 3.76567C23.4713 -0.295844 26.369 0.005009 27.528 0.005009L36.4706 0.00502058V28.8868H27.3561V11.8663H26.7449L21.664 28.8868H14.8065L9.72567 11.8537H9.11448V28.8868H0V0.00502058L9.43214 0.00492941ZM49.5588 0.00502058V17.0382H50.2859L56.4663 3.03194C57.6661 0.244652 60.223 0.00502058 60.223 0.00502058H69.0431V28.8869H59.7383V11.8537H59.0112L52.952 25.86C51.7522 28.6346 49.0741 28.8869 49.0741 28.8869H40.254V0.00502058H49.5588ZM101.205 13.7299C99.9069 17.5486 95.8309 20.2834 91.3182 20.2834H81.5602V28.8869H72.7119V13.7299H101.205Z" fill="#0F754E"/>
<path fill-rule="evenodd" clip-rule="evenodd" d="M91.7471 0.00488281H72.25C72.714 6.43497 78.0474 11.9395 83.5686 11.9395H101.822C102.875 6.59538 99.249 0.00488281 91.7471 0.00488281Z" fill="url(#paint0_linear_61_1095)"/>
<defs>
<linearGradient id="paint0_linear_61_1095" x1="102.001" y1="7.51229" x2="72.25" y2="7.51229" gradientUnits="userSpaceOnUse">
<stop stop-color="#1F5CD7"/>
<stop offset="1" stop-color="#02AEFF"/>
</linearGradient>
</defs>
</svg>
