<svg width="11" height="17" viewBox="0 0 11 17" fill="none" xmlns="http://www.w3.org/2000/svg">
<path fill-rule="evenodd" clip-rule="evenodd" d="M10.1339 4.30523C10.1339 6.67531 8.05093 8.60055 5.50003 8.60055C2.9484 8.60055 0.86544 6.67531 0.86544 4.30523C0.86544 1.92524 2.9484 0 5.50003 0C8.05093 0 10.1339 1.92524 10.1339 4.30523ZM7.77589 4.30523C7.77589 3.13082 6.75348 2.18095 5.50003 2.18095C4.24585 2.18095 3.22344 3.13011 3.22418 4.30523C3.22418 5.46973 4.24659 6.4196 5.50003 6.4196C6.75348 6.4196 7.77589 5.46973 7.77589 4.30523Z" fill="white"/>
<path d="M1.38765 11.0825C0.222948 10.3855 -0.287525 9.97755 0.162072 9.12401C0.426843 8.63951 1.15148 8.2308 2.11155 8.93488C2.11155 8.93488 3.40827 9.89467 5.5015 9.89467C7.594 9.89467 8.89145 8.93488 8.89145 8.93488C9.85225 8.23434 10.574 8.63951 10.8417 9.12401C11.2847 9.97755 10.7742 10.3848 9.60948 11.0854L9.61022 11.0861C8.63187 11.6641 7.28464 11.8928 6.39497 11.9793C6.50155 12.0776 7.45421 12.96 8.33504 13.7758C9.11326 14.4967 9.8354 15.1655 9.86839 15.1958C10.8651 16.145 9.2435 17.6289 8.23576 16.7124C7.56474 16.0789 6.58567 15.1693 5.5604 14.2167L5.50957 14.1694L2.78338 16.7088C1.77637 17.6219 0.154005 16.1252 1.16175 15.1923C4.16589 12.4016 4.61179 11.9873 4.62421 11.9757C4.61773 11.9818 4.49867 12.0924 4.62431 11.9757L4.62421 11.9757C3.74555 11.8893 2.37775 11.6733 1.38765 11.0825Z" fill="white"/>
</svg>
