<svg width="33" height="33" viewBox="0 0 33 33" fill="none" xmlns="http://www.w3.org/2000/svg">
<path d="M24.2203 9.54616L22.3775 11.3889C25.6031 10.3961 29.1706 10.8418 32.0878 12.7295C32.4215 12.9454 32.4228 13.4356 32.0878 13.6523C28.423 16.0237 23.6804 16.1439 19.8792 13.8872L15.2538 18.5126C19.5022 16.9966 24.2995 17.4957 28.1862 20.0106C28.5199 20.2266 28.5212 20.7167 28.1862 20.9335C23.4713 23.9843 17.4022 24.0759 12.5968 21.1696L7.47623 26.2902C12.7005 24.2475 18.6882 24.786 23.5099 27.9058C23.8436 28.1218 23.8449 28.612 23.5099 28.8287C17.7665 32.5451 10.4336 32.5728 4.70088 29.0655C0.645478 33.1209 0.869034 32.9884 0.550257 32.9884C0.0650158 32.9884 -0.185677 32.3974 0.161611 32.0502L3.92352 28.2882C0.3919 22.5155 0.470426 15.1819 4.1604 9.47917C4.37723 9.14411 4.86742 9.14556 5.08335 9.47917C8.20324 14.3008 8.74165 20.2886 6.69894 25.5129L11.8196 20.3923C8.92 15.598 8.99839 9.52775 12.0556 4.80284C12.272 4.46854 12.7621 4.46847 12.9786 4.80284C15.4935 8.68972 15.9925 13.487 14.4765 17.7354L19.102 13.1099C16.8659 9.34321 16.9439 4.59955 19.3369 0.901327C19.5533 0.567024 20.0433 0.566955 20.2598 0.901327C22.1475 3.81855 22.5931 7.38603 21.6002 10.6117L23.4788 8.73321C24.4912 4.37215 27.9464 0.96419 32.3351 0.0237291C32.7238 -0.0595376 33.0712 0.28617 32.9877 0.676329C32.043 5.08438 28.6091 8.55101 24.2203 9.54616Z" fill="#805DB9"/>
</svg>
