<svg width="48" height="48" viewBox="0 0 48 48" fill="none" xmlns="http://www.w3.org/2000/svg">
<path d="M16.123 13.0085C16.6251 13.0085 16.9803 13.331 17.2167 13.9754C17.4319 14.5626 17.5392 15.4183 17.5392 16.5353C17.5392 17.6018 17.4135 18.4937 17.1628 19.1667C16.9189 19.8254 16.5821 20.133 16.123 20.133H15.9612L15.8889 20.0975H15.8527L15.8166 20.0798L15.781 20.062L15.6725 20.0088L15.6364 19.9726L15.6008 19.9549L15.5647 19.9194L15.5285 19.9016L15.5107 19.8656L15.4746 19.83L15.4384 19.794L15.4206 19.7578L15.3845 19.7218L15.3483 19.6679L15.3305 19.6318L15.2944 19.5958L15.2766 19.5419L15.241 19.4881L15.2232 19.452L15.2054 19.3804L15.1693 19.3265L15.1337 19.2189L15.0976 19.165C14.8468 18.4702 14.7211 17.5898 14.7211 16.5513C14.7211 15.4848 14.8468 14.6147 15.0976 13.956C15.3374 13.3201 15.6708 13.0085 16.123 13.0085Z" fill="#949494"/>
<path d="M5.95547 27.6687H6.11672C6.53274 27.6687 6.85581 27.9087 7.08476 28.3669C7.31429 28.8252 7.42562 29.5337 7.42562 30.5149C7.42562 31.0448 7.36077 31.4635 7.21043 31.7499C7.06698 32.0363 6.88048 32.1795 6.67276 32.1795C6.47192 32.1795 6.30665 32.0438 6.17066 31.7854C6.03466 31.5351 5.95547 31.1737 5.95547 30.6937V27.6687Z" fill="#949494"/>
<path d="M12.9845 27.615C13.4436 27.615 13.781 27.9409 13.9887 28.5996C14.1895 29.1936 14.2756 30.0602 14.2756 31.1772C14.2756 32.2581 14.1752 33.1568 13.9531 33.8442L13.917 33.9158L13.8458 34.1311L13.8102 34.185L13.7924 34.2388L13.7563 34.2749L13.7385 34.3288L13.7023 34.3649L13.6846 34.4187L13.6668 34.4548L13.6312 34.4903L13.595 34.5258L13.5773 34.5613L13.5417 34.5791L13.5239 34.6146L13.4877 34.6501L13.4522 34.6679L13.416 34.7034L13.3437 34.7389L13.3259 34.7566L13.2898 34.7744H13.2536L13.2175 34.7921L13.1819 34.8099H13.1457L13.1096 34.8277H12.9833C12.5891 34.8277 12.2913 34.4914 12.0687 33.8253C11.8391 33.1305 11.7278 32.2392 11.7278 31.1938C11.7278 30.1273 11.8391 29.2463 12.0687 28.5807C12.2781 27.9443 12.5828 27.615 12.9845 27.615Z" fill="#949494"/>
<path d="M38.6811 13.2411H39.3445C39.8248 13.2411 40.1478 13.3951 40.3487 13.6884C40.5139 13.9319 40.6247 14.397 40.6895 15.0488H38.6272V14.763L38.645 14.7092V13.9932L38.6628 13.9216V13.402L38.6806 13.3659V13.2594L38.6811 13.2411Z" fill="#949494"/>
<path fill-rule="evenodd" clip-rule="evenodd" d="M48 47.9074H0V0H48V47.9074ZM16.1046 11.3079C15.1217 11.3079 14.3327 11.8017 13.7737 12.776C13.2212 13.7286 12.9486 14.9887 12.9486 16.5347C12.9486 18.1311 13.2068 19.4382 13.7376 20.3834C14.2753 21.3503 15.0717 21.8331 16.1046 21.8331C17.1587 21.8331 17.9908 21.3285 18.579 20.3118C19.1316 19.3666 19.4219 18.0887 19.4219 16.5347C19.4219 14.9882 19.1207 13.7205 18.5612 12.776L18.3994 12.5079L18.3276 12.4363L18.2737 12.3469L18.202 12.2753L18.148 12.2037L17.8789 11.9351L17.6637 11.7736L17.5742 11.7197L17.5025 11.6836L17.4307 11.6298L17.359 11.5937L17.2695 11.5576L17.1978 11.5221L17.0187 11.45L16.947 11.4322L16.8575 11.3961L16.4994 11.3251H16.302L16.2125 11.3073L16.1046 11.3079ZM4.4111 21.6304V11.5708H10.415V21.6304H8.56446V13.2388H6.26915V21.6304H4.4111ZM43.073 25.9044L43.209 25.7687L43.6038 36.2578H41.954C41.954 36.2578 41.7319 30.0212 41.7176 29.6563C41.4806 29.9066 39.4079 32.0982 39.3649 32.148V36.2578H37.7513V26.2481H39.3649V29.7709C39.6231 29.4988 43.073 25.9044 43.073 25.9044ZM4.39524 26.2556V36.243H6.04499V33.3429C6.36748 33.6224 6.72268 33.7902 7.10313 33.7902C7.64826 33.7902 8.09642 33.5038 8.44817 32.931C8.84297 32.2935 9.03979 31.3524 9.03979 30.1209C9.03979 29.2617 8.88199 28.4884 8.57384 27.8297L8.5199 27.7219L8.46596 27.6326L8.42981 27.5433L8.37587 27.4717L8.32193 27.3823L8.2502 27.2929L8.14233 27.1497L8.0706 27.0781L8.01666 27.0065L7.94493 26.9349L7.8732 26.8811L7.80147 26.8095L7.58629 26.6479L7.49677 26.6125L7.42504 26.5586L7.35331 26.5231L7.2638 26.4876L7.08476 26.4154L6.99525 26.3799L6.72669 26.3266L6.61939 26.2911H6.52987L6.42257 26.2733H6.33305L6.22517 26.2556H4.39524ZM35.34 25.905L35.3325 25.9193L35.3182 25.9262L35.3038 25.948L35.282 25.9692L35.1885 26.0625L35.1529 26.0986L35.1099 26.1416L35.0669 26.192L35.0164 26.2418L34.9664 26.2917L34.9159 26.3489L34.7943 26.4704L34.6652 26.6067L34.5292 26.7499L34.3857 26.9006L34.2354 27.0581L34.0776 27.2225L33.9123 27.3869L33.7476 27.5587L33.5824 27.738L33.2455 28.0885L33.0808 28.2604L32.9161 28.4253L32.7583 28.5897L32.608 28.7547L32.4577 28.9054L32.3211 29.0486L32.192 29.1843L32.1277 29.2485L32.0703 29.3132L32.0129 29.3705L31.9624 29.4277L31.9125 29.4782L31.8695 29.5286L31.7834 29.6145L31.7478 29.6506L31.6905 29.7079L31.6687 29.7365L31.6468 29.7508L31.6325 29.7726V26.2499H30.0109V36.2596H31.6319V32.1497C31.6662 32.11 32.9891 30.7109 33.6452 30.017L33.9846 29.658C33.999 30.0229 34.2216 36.2596 34.2216 36.2596H35.8639L35.4691 25.7687L35.34 25.905ZM25.9581 33.7736L25.8577 33.6522L25.7716 33.5308L25.6855 33.3944L25.6138 33.2587L25.5421 33.1155L25.4772 32.9723L25.4124 32.8222L25.3625 32.6716L25.3194 32.5072L25.2764 32.3497L25.2402 32.1778L25.2115 32.006L25.1897 31.8267L25.1754 31.6474L25.1605 31.2751C25.1605 30.2228 25.4187 29.3848 25.9208 28.7691C26.4734 28.096 27.2767 27.7598 28.324 27.7598H28.4026V26.0128H28.324C26.6886 26.0128 25.433 26.5139 24.5798 27.5232C23.8051 28.4328 23.4109 29.6999 23.4109 31.2894C23.4109 32.8216 23.8412 34.0887 24.6802 35.0412C25.5696 36.0436 26.7964 36.5592 28.3458 36.5592H28.4244V34.8053H28.3458C27.3284 34.8047 26.525 34.461 25.9581 33.7736ZM12.9845 26.0042C12.1169 26.0042 11.4243 26.4946 10.9222 27.454C10.4344 28.3991 10.1871 29.6559 10.1871 31.195C10.1871 32.7845 10.4201 34.0699 10.8866 35.0075C11.36 35.967 12.0664 36.4573 12.9845 36.4573C13.9244 36.4573 14.6664 35.9383 15.1903 34.9359C15.678 33.9977 15.9254 32.7306 15.9254 31.1766C15.9254 29.6444 15.674 28.3911 15.1719 27.4534L15.064 27.2747L15.0279 27.1854L14.9562 27.1138L14.92 27.0422L14.8483 26.9706L14.6865 26.7558L14.5608 26.6303L14.4891 26.5764L14.4351 26.5226L14.3634 26.4688L14.3095 26.4149L14.2377 26.3611L14.166 26.325L13.9508 26.2184L13.8074 26.1463L13.7356 26.1285L13.6461 26.0924L13.5744 26.0747L13.4849 26.0569L13.4131 26.0392H13.3414L13.1624 26.0036H13.0729L12.9845 26.0042ZM19.7397 33.7736L19.6966 33.7164L19.6461 33.6522L19.5526 33.5308L19.474 33.3944L19.3948 33.2587L19.3231 33.1155L19.2588 32.9723L19.2014 32.8222L19.144 32.6716L19.101 32.5072L19.058 32.3497L19.0006 32.006L18.9794 31.8267L18.965 31.6474L18.9507 31.4612V31.2751C18.9507 30.2228 19.2014 29.3848 19.711 28.7691C20.2561 28.096 21.0595 27.7598 22.1067 27.7598H22.1928V26.0128H22.1067C20.4782 26.0128 19.2158 26.5139 18.37 27.5232C17.5878 28.4328 17.2011 29.6999 17.2011 31.2894C17.2011 32.8216 17.624 34.0887 18.4704 35.0412C19.3523 36.0436 20.5861 36.5592 22.136 36.5592H22.2146V34.8053H22.136C21.1094 34.8047 20.306 34.461 19.7397 33.7736ZM29.5231 11.5708V13.2388H31.065V21.6304H32.923V13.2388H34.4867V11.5708H29.5231ZM25.4554 15.0718H24.4449C24.0289 15.0718 23.7133 14.979 23.5193 14.7928C23.3759 14.6639 23.311 14.4847 23.311 14.2555V11.5702H21.4536V14.4417C21.4536 15.1004 21.7187 15.6658 22.2351 16.1097C22.7441 16.5467 23.3759 16.7684 24.1 16.7684H25.4554V21.6298H27.3135V11.5702H25.4554V15.0718ZM36.9057 11.5765L36.5649 21.6366H38.412C38.412 21.6366 38.5842 16.9362 38.591 16.714H40.9041C40.9259 16.9219 41.4418 21.6366 41.4418 21.6366H43.3067L42.446 14.2796V14.0115L42.4282 13.9221V13.8328L42.4104 13.7612V13.6718L42.3926 13.6002L42.3749 13.5108L42.3037 13.2244L42.2675 13.1528L42.232 13.0096L42.1958 12.938L42.1597 12.8842L42.1235 12.8126L42.1057 12.7588L42.0696 12.6872L42.0334 12.6333L41.9795 12.5795L41.9433 12.5079L41.9072 12.4718L41.8532 12.4002L41.7092 12.2564L41.6553 12.2203L41.6191 12.1665L41.5474 12.1127C41.0814 11.7472 40.4497 11.5754 39.6469 11.5754H36.9057V11.5765Z" fill="#949494"/>
</svg>
