<svg width="88" height="15" viewBox="0 0 88 15" fill="none" xmlns="http://www.w3.org/2000/svg">
<path d="M16 5.7292L10.1863 5.35696L7.99681 0L5.80734 5.35696L0 5.7292L4.45419 9.41256L2.99256 15L7.99681 11.9194L13.0011 15L11.5395 9.41256L16 5.7292Z" fill="#805DB9"/>
<path d="M34 5.7292L28.1863 5.35696L25.9968 0L23.8073 5.35696L18 5.7292L22.4542 9.41256L20.9926 15L25.9968 11.9194L31.0011 15L29.5395 9.41256L34 5.7292Z" fill="#805DB9"/>
<path d="M52 5.7292L46.1863 5.35696L43.9968 0L41.8073 5.35696L36 5.7292L40.4542 9.41256L38.9926 15L43.9968 11.9194L49.0011 15L47.5395 9.41256L52 5.7292Z" fill="#805DB9"/>
<path d="M70 5.7292L64.1863 5.35696L61.9968 0L59.8073 5.35696L54 5.7292L58.4542 9.41256L56.9926 15L61.9968 11.9194L67.0011 15L65.5395 9.41256L70 5.7292Z" fill="#805DB9"/>
<path d="M88 5.7292L82.1863 5.35696L79.9968 0L77.8073 5.35696L72 5.7292L76.4542 9.41256L74.9926 15L79.9968 11.9194L85.0011 15L83.5395 9.41256L88 5.7292Z" fill="#805DB9"/>
</svg>
