<svg width="58" height="28" viewBox="0 0 58 28" fill="none" xmlns="http://www.w3.org/2000/svg">
<path d="M13.8 27.6001H43.7002C47.3802 27.6001 50.8302 26.1434 53.4369 23.5368C56.0435 20.9301 57.5002 17.4801 57.5002 13.8C57.5002 10.12 56.0435 6.59336 53.4369 4.06335C50.9068 1.45667 47.3802 0 43.7002 0H13.8C10.12 0 6.67002 1.45667 4.06335 4.06335C1.45667 6.59336 0 10.12 0 13.8C0 17.4801 1.45667 21.0067 4.06335 23.5368C6.67002 26.0668 10.12 27.6001 13.8 27.6001Z" fill="url(#paint0_linear_61_2028)"/>
<path d="M13.8 27.6001H43.7002C47.3802 27.6001 50.8302 26.1434 53.4369 23.5368C56.0435 20.9301 57.5002 17.4801 57.5002 13.8C57.5002 10.12 56.0435 6.59336 53.4369 4.06335C50.9068 1.45667 47.3802 0 43.7002 0H13.8C10.12 0 6.67002 1.45667 4.06335 4.06335C1.45667 6.59336 0 10.12 0 13.8C0 17.4801 1.45667 21.0067 4.06335 23.5368C6.67002 26.0668 10.12 27.6001 13.8 27.6001Z" fill="#949494"/>
<path d="M27.9054 15.0264V17.8631H26.2188V8.66309H29.2854C32.1988 8.66309 33.4254 9.73642 33.4254 11.8064C33.4254 13.9531 31.9688 15.0264 29.2854 15.0264H27.9054ZM27.9054 10.1964V13.4931H29.4388C30.9721 13.4931 31.7388 12.9564 31.7388 11.7298C31.7388 10.5798 31.0488 10.1964 29.4388 10.1964H27.9054Z" fill="white"/>
<path d="M34.3472 11.8067C34.8072 11.5 35.5739 11.1934 36.7239 11.1934C38.6406 11.1934 39.5606 11.8834 39.5606 13.57V17.9401H38.1039V16.7134C37.7972 17.48 36.9539 18.0167 35.9572 18.0167C34.6539 18.0167 33.8105 17.25 33.8105 15.9467C33.8105 14.4134 34.8839 14.03 36.4939 14.03H37.9506V13.7234C37.9506 12.8034 37.4906 12.4967 36.6472 12.4967C35.4206 12.4967 34.7306 12.9567 34.2706 13.6467L34.3472 11.8067ZM38.0272 15.5634V15.0267H36.7239C35.8039 15.0267 35.3439 15.18 35.3439 15.7934C35.3439 16.33 35.7272 16.6367 36.4172 16.6367C37.4906 16.6367 37.9506 16.0234 38.0272 15.5634Z" fill="white"/>
<path d="M40.3262 11.3467H42.0128L43.8529 15.87L45.3095 11.3467H46.9195L44.3129 18.63C43.6995 20.24 43.1628 20.5467 42.2428 20.5467C41.8595 20.5467 41.3995 20.3934 41.1695 20.24V18.7834C41.3995 19.0134 41.6295 19.09 41.9362 19.09C42.3962 19.09 42.7795 18.7834 43.0095 17.8634L40.3262 11.3467Z" fill="white"/>
<path d="M11.1934 11.8069V13.8002L13.8767 15.4869L20.3167 10.7335C20.0867 10.1969 19.7801 9.73685 19.4734 9.35352L13.8767 13.4935L11.1934 11.8069Z" fill="white"/>
<path d="M19.3196 13.4933V13.6466C19.3196 14.8733 18.9362 16.0233 18.1695 17.02C17.4029 17.94 16.4062 18.63 15.1795 18.9366C14.0295 19.2433 12.8029 19.09 11.6529 18.63C10.5795 18.17 9.65952 17.25 9.04618 16.2533C8.50951 15.18 8.27951 13.9533 8.50952 12.7266C8.73952 11.4999 9.35285 10.4266 10.1962 9.65993C11.1162 8.8166 12.2662 8.35659 13.4162 8.27993C14.5662 8.20326 15.7929 8.50993 16.7895 9.19993L18.1695 8.20326C16.9429 7.20659 15.4095 6.66992 13.7995 6.66992C12.1895 6.66992 10.6562 7.20659 9.42952 8.20326C8.20285 9.19993 7.28284 10.5799 6.89951 12.1133C6.51617 13.6466 6.74618 15.3333 7.43618 16.7133C8.12618 18.17 9.27618 19.32 10.7329 20.01C12.1895 20.7 13.7995 20.93 15.3329 20.5466C16.8662 20.1633 18.2462 19.32 19.2429 18.0933C20.2396 16.8666 20.7762 15.2566 20.7762 13.7233C20.7762 13.2633 20.7762 12.8799 20.6996 12.4966L19.3196 13.4933Z" fill="white"/>
<defs>
<linearGradient id="paint0_linear_61_2028" x1="57.0762" y1="-17.8212" x2="0.614098" y2="45.1771" gradientUnits="userSpaceOnUse">
<stop offset="0.0677083" stop-color="#00ADED"/>
<stop offset="0.3021" stop-color="#42E3B4"/>
<stop offset="0.5654" stop-color="#00D900"/>
<stop offset="0.8542" stop-color="#FAED00"/>
</linearGradient>
</defs>
</svg>
