<svg width="61" height="35" viewBox="0 0 61 35" fill="none" xmlns="http://www.w3.org/2000/svg">
<path d="M60.6852 14.0045V22.3928H57.6899V16.5086H54.8058V22.3928H51.8105V14.0039H60.6852V14.0045Z" fill="#949494"/>
<path fill-rule="evenodd" clip-rule="evenodd" d="M45.657 22.6928C48.3384 22.6928 50.3295 21.0487 50.3295 18.5564C50.3295 16.144 48.8605 14.5778 46.4053 14.5778C45.2722 14.5778 44.3372 14.9766 43.633 15.6648C43.8011 14.2424 45.004 13.2039 46.3284 13.2039C46.634 13.2039 48.9351 13.1991 48.9351 13.1991L50.2363 10.709C50.2363 10.709 47.3474 10.7747 46.0044 10.7747C42.9359 10.8282 40.8633 13.6174 40.8633 17.0049C40.8633 20.9515 42.8847 22.6928 45.657 22.6928ZM45.6733 16.7834C46.6689 16.7834 47.3591 17.4375 47.3591 18.5561C47.3591 19.5628 46.7458 20.3922 45.6733 20.3945C44.6474 20.3945 43.9572 19.626 43.9572 18.5732C43.9572 17.4544 44.6474 16.7834 45.6733 16.7834Z" fill="#949494"/>
<path d="M38.4259 19.5848C38.4259 19.5848 37.7186 19.9925 36.6621 20.0697C35.4475 20.1057 34.3653 19.3386 34.3653 17.9756C34.3653 16.6461 35.3203 15.8841 36.6315 15.8841C37.4355 15.8841 38.4991 16.4414 38.4991 16.4414C38.4991 16.4414 39.2774 15.0132 39.6805 14.299C38.9423 13.7394 37.959 13.4326 36.8153 13.4326C33.929 13.4326 31.6934 15.3145 31.6934 17.9587C31.6934 20.6367 33.7946 22.4748 36.8153 22.4194C37.6597 22.3879 38.8245 22.0914 39.5344 21.6354L38.4259 19.5848Z" fill="#949494"/>
<path d="M0 7.46777L4.15499 14.8946V19.4247L0.00486064 26.8369L0 7.46777Z" fill="#949494"/>
<path d="M15.9531 12.1926L19.8465 9.80626L27.8145 9.79883L15.9531 17.0652V12.1926Z" fill="#949494"/>
<path d="M15.9318 7.42449L15.9538 17.2573L11.7891 14.6983V0L15.932 7.42449H15.9318Z" fill="#949494"/>
<path d="M27.8152 9.79877L19.8469 9.80621L15.9318 7.42449L11.7891 0L27.8149 9.79877H27.8152Z" fill="#949494"/>
<path d="M15.9538 26.8786V22.108L11.7891 19.5977L11.7913 34.3105L15.9538 26.8786Z" fill="#949494"/>
<path d="M19.8371 24.5135L4.15471 14.8946L0 7.46777L27.798 24.5038L19.8369 24.5135H19.8371Z" fill="#949494"/>
<path d="M11.791 34.3101L15.9529 26.8782L19.8365 24.5136L27.7974 24.5039L11.791 34.3101Z" fill="#949494"/>
<path d="M0.00390625 26.8374L11.8218 19.5979L7.8487 17.1602L4.15404 19.4252L0.00390625 26.8374Z" fill="#949494"/>
</svg>
