<svg width="61" height="18" viewBox="0 0 61 18" fill="none" xmlns="http://www.w3.org/2000/svg">
<path d="M28.2902 14.5296C28.8299 13.6414 29.9553 13.5205 30.8897 13.5105C33.5924 13.5226 36.2955 13.6152 38.9984 13.6293C38.5702 14.6827 38.2971 15.8126 37.7037 16.7895C37.15 17.6755 36.0187 17.8046 35.0725 17.8087C32.3756 17.8107 29.6765 17.8208 26.9775 17.8006C27.3799 16.6989 27.6787 15.5367 28.2902 14.5296ZM31.1006 7.895C31.7241 7.01059 32.9132 6.99669 33.8832 6.97856C36.4905 7.02086 39.1018 7.06517 41.7091 7.11552C41.3088 8.179 41.0259 9.30894 40.4244 10.2818C39.8826 11.1338 38.7951 11.2707 37.8768 11.2808C35.1502 11.2909 32.4212 11.2828 29.6924 11.2808C30.1386 10.1468 30.4234 8.92222 31.1006 7.895ZM47.0114 0.0317389C48.6208 0.0377813 50.2282 0.0297247 51.8376 0.0377813C50.9532 2.35809 49.9075 4.61596 49.1147 6.9705C51.6882 5.63512 52.5724 2.40039 54.8612 0.694195C56.7076 -0.435747 58.9624 0.190656 61 0.0416082C58.3967 3.11722 56.084 6.66415 52.417 8.5494C52.897 9.11941 53.6143 9.50814 53.8314 10.2753C54.7198 12.6984 54.9227 15.3067 55.3571 17.8387C53.869 17.8445 51.9053 18.4891 50.7998 17.1599C49.8736 15.2727 50.3039 12.9483 49.2042 11.1132C48.8795 10.5493 48.1923 10.4888 47.6229 10.3881C46.605 12.8373 45.5972 15.2906 44.5973 17.7478C42.9403 17.7698 41.2811 17.7698 39.6219 17.7698C42.0617 11.8468 44.5754 5.95537 47.0114 0.0317389ZM33.8374 0.998533C34.3473 0.178772 35.3831 0.0236823 36.2634 0.0297247C39.0102 0.0397955 41.7569 0.0256964 44.5037 0.0397955C44.0734 1.15161 43.8005 2.34802 43.147 3.3551C42.5596 4.24334 41.4002 4.29369 40.4503 4.30779C37.7972 4.30376 35.1438 4.31585 32.4929 4.29772C32.9231 3.19396 33.21 2.01367 33.8374 0.998533ZM18.9046 0.0277106C21.7131 0.0659795 24.6292 -0.173705 27.3082 0.855528C28.4853 1.29461 29.541 2.24731 29.778 3.53637C30.224 5.77611 29.4671 8.02189 28.7222 10.1065C27.6309 13.1801 25.36 15.9718 22.2408 17.0634C18.7989 18.3726 15.0722 17.9559 11.4869 17.7726C12.1701 16.3406 12.4669 14.0362 14.3651 13.8148C16.6756 13.7846 19.1714 14.27 21.2986 13.0857C22.7945 11.9678 23.7087 10.2397 24.4019 8.53369C24.8162 7.36548 25.2245 6.02607 24.7564 4.81556C24.2286 3.97968 23.1269 3.9253 22.2706 3.68965C21.3683 5.88709 20.4441 8.07245 19.4582 10.2316C19.0638 11.1058 18.3985 11.9598 17.4205 12.1612C16.2414 12.3868 15.0423 12.1451 13.8571 12.0967C15.5165 8.06419 17.2036 4.04192 18.9046 0.0277106ZM5.98165 1.82031C9.21041 0.114319 12.9809 -0.119323 16.5543 0.10022C16.1539 1.13751 15.9109 2.26141 15.2974 3.19598C14.5366 4.1527 13.1921 3.84856 12.1364 4.05401C10.6744 4.32995 8.93952 4.33397 7.8958 5.57671C6.47562 7.21422 5.51158 9.25254 5.05346 11.3755C4.87021 12.2579 4.86622 13.5064 5.85616 13.8932C7.37593 14.417 9.01919 14.3808 10.5987 14.5699C10.1804 16.1289 9.10882 17.718 7.39186 17.8993C5.47373 18.0161 3.38828 18.0524 1.64942 17.1098C-0.0675412 16.0604 -0.165141 13.7461 0.127658 11.9555C0.850692 8.07225 2.41229 3.8828 5.98165 1.82031Z" fill="#949494"/>
</svg>
