<svg width="62" height="9" viewBox="0 0 62 9" fill="none" xmlns="http://www.w3.org/2000/svg">
<path d="M50.005 3.84601L47.6403 1.31982H46.2578V7.16882H47.7012V3.43705L49.8601 5.64799H50.127L52.2487 3.43705V7.16882H53.6921V1.31982H52.3096L50.005 3.84601H50.005Z" fill="white"/>
<path d="M60.5679 1.31982L56.9903 5.12145V1.31982H55.5469V7.16882H56.8693L60.4469 3.36717V7.16882H61.8903V1.31982H60.5679Z" fill="white"/>
<path d="M38.4866 3.46004C38.4866 4.39129 39.0167 5.12486 39.8302 5.43244L38.3047 7.16882H40.0714L41.4592 5.58921H42.9609V7.16882H44.4042V1.31982H40.7295C39.3594 1.31982 38.4866 2.22039 38.4866 3.46005L38.4866 3.46004ZM42.9617 2.60804V4.3376H40.9971C40.3417 4.3376 39.9901 3.98658 39.9901 3.47197C39.9901 2.95736 40.354 2.60632 40.9971 2.60632L42.9617 2.60804Z" fill="white"/>
<path d="M31.7753 2.48961C31.687 4.50119 31.2454 5.79964 30.3806 5.79964H30.1641V7.20375L30.3947 7.21568C32.1286 7.30854 33.0871 5.84651 33.2444 2.6532H35.5252V7.16882H36.9659V1.31982H31.8239L31.7753 2.48962L31.7753 2.48961Z" fill="white"/>
<path d="M26.3411 1.23828C24.3889 1.23828 22.9844 2.53673 22.9844 4.24415C22.9844 6.01036 24.5126 7.2628 26.3411 7.2628C28.2455 7.2628 29.7252 5.94049 29.7252 4.24415C29.7252 2.54781 28.2455 1.23828 26.3411 1.23828ZM26.3411 5.85869C25.2377 5.85869 24.4861 5.16857 24.4861 4.24415C24.4861 3.29672 25.2387 2.62534 26.3411 2.62534C27.4435 2.62534 28.2209 3.3274 28.2209 4.24415C28.2209 5.16091 27.4329 5.85869 26.3411 5.85869Z" fill="white"/>
<path d="M21.4534 1.33105H16.3592L16.3105 2.50085C16.2381 4.18611 15.7805 5.78874 14.9158 5.81174L14.5156 5.82367V8.55008H15.9713V7.16983H21.0285V8.55008H22.4967V5.81174H21.4534V1.33105ZM20.01 5.81174H16.9298C17.451 5.05176 17.7301 3.95182 17.7787 2.66529H20.01V5.81174Z" fill="white"/>
<path d="M11.1966 0H9.79688V7.2H11.1966V0Z" fill="white"/>
<path d="M7.93091 0.450195H6.53125V7.6502H7.93091V0.450195Z" fill="white"/>
<path d="M4.66528 0.899902H3.26562V8.0999H4.66528V0.899902Z" fill="white"/>
<path d="M1.39966 1.3501H0V8.5501H1.39966V1.3501Z" fill="white"/>
</svg>
