<svg width="35" height="35" viewBox="0 0 35 35" fill="none" xmlns="http://www.w3.org/2000/svg">
<path d="M10.0583 26.0218L5.23438 30.8533C7.97492 33.3599 11.507 34.8272 15.217 35.0001V28.1523C11.6789 27.8327 10.1952 25.8696 10.0583 26.0218Z" fill="#181A1C"/>
<path d="M9.00109 24.9186C7.76116 23.4756 7.0077 21.6785 6.84783 19.7827H0C0.174976 23.4945 1.64181 27.0283 4.14674 29.7729L9.00109 24.9186Z" fill="#181A1C"/>
<path d="M9.00109 13.1251L4.14674 8.27832C1.64014 11.0189 0.172913 14.551 0 18.2609H6.84783C7.0077 16.3652 7.76116 14.568 9.00109 13.1251Z" fill="#181A1C"/>
<path d="M10.0809 12.0446C11.5239 10.8046 13.321 10.0512 15.2168 9.89129V3.04346C11.505 3.21843 7.97119 4.68526 5.22656 7.1902L10.0809 12.0446Z" fill="#181A1C"/>
<path d="M22.9622 6.64998C22.5826 5.99495 22.4554 5.22375 22.6046 4.4815C20.7615 3.6247 18.7687 3.1362 16.7383 3.04346V9.89129C17.5638 9.95643 18.3758 10.1383 19.1502 10.4315L22.9622 6.64998Z" fill="#181A1C"/>
<path d="M21.8742 25.999C20.4312 27.239 18.6341 27.9924 16.7383 28.1523V35.0001C20.4453 34.8335 23.9771 33.3745 26.7209 30.8762L21.8742 25.999Z" fill="#181A1C"/>
<path d="M22.9551 24.9186L27.8094 29.7729C30.3144 27.0283 31.7812 23.4945 31.9562 19.7827H25.1083C24.9485 21.6785 24.195 23.4756 22.9551 24.9186Z" fill="#181A1C"/>
<path d="M28.3493 12.0369C28.2732 12.0369 28.3873 11.9912 24.5449 15.8412C24.8459 16.6171 25.0355 17.4317 25.108 18.2608H31.9558C31.8702 16.2319 31.3895 14.2392 30.5406 12.3945C29.7912 12.5555 29.0086 12.4278 28.3493 12.0369Z" fill="#181A1C"/>
<path d="M19.1282 19.1054L27.201 11.0325L23.9673 7.79883C15.2173 16.5184 15.4455 16.0619 15.4455 16.9521C15.4472 17.355 15.6087 17.7409 15.8945 18.0249L14.8216 19.1054C14.697 19.2509 14.6318 19.4381 14.6392 19.6296C14.6466 19.8211 14.726 20.0028 14.8615 20.1383C14.997 20.2738 15.1787 20.3532 15.3702 20.3606C15.5617 20.368 15.7489 20.3028 15.8945 20.1782L16.9749 19.1054C17.1162 19.2468 17.2841 19.3591 17.4688 19.4357C17.6535 19.5122 17.8515 19.5517 18.0515 19.5517C18.2515 19.5517 18.4495 19.5122 18.6343 19.4357C18.819 19.3591 18.9868 19.2468 19.1282 19.1054Z" fill="#181A1C"/>
<path d="M31.9569 0C30.2601 0 29.5829 1.11848 26.6308 4.04022C26.41 3.82191 26.1277 3.67636 25.8218 3.6231C25.5159 3.56984 25.2011 3.61143 24.9195 3.74228C24.6379 3.87312 24.4031 4.08697 24.2466 4.35512C24.0901 4.62326 24.0193 4.93287 24.0438 5.24239C24.0971 6.00326 24.1808 5.89674 28.2438 9.95979C28.8906 10.5913 29.1112 10.8881 29.7656 10.9261C29.987 10.9514 30.2112 10.9254 30.421 10.8502C30.6308 10.775 30.8204 10.6526 30.9753 10.4924C31.1168 10.3511 31.2291 10.1832 31.3056 9.9985C31.3822 9.81377 31.4216 9.61575 31.4216 9.41577C31.4216 9.21579 31.3822 9.01777 31.3056 8.83303C31.2291 8.6483 31.1168 8.48046 30.9753 8.33914C33.9427 5.32609 35.0003 4.725 35.0003 3.04348C35.0003 2.2363 34.6797 1.46218 34.1089 0.891415C33.5382 0.320652 32.764 0 31.9569 0Z" fill="#181A1C"/>
</svg>
