<svg width="33" height="31" viewBox="0 0 33 31" fill="none" xmlns="http://www.w3.org/2000/svg">
<path d="M11.5629 26.505C12.158 27.0275 12.7723 27.5666 13.4043 28.1256C13.4086 28.1294 13.413 28.1333 13.4174 28.1371L15.5196 29.9529C15.8013 30.1963 16.1509 30.3179 16.5005 30.3179C16.85 30.3179 17.1997 30.1962 17.4814 29.9529L19.5832 28.1371C19.5876 28.1333 19.5919 28.1295 19.5962 28.1257C23.7578 24.4453 26.878 21.6277 29.1354 18.8797C31.7719 15.6702 33 12.7682 33 9.7472C33 4.28142 28.7186 1.75243e-09 23.253 1.75243e-09C20.7965 1.75243e-09 18.3693 0.924999 16.5005 2.52844C14.6311 0.924899 12.2039 1.75243e-09 9.7473 1.75243e-09C4.28152 -0.00010002 0 4.28142 0 9.7471C0 16.354 4.59999 20.3923 11.5629 26.505ZM10.4987 12.1584H14.4994V8.15746H18.5004V12.1584H22.5012V16.1593H18.5004V20.16H14.4994V16.1593H10.4987V12.1584Z" fill="white"/>
</svg>
