<svg width="56" height="8" viewBox="0 0 56 8" fill="none" xmlns="http://www.w3.org/2000/svg">
<path fill-rule="evenodd" clip-rule="evenodd" d="M35.0656 8C37.9576 8 39.704 6.2531 39.704 3.99801C39.704 1.7469 37.9987 0 35.0768 0C32.155 0 30.4086 1.74293 30.4086 3.99801C30.4086 6.2531 32.1736 8 35.0656 8ZM35.0656 1.85807C36.4986 1.85807 37.4352 2.75931 37.4352 3.99801C37.4352 5.23672 36.5359 6.16179 35.0768 6.16179C33.6178 6.16179 32.6923 5.23672 32.6923 3.99801C32.6923 2.75931 33.6327 1.85807 35.0656 1.85807Z" fill="white"/>
<path d="M3.08603 2.21936H0V0.206462H8.39982V2.21936H5.32498V7.74989H3.08603V2.21936Z" fill="white"/>
<path d="M9.19017 7.74989V0.206462H11.4291V7.74989H9.19017Z" fill="white"/>
<path d="M18.7101 0.206462V4.3474L14.9636 0.206462H12.9634V7.74989H15.0233V3.58512L18.8594 7.74989H20.7699V0.206462H18.7101Z" fill="white"/>
<path d="M24.4972 7.74989H22.3329V0.206462H24.4972V3.04517H25.0943L27.7064 0.206462H30.423L26.9601 3.82334L30.5573 7.74989H27.6766L25.0943 4.89132H24.4972V7.74989Z" fill="white"/>
<path d="M42.9127 2.12408V3.48984H47.6892V5.07793H42.9127V7.74989H40.7484V0.206462H47.8683V2.12408H42.9127Z" fill="white"/>
<path d="M51.0519 3.48984V2.12408H56V0.206462H48.8839V7.74989H51.0519V5.07793H55.8283V3.48984H51.0519Z" fill="white"/>
</svg>
