<svg width="19" height="12" viewBox="0 0 19 12" fill="none" xmlns="http://www.w3.org/2000/svg">
<path d="M18.8793 5.6338C18.7095 5.40371 14.6652 0 9.49992 0C4.33461 0 0.290122 5.40371 0.120569 5.63358C-0.0401896 5.85186 -0.0401896 6.14792 0.120569 6.3662C0.290122 6.59629 4.33461 12 9.49992 12C14.6652 12 18.7095 6.59625 18.8793 6.36638C19.0402 6.14814 19.0402 5.85186 18.8793 5.6338ZM9.49992 10.7586C5.69512 10.7586 2.39976 7.17207 1.42426 5.99958C2.3985 4.82605 5.68695 1.24137 9.49992 1.24137C13.3045 1.24137 16.5997 4.8273 17.5756 6.00042C16.6013 7.17391 13.3129 10.7586 9.49992 10.7586Z" fill="#805DB9"/>
<path d="M9.49992 2.27586C7.42765 2.27586 5.74165 3.94656 5.74165 6.00002C5.74165 8.05348 7.42765 9.72417 9.49992 9.72417C11.5722 9.72417 13.2582 8.05348 13.2582 6.00002C13.2582 3.94656 11.5722 2.27586 9.49992 2.27586ZM9.49992 8.48276C8.11833 8.48276 6.99443 7.36903 6.99443 6.00002C6.99443 4.63101 8.11837 3.51727 9.49992 3.51727C10.8815 3.51727 12.0054 4.63101 12.0054 6.00002C12.0054 7.36903 10.8815 8.48276 9.49992 8.48276Z" fill="#805DB9"/>
</svg>
