<svg width="88" height="30" viewBox="0 0 88 30" fill="none" xmlns="http://www.w3.org/2000/svg">
<path d="M38.1324 28.8195H31.0039L35.4626 1.17676H42.5907L38.1324 28.8195Z" fill="#00579F"/>
<path d="M63.9734 1.85264C62.5673 1.29333 60.3372 0.675781 57.5797 0.675781C50.5401 0.675781 45.5828 4.43971 45.5524 9.82099C45.4939 13.7913 49.1017 15.9965 51.7999 17.3203C54.5579 18.6731 55.4954 19.556 55.4954 20.7618C55.4673 22.6137 53.2668 23.4673 51.2144 23.4673C48.3684 23.4673 46.8435 23.0272 44.526 21.9969L43.5874 21.5552L42.5898 27.7604C44.2617 28.5242 47.342 29.2019 50.5401 29.2316C58.0198 29.2316 62.8893 25.5259 62.947 19.7913C62.9755 16.6445 61.0705 14.2333 56.9634 12.2631C54.4702 10.9982 52.9433 10.1454 52.9433 8.85128C52.9725 7.67481 54.2347 6.46981 57.0492 6.46981C59.3666 6.41079 61.0693 6.96932 62.3592 7.52824L63.0039 7.82177L63.9734 1.85264V1.85264Z" fill="#00579F"/>
<path d="M73.4489 19.0267C74.0359 17.4386 76.2949 11.2925 76.2949 11.2925C76.2653 11.3515 76.8808 9.6751 77.2328 8.64598L77.731 11.0279C77.731 11.0279 79.0809 17.6446 79.374 19.0267C78.2599 19.0267 74.8569 19.0267 73.4489 19.0267ZM82.2481 1.17676H76.7342C75.0339 1.17676 73.742 1.67627 73.0084 3.47029L62.4199 28.8192H69.8996C69.8996 28.8192 71.1311 25.4074 71.3957 24.6726C72.2163 24.6726 79.4925 24.6726 80.5481 24.6726C80.7528 25.6431 81.3987 28.8192 81.3987 28.8192H87.999L82.2481 1.17676V1.17676Z" fill="#00579F"/>
<path d="M25.0528 1.17676L18.0716 20.0265L17.3087 16.2035C16.0181 11.7924 11.9703 6.99971 7.45312 4.61667L13.8476 28.7902H21.3858L32.5906 1.17676H25.0528V1.17676Z" fill="#00579F"/>
<path d="M11.5864 1.17676H0.117333L0 1.73529C8.94658 4.02921 14.8717 9.55863 17.3061 16.2047L14.8129 3.50039C14.4024 1.7349 13.141 1.235 11.5864 1.17676Z" fill="#FAA61A"/>
</svg>
