<svg width="371" height="66" viewBox="0 0 371 66" fill="none" xmlns="http://www.w3.org/2000/svg">
<g clip-path="url(#clip0_1_60)">
<path d="M13.6868 53.207H14.5604V59.8943L20.3846 53.207H21.5494L17.7637 57.859L22.1318 65.4185H20.967L16.8901 58.4405L14.5604 61.0573V65.1277H13.6868V53.207Z" fill="white"/>
<path d="M39.0219 53.207H45.7197V54.0793H39.8955V58.4405H44.8461V59.3128H39.8955V64.5462H45.7197V65.4185H38.7307V53.207H39.0219Z" fill="white"/>
<path d="M65.2308 60.4758L61.4451 53.207H62.6099L64.3572 56.9868C64.6484 57.859 65.2308 58.7313 65.522 59.6035C66.0302 58.7895 66.4222 57.9088 66.6868 56.9868L68.4341 53.207H69.5989L66.1044 60.4758V65.4185H65.2308V60.4758Z" fill="white"/>
<path d="M86.489 53.207H89.9835C92.3132 53.207 94.0604 54.0793 94.0604 56.1145C94.1078 56.6836 93.9609 57.2518 93.6436 57.7269C93.3264 58.202 92.8575 58.556 92.3132 58.7313C93.034 58.8036 93.7019 59.1416 94.1866 59.6792C94.6712 60.2168 94.9377 60.9155 94.9341 61.6388C94.9341 63.9647 93.1868 65.1277 90.2747 65.1277H86.489V53.207ZM89.4011 58.4405C91.7308 58.4405 92.8956 57.5683 92.8956 56.1145C92.8956 54.6608 91.7308 53.7885 89.6923 53.7885H87.6539V58.1498H89.4011V58.4405ZM89.6923 64.5462C92.022 64.5462 93.478 63.674 93.478 61.9295C93.478 60.185 92.022 59.3128 89.6923 59.3128H87.3626V64.5462H89.6923Z" fill="white"/>
<path d="M111.242 59.022C111.242 55.2422 113.28 52.9163 116.192 52.9163C119.104 52.9163 121.143 55.2422 121.143 59.022C121.143 62.8017 119.104 65.4185 116.192 65.4185C113.28 65.4185 111.242 63.0925 111.242 59.022ZM120.269 59.022C120.269 55.8237 118.813 53.7885 116.192 53.7885C113.571 53.7885 112.115 55.8237 112.115 59.022C112.115 62.2202 113.571 64.5462 116.192 64.5462C118.813 64.5462 120.269 62.511 120.269 59.022Z" fill="white"/>
<path d="M144.148 61.0572H139.489L138.033 65.1277H137.159L141.527 52.9163H142.692L147.06 65.1277H145.896L144.148 61.0572ZM143.857 60.4757L142.983 58.1497C142.401 56.696 142.11 55.533 141.527 54.0792C141.172 55.4791 140.685 56.842 140.071 58.1497L139.198 60.4757H143.857Z" fill="white"/>
<path d="M170.066 65.1277L166.863 59.6035H164.242V65.1277H163.368V53.207H166.863C169.192 53.207 170.94 54.0793 170.94 56.4053C170.98 56.8108 170.935 57.2204 170.807 57.6074C170.679 57.9944 170.471 58.3503 170.197 58.6518C169.922 58.9534 169.587 59.194 169.214 59.3579C168.84 59.5219 168.436 59.6056 168.028 59.6035L171.231 65.1277H170.066ZM164.242 59.022H166.571C168.61 59.022 169.775 58.1498 169.775 56.4053C169.775 54.6608 168.61 54.0793 166.571 54.0793H164.242V59.022Z" fill="white"/>
<path d="M188.121 53.207H191.033C194.819 53.207 196.566 55.533 196.566 59.3128C196.566 63.0925 194.819 65.4185 191.033 65.4185H188.121V53.207ZM191.033 64.5462C194.236 64.5462 195.692 62.511 195.692 59.3128C195.692 56.1145 194.236 54.0793 191.033 54.0793H189.286V64.5462H191.033Z" fill="white"/>
<path d="M238.209 61.0572H233.549L232.093 65.1277H231.22L235.588 52.9163H236.753L241.121 65.1277H239.956L238.209 61.0572ZM237.918 60.4757L237.044 58.1497C236.461 56.696 236.17 55.533 235.588 54.0792C235.233 55.4791 234.745 56.842 234.132 58.1497L233.258 60.4757H237.918Z" fill="white"/>
<path d="M263.835 65.1277L260.632 59.6035H258.302V65.1277H257.429V53.207H260.923C263.253 53.207 265 54.0793 265 56.4053C265.041 56.8108 264.996 57.2204 264.868 57.6074C264.74 57.9944 264.532 58.3503 264.257 58.6518C263.983 58.9534 263.648 59.194 263.274 59.3579C262.9 59.5219 262.496 59.6056 262.088 59.6035L265.291 65.1277H263.835ZM258.302 59.022H260.632C262.67 59.022 263.835 58.1498 263.835 56.4053C263.835 54.6608 262.67 54.0793 260.632 54.0793H258.302V59.022Z" fill="white"/>
<path d="M284.511 54.0793H280.725V53.207H289.461V54.0793H285.676V65.4185H284.511V54.0793Z" fill="white"/>
<path d="M306.352 53.207H307.225V65.4185H306.352V53.207Z" fill="white"/>
<path d="M324.698 63.674L325.28 63.0925C325.718 63.5998 326.252 64.0151 326.852 64.3146C327.452 64.614 328.106 64.7916 328.775 64.837C330.522 64.837 331.687 63.9648 331.687 62.511C331.712 61.9361 331.514 61.3736 331.134 60.9405C330.754 60.5074 330.222 60.2368 329.648 60.1851L327.901 59.3128C326.736 58.7313 325.571 58.1498 325.571 56.4053C325.571 54.6608 327.027 53.4978 329.066 53.4978C329.716 53.4929 330.361 53.6192 330.962 53.869C331.562 54.1187 332.106 54.487 332.56 54.9516L331.978 55.5331C331.623 55.1186 331.172 54.7962 330.665 54.5937C330.158 54.3911 329.609 54.3144 329.066 54.3701C328.449 54.2959 327.827 54.4682 327.336 54.8493C326.845 55.2304 326.525 55.7897 326.445 56.4053C326.475 56.965 326.692 57.4986 327.061 57.9204C327.431 58.3422 327.932 58.6278 328.483 58.7313L330.231 59.6036C330.959 59.7755 331.61 60.1818 332.083 60.7598C332.557 61.3378 332.827 62.0554 332.852 62.8018C332.852 64.5463 331.396 66 328.775 66C327.269 65.5152 325.881 64.7231 324.698 63.674Z" fill="white"/>
<path d="M352.363 54.0793H348.577V53.207H357.313V54.0793H353.527V65.4185H352.654V54.0793H352.363Z" fill="white"/>
<path d="M362.264 44.7753H8.44507V45.9383H362.264V44.7753Z" fill="white"/>
<path d="M14.2692 0.872192H0L16.5989 33.1453C16.5989 33.1453 19.2198 38.9603 24.1703 38.9603C29.1209 38.9603 34.9451 32.2731 34.9451 32.2731L62.6099 0.872192H48.3407L36.4011 15.1189L27.0824 25.5858L14.2692 0.872192Z" fill="white"/>
<path d="M59.1154 38.3789H44.8462L74.8407 4.94276C74.8407 4.94276 79.2088 0.290771 83.577 0.290771C84.9674 0.40866 86.3068 0.868698 87.4756 1.62976C88.6444 2.39081 89.6061 3.42917 90.2748 4.65201L107.747 38.3789H63.7748L72.2198 28.7842H88.2363L80.9561 13.6652L59.1154 38.3789Z" fill="white"/>
<path d="M167.445 38.3789H151.429L144.731 28.2027H127.258L125.22 38.6697H113.571L117.357 19.1895H152.593C152.593 19.1895 157.253 18.608 157.253 14.5375C157.253 10.467 152.593 10.7578 152.593 10.7578H118.813L127.841 1.16304H153.176C153.176 1.16304 169.484 0.290801 169.484 12.5023C169.548 15.8384 168.406 19.0861 166.267 21.6495C164.127 24.2129 161.134 25.9202 157.835 26.4582L167.445 38.3789Z" fill="white"/>
<path d="M240.247 38.3789H228.016L226.56 15.119L212.874 34.5991C212.132 35.8841 211.074 36.959 209.8 37.7221C208.526 38.4852 207.078 38.9114 205.593 38.9604C204.175 38.9398 202.798 38.4816 201.651 37.6487C200.504 36.8158 199.643 35.649 199.187 34.3084L192.489 14.8282L182.297 38.0881H170.648L186.956 3.77976C187.693 2.59889 188.725 1.62958 189.95 0.966935C191.175 0.304292 192.552 -0.0289106 193.945 2.73911e-05C195.425 0.0990034 196.838 0.656274 197.986 1.59429C199.134 2.5323 199.961 3.80439 200.352 5.23351L207.923 25.2952L223.357 3.77976C224.21 2.64619 225.307 1.71814 226.567 1.06399C227.827 0.409845 229.218 0.0462605 230.637 2.73911e-05C235.297 2.73911e-05 236.461 2.90751 237.044 8.43174C237.626 13.956 240.247 38.3789 240.247 38.3789Z" fill="white"/>
<path d="M253.934 0.872192H265.582L259.176 38.3788H246.654L253.352 0.872192H253.934Z" fill="white"/>
<path d="M311.011 28.7841L301.983 38.3788H268.203L274.901 0.872192H287.132L282.181 28.7841H311.011Z" fill="white"/>
<path d="M348.577 0.290788H347.121C317.709 0.872286 315.67 15.119 315.67 21.8062V22.6785C315.67 29.0749 317.709 38.6696 340.423 38.6696C368.379 38.6696 371 25.0044 371 19.1895V13.956C371 -0.290708 348.577 0.290788 348.577 0.290788ZM359.643 19.771C359.738 20.996 359.522 22.2252 359.012 23.3438C358.503 24.4625 357.718 25.4339 356.731 26.1674C354.401 28.2027 350.033 29.6564 341.879 29.6564C328.483 29.6564 327.319 25.8767 327.319 21.5155V20.934C327.271 19.8597 327.369 18.7838 327.61 17.7357C327.901 14.8282 328.483 10.1762 345.082 9.8855H345.956C345.956 9.8855 359.643 9.01326 359.643 16.5727V19.771Z" fill="white"/>
</g>
<defs>
<clipPath id="clip0_1_60">
<rect width="371" height="66" fill="white"/>
</clipPath>
</defs>
</svg>
