<svg width="130" height="33" viewBox="0 0 130 33" fill="none" xmlns="http://www.w3.org/2000/svg">
<path d="M12.536 25.448C11.704 25.448 10.8827 25.2987 10.072 25C9.26133 24.68 8.6 24.2427 8.088 23.688H8.024V32.68H0.696V8.168H7.64V9.864H7.704C8.32267 9.16 9.06933 8.62667 9.944 8.264C10.8187 7.90133 11.672 7.72 12.504 7.72C13.7627 7.72 14.872 7.976 15.832 8.488C16.792 9 17.592 9.672 18.232 10.504C18.872 11.336 19.352 12.2747 19.672 13.32C20.0133 14.3653 20.184 15.432 20.184 16.52C20.184 17.6293 20.0133 18.7173 19.672 19.784C19.352 20.8507 18.872 21.8107 18.232 22.664C17.592 23.496 16.792 24.168 15.832 24.68C14.8933 25.192 13.7947 25.448 12.536 25.448ZM13.336 16.52C13.336 15.7733 13.1013 15.1227 12.632 14.568C12.1627 14.0133 11.48 13.736 10.584 13.736C9.70933 13.736 9.00533 14.0133 8.472 14.568C7.96 15.1227 7.704 15.7733 7.704 16.52C7.704 17.3093 7.96 17.9813 8.472 18.536C9.00533 19.0907 9.70933 19.368 10.584 19.368C11.48 19.368 12.1627 19.1013 12.632 18.568C13.1013 18.0133 13.336 17.3307 13.336 16.52ZM27.7788 24.36L20.9627 8.168H29.1548L31.6508 17.032H31.7788L33.9868 8.168H41.8908L34.9788 26.024C34.5734 27.0693 34.1148 27.9973 33.6028 28.808C33.0908 29.64 32.4934 30.344 31.8108 30.92C31.1281 31.496 30.3174 31.9333 29.3788 32.232C28.4614 32.5307 27.3841 32.68 26.1468 32.68C25.7628 32.68 25.3681 32.6587 24.9628 32.616C24.5574 32.5947 24.1628 32.552 23.7788 32.488C23.4161 32.4453 23.0748 32.392 22.7548 32.328C22.4348 32.2853 22.1681 32.232 21.9548 32.168L22.8828 26.088C23.1601 26.1947 23.4908 26.28 23.8748 26.344C24.2801 26.4293 24.6428 26.472 24.9628 26.472C25.7734 26.472 26.3708 26.3013 26.7548 25.96C27.1601 25.64 27.4588 25.224 27.6508 24.712L27.7788 24.36ZM43.737 2.344H51.417V18.472H58.937V25H43.737V2.344ZM69.8755 18.024C68.7875 18.024 67.9128 18.1413 67.2515 18.376C66.5902 18.6107 66.2595 19.048 66.2595 19.688C66.2595 19.9227 66.3128 20.1253 66.4195 20.296C66.5262 20.4453 66.6648 20.5733 66.8355 20.68C67.0062 20.7867 67.1875 20.872 67.3795 20.936C67.5928 20.9787 67.7848 21 67.9555 21C68.6595 21 69.2248 20.776 69.6515 20.328C70.0782 19.88 70.2915 19.304 70.2915 18.6V18.024H69.8755ZM69.8115 14.312C69.8115 13.8 69.6302 13.4267 69.2675 13.192C68.9262 12.936 68.4675 12.808 67.8915 12.808C67.2088 12.808 66.5582 12.9573 65.9395 13.256C65.3422 13.5333 64.8088 13.864 64.3395 14.248L60.6595 10.6C61.6835 9.61867 62.8995 8.86133 64.3075 8.328C65.7155 7.79467 67.1662 7.528 68.6595 7.528C70.2595 7.528 71.5822 7.752 72.6275 8.2C73.6728 8.648 74.4942 9.26667 75.0915 10.056C75.7102 10.8453 76.1368 11.7627 76.3715 12.808C76.6275 13.8533 76.7555 14.9627 76.7555 16.136V25H70.0675V23.656H70.0035C69.5768 24.296 68.9688 24.7547 68.1795 25.032C67.3902 25.3093 66.6222 25.448 65.8755 25.448C65.2142 25.448 64.5315 25.352 63.8275 25.16C63.1448 24.968 62.5155 24.6587 61.9395 24.232C61.3848 23.8053 60.9262 23.2507 60.5635 22.568C60.2008 21.8853 60.0195 21.0427 60.0195 20.04C60.0195 18.8667 60.3182 17.9173 60.9155 17.192C61.5342 16.4453 62.3128 15.8693 63.2515 15.464C64.1902 15.0373 65.2355 14.7493 66.3875 14.6C67.5608 14.4507 68.7022 14.376 69.8115 14.376V14.312ZM99.2778 16.52C99.2778 17.6293 99.1071 18.7173 98.7658 19.784C98.4458 20.8507 97.9658 21.8107 97.3258 22.664C96.6858 23.496 95.8858 24.168 94.9258 24.68C93.9658 25.192 92.8564 25.448 91.5978 25.448C90.5524 25.448 89.5604 25.256 88.6218 24.872C87.6831 24.4667 86.9684 23.9227 86.4778 23.24H86.4138V25H79.7898V0.807999H87.1498V9.512H87.2138C87.7044 8.936 88.3551 8.49867 89.1658 8.2C89.9764 7.88 90.7871 7.72 91.5978 7.72C92.8564 7.72 93.9658 7.976 94.9258 8.488C95.8858 9 96.6858 9.672 97.3258 10.504C97.9658 11.336 98.4458 12.2747 98.7658 13.32C99.1071 14.3653 99.2778 15.432 99.2778 16.52ZM92.4298 16.52C92.4298 15.7733 92.1951 15.1227 91.7258 14.568C91.2564 14.0133 90.5738 13.736 89.6778 13.736C88.8031 13.736 88.0991 14.0133 87.5658 14.568C87.0538 15.1227 86.7978 15.7733 86.7978 16.52C86.7978 17.3093 87.0538 17.9813 87.5658 18.536C88.0991 19.0907 88.8031 19.368 89.6778 19.368C90.5738 19.368 91.2564 19.1013 91.7258 18.568C92.1951 18.0133 92.4298 17.3307 92.4298 16.52ZM113.209 14.344C113.209 13.7467 112.985 13.256 112.537 12.872C112.11 12.488 111.523 12.296 110.777 12.296C109.966 12.296 109.337 12.52 108.889 12.968C108.441 13.416 108.185 13.8747 108.121 14.344H113.209ZM119.577 16.744C119.577 17.0213 119.566 17.3093 119.545 17.608C119.545 17.8853 119.534 18.12 119.513 18.312H108.185C108.206 18.6107 108.302 18.8773 108.473 19.112C108.665 19.3467 108.889 19.5493 109.145 19.72C109.422 19.8907 109.721 20.0187 110.041 20.104C110.382 20.1893 110.723 20.232 111.065 20.232C111.747 20.232 112.313 20.1147 112.761 19.88C113.23 19.624 113.582 19.3467 113.817 19.048L119.065 21.704C118.318 22.92 117.23 23.88 115.801 24.584C114.393 25.288 112.75 25.64 110.873 25.64C109.657 25.64 108.473 25.448 107.321 25.064C106.169 24.68 105.145 24.1147 104.249 23.368C103.374 22.6 102.67 21.6507 102.137 20.52C101.603 19.3893 101.337 18.0773 101.337 16.584C101.337 15.1973 101.582 13.9493 102.073 12.84C102.563 11.7093 103.225 10.76 104.057 9.992C104.91 9.20267 105.902 8.59467 107.033 8.168C108.185 7.74133 109.411 7.528 110.713 7.528C112.035 7.528 113.241 7.76267 114.329 8.232C115.417 8.68 116.345 9.32 117.113 10.152C117.902 10.9627 118.51 11.9333 118.937 13.064C119.363 14.1947 119.577 15.4213 119.577 16.744ZM122.165 0.807999H129.717V25H122.165V0.807999Z" fill="url(#paint0_linear_57_542)"/>
<defs>
<linearGradient id="paint0_linear_57_542" x1="-1" y1="15.6667" x2="144.331" y2="15.6667" gradientUnits="userSpaceOnUse">
<stop stop-color="#ECBFBF"/>
<stop offset="1" stop-color="#FF005C"/>
</linearGradient>
</defs>
</svg>
