<svg width="86" height="25" viewBox="0 0 86 25" fill="none" xmlns="http://www.w3.org/2000/svg">
<path d="M3.488 7.48V9.088H3.56C3.704 8.864 3.888 8.64 4.112 8.416C4.352 8.176 4.64 7.968 4.976 7.792C5.312 7.6 5.688 7.448 6.104 7.336C6.536 7.208 7.016 7.144 7.544 7.144C8.36 7.144 9.112 7.304 9.8 7.624C10.488 7.928 11.08 8.352 11.576 8.896C12.072 9.44 12.456 10.08 12.728 10.816C13 11.552 13.136 12.344 13.136 13.192C13.136 14.04 13 14.84 12.728 15.592C12.472 16.328 12.096 16.976 11.6 17.536C11.12 18.08 10.528 18.52 9.824 18.856C9.136 19.176 8.352 19.336 7.472 19.336C6.656 19.336 5.904 19.168 5.216 18.832C4.544 18.496 4.024 18.04 3.656 17.464H3.608V24.76H0.728V7.48H3.488ZM10.208 13.192C10.208 12.744 10.136 12.304 9.992 11.872C9.864 11.424 9.664 11.024 9.392 10.672C9.12 10.32 8.776 10.04 8.36 9.832C7.944 9.608 7.456 9.496 6.896 9.496C6.368 9.496 5.896 9.608 5.48 9.832C5.064 10.056 4.704 10.344 4.4 10.696C4.112 11.048 3.888 11.448 3.728 11.896C3.584 12.344 3.512 12.792 3.512 13.24C3.512 13.688 3.584 14.136 3.728 14.584C3.888 15.016 4.112 15.408 4.4 15.76C4.704 16.112 5.064 16.4 5.48 16.624C5.896 16.832 6.368 16.936 6.896 16.936C7.456 16.936 7.944 16.824 8.36 16.6C8.776 16.376 9.12 16.088 9.392 15.736C9.664 15.384 9.864 14.984 9.992 14.536C10.136 14.088 10.208 13.64 10.208 13.192ZM14.1875 7.48H17.3795L20.5955 15.856H20.6435L23.4995 7.48H26.4995L21.0515 21.472C20.8435 22 20.6195 22.464 20.3795 22.864C20.1395 23.28 19.8515 23.624 19.5155 23.896C19.1795 24.184 18.7795 24.4 18.3155 24.544C17.8675 24.688 17.3235 24.76 16.6835 24.76C16.4435 24.76 16.1955 24.744 15.9395 24.712C15.6995 24.696 15.4515 24.656 15.1955 24.592L15.4355 22.096C15.6275 22.16 15.8115 22.2 15.9875 22.216C16.1795 22.248 16.3555 22.264 16.5155 22.264C16.8195 22.264 17.0755 22.224 17.2835 22.144C17.4915 22.08 17.6675 21.968 17.8115 21.808C17.9555 21.664 18.0835 21.48 18.1955 21.256C18.3075 21.032 18.4275 20.768 18.5555 20.464L19.1315 19L14.1875 7.48ZM28.3642 2.008H31.3882V16.312H38.6122V19H28.3642V2.008ZM47.63 17.536H47.558C47.27 18.048 46.806 18.472 46.166 18.808C45.526 19.128 44.798 19.288 43.982 19.288C43.518 19.288 43.03 19.224 42.518 19.096C42.022 18.984 41.558 18.792 41.126 18.52C40.71 18.232 40.358 17.864 40.07 17.416C39.798 16.952 39.662 16.384 39.662 15.712C39.662 14.848 39.902 14.16 40.382 13.648C40.878 13.136 41.51 12.744 42.278 12.472C43.046 12.2 43.894 12.024 44.822 11.944C45.766 11.848 46.686 11.8 47.582 11.8V11.512C47.582 10.792 47.318 10.264 46.79 9.928C46.278 9.576 45.662 9.4 44.942 9.4C44.334 9.4 43.75 9.528 43.19 9.784C42.63 10.04 42.166 10.352 41.798 10.72L40.31 8.968C40.966 8.36 41.718 7.904 42.566 7.6C43.43 7.296 44.302 7.144 45.182 7.144C46.206 7.144 47.046 7.288 47.702 7.576C48.374 7.864 48.902 8.24 49.286 8.704C49.67 9.168 49.934 9.688 50.078 10.264C50.238 10.84 50.318 11.416 50.318 11.992V19H47.63V17.536ZM47.582 13.744H46.934C46.47 13.744 45.982 13.768 45.47 13.816C44.958 13.848 44.486 13.936 44.054 14.08C43.622 14.208 43.262 14.4 42.974 14.656C42.686 14.896 42.542 15.232 42.542 15.664C42.542 15.936 42.598 16.168 42.71 16.36C42.838 16.536 42.998 16.68 43.19 16.792C43.382 16.904 43.598 16.984 43.838 17.032C44.078 17.08 44.318 17.104 44.558 17.104C45.55 17.104 46.302 16.84 46.814 16.312C47.326 15.784 47.582 15.064 47.582 14.152V13.744ZM56.6013 0.855999V8.944H56.6733C56.8173 8.752 57.0013 8.552 57.2253 8.344C57.4493 8.136 57.7133 7.944 58.0173 7.768C58.3373 7.592 58.7053 7.448 59.1213 7.336C59.5373 7.208 60.0093 7.144 60.5373 7.144C61.3533 7.144 62.1053 7.304 62.7933 7.624C63.4813 7.928 64.0733 8.352 64.5693 8.896C65.0653 9.44 65.4493 10.08 65.7213 10.816C65.9933 11.552 66.1293 12.344 66.1293 13.192C66.1293 14.04 65.9933 14.84 65.7213 15.592C65.4653 16.328 65.0893 16.976 64.5933 17.536C64.1133 18.08 63.5213 18.52 62.8173 18.856C62.1293 19.176 61.3453 19.336 60.4653 19.336C59.6493 19.336 58.8813 19.16 58.1613 18.808C57.4573 18.456 56.9053 17.944 56.5053 17.272H56.4573V19H53.7213V0.855999H56.6013ZM63.2013 13.192C63.2013 12.744 63.1293 12.304 62.9853 11.872C62.8573 11.424 62.6573 11.024 62.3853 10.672C62.1133 10.32 61.7693 10.04 61.3533 9.832C60.9373 9.608 60.4493 9.496 59.8893 9.496C59.3613 9.496 58.8893 9.608 58.4733 9.832C58.0573 10.056 57.6973 10.344 57.3933 10.696C57.1053 11.048 56.8813 11.448 56.7213 11.896C56.5773 12.344 56.5053 12.792 56.5053 13.24C56.5053 13.688 56.5773 14.136 56.7213 14.584C56.8813 15.016 57.1053 15.408 57.3933 15.76C57.6973 16.112 58.0573 16.4 58.4733 16.624C58.8893 16.832 59.3613 16.936 59.8893 16.936C60.4493 16.936 60.9373 16.824 61.3533 16.6C61.7693 16.376 62.1133 16.088 62.3853 15.736C62.6573 15.384 62.8573 14.984 62.9853 14.536C63.1293 14.088 63.2013 13.64 63.2013 13.192ZM77.0197 12.088C77.0197 11.72 76.9637 11.368 76.8517 11.032C76.7557 10.696 76.5957 10.4 76.3717 10.144C76.1477 9.888 75.8597 9.688 75.5077 9.544C75.1717 9.384 74.7717 9.304 74.3077 9.304C73.4437 9.304 72.7077 9.568 72.0997 10.096C71.5077 10.608 71.1797 11.272 71.1157 12.088H77.0197ZM79.8997 13.384C79.8997 13.512 79.8997 13.64 79.8997 13.768C79.8997 13.896 79.8917 14.024 79.8757 14.152H71.1157C71.1477 14.568 71.2517 14.952 71.4277 15.304C71.6197 15.64 71.8677 15.936 72.1717 16.192C72.4757 16.432 72.8197 16.624 73.2037 16.768C73.5877 16.912 73.9877 16.984 74.4037 16.984C75.1237 16.984 75.7317 16.856 76.2277 16.6C76.7237 16.328 77.1317 15.96 77.4517 15.496L79.3717 17.032C78.2357 18.568 76.5877 19.336 74.4277 19.336C73.5317 19.336 72.7077 19.2 71.9557 18.928C71.2037 18.64 70.5477 18.24 69.9877 17.728C69.4437 17.216 69.0117 16.592 68.6917 15.856C68.3877 15.104 68.2357 14.256 68.2357 13.312C68.2357 12.384 68.3877 11.544 68.6917 10.792C69.0117 10.024 69.4437 9.376 69.9877 8.848C70.5317 8.304 71.1717 7.888 71.9077 7.6C72.6597 7.296 73.4677 7.144 74.3317 7.144C75.1317 7.144 75.8677 7.28 76.5397 7.552C77.2277 7.808 77.8197 8.2 78.3157 8.728C78.8117 9.24 79.1957 9.888 79.4677 10.672C79.7557 11.44 79.8997 12.344 79.8997 13.384ZM82.7369 0.855999H85.6169V19H82.7369V0.855999Z" fill="url(#paint0_linear_57_478)"/>
<defs>
<linearGradient id="paint0_linear_57_478" x1="-1" y1="12" x2="96.2517" y2="12" gradientUnits="userSpaceOnUse">
<stop stop-color="#ECBFBF"/>
<stop offset="1" stop-color="#FF005C"/>
</linearGradient>
</defs>
</svg>
