<svg width="272" height="123" viewBox="0 0 272 123" fill="none" xmlns="http://www.w3.org/2000/svg">
<path d="M44 58C44 58 139 -0.5 139 58C139 116.5 234 58 234 58" stroke="url(#paint0_linear_18_38)" stroke-width="5"/>
<mask id="path-2-inside-1_18_38" fill="white">
<path fill-rule="evenodd" clip-rule="evenodd" d="M38.192 38.5545C43.7271 35.9444 47.5714 30.1966 47.5714 23.5254C47.5714 14.3987 40.376 7 31.5 7C22.624 7 15.4286 14.3987 15.4286 23.5254C15.4286 30.1966 19.2729 35.9444 24.808 38.5545C10.6256 42.1114 0 56.7399 0 74.2455C0 86.9766 5.61998 84.7537 14.1409 81.3833C19.1181 79.4147 25.0851 77.0545 31.5 77.0545C37.9149 77.0545 43.8819 79.4147 48.8591 81.3833C57.38 84.7537 63 86.9766 63 74.2455C63 56.7399 52.3744 42.1114 38.192 38.5545Z"/>
</mask>
<path fill-rule="evenodd" clip-rule="evenodd" d="M38.192 38.5545C43.7271 35.9444 47.5714 30.1966 47.5714 23.5254C47.5714 14.3987 40.376 7 31.5 7C22.624 7 15.4286 14.3987 15.4286 23.5254C15.4286 30.1966 19.2729 35.9444 24.808 38.5545C10.6256 42.1114 0 56.7399 0 74.2455C0 86.9766 5.61998 84.7537 14.1409 81.3833C19.1181 79.4147 25.0851 77.0545 31.5 77.0545C37.9149 77.0545 43.8819 79.4147 48.8591 81.3833C57.38 84.7537 63 86.9766 63 74.2455C63 56.7399 52.3744 42.1114 38.192 38.5545Z" fill="url(#paint1_linear_18_38)"/>
<path d="M38.192 38.5545L37.7655 37.65L35.2342 38.8437L37.9488 39.5245L38.192 38.5545ZM24.808 38.5545L25.0512 39.5245L27.7658 38.8437L25.2345 37.65L24.808 38.5545ZM14.1409 81.3833L13.7731 80.4534L14.1409 81.3833ZM48.8591 81.3833L48.4913 82.3132L48.8591 81.3833ZM46.5714 23.5254C46.5714 29.8068 42.9529 35.2039 37.7655 37.65L38.6185 39.459C44.5012 36.685 48.5714 30.5864 48.5714 23.5254H46.5714ZM31.5 8C39.7976 8 46.5714 14.9245 46.5714 23.5254H48.5714C48.5714 13.8728 40.9544 6 31.5 6V8ZM16.4286 23.5254C16.4286 14.9245 23.2024 8 31.5 8V6C22.0456 6 14.4286 13.8728 14.4286 23.5254H16.4286ZM25.2345 37.65C20.0471 35.2039 16.4286 29.8068 16.4286 23.5254H14.4286C14.4286 30.5864 18.4988 36.685 24.3815 39.459L25.2345 37.65ZM1 74.2455C1 57.1131 11.3915 42.9502 25.0512 39.5245L24.5647 37.5845C9.85972 41.2725 -1 56.3668 -1 74.2455H1ZM13.7731 80.4534C11.6282 81.3018 9.73167 82.0508 8.06677 82.5173C6.38584 82.9884 5.09232 83.1247 4.11647 82.882C3.22674 82.6607 2.48421 82.0949 1.9294 80.8094C1.34982 79.4665 1 77.3799 1 74.2455H-1C-1 77.4766 -0.647318 79.8863 0.0931232 81.6019C0.858333 83.3749 2.05336 84.4298 3.63374 84.8229C5.12799 85.1945 6.83713 84.9389 8.60644 84.4431C10.3918 83.9428 12.3931 83.15 14.5087 82.3132L13.7731 80.4534ZM31.5 76.0545C24.8654 76.0545 18.7254 78.4946 13.7731 80.4534L14.5087 82.3132C19.5108 80.3347 25.3049 78.0545 31.5 78.0545V76.0545ZM49.2269 80.4534C44.2746 78.4946 38.1346 76.0545 31.5 76.0545V78.0545C37.6951 78.0545 43.4892 80.3347 48.4913 82.3132L49.2269 80.4534ZM62 74.2455C62 77.3799 61.6502 79.4665 61.0706 80.8094C60.5158 82.0949 59.7733 82.6607 58.8835 82.882C57.9077 83.1247 56.6142 82.9884 54.9332 82.5173C53.2683 82.0508 51.3718 81.3018 49.2269 80.4534L48.4913 82.3132C50.6069 83.15 52.6082 83.9428 54.3936 84.4431C56.1629 84.9389 57.872 85.1945 59.3663 84.8229C60.9466 84.4298 62.1417 83.3749 62.9069 81.6019C63.6473 79.8863 64 77.4766 64 74.2455H62ZM37.9488 39.5245C51.6085 42.9502 62 57.1131 62 74.2455H64C64 56.3668 53.1403 41.2725 38.4353 37.5845L37.9488 39.5245Z" fill="#F67DDF" mask="url(#path-2-inside-1_18_38)"/>
<mask id="path-4-inside-2_18_38" fill="white">
<path fill-rule="evenodd" clip-rule="evenodd" d="M155.192 77.5545C160.727 74.9444 164.571 69.1966 164.571 62.5254C164.571 53.3987 157.376 46 148.5 46C139.624 46 132.429 53.3987 132.429 62.5254C132.429 69.1966 136.273 74.9444 141.808 77.5545C127.626 81.1114 117 95.7399 117 113.245C117 125.977 122.62 123.754 131.141 120.383C136.118 118.415 142.085 116.054 148.5 116.054C154.915 116.054 160.882 118.415 165.859 120.383C174.38 123.754 180 125.977 180 113.245C180 95.7399 169.374 81.1114 155.192 77.5545Z"/>
</mask>
<path fill-rule="evenodd" clip-rule="evenodd" d="M155.192 77.5545C160.727 74.9444 164.571 69.1966 164.571 62.5254C164.571 53.3987 157.376 46 148.5 46C139.624 46 132.429 53.3987 132.429 62.5254C132.429 69.1966 136.273 74.9444 141.808 77.5545C127.626 81.1114 117 95.7399 117 113.245C117 125.977 122.62 123.754 131.141 120.383C136.118 118.415 142.085 116.054 148.5 116.054C154.915 116.054 160.882 118.415 165.859 120.383C174.38 123.754 180 125.977 180 113.245C180 95.7399 169.374 81.1114 155.192 77.5545Z" fill="url(#paint2_linear_18_38)"/>
<path d="M155.192 77.5545L154.766 76.65L152.234 77.8437L154.949 78.5245L155.192 77.5545ZM141.808 77.5545L142.051 78.5245L144.766 77.8437L142.234 76.65L141.808 77.5545ZM131.141 120.383L130.773 119.453L131.141 120.383ZM165.859 120.383L165.491 121.313L165.859 120.383ZM163.571 62.5254C163.571 68.8068 159.953 74.2039 154.766 76.65L155.619 78.459C161.501 75.685 165.571 69.5864 165.571 62.5254H163.571ZM148.5 47C156.798 47 163.571 53.9245 163.571 62.5254H165.571C165.571 52.8728 157.954 45 148.5 45V47ZM133.429 62.5254C133.429 53.9245 140.202 47 148.5 47V45C139.046 45 131.429 52.8728 131.429 62.5254H133.429ZM142.234 76.65C137.047 74.2039 133.429 68.8068 133.429 62.5254H131.429C131.429 69.5864 135.499 75.685 141.381 78.459L142.234 76.65ZM118 113.245C118 96.1131 128.392 81.9502 142.051 78.5245L141.565 76.5845C126.86 80.2725 116 95.3668 116 113.245H118ZM130.773 119.453C128.628 120.302 126.732 121.051 125.067 121.517C123.386 121.988 122.092 122.125 121.116 121.882C120.227 121.661 119.484 121.095 118.929 119.809C118.35 118.467 118 116.38 118 113.245H116C116 116.477 116.353 118.886 117.093 120.602C117.858 122.375 119.053 123.43 120.634 123.823C122.128 124.195 123.837 123.939 125.606 123.443C127.392 122.943 129.393 122.15 131.509 121.313L130.773 119.453ZM148.5 115.054C141.865 115.054 135.725 117.495 130.773 119.453L131.509 121.313C136.511 119.335 142.305 117.054 148.5 117.054V115.054ZM166.227 119.453C161.275 117.495 155.135 115.054 148.5 115.054V117.054C154.695 117.054 160.489 119.335 165.491 121.313L166.227 119.453ZM179 113.245C179 116.38 178.65 118.467 178.071 119.809C177.516 121.095 176.773 121.661 175.884 121.882C174.908 122.125 173.614 121.988 171.933 121.517C170.268 121.051 168.372 120.302 166.227 119.453L165.491 121.313C167.607 122.15 169.608 122.943 171.394 123.443C173.163 123.939 174.872 124.195 176.366 123.823C177.947 123.43 179.142 122.375 179.907 120.602C180.647 118.886 181 116.477 181 113.245H179ZM154.949 78.5245C168.608 81.9502 179 96.1131 179 113.245H181C181 95.3668 170.14 80.2725 155.435 76.5845L154.949 78.5245Z" fill="#AD9CD7" mask="url(#path-4-inside-2_18_38)"/>
<mask id="path-6-inside-3_18_38" fill="white">
<path fill-rule="evenodd" clip-rule="evenodd" d="M247.192 31.5545C252.727 28.9444 256.571 23.1966 256.571 16.5254C256.571 7.39868 249.376 0 240.5 0C231.624 0 224.429 7.39868 224.429 16.5254C224.429 23.1966 228.273 28.9444 233.808 31.5545C219.626 35.1114 209 49.7399 209 67.2455C209 79.9766 214.62 77.7537 223.141 74.3833C228.118 72.4147 234.085 70.0545 240.5 70.0545C246.915 70.0545 252.882 72.4147 257.859 74.3833C266.38 77.7537 272 79.9766 272 67.2455C272 49.7399 261.374 35.1114 247.192 31.5545Z"/>
</mask>
<path fill-rule="evenodd" clip-rule="evenodd" d="M247.192 31.5545C252.727 28.9444 256.571 23.1966 256.571 16.5254C256.571 7.39868 249.376 0 240.5 0C231.624 0 224.429 7.39868 224.429 16.5254C224.429 23.1966 228.273 28.9444 233.808 31.5545C219.626 35.1114 209 49.7399 209 67.2455C209 79.9766 214.62 77.7537 223.141 74.3833C228.118 72.4147 234.085 70.0545 240.5 70.0545C246.915 70.0545 252.882 72.4147 257.859 74.3833C266.38 77.7537 272 79.9766 272 67.2455C272 49.7399 261.374 35.1114 247.192 31.5545Z" fill="#D9D9D9"/>
<path d="M247.192 31.5545L246.766 30.65L244.234 31.8437L246.949 32.5245L247.192 31.5545ZM233.808 31.5545L234.051 32.5245L236.766 31.8437L234.234 30.65L233.808 31.5545ZM223.141 74.3833L222.773 73.4534L223.141 74.3833ZM257.859 74.3833L257.491 75.3132L257.859 74.3833ZM255.571 16.5254C255.571 22.8068 251.953 28.2039 246.766 30.65L247.619 32.459C253.501 29.685 257.571 23.5864 257.571 16.5254H255.571ZM240.5 1C248.798 1 255.571 7.92453 255.571 16.5254H257.571C257.571 6.87284 249.954 -1 240.5 -1V1ZM225.429 16.5254C225.429 7.92453 232.202 1 240.5 1V-1C231.046 -1 223.429 6.87284 223.429 16.5254H225.429ZM234.234 30.65C229.047 28.2039 225.429 22.8068 225.429 16.5254H223.429C223.429 23.5864 227.499 29.685 233.381 32.459L234.234 30.65ZM210 67.2455C210 50.1131 220.392 35.9502 234.051 32.5245L233.565 30.5845C218.86 34.2725 208 49.3668 208 67.2455H210ZM222.773 73.4534C220.628 74.3018 218.732 75.0508 217.067 75.5173C215.386 75.9884 214.092 76.1247 213.116 75.882C212.227 75.6607 211.484 75.0949 210.929 73.8094C210.35 72.4665 210 70.3799 210 67.2455H208C208 70.4766 208.353 72.8863 209.093 74.6019C209.858 76.3749 211.053 77.4298 212.634 77.8229C214.128 78.1945 215.837 77.9389 217.606 77.4431C219.392 76.9428 221.393 76.15 223.509 75.3132L222.773 73.4534ZM240.5 69.0545C233.865 69.0545 227.725 71.4946 222.773 73.4534L223.509 75.3132C228.511 73.3347 234.305 71.0545 240.5 71.0545V69.0545ZM258.227 73.4534C253.275 71.4946 247.135 69.0545 240.5 69.0545V71.0545C246.695 71.0545 252.489 73.3347 257.491 75.3132L258.227 73.4534ZM271 67.2455C271 70.3799 270.65 72.4665 270.071 73.8094C269.516 75.0949 268.773 75.6607 267.884 75.882C266.908 76.1247 265.614 75.9884 263.933 75.5173C262.268 75.0508 260.372 74.3018 258.227 73.4534L257.491 75.3132C259.607 76.15 261.608 76.9428 263.394 77.4431C265.163 77.9389 266.872 78.1945 268.366 77.8229C269.947 77.4298 271.142 76.3749 271.907 74.6019C272.647 72.8863 273 70.4766 273 67.2455H271ZM246.949 32.5245C260.608 35.9502 271 50.1131 271 67.2455H273C273 49.3668 262.14 34.2725 247.435 30.5845L246.949 32.5245Z" fill="#B030FF" mask="url(#path-6-inside-3_18_38)"/>
<defs>
<linearGradient id="paint0_linear_18_38" x1="32.5" y1="53.5" x2="253" y2="52.5" gradientUnits="userSpaceOnUse">
<stop stop-color="#FF3BFF"/>
<stop offset="0.322917" stop-color="#ECBFBF"/>
<stop offset="0.65625" stop-color="#5D6EF3"/>
<stop offset="1" stop-color="#FF3BFF"/>
</linearGradient>
<linearGradient id="paint1_linear_18_38" x1="31.5" y1="7" x2="31.5" y2="83.9999" gradientUnits="userSpaceOnUse">
<stop stop-color="#F9F6F6"/>
<stop offset="1" stop-color="#E1E1E1"/>
</linearGradient>
<linearGradient id="paint2_linear_18_38" x1="130" y1="41.5" x2="148.5" y2="123" gradientUnits="userSpaceOnUse">
<stop stop-color="#EFEFEF"/>
<stop offset="1" stop-color="#C6C6C6"/>
</linearGradient>
</defs>
</svg>
