<svg width="196" height="100" viewBox="0 0 196 100" fill="none" xmlns="http://www.w3.org/2000/svg">
<path fill-rule="evenodd" clip-rule="evenodd" d="M46.7385 90C53.1216 90 59.2317 88.1812 64.5734 84.9469C56.3375 75.9327 51.2615 63.6005 51.2615 50C51.2615 36.3995 56.3375 24.0672 64.5734 15.0531C59.2317 11.8187 53.1216 10 46.7385 10C27.073 10 10 27.2625 10 50C10 72.7375 27.073 90 46.7385 90ZM46.7385 100C56.2025 100 65.0096 96.9908 72.3692 91.818C79.7289 96.9908 88.5359 100 98 100C107.464 100 116.271 96.9908 123.631 91.818C130.99 96.9908 139.797 100 149.262 100C175.074 100 196 77.6142 196 50C196 22.3858 175.074 0 149.262 0C139.797 0 130.99 3.00921 123.631 8.18202C116.271 3.00921 107.464 0 98 0C88.5359 0 79.7289 3.00921 72.3692 8.18202C65.0096 3.00921 56.2025 0 46.7385 0C20.9255 0 0 22.3858 0 50C0 77.6142 20.9255 100 46.7385 100ZM115.835 15.0531C110.493 11.8187 104.383 10 98 10C91.6168 10 85.5068 11.8188 80.165 15.0531C88.4009 24.0672 93.4769 36.3995 93.4769 50C93.4769 63.6005 88.4009 75.9327 80.165 84.9469C85.5068 88.1813 91.6168 90 98 90C104.383 90 110.493 88.1812 115.835 84.9469C107.599 75.9327 102.523 63.6005 102.523 50C102.523 36.3995 107.599 24.0672 115.835 15.0531ZM123.631 78.6463C116.839 71.4805 112.523 61.4323 112.523 50C112.523 38.5677 116.839 28.5195 123.631 21.3537C130.422 28.5195 134.738 38.5677 134.738 50C134.738 61.4323 130.422 71.4805 123.631 78.6463ZM131.427 84.9469C139.662 75.9327 144.738 63.6005 144.738 50C144.738 36.3995 139.662 24.0672 131.427 15.0531C136.768 11.8188 142.878 10 149.262 10C168.927 10 186 27.2625 186 50C186 72.7375 168.927 90 149.262 90C142.878 90 136.768 88.1812 131.427 84.9469ZM83.4769 50C83.4769 38.5677 79.1608 28.5195 72.3692 21.3537C65.5776 28.5195 61.2615 38.5677 61.2615 50C61.2615 61.4323 65.5776 71.4805 72.3692 78.6463C79.1608 71.4805 83.4769 61.4323 83.4769 50Z" fill="url(#paint0_linear_18_20)"/>
<defs>
<linearGradient id="paint0_linear_18_20" x1="1.46031e-06" y1="50" x2="196" y2="50" gradientUnits="userSpaceOnUse">
<stop stop-color="#FF3BFF"/>
<stop offset="0.346449" stop-color="#ECBFBF"/>
<stop offset="0.714926" stop-color="#5C24FF"/>
<stop offset="1" stop-color="#FF3BFF"/>
</linearGradient>
</defs>
</svg>
