<svg width="29" height="29" viewBox="0 0 29 29" fill="none" xmlns="http://www.w3.org/2000/svg">
<g clip-path="url(#clip0_1_24)">
<path d="M26.2552 28.5714L20.0345 22.6191L20.7809 25H5.51949C4.73386 25 3.9804 24.6865 3.42487 24.1283C2.86934 23.5702 2.55725 22.8132 2.55725 22.0238V4.16668C2.55725 3.37735 2.86934 2.62034 3.42487 2.0622C3.9804 1.50405 4.73386 1.19049 5.51949 1.19049H23.2929C24.0786 1.19049 24.832 1.50405 25.3875 2.0622C25.9431 2.62034 26.2552 3.37735 26.2552 4.16668V28.5714ZM14.4062 8.09525C11.2307 8.09525 9.00308 9.4643 9.00308 9.4643C10.2235 8.36906 12.3563 7.73811 12.3563 7.73811L12.1549 7.53573C10.1524 7.57144 8.33954 8.9643 8.33954 8.9643C6.30152 13.2381 6.43186 16.9286 6.43186 16.9286C8.09071 19.0833 10.5553 18.9286 10.5553 18.9286L11.3966 17.8572C9.91545 17.5357 8.97939 16.2143 8.97939 16.2143C8.97939 16.2143 11.207 17.7381 14.4062 17.7381C17.6054 17.7381 19.833 16.2143 19.833 16.2143C19.833 16.2143 18.897 17.5357 17.4158 17.8572L18.2571 18.9286C18.2571 18.9286 20.7217 19.0833 22.3806 16.9286C22.3806 16.9286 22.5109 13.2381 20.4729 8.9643C20.4729 8.9643 18.66 7.57144 16.6575 7.53573L16.4561 7.73811C16.4561 7.73811 18.5889 8.36906 19.8093 9.4643C19.8093 9.4643 17.5817 8.09525 14.4062 8.09525ZM11.9535 12.6072C12.7237 12.6072 13.3517 13.2857 13.3398 14.1191C13.3398 14.9405 12.7237 15.631 11.9535 15.631C11.1951 15.631 10.579 14.9405 10.579 14.1191C10.579 13.2857 11.1833 12.6072 11.9535 12.6072ZM16.8945 12.6072C17.6647 12.6072 18.2808 13.2857 18.2808 14.1191C18.2808 14.9405 17.6647 15.631 16.8945 15.631C16.1362 15.631 15.52 14.9405 15.52 14.1191C15.52 13.2857 16.1243 12.6072 16.8945 12.6072Z" fill="white"/>
</g>
<defs>
<clipPath id="clip0_1_24">
<rect width="28.4375" height="28.5714" fill="white" transform="translate(0.187439)"/>
</clipPath>
</defs>
</svg>
