<svg width="29" height="29" viewBox="0 0 29 29" fill="none" xmlns="http://www.w3.org/2000/svg">
<g clip-path="url(#clip0_833_52)">
<path d="M26.255 28.5714L20.0343 22.6191L20.7808 25H5.51937C4.73373 25 3.98028 24.6865 3.42475 24.1283C2.86922 23.5702 2.55713 22.8132 2.55713 22.0238V4.16668C2.55713 3.37735 2.86922 2.62034 3.42475 2.0622C3.98028 1.50405 4.73373 1.19049 5.51937 1.19049H23.2928C24.0784 1.19049 24.8319 1.50405 25.3874 2.0622C25.943 2.62034 26.255 3.37735 26.255 4.16668V28.5714ZM14.4061 8.09525C11.2306 8.09525 9.00296 9.4643 9.00296 9.4643C10.2234 8.36906 12.3562 7.73811 12.3562 7.73811L12.1548 7.53573C10.1523 7.57144 8.33942 8.9643 8.33942 8.9643C6.3014 13.2381 6.43174 16.9286 6.43174 16.9286C8.09059 19.0833 10.5552 18.9286 10.5552 18.9286L11.3965 17.8572C9.91533 17.5357 8.97926 16.2143 8.97926 16.2143C8.97926 16.2143 11.2069 17.7381 14.4061 17.7381C17.6053 17.7381 19.8329 16.2143 19.8329 16.2143C19.8329 16.2143 18.8968 17.5357 17.4157 17.8572L18.257 18.9286C18.257 18.9286 20.7216 19.0833 22.3804 16.9286C22.3804 16.9286 22.5108 13.2381 20.4728 8.9643C20.4728 8.9643 18.6599 7.57144 16.6574 7.53573L16.456 7.73811C16.456 7.73811 18.5888 8.36906 19.8092 9.4643C19.8092 9.4643 17.5816 8.09525 14.4061 8.09525ZM11.9534 12.6072C12.7235 12.6072 13.3515 13.2857 13.3397 14.1191C13.3397 14.9405 12.7235 15.631 11.9534 15.631C11.195 15.631 10.5789 14.9405 10.5789 14.1191C10.5789 13.2857 11.1832 12.6072 11.9534 12.6072ZM16.8944 12.6072C17.6645 12.6072 18.2807 13.2857 18.2807 14.1191C18.2807 14.9405 17.6645 15.631 16.8944 15.631C16.136 15.631 15.5199 14.9405 15.5199 14.1191C15.5199 13.2857 16.1242 12.6072 16.8944 12.6072Z" fill="black"/>
</g>
<defs>
<clipPath id="clip0_833_52">
<rect width="28.4375" height="28.5714" fill="white" transform="translate(0.1875)"/>
</clipPath>
</defs>
</svg>
