<svg width="29" height="29" viewBox="0 0 29 29" fill="none" xmlns="http://www.w3.org/2000/svg">
<g clip-path="url(#clip0_1_30)">
<path fill-rule="evenodd" clip-rule="evenodd" d="M20.9789 25.059C21.3009 25.287 21.7159 25.344 22.0859 25.204C22.4559 25.063 22.7279 24.747 22.8099 24.364C23.6789 20.28 25.7869 9.94299 26.5779 6.22799C26.6379 5.94799 26.5379 5.65699 26.3179 5.46999C26.0979 5.28299 25.7929 5.22899 25.5209 5.32999C21.3279 6.88199 8.41488 11.727 3.13688 13.68C2.80188 13.804 2.58388 14.126 2.59488 14.479C2.60688 14.833 2.84488 15.14 3.18788 15.243C5.55488 15.951 8.66188 16.936 8.66188 16.936C8.66188 16.936 10.1139 21.321 10.8709 23.551C10.9659 23.831 11.1849 24.051 11.4739 24.127C11.7619 24.202 12.0699 24.123 12.2849 23.92C13.5009 22.772 15.3809 20.997 15.3809 20.997C15.3809 20.997 18.9529 23.616 20.9789 25.059ZM9.96888 16.382L11.6479 21.92L12.0209 18.413C12.0209 18.413 18.5079 12.562 22.2059 9.22699C22.3139 9.12899 22.3289 8.96499 22.2389 8.84999C22.1499 8.73499 21.9859 8.70799 21.8629 8.78599C17.5769 11.523 9.96888 16.382 9.96888 16.382Z" fill="white"/>
</g>
<defs>
<clipPath id="clip0_1_30">
<rect width="24" height="24" fill="white" transform="translate(2.59491 2.28)"/>
</clipPath>
</defs>
</svg>
