<svg width="29" height="29" viewBox="0 0 29 29" fill="none" xmlns="http://www.w3.org/2000/svg">
<g clip-path="url(#clip0_833_57)">
<path fill-rule="evenodd" clip-rule="evenodd" d="M20.9786 25.059C21.3006 25.287 21.7156 25.344 22.0856 25.204C22.4556 25.063 22.7276 24.747 22.8096 24.364C23.6786 20.28 25.7866 9.94299 26.5776 6.22799C26.6376 5.94799 26.5376 5.65699 26.3176 5.46999C26.0976 5.28299 25.7926 5.22899 25.5206 5.32999C21.3276 6.88199 8.41464 11.727 3.13664 13.68C2.80164 13.804 2.58364 14.126 2.59464 14.479C2.60664 14.833 2.84464 15.14 3.18764 15.243C5.55464 15.951 8.66164 16.936 8.66164 16.936C8.66164 16.936 10.1136 21.321 10.8706 23.551C10.9656 23.831 11.1846 24.051 11.4736 24.127C11.7616 24.202 12.0696 24.123 12.2846 23.92C13.5006 22.772 15.3806 20.997 15.3806 20.997C15.3806 20.997 18.9526 23.616 20.9786 25.059ZM9.96864 16.382L11.6476 21.92L12.0206 18.413C12.0206 18.413 18.5076 12.562 22.2056 9.22699C22.3136 9.12899 22.3286 8.96499 22.2386 8.84999C22.1496 8.73499 21.9856 8.70799 21.8626 8.78599C17.5766 11.523 9.96864 16.382 9.96864 16.382Z" fill="black"/>
</g>
<defs>
<clipPath id="clip0_833_57">
<rect width="24" height="24" fill="white" transform="translate(2.59473 2.28)"/>
</clipPath>
</defs>
</svg>
