<svg width="11" height="9" viewBox="0 0 11 9" fill="none" xmlns="http://www.w3.org/2000/svg">
<path d="M5.94431 8.59988L10.8193 1.55822C10.8755 1.47695 10.9085 1.38185 10.9145 1.28322C10.9206 1.18458 10.8995 1.08617 10.8537 0.998635C10.8078 0.9111 10.7389 0.837779 10.6543 0.786609C10.5698 0.735441 10.4729 0.708374 10.3741 0.70834L0.624057 0.708341C0.52519 0.708275 0.428191 0.73527 0.343572 0.786399C0.258952 0.837529 0.189941 0.910843 0.144016 0.998396C0.0980912 1.08595 0.0770047 1.1844 0.0830419 1.28308C0.0890792 1.38177 0.12201 1.47691 0.178265 1.55822L5.05327 8.59988C5.10333 8.67162 5.16998 8.73021 5.24755 8.77066C5.32512 8.81112 5.4113 8.83224 5.49879 8.83224C5.58627 8.83224 5.67246 8.81112 5.75002 8.77066C5.82759 8.73021 5.89424 8.67162 5.94431 8.59988Z" fill="#5AC2DD"/>
</svg>
