<svg width="26" height="20" viewBox="0 0 26 20" fill="none" xmlns="http://www.w3.org/2000/svg">
<path d="M22.6549 0.932351C22.8084 0.775675 22.9917 0.651208 23.1939 0.566237C23.3962 0.481267 23.6134 0.4375 23.8327 0.4375C24.0521 0.4375 24.2693 0.481267 24.4715 0.566237C24.6738 0.651208 24.8571 0.775675 25.0106 0.932351C25.6541 1.5826 25.6631 2.63335 25.0331 3.29485L11.7289 19.0224C11.5778 19.1882 11.3945 19.3215 11.1902 19.4141C10.9858 19.5067 10.7647 19.5567 10.5404 19.5609C10.3161 19.5651 10.0933 19.5235 9.88564 19.4386C9.67796 19.3538 9.48978 19.2274 9.33261 19.0674L1.23711 10.8639C0.92489 10.5454 0.75 10.1173 0.75 9.67135C0.75 9.22541 0.92489 8.79726 1.23711 8.47885C1.39066 8.32218 1.57393 8.19771 1.77618 8.11274C1.97843 8.02777 2.19561 7.984 2.41498 7.984C2.63436 7.984 2.85153 8.02777 3.05378 8.11274C3.25604 8.19771 3.4393 8.32218 3.59286 8.47885L10.4599 15.4381L22.6099 0.981852C22.6238 0.964463 22.6389 0.947933 22.6549 0.932351Z" fill="white"/>
</svg>
