<svg width="35" height="35" viewBox="0 0 35 35" fill="none" xmlns="http://www.w3.org/2000/svg">
<path fill-rule="evenodd" clip-rule="evenodd" d="M21.3331 0.180127C21.2029 0.345625 21.1914 0.450693 21.1914 1.47772V2.59526L15.7982 2.61352C10.6044 2.63115 10.3996 2.63662 10.2611 2.76206C10.1246 2.88559 10.1172 2.95791 10.1172 4.16992C10.1172 5.66583 10.1119 5.65339 10.7677 5.68702L11.1768 5.70801V17.6709V29.6338L10.8196 29.6697C10.6231 29.6894 10.4232 29.7447 10.3752 29.7926C10.3145 29.8531 10.2814 30.19 10.2661 30.9016L10.2441 31.9238H7.58201H4.91996L4.93801 29.7916L4.95605 27.6594L5.40053 27.5773C6.93615 27.2941 8.22384 26.2224 8.76716 24.7756C8.89608 24.4325 8.91946 24.2335 8.91946 23.4814C8.91946 22.4837 8.82301 22.1149 8.37006 21.3811L8.12848 20.9897L8.23662 20.6292C8.37061 20.1822 8.37443 19.2953 8.24435 18.8156C8.19082 18.6181 8.03462 18.252 7.89729 18.0021C7.65393 17.5595 7.64962 17.539 7.72933 17.2069C7.77752 17.006 7.79652 16.633 7.77567 16.2982C7.60744 13.6026 4.02001 12.4343 2.05769 14.4361C1.34866 15.1594 1.05581 16.0991 1.24113 17.0561L1.34442 17.5896L1.11412 17.972C0.651875 18.7397 0.522402 19.552 0.715586 20.4727L0.83542 21.0437L0.592607 21.4423C-0.125645 22.6209 -0.173428 24.0391 0.462178 25.3103C0.805342 25.9965 1.5549 26.7377 2.29004 27.1176C2.82919 27.3963 3.51675 27.6172 3.84508 27.6172C4.00511 27.6172 4.01522 27.6422 4.05733 28.1402C4.08167 28.4279 4.10156 29.3969 4.10156 30.2935V31.9238H2.1875C0.364561 31.9238 0.266943 31.9303 0.136719 32.0605C0.00984375 32.1874 0 32.2884 0 33.4619C0 34.6354 0.00984375 34.7364 0.136719 34.8633C0.272686 34.9992 0.36456 35 17.5 35C34.6354 35 34.7273 34.9992 34.8633 34.8633C34.9902 34.7364 35 34.6354 35 33.4619C35 31.9111 35.0065 31.9238 34.2139 31.9238H33.7012V30.909C33.7012 29.7283 33.6735 29.668 33.1318 29.668H32.8125V17.6709V5.67383H33.2121C33.8394 5.67383 33.8672 5.61859 33.8946 4.31676C33.9201 3.10208 33.858 2.76466 33.5905 2.66294C33.4961 2.62705 32.7 2.59766 31.8214 2.59766H30.2239L30.2023 1.44252C30.1831 0.420684 30.1656 0.27084 30.0504 0.143691C29.9255 0.0058789 29.8581 0 28.3927 0C26.9564 0 26.8571 0.00813476 26.7285 0.136719C26.6025 0.262705 26.5918 0.364561 26.5918 1.43555V2.59766H25.7031H24.8145V1.43555C24.8145 0.364561 24.8037 0.262705 24.6777 0.136719C24.5492 0.00813476 24.4499 0 23.0079 0H21.4748L21.3331 0.180127ZM23.9258 1.74316V2.59766H23.0029H22.0801V1.74316V0.888672H23.0029H23.9258V1.74316ZM29.3262 1.74316V2.59766H28.4033H27.4805V1.74316V0.888672H28.4033H29.3262V1.74316ZM33.0176 4.13574V4.78516H22.0117H11.0059V4.13574V3.48633H22.0117H33.0176V4.13574ZM31.9238 17.6709V29.668H31.1055H30.2871L30.2681 26.449L30.249 23.23L30.0876 23.0994C29.9337 22.9748 29.7726 22.9688 26.5918 22.9688C23.411 22.9688 23.2499 22.9748 23.096 23.0994L22.9346 23.23L22.9155 26.449L22.8965 29.668H17.498H12.0996V17.6709V5.67383H22.0117H31.9238V17.6709ZM13.877 7.51953C13.7478 7.64866 13.7402 7.74737 13.7402 9.29298C13.7402 10.9069 13.7424 10.9312 13.8922 11.0361C14.0149 11.1221 14.2626 11.1426 15.1804 11.1426C16.1944 11.1426 16.3289 11.1291 16.4298 11.0175C16.5284 10.9087 16.543 10.6842 16.543 9.27439C16.543 7.74737 16.5352 7.64853 16.4062 7.51953C16.2806 7.39389 16.1784 7.38281 15.1416 7.38281C14.1048 7.38281 14.0026 7.39389 13.877 7.51953ZM18.3937 7.56294C18.26 7.73288 18.252 7.82879 18.252 9.2627C18.252 10.6966 18.26 10.7925 18.3937 10.9625L18.5353 11.1426L19.6754 11.1416C20.3024 11.1409 20.8493 11.1179 20.8906 11.0903C21.092 10.9558 21.123 10.709 21.123 9.24226C21.123 7.82906 21.1149 7.73274 20.9813 7.56294L20.8397 7.38281H19.6875H18.5353L18.3937 7.56294ZM22.9688 7.51953C22.8396 7.64866 22.832 7.74737 22.832 9.29298C22.832 10.9069 22.8342 10.9312 22.984 11.0361C23.1067 11.1221 23.3544 11.1426 24.2722 11.1426C25.2862 11.1426 25.4207 11.1291 25.5216 11.0175C25.6202 10.9087 25.6348 10.6842 25.6348 9.27439C25.6348 7.74737 25.627 7.64853 25.498 7.51953C25.3724 7.39389 25.2702 7.38281 24.2334 7.38281C23.1966 7.38281 23.0944 7.39389 22.9688 7.51953ZM27.4855 7.56294C27.3517 7.73288 27.3438 7.82879 27.3438 9.2627C27.3438 10.6966 27.3517 10.7925 27.4855 10.9625L27.6271 11.1426L28.7672 11.1416C29.3942 11.1409 29.9411 11.1179 29.9824 11.0903C30.1838 10.9558 30.2148 10.709 30.2148 9.24226C30.2148 7.82906 30.2067 7.73274 30.0731 7.56294L29.9315 7.38281H28.7793H27.6271L27.4855 7.56294ZM15.6543 9.2627V10.2539H15.1416H14.6289V9.2627V8.27148H15.1416H15.6543V9.2627ZM20.2344 9.2627V10.2539H19.6875H19.1406V9.2627V8.27148H19.6875H20.2344V9.2627ZM24.7461 9.2627V10.2539H24.2334H23.7207V9.2627V8.27148H24.2334H24.7461V9.2627ZM29.3262 9.2627V10.2539H28.7793H28.2324V9.2627V8.27148H28.7793H29.3262V9.2627ZM13.877 12.7148C13.7478 12.844 13.7402 12.9427 13.7402 14.4883C13.7402 16.1022 13.7424 16.1265 13.8922 16.2315C14.0149 16.3175 14.2626 16.3379 15.1804 16.3379C16.1944 16.3379 16.3289 16.3244 16.4298 16.2129C16.5284 16.104 16.543 15.8795 16.543 14.4697C16.543 12.9427 16.5352 12.8438 16.4062 12.7148C16.2806 12.5892 16.1784 12.5781 15.1416 12.5781C14.1048 12.5781 14.0026 12.5892 13.877 12.7148ZM18.3937 12.7583C18.26 12.9282 18.252 13.0241 18.252 14.458C18.252 15.8919 18.26 15.9878 18.3937 16.1578L18.5353 16.3379L19.6754 16.3369C20.3024 16.3363 20.8493 16.3132 20.8906 16.2856C21.092 16.1511 21.123 15.9043 21.123 14.4376C21.123 13.0244 21.1149 12.9281 20.9813 12.7583L20.8397 12.5781H19.6875H18.5353L18.3937 12.7583ZM22.9688 12.7148C22.8396 12.844 22.832 12.9427 22.832 14.4883C22.832 16.1022 22.8342 16.1265 22.984 16.2315C23.1067 16.3175 23.3544 16.3379 24.2722 16.3379C25.2862 16.3379 25.4207 16.3244 25.5216 16.2129C25.6202 16.104 25.6348 15.8795 25.6348 14.4697C25.6348 12.9427 25.627 12.8438 25.498 12.7148C25.3724 12.5892 25.2702 12.5781 24.2334 12.5781C23.1966 12.5781 23.0944 12.5892 22.9688 12.7148ZM27.4855 12.7583C27.3517 12.9282 27.3438 13.0241 27.3438 14.458C27.3438 15.8919 27.3517 15.9878 27.4855 16.1578L27.6271 16.3379L28.7672 16.3369C29.3942 16.3363 29.9411 16.3132 29.9824 16.2856C30.1838 16.1511 30.2148 15.9043 30.2148 14.4376C30.2148 13.0244 30.2067 12.9281 30.0731 12.7583L29.9315 12.5781H28.7793H27.6271L27.4855 12.7583ZM15.6543 14.458V15.4492H15.1416H14.6289V14.458V13.4668H15.1416H15.6543V14.458ZM20.2344 14.458V15.4492H19.6875H19.1406V14.458V13.4668H19.6875H20.2344V14.458ZM24.7461 14.458V15.4492H24.2334H23.7207V14.458V13.4668H24.2334H24.7461V14.458ZM29.3262 14.458V15.4492H28.7793H28.2324V14.458V13.4668H28.7793H29.3262V14.458ZM5.20543 14.385C6.09998 14.6565 6.65779 15.2146 6.87258 16.0531C6.97621 16.4576 6.94381 16.8665 6.7725 17.3165C6.65205 17.6328 6.68486 17.7674 6.99802 18.2428C7.33079 18.748 7.42417 18.9989 7.48474 19.5508C7.52445 19.9129 7.50941 19.9949 7.23898 20.8926C7.1562 21.1673 7.16064 21.184 7.40551 21.5175C8.15685 22.5411 8.29657 23.7232 7.79352 24.8C7.41344 25.6133 6.52695 26.3523 5.61012 26.6201C4.90034 26.8274 4.92188 26.8492 4.92188 25.9239V25.1193L5.57703 24.4713C6.29139 23.7646 6.40138 23.5901 6.27881 23.3574C6.07667 22.9733 5.80597 23.0124 5.31692 23.4964L4.92188 23.8873V23.1698C4.92188 22.3552 4.84073 22.1484 4.52088 22.1484C4.13602 22.1484 4.07073 22.2718 4.0332 23.0688L3.99902 23.7953L3.65982 23.4504C3.29561 23.0801 3.08109 23.018 2.8594 23.2186C2.79063 23.2808 2.73438 23.4235 2.73438 23.5358C2.73438 23.7016 2.85612 23.8638 3.38379 24.4009L4.0332 25.0618V25.9233V26.7848L3.60958 26.6859C2.95347 26.5329 2.35505 26.203 1.87435 25.7293C0.683184 24.5556 0.562187 22.8188 1.58136 21.5234C1.81351 21.2283 1.8228 21.0768 1.64062 20.5584C1.4767 20.0921 1.46371 19.4495 1.6085 18.9697C1.66523 18.7817 1.85165 18.4244 2.02275 18.1757L2.33379 17.7236L2.18347 17.2286C1.925 16.3778 2.08858 15.6564 2.67928 15.0417C3.2941 14.4018 4.3534 14.1265 5.20543 14.385ZM13.877 17.9102C13.7478 18.0393 13.7402 18.138 13.7402 19.6836C13.7402 21.2975 13.7424 21.3218 13.8922 21.4268C14.0144 21.5124 14.2589 21.5332 15.1416 21.5332C16.0243 21.5332 16.2688 21.5124 16.391 21.4268C16.5408 21.3218 16.543 21.2975 16.543 19.6836C16.543 18.138 16.5354 18.0393 16.4062 17.9102C16.2806 17.7845 16.1784 17.7734 15.1416 17.7734C14.1048 17.7734 14.0026 17.7845 13.877 17.9102ZM18.3937 17.9536C18.26 18.1235 18.252 18.2194 18.252 19.6533C18.252 21.0872 18.26 21.1831 18.3937 21.3531L18.5353 21.5332L19.6754 21.5322C20.3024 21.5316 20.8493 21.5085 20.8906 21.4809C21.092 21.3464 21.123 21.0996 21.123 19.6329C21.123 18.2197 21.1149 18.1234 20.9813 17.9536L20.8397 17.7734H19.6875H18.5353L18.3937 17.9536ZM22.9688 17.9102C22.8396 18.0393 22.832 18.138 22.832 19.6836C22.832 21.2975 22.8342 21.3218 22.984 21.4268C23.1067 21.5128 23.3544 21.5332 24.2722 21.5332C25.2862 21.5332 25.4207 21.5197 25.5216 21.4082C25.6202 21.2993 25.6348 21.0748 25.6348 19.665C25.6348 18.138 25.627 18.0392 25.498 17.9102C25.3724 17.7845 25.2702 17.7734 24.2334 17.7734C23.1966 17.7734 23.0944 17.7845 22.9688 17.9102ZM27.4855 17.9536C27.3517 18.1235 27.3438 18.2194 27.3438 19.6533C27.3438 21.0872 27.3517 21.1831 27.4855 21.3531L27.6271 21.5332L28.7672 21.5322C29.3942 21.5316 29.9411 21.5085 29.9824 21.4809C30.1838 21.3464 30.2148 21.0996 30.2148 19.6329C30.2148 18.2197 30.2067 18.1234 30.0731 17.9536L29.9315 17.7734H28.7793H27.6271L27.4855 17.9536ZM15.6543 19.6533V20.6445H15.1416H14.6289V19.6533V18.6621H15.1416H15.6543V19.6533ZM20.2344 19.6533V20.6445H19.6875H19.1406V19.6533V18.6621H19.6875H20.2344V19.6533ZM24.7461 19.6533V20.6445H24.2334H23.7207V19.6533V18.6621H24.2334H24.7461V19.6533ZM29.3262 19.6533V20.6445H28.7793H28.2324V19.6533V18.6621H28.7793H29.3262V19.6533ZM13.9795 23.0504C13.9043 23.0931 13.8201 23.1614 13.7925 23.2022C13.7649 23.243 13.7419 24.0022 13.7413 24.8893C13.7403 26.3659 13.7508 26.5118 13.8653 26.6154C13.9713 26.7114 14.167 26.7285 15.1535 26.7285C16.1936 26.7285 16.3287 26.7153 16.4298 26.6035C16.5284 26.4946 16.5428 26.2723 16.5419 24.8774C16.5413 23.9969 16.5183 23.2425 16.4907 23.2012C16.3645 23.0122 16.1081 22.9688 15.129 22.9708C14.5037 22.9721 14.0639 23.0026 13.9795 23.0504ZM18.4475 23.0993C18.2881 23.2282 18.2859 23.2482 18.2651 24.7198C18.243 26.2928 18.2565 26.4498 18.4278 26.6212C18.578 26.7714 20.7526 26.7803 20.9562 26.6316C21.08 26.5411 21.0902 26.4264 21.1094 24.923L21.1301 23.3114L20.9588 23.1401C20.7903 22.9716 20.7696 22.9688 19.6982 22.9688C18.7279 22.9688 18.5913 22.983 18.4475 23.0993ZM15.6543 24.8828V25.9082H15.1416H14.6289V24.8828V23.8574H15.1416H15.6543V24.8828ZM20.2344 24.8828V25.9082H19.6875H19.1406V24.8828V23.8574H19.6875H20.2344V24.8828ZM26.1653 26.7456L26.1475 29.6338L24.9683 29.6525L23.7891 29.6712V26.7643V23.8574H24.9861H26.1831L26.1653 26.7456ZM29.3782 26.7456L29.3604 29.6338H28.1982H27.0361L27.0183 26.7456L27.0004 23.8574H28.1982H29.396L29.3782 26.7456ZM32.8125 31.2061V31.9238H21.9775H11.1426V31.2061V30.4883H21.9775H32.8125V31.2061ZM34.1113 33.4619V34.1113H17.5H0.888672V33.4619V32.8125H17.5H34.1113V33.4619Z" fill="white"/>
</svg>
