<svg width="148" height="22" viewBox="0 0 148 22" fill="none" xmlns="http://www.w3.org/2000/svg">
<path d="M139.468 5.63729L141.957 11.6973H137.023L139.468 5.63729ZM137.986 2.29614L131.319 18.0462H134.423L135.949 14.2606H142.979L144.535 18.0462H147.706L141.038 2.29614H137.986Z" fill="white"/>
<path d="M117.064 15.2977H124.376V5.04463H117.82C117.79 9.86003 117.649 12.8703 117.397 14.0754C117.319 14.4911 117.208 14.8998 117.064 15.2977ZM127.199 2.29614V15.2977H129.317V21.4096H126.636V18.0462H115.16V21.4096H112.508V15.2977H112.76C112.962 15.3122 113.165 15.3122 113.367 15.2977C113.544 15.2577 113.718 15.2032 113.886 15.1347C114.1 15.0305 114.275 14.8587 114.382 14.6458C114.523 14.3463 114.625 14.0302 114.686 13.7049C114.801 13.1634 114.87 12.6133 114.893 12.0603C114.96 11.3195 114.997 10.4971 115.012 9.54147C115.027 8.5858 115.064 7.73384 115.064 6.9782C115.064 6.22255 115.064 5.31873 115.064 4.3038V2.29614H127.199Z" fill="white"/>
<path d="M101.887 5.63729L99.4279 11.6973H104.362L101.887 5.63729ZM110.155 18.0462H106.984L105.436 14.2606H98.4055L96.8794 18.0462H93.7753L100.406 2.29614H103.51L110.155 18.0462Z" fill="white"/>
<path d="M87.6756 8.62284H87.7275C89.7944 8.62284 90.8316 9.66001 90.8316 11.7491V18.0462H88.009V12.3122C88.0265 12.1728 88.0115 12.0312 87.9652 11.8985C87.9189 11.7659 87.8426 11.6457 87.7422 11.5474C87.6418 11.4492 87.52 11.3754 87.3863 11.332C87.2527 11.2886 87.1108 11.2767 86.9718 11.2972H80.3044V18.0462H77.4521V2.29614H80.2747V8.62284H84.6456L88.0534 2.29614H91.1353L87.6756 8.62284Z" fill="white"/>
<path d="M63.6298 10.0964H68.3119C69.031 10.1285 69.7338 9.87555 70.2677 9.39259C70.5154 9.15872 70.7098 8.87421 70.8376 8.55844C70.9655 8.24268 71.0237 7.90306 71.0085 7.56274C71.0221 7.22481 70.963 6.8879 70.8352 6.57478C70.7074 6.26165 70.5138 5.97961 70.2677 5.7477C69.7294 5.2722 69.0297 5.02043 68.3119 5.04391H63.6298V10.0964ZM68.4674 2.29542C69.1805 2.27179 69.8912 2.39066 70.5577 2.64508C71.2243 2.89949 71.8334 3.28434 72.3494 3.77709C72.857 4.25598 73.2575 4.83698 73.5244 5.48182C73.7912 6.12666 73.9185 6.82071 73.8977 7.51829C73.9192 8.22018 73.7902 8.91853 73.5193 9.5664C73.2484 10.2143 72.8419 10.7966 72.3272 11.2743C71.8143 11.765 71.2089 12.1487 70.5463 12.4031C69.8836 12.6575 69.1769 12.7774 68.4674 12.756H63.6298V18.0233H60.8073V2.29542H68.4674Z" fill="white"/>
<path d="M49.3979 5.6368L46.9531 11.6968H51.8871L49.3979 5.6368ZM57.6655 18.0457H54.4948L52.9465 14.2601H45.916L44.3898 18.0457H41.2858L47.9162 2.29565H51.0203L57.6655 18.0457Z" fill="white"/>
<path fill-rule="evenodd" clip-rule="evenodd" d="M16.2148 -0.000976562V9.55563C16.2148 11.8701 13.3877 12.9966 11.796 11.3164L6.32469 5.54118L8.1833 3.78039L13.6546 9.55563V-0.000976562H16.2148ZM5.19404 6.76488L11.6682 13.5627C13.2206 15.1927 12.0652 17.8887 9.81423 17.8887H0V15.3284H9.81423L3.34008 8.53056L5.19404 6.76488Z" fill="white"/>
<path fill-rule="evenodd" clip-rule="evenodd" d="M17.9216 -0.000976562V9.55563C17.9216 11.8701 20.7488 12.9966 22.3405 11.3164L27.8118 5.54118L25.9532 3.78039L20.4819 9.55563V-0.000976562H17.9216ZM28.9424 6.76488L22.4683 13.5627C20.9159 15.1927 22.0713 17.8887 24.3222 17.8887H34.1365V15.3284H24.3222L30.7964 8.53056L28.9424 6.76488Z" fill="white"/>
</svg>
