<svg width="169" height="52" viewBox="0 0 169 52" fill="none" xmlns="http://www.w3.org/2000/svg">
<path d="M73.7869 26.4127H70.4326L68.7927 22.4261H61.3635L59.7485 26.4127H56.4688L63.4755 9.82227H66.7553L73.7869 26.4127ZM65.0409 13.3385L62.4568 19.727H67.6746L65.0409 13.3385Z" fill="#2C374B"/>
<path d="M85.2049 9.82227C86.8448 9.82227 88.2113 10.3505 89.3046 11.407C90.3979 12.447 90.9445 13.7594 90.9445 15.3442C90.9445 16.9454 90.3896 18.2661 89.2798 19.3061C88.1865 20.3461 86.8282 20.8661 85.2049 20.8661H80.0865V26.4127H77.1049V9.82227H85.2049ZM80.0865 18.0432H85.031C85.8758 18.0432 86.5632 17.7956 87.0932 17.3004C87.6399 16.8051 87.9132 16.1613 87.9132 15.3689C87.9132 14.5931 87.6399 13.9575 87.0932 13.4623C86.5466 12.967 85.8592 12.7194 85.031 12.7194H80.0865V18.0432Z" fill="#2C374B"/>
<path d="M105.51 16.4832H105.559C107.746 16.4832 108.839 17.581 108.839 19.7766V26.4127H105.858V20.3708C105.858 19.661 105.493 19.3061 104.764 19.3061H97.683V26.4127H94.7014V9.82227H97.683V16.4832H102.304L105.907 9.82227H109.162L105.51 16.4832Z" fill="#2C374B"/>
<path d="M129.27 26.4127H125.915L124.276 22.4261H116.846L115.231 26.4127H111.952L118.958 9.82227H122.238L129.27 26.4127ZM120.524 13.3385L117.94 19.727H123.157L120.524 13.3385Z" fill="#2C374B"/>
<path d="M147.285 9.82227V23.5156H149.521V29.9537H146.689V26.4127H134.564V29.9537H131.756V23.5156H132.005C132.286 23.5156 132.502 23.5073 132.651 23.4908C132.8 23.4578 132.982 23.4 133.197 23.3175C133.413 23.2185 133.586 23.0451 133.719 22.7975C133.852 22.5499 133.959 22.2197 134.042 21.807C134.141 21.3943 134.216 20.8166 134.266 20.0737C134.332 19.3143 134.373 18.4312 134.39 17.4242C134.423 16.4172 134.44 15.5175 134.44 14.7251C134.456 13.9162 134.464 12.9753 134.464 11.9023C134.464 10.8292 134.464 10.1359 134.464 9.82227H147.285ZM136.576 23.5156H144.304V12.7194H137.371C137.338 17.7873 137.189 20.9569 136.924 22.228C136.808 22.7892 136.692 23.2185 136.576 23.5156Z" fill="#2C374B"/>
<path d="M169 26.4127H165.646L164.006 22.4261H156.577L154.962 26.4127H151.682L158.689 9.82227H161.969L169 26.4127ZM160.254 13.3385L157.67 19.727H162.888L160.254 13.3385Z" fill="#2C374B"/>
<path d="M57.6515 40.4445H56.5582V34.3613H60.8128V35.4236H57.6515V40.4445Z" fill="#2C374B"/>
<path d="M65.0906 34.3613C65.6918 34.3613 66.1929 34.555 66.5938 34.9424C66.9946 35.3237 67.1951 35.8049 67.1951 36.386C67.1951 36.9731 66.9916 37.4574 66.5847 37.8387C66.1838 38.22 65.6858 38.4107 65.0906 38.4107H63.2138V40.4445H62.1206V34.3613H65.0906ZM63.2138 37.3757H65.0268C65.3365 37.3757 65.5886 37.2849 65.783 37.1033C65.9834 36.9217 66.0836 36.6856 66.0836 36.3951C66.0836 36.1106 65.9834 35.8776 65.783 35.696C65.5825 35.5144 65.3305 35.4236 65.0268 35.4236H63.2138V37.3757Z" fill="#2C374B"/>
<path d="M70.9644 37.9567L72.4677 34.3432H73.5974L71.4655 39.3822C71.1618 40.0904 70.6699 40.4445 69.9896 40.4445H68.7233V39.3822H69.9714C70.1718 39.3822 70.3237 39.3126 70.4269 39.1734L67.8669 34.3613H69.0968L70.9644 37.9567Z" fill="#2C374B"/>
<path d="M80.0782 34.3613V40.4445H78.9941V35.4145H75.851V40.4445H74.7577V34.3613H80.0782Z" fill="#2C374B"/>
<path d="M87.2776 34.3613V40.4445H86.1935V35.4145H83.0504V40.4445H81.9571V34.3613H87.2776Z" fill="#2C374B"/>
<path d="M94.8635 40.4445H93.6336L93.0323 38.9827H90.3083L89.7161 40.4445H88.5135L91.0827 34.3613H92.2852L94.8635 40.4445ZM91.6566 35.6506L90.7091 37.9931H92.6223L91.6566 35.6506Z" fill="#2C374B"/>
<path d="M60.5212 45.883H60.5395C61.3412 45.883 61.742 46.2855 61.742 47.0906V49.5239H60.6488V47.3085C60.6488 47.0482 60.5152 46.9181 60.2479 46.9181H57.6515V49.5239H56.5582V43.4407H57.6515V45.883H59.346L60.667 43.4407H61.8605L60.5212 45.883Z" fill="#2C374B"/>
<path d="M66.2982 49.651C65.3629 49.651 64.5976 49.3453 64.0024 48.734C63.4071 48.1226 63.1095 47.3751 63.1095 46.4913C63.1095 45.6016 63.4041 44.851 63.9932 44.2397C64.5885 43.6223 65.3568 43.3136 66.2982 43.3136C67.2457 43.3136 68.014 43.6192 68.6031 44.2306C69.1984 44.8419 69.496 45.5955 69.496 46.4913C69.496 47.3811 69.1984 48.1317 68.6031 48.743C68.014 49.3483 67.2457 49.651 66.2982 49.651ZM66.2982 48.5887C66.9238 48.5887 67.4279 48.3859 67.8105 47.9804C68.1992 47.5688 68.3936 47.0694 68.3936 46.4823C68.3936 45.8951 68.1992 45.3988 67.8105 44.9933C67.4279 44.5817 66.9238 44.3759 66.2982 44.3759C65.6787 44.3759 65.1746 44.5817 64.7859 44.9933C64.4032 45.3988 64.2119 45.8951 64.2119 46.4823C64.2119 47.0694 64.4032 47.5688 64.7859 47.9804C65.1746 48.3859 65.6787 48.5887 66.2982 48.5887Z" fill="#2C374B"/>
<path d="M77.6722 43.4407V49.5239H76.579V45.0931L74.6931 49.5239H73.8914L72.0146 45.0931V49.5239H70.9214V43.4407H72.4337L74.3105 47.8805L76.1872 43.4407H77.6722Z" fill="#2C374B"/>
<path d="M84.8737 43.4407V49.5239H83.7895V44.4939H80.6464V49.5239H79.5532V43.4407H84.8737Z" fill="#2C374B"/>
<path d="M92.4596 49.5239H91.2296L90.6284 48.0621H87.9043L87.3122 49.5239H86.1096L88.6787 43.4407H89.8813L92.4596 49.5239ZM89.2527 44.7299L88.3052 47.0724H90.2184L89.2527 44.7299Z" fill="#2C374B"/>
<path d="M97.9581 45.8649V43.4407H99.0422V49.5239H97.9581V46.9181H94.7694V49.5239H93.6762V43.4407H94.7694V45.8649H97.9581Z" fill="#2C374B"/>
<path d="M102.013 47.8623L105.211 43.4407H106.295V49.5239H105.211V45.1022L102.013 49.5239H100.92V43.4407H102.013V47.8623Z" fill="#2C374B"/>
<path d="M111.626 42.9867H110.095C109.889 42.9867 109.719 42.9232 109.585 42.796C109.457 42.6629 109.394 42.4934 109.394 42.2876V41.879H110.259V42.0788C110.259 42.1272 110.277 42.1726 110.314 42.215C110.35 42.2513 110.393 42.2694 110.441 42.2694H111.27C111.325 42.2694 111.368 42.2513 111.398 42.215C111.434 42.1786 111.453 42.1333 111.453 42.0788V41.879H112.327V42.2876C112.327 42.4934 112.26 42.6629 112.127 42.796C111.999 42.9232 111.832 42.9867 111.626 42.9867ZM109.266 47.8623L112.464 43.4407H113.548V49.5239H112.464V45.1022L109.266 49.5239H108.173V43.4407H109.266V47.8623Z" fill="#2C374B"/>
<path d="M27.3117 48.809L6.46381 48.7499L5.9397 48.4663C5.13607 48.0408 4.70514 47.6508 4.32079 47.0717C3.81997 46.3154 3.44727 45.1099 3.5288 44.5308C3.63362 43.7627 3.71515 43.7272 5.18266 43.9163C6.5337 44.0817 10.6334 44.519 11.8214 44.6254C12.2057 44.6608 13.4636 44.7908 14.6166 44.909C17.703 45.2517 20.9292 45.5826 23.7594 45.8545C25.1338 45.9963 27.8358 46.2563 29.7576 46.4572C31.6793 46.6463 34.0087 46.8826 34.9404 46.9772C35.8722 47.0717 37.6774 47.2726 38.9586 47.4381C40.2398 47.6035 42.9185 47.899 44.8985 48.0999C48.8817 48.5017 50.0464 48.6554 50.1512 48.8208C50.1862 48.8799 49.7785 48.9154 49.1846 48.9035C48.6255 48.8799 38.7839 48.8445 27.3117 48.809Z" fill="#3C95A3"/>
<path d="M40.0649 44.6608C37.1183 44.4717 34.952 44.3062 33.1933 44.129C30.3165 43.8453 25.7975 43.3726 24.3417 43.1953C23.6079 43.1126 22.6412 43.0062 22.187 42.959C21.7444 42.9235 20.4865 42.7817 19.3917 42.6635C18.3086 42.5335 15.7346 42.2381 13.6848 42.0135C9.32883 41.5408 8.07096 41.3281 7.43039 40.9971C6.8131 40.6781 5.91629 39.7562 5.59018 39.1299C5.20583 38.3381 4.91466 37.0144 4.99619 36.3999C5.06607 35.9272 5.10101 35.8681 5.34559 35.9035C6.02111 35.9744 13.5683 37.6172 16.3635 38.2908C18.3086 38.7635 20.1255 39.189 24.2834 40.1226C26.1469 40.5362 28.5578 41.0917 29.641 41.3635C32.0752 41.9544 38.5741 43.4317 41.4043 44.0344C42.5574 44.2826 43.5241 44.4953 43.559 44.519C43.5823 44.5426 43.5357 44.6135 43.4425 44.6726C43.2445 44.8026 42.1614 44.8026 40.0649 44.6608Z" fill="#3C95A3"/>
<path d="M38.3761 40.1698C38.1198 40.1343 37.2813 39.9334 36.5126 39.7325C35.7439 39.5316 34.6724 39.2834 34.125 39.1771C33.2049 38.988 28.4879 37.9362 24.9822 37.1325C24.1552 36.9316 22.5014 36.5771 21.3134 36.3407C15.5598 35.1707 9.77135 33.7171 9.00266 33.2562C7.66327 32.4643 6.8014 31.1643 6.53352 29.5334C6.41705 28.8243 6.35882 27.418 6.44035 27.418C6.75481 27.418 13.4052 29.9707 29.0003 36.0689C29.9903 36.4589 31.4112 37.0025 32.145 37.2862C35.8021 38.6807 38.7138 39.8743 38.9351 40.0753C39.1098 40.2171 38.8652 40.2643 38.3761 40.1698Z" fill="#3C95A3"/>
<path d="M30.3973 33.9655C30.176 33.8591 28.4173 33.1855 26.4956 32.441C19.1581 29.6282 11.937 26.7919 11.0635 26.3782C10.2715 26.0001 8.87387 24.6291 8.47788 23.8137C8.31482 23.4946 8.09353 22.9273 7.98871 22.5728C7.75577 21.781 7.60436 19.6891 7.76742 19.5828C7.87224 19.5119 12.8804 22.5019 16.5375 24.8064C21.3826 27.8673 25.1329 30.2073 26.4956 31.0228C28.4639 32.2046 30.8515 33.7528 31.0961 33.9892C31.2359 34.131 31.2359 34.1546 31.0379 34.1546C30.9098 34.1428 30.6186 34.0601 30.3973 33.9655Z" fill="#3C95A3"/>
<path d="M22.8737 26.0472C22.6291 25.8699 22.105 25.5154 21.7206 25.2436C21.3363 24.9717 20.2648 24.2745 19.333 23.6954C18.4013 23.1163 17.1201 22.289 16.4795 21.8635C15.839 21.4263 14.4646 20.5281 13.4281 19.8663C10.6444 18.0817 9.92234 17.3372 9.31671 15.5999C9.10706 14.9854 9.04883 14.5835 9.04883 13.6499C9.06047 12.6335 9.31671 10.7072 9.47976 10.5535C9.63117 10.3881 9.7127 10.4708 14.849 16.3208C16.0719 17.7035 17.7723 19.6417 18.6342 20.6226C19.4961 21.5917 20.521 22.7735 20.9053 23.2226C21.2897 23.6835 22.0351 24.5108 22.5592 25.0781C23.7472 26.3308 23.8753 26.7326 22.8737 26.0472Z" fill="#3C95A3"/>
<mask id="mask0_870_169" style="mask-type:alpha" maskUnits="userSpaceOnUse" x="3" y="10" width="48" height="39">
<path d="M27.3117 48.809L6.46381 48.7499L5.9397 48.4663C5.13607 48.0408 4.70514 47.6508 4.32079 47.0717C3.81997 46.3154 3.44727 45.1099 3.5288 44.5308C3.63362 43.7627 3.71515 43.7272 5.18266 43.9163C6.5337 44.0817 10.6334 44.519 11.8214 44.6254C12.2057 44.6608 13.4636 44.7908 14.6166 44.909C17.703 45.2517 20.9292 45.5827 23.7594 45.8545C25.1338 45.9963 27.8358 46.2563 29.7576 46.4572C31.6793 46.6463 34.0087 46.8826 34.9404 46.9772C35.8722 47.0717 37.6774 47.2726 38.9586 47.4381C40.2398 47.6036 42.9185 47.899 44.8985 48.0999C48.8817 48.5017 50.0464 48.6554 50.1512 48.8208C50.1862 48.8799 49.7785 48.9154 49.1846 48.9035C48.6255 48.8799 38.7839 48.8445 27.3117 48.809Z" fill="#2C374B"/>
<path d="M40.0649 44.6608C37.1183 44.4717 34.952 44.3062 33.1933 44.129C30.3165 43.8453 25.7975 43.3726 24.3417 43.1953C23.6079 43.1126 22.6412 43.0062 22.187 42.959C21.7444 42.9235 20.4865 42.7817 19.3917 42.6635C18.3086 42.5335 15.7346 42.2381 13.6848 42.0135C9.32883 41.5408 8.07096 41.3281 7.43039 40.9971C6.8131 40.6781 5.91629 39.7562 5.59018 39.1299C5.20583 38.3381 4.91466 37.0144 4.99619 36.3999C5.06607 35.9272 5.10101 35.8681 5.34559 35.9035C6.02111 35.9744 13.5683 37.6172 16.3635 38.2908C18.3086 38.7635 20.1255 39.189 24.2834 40.1226C26.1469 40.5362 28.5578 41.0917 29.641 41.3635C32.0752 41.9544 38.5741 43.4317 41.4043 44.0344C42.5574 44.2826 43.5241 44.4953 43.559 44.519C43.5823 44.5426 43.5357 44.6135 43.4425 44.6726C43.2445 44.8026 42.1614 44.8026 40.0649 44.6608Z" fill="#2C374B"/>
<path d="M38.3761 40.1698C38.1198 40.1343 37.2813 39.9334 36.5126 39.7325C35.7439 39.5316 34.6724 39.2834 34.125 39.1771C33.2049 38.988 28.4879 37.9362 24.9822 37.1325C24.1552 36.9316 22.5014 36.5771 21.3134 36.3407C15.5598 35.1707 9.77135 33.7171 9.00266 33.2562C7.66327 32.4643 6.8014 31.1643 6.53352 29.5334C6.41705 28.8243 6.35882 27.418 6.44035 27.418C6.75481 27.418 13.4052 29.9707 29.0003 36.0689C29.9903 36.4589 31.4112 37.0025 32.145 37.2862C35.8021 38.6807 38.7138 39.8743 38.9351 40.0752C39.1098 40.2171 38.8652 40.2643 38.3761 40.1698Z" fill="#2C374B"/>
<path d="M30.3973 33.9655C30.176 33.8592 28.4174 33.1855 26.4956 32.441C19.1581 29.6282 11.937 26.7919 11.0635 26.3782C10.2715 26.0001 8.87387 24.6291 8.47788 23.8137C8.31482 23.4946 8.09353 22.9273 7.98871 22.5728C7.75577 21.781 7.60436 19.6891 7.76742 19.5828C7.87224 19.5119 12.8804 22.5019 16.5375 24.8064C21.3826 27.8673 25.1329 30.2073 26.4956 31.0228C28.4639 32.2046 30.8516 33.7528 31.0961 33.9892C31.2359 34.131 31.2359 34.1546 31.0379 34.1546C30.9098 34.1428 30.6186 34.0601 30.3973 33.9655Z" fill="#2C374B"/>
<path d="M22.8737 26.0472C22.6291 25.8699 22.105 25.5154 21.7206 25.2436C21.3363 24.9717 20.2648 24.2745 19.333 23.6954C18.4013 23.1163 17.1201 22.289 16.4795 21.8635C15.839 21.4263 14.4646 20.5281 13.4281 19.8663C10.6444 18.0817 9.92234 17.3372 9.31671 15.5999C9.10706 14.9854 9.04883 14.5835 9.04883 13.6499C9.06047 12.6335 9.31671 10.7072 9.47976 10.5535C9.63117 10.3881 9.7127 10.4708 14.849 16.3208C16.0719 17.7035 17.7723 19.6417 18.6342 20.6226C19.4961 21.5917 20.521 22.7736 20.9053 23.2226C21.2897 23.6836 22.0351 24.5108 22.5592 25.0781C23.7472 26.3308 23.8753 26.7326 22.8737 26.0472Z" fill="#2C374B"/>
</mask>
<g mask="url(#mask0_870_169)">
<path d="M56 28C31 47 19.2135 58.2899 8 87L61 67L56 28Z" fill="#5AC2DD"/>
<path d="M45 21C18 33 8.10748 48.1912 -1 80L-4 -16L45 21Z" fill="#36445F"/>
</g>
</svg>
