<svg width="148" height="22" viewBox="0 0 148 22" fill="none" xmlns="http://www.w3.org/2000/svg">
<path d="M139.468 5.63705L141.957 11.697H137.023L139.468 5.63705ZM137.986 2.2959L131.318 18.046H134.422L135.949 14.2603H142.979L144.535 18.046H147.706L141.038 2.2959H137.986Z" fill="#2C374B"/>
<path d="M117.064 15.2975H124.376V5.04438H117.82C117.79 9.85979 117.649 12.87 117.397 14.0751C117.319 14.4908 117.208 14.8996 117.064 15.2975ZM127.198 2.2959V15.2975H129.317V21.4093H126.635V18.046H115.16V21.4093H112.508V15.2975H112.76C112.962 15.312 113.165 15.312 113.367 15.2975C113.544 15.2575 113.718 15.203 113.886 15.1345C114.1 15.0303 114.275 14.8585 114.382 14.6456C114.523 14.3461 114.625 14.0299 114.686 13.7047C114.801 13.1632 114.87 12.6131 114.893 12.0601C114.96 11.3192 114.997 10.4969 115.012 9.54123C115.027 8.58556 115.064 7.7336 115.064 6.97795C115.064 6.2223 115.064 5.31849 115.064 4.30355V2.2959H127.198Z" fill="#2C374B"/>
<path d="M101.887 5.63705L99.4279 11.697H104.362L101.887 5.63705ZM110.155 18.046H106.984L105.436 14.2603H98.4056L96.8795 18.046H93.7754L100.406 2.2959H103.51L110.155 18.046Z" fill="#2C374B"/>
<path d="M87.6746 8.6226H87.7265C89.7934 8.6226 90.8306 9.65976 90.8306 11.7489V18.046H88.008V12.3119C88.0255 12.1725 88.0105 12.031 87.9643 11.8983C87.918 11.7656 87.8416 11.6455 87.7412 11.5472C87.6408 11.4489 87.519 11.3752 87.3854 11.3318C87.2517 11.2884 87.1099 11.2765 86.9709 11.297H80.3034V18.046H77.4512V2.2959H80.2737V8.6226H84.6446L88.0525 2.2959H91.1343L87.6746 8.6226Z" fill="#2C374B"/>
<path d="M63.6292 10.0964H68.3113C69.0304 10.1285 69.7332 9.87555 70.2671 9.39259C70.5148 9.15872 70.7092 8.87421 70.837 8.55844C70.9648 8.24268 71.0231 7.90306 71.0079 7.56274C71.0215 7.22481 70.9624 6.8879 70.8346 6.57478C70.7067 6.26165 70.5132 5.97961 70.2671 5.7477C69.7288 5.2722 69.0291 5.02043 68.3113 5.04391H63.6292V10.0964ZM68.4668 2.29542C69.1799 2.27179 69.8905 2.39066 70.5571 2.64508C71.2237 2.89949 71.8328 3.28434 72.3488 3.77709C72.8564 4.25598 73.2569 4.83698 73.5237 5.48182C73.7906 6.12666 73.9179 6.82071 73.8971 7.51829C73.9186 8.22018 73.7895 8.91853 73.5186 9.5664C73.2477 10.2143 72.8413 10.7966 72.3266 11.2743C71.8137 11.765 71.2083 12.1487 70.5456 12.4031C69.883 12.6575 69.1763 12.7774 68.4668 12.756H63.6292V18.0233H60.8066V2.29542H68.4668Z" fill="#2C374B"/>
<path d="M49.3973 5.63656L46.9525 11.6966H51.8865L49.3973 5.63656ZM57.6649 18.0455H54.4942L52.9458 14.2598H45.9154L44.3892 18.0455H41.2852L47.9156 2.29541H51.0197L57.6649 18.0455Z" fill="#2C374B"/>
<path fill-rule="evenodd" clip-rule="evenodd" d="M16.2148 -0.000976562V9.55563C16.2148 11.8701 13.3877 12.9966 11.796 11.3164L6.32469 5.54118L8.1833 3.78039L13.6546 9.55563V-0.000976562H16.2148ZM5.19404 6.76488L11.6682 13.5627C13.2206 15.1927 12.0652 17.8887 9.81423 17.8887H0V15.3284H9.81423L3.34008 8.53056L5.19404 6.76488Z" fill="#2C374B"/>
<path fill-rule="evenodd" clip-rule="evenodd" d="M17.9216 -0.000976562V9.55563C17.9216 11.8701 20.7488 12.9966 22.3405 11.3164L27.8118 5.54118L25.9532 3.78039L20.4819 9.55563V-0.000976562H17.9216ZM28.9424 6.76488L22.4683 13.5627C20.9159 15.1927 22.0713 17.8887 24.3222 17.8887H34.1365V15.3284H24.3222L30.7964 8.53056L28.9424 6.76488Z" fill="#2C374B"/>
</svg>
