<svg width="47" height="19" viewBox="0 0 47 19" fill="none" xmlns="http://www.w3.org/2000/svg">
<path d="M2.01956 0.891981C1.96098 0.48193 1.58108 0.197006 1.17103 0.255585C0.760983 0.314163 0.476059 0.694062 0.534638 1.10411L2.01956 0.891981ZM23.7023 13.1274C23.9833 12.823 23.9643 12.3485 23.6599 12.0676L18.7 7.48918C18.3956 7.20823 17.9212 7.22721 17.6402 7.53158C17.3592 7.83594 17.3782 8.31043 17.6826 8.59139L22.0914 12.6611L18.0217 17.0699C17.7408 17.3743 17.7598 17.8487 18.0641 18.1297C18.3685 18.4107 18.843 18.3917 19.1239 18.0873L23.7023 13.1274ZM0.534638 1.10411C1.12359 5.22679 4.75484 8.3728 9.09043 10.4185C13.4635 12.4819 18.7848 13.5439 23.1812 13.3681L23.1212 11.8693C18.9731 12.0352 13.8914 11.0252 9.73051 9.06193C5.53221 7.08101 2.49868 4.24581 2.01956 0.891981L0.534638 1.10411Z" fill="white"/>
<path opacity="0.6" d="M46 0.998047C46 7.83371 35.7465 13.3022 28.2273 12.6187" stroke="white" stroke-width="1.5" stroke-linecap="round" stroke-linejoin="round" stroke-dasharray="3 3"/>
</svg>
