<svg width="64" height="64" viewBox="0 0 64 64" fill="none" xmlns="http://www.w3.org/2000/svg">
<mask id="mask0_877_11741" style="mask-type:alpha" maskUnits="userSpaceOnUse" x="8" y="0" width="48" height="64">
<path d="M32 64C32 64 56 41.256 56 24C56 17.6348 53.4714 11.5303 48.9706 7.02944C44.4697 2.52856 38.3652 0 32 0C25.6348 0 19.5303 2.52856 15.0294 7.02944C10.5286 11.5303 8 17.6348 8 24C8 41.256 32 64 32 64ZM32 36C28.8174 36 25.7652 34.7357 23.5147 32.4853C21.2643 30.2348 20 27.1826 20 24C20 20.8174 21.2643 17.7652 23.5147 15.5147C25.7652 13.2643 28.8174 12 32 12C35.1826 12 38.2348 13.2643 40.4853 15.5147C42.7357 17.7652 44 20.8174 44 24C44 27.1826 42.7357 30.2348 40.4853 32.4853C38.2348 34.7357 35.1826 36 32 36Z" fill="#36445F"/>
</mask>
<g mask="url(#mask0_877_11741)">
<path d="M76.5714 33.238C43.1953 48.0951 30.9667 66.9033 19.7085 106.286L16 -12.5715L76.5714 33.238Z" fill="#5AC2DD"/>
<path d="M66.2856 13.5477C32.2797 28.6905 19.8204 47.8604 8.34971 88L4.57129 -33.1428L66.2856 13.5477Z" fill="#3C95A3"/>
<path d="M52.5713 1.14289C21.7141 14.8572 10.4084 32.2186 -0.000139236 68.5715L-3.42871 -41.1428L52.5713 1.14289Z" fill="#36445F"/>
<rect x="-19" y="-48" width="89" height="139" fill="#2C374B"/>
</g>
</svg>
