<svg width="124" height="11" viewBox="0 0 124 11" fill="none" xmlns="http://www.w3.org/2000/svg">
<path d="M1.58416 10.4037H0.425781V2.40256H5.90717V3.53705H1.58416V10.4037Z" fill="#2C374B"/>
<path d="M10.9752 2.40256C11.7554 2.40256 12.4042 2.64936 12.9217 3.14297C13.4392 3.63657 13.6979 4.25358 13.6979 4.99398C13.6979 5.74235 13.4392 6.35935 12.9217 6.84499C12.4042 7.32267 11.7554 7.56151 10.9752 7.56151H8.35985V10.4037H7.20148V2.40256H10.9752ZM8.35985 6.45091H10.9393C11.409 6.45091 11.7912 6.31556 12.0858 6.04488C12.3803 5.77419 12.5276 5.42389 12.5276 4.99398C12.5276 4.57203 12.3764 4.22571 12.0738 3.95502C11.7793 3.67638 11.4011 3.53705 10.9393 3.53705H8.35985V6.45091Z" fill="#2C374B"/>
<path d="M18.1464 7.31073L20.3199 2.36674H21.526L18.4689 9.24534C18.3017 9.61952 18.0589 9.90613 17.7404 10.1052C17.4299 10.3042 17.0796 10.4037 16.6895 10.4037H15.3401V9.25728H16.6895C17.0955 9.25728 17.3742 9.08611 17.5254 8.74377L17.5732 8.62435L14.1936 2.40256H15.5192L18.1464 7.31073Z" fill="#2C374B"/>
<path d="M29.5202 2.40256V10.4037H28.3618V3.53705H23.8238V10.4037H22.6655V2.40256H29.5202Z" fill="#2C374B"/>
<path d="M38.5233 2.40256V10.4037H37.365V3.53705H32.827V10.4037H31.6686V2.40256H38.5233Z" fill="#2C374B"/>
<path d="M47.9851 10.4037H46.6834L45.7758 8.26609H41.9782L41.0826 10.4037H39.7928L43.256 2.40256H44.5099L47.9851 10.4037ZM43.8651 3.78784L42.4559 7.14354H45.2981L43.8651 3.78784Z" fill="#2C374B"/>
<path d="M57.5501 5.72244H57.5978C58.593 5.72244 59.0906 6.21207 59.0906 7.19131V10.4037H57.9322V7.38238C57.9322 7.01616 57.7411 6.83305 57.359 6.83305H53.5973V10.4037H52.4389V2.40256H53.5973V5.72244H56.3081L57.968 2.40256H59.2458L57.5501 5.72244Z" fill="#2C374B"/>
<path d="M64.7362 10.559C63.5181 10.559 62.5189 10.1609 61.7387 9.36476C60.9665 8.56066 60.5803 7.57346 60.5803 6.40314C60.5803 5.24078 60.9665 4.25756 61.7387 3.45346C62.5189 2.6414 63.5181 2.23537 64.7362 2.23537C65.9622 2.23537 66.9614 2.63742 67.7336 3.44152C68.5138 4.24561 68.9039 5.23282 68.9039 6.40314C68.9039 7.57346 68.5138 8.56066 67.7336 9.36476C66.9614 10.1609 65.9622 10.559 64.7362 10.559ZM64.7362 9.43641C65.6278 9.43641 66.3483 9.14582 66.8977 8.56464C67.455 7.9755 67.7336 7.255 67.7336 6.40314C67.7336 5.55128 67.455 4.83475 66.8977 4.25358C66.3404 3.66444 65.6199 3.36987 64.7362 3.36987C63.8604 3.36987 63.1439 3.66444 62.5866 4.25358C62.0293 4.83475 61.7507 5.55128 61.7507 6.40314C61.7507 7.24704 62.0253 7.96356 62.5747 8.5527C63.132 9.14184 63.8525 9.43641 64.7362 9.43641Z" fill="#2C374B"/>
<path d="M79.1268 2.40256V10.4037H77.9684V4.19387L75.2814 10.4037H74.2783L71.6152 4.22969V10.4037H70.4569V2.40256H72.0571L74.8157 8.7796L77.5624 2.40256H79.1268Z" fill="#2C374B"/>
<path d="M88.134 2.40256V10.4037H86.9756V3.53705H82.4377V10.4037H81.2793V2.40256H88.134Z" fill="#2C374B"/>
<path d="M97.5957 10.4037H96.2941L95.3865 8.26609H91.5889L90.6933 10.4037H89.4035L92.8667 2.40256H94.1206L97.5957 10.4037ZM93.4758 3.78784L92.0666 7.14354H94.9088L93.4758 3.78784Z" fill="#2C374B"/>
<path d="M104.587 5.68662V2.40256H105.745V10.4037H104.587V6.82111H99.9892V10.4037H98.8308V2.40256H99.9892V5.68662H104.587Z" fill="#2C374B"/>
<path d="M109.051 8.61241L113.636 2.40256H114.795V10.4037H113.636V4.19387L109.051 10.4037H107.892V2.40256H109.051V8.61241Z" fill="#2C374B"/>
<path d="M121.325 1.80546H119.486C119.207 1.80546 118.976 1.71789 118.793 1.54274C118.618 1.35963 118.53 1.12875 118.53 0.8501V0.432129H119.545V0.670969C119.545 0.758544 119.573 0.834177 119.629 0.897867C119.693 0.953597 119.764 0.981462 119.844 0.981462H120.967C121.046 0.981462 121.114 0.953597 121.17 0.897867C121.233 0.834177 121.265 0.758544 121.265 0.670969V0.432129H122.28V0.8501C122.28 1.12875 122.189 1.35963 122.006 1.54274C121.83 1.71789 121.603 1.80546 121.325 1.80546ZM118.1 8.61241L122.686 2.40256H123.845V10.4037H122.686V4.19387L118.1 10.4037H116.942V2.40256H118.1V8.61241Z" fill="#2C374B"/>
</svg>
