<svg width="72" height="19" viewBox="0 0 72 19" fill="none" xmlns="http://www.w3.org/2000/svg">
<path d="M4.184 1.2V14.496H10.88V18H0.464V1.2H4.184ZM15.1568 3.288C16.8528 1.656 18.9648 0.839999 21.4928 0.839999C24.0208 0.839999 26.1248 1.656 27.8048 3.288C29.5008 4.904 30.3488 7.008 30.3488 9.6C30.3488 12.192 29.5008 14.304 27.8048 15.936C26.1248 17.552 24.0208 18.36 21.4928 18.36C18.9648 18.36 16.8528 17.552 15.1568 15.936C13.4768 14.304 12.6368 12.192 12.6368 9.6C12.6368 7.008 13.4768 4.904 15.1568 3.288ZM24.9008 6.024C24.0048 5.128 22.8688 4.68 21.4928 4.68C20.1168 4.68 18.9808 5.128 18.0848 6.024C17.1888 6.92 16.7408 8.112 16.7408 9.6C16.7408 11.088 17.1888 12.28 18.0848 13.176C18.9808 14.072 20.1168 14.52 21.4928 14.52C22.8688 14.52 24.0048 14.072 24.9008 13.176C25.7968 12.28 26.2448 11.088 26.2448 9.6C26.2448 8.112 25.7968 6.92 24.9008 6.024ZM50.4754 8.28C50.4914 8.472 50.4994 8.76 50.4994 9.144C50.4994 11.912 49.8034 14.144 48.4114 15.84C47.0354 17.52 44.9874 18.36 42.2674 18.36C39.6274 18.36 37.4834 17.568 35.8354 15.984C34.1874 14.384 33.3634 12.24 33.3634 9.552C33.3634 6.928 34.1794 4.824 35.8114 3.24C37.4594 1.64 39.6994 0.839999 42.5314 0.839999C45.0434 0.839999 47.2514 1.576 49.1554 3.048L46.7314 6.24C45.3554 5.2 43.9234 4.68 42.4354 4.68C40.8834 4.68 39.6674 5.136 38.7874 6.048C37.9074 6.96 37.4674 8.136 37.4674 9.576C37.4674 11.048 37.9154 12.24 38.8114 13.152C39.7074 14.064 40.9474 14.52 42.5314 14.52C43.7794 14.52 44.7314 14.232 45.3874 13.656C46.0594 13.08 46.4514 12.4 46.5634 11.616H42.2434V8.28H50.4754ZM55.9068 3.288C57.6028 1.656 59.7148 0.839999 62.2428 0.839999C64.7708 0.839999 66.8748 1.656 68.5548 3.288C70.2508 4.904 71.0988 7.008 71.0988 9.6C71.0988 12.192 70.2508 14.304 68.5548 15.936C66.8748 17.552 64.7708 18.36 62.2428 18.36C59.7148 18.36 57.6028 17.552 55.9068 15.936C54.2268 14.304 53.3868 12.192 53.3868 9.6C53.3868 7.008 54.2268 4.904 55.9068 3.288ZM65.6508 6.024C64.7548 5.128 63.6188 4.68 62.2428 4.68C60.8668 4.68 59.7308 5.128 58.8348 6.024C57.9388 6.92 57.4908 8.112 57.4908 9.6C57.4908 11.088 57.9388 12.28 58.8348 13.176C59.7308 14.072 60.8668 14.52 62.2428 14.52C63.6188 14.52 64.7548 14.072 65.6508 13.176C66.5468 12.28 66.9948 11.088 66.9948 9.6C66.9948 8.112 66.5468 6.92 65.6508 6.024Z" fill="white"/>
</svg>
