<svg width="22" height="22" viewBox="0 0 22 22" fill="none" xmlns="http://www.w3.org/2000/svg">
<path d="M18.5 10.16H17.6C17.4667 9.17333 17.1333 8.26667 16.6 7.44C16.08 6.6 15.4 5.92 14.56 5.4C13.7333 4.86667 12.8267 4.53333 11.84 4.4V3.5C11.84 3.27333 11.7533 3.08 11.58 2.92C11.42 2.74667 11.2267 2.66 11 2.66C10.7733 2.66 10.5733 2.74667 10.4 2.92C10.24 3.08 10.16 3.27333 10.16 3.5V4.4C9.17333 4.53333 8.26 4.86667 7.42 5.4C6.59333 5.92 5.91333 6.6 5.38 7.44C4.86 8.26667 4.53333 9.17333 4.4 10.16H3.5C3.27333 10.16 3.07333 10.2467 2.9 10.42C2.74 10.58 2.66 10.7733 2.66 11C2.66 11.2267 2.74 11.4267 2.9 11.6C3.07333 11.76 3.27333 11.84 3.5 11.84H4.4C4.53333 12.8267 4.86 13.74 5.38 14.58C5.91333 15.4067 6.59333 16.0867 7.42 16.62C8.26 17.14 9.17333 17.4667 10.16 17.6V18.5C10.16 18.7267 10.24 18.92 10.4 19.08C10.5733 19.2533 10.7733 19.34 11 19.34C11.2267 19.34 11.42 19.2533 11.58 19.08C11.7533 18.92 11.84 18.7267 11.84 18.5V17.6C12.8267 17.4667 13.7333 17.14 14.56 16.62C15.4 16.0867 16.08 15.4067 16.6 14.58C17.1333 13.74 17.4667 12.8267 17.6 11.84H18.5C18.7267 11.84 18.92 11.76 19.08 11.6C19.2533 11.4267 19.34 11.2267 19.34 11C19.34 10.7733 19.2533 10.58 19.08 10.42C18.92 10.2467 18.7267 10.16 18.5 10.16ZM15.16 11.84H15.92C15.7467 12.88 15.28 13.78 14.52 14.54C13.7733 15.2867 12.88 15.7467 11.84 15.92V15.16C11.84 14.9333 11.7533 14.74 11.58 14.58C11.42 14.4067 11.2267 14.32 11 14.32C10.7733 14.32 10.5733 14.4067 10.4 14.58C10.24 14.74 10.16 14.9333 10.16 15.16V15.92C9.12 15.7467 8.22 15.2867 7.46 14.54C6.71333 13.78 6.25333 12.88 6.08 11.84H6.84C7.06667 11.84 7.26 11.76 7.42 11.6C7.59333 11.4267 7.68 11.2267 7.68 11C7.68 10.7733 7.59333 10.58 7.42 10.42C7.26 10.2467 7.06667 10.16 6.84 10.16H6.08C6.25333 9.12 6.71333 8.22667 7.46 7.48C8.22 6.72 9.12 6.25333 10.16 6.08V6.84C10.16 7.06667 10.24 7.26667 10.4 7.44C10.5733 7.6 10.7733 7.68 11 7.68C11.2267 7.68 11.42 7.6 11.58 7.44C11.7533 7.26667 11.84 7.06667 11.84 6.84V6.08C12.88 6.25333 13.7733 6.72 14.52 7.48C15.28 8.22667 15.7467 9.12 15.92 10.16H15.16C14.9333 10.16 14.7333 10.2467 14.56 10.42C14.4 10.58 14.32 10.7733 14.32 11C14.32 11.2267 14.4 11.4267 14.56 11.6C14.7333 11.76 14.9333 11.84 15.16 11.84ZM11 10.16C10.7733 10.16 10.5733 10.2467 10.4 10.42C10.24 10.58 10.16 10.7733 10.16 11C10.16 11.2267 10.24 11.4267 10.4 11.6C10.5733 11.76 10.7733 11.84 11 11.84C11.2267 11.84 11.42 11.76 11.58 11.6C11.7533 11.4267 11.84 11.2267 11.84 11C11.84 10.7733 11.7533 10.58 11.58 10.42C11.42 10.2467 11.2267 10.16 11 10.16Z" fill="#000066"/>
</svg>
