<svg width="67" height="30" viewBox="0 0 67 30" fill="none" xmlns="http://www.w3.org/2000/svg">
<path d="M2 17C0.895432 17 0 16.1046 0 15C0 13.8954 0.895432 13 2 13V17ZM65.9142 13.5858C66.6953 14.3668 66.6953 15.6332 65.9142 16.4142L53.1863 29.1421C52.4052 29.9232 51.1389 29.9232 50.3579 29.1421C49.5768 28.3611 49.5768 27.0948 50.3579 26.3137L61.6716 15L50.3579 3.68629C49.5768 2.90524 49.5768 1.63891 50.3579 0.857864C51.1389 0.0768156 52.4052 0.0768156 53.1863 0.857864L65.9142 13.5858ZM2 13H64.5V17H2V13Z" fill="#CC0000"/>
</svg>
