<svg width="67" height="30" viewBox="0 0 67 30" fill="none" xmlns="http://www.w3.org/2000/svg">
<path d="M64.5 17C65.6046 17 66.5 16.1046 66.5 15C66.5 13.8954 65.6046 13 64.5 13V17ZM0.585786 13.5858C-0.195262 14.3668 -0.195262 15.6332 0.585786 16.4142L13.3137 29.1421C14.0948 29.9232 15.3611 29.9232 16.1421 29.1421C16.9232 28.3611 16.9232 27.0948 16.1421 26.3137L4.82843 15L16.1421 3.68629C16.9232 2.90524 16.9232 1.63891 16.1421 0.857864C15.3611 0.0768156 14.0948 0.0768156 13.3137 0.857864L0.585786 13.5858ZM64.5 13H2V17H64.5V13Z" fill="#CC0000"/>
</svg>
