<svg width="11" height="13" viewBox="0 0 11 13" fill="none" xmlns="http://www.w3.org/2000/svg">
<path fill-rule="evenodd" clip-rule="evenodd" d="M1 0C1.55228 0 2 0.447715 2 1V7.5H7.58579L6.29289 6.20711C5.90237 5.81658 5.90237 5.18342 6.29289 4.79289C6.68342 4.40237 7.31658 4.40237 7.70711 4.79289L10.7071 7.79289C11.0976 8.18342 11.0976 8.81658 10.7071 9.20711L7.70711 12.2071C7.31658 12.5976 6.68342 12.5976 6.29289 12.2071C5.90237 11.8166 5.90237 11.1834 6.29289 10.7929L7.58579 9.5H1C0.447715 9.5 0 9.05229 0 8.5V1C0 0.447715 0.447715 0 1 0Z" fill="#CF0D0D"/>
</svg>
