<svg width="22" height="22" viewBox="0 0 22 22" fill="none" xmlns="http://www.w3.org/2000/svg">
<path d="M11.26 11.18C11.7133 10.7933 12.06 10.3333 12.3 9.8C12.54 9.25333 12.66 8.68 12.66 8.08C12.66 7.32 12.4733 6.62667 12.1 6C11.7267 5.36 11.22 4.85333 10.58 4.48C9.95333 4.10667 9.26 3.92 8.5 3.92C7.74 3.92 7.04 4.10667 6.4 4.48C5.77333 4.85333 5.27333 5.36 4.9 6C4.52667 6.62667 4.34 7.32 4.34 8.08C4.34 8.68 4.46 9.25333 4.7 9.8C4.94 10.3333 5.28667 10.7933 5.74 11.18C4.55333 11.7267 3.60667 12.5467 2.9 13.64C2.19333 14.7333 1.84 15.9333 1.84 17.24C1.86667 17.44 1.96 17.6133 2.12 17.76C2.28 17.8933 2.46 17.96 2.66 17.96C2.87333 17.96 3.06 17.8933 3.22 17.76C3.38 17.6133 3.47333 17.44 3.5 17.24C3.5 16.3333 3.72 15.5 4.16 14.74C4.61333 13.9667 5.22 13.36 5.98 12.92C6.75333 12.4667 7.59333 12.24 8.5 12.24C9.40667 12.24 10.24 12.4667 11 12.92C11.7733 13.36 12.38 13.9667 12.82 14.74C13.2733 15.5 13.5 16.3333 13.5 17.24C13.5267 17.44 13.62 17.6133 13.78 17.76C13.94 17.8933 14.12 17.96 14.32 17.96C14.5333 17.96 14.72 17.8933 14.88 17.76C15.04 17.6133 15.1333 17.44 15.16 17.24C15.16 15.9333 14.8067 14.7333 14.1 13.64C13.3933 12.5467 12.4467 11.7267 11.26 11.18ZM8.5 10.58C8.04667 10.58 7.62667 10.4667 7.24 10.24C6.86667 10.0133 6.56667 9.71333 6.34 9.34C6.11333 8.95333 6 8.53333 6 8.08C6 7.62667 6.11333 7.21333 6.34 6.84C6.56667 6.45333 6.86667 6.14667 7.24 5.92C7.62667 5.69333 8.04667 5.58 8.5 5.58C8.95333 5.58 9.36667 5.69333 9.74 5.92C10.1267 6.14667 10.4333 6.45333 10.66 6.84C10.8867 7.21333 11 7.62667 11 8.08C11 8.53333 10.8867 8.95333 10.66 9.34C10.4333 9.71333 10.1267 10.0133 9.74 10.24C9.36667 10.4667 8.95333 10.58 8.5 10.58ZM16.62 10.84C17.1667 10.2267 17.5 9.52 17.62 8.72C17.74 7.90667 17.6333 7.12667 17.3 6.38C16.9667 5.62 16.4533 5.02 15.76 4.58C15.0667 4.14 14.3133 3.92 13.5 3.92C13.3 3.94667 13.1267 4.04 12.98 4.2C12.8467 4.36 12.78 4.54667 12.78 4.76C12.78 4.96 12.8467 5.14 12.98 5.3C13.1267 5.46 13.3 5.55333 13.5 5.58C13.9533 5.58 14.3667 5.69333 14.74 5.92C15.1267 6.14667 15.4333 6.45333 15.66 6.84C15.8867 7.21333 16 7.62667 16 8.08C16 8.52 15.8867 8.93333 15.66 9.32C15.4467 9.70667 15.1467 10.0133 14.76 10.24C14.64 10.3067 14.54 10.4067 14.46 10.54C14.38 10.66 14.34 10.7933 14.34 10.94C14.34 11.0867 14.3667 11.2267 14.42 11.36C14.4867 11.48 14.58 11.58 14.7 11.66L15.14 11.94C16.1667 12.42 16.98 13.14 17.58 14.1C18.18 15.06 18.48 16.1067 18.48 17.24C18.5067 17.44 18.6 17.6133 18.76 17.76C18.92 17.8933 19.1 17.96 19.3 17.96C19.5133 17.96 19.7 17.8933 19.86 17.76C20.02 17.6133 20.1133 17.44 20.14 17.24C20.14 15.9467 19.8267 14.7333 19.2 13.6C18.5733 12.4667 17.7133 11.5533 16.62 10.86V10.84Z" fill="#000066"/>
</svg>
