<svg width="22" height="22" viewBox="0 0 22 22" fill="none" xmlns="http://www.w3.org/2000/svg">
<path d="M18.76 9.4C18.52 9.12 18.2333 8.9 17.9 8.74C17.5667 8.58 17.2133 8.5 16.84 8.5H13.04L13.5 7.3C13.7 6.76667 13.76 6.22 13.68 5.66C13.6133 5.1 13.42 4.59333 13.1 4.14C12.78 3.67333 12.3667 3.31333 11.86 3.06C11.3533 2.79333 10.82 2.66 10.26 2.66C10.1 2.66 9.94667 2.70667 9.8 2.8C9.66667 2.89333 9.56667 3.01333 9.5 3.16L7.12 8.5H5.16C4.70667 8.5 4.28667 8.61333 3.9 8.84C3.52667 9.06667 3.22667 9.37333 3 9.76C2.77333 10.1333 2.66 10.5467 2.66 11V16.84C2.66 17.2933 2.77333 17.7067 3 18.08C3.22667 18.4667 3.52667 18.7733 3.9 19C4.28667 19.2267 4.70667 19.34 5.16 19.34H15.78C16.38 19.34 16.9133 19.1467 17.38 18.76C17.8467 18.3733 18.1333 17.88 18.24 17.28L19.3 11.44C19.3667 11.08 19.3467 10.72 19.24 10.36C19.1467 10 18.98 9.68 18.74 9.4H18.76ZM6.84 17.66H5.16C4.93333 17.66 4.74 17.58 4.58 17.42C4.42 17.26 4.34 17.0667 4.34 16.84V11C4.34 10.7733 4.42 10.58 4.58 10.42C4.74 10.2467 4.93333 10.16 5.16 10.16H6.84V17.66ZM17.66 11.14L16.6 16.98C16.56 17.18 16.46 17.3467 16.3 17.48C16.1533 17.6 15.98 17.66 15.78 17.66H8.5V9.5L10.76 4.4C11 4.46667 11.2133 4.58 11.4 4.74C11.5867 4.9 11.7333 5.09333 11.84 5.32C11.96 5.53333 12.0267 5.76667 12.04 6.02C12.0533 6.26 12.0133 6.49333 11.92 6.72L11.48 7.92C11.3867 8.17333 11.3533 8.44 11.38 8.72C11.42 8.98667 11.5133 9.23333 11.66 9.46C11.82 9.67333 12.02 9.84667 12.26 9.98C12.5133 10.1 12.7733 10.16 13.04 10.16H16.84C17.0933 10.16 17.3 10.26 17.46 10.46C17.6333 10.66 17.7 10.8867 17.66 11.14Z" fill="#000066"/>
</svg>
