<svg width="22" height="22" viewBox="0 0 22 22" fill="none" xmlns="http://www.w3.org/2000/svg">
<path d="M19.34 14.34H17.52C17.6133 14.0733 17.66 13.7933 17.66 13.5V9.34C17.66 8.88667 17.5467 8.47333 17.32 8.1C17.0933 7.71333 16.7867 7.40667 16.4 7.18C16.0267 6.95333 15.6133 6.84 15.16 6.84H10.16C9.70667 6.84 9.28667 6.95333 8.9 7.18C8.52667 7.40667 8.22667 7.71333 8 8.1C7.77333 8.47333 7.66 8.88667 7.66 9.34V13.5C7.66 13.7933 7.71333 14.0733 7.82 14.34H6.84C6.61333 14.34 6.41333 14.26 6.24 14.1C6.08 13.9267 6 13.7267 6 13.5V5.16C6 4.70667 5.88667 4.29333 5.66 3.92C5.43333 3.53333 5.12667 3.22667 4.74 3C4.36667 2.77333 3.95333 2.66 3.5 2.66H2.66C2.43333 2.66 2.23333 2.74667 2.06 2.92C1.9 3.08 1.82 3.27333 1.82 3.5C1.82 3.72667 1.9 3.92667 2.06 4.1C2.23333 4.26 2.43333 4.34 2.66 4.34H3.5C3.72667 4.34 3.92 4.42 4.08 4.58C4.25333 4.74 4.34 4.93333 4.34 5.16V13.5C4.34 14.06 4.50667 14.5667 4.84 15.02C5.18667 15.46 5.63333 15.7533 6.18 15.9C5.96667 16.42 5.92667 16.9533 6.06 17.5C6.20667 18.0333 6.5 18.4733 6.94 18.82C7.38 19.1667 7.88 19.3467 8.44 19.36C9 19.3733 9.50667 19.2133 9.96 18.88C10.4133 18.56 10.72 18.1333 10.88 17.6C11.04 17.0533 11.0267 16.52 10.84 16H13.66C13.4733 16.52 13.46 17.0467 13.62 17.58C13.78 18.1 14.08 18.5267 14.52 18.86C14.96 19.1933 15.4533 19.36 16 19.36C16.56 19.36 17.06 19.1933 17.5 18.86C17.94 18.5267 18.24 18.1 18.4 17.58C18.56 17.0467 18.5467 16.52 18.36 16H19.34C19.54 15.9733 19.7067 15.88 19.84 15.72C19.9867 15.56 20.06 15.38 20.06 15.18C20.06 14.9667 19.9867 14.78 19.84 14.62C19.7067 14.46 19.54 14.3667 19.34 14.34ZM8.5 17.66C8.32667 17.66 8.16667 17.6133 8.02 17.52C7.88667 17.4267 7.78667 17.3 7.72 17.14C7.65333 16.98 7.64 16.82 7.68 16.66C7.72 16.4867 7.8 16.34 7.92 16.22C8.04 16.1 8.18 16.0267 8.34 16C8.51333 15.96 8.68 15.98 8.84 16.06C9 16.1267 9.12 16.2333 9.2 16.38C9.29333 16.5133 9.34 16.6667 9.34 16.84C9.34 17.0667 9.25333 17.26 9.08 17.42C8.92 17.58 8.72667 17.66 8.5 17.66ZM10.16 14.34C9.93333 14.34 9.74 14.26 9.58 14.1C9.42 13.9267 9.34 13.7267 9.34 13.5V9.34C9.34 9.11333 9.42 8.92 9.58 8.76C9.74 8.58667 9.93333 8.5 10.16 8.5H15.16C15.3867 8.5 15.58 8.58667 15.74 8.76C15.9133 8.92 16 9.11333 16 9.34V13.5C16 13.7267 15.9133 13.9267 15.74 14.1C15.58 14.26 15.3867 14.34 15.16 14.34H10.16ZM16 17.66C15.8267 17.66 15.6667 17.6133 15.52 17.52C15.3867 17.4267 15.2867 17.3 15.22 17.14C15.1533 16.98 15.14 16.82 15.18 16.66C15.22 16.4867 15.3 16.34 15.42 16.22C15.54 16.1 15.68 16.0267 15.84 16C16.0133 15.96 16.18 15.98 16.34 16.06C16.5 16.1267 16.62 16.2333 16.7 16.38C16.7933 16.5133 16.84 16.6667 16.84 16.84C16.84 17.0667 16.7533 17.26 16.58 17.42C16.42 17.58 16.2267 17.66 16 17.66Z" fill="#000066"/>
</svg>
