<svg width="14" height="12" viewBox="0 0 14 12" fill="none" xmlns="http://www.w3.org/2000/svg">
<path d="M13.0744 0.0960396L0.528524 4.85412C-0.158638 5.05194 -0.137815 5.72869 0.372351 5.89527L3.51664 6.87396L4.72438 10.5596C4.87014 10.9657 4.99508 11.1115 5.24496 11.1219C5.50524 11.1219 5.60936 11.0282 5.88006 10.7887C6.20282 10.4868 6.68175 10.0182 7.4522 9.26861L10.7214 11.6841C11.3253 12.0173 11.7626 11.8403 11.9083 11.1219L13.949 0.981021C14.1677 0.0960396 13.6471 -0.164249 13.0744 0.0960396ZM4.00598 6.6449L11.1483 2.15753C11.5023 1.91806 11.6064 2.18876 11.4502 2.36576L5.52607 7.70688L5.22413 10.3722L4.00598 6.6449Z" fill="#64A9DC"/>
</svg>
