<svg width="22" height="22" viewBox="0 0 22 22" fill="none" xmlns="http://www.w3.org/2000/svg">
<path d="M13.58 11.52L11.84 10.52V6.84C11.84 6.61333 11.7533 6.42 11.58 6.26C11.42 6.08667 11.2267 6 11 6C10.7733 6 10.5733 6.08667 10.4 6.26C10.24 6.42 10.16 6.61333 10.16 6.84V11C10.16 11.1467 10.1933 11.2867 10.26 11.42C10.34 11.54 10.4467 11.64 10.58 11.72L12.74 12.98C12.8733 13.06 13.0133 13.1 13.16 13.1C13.3067 13.1 13.4467 13.06 13.58 12.98C13.7133 12.9 13.8133 12.8 13.88 12.68C13.96 12.5467 14 12.4067 14 12.26C14 12.1 13.96 11.96 13.88 11.84C13.8133 11.7067 13.7133 11.6 13.58 11.52ZM11 2.66C9.49333 2.66 8.09333 3.04 6.8 3.8C5.53333 4.53333 4.53333 5.53333 3.8 6.8C3.04 8.09333 2.66 9.49333 2.66 11C2.66 12.5067 3.04 13.9067 3.8 15.2C4.53333 16.4667 5.53333 17.4667 6.8 18.2C8.09333 18.96 9.49333 19.34 11 19.34C12.5067 19.34 13.9067 18.96 15.2 18.2C16.4667 17.4667 17.4667 16.4667 18.2 15.2C18.96 13.9067 19.34 12.5067 19.34 11C19.34 9.49333 18.96 8.09333 18.2 6.8C17.4667 5.53333 16.4667 4.53333 15.2 3.8C13.9067 3.04 12.5067 2.66 11 2.66ZM11 17.66C9.8 17.66 8.68 17.36 7.64 16.76C6.64 16.16 5.84 15.36 5.24 14.36C4.64 13.32 4.34 12.2 4.34 11C4.34 9.8 4.64 8.68 5.24 7.64C5.84 6.64 6.64 5.84 7.64 5.24C8.68 4.64 9.8 4.34 11 4.34C12.2 4.34 13.32 4.64 14.36 5.24C15.36 5.84 16.16 6.64 16.76 7.64C17.36 8.68 17.66 9.8 17.66 11C17.66 12.2 17.3533 13.32 16.74 14.36C16.1533 15.36 15.36 16.1533 14.36 16.74C13.32 17.3533 12.2 17.66 11 17.66Z" fill="#000066"/>
</svg>
