<svg width="16" height="10" viewBox="0 0 16 10" fill="none" xmlns="http://www.w3.org/2000/svg">
<path fill-rule="evenodd" clip-rule="evenodd" d="M7.83172 9.07868H8.78452C8.78452 9.07868 9.07704 9.04525 9.21913 8.88645C9.35285 8.74437 9.35285 8.46856 9.35285 8.46856C9.35285 8.46856 9.33614 7.18145 9.92955 6.99757C10.5146 6.8137 11.2752 8.23454 12.0692 8.78616C12.6709 9.20405 13.1306 9.11211 13.1306 9.11211L15.2702 9.07868C15.2702 9.07868 16.3902 9.01182 15.8553 8.13424C15.8135 8.05902 15.546 7.48233 14.2673 6.29551C12.93 5.05019 13.1055 5.25078 14.7186 3.10281C15.7048 1.79063 16.0976 0.988274 15.9723 0.645602C15.872 0.319645 15.1449 0.403224 15.1449 0.403224L12.7378 0.41994C12.7378 0.41994 12.5623 0.394866 12.4285 0.478445C12.3032 0.553665 12.2196 0.737538 12.2196 0.737538C12.2196 0.737538 11.8351 1.74884 11.3337 2.61806C10.2639 4.44007 9.82925 4.53201 9.65374 4.42335C9.2442 4.1559 9.3445 3.36191 9.3445 2.80193C9.3445 1.03842 9.61195 0.30293 8.82631 0.110699C8.56721 0.0438361 8.37498 0.00204682 7.70635 0.00204682C6.8455 -0.00631104 6.11836 0.00204681 5.70883 0.202635C5.43302 0.336361 5.22407 0.637244 5.34944 0.65396C5.50824 0.679033 5.86763 0.754254 6.05986 1.01335C6.31059 1.34766 6.29388 2.09987 6.29388 2.09987C6.29388 2.09987 6.43596 4.17262 5.95956 4.43171C5.63361 4.60723 5.19064 4.24784 4.23784 2.59298C3.74473 1.74048 3.37698 0.804401 3.37698 0.804401C3.37698 0.804401 3.31012 0.628886 3.1764 0.53695C3.02595 0.41994 2.80865 0.386508 2.80865 0.386508L0.518596 0.403224C0.518596 0.403224 0.175924 0.411582 0.0505562 0.562023C-0.058096 0.695749 0.0421983 0.971558 0.0421983 0.971558C0.0421983 0.971558 1.83078 5.15885 3.86174 7.27338C5.72554 9.20405 7.83172 9.07868 7.83172 9.07868Z" fill="#4E7DB2"/>
</svg>
