<svg width="22" height="22" viewBox="0 0 22 22" fill="none" xmlns="http://www.w3.org/2000/svg">
<path d="M16.84 6H14.34V5.16C14.34 4.69333 14.1733 4.3 13.84 3.98C13.52 3.66 13.1267 3.5 12.66 3.5H9.34C8.87333 3.5 8.47333 3.66 8.14 3.98C7.82 4.3 7.66 4.69333 7.66 5.16V6H5.16C4.70667 6 4.28667 6.11333 3.9 6.34C3.52667 6.56667 3.22667 6.87333 3 7.26C2.77333 7.63333 2.66 8.04667 2.66 8.5V16C2.66 16.4533 2.77333 16.8733 3 17.26C3.22667 17.6333 3.52667 17.9333 3.9 18.16C4.28667 18.3867 4.70667 18.5 5.16 18.5H16.84C17.2933 18.5 17.7067 18.3867 18.08 18.16C18.4667 17.9333 18.7733 17.6333 19 17.26C19.2267 16.8733 19.34 16.4533 19.34 16V8.5C19.34 8.04667 19.2267 7.63333 19 7.26C18.7733 6.87333 18.4667 6.56667 18.08 6.34C17.7067 6.11333 17.2933 6 16.84 6ZM9.34 5.16H12.66V6H9.34V5.16ZM17.66 16C17.66 16.2267 17.58 16.4267 17.42 16.6C17.26 16.76 17.0667 16.84 16.84 16.84H5.16C4.93333 16.84 4.74 16.76 4.58 16.6C4.42 16.4267 4.34 16.2267 4.34 16V11.32L8.24 12.66C8.33333 12.6733 8.42 12.6733 8.5 12.66H13.5C13.5933 12.66 13.68 12.6467 13.76 12.62L17.66 11.32V16ZM17.66 9.56L13.36 11H8.64L4.34 9.56V8.5C4.34 8.27333 4.42 8.08 4.58 7.92C4.74 7.74667 4.93333 7.66 5.16 7.66H16.84C17.0667 7.66 17.26 7.74667 17.42 7.92C17.58 8.08 17.66 8.27333 17.66 8.5V9.56Z" fill="#000066"/>
</svg>
