<svg width="20" height="14" viewBox="0 0 20 14" fill="none" xmlns="http://www.w3.org/2000/svg">
<path d="M19.1677 2.50223C18.9304 1.49348 18.1115 0.745825 17.1146 0.639016C14.7648 0.37793 12.3795 0.37793 10.0059 0.37793C7.63242 0.37793 5.24703 0.37793 2.88538 0.639016C1.88851 0.757692 1.06964 1.49348 0.832292 2.50223C0.5 3.95007 0.5 5.51659 0.5 7.00004C0.5 8.48349 0.5 10.05 0.832292 11.486C1.06964 12.4947 1.88851 13.2424 2.88538 13.3492C5.23517 13.6103 7.62055 13.6103 9.99407 13.6103C12.3676 13.6103 14.753 13.6103 17.1027 13.3492C18.0996 13.2424 18.9185 12.4947 19.1558 11.486C19.4881 10.05 19.4881 8.47162 19.4881 7.00004C19.5 5.51659 19.5 3.95007 19.1677 2.50223ZM8.01218 9.58717V4.31797L13.0322 6.95257L8.01218 9.58717Z" fill="#EC452E"/>
</svg>
