<svg width="104" height="33" viewBox="0 0 104 33" fill="none" xmlns="http://www.w3.org/2000/svg">
<path fill-rule="evenodd" clip-rule="evenodd" d="M0.572266 31.9062V2.12817H18.8148V8.66683H8.48575V13.8307H18.2238V20.2037H8.48575V31.9062H0.572266ZM21.5182 31.9066V11.374H28.3567V16.2124C29.0648 14.4421 30.0227 13.1229 31.2434 12.2421C32.4655 11.3598 33.9445 10.9158 35.6791 10.9158C35.9646 10.9158 36.2559 10.9229 36.5471 10.9429C36.8384 10.9643 37.1296 11 37.4294 11.0414L36.7213 17.6215C36.2916 17.4758 35.8604 17.3716 35.4435 17.3031C35.021 17.2389 34.6184 17.2046 34.2229 17.2046C32.4655 17.2046 31.1135 17.7457 30.1541 18.8221C29.2033 19.8986 28.725 21.4247 28.725 23.4035V31.9066H21.5182ZM52.9972 18.996C52.8573 17.8296 52.4133 16.8916 51.6637 16.1835C50.9071 15.4768 49.9834 15.1213 48.8798 15.1213C47.7006 15.1213 46.7569 15.4411 46.0545 16.0879C45.3606 16.7332 44.8952 17.7054 44.6597 18.996H52.9972ZM60.1174 23.0772H44.4988C44.5131 24.6619 44.9214 25.8826 45.7209 26.7434C46.5261 27.6029 47.6568 28.034 49.1216 28.034C50.2252 28.034 51.1489 27.827 51.9055 27.4173C52.655 27.0004 53.2318 26.3894 53.6273 25.577L59.0752 27.7713C58.4227 29.346 57.2721 30.561 55.6203 31.4147C53.9599 32.2685 51.9326 32.6996 49.5313 32.6996C45.9508 32.6996 43.0755 31.706 40.9169 29.7215C38.7511 27.7285 37.6689 25.1116 37.6689 21.8566C37.6689 18.6572 38.7511 15.9975 40.9097 13.8803C43.0755 11.763 45.8109 10.708 49.1144 10.708C52.5165 10.708 55.2034 11.7773 57.1678 13.9217C59.1323 16.0674 60.1174 19.0041 60.1174 22.7303V23.0772ZM61.1193 30.2015L62.6254 24.6622C63.6876 25.5844 64.8483 26.2911 66.1161 26.7922C67.3881 27.2848 68.6644 27.536 69.9493 27.536C70.8587 27.536 71.5526 27.389 72.0251 27.0977C72.5034 26.8065 72.739 26.3825 72.739 25.8271C72.739 24.9191 71.781 24.2381 69.8651 23.787C69.2412 23.6414 68.7344 23.5086 68.3589 23.4044C66.186 22.8076 64.617 22.0238 63.6319 21.0516C62.6526 20.0865 62.16 18.823 62.16 17.2826C62.16 15.2839 62.9095 13.6935 64.41 12.5C65.909 11.305 67.9363 10.7083 70.4975 10.7083C71.8153 10.7083 73.1558 10.861 74.5164 11.1665C75.8755 11.4735 77.2732 11.9446 78.6951 12.5828L77.1889 17.581C76.231 16.9285 75.2531 16.4274 74.258 16.0891C73.2672 15.7479 72.2821 15.5808 71.2885 15.5808C70.4618 15.5808 69.838 15.7136 69.4154 15.9706C68.9914 16.2276 68.7815 16.6016 68.7815 17.087C68.7815 17.8165 69.7323 18.4347 71.6339 18.9415C72.0722 19.0586 72.3992 19.15 72.6147 19.2057C75.1203 19.9209 76.8634 20.7661 77.8471 21.7312C78.8279 22.7048 79.319 24.0169 79.319 25.6672C79.319 27.7644 78.5152 29.4648 76.8977 30.7554C75.2873 32.0546 73.1487 32.6998 70.4975 32.6998C68.6915 32.6998 67.0183 32.4914 65.4708 32.0817C63.9232 31.6648 62.4727 31.0409 61.1193 30.2015ZM81.9264 31.907V0.378662H89.049V11.4444C89.049 12.1725 89.0275 12.8535 88.9876 13.4774C88.9447 14.1027 88.8891 14.6652 88.8063 15.1649C89.7143 13.6302 90.7836 12.5066 92.0128 11.7842C93.2491 11.0689 94.721 10.7078 96.4214 10.7078C97.7534 10.7078 98.9326 10.9233 99.9677 11.3473C101.003 11.7771 101.848 12.3881 102.496 13.1933C103.043 13.88 103.425 14.7266 103.654 15.7131C103.882 16.7053 104.001 18.1844 104.001 20.1488V31.907H96.754V20.9055C96.754 19.2608 96.4842 18.073 95.9488 17.3235C95.4149 16.5811 94.5597 16.2057 93.3805 16.2057C91.8743 16.2057 90.7779 16.761 90.0826 17.8717C89.3959 18.9824 89.049 20.787 89.049 23.2868V31.907H81.9264Z" fill="#5E5E5E"/>
<path fill-rule="evenodd" clip-rule="evenodd" d="M49.6376 7.83076C51.7191 3.90471 54.6458 2.40424 59.734 2.49561C57.5939 8.02064 54.6001 10.0765 48.6739 9.96939C48.0086 7.91785 46.8265 6.14184 44.8535 4.787C45.3432 4.04462 45.8329 3.30224 46.324 2.55843C48.0914 4.21737 49.0794 5.99194 49.6376 7.83076Z" fill="#5E5E5E"/>
</svg>
