<svg width="162" height="38" viewBox="0 0 162 38" fill="none" xmlns="http://www.w3.org/2000/svg">
<path fill-rule="evenodd" clip-rule="evenodd" d="M72.2379 28.3028L65.3939 18.0723H63.4893V35.0434H65.7361V22.3869L71.5522 31.0995H72.9235L78.7396 22.3869V35.0434H80.9864V18.0723H79.0818L72.2379 28.3028Z" fill="#5E5E5E"/>
<path fill-rule="evenodd" clip-rule="evenodd" d="M92.8365 18.073L85.4424 35.0441H87.8786L89.5998 31.0046H98.4534L100.174 35.0441H102.587L95.2167 18.073H92.8365ZM94.0179 20.5723C94.0666 20.6949 94.1153 20.8147 94.171 20.9398L97.5655 28.9003H90.4933L93.8643 20.9415C93.9206 20.8149 93.9692 20.6951 94.0179 20.5723Z" fill="#5E5E5E"/>
<path fill-rule="evenodd" clip-rule="evenodd" d="M117.629 32.6018C116.837 32.9693 115.762 33.1791 114.665 33.1791C113.005 33.1791 107.59 32.7016 107.59 26.5582C107.59 21.6711 111.375 19.937 114.617 19.937C116.398 19.937 118.056 20.3635 119.286 21.1379L119.469 21.2534V18.9549L119.403 18.9218C117.938 18.1893 116.137 17.7859 114.33 17.7859C111.973 17.7859 109.774 18.5655 108.138 19.9811C106.294 21.578 105.318 23.8523 105.318 26.5582C105.318 28.0857 105.582 29.4526 106.103 30.621C106.582 31.6982 107.282 32.6143 108.183 33.3439C110.211 34.9859 112.749 35.3306 114.521 35.3306C116.344 35.3306 118.221 34.9278 119.806 34.1963L119.875 34.1642V25.9126H117.629V32.6018Z" fill="#5E5E5E"/>
<path fill-rule="evenodd" clip-rule="evenodd" d="M137.877 31.1958L127.993 18.0723H125.949V35.0434H128.197V21.8964L138.08 35.0434H140.124V18.0723H137.877V31.1958Z" fill="#5E5E5E"/>
<path fill-rule="evenodd" clip-rule="evenodd" d="M154.38 18.144L154.349 18.072H151.968L144.574 35.0432H147.01L148.732 31.0036H157.585L159.306 35.0432H161.719L154.38 18.144ZM153.15 20.5723C153.198 20.6949 153.247 20.8147 153.303 20.9398L156.697 28.9003H149.625L152.996 20.9415C153.052 20.8149 153.101 20.6951 153.15 20.5723Z" fill="#5E5E5E"/>
<path fill-rule="evenodd" clip-rule="evenodd" d="M37.7784 10.8524C37.231 10.8524 36.6935 10.8845 36.1633 10.9511C35.8354 10.5319 35.4754 10.125 35.0882 9.73787L25.6194 0.269043L16.1506 9.73787C15.7634 10.125 15.4034 10.5319 15.0755 10.9511C14.5454 10.8845 14.0078 10.8524 13.4603 10.8524H0.0683594V24.2444C0.0683594 31.6271 6.07522 37.6363 13.4603 37.6363H37.7784C45.1636 37.6363 51.1704 31.6271 51.1704 24.2444V10.8524H37.7784ZM13.4574 15.5381H12.7423C11.4601 20.058 12.5943 25.1253 16.1476 28.6761L20.4234 32.9519L22.1643 34.6952L22.6402 35.1711H13.4574C7.43341 35.1711 2.53125 30.269 2.53125 24.245V13.3188H13.5881C14.4882 13.3312 15.3635 13.4495 16.1994 13.669C19.156 14.4334 21.6317 16.411 23.0593 19.0347C23.9028 20.5832 24.3835 22.3586 24.3835 24.245V33.4253L17.891 26.9327C14.8654 23.9072 13.9876 19.5352 15.2624 15.728C14.6804 15.6022 14.0764 15.5381 13.4574 15.5381ZM25.6212 18.6328C25.2539 17.8387 24.81 17.0842 24.297 16.3839C22.6943 14.177 20.4331 12.478 17.8046 11.5755C17.8341 11.5435 17.8637 11.5139 17.8958 11.4818L25.6212 3.75635L33.3467 11.4818C33.3787 11.5139 33.4084 11.5435 33.438 11.5755C30.8094 12.478 28.5482 14.177 26.9454 16.3839C26.4325 17.0842 25.9887 17.8387 25.6212 18.6328ZM48.7087 24.2447C48.7087 30.2688 43.8066 35.1708 37.7825 35.1708H28.5997L29.0757 34.695L30.8165 32.9516L35.0923 28.6758C38.6456 25.125 39.7799 20.0578 38.4976 15.5379H37.7825C37.1637 15.5379 36.5595 15.602 35.9776 15.7277C37.2524 19.535 36.3745 23.9069 33.349 26.9325L26.8564 33.425V24.2447C26.8564 22.3583 27.3373 20.5829 28.1806 19.0344C29.6083 16.4108 32.084 14.4332 35.0405 13.6688C35.8764 13.4493 36.7518 13.3309 37.6518 13.3186H48.7087V24.2447Z" fill="#5E5E5E"/>
</svg>
