<svg width="159" height="82" viewBox="0 0 159 82" fill="none" xmlns="http://www.w3.org/2000/svg">
<path fill-rule="evenodd" clip-rule="evenodd" d="M68.8155 0L37.145 31.5716L68.8155 63.2523H51.0547L19.4907 31.5716L51.0547 0H68.8155Z" fill="black"/>
<path fill-rule="evenodd" clip-rule="evenodd" d="M32.1158 50.6232L44.7415 63.2523H0.551758V0H44.7415L32.1158 12.6291H13.1775V50.6232H32.1158Z" fill="#CC222D"/>
<path fill-rule="evenodd" clip-rule="evenodd" d="M75.1274 63.2523H84.007V55.4385L87.1112 51.0529L92.7808 63.2523H103.267L93.3162 43.2382L101.34 31.5716H92.4602L84.007 44.7353V31.5716H75.1274V63.2523ZM134.83 63.2523H158.797V55.8682H144.032V50.5158H156.015V43.6662H144.032V38.9574H158.584V31.5716H134.83V63.2523ZM131.086 53.7274V52.764L130.979 52.6549V52.2286L130.871 52.1211V51.9063L130.766 51.8006V51.48L130.658 51.3726V51.1577L130.549 51.052L130.443 50.8355V50.7297L130.336 50.6223L130.228 50.4075V50.3018L130.123 50.1943L130.015 50.0869V49.8738L129.908 49.7663L129.802 49.6589L129.695 49.5532L129.587 49.4458L129.48 49.3367L129.374 49.2309L129.267 49.1235L129.159 48.9104L129.052 48.8029L128.944 48.6955H128.837L128.73 48.5881L128.624 48.4824L128.516 48.3749L128.303 48.2675L128.196 48.1601L128.088 48.0544L127.983 47.9453H127.768L127.662 47.8378L127.555 47.7321L127.338 47.6247H127.232L127.125 47.5173L126.912 47.4098H126.806L126.593 47.3041H126.486L126.271 47.1967H126.058L125.948 47.0893H125.735L125.522 46.9836H125.415L125.2 46.8761H124.987L125.2 46.7687H125.522L125.628 46.6613H125.843L125.948 46.5556H126.058L126.271 46.4481L126.378 46.3407H126.486L126.699 46.2333H126.806L126.914 46.1259L127.019 46.0185H127.234L127.34 45.911L127.447 45.8053L127.479 45.7757L127.556 45.6979H127.664L127.77 45.5905L127.877 45.4847L127.984 45.3773L128.09 45.2699L128.198 45.1625L128.305 45.0567L128.411 44.9493H128.518L128.626 44.8402L128.731 44.7328L128.839 44.6271L128.946 44.5196L129.054 44.3065V44.1991L129.161 44.0916L129.268 43.9842L129.376 43.8785V43.7711L129.482 43.6636L129.589 43.5579V43.3431L129.696 43.2357V43.1282L129.804 43.0208V42.9134L129.91 42.7002V42.5928L130.017 42.4871V42.2723L130.124 42.1648V41.8476L130.23 41.7419V41.3122L130.338 41.0974V38.5294L130.23 38.422V37.8883L130.124 37.7809V37.4603L130.017 37.3529V37.1397L129.91 37.0323V36.8192L129.804 36.7117V36.4969L129.696 36.3912V36.2821L129.589 36.1746V36.0689L129.482 35.9615V35.7466H129.376V35.6409L129.268 35.5335V35.4261L129.161 35.3203L129.054 35.2129V35.1055H128.946V34.9981L128.839 34.8924V34.7849L128.731 34.6775H128.626V34.5718L128.518 34.4644V34.3569H128.411L128.305 34.2495V34.1421H128.198L128.09 34.0347L127.984 33.9273L127.877 33.8215L127.77 33.7141L127.664 33.6067L127.556 33.4993H127.447V33.3935H127.34L127.234 33.2861L127.127 33.1787H127.019V33.073H126.914L126.806 32.9655H126.699L126.593 32.8581L126.486 32.7507H126.378L126.271 32.645H126.165L126.058 32.5375H125.948L125.843 32.4301H125.735L125.628 32.3244H125.415L125.307 32.217H125.094L124.987 32.1096H124.774L124.666 32.0021H124.344L124.237 31.8964H123.809L123.703 31.789H123.062L122.954 31.6816H121.455L121.346 31.5741H104.657V63.2549H121.026L121.346 63.1474H122.311L122.632 63.04H123.275L123.488 62.9326H123.809L124.023 62.8252H124.344L124.559 62.7194L124.879 62.612H125.094L125.415 62.5046L125.628 62.3989H125.843L126.058 62.2915L126.378 62.184L126.593 62.0766L126.806 61.9709L127.019 61.8635L127.234 61.756L127.447 61.6486L127.556 61.5412L127.77 61.4338L127.984 61.2206L128.198 61.1132L128.305 61.0058L128.518 60.7926L128.731 60.6852L128.839 60.5778L129.054 60.3646L129.161 60.2572L129.268 60.0424L129.482 59.935L129.589 59.7218L129.696 59.6144L129.804 59.4012L129.91 59.1864L130.017 58.9732L130.124 58.8658L130.23 58.6527L130.338 58.4361L130.445 58.223L130.551 58.0081L130.66 57.795V57.5802L130.767 57.367L130.873 57.1505V56.9373L130.98 56.7242V56.1888L131.088 55.9756V55.2254L131.194 55.0105V53.8323L131.086 53.7274ZM113.646 38.422H118.887L118.995 38.5294H119.423L119.53 38.6369H119.745L119.853 38.7426H120.066V38.85H120.173L120.281 38.9574H120.386V39.0648H120.494V39.1706H120.601L120.707 39.278V39.3854H120.814V39.4911H120.922V39.5986L121.027 39.706V39.8134L121.135 39.9191V40.134H121.242V40.5628L121.348 40.6685V41.5254L121.242 41.6328V41.9551L121.135 42.0625V42.2756H121.027V42.4905H120.922V42.5962L120.814 42.7036L120.707 42.8111V42.9168H120.601V43.0242H120.494L120.386 43.1316H120.281V43.239H120.173L120.066 43.3465H119.958L119.853 43.4539H119.745L119.636 43.5613H119.315L119.208 43.667H113.646V38.422ZM121.669 54.5825H121.564V54.6899L121.456 54.7974V54.9048L121.347 55.0105V55.1179H121.241V55.2254H121.134V55.3311H121.027V55.4385H120.921V55.5476H120.813L120.706 55.655L120.6 55.7608H120.493L120.385 55.8682H120.28L120.172 55.9756H119.957V56.0813H119.635L119.529 56.1888H118.887L118.781 56.2962H113.645V50.5158H119.422L119.529 50.6232H119.852L119.957 50.7306H120.172V50.8363H120.385V50.9454H120.6V51.0529H120.706L120.813 51.1586L120.921 51.266H121.027V51.3734H121.134V51.4809L121.241 51.5866L121.347 51.694V51.8014H121.456V52.0146H121.564V52.122L121.669 52.2294V52.5517H121.777V54.1579L121.669 54.2636V54.5825ZM153.866 0C154.694 0 155.504 0.212306 156.293 0.63776C157.072 1.05303 157.713 1.68722 158.137 2.46222C158.577 3.25308 158.797 4.07861 158.797 4.93714C158.797 5.7872 158.581 6.60427 158.146 7.38921C157.726 8.16034 157.093 8.79449 156.322 9.21621C155.573 9.64134 154.727 9.86569 153.866 9.8675C153.005 9.86609 152.16 9.6417 151.411 9.21621C150.641 8.7939 150.007 8.15997 149.584 7.38921C149.148 6.60427 148.931 5.78635 148.931 4.93714C148.931 4.07861 149.152 3.25308 149.595 2.46222C150.019 1.68686 150.661 1.05266 151.442 0.63776C152.23 0.212306 153.038 0 153.866 0ZM153.866 0.81623C153.174 0.81623 152.498 0.993856 151.842 1.34911C151.193 1.69797 150.658 2.22732 150.303 2.8733C149.941 3.50074 149.749 4.21198 149.748 4.93629C149.748 5.64763 149.928 6.32853 150.293 6.98067C150.648 7.62367 151.178 8.15239 151.822 8.50486C152.474 8.86942 153.158 9.05127 153.867 9.05127C154.577 9.05127 155.259 8.86942 155.916 8.50486C156.558 8.15147 157.086 7.62286 157.439 6.98067C157.794 6.35756 157.981 5.65326 157.983 4.93629C157.983 4.22156 157.798 3.53305 157.43 2.8733C157.075 2.22631 156.539 1.69668 155.888 1.34911C155.23 0.993856 154.556 0.81623 153.866 0.81623ZM151.702 7.65818V2.35565H153.527C154.151 2.35565 154.602 2.40555 154.882 2.50367C155.159 2.60178 155.384 2.77265 155.549 3.01625C155.714 3.259 155.799 3.51867 155.799 3.79272C155.799 4.18011 155.66 4.5176 155.383 4.80434C155.104 5.09192 154.735 5.25263 154.277 5.28731C154.464 5.36597 154.615 5.45901 154.728 5.56897C154.941 5.77789 155.203 6.12722 155.513 6.62034L156.161 7.65818H155.12L154.646 6.8225C154.275 6.16444 153.977 5.75336 153.749 5.58758C153.591 5.46663 153.364 5.40657 153.062 5.40911H152.558V7.65818H151.702ZM152.558 4.67239H153.598C154.095 4.67239 154.434 4.5988 154.615 4.45163C154.703 4.38196 154.773 4.29286 154.82 4.1914C154.867 4.08994 154.89 3.97891 154.886 3.86715C154.888 3.71706 154.843 3.57009 154.758 3.44677C154.666 3.32101 154.54 3.22485 154.394 3.17019C154.238 3.10929 153.952 3.07968 153.533 3.07968H152.557V4.67239H152.558ZM0.56543 76.6537C0.56543 75.7157 0.704147 74.9257 0.98158 74.2896C1.18862 73.8221 1.47669 73.3948 1.83249 73.0276C2.19112 72.6546 2.58528 72.378 3.01243 72.197C3.58167 71.956 4.2372 71.8333 4.98153 71.8333C6.32641 71.8333 7.40231 72.2545 8.21008 73.097C9.0187 73.9377 9.42216 75.1092 9.42216 76.6089C9.42216 78.0959 9.02123 79.2589 8.22023 80.0979C7.41922 80.937 6.34755 81.3582 5.00606 81.3582C3.6485 81.3582 2.56921 80.9421 1.76651 80.1047C0.965509 79.269 0.56543 78.1196 0.56543 76.6537ZM2.45841 76.5894C2.45841 77.6433 2.69862 78.4401 3.17821 78.9848C3.65695 79.527 4.26595 79.7994 5.00352 79.7994C5.74109 79.7994 6.34671 79.5304 6.81953 78.9916C7.29235 78.4511 7.52834 77.6433 7.52834 76.5649C7.52834 75.4991 7.29827 74.7049 6.83814 74.1796C6.378 73.6561 5.76646 73.3947 5.00437 73.3947C4.24227 73.3947 3.62735 73.6586 3.16045 74.189C2.69355 74.7193 2.45841 75.5203 2.45841 76.5894ZM10.9151 71.9999H12.7539V75.9001C13.1717 75.8569 13.4534 75.7529 13.6006 75.5863C13.7486 75.4179 13.9753 74.9502 14.2832 74.1839C14.6706 73.2078 15.0605 72.6013 15.4521 72.3636C15.8395 72.126 16.4654 72.0067 17.3282 72.0067C17.3705 72.0067 17.4601 72.005 17.5997 71.9999V73.3381L17.3366 73.3296C16.956 73.3296 16.6777 73.3761 16.5026 73.47C16.3231 73.5664 16.1753 73.7127 16.0772 73.8912C15.9681 74.0815 15.8082 74.4681 15.5942 75.0576C15.5002 75.3309 15.3775 75.5935 15.228 75.8409C15.096 76.0506 14.8626 76.2469 14.5293 76.4321C14.9446 76.5497 15.288 76.7857 15.5595 77.1409C15.831 77.4962 16.1279 77.9986 16.451 78.6457L17.7113 81.1916H15.5367L14.4253 78.7861C14.4075 78.7531 14.3728 78.6871 14.3178 78.5898C14.2359 78.4456 14.1561 78.3001 14.0785 78.1534C13.8332 77.6992 13.6319 77.415 13.4745 77.3008C13.3172 77.1866 13.077 77.1291 12.7539 77.1257V81.1916H10.9151V71.9999ZM18.3398 76.6537C18.3398 75.7157 18.4794 74.9257 18.7568 74.2896C18.9632 73.822 19.251 73.3947 19.6068 73.0276C19.9655 72.6546 20.3596 72.378 20.7868 72.197C21.3569 71.956 22.0132 71.8333 22.7559 71.8333C24.1008 71.8333 25.1775 72.2545 25.9844 73.097C26.7922 73.9377 27.1965 75.1092 27.1965 76.6089C27.1965 78.0959 26.7964 79.2589 25.9946 80.0979C25.1936 80.937 24.1228 81.3582 22.7804 81.3582C21.4229 81.3582 20.3436 80.9421 19.5426 80.1047C18.7407 79.269 18.3398 78.1196 18.3398 76.6537ZM20.2345 76.5894C20.2345 77.6433 20.4738 78.4401 20.9534 78.9848C21.433 79.527 22.0412 79.7994 22.7787 79.7994C23.5171 79.7994 24.1219 79.5304 24.5947 78.9916C25.0676 78.4511 25.3035 77.6433 25.3035 76.5649C25.3035 75.4991 25.0735 74.7049 24.6133 74.1796C24.1524 73.6561 23.5417 73.3947 22.7787 73.3947C22.0166 73.3947 21.4017 73.6586 20.9348 74.189C20.4671 74.7193 20.2345 75.5203 20.2345 76.5894ZM28.6911 81.1916V71.9999H30.5291V75.6209H34.2059V71.9999H36.0431V81.1916H34.2059V77.1807H30.5291V81.1916H28.6911ZM37.9352 81.1916V71.9999H39.7741V75.6209H43.4501V71.9999H45.2889V81.1916H43.4501V77.1807H39.7741V81.1916H37.9352ZM47.1802 71.9999H49.0182V75.6776H51.5405C52.2036 75.6776 52.7737 75.7664 53.2507 75.9432C53.7278 76.12 54.1262 76.4372 54.4451 76.8948C54.7639 77.3524 54.9238 77.8776 54.9238 78.4723C54.9238 79.0948 54.7589 79.6302 54.4298 80.0793C54.1008 80.5285 53.7346 80.8245 53.3311 80.9717C52.9285 81.1189 52.3381 81.1916 51.5625 81.1916H47.181V71.9999H47.1802ZM49.0182 79.6328H50.8841C51.4787 79.6328 51.8932 79.6048 52.1283 79.5499C52.3635 79.494 52.5707 79.3663 52.7551 79.1684C52.9386 78.9738 53.03 78.7302 53.03 78.446C53.03 78.0443 52.8803 77.7406 52.5817 77.5393C52.2823 77.338 51.7435 77.2373 50.9636 77.2373H49.019V79.6328H49.0182ZM55.9819 71.9999H57.8199V81.1916H55.9819V71.9999ZM59.7171 81.1916V71.9999H66.5126V73.5597H61.556V75.5668H66.1793V77.1265H61.556V79.6328H66.6801V81.1916H59.7171ZM73.857 81.1916V73.5597H71.1275V71.9999H78.4245V73.5597H75.695V81.1916H73.857ZM79.6095 81.1916V71.9999H86.4058V73.5597H81.4483V75.5668H86.07V77.1265H81.4483V79.6328H86.5724V81.1916H79.6095ZM87.222 81.1916L90.3676 76.3881L87.5536 71.9999H89.7282L91.4757 74.6964L93.2401 71.9999H95.353L92.5414 76.3416L95.6871 81.1916H93.4482L91.4342 78.051L89.4008 81.1916H87.222ZM96.6683 81.1916V71.9999H98.5071V75.6209H102.184V71.9999H104.021V81.1916H102.184V77.1807H98.5071V81.1916H96.6683ZM105.523 76.6537C105.523 75.7157 105.664 74.9257 105.941 74.2896C106.148 73.8219 106.436 73.3946 106.792 73.0276C107.125 72.6735 107.526 72.3908 107.972 72.197C108.542 71.956 109.196 71.8333 109.941 71.8333C111.286 71.8333 112.363 72.2545 113.169 73.097C113.978 73.9377 114.382 75.1092 114.382 76.6089C114.382 78.0959 113.98 79.2589 113.179 80.0979C112.378 80.937 111.305 81.3582 109.964 81.3582C108.607 81.3582 107.527 80.9421 106.726 80.1047C105.924 79.269 105.523 78.1196 105.523 76.6537ZM107.418 76.5894C107.418 77.6433 107.657 78.4401 108.137 78.9848C108.616 79.527 109.226 79.7994 109.962 79.7994C110.701 79.7994 111.305 79.5304 111.777 78.9916C112.252 78.4511 112.486 77.6433 112.486 76.5649C112.486 75.4991 112.258 74.7049 111.798 74.1796C111.337 73.6561 110.725 73.3947 109.962 73.3947C109.201 73.3947 108.586 73.6586 108.118 74.189C107.652 74.7193 107.418 75.5203 107.418 76.5894ZM116.537 71.9999H122.948V81.1916H121.111V73.5597H118.38V77.4539C118.38 78.5704 118.342 79.3485 118.267 79.7901C118.19 80.2324 118.006 80.5767 117.714 80.8228C117.423 81.069 116.966 81.1933 116.343 81.1933C116.123 81.1933 115.727 81.1722 115.151 81.1273V79.6336L115.563 79.6387C115.95 79.6387 116.21 79.5888 116.343 79.4847C116.475 79.3807 116.543 79.1278 116.543 78.7268L116.536 77.1705V71.9999H116.537ZM124.472 76.6537C124.472 75.7157 124.612 74.9257 124.89 74.2896C125.096 73.8223 125.384 73.3951 125.739 73.0276C126.072 72.6736 126.474 72.391 126.92 72.197C127.488 71.956 128.145 71.8333 128.887 71.8333C130.232 71.8333 131.309 72.2545 132.118 73.097C132.924 73.9377 133.328 75.1092 133.328 76.6089C133.328 78.0959 132.929 79.2589 132.126 80.0979C131.325 80.937 130.255 81.3582 128.913 81.3582C127.556 81.3582 126.475 80.9421 125.674 80.1047C124.873 79.269 124.472 78.1196 124.472 76.6537ZM126.366 76.5894C126.366 77.6433 126.606 78.4401 127.085 78.9848C127.564 79.527 128.174 79.7994 128.911 79.7994C129.647 79.7994 130.254 79.5304 130.726 78.9916C131.199 78.4511 131.436 77.6433 131.436 76.5649C131.436 75.4991 131.205 74.7049 130.744 74.1796C130.283 73.6561 129.672 73.3947 128.911 73.3947C128.148 73.3947 127.533 73.6586 127.067 74.189C126.599 74.7193 126.366 75.5203 126.366 76.5894ZM134.878 71.9999H141.063V73.5597H136.716V81.1916H134.878V71.9999ZM142.064 71.9999H143.848V77.9462L147.467 71.9999H149.361V81.1916H147.58V75.3554L143.959 81.1916H142.064V71.9999ZM151.252 71.9999H153.035V77.9462L156.655 71.9999H158.549V81.1916H156.766V75.3554L153.147 81.1916H151.252V71.9999Z" fill="black"/>
</svg>
