<svg width="120" height="120" viewBox="0 0 120 120" fill="none" xmlns="http://www.w3.org/2000/svg">
<g clip-path="url(#clip0_424_889)">
<path fill-rule="evenodd" clip-rule="evenodd" d="M0 0H120V120H0V0Z" fill="white"/>
<path fill-rule="evenodd" clip-rule="evenodd" d="M60.0012 7.34595L107.631 54.9759L60.0012 102.681L12.3706 54.9765L60.0012 7.34595ZM31.4972 43.2178H25.6925V49.0225L19.7391 54.9759L25.6925 61.0788V66.7346H31.3484L60.0012 95.3127L88.5787 66.7346H94.3092V60.93L100.263 54.9765L94.3092 49.0972V43.2178H88.4305L60.0012 14.7138L31.4972 43.2178Z" fill="#33348E"/>
<path fill-rule="evenodd" clip-rule="evenodd" d="M85.6015 43.2922H34.3246L60.0004 17.6165L85.6015 43.2922ZM94.3084 58.028V51.9998L97.3596 54.9762L94.3084 58.028ZM34.1752 66.6608H85.7503L60.0004 92.4107L34.1752 66.6608ZM25.6917 51.9251V58.1767L22.6406 54.9762L25.6917 51.9251Z" fill="#33348E"/>
<path fill-rule="evenodd" clip-rule="evenodd" d="M14.8257 59.9625L9.83968 54.9759L60.0003 4.81589L110.16 54.9765L105.174 59.9631L110.16 64.9491L60.0003 115.184L9.83968 64.9491L14.8257 59.9625ZM108.3 60.0372L113.286 65.0238L60.0003 118.236L6.71387 65.0238L11.6999 60.0372L6.71387 55.0512L60.0003 1.76416L113.286 55.0506L108.3 60.0372Z" fill="#33348E"/>
<path fill-rule="evenodd" clip-rule="evenodd" d="M60.0012 104.988L103.835 61.2283L107.631 64.9486L60.0012 112.653L12.3706 64.9486L16.1663 61.2283L60.0012 104.988Z" fill="#33348E"/>
<path fill-rule="evenodd" clip-rule="evenodd" d="M89.3972 64.8744H83.3965L83.0634 62.4184H79.7303L79.3972 64.8744H73.3965L77.397 44.7063H84.73L89.3972 64.8744ZM82.7964 57.1342L81.3303 52.4458L79.9301 57.1342H82.7964ZM58.418 64.8744V44.7063H63.8628V50.7344L66.8205 44.7063H72.736L68.4335 54.6042L73.0043 64.8744H67.3578L63.8628 58.5487V64.8744H58.418ZM46.0187 64.8744V44.7063H56.2814V49.4688H51.9572V52.5946H55.8201V56.7626H51.9572V60.0372H56.5117V64.8744H46.0187ZM34.0352 64.8744L29.5454 44.7063H35.1938L37.3659 53.6368L40.0453 44.7063H45.6202L39.9725 64.8744H34.0352Z" fill="#33348E"/>
</g>
<defs>
<clipPath id="clip0_424_889">
<rect width="120" height="120" fill="white"/>
</clipPath>
</defs>
</svg>
