<svg width="228" height="54" viewBox="0 0 228 54" fill="none" xmlns="http://www.w3.org/2000/svg">
<g clip-path="url(#clip0_424_886)">
<path fill-rule="evenodd" clip-rule="evenodd" d="M173.48 18.8845C173.48 15.1923 175.344 14.2448 178.264 14.925V25.6487H173.48V18.8845ZM160.281 13.9351V52.5405C160.281 52.9206 160.396 53.0354 160.776 53.0354H173.48V33.5677H178.264V53.0354H191.462V6.51099H166.055C163.872 6.51099 162.626 7.43864 161.728 8.78274C160.88 10.0521 160.281 11.9011 160.281 13.9351V13.9351ZM75.9762 25.4837V14.595C78.5634 14.595 79.5003 14.1822 80.1394 16.7011C80.9805 20.016 81.0196 26.6587 75.9762 25.4837ZM62.7778 52.5405C62.7778 52.9206 62.8926 53.0354 63.2728 53.0354H75.9762V33.5677C77.8328 33.5677 80.7607 32.459 80.7607 37.1973V52.7055H94.1241V33.8977C94.1241 31.5751 92.964 29.47 90.6595 29.2783C91.294 28.8374 93.7941 27.8567 93.7941 25.3188V14.595C93.7941 12.5034 92.644 10.1281 91.611 9.02411C90.3276 7.65275 88.7884 6.511 86.2051 6.511H62.7778V52.5405V52.5405ZM124.48 53.0354H137.679V33.5677H142.463V53.0354H155.167C155.547 53.0354 155.662 52.9206 155.662 52.5405V6.51099H142.463V25.6487H137.679V6.51099H124.48V53.0354ZM220.499 15.9149C218.873 15.9149 217.034 14.3529 217.034 12.9452C217.034 11.4926 216.879 10.8165 218.14 9.59662C220.236 7.56912 224.294 8.89821 224.294 12.2853C224.294 14.3628 222.609 15.9149 220.499 15.9149ZM196.082 43.3016C196.082 46.8541 197.098 50.4001 200.323 51.929C204.36 53.8431 218.987 53.9108 223.088 51.9947C225.947 50.6589 227.263 47.5896 227.263 43.4666V6.51099H214.065V41.8167C214.065 44.8295 213.068 45.4464 211.26 45.4464C209.795 45.4464 209.28 43.3475 209.28 41.8167V6.51099H196.082V43.3016H196.082ZM98.5786 53.0354L120.356 52.8705V44.9514H111.777V33.5677H120.356V25.6487H111.777V14.43H120.356V6.51099H98.5786V53.0354Z" fill="#5A5E5E"/>
<path fill-rule="evenodd" clip-rule="evenodd" d="M221.159 12.4502C221.489 13.0734 221.991 13.5867 222.149 14.2649C221.109 14.1784 221.371 13.3178 220.739 12.7053C220.342 12.3203 220.67 12.4502 219.839 12.4502V14.2649H219.179V10.1404C220.379 10.1404 222.314 9.85862 222.314 11.2953C222.314 12.1134 221.927 12.3863 221.159 12.4502ZM217.529 11.9552C217.529 14.1333 218.774 15.5697 220.644 15.5286C224.782 15.4375 224.794 8.9856 220.499 8.9856C219.01 8.9856 217.529 10.4188 217.529 11.9552Z" fill="#5A5E5E"/>
<path fill-rule="evenodd" clip-rule="evenodd" d="M219.839 12.1201H220.664C222.099 12.1201 221.999 10.6353 221.159 10.6353H219.839V12.1201Z" fill="#5A5E5E"/>
<path fill-rule="evenodd" clip-rule="evenodd" d="M11.7988 45.4459C11.9612 46.0539 11.871 45.7829 12.2833 46.1163L14.537 47.8222C15.1116 48.2019 15.5357 48.5359 16.1425 48.8563C22.5872 52.2601 29.6787 53.2539 36.4929 49.8474C38.4575 48.8653 41.5523 46.8717 42.9563 45.0922C43.1807 44.8078 43.3386 44.6793 43.6013 44.4174C46.5301 41.4963 48.4244 35.9422 48.4244 31.4226C47.1249 32.2929 44.9152 34.2106 43.0466 35.4486L37.2378 39.0437C35.9231 39.8401 34.3406 40.5253 32.9117 41.1519C27.6253 43.4698 23.7414 44.3818 17.9536 45.1665C16.0334 45.4268 14.1143 45.4459 11.7988 45.4459V45.4459Z" fill="#E9128B"/>
<path fill-rule="evenodd" clip-rule="evenodd" d="M0.0854492 25.3185C0.0854492 29.9902 0.747845 33.7929 3.15134 37.4308C3.66819 38.2131 5.30341 40.4392 5.98232 41.034C6.78955 41.7413 8.97258 43.599 9.81924 43.7963C9.13683 40.8671 8.99438 35.0725 8.99438 31.7527C8.99438 24.862 10.3881 19.5249 12.3972 13.8731C12.7638 12.8418 13.1952 11.7919 13.668 10.8545C14.3233 9.55546 14.1734 9.56883 15.0913 7.98823C15.612 7.09159 16.0985 6.10744 16.5834 5.19092C14.3809 5.70403 12.1961 6.85387 10.303 7.98435C9.78543 8.29343 9.44913 8.55485 8.92638 8.91747L6.40008 11.0106C5.92237 11.4143 5.79694 11.7697 5.32437 12.2446C2.87949 14.7016 0.0854492 20.4446 0.0854492 25.3185V25.3185Z" fill="#A4CC3A"/>
<path fill-rule="evenodd" clip-rule="evenodd" d="M19.7178 2.88121V3.21114C20.7131 3.29397 23.5359 4.65463 24.5977 5.09544C26.0656 5.7048 27.825 6.63213 29.2325 7.38983C33.3657 9.615 37.7437 12.7406 41.0415 16.0384C43.8622 18.8591 43.4347 18.384 45.9879 21.4857C46.5426 22.1596 46.9435 22.7832 47.4596 23.4786L50.2391 27.6282C50.5306 27.0207 50.899 23.4103 50.899 22.3488C50.899 16.97 48.7727 10.8565 45.0849 7.21048C44.6328 6.76345 44.3077 6.41237 43.8495 5.97123L42.4181 4.76294C39.5101 2.56956 34.8109 0.406494 30.9364 0.406494C27.5018 0.406494 24.735 0.495398 21.6397 1.99851C20.9934 2.31235 20.3994 2.7224 19.7178 2.88121L19.7178 2.88121Z" fill="#BCBEBE"/>
</g>
<defs>
<clipPath id="clip0_424_886">
<rect width="227.349" height="53.1871" fill="white" transform="translate(0 0.406494)"/>
</clipPath>
</defs>
</svg>
