<svg width="37" height="38" viewBox="0 0 37 38" fill="none" xmlns="http://www.w3.org/2000/svg">
<path fill-rule="evenodd" clip-rule="evenodd" d="M18.1264 33.0082C26.2076 33.0082 32.7586 26.4572 32.7586 18.376C32.7586 12.2249 28.963 6.96026 23.5862 4.79643L25.0213 1.60699C31.6126 4.32003 36.2529 10.8061 36.2529 18.376C36.2529 28.387 28.1374 36.5025 18.1264 36.5025C16.6653 36.5025 15.2445 36.3296 13.8834 36.0031L16.2233 32.8856C16.8462 32.9665 17.4815 33.0082 18.1264 33.0082ZM22.0263 0.670142C20.7701 0.394732 19.4652 0.249588 18.1264 0.249588C8.11548 0.249588 0 8.36507 0 18.376C0 25.91 4.59638 32.3705 11.1379 35.1062L12.3473 31.8227C7.14014 29.5817 3.49425 24.4047 3.49425 18.376C3.49425 10.2949 10.0453 3.74384 18.1264 3.74384C18.7822 3.74384 19.4278 3.78698 20.0608 3.87056L22.0263 0.670142Z" fill="#F8EC26"/>
<path d="M27.486 15.8489L11.3251 38L17.5025 21.2151H8.54845L24.179 0L18.4072 15.8489H27.486Z" fill="#F8EC26"/>
<ellipse cx="9.98358" cy="11.8555" rx="1.99672" ry="1.99672" fill="#F8EC26"/>
<ellipse cx="24.1478" cy="11.8555" rx="1.99671" ry="1.99672" fill="#F8EC26"/>
</svg>
