<svg width="76" height="76" viewBox="0 0 76 76" fill="none" xmlns="http://www.w3.org/2000/svg">
<path d="M65.1091 48.6622C66.342 48.0384 67.3323 47.022 67.9237 45.7733C68.5151 44.5245 68.674 43.1144 68.3754 41.7653C68.0768 40.4162 67.3377 39.2049 66.2746 38.3223C65.2115 37.4397 63.8848 36.9361 62.5038 36.8908C61.1228 36.8455 59.7661 37.2612 58.6474 38.0722C57.5288 38.8833 56.7119 40.0436 56.3256 41.3702C55.9393 42.6969 56.0055 44.1143 56.5138 45.3992C57.0221 46.684 57.9436 47.7631 59.133 48.4663C57.5816 49.0999 56.2946 50.2469 55.4874 51.7156L52.7784 56.6393L48.6415 51.0862C48.5755 50.9977 48.4897 50.9258 48.391 50.8763C48.2923 50.8268 48.1834 50.8011 48.073 50.8012H45.9087V47.923C45.9066 46.4671 45.4507 45.048 44.6044 43.8633C43.7581 42.6786 42.5635 41.7872 41.187 41.3131C42.1185 40.6395 42.8126 39.688 43.1697 38.5953C43.5268 37.5025 43.5285 36.3248 43.1744 35.231C42.8204 34.1373 42.1289 33.1839 41.1993 32.5077C40.2696 31.8314 39.1496 31.4672 38 31.4672C36.8504 31.4672 35.7304 31.8314 34.8007 32.5077C33.8711 33.1839 33.1796 34.1373 32.8256 35.231C32.4715 36.3248 32.4732 37.5025 32.8303 38.5953C33.1874 39.688 33.8815 40.6395 34.813 41.3131C33.4363 41.787 32.2417 42.6784 31.3953 43.8631C30.549 45.0479 30.0932 46.467 30.0912 47.923V50.8012H27.927C27.8166 50.8011 27.7077 50.8268 27.609 50.8763C27.5103 50.9258 27.4245 50.9977 27.3585 51.0862L23.2201 56.6393L20.5126 51.7156C19.705 50.2472 18.4182 49.1003 16.867 48.4663C18.0568 47.763 18.9787 46.6837 19.4873 45.3986C19.9959 44.1134 20.0622 42.6956 19.6759 41.3685C19.2896 40.0415 18.4725 38.8808 17.3536 38.0695C16.2346 37.2581 14.8775 36.8423 13.4961 36.8876C12.1147 36.9329 10.7877 37.4367 9.72426 38.3196C8.66087 39.2025 7.92159 40.4142 7.62301 41.7637C7.32442 43.1132 7.48352 44.5237 8.07521 45.7728C8.6669 47.0218 9.65752 48.0384 10.8909 48.6622C9.75867 49.2364 8.80754 50.1128 8.14285 51.1943C7.47816 52.2759 7.12586 53.5203 7.125 54.7897V66.5876C7.125 66.7753 7.1996 66.9554 7.33238 67.0882C7.46517 67.221 7.64526 67.2956 7.83305 67.2956C8.02083 67.2956 8.20093 67.221 8.33371 67.0882C8.4665 66.9554 8.54109 66.7753 8.54109 66.5876V54.7897C8.54266 53.3437 9.1177 51.9573 10.1401 50.9347C11.1624 49.912 12.5487 49.3366 13.9947 49.3347H14.0956C15.1537 49.3357 16.1922 49.6205 17.1028 50.1594C18.0135 50.6982 18.7629 51.4714 19.2731 52.3984L22.512 58.2869C22.512 58.2869 22.5195 58.3003 22.5224 58.3077L23.18 59.5026C23.2413 59.6136 23.3311 59.7061 23.4402 59.7706C23.5493 59.8351 23.6737 59.8691 23.8005 59.8693H30.6197C31.0527 59.8693 31.4681 60.0413 31.7743 60.3475C32.0805 60.6537 32.2525 61.069 32.2525 61.5021C32.2525 61.9351 32.0805 62.3505 31.7743 62.6567C31.4681 62.9629 31.0527 63.1349 30.6197 63.1349H22.4141C22.0195 63.1359 21.6309 63.0386 21.2833 62.8517C20.9358 62.6649 20.6403 62.3944 20.4235 62.0647C20.4086 62.0372 20.3918 62.011 20.373 61.986L16.533 55.7516C16.4857 55.6696 16.4224 55.5978 16.3469 55.5406C16.2714 55.4835 16.1851 55.442 16.0933 55.4188C16.0015 55.3955 15.906 55.3909 15.8123 55.4053C15.7187 55.4196 15.6289 55.4526 15.5482 55.5022C15.4676 55.5519 15.3977 55.6172 15.3428 55.6944C15.2878 55.7715 15.2489 55.8589 15.2283 55.9514C15.2078 56.0439 15.206 56.1395 15.223 56.2327C15.2401 56.3258 15.2757 56.4146 15.3277 56.4938L18.951 62.3823L13.9887 69.0234C13.9286 69.0975 13.8841 69.183 13.8578 69.2747C13.8315 69.3664 13.8241 69.4625 13.8359 69.5572C13.8477 69.6519 13.8785 69.7432 13.9265 69.8257C13.9744 69.9082 14.0386 69.9801 14.1151 70.0372C14.1916 70.0942 14.2788 70.1352 14.3715 70.1577C14.4642 70.1802 14.5605 70.1838 14.6547 70.1681C14.7488 70.1524 14.8388 70.1179 14.9192 70.0666C14.9997 70.0153 15.0689 69.9483 15.1228 69.8695L19.8402 63.5416C20.5427 64.1861 21.4607 64.545 22.4141 64.548H30.6241C31.4209 64.5304 32.1791 64.2016 32.7364 63.6318C33.2937 63.0621 33.6058 62.2968 33.6058 61.4999C33.6058 60.7029 33.2937 59.9376 32.7364 59.3679C32.1791 58.7981 31.4209 58.4693 30.6241 58.4517H24.2191L23.9697 58.0064L28.2818 52.2173H47.7182L52.0229 58.0064L51.7735 58.4517H45.3803C44.5835 58.4693 43.8253 58.7981 43.268 59.3679C42.7107 59.9376 42.3987 60.7029 42.3987 61.4999C42.3987 62.2968 42.7107 63.0621 43.268 63.6318C43.8253 64.2016 44.5835 64.5304 45.3803 64.548H53.5859C54.5376 64.5443 55.4537 64.186 56.1554 63.5431L60.8727 69.871C60.9879 70.0129 61.1535 70.1048 61.3349 70.1274C61.5163 70.15 61.6994 70.1016 61.8459 69.9923C61.9924 69.883 62.0909 69.7212 62.1209 69.5409C62.1509 69.3606 62.11 69.1757 62.0068 69.0249L57.049 62.3719L60.6709 56.4849C60.7196 56.4059 60.7523 56.318 60.7671 56.2263C60.7818 56.1346 60.7784 56.0409 60.757 55.9506C60.7355 55.8602 60.6965 55.775 60.6421 55.6997C60.5878 55.6245 60.5191 55.5606 60.44 55.5119C60.361 55.4632 60.2731 55.4305 60.1814 55.4157C60.0898 55.4009 59.9961 55.4044 59.9057 55.4258C59.8154 55.4472 59.7301 55.4862 59.6549 55.5406C59.5796 55.595 59.5158 55.6637 59.467 55.7427L55.6284 61.9875C55.6122 62.0093 55.5974 62.0321 55.5839 62.0558C55.3671 62.3876 55.0708 62.6599 54.7218 62.8479C54.3728 63.0359 53.9823 63.1335 53.5859 63.1319H45.3803C44.9473 63.1319 44.532 62.9599 44.2257 62.6537C43.9195 62.3475 43.7475 61.9322 43.7475 61.4991C43.7475 61.0661 43.9195 60.6508 44.2257 60.3445C44.532 60.0383 44.9473 59.8663 45.3803 59.8663H52.1995C52.3263 59.8662 52.4507 59.8321 52.5598 59.7676C52.6689 59.7032 52.7588 59.6106 52.82 59.4997L53.4731 58.3122C53.4835 58.2944 53.4939 58.2751 53.5028 58.2558L56.7269 52.3984C57.2373 51.4711 57.9872 50.6977 58.8985 50.1591C59.8097 49.6204 60.8488 49.3362 61.9073 49.3361H62.0083C63.4543 49.3381 64.8405 49.9135 65.8629 50.9362C66.8853 51.9588 67.4603 53.3452 67.4619 54.7912V66.589C67.4619 66.7768 67.5365 66.9569 67.6693 67.0897C67.802 67.2225 67.9821 67.2971 68.1699 67.2971C68.3577 67.2971 68.5378 67.2225 68.6706 67.0897C68.8034 66.9569 68.878 66.7768 68.878 66.589V54.7897C68.8768 53.52 68.5241 52.2753 67.8589 51.1938C67.1936 50.1122 66.2419 49.236 65.1091 48.6622ZM8.89141 43.1122C8.89141 42.1613 9.17338 41.2317 9.70168 40.441C10.23 39.6504 10.9809 39.0342 11.8594 38.6703C12.7379 38.3064 13.7046 38.2111 14.6373 38.3967C15.5699 38.5822 16.4266 39.0401 17.099 39.7125C17.7714 40.3849 18.2293 41.2416 18.4148 42.1742C18.6003 43.1068 18.5051 44.0735 18.1412 44.9521C17.7773 45.8306 17.1611 46.5815 16.3704 47.1098C15.5798 47.6381 14.6502 47.9201 13.6993 47.9201C12.4246 47.9185 11.2027 47.4114 10.3013 46.5101C9.40003 45.6088 8.89298 44.3868 8.89141 43.1122ZM33.9773 36.9104C33.9773 36.1145 34.2134 35.3364 34.6556 34.6746C35.0979 34.0128 35.7265 33.497 36.4619 33.1925C37.1973 32.8879 38.0065 32.8083 38.7871 32.9637C39.5677 33.1191 40.2848 33.5025 40.8475 34.0655C41.4102 34.6284 41.7934 35.3456 41.9485 36.1263C42.1036 36.907 42.0237 37.7162 41.7189 38.4514C41.4141 39.1867 40.8981 39.8151 40.2361 40.2571C39.5741 40.6991 38.796 40.9349 38 40.9346C36.9331 40.9334 35.9102 40.5091 35.1558 39.7546C34.4014 39.0002 33.977 37.9774 33.9759 36.9104H33.9773ZM31.5088 47.923C31.5104 46.4452 32.0981 45.0284 33.1431 43.9835C34.1881 42.9385 35.6049 42.3508 37.0827 42.3492H38.9203C40.3981 42.3508 41.8149 42.9385 42.8599 43.9835C43.9048 45.0284 44.4926 46.4452 44.4941 47.923V50.8012H42.3047V47.7969C42.3091 47.7012 42.294 47.6057 42.2605 47.5161C42.2269 47.4265 42.1755 47.3446 42.1094 47.2754C42.0433 47.2062 41.9638 47.1511 41.8758 47.1134C41.7878 47.0758 41.6931 47.0564 41.5974 47.0564C41.5017 47.0564 41.407 47.0758 41.319 47.1134C41.231 47.1511 41.1515 47.2062 41.0854 47.2754C41.0193 47.3446 40.9679 47.4265 40.9343 47.5161C40.9007 47.6057 40.8857 47.7012 40.8901 47.7969V50.8087H35.101V47.7969C35.1054 47.7012 35.0903 47.6057 35.0568 47.5161C35.0232 47.4265 34.9718 47.3446 34.9057 47.2754C34.8396 47.2062 34.7601 47.1511 34.6721 47.1134C34.5841 47.0758 34.4894 47.0564 34.3937 47.0564C34.298 47.0564 34.2033 47.0758 34.1153 47.1134C34.0273 47.1511 33.9478 47.2062 33.8817 47.2754C33.8156 47.3446 33.7642 47.4265 33.7306 47.5161C33.6971 47.6057 33.682 47.7012 33.6864 47.7969V50.8087H31.5073L31.5088 47.923ZM57.4943 43.1122C57.4943 42.1613 57.7763 41.2317 58.3046 40.441C58.8329 39.6504 59.5838 39.0342 60.4623 38.6703C61.3408 38.3064 62.3075 38.2111 63.2402 38.3967C64.1728 38.5822 65.0295 39.0401 65.7019 39.7125C66.3743 40.3849 66.8322 41.2416 67.0177 42.1742C67.2032 43.1068 67.108 44.0735 66.7441 44.9521C66.3802 45.8306 65.764 46.5815 64.9733 47.1098C64.1827 47.6381 63.2531 47.9201 62.3022 47.9201C61.0273 47.9189 59.8049 47.412 58.9033 46.5106C58.0016 45.6093 57.4944 44.3871 57.4928 43.1122H57.4943Z" fill="white"/>
<path d="M24.1672 28.212C24.2376 28.2119 24.3077 28.2014 24.375 28.1808L31.3323 26.0448C33.4023 26.8525 35.6059 27.2634 37.8279 27.256C38.3638 27.256 38.8937 27.2323 39.4132 27.1878C41.1188 29.3327 44.1825 30.6508 47.5283 30.6508C48.7476 30.6549 49.9606 30.4753 51.1264 30.1179L55.1773 31.629C55.3007 31.6749 55.4345 31.6854 55.5636 31.6594C55.6927 31.6334 55.8119 31.5719 55.908 31.4818C56.0041 31.3918 56.0731 31.2767 56.1074 31.1496C56.1417 31.0225 56.1398 30.8883 56.1021 30.7621L55.1847 27.7118C56.3559 26.4946 56.9971 25.0087 56.9971 23.4857C56.9971 20.7782 54.9858 18.3127 51.833 17.1029C51.8449 16.9218 51.8508 16.7392 51.8508 16.5552C51.8508 10.6518 45.56 5.84839 37.8279 5.84839C30.0958 5.84839 23.8065 10.6518 23.8065 16.5552C23.8065 18.807 24.6971 20.9385 26.3834 22.751L23.572 27.121C23.5033 27.2278 23.4646 27.3511 23.4599 27.4781C23.4553 27.605 23.4849 27.7308 23.5456 27.8424C23.6063 27.954 23.6959 28.0471 23.805 28.1122C23.9141 28.1772 24.0387 28.2117 24.1657 28.212H24.1672ZM55.5825 23.4857C55.5825 24.7608 55.0021 25.9721 53.9037 26.9874C53.8062 27.0771 53.7359 27.1926 53.701 27.3204C53.6661 27.4483 53.6679 27.5834 53.7063 27.7103L54.3357 29.8047L51.3907 28.7063C51.2391 28.6485 51.0722 28.6454 50.9186 28.6974C49.8254 29.0609 48.6804 29.2449 47.5283 29.2421C44.9737 29.2421 42.6299 28.3901 41.1188 26.9651C46.4417 25.9839 50.5891 22.6797 51.6089 18.5413C54.0447 19.564 55.5825 21.4521 55.5825 23.4857ZM27.8782 23.0404C27.9669 22.9032 28.0054 22.7394 27.987 22.5771C27.9686 22.4147 27.8945 22.2637 27.7772 22.1498C26.1043 20.517 25.2211 18.5873 25.2211 16.5522C25.2211 11.4282 30.8766 7.26151 37.8279 7.26151C44.7792 7.26151 50.4362 11.4296 50.4362 16.5507C50.4362 21.6718 44.7807 25.8414 37.8279 25.8414C35.7059 25.8507 33.6027 25.4427 31.6381 24.6406C31.4859 24.5772 31.3163 24.5688 31.1586 24.6168L25.8149 26.26L27.8782 23.0404Z" fill="white"/>
<path d="M30.8987 14.734H44.7583C44.9461 14.734 45.1262 14.6594 45.259 14.5266C45.3918 14.3938 45.4664 14.2137 45.4664 14.0259C45.4664 13.8381 45.3918 13.658 45.259 13.5253C45.1262 13.3925 44.9461 13.3179 44.7583 13.3179H30.8987C30.7109 13.3179 30.5308 13.3925 30.3981 13.5253C30.2653 13.658 30.1907 13.8381 30.1907 14.0259C30.1907 14.2137 30.2653 14.3938 30.3981 14.5266C30.5308 14.6594 30.7109 14.734 30.8987 14.734Z" fill="white"/>
<path d="M45.4663 19.0742C45.4659 18.8867 45.3912 18.707 45.2584 18.5745C45.1257 18.4421 44.9458 18.3677 44.7583 18.3677H30.8987C30.803 18.3633 30.7075 18.3784 30.6179 18.4119C30.5283 18.4455 30.4464 18.4969 30.3772 18.563C30.308 18.6291 30.2529 18.7086 30.2152 18.7966C30.1776 18.8846 30.1582 18.9793 30.1582 19.075C30.1582 19.1707 30.1776 19.2654 30.2152 19.3534C30.2529 19.4414 30.308 19.5209 30.3772 19.587C30.4464 19.6531 30.5283 19.7045 30.6179 19.7381C30.7075 19.7716 30.803 19.7867 30.8987 19.7823H44.7583C44.8513 19.7823 44.9433 19.764 45.0292 19.7284C45.1151 19.6928 45.1932 19.6407 45.2589 19.5749C45.3247 19.5092 45.3768 19.4311 45.4124 19.3452C45.448 19.2593 45.4663 19.1672 45.4663 19.0742Z" fill="white"/>
</svg>
