<svg width="80" height="80" viewBox="0 0 80 80" fill="none" xmlns="http://www.w3.org/2000/svg">
<path d="M70.3251 38.7219C72.5312 37.614 74.2987 35.7937 75.3411 33.5559C76.3836 31.3181 76.6399 28.7939 76.0687 26.3923C75.4975 23.9906 74.1321 21.8521 72.1938 20.3233C70.2555 18.7944 67.8578 17.9648 65.3892 17.9687C65.3189 17.9687 65.2501 17.9687 65.1814 17.9687V15.1109C65.1793 14.0868 64.7712 13.1052 64.0466 12.3815C63.3219 11.6577 62.3399 11.2508 61.3157 11.25H4.56729C3.54312 11.2508 2.56107 11.6577 1.83644 12.3815C1.11181 13.1052 0.703728 14.0868 0.70166 15.1109V52.2891C0.702901 53.3138 1.11062 54.2961 1.83534 55.0205C2.56006 55.745 3.54258 56.1523 4.56729 56.1531H24.6876V67.1594H18.0923C17.8809 67.1594 17.6783 67.2433 17.5288 67.3928C17.3794 67.5422 17.2954 67.7449 17.2954 67.9562C17.2954 68.1676 17.3794 68.3703 17.5288 68.5197C17.6783 68.6692 17.8809 68.7531 18.0923 68.7531H54.422C55.7659 68.7519 57.0545 68.2175 58.0048 67.2671C58.9551 66.3168 59.4895 65.0283 59.4907 63.6844V50.9969C59.4907 50.7855 59.4068 50.5828 59.2573 50.4334C59.1079 50.284 58.9052 50.2 58.6939 50.2C58.4825 50.2 58.2798 50.284 58.1304 50.4334C57.9809 50.5828 57.897 50.7855 57.897 50.9969V63.6844C57.8962 64.6057 57.5298 65.4891 56.8783 66.1407C56.2268 66.7922 55.3433 67.1585 54.422 67.1594H38.1876C38.3809 65.841 39.0416 64.636 40.0492 63.7641C41.0568 62.8922 42.3442 62.4114 43.6767 62.4094H51.8329C52.0443 62.4094 52.2469 62.3254 52.3964 62.176C52.5458 62.0265 52.6298 61.8238 52.6298 61.6125V55.5547C52.6461 55.4898 52.6545 55.4232 52.6548 55.3562C52.6545 55.2898 52.6461 55.2237 52.6298 55.1594V50.4234C52.6331 47.6339 53.7427 44.9595 55.7152 42.987C57.6877 41.0145 60.3621 39.9049 63.1517 39.9016H67.1876C69.9772 39.9049 72.6515 41.0145 74.624 42.987C76.5966 44.9595 77.7062 47.6339 77.7095 50.4234V67.9562C77.7095 68.1676 77.7934 68.3703 77.9429 68.5197C78.0923 68.6692 78.295 68.7531 78.5064 68.7531C78.7177 68.7531 78.9204 68.6692 79.0698 68.5197C79.2193 68.3703 79.3032 68.1676 79.3032 67.9562V50.4234C79.2994 47.7577 78.4181 45.1675 76.7954 43.0525C75.1727 40.9376 72.8989 39.4157 70.3251 38.7219ZM74.7579 28.9391C74.7579 30.7933 74.2081 32.6058 73.1779 34.1475C72.1478 35.6892 70.6836 36.8909 68.9706 37.6004C67.2575 38.31 65.3725 38.4957 63.5539 38.1339C61.7354 37.7722 60.0649 36.8793 58.7538 35.5682C57.4427 34.2571 56.5498 32.5866 56.1881 30.768C55.8263 28.9495 56.012 27.0645 56.7215 25.3514C57.4311 23.6383 58.6327 22.1742 60.1744 21.144C61.7162 20.1139 63.5287 19.5641 65.3829 19.5641C66.6141 19.5641 67.8331 19.8066 68.9706 20.2777C70.108 20.7488 71.1415 21.4394 72.012 22.3099C72.8826 23.1805 73.5732 24.214 74.0443 25.3514C74.5154 26.4888 74.7579 27.7079 74.7579 28.9391ZM2.29541 52.2891V50.4875H51.036V54.5594H4.56729C3.96502 54.5594 3.38739 54.3202 2.96138 53.8945C2.53537 53.4688 2.29582 52.8913 2.29541 52.2891ZM18.0923 33.975C17.2343 33.9753 16.3956 33.7212 15.6821 33.2448C14.9686 32.7683 14.4124 32.091 14.0838 31.2985C13.7553 30.5059 13.6692 29.6337 13.8364 28.7923C14.0036 27.9508 14.4165 27.1777 15.0231 26.571C15.6296 25.9642 16.4025 25.5509 17.2439 25.3835C18.0854 25.216 18.9576 25.3018 19.7503 25.63C20.5429 25.9583 21.2204 26.5142 21.6971 27.2276C22.1738 27.9409 22.4282 28.7796 22.4282 29.6375C22.427 30.7872 21.9698 31.8895 21.157 32.7027C20.3441 33.5158 19.242 33.9733 18.0923 33.975ZM19.5798 35.5687C21.961 35.5687 24.0798 36.4344 25.5688 38.0312L29.6626 42.0812C29.7406 42.1599 29.8345 42.221 29.9379 42.2606C30.0413 42.3002 30.152 42.3174 30.2626 42.3109C30.3729 42.3055 30.4809 42.2771 30.5796 42.2276C30.6783 42.1781 30.7657 42.1085 30.836 42.0234L35.2938 36.6328C35.4746 36.4187 35.7307 36.2822 36.0092 36.2513C36.2878 36.2205 36.5675 36.2978 36.7907 36.4672C36.9107 36.5532 37.0118 36.6629 37.0878 36.7895C37.1639 36.9161 37.2132 37.0569 37.2328 37.2032C37.2524 37.3496 37.2419 37.4984 37.2019 37.6405C37.1618 37.7826 37.0932 37.9151 37.0001 38.0297L30.997 45.4625C30.898 45.5854 30.7745 45.6864 30.6344 45.759C30.4943 45.8317 30.3407 45.8744 30.1832 45.8845C30.0257 45.8947 29.8678 45.872 29.7196 45.8179C29.5713 45.7638 29.4359 45.6795 29.322 45.5703L25.2142 41.6391C25.1016 41.5307 24.9597 41.458 24.8061 41.4298C24.6525 41.4016 24.494 41.4193 24.3503 41.4806C24.2067 41.5419 24.0843 41.6442 23.9984 41.7746C23.9125 41.905 23.8669 42.0579 23.8673 42.2141V48.8969H11.2892V40.6625C11.2908 39.3118 11.8282 38.0169 12.7835 37.0619C13.7387 36.107 15.0338 35.57 16.3845 35.5687H19.5798ZM26.2782 67.1594V56.1531H36.9548V65.3719C36.9555 65.4191 36.9602 65.4661 36.9689 65.5125C36.7746 66.0445 36.645 66.598 36.5829 67.1609L26.2782 67.1594ZM43.6767 60.8156C42.7193 60.8155 41.7717 61.0085 40.8905 61.383C40.0094 61.7575 39.2129 62.3059 38.5485 62.9953V56.1531H51.036V60.8156H43.6767ZM51.1329 48.8937H25.4688V44.0781L28.2189 46.7187C28.4915 46.9809 28.816 47.1833 29.1714 47.3127C29.5269 47.4421 29.9055 47.4958 30.2829 47.4703C30.6605 47.446 31.029 47.3438 31.3651 47.1701C31.7013 46.9963 31.9978 46.7549 32.236 46.4609L38.2407 39.0281C38.6759 38.4901 38.8853 37.8042 38.8246 37.1148C38.764 36.4255 38.4381 35.7866 37.9157 35.3328L41.7532 26.875C41.8019 26.7791 41.8306 26.6743 41.8377 26.5669C41.8448 26.4596 41.8301 26.3519 41.7944 26.2504C41.7588 26.149 41.703 26.0557 41.6303 25.9764C41.5577 25.897 41.4698 25.8332 41.3718 25.7888C41.2738 25.7443 41.1679 25.7202 41.0603 25.7178C40.9528 25.7154 40.8459 25.7348 40.746 25.7748C40.6462 25.8149 40.5555 25.8747 40.4794 25.9507C40.4033 26.0267 40.3434 26.1174 40.3032 26.2172L36.4657 34.6719C36.0173 34.615 35.5617 34.6726 35.1415 34.8393C34.7213 35.0059 34.3502 35.2762 34.0626 35.625L30.1563 40.3438L26.7188 36.9203C25.4144 35.542 23.7172 34.5988 21.8579 34.2187C22.8077 33.4399 23.4925 32.3857 23.8181 31.2014C24.1437 30.0171 24.094 28.761 23.6758 27.6061C23.2576 26.4512 22.4916 25.4544 21.4833 24.7531C20.4749 24.0518 19.2739 23.6804 18.0457 23.6902C16.8175 23.7 15.6225 24.0904 14.6255 24.8077C13.6285 25.525 12.8784 26.5339 12.4787 27.6953C12.079 28.8566 12.0493 30.1134 12.3937 31.2924C12.7381 32.4714 13.4396 33.5145 14.4017 34.2781C13.0391 34.7026 11.8477 35.5511 11.0011 36.7001C10.1545 37.8491 9.69708 39.2384 9.69541 40.6656V48.8969H2.29541V15.1109C2.29624 14.5088 2.53591 13.9316 2.96184 13.5059C3.38776 13.0803 3.96514 12.841 4.56729 12.8406H61.3157C61.6144 12.84 61.9103 12.8983 62.1865 13.012C62.4626 13.1258 62.7137 13.2929 62.9252 13.5037C63.1368 13.7146 63.3047 13.965 63.4195 14.2408C63.5342 14.5166 63.5934 14.8123 63.5939 15.1109V18.125C61.3278 18.5015 59.2373 19.5806 57.6179 21.2099C55.9985 22.8391 54.932 24.9361 54.5693 27.2044C54.2066 29.4728 54.566 31.7978 55.5966 33.8508C56.6272 35.9038 58.2769 37.581 60.3126 38.6453C57.9256 39.2249 55.7705 40.5147 54.1316 42.3443C52.4928 44.174 51.4472 46.4576 51.1329 48.8937Z" fill="white"/>
<path d="M52.6 17.2422H31.4063C31.1949 17.2422 30.9922 17.3261 30.8428 17.4756C30.6933 17.625 30.6094 17.8277 30.6094 18.0391C30.6094 18.2504 30.6933 18.4531 30.8428 18.6025C30.9922 18.752 31.1949 18.8359 31.4063 18.8359H52.6C52.8113 18.8359 53.014 18.752 53.1635 18.6025C53.3129 18.4531 53.3969 18.2504 53.3969 18.0391C53.3969 17.8277 53.3129 17.625 53.1635 17.4756C53.014 17.3261 52.8113 17.2422 52.6 17.2422Z" fill="white"/>
<path d="M52.6 21.6344H49.5313C49.3199 21.6344 49.1172 21.7184 48.9678 21.8678C48.8183 22.0172 48.7344 22.2199 48.7344 22.4313C48.7344 22.6426 48.8183 22.8453 48.9678 22.9947C49.1172 23.1442 49.3199 23.2281 49.5313 23.2281H52.5938C52.6984 23.2281 52.802 23.2075 52.8987 23.1675C52.9954 23.1274 53.0832 23.0687 53.1572 22.9947C53.2312 22.9208 53.2899 22.8329 53.33 22.7362C53.37 22.6395 53.3906 22.5359 53.3906 22.4313C53.3906 22.3266 53.37 22.223 53.33 22.1263C53.2899 22.0296 53.2312 21.9418 53.1572 21.8678C53.0832 21.7938 52.9954 21.7351 52.8987 21.6951C52.802 21.655 52.6984 21.6344 52.5938 21.6344H52.6Z" fill="white"/>
<path d="M44.6875 22.4313C44.6875 22.2199 44.6035 22.0172 44.4541 21.8678C44.3047 21.7184 44.102 21.6344 43.8906 21.6344H31.4063C31.1949 21.6344 30.9922 21.7184 30.8428 21.8678C30.6933 22.0172 30.6094 22.2199 30.6094 22.4313C30.6094 22.6426 30.6933 22.8453 30.8428 22.9947C30.9922 23.1442 31.1949 23.2281 31.4063 23.2281H43.8906C44.102 23.2281 44.3047 23.1442 44.4541 22.9947C44.6035 22.8453 44.6875 22.6426 44.6875 22.4313Z" fill="white"/>
<path d="M52.5999 26.0266H44.8296C44.6182 26.0266 44.4156 26.1106 44.2661 26.26C44.1167 26.4095 44.0327 26.6121 44.0327 26.8235C44.0327 27.0348 44.1167 27.2375 44.2661 27.387C44.4156 27.5364 44.6182 27.6204 44.8296 27.6204H52.5999C52.8112 27.6204 53.0139 27.5364 53.1634 27.387C53.3128 27.2375 53.3968 27.0348 53.3968 26.8235C53.3968 26.6121 53.3128 26.4095 53.1634 26.26C53.0139 26.1106 52.8112 26.0266 52.5999 26.0266Z" fill="white"/>
<path d="M37.3328 26.0266H31.4063C31.1949 26.0266 30.9922 26.1106 30.8428 26.26C30.6933 26.4095 30.6094 26.6121 30.6094 26.8235C30.6094 27.0348 30.6933 27.2375 30.8428 27.387C30.9922 27.5364 31.1949 27.6204 31.4063 27.6204H37.3344C37.5457 27.6204 37.7484 27.5364 37.8979 27.387C38.0473 27.2375 38.1312 27.0348 38.1312 26.8235C38.1312 26.6121 38.0473 26.4095 37.8979 26.26C37.7484 26.1106 37.5457 26.0266 37.3344 26.0266H37.3328Z" fill="white"/>
</svg>
