<svg width="74" height="74" viewBox="0 0 74 74" fill="none" xmlns="http://www.w3.org/2000/svg">
<path d="M55.5259 59.2737L43.2639 56.0782V48.8978C44.8183 48.1976 46.2091 47.18 47.3469 45.9104C49.0249 44.0532 50.1161 41.7884 50.8156 39.5062H54.8625C55.6279 39.5062 56.3621 39.2027 56.9039 38.6621C57.4458 38.1216 57.7512 37.3882 57.7531 36.6228V30.408C57.7509 29.6466 57.4483 28.9168 56.9111 28.3772C56.374 27.8376 55.6456 27.5317 54.8842 27.526C54.822 25.7714 54.426 21.2244 52.1078 17.0114C53.4317 17.4476 54.8598 17.4531 56.187 17.0271C57.5143 16.6012 58.6724 15.7656 59.4952 14.6404C60.318 13.5152 60.7631 12.1582 60.7666 10.7643C60.7701 9.37038 60.3319 8.01118 59.5148 6.88184C58.6977 5.7525 57.5438 4.9111 56.2187 4.47844C54.8936 4.04578 53.4655 4.0441 52.1394 4.47365C50.8133 4.9032 49.6574 5.74189 48.8376 6.8693C48.0179 7.99672 47.5765 9.35489 47.5767 10.7488C47.5774 11.1062 47.6069 11.4629 47.6649 11.8155C44.8422 9.70675 41.2925 8.63577 37.0808 8.62855H37.023C31.8936 8.63866 27.747 10.2184 24.6974 13.3388C19.9481 18.1907 19.3006 25.2366 19.2197 27.526C18.4583 27.5317 17.7299 27.8376 17.1927 28.3772C16.6556 28.9168 16.353 29.6466 16.3507 30.408V36.6228C16.3526 37.3849 16.6554 38.1155 17.1933 38.6555C17.7311 39.1955 18.4604 39.5013 19.2226 39.5062H23.2217C23.9343 41.7869 25.0356 44.0517 26.7194 45.9089C27.8423 47.1555 29.2081 48.1593 30.733 48.8588V56.0782L18.471 59.2737C16.9667 59.6668 15.6351 60.5475 14.6845 61.7779C13.7339 63.0083 13.2179 64.5191 13.2173 66.0739V69.1178C13.2173 69.3094 13.2934 69.4932 13.4289 69.6288C13.5645 69.7643 13.7483 69.8404 13.9399 69.8404C14.1316 69.8404 14.3154 69.7643 14.4509 69.6288C14.5865 69.4932 14.6626 69.3094 14.6626 69.1178V66.0739C14.6626 64.8387 15.0724 63.6383 15.8278 62.661C16.5831 61.6836 17.6413 60.9843 18.8367 60.6728L31.2374 57.4396L36.4406 62.663C36.5078 62.7301 36.5876 62.7832 36.6754 62.8194C36.7632 62.8556 36.8572 62.8742 36.9522 62.874H37.0418C37.1368 62.8742 37.2308 62.8556 37.3186 62.8194C37.4064 62.7832 37.4862 62.7301 37.5535 62.663L42.7566 57.4396L55.1574 60.6728C56.3527 60.9843 57.4109 61.6836 58.1662 62.661C58.9216 63.6383 59.3314 64.8387 59.3314 66.0739V69.1178C59.3314 69.3094 59.4076 69.4932 59.5431 69.6288C59.6786 69.7643 59.8624 69.8404 60.0541 69.8404C60.2457 69.8404 60.4296 69.7643 60.5651 69.6288C60.7006 69.4932 60.7767 69.3094 60.7767 69.1178V66.0739C60.7765 64.5194 60.2611 63.0088 59.311 61.7784C58.3609 60.548 57.0298 59.6672 55.5259 59.2737ZM36.2339 30.8661C36.0589 29.6773 35.4627 28.5909 34.5538 27.8048C33.6449 27.0188 32.4839 26.5854 31.2822 26.5837H28.2066C31.9774 24.7626 37.062 22.0671 40.8011 19.1764C41.8128 20.6217 44.4144 24.17 47.1185 26.5866H47.0289H42.8549C41.6531 26.5883 40.4918 27.0216 39.5827 27.8076C38.6736 28.5936 38.0771 29.6801 37.9018 30.869L36.2339 30.8661ZM24.4488 29.2199C24.783 28.8454 25.1925 28.5457 25.6505 28.3404C26.1086 28.1352 26.6048 28.0291 27.1067 28.029H31.2822C32.2264 28.029 33.1318 28.404 33.7994 29.0716C34.467 29.7392 34.8421 30.6447 34.8421 31.5888C34.8421 32.5329 34.467 33.4384 33.7994 34.1059C33.1318 34.7735 32.2264 35.1486 31.2822 35.1486H27.1067C26.4205 35.1482 25.749 34.9496 25.1731 34.5765C24.5972 34.2034 24.1414 33.6718 23.8605 33.0456C23.5797 32.4195 23.4858 31.7256 23.5902 31.0474C23.6946 30.3691 23.9927 29.7355 24.4488 29.2228V29.2199ZM42.8549 28.029H47.0289C47.9251 28.0285 48.7884 28.3663 49.4462 28.9748C50.1041 29.5834 50.508 30.4178 50.5772 31.3113C50.5772 31.557 50.5642 31.8128 50.5526 32.0802C50.4346 32.9309 50.0129 33.7101 49.3652 34.2741C48.7176 34.8381 47.8877 35.1487 47.0289 35.1486H42.8549C41.9107 35.1486 41.0053 34.7735 40.3377 34.1059C39.6701 33.4384 39.2951 32.5329 39.2951 31.5888C39.2951 30.6447 39.6701 29.7392 40.3377 29.0716C41.0053 28.404 41.9107 28.029 42.8549 28.029ZM56.2963 30.4137V36.6286C56.2944 37.0107 56.1412 37.3764 55.8704 37.6459C55.5996 37.9154 55.233 38.0667 54.851 38.0667H51.216C51.6848 36.0652 51.954 34.0221 52.0196 31.9675C52.0312 31.8229 52.0355 31.6784 52.0326 31.5339C52.0586 30.4571 52.0326 29.574 51.9965 28.9843H54.8625C55.2419 28.9862 55.6052 29.1371 55.8743 29.4045C56.1433 29.672 56.2964 30.0344 56.3006 30.4137H56.2963ZM54.1659 5.60495C55.1843 5.60524 56.1798 5.9075 57.0265 6.47353C57.8731 7.03955 58.533 7.84392 58.9225 8.78492C59.312 9.72592 59.4138 10.7613 59.215 11.7601C59.0161 12.759 58.5255 13.6764 57.8053 14.3965C57.085 15.1165 56.1674 15.6068 55.1685 15.8054C54.1697 16.004 53.1343 15.9019 52.1934 15.5121C51.2525 15.1223 50.4483 14.4623 49.8826 13.6154C49.3168 12.7686 49.0148 11.773 49.0148 10.7546C49.0163 9.38905 49.5596 8.07989 50.5253 7.11443C51.491 6.14897 52.8003 5.6061 54.1659 5.60495ZM25.7265 14.3476C28.4986 11.5192 32.3055 10.084 37.0418 10.0782C41.7781 10.0724 45.5836 11.5235 48.3572 14.3491C52.6729 18.753 53.3262 25.3725 53.4158 27.5318H51.3085C48.2242 26.8453 43.2379 20.2344 41.5671 17.7282C41.5111 17.6444 41.4382 17.5731 41.3531 17.5191C41.268 17.4651 41.1725 17.4295 41.0728 17.4146C40.9733 17.3995 40.8719 17.4053 40.7748 17.4317C40.6777 17.4581 40.5872 17.5044 40.5091 17.5678C34.5501 22.4096 23.9314 26.9811 22.6364 27.5303H20.6679C20.7604 25.3725 21.4122 18.753 25.7265 14.3476ZM19.2226 38.0609C18.842 38.0586 18.4777 37.9063 18.2087 37.6371C17.9397 37.3678 17.7878 37.0034 17.7859 36.6228V30.408C17.7882 30.0276 17.9403 29.6635 18.2092 29.3946C18.4781 29.1257 18.8422 28.9736 19.2226 28.9713H21.999C21.9181 30.5453 21.8718 34.2048 22.8185 38.0551L19.2226 38.0609ZM27.7962 44.9492C26.1788 43.1672 25.1483 40.9284 24.4965 38.6751C24.487 38.6156 24.4705 38.5574 24.4474 38.5017C24.1584 37.4605 23.9339 36.4024 23.7753 35.3336C24.6921 36.1514 25.8782 36.6027 27.1067 36.6011H31.2822C32.484 36.5997 33.6451 36.1664 34.5541 35.3803C35.463 34.5942 36.0592 33.5076 36.2339 32.3187H37.9018C38.0768 33.5077 38.6732 34.5943 39.5824 35.3804C40.4916 36.1665 41.653 36.5997 42.8549 36.6011H47.0289C48.2001 36.6038 49.3348 36.1945 50.2346 35.4449C50.0782 36.4908 49.8577 37.5262 49.5741 38.5451C47.4842 42.6772 41.0251 42.4604 40.963 42.4575C40.7713 42.4493 40.5842 42.5175 40.4429 42.6472C40.3015 42.7769 40.2175 42.9575 40.2092 43.1491C40.201 43.3408 40.2692 43.5279 40.3989 43.6692C40.5286 43.8106 40.7091 43.8946 40.9008 43.9028C40.934 43.9028 41.0453 43.9028 41.2318 43.9028C42.2897 43.9028 45.5952 43.7583 48.217 42.0731C47.697 43.1127 47.043 44.0797 46.2716 44.9492C45.2115 46.1273 43.9054 47.0578 42.4458 47.6751C42.3237 47.6904 42.2076 47.7372 42.1091 47.811C40.4922 48.4162 38.7767 48.7147 37.0505 48.6912C33.164 48.6868 30.0523 47.4265 27.7962 44.9492ZM36.9999 61.1729L32.1812 56.3369V49.4196C35.3235 50.3602 38.671 50.3697 41.8186 49.4471V56.3369L36.9999 61.1729Z" fill="white"/>
</svg>
