<svg width="60" height="56" viewBox="0 0 60 56" fill="none" xmlns="http://www.w3.org/2000/svg">
<g clip-path="url(#clip0_2_130)">
<path d="M58.8031 32.7909H58.0288V5.90878C58.0288 4.46395 57.4578 3.0783 56.4414 2.05666C55.4249 1.03501 54.0463 0.46106 52.6089 0.46106H5.61352C4.17607 0.46106 2.79749 1.03501 1.78106 2.05666C0.764629 3.0783 0.193604 4.46395 0.193604 5.90878V38.8317C0.193604 40.2765 0.764629 41.6621 1.78106 42.6838C2.79749 43.7054 4.17607 44.2794 5.61352 44.2794H24.3943V53.5218H17.271C17.136 53.5165 17.0013 53.5386 16.8751 53.5869C16.7488 53.6351 16.6335 53.7085 16.5361 53.8026C16.4387 53.8967 16.3613 54.0096 16.3083 54.1345C16.2554 54.2595 16.2281 54.3939 16.2281 54.5296C16.2281 54.6654 16.2554 54.7998 16.3083 54.9248C16.3613 55.0497 16.4387 55.1626 16.5361 55.2567C16.6335 55.3508 16.7488 55.4242 16.8751 55.4724C17.0013 55.5207 17.136 55.5428 17.271 55.5375H40.9638C41.2229 55.5272 41.468 55.4166 41.6477 55.2287C41.8275 55.0408 41.9279 54.7903 41.9279 54.5296C41.9279 54.269 41.8275 54.0185 41.6477 53.8306C41.468 53.6427 41.2229 53.5321 40.9638 53.5218H33.8405V44.2747H42.9614V47.4733C42.9618 47.7405 43.0677 47.9967 43.2559 48.1855C43.444 48.3743 43.699 48.4803 43.9649 48.4803H58.8031C59.069 48.4803 59.324 48.3743 59.5121 48.1855C59.7002 47.9967 59.8061 47.7405 59.8066 47.4733V33.798C59.8066 33.6656 59.7806 33.5345 59.7301 33.4122C59.6797 33.2899 59.6058 33.1789 59.5126 33.0853C59.4193 32.9918 59.3087 32.9176 59.187 32.8671C59.0652 32.8166 58.9348 32.7907 58.8031 32.7909ZM55.9754 32.7909H46.7786V29.0896C46.7815 28.1823 47.1413 27.313 47.7796 26.6714C48.4179 26.0299 49.2828 25.6682 50.1854 25.6653H52.5516C53.4543 25.6682 54.3191 26.0299 54.9574 26.6714C55.5957 27.313 55.9555 28.1823 55.9584 29.0896L55.9754 32.7909ZM31.8181 53.5172H26.3982V44.2747H31.8181V53.5172ZM32.8215 42.2591H5.61352C4.70998 42.2591 3.84345 41.8983 3.20455 41.2561C2.56565 40.6139 2.20672 39.7429 2.20672 38.8348V37.1226H42.9475V42.2591H32.8215ZM42.9459 33.798V35.1008H2.20362V5.90878C2.20362 5.0006 2.56255 4.12962 3.20145 3.48745C3.84035 2.84527 4.70689 2.4845 5.61043 2.4845H52.6089C53.5124 2.4845 54.379 2.84527 55.0179 3.48745C55.6568 4.12962 56.0157 5.0006 56.0157 5.90878V24.9291C55.0505 24.103 53.8255 23.647 52.5578 23.6419H50.1916C48.7542 23.6419 47.3756 24.2158 46.3591 25.2375C45.3427 26.2591 44.7717 27.6448 44.7717 29.0896V32.794H43.9494C43.6842 32.794 43.4299 32.8997 43.242 33.0879C43.0542 33.2761 42.9483 33.5314 42.9475 33.798H42.9459ZM57.795 46.4647H44.9529V34.8066H57.7965L57.795 46.4647Z" fill="white"/>
<path d="M51.37 36.2494C50.6408 36.2468 49.9346 36.5048 49.3772 36.9773C48.8199 37.4498 48.4478 38.106 48.3274 38.8288C48.207 39.5516 48.3461 40.2939 48.7199 40.9231C49.0937 41.5523 49.6779 42.0274 50.368 42.2637V45.0062C50.3782 45.2667 50.4883 45.513 50.6752 45.6937C50.8622 45.8743 51.1114 45.9752 51.3707 45.9752C51.63 45.9752 51.8793 45.8743 52.0662 45.6937C52.2531 45.513 52.3632 45.2667 52.3734 45.0062V42.259C53.0603 42.0203 53.6409 41.5446 54.0119 40.9164C54.383 40.2882 54.5206 39.5481 54.4003 38.8277C54.28 38.1072 53.9096 37.4528 53.3548 36.9808C52.8 36.5088 52.0968 36.2497 51.37 36.2494ZM51.37 40.4317C51.1556 40.4317 50.946 40.3678 50.7677 40.2481C50.5895 40.1284 50.4505 39.9582 50.3685 39.7591C50.2864 39.56 50.265 39.3409 50.3068 39.1296C50.3486 38.9182 50.4519 38.7241 50.6035 38.5717C50.7551 38.4194 50.9482 38.3156 51.1585 38.2735C51.3687 38.2315 51.5867 38.2531 51.7848 38.3355C51.9828 38.418 52.1521 38.5577 52.2712 38.7368C52.3904 38.916 52.4539 39.1267 52.4539 39.3422C52.4527 39.6303 52.338 39.9062 52.1348 40.1096C51.9317 40.3129 51.6566 40.427 51.37 40.427V40.4317Z" fill="white"/>
<path d="M24.6822 6.83171H8.32022C8.18523 6.82638 8.05056 6.8485 7.92428 6.89674C7.798 6.94499 7.68271 7.01836 7.58533 7.11248C7.48794 7.20659 7.41047 7.31949 7.35754 7.44443C7.30462 7.56936 7.27734 7.70375 7.27734 7.83954C7.27734 7.97533 7.30462 8.10972 7.35754 8.23465C7.41047 8.35958 7.48794 8.47249 7.58533 8.5666C7.68271 8.66071 7.798 8.73409 7.92428 8.78234C8.05056 8.83058 8.18523 8.8527 8.32022 8.84737H24.6822C24.9413 8.83713 25.1864 8.72647 25.3661 8.53859C25.5459 8.3507 25.6462 8.10018 25.6462 7.83954C25.6462 7.5789 25.5459 7.32838 25.3661 7.14049C25.1864 6.95261 24.9413 6.84195 24.6822 6.83171Z" fill="white"/>
<path d="M8.32022 13.7069H9.90438C10.0394 13.7122 10.174 13.6901 10.3003 13.6418C10.4266 13.5936 10.5419 13.5202 10.6393 13.4261C10.7367 13.332 10.8141 13.2191 10.8671 13.0941C10.92 12.9692 10.9473 12.8348 10.9473 12.699C10.9473 12.5632 10.92 12.4289 10.8671 12.3039C10.8141 12.179 10.7367 12.0661 10.6393 11.972C10.5419 11.8779 10.4266 11.8045 10.3003 11.7562C10.174 11.708 10.0394 11.6859 9.90438 11.6912H8.32022C8.18523 11.6859 8.05056 11.708 7.92428 11.7562C7.798 11.8045 7.68271 11.8779 7.58533 11.972C7.48794 12.0661 7.41047 12.179 7.35754 12.3039C7.30462 12.4289 7.27734 12.5632 7.27734 12.699C7.27734 12.8348 7.30462 12.9692 7.35754 13.0941C7.41047 13.2191 7.48794 13.332 7.58533 13.4261C7.68271 13.5202 7.798 13.5936 7.92428 13.6418C8.05056 13.6901 8.18523 13.7122 8.32022 13.7069Z" fill="white"/>
<path d="M21.1112 11.6912H13.3344C13.0753 11.7014 12.8302 11.8121 12.6505 12C12.4707 12.1879 12.3704 12.4384 12.3704 12.699C12.3704 12.9597 12.4707 13.2102 12.6505 13.3981C12.8302 13.586 13.0753 13.6966 13.3344 13.7069H21.1112C21.2462 13.7122 21.3809 13.6901 21.5072 13.6418C21.6334 13.5936 21.7487 13.5202 21.8461 13.4261C21.9435 13.332 22.021 13.2191 22.0739 13.0941C22.1268 12.9692 22.1541 12.8348 22.1541 12.699C22.1541 12.5632 22.1268 12.4289 22.0739 12.3039C22.021 12.179 21.9435 12.0661 21.8461 11.972C21.7487 11.8779 21.6334 11.8045 21.5072 11.7562C21.3809 11.708 21.2462 11.6859 21.1112 11.6912Z" fill="white"/>
<path d="M13.0743 16.5552H8.32022C8.18523 16.5499 8.05056 16.572 7.92428 16.6203C7.798 16.6685 7.68271 16.7419 7.58533 16.836C7.48794 16.9301 7.41047 17.043 7.35754 17.1679C7.30462 17.2929 7.27734 17.4273 7.27734 17.5631C7.27734 17.6988 7.30462 17.8332 7.35754 17.9582C7.41047 18.0831 7.48794 18.196 7.58533 18.2901C7.68271 18.3842 7.798 18.4576 7.92428 18.5058C8.05056 18.5541 8.18523 18.5762 8.32022 18.5709H13.0743C13.2093 18.5762 13.3439 18.5541 13.4702 18.5058C13.5965 18.4576 13.7118 18.3842 13.8092 18.2901C13.9065 18.196 13.984 18.0831 14.0369 17.9582C14.0899 17.8332 14.1171 17.6988 14.1171 17.5631C14.1171 17.4273 14.0899 17.2929 14.0369 17.1679C13.984 17.043 13.9065 16.9301 13.8092 16.836C13.7118 16.7419 13.5965 16.6685 13.4702 16.6203C13.3439 16.572 13.2093 16.5499 13.0743 16.5552Z" fill="white"/>
</g>
<defs>
<clipPath id="clip0_2_130">
<rect width="60" height="56" fill="white"/>
</clipPath>
</defs>
</svg>
