<svg width="12" height="6" viewBox="0 0 12 6" fill="none" xmlns="http://www.w3.org/2000/svg">
<path d="M11.0626 0.750034C11.063 0.824063 11.0488 0.897448 11.0209 0.965982C10.9929 1.03452 10.9516 1.09685 10.8995 1.14941L6.39948 5.64941C6.34719 5.70213 6.28497 5.74398 6.21643 5.77254C6.14788 5.80109 6.07436 5.8158 6.0001 5.8158C5.92585 5.8158 5.85233 5.80109 5.78378 5.77254C5.71523 5.74398 5.65302 5.70213 5.60073 5.64941L1.10073 1.14941C0.994808 1.04349 0.935303 0.899829 0.935303 0.750034C0.935303 0.60024 0.994808 0.456581 1.10073 0.35066C1.20665 0.244739 1.35031 0.185233 1.5001 0.185233C1.6499 0.185233 1.79356 0.244739 1.89948 0.35066L6.0001 4.45691L10.1007 0.350659C10.153 0.297937 10.2152 0.256089 10.2838 0.227532C10.3523 0.198975 10.4258 0.184272 10.5001 0.184272C10.5744 0.184272 10.6479 0.198975 10.7164 0.227532C10.785 0.256089 10.8472 0.297937 10.8995 0.350659C10.9516 0.403219 10.9929 0.465552 11.0209 0.534086C11.0488 0.60262 11.063 0.676005 11.0626 0.750034Z" fill="#000"/>
</svg>
