<svg width="15" height="11" viewBox="0 0 15 11" fill="none" xmlns="http://www.w3.org/2000/svg">
<path d="M14.0625 0.1875H0.9375C0.68886 0.1875 0.450403 0.286272 0.274587 0.462087C0.098772 0.637903 0 0.87636 0 1.125L0 9.875C0 10.1236 0.098772 10.3621 0.274587 10.5379C0.450403 10.7137 0.68886 10.8125 0.9375 10.8125H14.0625C14.3111 10.8125 14.5496 10.7137 14.7254 10.5379C14.9012 10.3621 15 10.1236 15 9.875V1.125C15 0.87636 14.9012 0.637903 14.7254 0.462087C14.5496 0.286272 14.3111 0.1875 14.0625 0.1875ZM13.8625 0.8125L7.5 5.73125L1.1375 0.8125H13.8625ZM0.625 9.74687V1.20625L5.44063 4.92812L0.625 9.74687ZM1.06563 10.1875L5.9375 5.31563L7.30625 6.375C7.36089 6.41706 7.42792 6.43987 7.49687 6.43987C7.56583 6.43987 7.63286 6.41706 7.6875 6.375L9.0625 5.31563L13.9344 10.1875H1.06563ZM14.375 9.74687L9.55937 4.92812L14.375 1.20625V9.74687Z" fill="white"/>
</svg>
