<svg width="24" height="24" viewBox="0 0 24 24" fill="none" xmlns="http://www.w3.org/2000/svg">
<g clip-path="url(#clip0_3_669)">
<path d="M21.5 24.0029H16.5C16.224 24.0029 16 23.7789 16 23.5029V14.5029C16 14.2269 16.224 14.0029 16.5 14.0029H19.14L19.807 12.0029H16.5C16.224 12.0029 16 11.7789 16 11.5029V8.50293C16 7.12493 17.122 6.00293 18.5 6.00293H20V4.00293H18.5C16.019 4.00293 14 6.02193 14 8.50293V11.5029C14 11.7789 13.776 12.0029 13.5 12.0029H11V14.0029H13.5C13.776 14.0029 14 14.2269 14 14.5029V23.5029C14 23.7789 13.776 24.0029 13.5 24.0029H2.5C1.122 24.0029 0 22.8809 0 21.5029V2.50293C0 1.12493 1.122 0.00292969 2.5 0.00292969H21.5C22.878 0.00292969 24 1.12493 24 2.50293V21.5029C24 22.8809 22.878 24.0029 21.5 24.0029ZM17 23.0029H21.5C22.327 23.0029 23 22.3299 23 21.5029V2.50293C23 1.67593 22.327 1.00293 21.5 1.00293H2.5C1.673 1.00293 1 1.67593 1 2.50293V21.5029C1 22.3299 1.673 23.0029 2.5 23.0029H13V15.0029H10.5C10.224 15.0029 10 14.7789 10 14.5029V11.5029C10 11.2269 10.224 11.0029 10.5 11.0029H13V8.50293C13 5.46993 15.467 3.00293 18.5 3.00293H20.5C20.776 3.00293 21 3.22693 21 3.50293V6.50293C21 6.77893 20.776 7.00293 20.5 7.00293H18.5C17.673 7.00293 17 7.67593 17 8.50293V11.0029H20.5C20.661 11.0029 20.812 11.0799 20.906 11.2109C21 11.3409 21.026 11.5089 20.974 11.6619L19.974 14.6619C19.906 14.8659 19.715 15.0039 19.5 15.0039H17V23.0029Z" fill="white"/>
</g>
<defs>
<clipPath id="clip0_3_669">
<rect width="24" height="24" fill="white"/>
</clipPath>
</defs>
</svg>
