<svg width="12" height="14" viewBox="0 0 12 14" fill="none" xmlns="http://www.w3.org/2000/svg">
<path fill-rule="evenodd" clip-rule="evenodd" d="M6 13.7083C6 13.7083 0.75 10.9617 0.75 5.54167C0.75 2.64221 3.10054 0.291666 6 0.291666C8.89946 0.291666 11.25 2.64221 11.25 5.54167C11.25 10.9617 6 13.7083 6 13.7083ZM6 0.874999C3.42692 0.874999 1.33333 2.96858 1.33333 5.54167C1.33333 9.84608 4.96808 12.3961 6.00087 13.0337C7.03454 12.3988 10.6667 9.85979 10.6667 5.54167C10.6667 2.96858 8.57308 0.874999 6 0.874999ZM6 8.16667C4.55012 8.16667 3.375 6.99154 3.375 5.54167C3.375 4.09179 4.55012 2.91667 6 2.91667C7.44987 2.91667 8.625 4.09179 8.625 5.54167C8.625 6.99154 7.44987 8.16667 6 8.16667ZM6 3.5C4.87242 3.5 3.95833 4.41408 3.95833 5.54167C3.95833 6.66925 4.87242 7.58333 6 7.58333C7.12758 7.58333 8.04167 6.66925 8.04167 5.54167C8.04167 4.41408 7.12758 3.5 6 3.5Z" fill="white"/>
</svg>
