<svg width="118" height="144" viewBox="0 0 118 144" fill="none" xmlns="http://www.w3.org/2000/svg">
<path d="M28.6249 0.548828C24.9267 0.548828 21.3476 2.66052 21.3476 8.61719V16.5273H28.6249V22.2227H21.3476V26.6523H23.5624V32.3477H21.3476V36.7773H28.6249V42.4727H21.3476V46.9023H23.5624V52.5977H21.3476V57.0273H28.6249V62.7227H21.3476V67.1523H23.5624V72.8477H21.3476V77.2773H28.6249V82.9727H21.3476V87.4023H23.5624V93.0977H21.3476V97.5273H25.7772V90.25H31.4726V115.978C33.5716 116.593 35.415 117.872 36.7268 119.622C38.0387 121.372 38.7484 123.5 38.7499 125.688C38.7499 128.373 37.6832 130.948 35.7844 132.847C33.8855 134.746 31.3102 135.812 28.6249 135.812C25.9396 135.812 23.3642 134.746 21.4654 132.847C19.5666 130.948 18.4999 128.373 18.4999 125.688C18.5013 123.5 19.211 121.372 20.5229 119.622C21.8347 117.871 23.6781 116.593 25.7772 115.978V103.223H21.3476V109.867H21.3507C15.3624 112.611 11.2226 118.644 11.2226 125.688C11.2226 135.332 18.9802 143.09 28.6249 143.09C38.2696 143.09 46.0272 135.332 46.0272 125.688C46.0272 118.644 41.8874 112.611 35.8991 109.867H35.9022V8.61719C35.9022 2.66052 32.3227 0.548828 28.6249 0.548828ZM56.1522 5.69771V26.8115L41.5976 19.5342V25.9015L56.1522 33.1789V49.077L51.8681 57.6466L42.3038 57.0726L41.5976 56.6644V65.2473L44.7357 69.9997L41.5976 74.7524V83.3353L42.3038 82.9271L51.8678 82.3534L56.1522 90.923V106.821L46.8151 111.489C47.9938 112.994 48.9814 114.639 49.7555 116.387L56.1522 113.189V134.303H61.8476V113.189L83.4473 123.989L85.9944 118.895L61.8476 106.821V90.9233L66.1317 82.3538L75.696 82.9277L89.4638 90.8768L87.847 117.826L93.5328 118.167L94.9788 94.0608L113.264 104.618L116.112 99.6856L97.8264 89.1287L117.98 75.8228L114.841 71.0704L92.3118 85.9447L78.5437 77.9953L73.2641 70L78.543 62.005L92.3115 54.0553L114.841 68.9302L117.98 64.1772L97.8267 50.8713L116.112 40.3144L113.264 35.3823L94.9791 45.9392L93.5331 21.8332L87.8473 22.1742L89.4641 49.1232L75.6967 57.0723L66.1326 57.6462L61.8476 49.077V33.1789L85.9944 21.1054L83.4473 16.0113L61.8476 26.8105V5.69676H56.1522V5.69771ZM4.73623 35.3829L1.88857 40.3148L15.6522 48.2613V41.6854L4.73623 35.3826V35.3829ZM15.6522 53.8566L0.0205078 64.1772L3.15862 68.9296L15.6522 60.6818V53.8566ZM3.15862 71.0691L0.0205078 75.8222L15.6522 86.1437V79.3188L3.15862 71.0701V71.0691ZM15.6522 91.739L1.88857 99.6852L4.73623 104.617L15.6522 98.3146V91.7387V91.739ZM29.2925 118.299C21.3235 118.299 21.3235 126.74 21.3235 126.74C21.3235 126.74 23.5542 123.45 24.9021 122.024C26.2294 120.621 29.2925 118.299 29.2925 118.299Z" fill="#61879F"/>
</svg>
