<svg width="146" height="146" viewBox="0 0 146 146" fill="none" xmlns="http://www.w3.org/2000/svg">
<path d="M74.8627 1.86102C74.8627 0.840461 74.0222 0 73.0016 0C71.9811 0 71.1406 0.840461 71.1406 1.86102C71.1406 2.88158 71.9811 3.72204 73.0016 3.72204C74.0222 3.72204 74.8627 2.88158 74.8627 1.86102Z" fill="#3F892C"/>
<path d="M58.1736 2.04128C57.8735 1.86118 57.5133 1.80115 57.1531 1.80115C57.033 1.80115 56.913 1.80115 56.7929 1.80115C55.7723 2.04128 55.172 3.00181 55.4121 4.02236C55.5322 4.50263 55.8324 4.92286 56.2526 5.16299C56.6728 5.40312 57.1531 5.52319 57.6333 5.40312C58.1136 5.28306 58.5338 4.98289 58.774 4.56266C59.0141 4.14243 59.1342 3.66217 59.0141 3.1819C58.834 2.76167 58.5939 2.34144 58.1736 2.04128Z" fill="#3F892C"/>
<path d="M42.743 7.14399C42.5629 7.08396 42.3228 7.02393 42.1427 7.02393C41.8425 7.02393 41.6024 7.08396 41.3622 7.20402C40.942 7.44416 40.5818 7.80435 40.4017 8.28462C40.2216 8.76488 40.2816 9.24514 40.4617 9.66537C40.882 10.5659 42.0226 10.9861 42.9231 10.5058C43.3433 10.2657 43.7035 9.90551 43.8836 9.42524C44.0637 8.94498 44.0037 8.46472 43.8236 8.04449C43.5835 7.62425 43.2233 7.32409 42.743 7.14399Z" fill="#3F892C"/>
<path d="M28.4568 19.2107C28.937 19.2707 29.4173 19.1507 29.8375 18.7905C30.6179 18.1301 30.738 16.9895 30.1377 16.2091C29.8375 15.8489 29.4173 15.6087 28.877 15.5487C28.817 15.5487 28.7569 15.5487 28.6369 15.5487C28.2166 15.5487 27.7964 15.6688 27.4962 15.9689C26.7158 16.6293 26.5957 17.7699 27.1961 18.5504C27.4962 18.9106 27.9165 19.1507 28.4568 19.2107Z" fill="#3F892C"/>
<path d="M18.7901 29.7762C19.0903 29.416 19.2103 28.9357 19.2103 28.3954C19.1503 27.9151 18.9102 27.4949 18.55 27.1347C18.2498 26.8946 17.8296 26.7145 17.4093 26.7145C17.3493 26.7145 17.2893 26.7145 17.1692 26.7145C16.6889 26.7745 16.2687 27.0146 15.9085 27.3748C15.6083 27.735 15.4883 28.2153 15.4883 28.7556C15.5483 29.2359 15.7884 29.6561 16.1486 30.0163C16.9891 30.7367 18.1898 30.5566 18.7901 29.7762Z" fill="#3F892C"/>
<path d="M8.10328 43.7637C8.52351 44.0039 9.06381 44.0039 9.48404 43.8238C9.90427 43.6437 10.3245 43.3435 10.5646 42.8633C10.8048 42.443 10.8048 41.9027 10.6247 41.4825C10.4446 41.0623 10.1444 40.642 9.66413 40.4019C9.424 40.2818 9.12384 40.2218 8.88371 40.2218C8.22334 40.2218 7.56298 40.582 7.20278 41.2424C6.78255 42.2629 7.20278 43.3435 8.10328 43.7637Z" fill="#3F892C"/>
<path d="M3.2421 58.9523C3.72237 59.0724 4.20263 58.9523 4.62286 58.7122C5.04309 58.472 5.34325 58.0518 5.46332 57.5715C5.70345 56.551 5.04309 55.5904 4.08256 55.3503C3.9625 55.2903 3.7824 55.2903 3.66233 55.2903C3.30214 55.2903 3.00197 55.4103 2.70181 55.5904C2.28158 55.8306 1.98141 56.2508 1.86135 56.7311C1.62121 57.7516 2.22154 58.7722 3.2421 58.9523Z" fill="#3F892C"/>
<path d="M1.86102 71.1389C0.840461 71.1389 0 71.9794 0 72.9999C0 74.0205 0.840461 74.861 1.86102 74.861C2.88158 74.861 3.72204 74.0205 3.72204 72.9999C3.72204 71.9794 2.88158 71.1389 1.86102 71.1389Z" fill="#3F892C"/>
<path d="M4.62286 87.2876C4.3227 87.1075 3.9625 86.9874 3.66233 86.9874C3.54227 86.9874 3.36217 86.9874 3.2421 87.0475C2.22154 87.2876 1.62121 88.2481 1.86135 89.2687C1.98141 89.7489 2.28158 90.1692 2.70181 90.4093C3.12204 90.6494 3.6023 90.7695 4.08256 90.6494C4.56283 90.5294 4.98306 90.2292 5.22319 89.809C5.46332 89.3888 5.58339 88.9085 5.46332 88.4282C5.34326 87.948 5.04309 87.5277 4.62286 87.2876Z" fill="#3F892C"/>
<path d="M9.48464 102.116C9.30455 102.056 9.06441 101.996 8.88431 101.996C8.58415 101.996 8.34402 102.056 8.10389 102.176C7.20339 102.596 6.78316 103.737 7.26343 104.637C7.68366 105.538 8.82428 105.958 9.72478 105.478C10.6253 105.058 11.0455 103.917 10.5652 103.017C10.3251 102.656 9.96491 102.296 9.48464 102.116Z" fill="#3F892C"/>
<path d="M18.5491 118.805C18.9093 118.505 19.1494 118.084 19.2094 117.544C19.2695 117.064 19.1494 116.584 18.7892 116.163C18.489 115.803 18.0688 115.563 17.5285 115.503C17.4685 115.503 17.4085 115.503 17.2884 115.503C16.8682 115.503 16.4479 115.623 16.1478 115.923C15.7876 116.223 15.5474 116.644 15.4874 117.184C15.4274 117.664 15.5474 118.145 15.9076 118.565C16.568 119.345 17.7086 119.465 18.5491 118.805Z" fill="#3F892C"/>
<path d="M28.815 130.451C29.2953 130.391 29.7155 130.151 30.0757 129.791C30.7361 129.011 30.556 127.81 29.7756 127.21C28.9951 126.549 27.7945 126.729 27.1941 127.51C26.5338 128.29 26.7139 129.491 27.4943 130.091C27.8545 130.391 28.3348 130.511 28.815 130.451Z" fill="#3F892C"/>
<path d="M41.3037 138.796C41.724 139.036 42.2643 139.036 42.6845 138.856C43.1648 138.676 43.525 138.376 43.7651 137.896C44.0052 137.476 44.0052 136.935 43.8251 136.515C43.645 136.095 43.3449 135.675 42.8646 135.434C42.6245 135.314 42.3243 135.254 42.0842 135.254C41.4238 135.254 40.7635 135.615 40.4033 136.275C40.1631 136.695 40.1631 137.235 40.3432 137.656C40.5233 138.076 40.8835 138.556 41.3037 138.796Z" fill="#3F892C"/>
<path d="M56.7329 144.199C57.2132 144.319 57.6935 144.199 58.1137 143.959C58.5339 143.719 58.8341 143.299 58.9541 142.818C59.0742 142.338 58.9541 141.858 58.714 141.438C58.4739 141.017 58.0537 140.717 57.5734 140.597C57.0931 140.477 56.6129 140.597 56.1926 140.837C55.7724 141.077 55.4722 141.498 55.3522 141.978C55.1721 142.938 55.7724 143.959 56.7329 144.199Z" fill="#3F892C"/>
<path d="M74.8627 144.139C74.8627 143.119 74.0222 142.278 73.0016 142.278C71.9811 142.278 71.1406 143.119 71.1406 144.139C71.1406 145.16 71.9811 146 73.0016 146C74.0222 146 74.8627 145.16 74.8627 144.139Z" fill="#3F892C"/>
<path d="M89.8104 140.837C89.3901 140.597 88.9099 140.477 88.4296 140.597C87.409 140.837 86.8087 141.798 87.0488 142.818C87.1689 143.299 87.4691 143.719 87.8893 143.959C88.3095 144.199 88.7898 144.319 89.2701 144.199C89.7503 144.079 90.1706 143.779 90.4107 143.359C90.6508 142.938 90.7709 142.458 90.6508 141.978C90.5308 141.498 90.2306 141.077 89.8104 140.837Z" fill="#3F892C"/>
<path d="M103.858 135.254C103.617 135.254 103.317 135.314 103.077 135.434C102.657 135.675 102.297 136.035 102.117 136.515C101.936 136.995 101.996 137.476 102.177 137.896C102.417 138.316 102.777 138.676 103.257 138.856C103.737 139.036 104.218 138.976 104.638 138.796C105.538 138.376 105.959 137.235 105.478 136.335C105.238 135.675 104.578 135.254 103.858 135.254Z" fill="#3F892C"/>
<path d="M115.923 129.791C116.223 130.151 116.643 130.391 117.183 130.451C117.664 130.511 118.144 130.391 118.564 130.031C119.345 129.371 119.465 128.23 118.864 127.45C118.504 126.97 117.964 126.729 117.423 126.729C117.003 126.729 116.643 126.849 116.283 127.15C115.923 127.45 115.683 127.87 115.622 128.41C115.562 128.951 115.622 129.431 115.923 129.791Z" fill="#3F892C"/>
<path d="M128.831 119.225C129.311 119.165 129.731 118.925 130.091 118.565C130.392 118.205 130.512 117.724 130.512 117.184C130.452 116.704 130.211 116.283 129.851 115.923C129.491 115.623 129.011 115.503 128.47 115.503C127.99 115.563 127.57 115.803 127.21 116.163C126.549 116.944 126.73 118.145 127.51 118.745C127.87 119.105 128.35 119.285 128.831 119.225Z" fill="#3F892C"/>
<path d="M137.113 102.056C136.933 102.056 136.693 102.116 136.513 102.176C136.033 102.356 135.673 102.656 135.433 103.137C135.012 104.037 135.372 105.178 136.273 105.598C136.693 105.838 137.234 105.838 137.654 105.658C138.134 105.478 138.494 105.178 138.734 104.697C139.155 103.797 138.794 102.656 137.894 102.236C137.654 102.116 137.414 102.056 137.113 102.056Z" fill="#3F892C"/>
<path d="M143.358 90.4093C143.778 90.1692 144.078 89.7489 144.198 89.2687C144.318 88.7884 144.198 88.3082 143.958 87.8879C143.718 87.4677 143.298 87.1675 142.818 87.0475C142.698 86.9874 142.517 86.9874 142.397 86.9874C142.037 86.9874 141.737 87.1075 141.437 87.2876C141.017 87.5277 140.716 87.948 140.596 88.4282C140.356 89.4488 141.017 90.4093 141.977 90.6494C142.457 90.7695 142.938 90.6494 143.358 90.4093Z" fill="#3F892C"/>
<path d="M144.138 71.1389C143.118 71.1389 142.277 71.9794 142.277 72.9999C142.277 74.0205 143.118 74.861 144.138 74.861C145.159 74.861 145.999 74.0205 145.999 72.9999C145.999 71.9794 145.159 71.1389 144.138 71.1389Z" fill="#3F892C"/>
<path d="M143.357 55.5904C143.057 55.4103 142.697 55.2903 142.397 55.2903C142.277 55.2903 142.097 55.2903 141.976 55.3503C140.956 55.5904 140.356 56.551 140.596 57.5715C140.716 58.0518 141.016 58.472 141.436 58.7122C141.856 58.9523 142.337 59.0724 142.817 58.9523C143.297 58.8322 143.717 58.5321 143.958 58.1118C144.198 57.6916 144.318 57.2113 144.198 56.7311C144.078 56.2508 143.777 55.8906 143.357 55.5904Z" fill="#3F892C"/>
<path d="M137.715 40.4021C137.535 40.342 137.295 40.282 137.115 40.282C136.815 40.282 136.574 40.342 136.334 40.4621C135.434 40.8823 135.014 42.0229 135.494 42.9234C135.734 43.3437 136.094 43.7039 136.574 43.884C137.055 44.0641 137.535 44.004 137.955 43.8239C138.856 43.4037 139.276 42.2631 138.796 41.3626C138.556 40.8823 138.195 40.5221 137.715 40.4021Z" fill="#3F892C"/>
<path d="M129.792 30.0765C130.152 29.7763 130.392 29.3561 130.452 28.8158C130.512 28.3355 130.392 27.8553 130.032 27.435C129.732 27.0748 129.312 26.8347 128.772 26.7747C128.711 26.7747 128.651 26.7747 128.531 26.7747C128.111 26.7747 127.691 26.8947 127.391 27.1949C126.61 27.8553 126.49 28.9959 127.091 29.7763C127.811 30.5567 129.012 30.7368 129.792 30.0765Z" fill="#3F892C"/>
<path d="M117.605 19.2107C118.085 19.1507 118.506 18.9105 118.866 18.5504C119.526 17.7699 119.346 16.5693 118.566 15.9689C118.265 15.7288 117.845 15.5487 117.425 15.5487C117.365 15.5487 117.305 15.5487 117.185 15.5487C116.705 15.6087 116.284 15.8489 115.924 16.2091C115.624 16.5693 115.504 17.0495 115.504 17.5898C115.564 18.0701 115.804 18.4903 116.164 18.8505C116.524 19.2107 117.065 19.2707 117.605 19.2107Z" fill="#3F892C"/>
<path d="M103.858 7.02393C103.678 7.02393 103.437 7.08396 103.257 7.14399C102.777 7.32409 102.417 7.62425 102.177 8.10452C101.937 8.52475 101.937 9.06504 102.117 9.48527C102.297 9.9055 102.597 10.3257 103.077 10.5659C103.978 10.9861 105.118 10.6259 105.539 9.72541C105.959 8.82491 105.599 7.68429 104.698 7.26406C104.458 7.08396 104.158 7.02393 103.858 7.02393Z" fill="#3F892C"/>
<path d="M88.4303 5.40312C88.9106 5.52319 89.3908 5.40312 89.8111 5.16299C90.2313 4.92286 90.5315 4.50263 90.6515 4.02236C90.8917 3.00181 90.2313 2.04128 89.2708 1.80115C89.0907 1.80115 88.9706 1.80115 88.8505 1.80115C88.4903 1.80115 88.1902 1.92121 87.89 2.10131C87.4698 2.34144 87.1696 2.76167 87.0496 3.24194C86.8094 4.20246 87.4698 5.22302 88.4303 5.40312Z" fill="#3F892C"/>
<path d="M74.4286 83.9887C67.7422 61.9437 89.625 48.5709 116.898 58.1345C102.957 57.3645 105.875 91.9719 74.4286 83.9887Z" stroke="#3F892C" stroke-width="2" stroke-miterlimit="10" stroke-linecap="round" stroke-linejoin="round"/>
<path d="M69.0391 101.252C70.9437 90.5534 73.7804 75.6407 97.0005 63.3214" stroke="#3F892C" stroke-width="2" stroke-miterlimit="10" stroke-linecap="round" stroke-linejoin="round"/>
<path d="M65.0257 89.2972C72.1984 73.4524 55.3 58.1344 29 65.5907C38.4421 72.7635 38.6041 80.8277 46.5468 87.5141C51.3286 91.5665 61.6622 92.7012 65.0257 89.2972Z" stroke="#3F892C" stroke-width="2" stroke-miterlimit="10" stroke-linecap="round" stroke-linejoin="round"/>
<path d="M41.1562 69.5215C50.4767 72.1555 65.3085 82.6917 69.0366 101.292" stroke="#3F892C" stroke-width="2" stroke-miterlimit="10" stroke-linecap="round" stroke-linejoin="round"/>
</svg>
