<svg width="146" height="146" viewBox="0 0 146 146" fill="none" xmlns="http://www.w3.org/2000/svg">
<path d="M74.8627 1.86102C74.8627 0.840461 74.0222 0 73.0016 0C71.9811 0 71.1406 0.840461 71.1406 1.86102C71.1406 2.88158 71.9811 3.72204 73.0016 3.72204C74.0222 3.72204 74.8627 2.88158 74.8627 1.86102Z" fill="#3F892C"/>
<path d="M58.1736 2.04131C57.8735 1.86121 57.5133 1.80118 57.1531 1.80118C57.033 1.80118 56.913 1.80118 56.7929 1.80118C55.7723 2.04131 55.172 3.00184 55.4121 4.0224C55.5322 4.50266 55.8324 4.92289 56.2526 5.16302C56.6728 5.40315 57.1531 5.52322 57.6333 5.40315C58.1136 5.28309 58.5338 4.98292 58.774 4.56269C59.0141 4.14246 59.1342 3.6622 59.0141 3.18193C58.834 2.7617 58.5939 2.34147 58.1736 2.04131Z" fill="#3F892C"/>
<path d="M42.743 7.14402C42.5629 7.08399 42.3228 7.02396 42.1427 7.02396C41.8425 7.02396 41.6024 7.08399 41.3622 7.20406C40.942 7.44419 40.5818 7.80438 40.4017 8.28465C40.2216 8.76491 40.2816 9.24517 40.4617 9.66541C40.882 10.5659 42.0226 10.9861 42.9231 10.5059C43.3433 10.2657 43.7035 9.90554 43.8836 9.42527C44.0637 8.94501 44.0037 8.46475 43.8236 8.04452C43.5835 7.62429 43.2233 7.32412 42.743 7.14402Z" fill="#3F892C"/>
<path d="M28.4568 19.2107C28.937 19.2707 29.4173 19.1506 29.8375 18.7904C30.6179 18.1301 30.738 16.9894 30.1377 16.209C29.8375 15.8488 29.4173 15.6087 28.877 15.5486C28.817 15.5486 28.7569 15.5486 28.6369 15.5486C28.2166 15.5486 27.7964 15.6687 27.4962 15.9689C26.7158 16.6292 26.5957 17.7699 27.1961 18.5503C27.4962 18.9105 27.9165 19.1506 28.4568 19.2107Z" fill="#3F892C"/>
<path d="M18.7901 29.7761C19.0903 29.4159 19.2103 28.9357 19.2103 28.3954C19.1503 27.9151 18.9102 27.4949 18.55 27.1347C18.2498 26.8945 17.8296 26.7144 17.4093 26.7144C17.3493 26.7144 17.2893 26.7144 17.1692 26.7144C16.6889 26.7745 16.2687 27.0146 15.9085 27.3748C15.6083 27.735 15.4883 28.2153 15.4883 28.7556C15.5483 29.2358 15.7884 29.6561 16.1486 30.0163C16.9891 30.7367 18.1898 30.5566 18.7901 29.7761Z" fill="#3F892C"/>
<path d="M8.10328 43.7637C8.52351 44.0038 9.06381 44.0038 9.48404 43.8237C9.90427 43.6436 10.3245 43.3435 10.5646 42.8632C10.8048 42.443 10.8048 41.9027 10.6247 41.4824C10.4446 41.0622 10.1444 40.642 9.66413 40.4018C9.424 40.2818 9.12384 40.2217 8.88371 40.2217C8.22334 40.2217 7.56298 40.5819 7.20278 41.2423C6.78255 42.2629 7.20278 43.3435 8.10328 43.7637Z" fill="#3F892C"/>
<path d="M3.2421 58.9524C3.72237 59.0724 4.20263 58.9524 4.62286 58.7122C5.04309 58.4721 5.34325 58.0519 5.46332 57.5716C5.70345 56.551 5.04309 55.5905 4.08256 55.3504C3.9625 55.2903 3.7824 55.2903 3.66233 55.2903C3.30214 55.2903 3.00197 55.4104 2.70181 55.5905C2.28158 55.8306 1.98141 56.2509 1.86135 56.7311C1.62121 57.7517 2.22154 58.7723 3.2421 58.9524Z" fill="#3F892C"/>
<path d="M1.86102 71.1389C0.840461 71.1389 0 71.9793 0 72.9999C0 74.0204 0.840461 74.8609 1.86102 74.8609C2.88158 74.8609 3.72204 74.0204 3.72204 72.9999C3.72204 71.9793 2.88158 71.1389 1.86102 71.1389Z" fill="#3F892C"/>
<path d="M4.62286 87.2875C4.3227 87.1074 3.9625 86.9874 3.66233 86.9874C3.54227 86.9874 3.36217 86.9874 3.2421 87.0474C2.22154 87.2875 1.62121 88.2481 1.86135 89.2686C1.98141 89.7489 2.28158 90.1691 2.70181 90.4093C3.12204 90.6494 3.6023 90.7694 4.08256 90.6494C4.56283 90.5293 4.98306 90.2292 5.22319 89.8089C5.46332 89.3887 5.58339 88.9084 5.46332 88.4282C5.34326 87.9479 5.04309 87.5277 4.62286 87.2875Z" fill="#3F892C"/>
<path d="M9.48464 102.116C9.30455 102.056 9.06441 101.996 8.88431 101.996C8.58415 101.996 8.34402 102.056 8.10389 102.176C7.20339 102.596 6.78316 103.737 7.26343 104.637C7.68366 105.538 8.82428 105.958 9.72478 105.478C10.6253 105.058 11.0455 103.917 10.5652 103.017C10.3251 102.656 9.96491 102.296 9.48464 102.116Z" fill="#3F892C"/>
<path d="M18.5491 118.805C18.9093 118.505 19.1494 118.084 19.2094 117.544C19.2695 117.064 19.1494 116.584 18.7892 116.163C18.489 115.803 18.0688 115.563 17.5285 115.503C17.4685 115.503 17.4085 115.503 17.2884 115.503C16.8682 115.503 16.4479 115.623 16.1478 115.923C15.7876 116.223 15.5474 116.644 15.4874 117.184C15.4274 117.664 15.5474 118.144 15.9076 118.565C16.568 119.345 17.7086 119.465 18.5491 118.805Z" fill="#3F892C"/>
<path d="M28.815 130.451C29.2953 130.391 29.7155 130.151 30.0757 129.791C30.7361 129.011 30.556 127.81 29.7756 127.21C28.9951 126.549 27.7945 126.729 27.1941 127.51C26.5338 128.29 26.7139 129.491 27.4943 130.091C27.8545 130.391 28.3348 130.511 28.815 130.451Z" fill="#3F892C"/>
<path d="M41.3037 138.796C41.724 139.036 42.2643 139.036 42.6845 138.856C43.1648 138.676 43.525 138.376 43.7651 137.896C44.0052 137.476 44.0052 136.935 43.8251 136.515C43.645 136.095 43.3449 135.675 42.8646 135.434C42.6245 135.314 42.3243 135.254 42.0842 135.254C41.4238 135.254 40.7635 135.615 40.4033 136.275C40.1631 136.695 40.1631 137.235 40.3432 137.656C40.5233 138.076 40.8835 138.556 41.3037 138.796Z" fill="#3F892C"/>
<path d="M56.7329 144.199C57.2132 144.319 57.6935 144.199 58.1137 143.959C58.5339 143.719 58.8341 143.299 58.9541 142.818C59.0742 142.338 58.9541 141.858 58.714 141.438C58.4739 141.017 58.0537 140.717 57.5734 140.597C57.0931 140.477 56.6129 140.597 56.1926 140.837C55.7724 141.077 55.4722 141.498 55.3522 141.978C55.1721 142.938 55.7724 143.959 56.7329 144.199Z" fill="#3F892C"/>
<path d="M74.8627 144.139C74.8627 143.119 74.0222 142.278 73.0016 142.278C71.9811 142.278 71.1406 143.119 71.1406 144.139C71.1406 145.16 71.9811 146 73.0016 146C74.0222 146 74.8627 145.16 74.8627 144.139Z" fill="#3F892C"/>
<path d="M89.8104 140.837C89.3901 140.597 88.9099 140.477 88.4296 140.597C87.409 140.837 86.8087 141.798 87.0488 142.818C87.1689 143.299 87.4691 143.719 87.8893 143.959C88.3095 144.199 88.7898 144.319 89.2701 144.199C89.7503 144.079 90.1706 143.779 90.4107 143.359C90.6508 142.939 90.7709 142.458 90.6508 141.978C90.5308 141.498 90.2306 141.077 89.8104 140.837Z" fill="#3F892C"/>
<path d="M103.858 135.254C103.617 135.254 103.317 135.314 103.077 135.434C102.657 135.675 102.297 136.035 102.117 136.515C101.936 136.995 101.996 137.476 102.177 137.896C102.417 138.316 102.777 138.676 103.257 138.856C103.737 139.036 104.218 138.976 104.638 138.796C105.538 138.376 105.959 137.235 105.478 136.335C105.238 135.675 104.578 135.254 103.858 135.254Z" fill="#3F892C"/>
<path d="M115.923 129.791C116.223 130.151 116.643 130.391 117.183 130.451C117.664 130.511 118.144 130.391 118.564 130.031C119.345 129.371 119.465 128.23 118.864 127.45C118.504 126.969 117.964 126.729 117.423 126.729C117.003 126.729 116.643 126.849 116.283 127.15C115.923 127.45 115.683 127.87 115.622 128.41C115.562 128.951 115.622 129.431 115.923 129.791Z" fill="#3F892C"/>
<path d="M128.831 119.225C129.311 119.165 129.731 118.925 130.091 118.565C130.392 118.205 130.512 117.724 130.512 117.184C130.452 116.704 130.211 116.283 129.851 115.923C129.491 115.623 129.011 115.503 128.47 115.503C127.99 115.563 127.57 115.803 127.21 116.163C126.549 116.944 126.73 118.144 127.51 118.745C127.87 119.105 128.35 119.285 128.831 119.225Z" fill="#3F892C"/>
<path d="M137.113 102.056C136.933 102.056 136.693 102.116 136.513 102.176C136.033 102.356 135.673 102.656 135.433 103.137C135.012 104.037 135.372 105.178 136.273 105.598C136.693 105.838 137.234 105.838 137.654 105.658C138.134 105.478 138.494 105.178 138.734 104.697C139.155 103.797 138.794 102.656 137.894 102.236C137.654 102.116 137.414 102.056 137.113 102.056Z" fill="#3F892C"/>
<path d="M143.358 90.4093C143.778 90.1691 144.078 89.7489 144.198 89.2686C144.318 88.7884 144.198 88.3081 143.958 87.8879C143.718 87.4676 143.298 87.1675 142.818 87.0474C142.698 86.9874 142.517 86.9874 142.397 86.9874C142.037 86.9874 141.737 87.1074 141.437 87.2875C141.017 87.5277 140.716 87.9479 140.596 88.4282C140.356 89.4487 141.017 90.4093 141.977 90.6494C142.457 90.7694 142.938 90.6494 143.358 90.4093Z" fill="#3F892C"/>
<path d="M144.138 71.1389C143.118 71.1389 142.277 71.9793 142.277 72.9999C142.277 74.0204 143.118 74.8609 144.138 74.8609C145.159 74.8609 145.999 74.0204 145.999 72.9999C145.999 71.9793 145.159 71.1389 144.138 71.1389Z" fill="#3F892C"/>
<path d="M143.357 55.5905C143.057 55.4104 142.697 55.2903 142.397 55.2903C142.277 55.2903 142.097 55.2903 141.976 55.3504C140.956 55.5905 140.356 56.551 140.596 57.5716C140.716 58.0519 141.016 58.4721 141.436 58.7122C141.856 58.9524 142.337 59.0724 142.817 58.9524C143.297 58.8323 143.717 58.5321 143.958 58.1119C144.198 57.6917 144.318 57.2114 144.198 56.7311C144.078 56.2509 143.777 55.8907 143.357 55.5905Z" fill="#3F892C"/>
<path d="M137.715 40.4021C137.535 40.342 137.295 40.282 137.115 40.282C136.815 40.282 136.574 40.342 136.334 40.4621C135.434 40.8823 135.014 42.023 135.494 42.9235C135.734 43.3437 136.094 43.7039 136.574 43.884C137.055 44.0641 137.535 44.0041 137.955 43.824C138.856 43.4037 139.276 42.2631 138.796 41.3626C138.556 40.8823 138.195 40.5221 137.715 40.4021Z" fill="#3F892C"/>
<path d="M129.792 30.0765C130.152 29.7764 130.392 29.3561 130.452 28.8158C130.512 28.3356 130.392 27.8553 130.032 27.4351C129.732 27.0749 129.312 26.8348 128.772 26.7747C128.711 26.7747 128.651 26.7747 128.531 26.7747C128.111 26.7747 127.691 26.8948 127.391 27.1949C126.61 27.8553 126.49 28.9959 127.091 29.7764C127.811 30.5568 129.012 30.7369 129.792 30.0765Z" fill="#3F892C"/>
<path d="M117.605 19.2107C118.085 19.1506 118.506 18.9105 118.866 18.5503C119.526 17.7699 119.346 16.5692 118.566 15.9689C118.265 15.7287 117.845 15.5486 117.425 15.5486C117.365 15.5486 117.305 15.5486 117.185 15.5486C116.705 15.6087 116.284 15.8488 115.924 16.209C115.624 16.5692 115.504 17.0495 115.504 17.5898C115.564 18.07 115.804 18.4903 116.164 18.8505C116.524 19.2107 117.065 19.2707 117.605 19.2107Z" fill="#3F892C"/>
<path d="M103.858 7.02396C103.678 7.02396 103.437 7.08399 103.257 7.14402C102.777 7.32412 102.417 7.62429 102.177 8.10455C101.937 8.52478 101.937 9.06507 102.117 9.48531C102.297 9.90554 102.597 10.3258 103.077 10.5659C103.978 10.9861 105.118 10.6259 105.539 9.72544C105.959 8.82494 105.599 7.68432 104.698 7.26409C104.458 7.08399 104.158 7.02396 103.858 7.02396Z" fill="#3F892C"/>
<path d="M88.4303 5.40315C88.9106 5.52322 89.3908 5.40315 89.8111 5.16302C90.2313 4.92289 90.5315 4.50266 90.6515 4.0224C90.8917 3.00184 90.2313 2.04131 89.2708 1.80118C89.0907 1.80118 88.9706 1.80118 88.8505 1.80118C88.4903 1.80118 88.1902 1.92124 87.89 2.10134C87.4698 2.34147 87.1696 2.7617 87.0496 3.24197C86.8094 4.20249 87.4698 5.22305 88.4303 5.40315Z" fill="#3F892C"/>
<path d="M84.3664 70.6526L69.9245 86.3819L62.6367 78.5172" stroke="#3F892C" stroke-width="2" stroke-miterlimit="10" stroke-linecap="round" stroke-linejoin="round"/>
<path fill-rule="evenodd" clip-rule="evenodd" d="M96.1307 89.6189C96.3575 89.8474 96.6693 89.9759 96.9953 89.9759H100.978C103.118 89.9759 105.131 89.1332 106.647 87.605C108.164 86.0767 109 84.0486 109 81.8919V75.4503C109 73.2936 108.164 71.2655 106.647 69.7372C105.131 68.2089 103.118 67.3663 100.978 67.3663H97.8882V67.0806C97.9024 53.2548 86.7339 42 73 42C59.2661 42 48.0976 53.2548 48.0976 67.0949V67.3805H45.022C42.8819 67.3805 40.8693 68.2232 39.3528 69.7515C37.8362 71.2797 37 73.2936 37 75.4503V81.8919C37 84.0486 37.8362 86.0767 39.3528 87.605C40.8693 89.1332 42.8819 89.9759 45.022 89.9759H45.5323V90.1902C45.5606 94.7464 47.3465 99.0169 50.5496 102.231C53.7528 105.444 58.0189 107.215 62.5402 107.215H65.1764L65.2189 107.387C65.7858 110.058 68.1811 112 70.8882 112H75.126C78.3291 112 80.9228 109.372 80.9228 106.158C80.9228 102.945 78.315 100.317 75.126 100.317H70.874C69.3291 100.317 67.8693 100.931 66.778 102.031C65.9843 102.83 65.4457 103.83 65.2047 104.93L65.1622 105.101H62.526C58.5717 105.101 54.8441 103.559 52.0378 100.745C49.2315 97.9314 47.6724 94.2036 47.6299 90.2187V90.0045H48.9906C49.3165 90.0045 49.6283 89.8759 49.8551 89.6474C50.0819 89.4189 50.2094 89.1047 50.2094 88.7762V67.0949C50.2236 54.426 60.4425 44.1424 73 44.1424C85.5575 44.1424 95.7764 54.4403 95.7764 67.0949V88.7476C95.7764 89.0761 95.9039 89.376 96.1307 89.6189ZM97.9024 69.5087H100.992C102.565 69.5087 104.054 70.1228 105.159 71.2512C106.279 72.3795 106.888 73.8649 106.888 75.4503V81.8919C106.888 83.4772 106.279 84.9769 105.159 86.091C104.039 87.2193 102.565 87.8335 100.992 87.8335H97.9024V69.5087ZM68.2803 103.53C68.9748 102.83 69.8961 102.445 70.8882 102.445H75.126C77.1528 102.445 78.811 104.102 78.811 106.158C78.811 108.201 77.1669 109.872 75.126 109.872H70.874C68.8472 109.872 67.189 108.215 67.189 106.158C67.2032 105.159 67.5858 104.23 68.2803 103.53ZM48.0976 87.8335H45.022C43.4488 87.8335 41.9606 87.2193 40.8551 86.091C39.7354 84.9627 39.126 83.4772 39.126 81.8919V75.4503C39.126 73.8649 39.7354 72.3652 40.8551 71.2512C41.9748 70.1228 43.4488 69.5087 45.022 69.5087H48.1118V87.8335H48.0976Z" fill="#3F892C"/>
</svg>
