<svg width="62" height="37" viewBox="0 0 62 37" fill="none" xmlns="http://www.w3.org/2000/svg">
<path fill-rule="evenodd" clip-rule="evenodd" d="M0.292893 29.7071C-0.0976311 29.3165 -0.0976311 28.6834 0.292893 28.2928L6.65685 21.9289C7.04738 21.5384 7.68054 21.5384 8.07107 21.9289C8.46159 22.3194 8.46159 22.9526 8.07107 23.3431L3.41421 27.9999H46V29.9999H3.41421L8.07107 34.6568C8.46159 35.0473 8.46159 35.6805 8.07107 36.071C7.68054 36.4615 7.04738 36.4615 6.65685 36.071L0.292893 29.7071Z" fill="black"/>
<rect x="47" y="2" width="33" height="2" transform="rotate(-180 47 2)" fill="black"/>
<path d="M44 30H47C55.2843 30 62 23.2843 62 15C62 6.71573 55.2843 0 47 0H44V2H47C54.1797 2 60 7.8203 60 15C60 22.1797 54.1797 28 47 28H44V30Z" fill="black"/>
</svg>
