<svg width="24" height="24" viewBox="0 0 24 24" fill="none" xmlns="http://www.w3.org/2000/svg">
<path d="M17.282 1.19137L15.2165 4.7994C14.4639 4.46583 13.6636 4.25131 12.8452 4.16377L12.8438 0.00170898C14.3919 0.107456 15.9044 0.51289 17.298 1.19568L17.282 1.19137Z" fill="#3F892C"/>
<path opacity="0.2" d="M11.1728 4.16178C10.3521 4.25101 9.55119 4.47139 8.79994 4.81419L6.73828 1.19505C8.12973 0.510613 9.6415 0.10456 11.1885 0L11.1728 4.16178Z" fill="#3F892C"/>
<path opacity="0.2" d="M7.36549 5.62827C6.69309 6.10771 6.10187 6.69138 5.61425 7.3578L2.00781 5.27442C2.87748 3.99274 3.98861 2.89303 5.27918 2.03687L7.36549 5.62827Z" fill="#3F892C"/>
<path opacity="0.2" d="M4.39041 9.95862C4.28183 10.3607 4.20492 10.7713 4.16053 11.1855L0 11.1869C0.105708 9.63817 0.510991 8.12508 1.19352 6.73096L4.80451 8.7812C4.63586 9.16243 4.49735 9.55608 4.39041 9.95862Z" fill="#3F892C"/>
<path opacity="0.2" d="M4.8042 15.1972L1.20242 17.264C0.518235 15.872 0.112333 14.3597 0.0078125 12.8121L4.17238 12.8118C4.25397 13.6354 4.46743 14.4413 4.8042 15.1972Z" fill="#3F892C"/>
<path opacity="0.2" d="M7.36621 18.3712L5.28361 21.979C4.00234 21.1141 2.90165 20.0078 2.04297 18.7224L5.64904 16.6396C6.12626 17.304 6.70599 17.8884 7.36621 18.3712Z" fill="#3F892C"/>
<path opacity="0.2" d="M11.173 24C9.62488 23.8943 8.11235 23.4888 6.71875 22.806L8.78425 19.198C9.53681 19.5316 10.3371 19.7461 11.1556 19.8336L11.173 24Z" fill="#3F892C"/>
<path opacity="0.2" d="M17.263 22.8022C15.8716 23.4866 14.3598 23.8927 12.8129 23.9972L12.8125 19.8311C13.6332 19.7419 14.4341 19.5215 15.1854 19.1787L17.263 22.8022Z" fill="#3F892C"/>
<path opacity="0.2" d="M21.9779 18.7184C21.1134 20.0001 20.0075 21.1012 18.7226 21.9602L16.6406 18.3528C17.313 17.8734 17.9042 17.2897 18.3919 16.6233L21.9779 18.7184Z" fill="#3F892C"/>
<path opacity="0.2" d="M23.619 15.1125C23.4202 15.861 23.1479 16.5877 22.8059 17.2825L19.1992 15.2162C19.5327 14.4633 19.7471 13.6627 19.8346 12.844L23.9951 12.8425C23.9442 13.6097 23.8183 14.3701 23.619 15.1125Z" fill="#3F892C"/>
<path d="M24.0003 11.1693L19.8358 11.1696C19.7466 10.3486 19.5263 9.54741 19.1836 8.79588L22.7897 6.71313C23.4798 8.10538 23.8913 9.61926 24.0003 11.1693Z" fill="#3F892C"/>
<path d="M21.96 5.27497L18.3539 7.35772C17.8746 6.68507 17.2912 6.09363 16.625 5.60583L18.7076 1.99805C19.9948 2.86795 21.0997 3.981 21.96 5.27497Z" fill="#3F892C"/>
</svg>
