<svg width="16" height="19" viewBox="0 0 16 19" fill="none" xmlns="http://www.w3.org/2000/svg">
<path d="M3.11172 18.3726H12.8883C14.6041 18.3726 16 16.9768 16 15.2609V4.30368C16 4.00023 15.7517 3.75195 15.4483 3.75195H0.551724C0.248276 3.75195 0 4.00023 0 4.30368V15.2609C0 16.9768 1.39586 18.3726 3.11172 18.3726ZM1.10345 4.8554H14.8966V15.2609C14.8966 16.3671 13.9945 17.2692 12.8883 17.2692H3.11172C2.00552 17.2692 1.10345 16.3671 1.10345 15.2609V4.8554Z" fill="#3F892C"/>
<path d="M7.99784 12.286C9.82405 12.286 11.3082 10.8157 11.3082 9.0088V7.32052C11.3082 7.01707 11.0599 6.7688 10.7565 6.7688C10.453 6.7688 10.2047 7.01707 10.2047 7.32052V9.0088C10.2047 10.206 9.2144 11.1826 7.99784 11.1826C6.78129 11.1826 5.79095 10.206 5.79095 9.0088V7.32052C5.79095 7.01707 5.54267 6.7688 5.23922 6.7688C4.93578 6.7688 4.6875 7.01707 4.6875 7.32052V9.0088C4.6875 10.8157 6.17164 12.286 7.99784 12.286Z" fill="#3F892C"/>
<path d="M10.6497 2.90093C10.9898 2.90093 11.2575 2.60142 11.1527 2.27788C10.725 0.958078 9.47375 0 7.9996 0C6.52546 0 5.2742 0.958078 4.84655 2.27788C4.74171 2.60142 5.0094 2.90093 5.3495 2.90093C5.62514 2.90093 5.85374 2.69901 5.96107 2.44513C6.29355 1.6587 7.08227 1.10345 7.9996 1.10345C8.91694 1.10345 9.70565 1.6587 10.0381 2.44513C10.1455 2.69901 10.3741 2.90093 10.6497 2.90093Z" fill="#3F892C"/>
</svg>
