<svg width="147" height="146" viewBox="0 0 147 146" fill="none" xmlns="http://www.w3.org/2000/svg">
<path d="M74.8627 1.86102C74.8627 0.840461 74.0222 0 73.0016 0C71.9811 0 71.1406 0.840461 71.1406 1.86102C71.1406 2.88158 71.9811 3.72204 73.0016 3.72204C74.0222 3.72204 74.8627 2.88158 74.8627 1.86102Z" fill="#3F892C"/>
<path d="M58.1736 2.0414C57.8735 1.8613 57.5133 1.80127 57.1531 1.80127C57.033 1.80127 56.913 1.80127 56.7929 1.80127C55.7723 2.0414 55.172 3.00193 55.4121 4.02249C55.5322 4.50275 55.8324 4.92298 56.2526 5.16311C56.6728 5.40324 57.1531 5.52331 57.6333 5.40324C58.1136 5.28318 58.5338 4.98301 58.774 4.56278C59.0141 4.14255 59.1342 3.66229 59.0141 3.18203C58.834 2.7618 58.5939 2.34157 58.1736 2.0414Z" fill="#3F892C"/>
<path d="M42.7469 7.14399C42.5668 7.08396 42.3267 7.02393 42.1466 7.02393C41.8464 7.02393 41.6063 7.08396 41.3661 7.20402C40.9459 7.44416 40.5857 7.80435 40.4056 8.28462C40.2255 8.76488 40.2856 9.24514 40.4657 9.66537C40.8859 10.5659 42.0265 10.9861 42.927 10.5058C43.3472 10.2657 43.7074 9.90551 43.8875 9.42524C44.0676 8.94498 44.0076 8.46472 43.8275 8.04449C43.5874 7.62425 43.2272 7.32409 42.7469 7.14399Z" fill="#3F892C"/>
<path d="M28.4529 19.2106C28.9331 19.2706 29.4134 19.1506 29.8336 18.7904C30.614 18.13 30.7341 16.9894 30.1338 16.2089C29.8336 15.8487 29.4134 15.6086 28.8731 15.5486C28.8131 15.5486 28.753 15.5486 28.633 15.5486C28.2127 15.5486 27.7925 15.6687 27.4923 15.9688C26.7119 16.6292 26.5918 17.7698 27.1922 18.5502C27.4923 18.9104 27.9126 19.1506 28.4529 19.2106Z" fill="#3F892C"/>
<path d="M18.794 29.776C19.0942 29.4158 19.2142 28.9356 19.2142 28.3953C19.1542 27.915 18.9141 27.4948 18.5539 27.1346C18.2537 26.8945 17.8335 26.7144 17.4132 26.7144C17.3532 26.7144 17.2932 26.7144 17.1731 26.7144C16.6928 26.7744 16.2726 27.0145 15.9124 27.3747C15.6123 27.7349 15.4922 28.2152 15.4922 28.7555C15.5522 29.2357 15.7924 29.656 16.1525 30.0162C16.993 30.7366 18.1937 30.5565 18.794 29.776Z" fill="#3F892C"/>
<path d="M8.10328 43.7636C8.52351 44.0038 9.06381 44.0038 9.48404 43.8237C9.90427 43.6436 10.3245 43.3434 10.5646 42.8631C10.8048 42.4429 10.8048 41.9026 10.6247 41.4824C10.4446 41.0621 10.1444 40.6419 9.66413 40.4018C9.424 40.2817 9.12384 40.2217 8.88371 40.2217C8.22334 40.2217 7.56298 40.5819 7.20278 41.2422C6.78255 42.2628 7.20278 43.3434 8.10328 43.7636Z" fill="#3F892C"/>
<path d="M3.2382 58.9523C3.71846 59.0724 4.19872 58.9523 4.61895 58.7122C5.03918 58.472 5.33935 58.0518 5.45941 57.5715C5.69955 56.551 5.03918 55.5904 4.07866 55.3503C3.95859 55.2903 3.77849 55.2903 3.65843 55.2903C3.29823 55.2903 2.99807 55.4103 2.6979 55.5904C2.27767 55.8306 1.97751 56.2508 1.85744 56.7311C1.61731 57.7516 2.21764 58.7722 3.2382 58.9523Z" fill="#3F892C"/>
<path d="M1.86102 71.1389C0.840461 71.1389 0 71.9794 0 72.9999C0 74.0205 0.840461 74.861 1.86102 74.861C2.88158 74.861 3.72204 74.0205 3.72204 72.9999C3.72204 71.9794 2.88158 71.1389 1.86102 71.1389Z" fill="#3F892C"/>
<path d="M4.61895 87.2875C4.31879 87.1074 3.95859 86.9873 3.65843 86.9873C3.53836 86.9873 3.35826 86.9873 3.2382 87.0473C2.21764 87.2875 1.61731 88.248 1.85744 89.2686C1.97751 89.7488 2.27767 90.1691 2.6979 90.4092C3.11813 90.6493 3.59839 90.7694 4.07866 90.6493C4.55892 90.5293 4.97915 90.2291 5.21928 89.8089C5.45941 89.3886 5.57948 88.9084 5.45942 88.4281C5.33935 87.9478 5.03918 87.5276 4.61895 87.2875Z" fill="#3F892C"/>
<path d="M9.48464 102.116C9.30455 102.056 9.06441 101.996 8.88431 101.996C8.58415 101.996 8.34402 102.056 8.10389 102.176C7.20339 102.596 6.78316 103.737 7.26343 104.638C7.68366 105.538 8.82428 105.958 9.72478 105.478C10.6253 105.058 11.0455 103.917 10.5652 103.017C10.3251 102.656 9.96491 102.296 9.48464 102.116Z" fill="#3F892C"/>
<path d="M18.553 118.805C18.9132 118.505 19.1533 118.084 19.2133 117.544C19.2734 117.064 19.1533 116.584 18.7931 116.163C18.493 115.803 18.0727 115.563 17.5324 115.503C17.4724 115.503 17.4124 115.503 17.2923 115.503C16.8721 115.503 16.4518 115.623 16.1517 115.923C15.7915 116.223 15.5513 116.644 15.4913 117.184C15.4313 117.664 15.5513 118.144 15.9115 118.565C16.5719 119.345 17.7125 119.465 18.553 118.805Z" fill="#3F892C"/>
<path d="M28.815 130.452C29.2953 130.392 29.7155 130.151 30.0757 129.791C30.7361 129.011 30.556 127.81 29.7756 127.21C28.9951 126.549 27.7945 126.73 27.1941 127.51C26.5338 128.29 26.7139 129.491 27.4943 130.091C27.8545 130.392 28.3348 130.512 28.815 130.452Z" fill="#3F892C"/>
<path d="M41.2998 138.796C41.7201 139.036 42.2604 139.036 42.6806 138.856C43.1609 138.676 43.5211 138.376 43.7612 137.896C44.0013 137.476 44.0013 136.935 43.8212 136.515C43.6411 136.095 43.341 135.675 42.8607 135.434C42.6206 135.314 42.3204 135.254 42.0803 135.254C41.4199 135.254 40.7595 135.615 40.3993 136.275C40.1592 136.695 40.1592 137.235 40.3393 137.656C40.5194 138.076 40.8796 138.556 41.2998 138.796Z" fill="#3F892C"/>
<path d="M56.7329 144.199C57.2132 144.319 57.6935 144.199 58.1137 143.959C58.5339 143.719 58.8341 143.299 58.9541 142.818C59.0742 142.338 58.9541 141.858 58.714 141.438C58.4739 141.017 58.0537 140.717 57.5734 140.597C57.0931 140.477 56.6129 140.597 56.1926 140.837C55.7724 141.077 55.4722 141.498 55.3522 141.978C55.1721 142.938 55.7724 143.959 56.7329 144.199Z" fill="#3F892C"/>
<path d="M74.8627 144.139C74.8627 143.119 74.0222 142.278 73.0016 142.278C71.9811 142.278 71.1406 143.119 71.1406 144.139C71.1406 145.16 71.9811 146 73.0016 146C74.0222 146 74.8627 145.16 74.8627 144.139Z" fill="#3F892C"/>
<path d="M89.8065 140.837C89.3862 140.597 88.906 140.477 88.4257 140.597C87.4051 140.837 86.8048 141.798 87.0449 142.818C87.165 143.299 87.4652 143.719 87.8854 143.959C88.3056 144.199 88.7859 144.319 89.2662 144.199C89.7464 144.079 90.1667 143.779 90.4068 143.359C90.6469 142.938 90.767 142.458 90.6469 141.978C90.5268 141.498 90.2267 141.077 89.8065 140.837Z" fill="#3F892C"/>
<path d="M103.858 135.254C103.617 135.254 103.317 135.314 103.077 135.434C102.657 135.675 102.297 136.035 102.117 136.515C101.936 136.995 101.996 137.476 102.177 137.896C102.417 138.316 102.777 138.676 103.257 138.856C103.737 139.036 104.218 138.976 104.638 138.796C105.538 138.376 105.959 137.235 105.478 136.335C105.238 135.675 104.578 135.254 103.858 135.254Z" fill="#3F892C"/>
<path d="M115.923 129.791C116.223 130.151 116.643 130.391 117.183 130.451C117.664 130.511 118.144 130.391 118.564 130.031C119.345 129.371 119.465 128.23 118.864 127.45C118.504 126.969 117.964 126.729 117.423 126.729C117.003 126.729 116.643 126.849 116.283 127.149C115.923 127.45 115.683 127.87 115.622 128.41C115.562 128.95 115.622 129.431 115.923 129.791Z" fill="#3F892C"/>
<path d="M128.831 119.225C129.311 119.165 129.731 118.925 130.091 118.565C130.392 118.204 130.512 117.724 130.512 117.184C130.452 116.704 130.211 116.283 129.851 115.923C129.491 115.623 129.011 115.503 128.47 115.503C127.99 115.563 127.57 115.803 127.21 116.163C126.549 116.944 126.73 118.144 127.51 118.745C127.87 119.105 128.35 119.285 128.831 119.225Z" fill="#3F892C"/>
<path d="M137.113 102.056C136.933 102.056 136.693 102.116 136.513 102.176C136.033 102.356 135.673 102.656 135.433 103.137C135.012 104.037 135.372 105.178 136.273 105.598C136.693 105.838 137.234 105.838 137.654 105.658C138.134 105.478 138.494 105.178 138.734 104.697C139.155 103.797 138.794 102.656 137.894 102.236C137.654 102.116 137.414 102.056 137.113 102.056Z" fill="#3F892C"/>
<path d="M143.358 90.4092C143.778 90.1691 144.078 89.7488 144.198 89.2686C144.318 88.7883 144.198 88.308 143.958 87.8878C143.718 87.4676 143.298 87.1674 142.818 87.0473C142.698 86.9873 142.517 86.9873 142.397 86.9873C142.037 86.9873 141.737 87.1074 141.437 87.2875C141.017 87.5276 140.716 87.9478 140.596 88.4281C140.356 89.4487 141.017 90.4092 141.977 90.6493C142.457 90.7694 142.938 90.6493 143.358 90.4092Z" fill="#3F892C"/>
<path d="M144.142 71.1389C143.122 71.1389 142.281 71.9794 142.281 72.9999C142.281 74.0205 143.122 74.861 144.142 74.861C145.163 74.861 146.003 74.0205 146.003 72.9999C146.003 71.9794 145.163 71.1389 144.142 71.1389Z" fill="#3F892C"/>
<path d="M143.361 55.5904C143.061 55.4103 142.701 55.2903 142.401 55.2903C142.281 55.2903 142.1 55.2903 141.98 55.3503C140.96 55.5904 140.359 56.551 140.6 57.5715C140.72 58.0518 141.02 58.472 141.44 58.7122C141.86 58.9523 142.341 59.0724 142.821 58.9523C143.301 58.8322 143.721 58.5321 143.961 58.1118C144.202 57.6916 144.322 57.2113 144.202 56.7311C144.082 56.2508 143.781 55.8906 143.361 55.5904Z" fill="#3F892C"/>
<path d="M137.719 40.4021C137.539 40.342 137.299 40.282 137.119 40.282C136.819 40.282 136.578 40.342 136.338 40.4621C135.438 40.8823 135.018 42.0229 135.498 42.9234C135.738 43.3437 136.098 43.7039 136.578 43.884C137.059 44.0641 137.539 44.004 137.959 43.8239C138.86 43.4037 139.28 42.2631 138.8 41.3626C138.559 40.8823 138.199 40.5221 137.719 40.4021Z" fill="#3F892C"/>
<path d="M129.792 30.0765C130.152 29.7763 130.392 29.3561 130.452 28.8158C130.512 28.3355 130.392 27.8553 130.032 27.435C129.732 27.0748 129.312 26.8347 128.772 26.7747C128.711 26.7747 128.651 26.7747 128.531 26.7747C128.111 26.7747 127.691 26.8947 127.391 27.1949C126.61 27.8553 126.49 28.9959 127.091 29.7763C127.811 30.5567 129.012 30.7368 129.792 30.0765Z" fill="#3F892C"/>
<path d="M117.601 19.2106C118.081 19.1506 118.502 18.9104 118.862 18.5502C119.522 17.7698 119.342 16.5691 118.562 15.9688C118.262 15.7287 117.841 15.5486 117.421 15.5486C117.361 15.5486 117.301 15.5486 117.181 15.5486C116.701 15.6086 116.28 15.8487 115.92 16.2089C115.62 16.5691 115.5 17.0494 115.5 17.5897C115.56 18.07 115.8 18.4902 116.16 18.8504C116.521 19.2106 117.061 19.2706 117.601 19.2106Z" fill="#3F892C"/>
<path d="M103.854 7.02393C103.674 7.02393 103.433 7.08396 103.253 7.14399C102.773 7.32409 102.413 7.62425 102.173 8.10452C101.933 8.52475 101.933 9.06504 102.113 9.48527C102.293 9.9055 102.593 10.3257 103.073 10.5659C103.974 10.9861 105.114 10.6259 105.535 9.72541C105.955 8.82491 105.595 7.68429 104.694 7.26406C104.454 7.08396 104.154 7.02393 103.854 7.02393Z" fill="#3F892C"/>
<path d="M88.4303 5.40324C88.9106 5.52331 89.3908 5.40324 89.8111 5.16311C90.2313 4.92298 90.5315 4.50275 90.6515 4.02249C90.8917 3.00193 90.2313 2.0414 89.2708 1.80127C89.0907 1.80127 88.9706 1.80127 88.8505 1.80127C88.4903 1.80127 88.1902 1.92134 87.89 2.10143C87.4698 2.34157 87.1696 2.7618 87.0496 3.24206C86.8094 4.20259 87.4698 5.22315 88.4303 5.40324Z" fill="#3F892C"/>
<path d="M84.0439 64.4657C83.3001 64.4657 82.6971 63.8628 82.6971 63.119C82.6971 62.3752 83.3001 61.7722 84.0439 61.7722C84.7877 61.7722 85.3906 62.3752 85.3906 63.119C85.3906 63.8628 84.7877 64.4657 84.0439 64.4657Z" fill="#3F892C"/>
<path d="M56.7319 89.4124L56.2273 82.7124L58.5774 82.5354L58.9535 87.527L63.0618 84.0401L75.4406 84.1885V81.8427C74.362 81.7859 73.3037 81.5543 72.2881 81.1498C71.1573 80.6993 70.1384 80.0604 69.2536 79.2479L51.5736 78.6479L56.6285 76.1898C68.1365 70.2961 75.5644 62.2501 76.3778 61.3473C77.1318 60.5106 78.9597 58.5181 79.6514 58.0893C80.7077 57.4345 81.9201 57.0884 83.1576 57.0884C84.0416 57.0884 84.9083 57.2635 85.7337 57.6088C87.8191 58.4811 89.2572 60.3458 89.6791 62.4597L92.684 65.0956L89.3183 66.2377C88.9943 67.036 88.5204 67.7654 87.9209 68.3799C87.6813 68.6253 86.9445 69.2541 85.7557 70.2519C86.0657 72.0496 85.874 73.8834 85.1908 75.5986C83.9073 78.82 81.1105 81.0747 77.7972 81.6885V84.2165L90.2258 84.3653C89.9483 82.3339 90.3554 80.2502 91.4168 78.3857C92.6905 76.1478 94.7154 74.5554 97.1183 73.9019L98.2498 73.5941L98.5632 74.7242C99.2284 77.1239 98.8931 79.678 97.6194 81.9159C97.1014 82.826 96.4577 83.627 95.7165 84.3036C99.1555 85.0422 102.063 87.6619 102.989 91.0693L103.297 92.2009L102.167 92.5142C101.376 92.7334 100.557 92.8445 99.7308 92.8445C95.7845 92.8445 92.1573 90.3198 90.775 86.7289L73.0168 86.5163L75.4265 89.0599C76.4817 88.6518 77.599 88.4418 78.76 88.4418C82.4572 88.4418 85.8525 90.539 87.4102 93.7845L87.9176 94.8416L86.863 95.3542C85.6072 95.9646 84.2495 96.2741 82.8279 96.2741C81.0228 96.2741 79.2902 95.7731 77.8078 94.8835C77.8629 95.5829 77.845 96.296 77.7458 97.0143C77.3938 99.5652 76.1049 101.796 74.116 103.294L73.1796 104L72.4692 103.067C70.9607 101.086 70.3238 98.5898 70.6756 96.039C70.9771 93.8538 71.9681 91.9053 73.4956 90.4491L69.7327 86.4771L63.9146 86.4073L44.2181 103.125L42.6929 101.328L56.7319 89.4124ZM83.0013 74.7263C83.5939 73.2391 83.7019 71.6359 83.3142 70.0898L83.135 69.3753L83.9955 68.6523C84.5467 68.19 86.0107 66.9625 86.2343 66.7337C86.7557 66.1993 87.1311 65.528 87.3197 64.7924C87.8433 62.7508 86.7702 60.5971 84.8241 59.7831C84.2882 59.5589 83.7275 59.4452 83.1574 59.4452C82.3591 59.4452 81.5759 59.6691 80.9046 60.0849C80.7163 60.2152 79.7899 61.081 78.1245 62.9292C77.3606 63.777 70.9118 70.7651 60.7968 76.6023L70.2536 76.9234L70.5832 77.2567C71.3153 77.9974 72.1823 78.5705 73.1604 78.9599C74.0603 79.3185 75.0027 79.5001 75.9616 79.5001C79.0827 79.5003 81.8461 77.6266 83.0013 74.7263ZM84.6106 93.6888C83.2787 91.901 81.1018 90.7985 78.76 90.7985C78.1471 90.7985 77.5511 90.8751 76.9775 91.027C78.3093 92.8146 80.4863 93.9172 82.828 93.9172C83.4407 93.9172 84.0366 93.8406 84.6106 93.6888ZM73.0105 96.3609C72.8111 97.8061 73.0457 99.2666 73.6591 100.525C74.5904 99.4796 75.2118 98.1372 75.4112 96.692C75.6105 95.247 75.376 93.7863 74.7624 92.5281C73.8311 93.5733 73.2098 94.9158 73.0105 96.3609ZM96.5146 76.643C95.2619 77.2676 94.1866 78.2835 93.4649 79.5514C92.7432 80.8192 92.4188 82.2625 92.5215 83.6584C93.7742 83.0338 94.8495 82.0179 95.5712 80.7499C96.2929 79.4821 96.6173 78.0391 96.5146 76.643ZM99.7308 90.4878C99.9047 90.4878 100.078 90.4811 100.251 90.4679C99.0653 88.0805 96.5118 86.4506 93.7496 86.4506C93.5757 86.4506 93.4023 86.4574 93.2297 86.4705C94.4151 88.8579 96.9688 90.4878 99.7308 90.4878Z" fill="#3F892C"/>
</svg>
