<svg width="14" height="16" viewBox="0 0 14 16" fill="none" xmlns="http://www.w3.org/2000/svg">
<path d="M0.777778 0H13.2222C13.4285 0 13.6263 0.0766231 13.7722 0.213013C13.9181 0.349403 14 0.534388 14 0.727273V15.2727C14 15.4025 13.9628 15.53 13.8924 15.6419C13.8219 15.7537 13.7207 15.8459 13.5993 15.9088C13.4778 15.9718 13.3406 16.0032 13.2018 15.9997C13.063 15.9963 12.9277 15.9583 12.81 15.8895L7 12.4938L1.19 15.8895C1.07227 15.9583 0.936981 15.9963 0.798192 15.9997C0.659402 16.0032 0.522167 15.9718 0.400734 15.9088C0.279301 15.8459 0.178098 15.7537 0.10763 15.6419C0.0371623 15.53 -5.65866e-07 15.4025 -2.38419e-07 15.2727V0.727273C-2.38419e-07 0.534388 0.0819434 0.349403 0.227805 0.213013C0.373667 0.0766231 0.571498 0 0.777778 0ZM1.55556 13.9636L6.58778 11.0225C6.71139 10.9503 6.85423 10.912 7 10.912C7.14577 10.912 7.28861 10.9503 7.41222 11.0225L12.4444 13.9636V1.45455H1.55556V13.9636Z" fill="#3F892C"/>
<path d="M12.5 1.5H1.5V14.5L7 11L12.5 14.5V1.5Z" fill="#3F892C" stroke="#3F892C"/>
</svg>
