<svg width="116" height="27" viewBox="0 0 116 27" fill="none" xmlns="http://www.w3.org/2000/svg">
<path d="M12.2957 0.133356C10.428 0.677717 9.48938 3.16573 10.7505 4.71892C12.0019 6.62328 15.3134 6.12192 15.9071 3.90316C16.7415 1.79327 14.4386 -0.593895 12.2957 0.133356Z" fill="#86BB2D"/>
<path d="M10.2967 14.0009C10.7121 15.5234 12.4892 16.4766 13.9867 15.9632C15.4925 15.5502 16.4622 13.7772 15.9259 12.2936C15.4761 10.8064 13.7565 9.88189 12.267 10.3665C10.7917 10.7981 9.79113 12.5135 10.2967 14.0009Z" fill="#DD214B"/>
<path d="M18.1712 11.0347C19.7698 11.0859 21.2365 9.61717 21.1175 8.00421C21.1626 6.23758 19.3097 4.77062 17.6004 5.20204C16.1866 5.50398 15.0651 6.96064 15.3115 8.42137C15.4263 9.85336 16.7414 11.0347 18.1712 11.0347Z" fill="#DD214B"/>
<path d="M22.5325 10.3543C21.2383 10.6954 20.2607 12.002 20.3835 13.3517C20.4225 14.8557 21.795 16.1376 23.2926 16.1006C24.9466 16.1498 26.4195 14.5844 26.2243 12.9306C26.1381 11.1636 24.2215 9.84072 22.5325 10.3543Z" fill="#DD214B"/>
<path d="M10.6765 9.37005C11.8045 7.281 9.62266 4.54626 7.33766 5.22022C5.41892 5.61881 4.47992 8.09844 5.57942 9.69284C6.7012 11.5807 9.79693 11.3751 10.6765 9.37005Z" fill="#DD214B"/>
<path d="M5.85147 12.9308C5.78128 11.1845 3.85261 9.853 2.19054 10.3544C0.797479 10.6768 -0.190394 12.1478 0.0310629 13.5614C0.189161 15.1352 1.81829 16.3349 3.36945 16.0719C4.85916 15.8913 6.03017 14.4265 5.85147 12.9308Z" fill="#DD214B"/>
<path d="M17.389 15.4575C15.955 15.8603 14.9524 17.4997 15.3879 18.9542C15.6717 20.2936 16.9966 21.2983 18.3647 21.2019C20.027 21.1771 21.3704 19.4865 21.0949 17.8613C20.9043 16.1538 19.0368 14.9153 17.389 15.4575Z" fill="#DD214B"/>
<path d="M12.0668 20.6306C9.83113 21.356 9.51721 24.7454 11.5903 25.8634C13.6426 27.2892 16.6939 25.1031 15.991 22.7077C15.6477 21.0128 13.6613 19.9773 12.0668 20.6306Z" fill="#DD214B"/>
<path d="M10.899 17.6845C10.5805 16.0347 8.73553 14.9129 7.12892 15.4803C5.87803 15.8644 5.00873 17.1875 5.12814 18.4877C5.19605 19.9856 6.58037 21.2942 8.09464 21.2058C9.84509 21.2162 11.3079 19.392 10.899 17.6845Z" fill="#DD214B"/>
<path d="M47.4768 8.78748C44.4638 9.58695 42.7771 13.0989 43.8261 15.9941C44.7738 18.9464 48.3463 20.4677 51.2065 19.4537C54.2111 18.602 56.0077 14.9449 54.7238 12.0678C53.6811 9.22512 50.2673 7.93267 47.4768 8.78748ZM51.5394 17.4806C49.7744 18.7581 46.9616 18.1756 45.9415 16.2198C44.6807 14.122 45.7214 11.0593 48.0623 10.2711C49.2474 9.99837 50.6178 10.0478 51.6149 10.8274C53.7417 12.3489 53.6895 15.9999 51.5394 17.4806Z" fill="#DD214B"/>
<path d="M39.8881 9.52565C37.8189 7.90346 34.7767 8.40435 32.9718 10.1836C32.882 8.53526 33.0935 6.87451 32.8588 5.23759C32.7429 4.42051 31.7983 4.41536 31.1665 4.33691C31.0016 6.74983 31.1315 9.16969 31.0883 11.5862C31.1085 13.5474 30.8709 15.6917 31.9922 17.4248C33.6992 20.1365 37.9674 20.5513 40.2415 18.3401C42.7135 16.0744 42.5455 11.5832 39.8881 9.52565ZM35.6698 18.1061C32.1028 17.3438 31.9283 11.4095 35.304 10.2681C37.6598 9.48277 40.1488 11.497 40.0825 13.9191C40.3897 16.3152 38.1007 18.6858 35.6698 18.1061Z" fill="#DD214B"/>
<path d="M113.16 9.27423C112.065 11.7719 111.294 14.4061 110.248 16.921C108.739 14.7364 108.211 11.6389 106.87 9.19926C106.461 8.38254 105.427 8.72365 104.699 8.65418C105.963 11.9837 107.464 15.2233 108.875 18.4909C109.585 19.6879 108.675 21.0467 107.892 21.9569C106.988 22.4812 105.734 22.5624 105.34 23.6983C107.121 24.3501 109.278 23.5964 110.045 21.8123C111.877 17.4334 113.618 13.0179 115.464 8.64507C114.696 8.72652 113.543 8.37319 113.16 9.27423Z" fill="#DD214B"/>
<path d="M92.0963 11.0533C92.0207 10.3145 91.9425 9.5728 91.8522 8.83668C91.3076 8.75596 90.7625 8.68026 90.2212 8.61091C90.1862 12.1981 90.1138 15.794 90.2586 19.378C90.8441 19.378 91.4323 19.378 92.0201 19.378C92.3306 16.9499 91.5741 14.3104 92.7507 12.0475C93.365 10.7899 94.7527 10.2771 96.0599 10.1263C96.0428 9.55244 96.0253 8.98149 96.0023 8.40802C94.2173 8.3437 92.9719 9.66251 92.0963 11.0533Z" fill="#DD214B"/>
<path d="M60.1383 12.6849C58.7995 10.9809 58.0261 7.8601 55.2036 8.66005C56.3277 10.4331 57.7273 12.0474 58.6724 13.9245C57.8521 15.9762 56.2995 17.6854 55.1953 19.6098C58.0781 20.4006 58.7796 17.1202 60.1384 15.3995C61.5842 17.0599 62.1812 20.4009 65.0847 19.6184C64.0535 17.657 62.4305 15.9849 61.6248 13.9305C62.6071 12.0708 63.9688 10.4364 65.0958 8.66017C62.2216 7.81974 61.5665 11.0334 60.1383 12.6849Z" fill="#DD214B"/>
<path d="M99.6586 11.0563C99.7048 9.83647 99.3716 8.26315 97.7745 8.60786C97.7431 12.2005 97.7021 15.7966 97.7979 19.3897C98.3804 19.3897 98.9658 19.3897 99.5543 19.3897C99.8349 16.9558 99.0729 14.3047 100.281 12.0506C100.901 10.8247 102.242 10.2275 103.575 10.2945C103.582 9.66292 103.579 9.03412 103.564 8.40245C101.771 8.34136 100.525 9.65082 99.6586 11.0563Z" fill="#DD214B"/>
<path d="M74.6302 9.24559C72.5154 7.9208 69.8293 8.58757 68.0618 10.1724C68.0102 8.52373 68.2067 6.86047 67.9835 5.22355C67.9489 4.34252 66.8828 4.4757 66.271 4.34814C66.141 6.95317 66.2505 9.56095 66.2105 12.1692C66.2075 13.9249 66.1178 15.8258 67.1143 17.367C68.6441 19.9579 72.5066 20.5024 74.8743 18.7813C78.0059 16.6429 77.864 11.2216 74.6302 9.24559ZM70.9592 18.135C67.3373 17.5353 67.0414 11.482 70.3766 10.2769C72.8343 9.43363 75.4852 11.65 75.2332 14.1972C75.442 16.475 73.2252 18.5784 70.9592 18.135Z" fill="#DD214B"/>
<path d="M88.4946 14.1536C88.4917 12.5398 88.2743 10.7662 87.0608 9.58408C85.1824 7.76739 81.9231 8.07173 80.1003 9.81883C77.7997 12.1195 77.9043 16.4108 80.535 18.4273C82.7808 20.2382 86.0897 19.8818 88.2863 18.1723C87.6109 16.2224 85.812 18.1287 84.4814 18.0476C82.2943 18.2275 80.4399 16.3876 80.3873 14.2344C83.0876 14.1304 85.7942 14.2724 88.4946 14.1536ZM85.1363 10.0769C86.1153 10.6158 86.5066 11.7371 86.5386 12.7973C84.5481 12.8554 82.5547 12.8122 80.5638 12.8122C80.5405 10.5317 83.1661 9.13805 85.1363 10.0769Z" fill="#DD214B"/>
</svg>
