<svg width="28" height="28" viewBox="0 0 28 28" fill="none" xmlns="http://www.w3.org/2000/svg">
<path d="M0.942211 16.1704C0.500172 15.5466 0 14.8397 0 14C0 13.1603 0.500172 12.4534 0.942211 11.8296C1.23216 11.42 1.5062 11.0331 1.60131 10.6777C1.7027 10.2966 1.65884 9.80897 1.61268 9.29228C1.54202 8.50845 1.46967 7.69721 1.87414 6.99825C2.2843 6.28846 3.06305 5.92955 3.75003 5.6134C4.21542 5.39864 4.65467 5.19641 4.92527 4.92581C5.19586 4.65522 5.39809 4.21542 5.61285 3.75058C5.9296 3.06354 6.28846 2.28484 6.9977 1.87469C7.69781 1.46967 8.50844 1.54312 9.29228 1.61263C9.80897 1.65818 10.296 1.70204 10.6771 1.60125C11.0331 1.50609 11.42 1.23211 11.8296 0.942156C12.4534 0.500172 13.1603 0 14 0C14.8397 0 15.5466 0.500172 16.1704 0.942211C16.58 1.23216 16.9669 1.5062 17.3223 1.6013C17.7046 1.70215 18.1922 1.65829 18.7077 1.61268C19.491 1.54263 20.3016 1.46913 21.0017 1.87414C21.7115 2.2843 22.0705 3.06305 22.3866 3.75003C22.6014 4.21542 22.8036 4.65467 23.0742 4.92527C23.3448 5.19586 23.7846 5.39809 24.2494 5.61285C24.9365 5.9296 25.7152 6.28846 26.1253 6.9977C26.5298 7.69666 26.4574 8.5079 26.3874 9.29228C26.3407 9.80842 26.2974 10.2966 26.3987 10.6771C26.4939 11.0331 26.7679 11.42 27.0578 11.8296C27.4998 12.4534 28 13.1603 28 14C28 14.8397 27.4998 15.5466 27.0578 16.1704C26.7678 16.58 26.4938 16.9669 26.3987 17.3223C26.2973 17.7034 26.3412 18.191 26.3873 18.7077C26.458 19.4916 26.5303 20.3028 26.1259 21.0018C25.7157 21.7115 24.937 22.0705 24.25 22.3866C23.7846 22.6014 23.3453 22.8036 23.0747 23.0742C22.8041 23.3448 22.6019 23.7846 22.3871 24.2494C22.0704 24.9365 21.7115 25.7152 21.0023 26.1253C20.3027 26.5298 19.4921 26.4569 18.7077 26.3874C18.1922 26.3401 17.7045 26.2962 17.3229 26.3988C16.9669 26.4939 16.58 26.7679 16.1704 27.0578C15.5466 27.4998 14.8397 28 14 28C13.1603 28 12.4534 27.4998 11.8296 27.0578C11.42 26.7678 11.0331 26.4938 10.6777 26.3987C10.2977 26.2962 9.80897 26.34 9.29228 26.3873C8.50899 26.458 7.69836 26.5314 6.99825 26.1259C6.28846 25.7157 5.92955 24.937 5.6134 24.25C5.39864 23.7846 5.19641 23.3453 4.92581 23.0747C4.65522 22.8041 4.21542 22.6019 3.75058 22.3871C3.06354 22.0704 2.28484 21.7115 1.87469 21.0023C1.47022 20.3033 1.54257 19.4921 1.61263 18.7077C1.65933 18.1916 1.70264 17.7034 1.60125 17.3229C1.5062 16.9668 1.23216 16.58 0.942211 16.1704ZM1.8941 15.4959C2.23076 15.9716 2.57884 16.4638 2.72809 17.0215C2.88302 17.602 2.82833 18.2172 2.77479 18.812C2.71841 19.4432 2.66487 20.039 2.88416 20.4179C3.10975 20.807 3.65832 21.0599 4.23883 21.3276C4.77657 21.5754 5.33258 21.8317 5.75072 22.2499C6.16886 22.668 6.42518 23.224 6.67302 23.7618C6.94017 24.3423 7.1931 24.8909 7.58275 25.1164C7.96217 25.3357 8.55859 25.2816 9.18805 25.2253C9.78392 25.1711 10.398 25.1159 10.9791 25.272C11.5362 25.4212 12.0284 25.7693 12.504 26.106C13.0321 26.4802 13.5317 26.8334 13.9999 26.8334C14.4682 26.8334 14.9678 26.4802 15.4959 26.106C15.9715 25.7693 16.4637 25.4212 17.0214 25.272C17.3057 25.1956 17.5985 25.1706 17.893 25.1706C18.2001 25.1706 18.5083 25.1979 18.8119 25.2253C19.4436 25.2822 20.0384 25.3352 20.4178 25.1159C20.8069 24.8903 21.0598 24.3417 21.3275 23.7612C21.5753 23.2235 21.8317 22.6675 22.2498 22.2493C22.668 21.8311 23.224 21.5748 23.7617 21.327C24.3422 21.0598 24.8908 20.8069 25.1164 20.4172C25.3357 20.0384 25.2821 19.4426 25.2252 18.812C25.1717 18.2172 25.117 17.602 25.2719 17.0209C25.4212 16.4638 25.7692 15.9716 26.1059 15.496C26.4802 14.9679 26.8334 14.4683 26.8334 14.0001C26.8334 13.5318 26.4802 13.0322 26.1059 12.5041C25.7692 12.0285 25.4212 11.5363 25.2719 10.9786C25.117 10.3981 25.1717 9.78283 25.2252 9.1881C25.2816 8.5569 25.3351 7.96102 25.1158 7.5822C24.8903 7.1931 24.3417 6.94017 23.7612 6.67248C23.2234 6.42469 22.6674 6.16831 22.2493 5.75017C21.8311 5.33203 21.5748 4.77602 21.327 4.23828C21.0598 3.65777 20.8069 3.1092 20.4172 2.88362C20.0396 2.66372 19.4437 2.71671 18.812 2.77479C18.2178 2.82833 17.6031 2.88362 17.0209 2.72809C16.4638 2.57884 15.9716 2.23076 15.496 1.8941C14.9679 1.51982 14.4683 1.16665 14.0001 1.16665C13.5318 1.16665 13.0322 1.51982 12.5041 1.8941C12.0285 2.23076 11.5363 2.57884 10.9786 2.72809C10.3987 2.88362 9.78398 2.82833 9.1881 2.77479C8.5552 2.71955 7.96048 2.66541 7.5822 2.88416C7.1931 3.10975 6.94017 3.65832 6.67248 4.23883C6.42469 4.77657 6.16831 5.33258 5.75017 5.75072C5.33203 6.16886 4.77602 6.42518 4.23828 6.67302C3.65777 6.94017 3.1092 7.1931 2.88362 7.58275C2.66432 7.96157 2.71786 8.55744 2.77479 9.18805C2.82833 9.78277 2.88302 10.398 2.72809 10.9791C2.57884 11.5362 2.23076 12.0284 1.8941 12.504C1.51982 13.0321 1.16665 13.5317 1.16665 13.9999C1.16665 14.4682 1.51988 14.9679 1.8941 15.4959Z" fill="black"/>
<path d="M19.8243 10.1795C19.59 9.94017 19.2101 9.94017 18.9757 10.1795L11.7874 17.5208L9.02428 14.6989C8.78997 14.4596 8.4101 14.4597 8.17575 14.6989C7.94142 14.9382 7.94142 15.3262 8.17575 15.5655L11.3631 18.8206C11.5973 19.0599 11.9775 19.0597 12.2116 18.8206L19.8243 11.0461C20.0586 10.8068 20.0586 10.4188 19.8243 10.1795Z" fill="black"/>
</svg>
