<svg width="22" height="15" viewBox="0 0 22 15" fill="none" xmlns="http://www.w3.org/2000/svg">
<path d="M15.5332 2.80705H2.17804L4.04843 1.03644C4.29962 0.798655 4.29877 0.413909 4.04654 0.177098C3.79427 -0.0597532 3.3862 -0.0589026 3.13504 0.17888L0.187859 2.96888C0.0602852 3.08967 -0.00193359 3.24834 0.000472656 3.40637C0.000386719 3.40916 0 3.41188 0 3.41467C0 3.62535 0.113824 3.81088 0.286559 3.91989L3.13504 6.61643C3.38628 6.85422 3.79431 6.85499 4.04654 6.61822C4.29877 6.38141 4.29962 5.99666 4.04843 5.75888L2.21401 4.02229H15.5332C18.3882 4.02229 20.7109 6.212 20.7109 8.90352C20.7109 11.595 18.3882 13.7848 15.5332 13.7848H0.644531C0.288578 13.7848 0 14.0568 0 14.3924C0 14.7279 0.288578 15 0.644531 15H15.5332C19.099 15 22 12.2651 22 8.90352C22 5.54192 19.099 2.80705 15.5332 2.80705Z" fill="black"/>
</svg>
