<svg width="27" height="26" viewBox="0 0 27 26" fill="none" xmlns="http://www.w3.org/2000/svg">
<path d="M26.5703 1.08801C23.4384 -0.0905248 20.188 -0.32037 17.4179 0.441242C15.0349 1.09615 13.0146 2.65002 11.8752 4.70434C10.7977 6.64707 10.6208 8.7939 11.4022 10.447C11.8875 11.4737 12.6911 12.3175 13.6629 12.8962C13.6539 13.1135 13.6488 13.3359 13.6488 13.5654V18.6236C13.3201 18.1163 12.941 17.6313 12.5246 17.1779C12.9048 16.2292 12.961 15.1757 12.6572 14.1771C12.2853 12.9552 11.4687 11.9925 10.2957 11.3931C8.72293 10.5895 6.54797 10.4965 4.6193 11.1506C1.54031 12.1947 0.162123 14.213 0.104991 14.2983C-0.0144457 14.4768 -0.0332953 14.7039 0.0551977 14.8993C0.143607 15.0949 0.326848 15.2314 0.540283 15.2606C1.9083 15.4481 2.62425 16.3131 3.45321 17.3146C4.41263 18.4737 5.50007 19.7875 7.73283 20.054C7.91282 20.0755 8.09247 20.0861 8.27121 20.0861C9.60461 20.0861 10.8795 19.4967 11.7603 18.4514C11.7969 18.4079 11.8308 18.3628 11.8656 18.3183C12.6532 19.2465 13.2583 20.3022 13.5525 21.3667C13.5729 21.4405 13.6065 21.5067 13.6489 21.5653V25.3772C13.6489 25.7212 13.929 26 14.2745 26C14.62 26 14.9 25.7212 14.9 25.3772V13.5656C14.9 13.5296 14.9006 13.4944 14.9008 13.4588C15.4935 13.6518 16.1188 13.7551 16.7523 13.7551C16.9213 13.7551 17.0911 13.7477 17.2608 13.7327C19.6348 13.5232 21.638 11.8538 22.6193 9.26704C22.705 9.04101 22.7889 8.79722 22.8758 8.52162C22.9792 8.19346 22.7958 7.84396 22.4662 7.74099C22.1366 7.63803 21.7855 7.82071 21.6821 8.14879C21.6025 8.40147 21.5262 8.62334 21.4489 8.82703C20.6414 10.9557 19.0345 12.3258 17.1504 12.492C16.4064 12.5578 15.6547 12.4292 14.9687 12.1487C15.3833 8.02465 17.547 6.8559 17.6569 6.79919C17.9637 6.64582 18.0892 6.27457 17.9371 5.96741C17.7844 5.65893 17.4098 5.5318 17.0995 5.68409C16.9763 5.74454 14.4296 7.0478 13.7925 11.4662C13.2588 11.0474 12.8197 10.5205 12.5344 9.91672C11.9234 8.62409 12.0864 6.90058 12.9705 5.30644C13.9482 3.54374 15.6906 2.2081 17.751 1.64187C19.9599 1.03479 22.5218 1.12795 25.0666 1.89397C24.1952 2.65649 23.506 3.50372 23.0111 4.42293C22.8479 4.72602 22.9624 5.1035 23.2669 5.266C23.361 5.31616 23.4622 5.33999 23.5618 5.33999C23.785 5.33999 24.001 5.22083 24.1137 5.01133C24.6804 3.95892 25.5556 3.00666 26.7152 2.18103C26.9362 2.03322 27.0428 1.76966 26.984 1.52479C26.907 1.20418 26.589 1.09416 26.5703 1.08801ZM7.8817 18.8174C6.14671 18.6103 5.30732 17.5962 4.41872 16.5225C3.72887 15.6891 2.96604 14.7674 1.75592 14.2951C2.35902 13.7056 3.42502 12.8714 5.02274 12.3296C6.64138 11.7806 8.44302 11.8466 9.72446 12.5012C10.601 12.949 11.1849 13.6344 11.4599 14.5382C11.6274 15.0885 11.643 15.6625 11.52 16.2097C10.2139 15.0961 8.68098 14.2988 7.17693 14.0558C6.83547 14.001 6.51461 14.2312 6.45923 14.5708C6.40385 14.9102 6.63546 15.2301 6.97651 15.2852C8.35661 15.5082 9.79419 16.3084 10.9882 17.406C10.9297 17.4896 10.8685 17.5718 10.8017 17.6508C10.0645 18.5258 8.99992 18.9509 7.8817 18.8174Z" fill="black"/>
</svg>
