<svg width="32" height="29" viewBox="0 0 32 29" fill="none" xmlns="http://www.w3.org/2000/svg">
<path d="M18.7656 18.5226C21.4315 13.7203 26.5173 12.0187 28.7105 10.0146C27.0467 12.4725 26.0069 17.3693 21.8285 20.4889" stroke="black" stroke-miterlimit="10" stroke-linecap="round" stroke-linejoin="round"/>
<path d="M13.2677 24.3643C11.1124 25.234 10.0536 26.7276 8.48438 28.1834C10.6397 28.1834 14.7046 27.4838 16.9923 24.7424" stroke="black" stroke-miterlimit="10" stroke-linecap="round" stroke-linejoin="round"/>
<path d="M20.7363 24.3643C22.8917 25.234 23.9504 26.7276 25.5197 28.1834C23.3643 28.1834 19.2994 27.4838 17.0117 24.7424" stroke="black" stroke-miterlimit="10" stroke-linecap="round" stroke-linejoin="round"/>
<path d="M21.8101 20.4882C25.7427 19.2214 28.6165 19.921 30.9987 19.3916C28.711 20.4882 23.852 24.5342 20.7324 24.3829" stroke="black" stroke-miterlimit="10" stroke-linecap="round" stroke-linejoin="round"/>
<path d="M17.203 9.84829C16.7492 6.86105 15.6715 5.51868 15.0098 1C14.0267 7.74966 11.8146 10.0374 12.4385 14.556C9.64032 10.9638 5.21617 9.77267 3.2877 8.01435C4.81914 10.2831 5.65103 14.8396 9.11093 17.9403C5.82118 17.1651 3.11754 17.8458 1 17.3731C2.26674 17.9781 4.28975 19.4718 6.38838 20.6629" stroke="black" stroke-miterlimit="10" stroke-linecap="round" stroke-linejoin="round"/>
<path d="M25.7285 6.08398L5.21484 26.6166" stroke="black" stroke-miterlimit="10" stroke-linecap="round" stroke-linejoin="round"/>
</svg>
