<svg width="28" height="28" viewBox="0 0 28 28" fill="none" xmlns="http://www.w3.org/2000/svg">
<path d="M14.0093 27.9998C14.1015 27.9998 14.1948 27.9777 14.2788 27.9333L27.6862 20.9333C27.8787 20.833 28 20.6335 28 20.4165V7.29149C28 7.08966 27.895 6.90183 27.7235 6.79566C27.552 6.68949 27.3362 6.68016 27.1565 6.76999L13.7492 13.4783C13.552 13.5775 13.4272 13.7793 13.4272 13.9998V27.4165C13.4272 27.6207 13.5333 27.8097 13.7083 27.9158C13.7993 27.9718 13.9043 27.9998 14.0093 27.9998ZM26.8333 20.063L14.5927 26.454V14.3603L26.8333 8.23533V20.063Z" fill="black"/>
<path d="M13.9909 28C14.0959 28 14.2009 27.972 14.2931 27.916C14.4669 27.8098 14.5742 27.6208 14.5742 27.4166V14C14.5742 13.7795 14.4494 13.5776 14.2522 13.4785L0.844877 6.77013C0.666377 6.67913 0.449377 6.68846 0.277877 6.79579C0.10521 6.90196 0.000208855 7.0898 0.000208855 7.29163V20.4166C0.000208855 20.6336 0.121542 20.8331 0.314042 20.9335L13.7214 27.9335C13.8054 27.9778 13.8987 28 13.9909 28ZM13.4076 14.3605V26.4541L1.16688 20.0631V8.23546L13.4076 14.3605ZM0.583543 20.4166H0.571876H0.583543Z" fill="black"/>
<path d="M27.4155 7.8749C27.6301 7.8749 27.8355 7.75707 27.9381 7.5529C28.0828 7.26473 27.965 6.91473 27.6768 6.77007L14.2508 0.0617383C14.0863 -0.0199284 13.8926 -0.0199284 13.7293 0.0617383L0.321953 6.77007C0.0337868 6.91473 -0.0828819 7.26473 0.0606174 7.5529C0.205284 7.84107 0.554119 7.95657 0.843452 7.81423L13.9895 1.2354L27.1541 7.81307C27.2381 7.85507 27.3268 7.8749 27.4155 7.8749Z" fill="black"/>
<path d="M6.99929 17.4999C7.32129 17.4999 7.58262 17.2385 7.58262 16.9165V10.8604L20.6679 4.31303C20.9561 4.16953 21.0728 3.81836 20.9281 3.5302C20.7834 3.24203 20.4335 3.12653 20.1453 3.26886L6.73796 9.97719C6.54079 10.0775 6.41596 10.2794 6.41596 10.4999V16.9165C6.41596 17.2385 6.67729 17.4999 6.99929 17.4999Z" fill="black"/>
</svg>
