<svg width="146" height="146" viewBox="0 0 146 146" fill="none" xmlns="http://www.w3.org/2000/svg">
<path d="M82.0294 120.529H63.4876C62.0312 120.526 60.6354 119.946 59.6066 118.915C58.5778 117.884 58 116.487 58 115.03V107.587H68.0588L68.3382 108.302C69.0501 110.235 70.1579 111.997 71.5906 113.477C75.0776 116.964 80.3306 117.948 83.1471 118.182L89.6518 118.786L83.3147 120.384C82.8946 120.489 82.4624 120.538 82.0294 120.529ZM60.2353 109.822V115.03C60.2338 115.458 60.3169 115.883 60.4796 116.278C60.6424 116.674 60.8818 117.034 61.1839 117.337C61.4861 117.641 61.8451 117.881 62.2404 118.045C62.6358 118.209 63.0596 118.294 63.4876 118.294H74.6641C72.9095 117.506 71.3088 116.412 69.9365 115.064C68.4588 113.551 67.2796 111.772 66.4606 109.822H60.2353Z" fill="#3F892C"/>
<path d="M87.5282 93.1134H58V83.3675C58 81.911 58.5778 80.5141 59.6066 79.4832C60.6354 78.4523 62.0312 77.8716 63.4876 77.8687H82.0294C83.4869 77.8716 84.8838 78.4519 85.9144 79.4825C86.945 80.5131 87.5253 81.91 87.5282 83.3675V93.1134ZM60.2353 90.8781H85.2929V83.3675C85.2929 82.5019 84.9491 81.6718 84.3371 81.0598C83.725 80.4478 82.895 80.1039 82.0294 80.1039H63.4876C63.0596 80.1039 62.6358 80.1884 62.2404 80.3526C61.8451 80.5167 61.4861 80.7573 61.1839 81.0605C60.8818 81.3637 60.6424 81.7235 60.4796 82.1194C60.3169 82.5153 60.2338 82.9394 60.2353 83.3675V90.8781Z" fill="#3F892C"/>
<path d="M39.2969 66.5C39.2969 67.0825 39.769 67.5547 40.3515 67.5547H43.4453V70.6485C43.4453 71.231 43.9175 71.7031 44.5 71.7031C45.0825 71.7031 45.5547 71.231 45.5547 70.6485V67.5547H48.6485C49.231 67.5547 49.7031 67.0825 49.7031 66.5C49.7031 65.9175 49.231 65.4453 48.6485 65.4453H45.5547V62.3515C45.5547 61.769 45.0825 61.2969 44.5 61.2969C43.9175 61.2969 43.4453 61.769 43.4453 62.3515V65.4453H40.3515C39.7691 65.4453 39.2969 65.9175 39.2969 66.5ZM31 60.8243V72.1757C31 74.1477 31.768 76.0017 33.1624 77.3961C33.3845 77.5529 35.218 80 38.8243 80H50.1757C53.7816 80 55.6132 77.5545 55.8376 77.3961C57.232 76.0017 58 74.1477 58 72.1757V60.8243C58 58.8522 57.232 56.9983 55.8376 55.6039C55.6155 55.4471 53.782 53 50.1757 53H38.8243C35.2184 53 33.3868 55.4455 33.1624 55.6039C31.7679 56.9983 31 58.8523 31 60.8243ZM33.1094 60.8243C33.1094 59.4157 33.6579 58.0915 34.6539 57.0955C34.885 56.9293 36.1678 55.1094 38.8243 55.1094H50.1757C52.818 55.1094 54.1228 56.9349 54.3461 57.0955C55.3421 58.0915 55.8906 59.4157 55.8906 60.8243V72.1757C55.8906 73.5843 55.3421 74.9086 54.3461 75.9045C54.115 76.0707 52.8322 77.8906 50.1757 77.8906H38.8243C36.182 77.8906 34.8772 76.0651 34.6539 75.9045C33.6579 74.9086 33.1094 73.5843 33.1094 72.1757V60.8243Z" fill="#3F892C"/>
<path d="M106.703 66.5C106.703 67.0825 106.231 67.5547 105.648 67.5547H97.3515C96.769 67.5547 96.2969 67.0825 96.2969 66.5C96.2969 65.9175 96.769 65.4453 97.3515 65.4453H105.648C106.231 65.4453 106.703 65.9175 106.703 66.5ZM115 60.8243V72.1757C115 75.7817 112.555 77.6129 112.396 77.8376C111.002 79.2321 109.148 80 107.176 80H95.8243C93.8522 80 91.9983 79.232 90.6039 77.8376C90.4469 77.6152 88 75.782 88 72.1757V60.8243C88 57.2184 90.4455 55.387 90.6039 55.1624C91.9983 53.768 93.8523 53 95.8243 53H107.176C109.148 53 111.002 53.768 112.396 55.1624C112.553 55.3845 115 57.218 115 60.8243ZM112.891 60.8243C112.891 58.1818 111.065 56.877 110.905 56.654C109.909 55.6579 108.584 55.1094 107.176 55.1094H95.8243C94.4157 55.1094 93.0915 55.6579 92.0955 56.6539C91.9292 56.885 90.1094 58.1678 90.1094 60.8243V72.1757C90.1094 74.8182 91.9348 76.1227 92.0954 76.346C93.0915 77.3421 94.4157 77.8906 95.8243 77.8906H107.176C108.584 77.8906 109.909 77.3421 110.905 76.3461C111.071 76.115 112.891 74.8322 112.891 72.1757V60.8243Z" fill="#3F892C"/>
<path d="M79.3474 80.1039H66.1591C65.6734 80.1311 65.1872 80.0589 64.7303 79.8917C64.2735 79.7245 63.8555 79.4659 63.502 79.1317C63.1485 78.7974 62.8669 78.3945 62.6745 77.9477C62.4821 77.5009 62.3828 77.0195 62.3828 76.533C62.3828 76.0465 62.4821 75.5651 62.6745 75.1183C62.8669 74.6715 63.1485 74.2686 63.502 73.9344C63.8555 73.6001 64.2735 73.3415 64.7303 73.1743C65.1872 73.0071 65.6734 72.9349 66.1591 72.9621H79.3474C79.8331 72.9349 80.3193 73.0071 80.7762 73.1743C81.233 73.3415 81.651 73.6001 82.0045 73.9344C82.358 74.2686 82.6396 74.6715 82.832 75.1183C83.0244 75.5651 83.1237 76.0465 83.1237 76.533C83.1237 77.0195 83.0244 77.5009 82.832 77.9477C82.6396 78.3945 82.358 78.7974 82.0045 79.1317C81.651 79.4659 81.233 79.7245 80.7762 79.8917C80.3193 80.0589 79.8331 80.1311 79.3474 80.1039ZM66.1591 75.1974C65.9735 75.1804 65.7863 75.2023 65.6096 75.2617C65.4329 75.3211 65.2705 75.4167 65.1328 75.5424C64.995 75.668 64.885 75.821 64.8098 75.9916C64.7345 76.1622 64.6957 76.3466 64.6957 76.533C64.6957 76.7195 64.7345 76.9038 64.8098 77.0744C64.885 77.245 64.995 77.398 65.1328 77.5237C65.2705 77.6493 65.4329 77.7449 65.6096 77.8043C65.7863 77.8637 65.9735 77.8856 66.1591 77.8686H79.3474C79.533 77.8856 79.7202 77.8637 79.8969 77.8043C80.0736 77.7449 80.236 77.6493 80.3738 77.5237C80.5115 77.398 80.6215 77.245 80.6967 77.0744C80.772 76.9038 80.8109 76.7195 80.8109 76.533C80.8109 76.3466 80.772 76.1622 80.6967 75.9916C80.6215 75.821 80.5115 75.668 80.3738 75.5424C80.236 75.4167 80.0736 75.3211 79.8969 75.2617C79.7202 75.2023 79.533 75.1804 79.3474 75.1974H66.1591Z" fill="#3F892C"/>
<path d="M81.0346 75.1976H64.4375V67.8547C64.4334 66.3549 64.9115 64.8934 65.8011 63.6859L68.4387 60.1765V53.3141C68.4387 52.1699 68.8932 51.0726 69.7023 50.2636C70.5113 49.4545 71.6086 49 72.7528 49C73.897 49 74.9943 49.4545 75.8034 50.2636C76.6124 51.0726 77.0669 52.1699 77.0669 53.3141V60.1765L79.6599 63.6971C80.5527 64.9036 81.0346 66.3649 81.0346 67.8659V75.1976ZM66.6728 72.9624H78.7993V67.8547C78.7985 66.8305 78.4651 65.8343 77.8493 65.0159L74.8316 60.9029V53.3141C74.8316 52.7628 74.6126 52.234 74.2228 51.8442C73.8329 51.4543 73.3042 51.2353 72.7528 51.2353C72.2015 51.2353 71.6727 51.4543 71.2829 51.8442C70.893 52.234 70.674 52.7628 70.674 53.3141V60.9029L67.6452 65.0159C67.0257 65.8337 66.6849 66.8288 66.6728 67.8547V72.9624Z" fill="#3F892C"/>
<path d="M65.6016 67.4858H79.9186V69.7211H65.6016V67.4858Z" fill="#3F892C"/>
<path d="M86.3008 120.529H85.8091H84.6914L84.7585 119.412C84.7585 119.412 84.7585 119.065 84.7585 118.551V118.294C84.7585 117.88 84.7585 117.377 84.8702 116.796C84.9685 115.897 85.1253 115.004 85.3396 114.125C85.8733 111.551 87.116 109.178 88.9273 107.274C93.3979 102.803 100.797 103.083 101.121 103.094H102.127V104.111C102.127 104.424 102.44 111.8 97.9355 116.304C94.102 120.227 88.0667 120.529 86.3008 120.529ZM99.9249 105.34C97.8685 105.441 93.3644 105.989 90.492 108.861C88.9772 110.476 87.9403 112.481 87.4967 114.65C87.3074 115.434 87.1692 116.229 87.0832 117.031C87.0832 117.489 87.0049 117.914 86.9826 118.272C89.0279 118.171 93.5432 117.634 96.4043 114.762C99.2767 111.89 99.8243 107.386 99.9249 105.34Z" fill="#3F892C"/>
<path d="M85.8637 120.529C85.5673 120.529 85.283 120.411 85.0734 120.202C84.8638 119.992 84.7461 119.708 84.7461 119.412C84.7461 119.412 84.7461 119.02 84.7461 118.383C84.7461 118.087 84.8638 117.803 85.0734 117.593C85.283 117.383 85.5673 117.266 85.8637 117.266C86.1602 117.266 86.4444 117.383 86.654 117.593C86.8636 117.803 86.9814 118.087 86.9814 118.383V119.501C86.9589 119.782 86.8312 120.043 86.624 120.234C86.4168 120.425 86.1453 120.53 85.8637 120.529Z" fill="#3F892C"/>
<path d="M85.8624 120.529C85.7153 120.53 85.5695 120.502 85.4333 120.446C85.2972 120.391 85.1733 120.309 85.0689 120.205C84.9641 120.101 84.881 119.978 84.8242 119.841C84.7675 119.705 84.7383 119.559 84.7383 119.412C84.7383 119.264 84.7675 119.118 84.8242 118.982C84.881 118.846 84.9641 118.722 85.0689 118.618L94.8036 108.883C94.9075 108.779 95.0311 108.695 95.1673 108.639C95.3035 108.582 95.4496 108.553 95.5971 108.553C95.7447 108.553 95.8907 108.582 96.0269 108.639C96.1631 108.695 96.2867 108.779 96.3906 108.883C96.5988 109.093 96.7157 109.376 96.7157 109.671C96.7157 109.967 96.5988 110.25 96.3906 110.459L86.6448 120.194C86.4384 120.404 86.1572 120.525 85.8624 120.529Z" fill="#3F892C"/>
<path d="M85.8629 119.479C85.5665 119.479 85.2822 119.361 85.0726 119.151C84.863 118.942 84.7453 118.658 84.7453 118.361C84.7453 118.07 84.7453 117.724 84.6894 117.333C84.5382 114.517 83.8754 111.752 82.7335 109.174C82.0487 107.657 81.103 106.273 79.9394 105.083C75.8265 100.959 69.2771 100.345 66.7288 100.266C66.8011 103.012 67.326 105.727 68.2824 108.302C68.3476 108.471 68.3707 108.654 68.3498 108.834C68.3289 109.014 68.2645 109.186 68.1622 109.335C68.0599 109.485 67.9228 109.608 67.7627 109.692C67.6025 109.777 67.4242 109.822 67.2429 109.822H59.1176C58.8212 109.822 58.537 109.705 58.3274 109.495C58.1178 109.285 58 109.001 58 108.705V91.9399C58 91.6435 58.1178 91.3592 58.3274 91.1496C58.537 90.94 58.8212 90.8223 59.1176 90.8223H86.4106C86.707 90.8223 86.9913 90.94 87.2009 91.1496C87.4105 91.3592 87.5282 91.6435 87.5282 91.9399V114.293C87.539 114.382 87.539 114.472 87.5282 114.561C87.338 115.341 87.1998 116.132 87.1147 116.931C87.1147 117.456 87.0253 117.936 87.0141 118.316C87.0203 118.47 86.9949 118.623 86.9394 118.766C86.8839 118.909 86.7995 119.039 86.6915 119.148C86.5835 119.257 86.4542 119.343 86.3116 119.4C86.1691 119.457 86.0163 119.483 85.8629 119.479ZM66.1924 98.0199C68.5059 98.0199 76.4412 98.4111 81.5265 103.496C82.8737 104.874 83.9672 106.478 84.7565 108.235C84.9576 108.649 85.1253 109.062 85.2929 109.476V93.1134H60.2353V107.643H65.6671C64.8229 104.893 64.4267 102.025 64.4935 99.1487C64.4932 98.8618 64.6032 98.5856 64.8009 98.3776C64.9985 98.1695 65.2687 98.0454 65.5553 98.0311L66.1924 98.0199Z" fill="#3F892C"/>
<path d="M85.3062 120.529C84.7809 120.529 83.9426 120.529 82.892 120.418C79.7738 120.127 73.9509 119.043 69.9609 115.064C68.3064 113.361 67.0238 111.332 66.1944 109.107C64.9923 105.893 64.4157 102.479 64.4956 99.0483C64.4952 98.7613 64.6053 98.4851 64.8029 98.2771C65.0006 98.069 65.2707 97.945 65.5573 97.9306C65.9597 97.9306 75.6162 97.5171 81.5285 103.396C82.8857 104.803 83.9796 106.442 84.7585 108.235C86.0131 111.061 86.7476 114.09 86.9268 117.176C86.9268 117.612 86.9826 118.026 86.9826 118.361V118.451V119.367C86.9826 119.663 86.8649 119.948 86.6553 120.157C86.4457 120.367 86.1614 120.485 85.865 120.485L85.3062 120.529ZM66.7309 100.266C66.8032 103.012 67.3281 105.727 68.2844 108.302C68.9963 110.235 70.1041 111.998 71.5368 113.477C75.0238 116.964 80.2768 117.948 83.0932 118.182C83.7415 118.249 84.3003 118.272 84.7473 118.283C84.7473 118.015 84.7473 117.691 84.6915 117.333C84.5402 114.517 83.8774 111.752 82.7356 109.174C82.0508 107.658 81.1051 106.273 79.9415 105.084C75.8285 100.959 69.2791 100.345 66.7309 100.266Z" fill="#3F892C"/>
<path d="M85.8637 120.529C85.5673 120.529 85.283 120.411 85.0734 120.202C84.8638 119.992 84.7461 119.708 84.7461 119.412C84.7461 119.412 84.7461 119.02 84.7461 118.383C84.7461 118.087 84.8638 117.803 85.0734 117.593C85.283 117.383 85.5673 117.266 85.8637 117.266C86.1602 117.266 86.4444 117.383 86.654 117.593C86.8636 117.803 86.9814 118.087 86.9814 118.383V119.501C86.9589 119.782 86.8312 120.043 86.624 120.234C86.4168 120.425 86.1453 120.53 85.8637 120.529Z" fill="#3F892C"/>
<path d="M84.8369 119.49C84.6898 119.491 84.544 119.463 84.4078 119.407C84.2716 119.351 84.1478 119.269 84.0433 119.166L72.0845 107.207C71.9798 107.103 71.8966 106.979 71.8399 106.843C71.7831 106.707 71.7539 106.561 71.7539 106.413C71.7539 106.266 71.7831 106.12 71.8399 105.984C71.8966 105.847 71.9798 105.724 72.0845 105.62C72.2939 105.412 72.5772 105.295 72.8724 105.295C73.1677 105.295 73.451 105.412 73.6604 105.62L85.6751 117.579C85.832 117.734 85.9393 117.933 85.9833 118.15C86.0273 118.366 86.0061 118.591 85.9224 118.796C85.8387 119 85.6961 119.175 85.5129 119.299C85.3296 119.423 85.1138 119.489 84.8927 119.49H84.8369Z" fill="#3F892C"/>
<path d="M74.8627 1.86102C74.8627 0.840461 74.0222 0 73.0016 0C71.9811 0 71.1406 0.840461 71.1406 1.86102C71.1406 2.88158 71.9811 3.72204 73.0016 3.72204C74.0222 3.72204 74.8627 2.88158 74.8627 1.86102Z" fill="#3F892C"/>
<path d="M58.1736 2.0414C57.8735 1.8613 57.5133 1.80127 57.1531 1.80127C57.033 1.80127 56.913 1.80127 56.7929 1.80127C55.7723 2.0414 55.172 3.00193 55.4121 4.02249C55.5322 4.50275 55.8324 4.92298 56.2526 5.16311C56.6728 5.40324 57.1531 5.52331 57.6333 5.40324C58.1136 5.28318 58.5338 4.98301 58.774 4.56278C59.0141 4.14255 59.1342 3.66229 59.0141 3.18203C58.834 2.7618 58.5939 2.34157 58.1736 2.0414Z" fill="#3F892C"/>
<path d="M42.743 7.14399C42.5629 7.08396 42.3228 7.02393 42.1427 7.02393C41.8425 7.02393 41.6024 7.08396 41.3622 7.20402C40.942 7.44416 40.5818 7.80435 40.4017 8.28462C40.2216 8.76488 40.2816 9.24514 40.4617 9.66537C40.882 10.5659 42.0226 10.9861 42.9231 10.5058C43.3433 10.2657 43.7035 9.90551 43.8836 9.42524C44.0637 8.94498 44.0037 8.46472 43.8236 8.04449C43.5835 7.62425 43.2233 7.32409 42.743 7.14399Z" fill="#3F892C"/>
<path d="M28.4568 19.2108C28.937 19.2709 29.4173 19.1508 29.8375 18.7906C30.6179 18.1302 30.738 16.9896 30.1377 16.2092C29.8375 15.849 29.4173 15.6089 28.877 15.5488C28.817 15.5488 28.7569 15.5488 28.6369 15.5488C28.2166 15.5488 27.7964 15.6689 27.4962 15.9691C26.7158 16.6294 26.5957 17.77 27.1961 18.5505C27.4962 18.9107 27.9165 19.1508 28.4568 19.2108Z" fill="#3F892C"/>
<path d="M18.7901 29.776C19.0903 29.4158 19.2103 28.9356 19.2103 28.3953C19.1503 27.915 18.9102 27.4948 18.55 27.1346C18.2498 26.8945 17.8296 26.7144 17.4093 26.7144C17.3493 26.7144 17.2893 26.7144 17.1692 26.7144C16.6889 26.7744 16.2687 27.0145 15.9085 27.3747C15.6083 27.7349 15.4883 28.2152 15.4883 28.7555C15.5483 29.2357 15.7884 29.656 16.1486 30.0162C16.9891 30.7366 18.1898 30.5565 18.7901 29.776Z" fill="#3F892C"/>
<path d="M8.10328 43.7636C8.52351 44.0038 9.06381 44.0038 9.48404 43.8237C9.90427 43.6436 10.3245 43.3434 10.5646 42.8631C10.8048 42.4429 10.8048 41.9026 10.6247 41.4824C10.4446 41.0621 10.1444 40.6419 9.66413 40.4018C9.424 40.2817 9.12384 40.2217 8.88371 40.2217C8.22334 40.2217 7.56298 40.5819 7.20278 41.2422C6.78255 42.2628 7.20278 43.3434 8.10328 43.7636Z" fill="#3F892C"/>
<path d="M3.2421 58.9525C3.72237 59.0726 4.20263 58.9525 4.62286 58.7124C5.04309 58.4723 5.34325 58.052 5.46332 57.5718C5.70345 56.5512 5.04309 55.5907 4.08256 55.3506C3.9625 55.2905 3.7824 55.2905 3.66233 55.2905C3.30214 55.2905 3.00197 55.4106 2.70181 55.5907C2.28158 55.8308 1.98141 56.2511 1.86135 56.7313C1.62121 57.7519 2.22154 58.7724 3.2421 58.9525Z" fill="#3F892C"/>
<path d="M1.86102 71.1387C0.840461 71.1387 0 71.9791 0 72.9997C0 74.0202 0.840461 74.8607 1.86102 74.8607C2.88158 74.8607 3.72204 74.0202 3.72204 72.9997C3.72204 71.9791 2.88158 71.1387 1.86102 71.1387Z" fill="#3F892C"/>
<path d="M4.62286 87.2875C4.3227 87.1074 3.9625 86.9873 3.66233 86.9873C3.54227 86.9873 3.36217 86.9873 3.2421 87.0473C2.22154 87.2875 1.62121 88.248 1.86135 89.2686C1.98141 89.7488 2.28158 90.1691 2.70181 90.4092C3.12204 90.6493 3.6023 90.7694 4.08256 90.6493C4.56283 90.5293 4.98306 90.2291 5.22319 89.8089C5.46332 89.3886 5.58339 88.9084 5.46332 88.4281C5.34326 87.9478 5.04309 87.5276 4.62286 87.2875Z" fill="#3F892C"/>
<path d="M9.48464 102.116C9.30455 102.056 9.06441 101.996 8.88431 101.996C8.58415 101.996 8.34402 102.056 8.10389 102.176C7.20339 102.596 6.78316 103.737 7.26343 104.638C7.68366 105.538 8.82428 105.958 9.72478 105.478C10.6253 105.058 11.0455 103.917 10.5652 103.017C10.3251 102.656 9.96491 102.296 9.48464 102.116Z" fill="#3F892C"/>
<path d="M18.5491 118.805C18.9093 118.505 19.1494 118.084 19.2094 117.544C19.2695 117.064 19.1494 116.584 18.7892 116.163C18.489 115.803 18.0688 115.563 17.5285 115.503C17.4685 115.503 17.4085 115.503 17.2884 115.503C16.8682 115.503 16.4479 115.623 16.1478 115.923C15.7876 116.223 15.5474 116.644 15.4874 117.184C15.4274 117.664 15.5474 118.144 15.9076 118.565C16.568 119.345 17.7086 119.465 18.5491 118.805Z" fill="#3F892C"/>
<path d="M28.815 130.452C29.2953 130.392 29.7155 130.151 30.0757 129.791C30.7361 129.011 30.556 127.81 29.7756 127.21C28.9951 126.549 27.7945 126.73 27.1941 127.51C26.5338 128.29 26.7139 129.491 27.4943 130.091C27.8545 130.392 28.3348 130.512 28.815 130.452Z" fill="#3F892C"/>
<path d="M41.3037 138.796C41.724 139.036 42.2643 139.036 42.6845 138.856C43.1648 138.676 43.525 138.376 43.7651 137.896C44.0052 137.476 44.0052 136.935 43.8251 136.515C43.645 136.095 43.3449 135.675 42.8646 135.434C42.6245 135.314 42.3243 135.254 42.0842 135.254C41.4238 135.254 40.7635 135.615 40.4033 136.275C40.1631 136.695 40.1631 137.235 40.3432 137.656C40.5233 138.076 40.8835 138.556 41.3037 138.796Z" fill="#3F892C"/>
<path d="M56.7329 144.199C57.2132 144.319 57.6935 144.199 58.1137 143.959C58.5339 143.719 58.8341 143.299 58.9541 142.819C59.0742 142.338 58.9541 141.858 58.714 141.438C58.4739 141.018 58.0537 140.717 57.5734 140.597C57.0931 140.477 56.6129 140.597 56.1926 140.838C55.7724 141.078 55.4722 141.498 55.3522 141.978C55.1721 142.939 55.7724 143.959 56.7329 144.199Z" fill="#3F892C"/>
<path d="M74.8627 144.139C74.8627 143.119 74.0222 142.278 73.0016 142.278C71.9811 142.278 71.1406 143.119 71.1406 144.139C71.1406 145.16 71.9811 146 73.0016 146C74.0222 146 74.8627 145.16 74.8627 144.139Z" fill="#3F892C"/>
<path d="M89.8104 140.838C89.3901 140.597 88.9099 140.477 88.4296 140.597C87.409 140.838 86.8087 141.798 87.0488 142.819C87.1689 143.299 87.4691 143.719 87.8893 143.959C88.3095 144.199 88.7898 144.319 89.2701 144.199C89.7503 144.079 90.1706 143.779 90.4107 143.359C90.6508 142.939 90.7709 142.458 90.6508 141.978C90.5308 141.498 90.2306 141.078 89.8104 140.838Z" fill="#3F892C"/>
<path d="M103.858 135.254C103.617 135.254 103.317 135.314 103.077 135.434C102.657 135.675 102.297 136.035 102.117 136.515C101.936 136.995 101.996 137.476 102.177 137.896C102.417 138.316 102.777 138.676 103.257 138.856C103.737 139.036 104.218 138.976 104.638 138.796C105.538 138.376 105.959 137.235 105.478 136.335C105.238 135.675 104.578 135.254 103.858 135.254Z" fill="#3F892C"/>
<path d="M115.923 129.791C116.223 130.151 116.643 130.392 117.183 130.452C117.664 130.512 118.144 130.392 118.564 130.031C119.345 129.371 119.465 128.23 118.864 127.45C118.504 126.97 117.964 126.729 117.423 126.729C117.003 126.729 116.643 126.85 116.283 127.15C115.923 127.45 115.683 127.87 115.622 128.41C115.562 128.951 115.622 129.431 115.923 129.791Z" fill="#3F892C"/>
<path d="M128.831 119.225C129.311 119.165 129.731 118.925 130.091 118.565C130.392 118.204 130.512 117.724 130.512 117.184C130.452 116.704 130.211 116.283 129.851 115.923C129.491 115.623 129.011 115.503 128.47 115.503C127.99 115.563 127.57 115.803 127.21 116.163C126.549 116.944 126.73 118.144 127.51 118.745C127.87 119.105 128.35 119.285 128.831 119.225Z" fill="#3F892C"/>
<path d="M137.113 102.056C136.933 102.056 136.693 102.116 136.513 102.176C136.033 102.356 135.673 102.656 135.433 103.137C135.012 104.037 135.372 105.178 136.273 105.598C136.693 105.838 137.234 105.838 137.654 105.658C138.134 105.478 138.494 105.178 138.734 104.698C139.155 103.797 138.794 102.656 137.894 102.236C137.654 102.116 137.414 102.056 137.113 102.056Z" fill="#3F892C"/>
<path d="M143.358 90.4092C143.778 90.1691 144.078 89.7488 144.198 89.2686C144.318 88.7883 144.198 88.308 143.958 87.8878C143.718 87.4676 143.298 87.1674 142.818 87.0473C142.698 86.9873 142.517 86.9873 142.397 86.9873C142.037 86.9873 141.737 87.1074 141.437 87.2875C141.017 87.5276 140.716 87.9478 140.596 88.4281C140.356 89.4487 141.017 90.4092 141.977 90.6493C142.457 90.7694 142.938 90.6493 143.358 90.4092Z" fill="#3F892C"/>
<path d="M144.138 71.1387C143.118 71.1387 142.277 71.9791 142.277 72.9997C142.277 74.0202 143.118 74.8607 144.138 74.8607C145.159 74.8607 145.999 74.0202 145.999 72.9997C145.999 71.9791 145.159 71.1387 144.138 71.1387Z" fill="#3F892C"/>
<path d="M143.357 55.5907C143.057 55.4106 142.697 55.2905 142.397 55.2905C142.277 55.2905 142.097 55.2905 141.976 55.3506C140.956 55.5907 140.356 56.5512 140.596 57.5718C140.716 58.052 141.016 58.4723 141.436 58.7124C141.856 58.9525 142.337 59.0726 142.817 58.9525C143.297 58.8325 143.717 58.5323 143.958 58.1121C144.198 57.6918 144.318 57.2116 144.198 56.7313C144.078 56.2511 143.777 55.8909 143.357 55.5907Z" fill="#3F892C"/>
<path d="M137.715 40.4023C137.535 40.3423 137.295 40.2822 137.115 40.2822C136.815 40.2822 136.574 40.3423 136.334 40.4623C135.434 40.8826 135.014 42.0232 135.494 42.9237C135.734 43.3439 136.094 43.7041 136.574 43.8842C137.055 44.0643 137.535 44.0043 137.955 43.8242C138.856 43.4039 139.276 42.2633 138.796 41.3628C138.556 40.8826 138.195 40.5224 137.715 40.4023Z" fill="#3F892C"/>
<path d="M129.792 30.0767C130.152 29.7765 130.392 29.3563 130.452 28.816C130.512 28.3358 130.392 27.8555 130.032 27.4353C129.732 27.0751 129.312 26.8349 128.772 26.7749C128.711 26.7749 128.651 26.7749 128.531 26.7749C128.111 26.7749 127.691 26.895 127.391 27.1951C126.61 27.8555 126.49 28.9961 127.091 29.7765C127.811 30.557 129.012 30.7371 129.792 30.0767Z" fill="#3F892C"/>
<path d="M117.605 19.2108C118.085 19.1508 118.506 18.9107 118.866 18.5505C119.526 17.77 119.346 16.5694 118.566 15.9691C118.265 15.7289 117.845 15.5488 117.425 15.5488C117.365 15.5488 117.305 15.5488 117.185 15.5488C116.705 15.6089 116.284 15.849 115.924 16.2092C115.624 16.5694 115.504 17.0497 115.504 17.5899C115.564 18.0702 115.804 18.4904 116.164 18.8506C116.524 19.2108 117.065 19.2709 117.605 19.2108Z" fill="#3F892C"/>
<path d="M103.858 7.02393C103.678 7.02393 103.437 7.08396 103.257 7.14399C102.777 7.32409 102.417 7.62425 102.177 8.10452C101.937 8.52475 101.937 9.06504 102.117 9.48527C102.297 9.9055 102.597 10.3257 103.077 10.5659C103.978 10.9861 105.118 10.6259 105.539 9.72541C105.959 8.82491 105.599 7.68429 104.698 7.26406C104.458 7.08396 104.158 7.02393 103.858 7.02393Z" fill="#3F892C"/>
<path d="M88.4303 5.40324C88.9106 5.52331 89.3908 5.40324 89.8111 5.16311C90.2313 4.92298 90.5315 4.50275 90.6515 4.02249C90.8917 3.00193 90.2313 2.0414 89.2708 1.80127C89.0907 1.80127 88.9706 1.80127 88.8505 1.80127C88.4903 1.80127 88.1902 1.92134 87.89 2.10143C87.4698 2.34157 87.1696 2.7618 87.0496 3.24206C86.8094 4.20259 87.4698 5.22315 88.4303 5.40324Z" fill="#3F892C"/>
</svg>
