<svg width="58" height="35" viewBox="0 0 58 35" fill="none" xmlns="http://www.w3.org/2000/svg">
<path d="M31.8069 2.7029L36.1522 18.9199C36.5522 20.4126 35.6663 21.947 34.1736 22.347L8.49664 29.2271C7.00388 29.6271 5.46953 28.7412 5.06956 27.2485L0.724227 11.0315C0.324261 9.53877 1.2101 8.00437 2.70285 7.60439L28.3798 0.724259C29.8725 0.324309 31.4069 1.21021 31.8069 2.7029Z" fill="#191919"/>
<path d="M32.7115 6.08135L36.1516 18.9198C36.5516 20.4125 35.6657 21.9469 34.173 22.3469L8.49604 29.227C7.00329 29.627 5.46893 28.7411 5.06896 27.2484L1.62891 14.4099L32.7115 6.08135Z" fill="#191919"/>
<path d="M10.648 19.1039L6.76019 20.1456C6.46825 20.2238 6.17496 20.0759 6.10512 19.8153L5.41162 17.2271C5.34178 16.9664 5.52183 16.6917 5.81376 16.6135L9.70151 15.5718C9.99345 15.4935 10.2867 15.6414 10.3566 15.9021L11.0501 18.4902C11.12 18.7509 10.9399 19.0256 10.648 19.1039Z" fill="#FED76E"/>
<path d="M10.7985 17.5493L11.0759 18.5845C11.1318 18.7931 10.9404 19.0255 10.6485 19.1038L6.76069 20.1455C6.46875 20.2237 6.18679 20.1181 6.13092 19.9095L5.85352 18.8743L10.7985 17.5493Z" fill="#FEAF50"/>
<path d="M8.07598 19.0366L7.54619 19.1785C7.10731 19.2961 6.62433 18.9171 6.46752 18.3319C6.31073 17.7467 6.53941 17.1769 6.97833 17.0593L7.50813 16.9173C7.947 16.7997 8.42998 17.1788 8.58679 17.764C8.74354 18.3492 8.51486 18.919 8.07598 19.0366Z" fill="#FEE66B"/>
<path d="M25.8538 7.91923C25.9288 8.19909 25.7627 8.48682 25.4828 8.56181L25.4152 8.57992C25.1354 8.65491 24.8476 8.48879 24.7726 8.20892C24.6977 7.92906 24.8638 7.64132 25.1436 7.56633L25.2112 7.54823C25.4911 7.47324 25.7788 7.63936 25.8538 7.91923ZM26.5217 6.01716C26.2421 5.94178 25.954 6.1074 25.8785 6.38724C25.8031 6.66699 25.9688 6.95497 26.2486 7.03042C26.55 7.11169 26.7871 7.34816 26.8674 7.6477C26.9477 7.94723 26.8606 8.27058 26.6402 8.49167C26.4356 8.69691 26.4361 9.02914 26.6412 9.23372C26.7787 9.3707 26.9731 9.4158 27.148 9.36895C27.2342 9.34585 27.3156 9.30041 27.3832 9.23265C27.867 8.74743 28.0577 8.03604 27.8809 7.3762C27.7041 6.71637 27.1833 6.19548 26.5217 6.01716ZM27.5591 4.48386C27.2794 4.40868 26.9915 4.57433 26.9161 4.8542C26.8408 5.134 27.0066 5.42186 27.2865 5.49712C28.0692 5.7076 28.6853 6.32351 28.8945 7.1044C29.1038 7.88529 28.8782 8.72681 28.3057 9.30048C28.101 9.50562 28.1013 9.83778 28.3064 10.0424C28.4438 10.1797 28.6383 10.2247 28.8133 10.1778C28.8994 10.1547 28.9808 10.1093 29.0484 10.0417C29.8846 9.20379 30.214 7.97431 29.9081 6.83281C29.6023 5.69131 28.7021 4.79136 27.5591 4.48386Z" fill="white"/>
<path d="M57.1791 15.2311V32.0201C57.1791 33.5655 55.9263 34.8183 54.3809 34.8183H27.7982C26.2528 34.8183 25 33.5655 25 32.0201V15.2311C25 13.6857 26.2528 12.4329 27.7982 12.4329H54.381C55.9263 12.4329 57.1791 13.6857 57.1791 15.2311Z" fill="#3F892C"/>
<path d="M57.1791 18.7288V32.0201C57.1791 33.5655 55.9263 34.8183 54.3809 34.8183H27.7982C26.2528 34.8183 25 33.5655 25 32.0201V18.7288H57.1791Z" fill="#3F892C"/>
<path d="M32.498 25.5971H28.473C28.1708 25.5971 27.9258 25.3784 27.9258 25.1085V22.429C27.9258 22.1592 28.1708 21.9404 28.473 21.9404H32.4979C32.8002 21.9404 33.0452 22.1592 33.0452 22.429V25.1085C33.0453 25.3784 32.8002 25.5971 32.498 25.5971Z" fill="#FED76E"/>
<path d="M33.0452 24.1343V25.2061C33.0452 25.422 32.8002 25.597 32.4979 25.597H28.473C28.1708 25.597 27.9258 25.422 27.9258 25.2061V24.1343H33.0452Z" fill="#FEAF50"/>
<path d="M30.0275 24.8657H29.479C29.0247 24.8657 28.6562 24.3745 28.6562 23.7686C28.6562 23.1628 29.0246 22.6716 29.479 22.6716H30.0275C30.4819 22.6716 30.8503 23.1628 30.8503 23.7686C30.8502 24.3744 30.4819 24.8657 30.0275 24.8657Z" fill="#FEE66B"/>
<path d="M50.0783 18.7288C50.0783 19.0185 49.8433 19.2535 49.5536 19.2535H49.4837C49.1939 19.2535 48.959 19.0185 48.959 18.7288C48.959 18.4391 49.1939 18.2041 49.4837 18.2041H49.5536C49.8433 18.2041 50.0783 18.4391 50.0783 18.7288ZM51.2157 17.0644C50.9651 16.9192 50.644 17.0046 50.4987 17.2554C50.3534 17.5061 50.4389 17.8271 50.6897 17.9725C50.9597 18.129 51.1276 18.4188 51.1276 18.7289C51.1276 19.039 50.9599 19.3288 50.6897 19.4853C50.439 19.6306 50.3535 19.9516 50.4987 20.2023C50.596 20.3702 50.7721 20.4641 50.9531 20.4641C51.0424 20.4641 51.1328 20.4413 51.2157 20.3933C51.8085 20.0498 52.1768 19.412 52.1768 18.7289C52.1768 18.0458 51.8086 17.4079 51.2157 17.0644ZM52.6146 15.8518C52.3639 15.7068 52.0429 15.7923 51.8977 16.0432C51.7525 16.2939 51.8382 16.6149 52.089 16.76C52.7906 17.1659 53.2263 17.9203 53.2263 18.7287C53.2263 19.5372 52.7906 20.2916 52.0891 20.6976C51.8383 20.8427 51.7526 21.1637 51.8978 21.4144C51.995 21.5825 52.1712 21.6764 52.3524 21.6764C52.4416 21.6764 52.5319 21.6536 52.6147 21.6057C53.6392 21.0128 54.2756 19.9105 54.2756 18.7287C54.2756 17.547 53.6391 16.4447 52.6146 15.8518Z" fill="white"/>
</svg>
