<svg width="22" height="22" viewBox="0 0 22 22" fill="none" xmlns="http://www.w3.org/2000/svg">
<path d="M3.77143 14.7016H3.35238C1.51905 14.7016 0 13.2346 0 11.3956V3.30603C0 1.47226 1.51905 0 3.35762 0H11.5133C13.3519 0 14.871 1.47226 14.871 3.30603V3.59943C17.2229 3.59943 18.6214 4.85163 18.6214 7.2984C20.481 7.2984 22 8.74446 22 10.6044V18.6678C22 20.5068 20.5071 22 18.6686 22H10.4343C8.6219 22 7.12905 20.5068 7.12905 18.6678V18.2748C5.21714 18.1019 3.77143 17.0226 3.77143 14.9898V14.7016ZM17.3695 7.30364V6.91069C17.3695 5.75804 16.4162 4.85163 15.2848 4.85163H7.10286C5.95048 4.85163 4.99714 5.75804 4.99714 6.91069V14.995C4.99714 16.3206 5.90333 16.9074 7.12905 17.0279V10.6097C7.12905 8.79686 8.6219 7.30364 10.4343 7.30364H17.3695ZM18.6686 8.52965H10.4343C9.30809 8.52965 8.37571 9.46225 8.37571 10.6149V18.6783C8.37571 19.8309 9.30809 20.7635 10.4343 20.7635H18.6633C19.8157 20.7635 20.7481 19.8309 20.7481 18.6783V10.6097C20.7481 9.45701 19.821 8.52965 18.6686 8.52965ZM13.619 3.60467V3.31126C13.619 2.15861 12.6657 1.2522 11.5133 1.2522H3.35762C2.20524 1.2522 1.2519 2.15861 1.2519 3.31126V11.3956C1.2519 12.5482 2.20524 13.4546 3.35762 13.4546H3.77667V6.91069C3.77667 5.07168 5.29571 3.60467 7.1081 3.60467H13.619Z" fill="black"/>
</svg>
