<svg width="148" height="145" viewBox="0 0 148 145" fill="none" xmlns="http://www.w3.org/2000/svg">
<path d="M59.4643 0.833265L59.448 0.821659L59.4309 0.811385C59.0231 0.566713 58.5611 0.5 58.1531 0.5H58.1524H58.1517H58.151H58.1503H58.1496H58.1489H58.1482H58.1475H58.1467H58.146H58.1453H58.1446H58.1439H58.1432H58.1425H58.1418H58.1411H58.1404H58.1397H58.139H58.1383H58.1376H58.1369H58.1362H58.1355H58.1348H58.1341H58.1334H58.1327H58.132H58.1313H58.1306H58.1299H58.1292H58.1285H58.1278H58.1271H58.1263H58.1256H58.1249H58.1242H58.1235H58.1228H58.1221H58.1214H58.1207H58.12H58.1193H58.1186H58.1179H58.1172H58.1165H58.1158H58.1151H58.1144H58.1137H58.113H58.1123H58.1116H58.1109H58.1102H58.1095H58.1088H58.1081H58.1074H58.1066H58.1059H58.1052H58.1045H58.1038H58.1031H58.1024H58.1017H58.101H58.1003H58.0996H58.0989H58.0982H58.0975H58.0968H58.0961H58.0954H58.0947H58.094H58.0933H58.0926H58.0919H58.0912H58.0905H58.0898H58.0891H58.0884H58.0877H58.087H58.0862H58.0855H58.0848H58.0841H58.0834H58.0827H58.082H58.0813H58.0806H58.0799H58.0792H58.0785H58.0778H58.0771H58.0764H58.0757H58.075H58.0743H58.0736H58.0729H58.0722H58.0715H58.0708H58.0701H58.0694H58.0687H58.068H58.0673H58.0665H58.0658H58.0651H58.0644H58.0637H58.063H58.0623H58.0616H58.0609H58.0602H58.0595H58.0588H58.0581H58.0574H58.0567H58.056H58.0553H58.0546H58.0539H58.0532H58.0525H58.0518H58.0511H58.0504H58.0497H58.049H58.0483H58.0476H58.0469H58.0461H58.0454H58.0447H58.044H58.0433H58.0426H58.0419H58.0412H58.0405H58.0398H58.0391H58.0384H58.0377H58.037H58.0363H58.0356H58.0349H58.0342H58.0335H58.0328H58.0321H58.0314H58.0307H58.03H58.0293H58.0286H58.0279H58.0272H58.0264H58.0257H58.025H58.0243H58.0236H58.0229H58.0222H58.0215H58.0208H58.0201H58.0194H58.0187H58.018H58.0173H58.0166H58.0159H58.0152H58.0145H58.0138H58.0131H58.0124H58.0117H58.011H58.0103H58.0096H58.0089H58.0082H58.0075H58.0068H58.006H58.0053H58.0046H58.0039H58.0032H58.0025H58.0018H58.0011H58.0004H57.9997H57.999H57.9983H57.9976H57.9969H57.9962H57.9955H57.9948H57.9941H57.9934H57.9927H57.992H57.9913H57.9906H57.9899H57.9892H57.9885H57.9878H57.9871H57.9863H57.9856H57.9849H57.9842H57.9835H57.9828H57.9821H57.9814H57.9807H57.98H57.9793H57.9786H57.9779H57.9772H57.9765H57.9758H57.9751H57.9744H57.9737H57.973H57.9723H57.9716H57.9709H57.9702H57.9695H57.9688H57.9681H57.9674H57.9667H57.9659H57.9652H57.9645H57.9638H57.9631H57.9624H57.9617H57.961H57.9603H57.9596H57.9589H57.9582H57.9575H57.9568H57.9561H57.9554H57.9547H57.954H57.9533H57.9526H57.9519H57.9512H57.9505H57.9498H57.9491H57.9484H57.9477H57.947H57.9462H57.9455H57.9448H57.9441H57.9434H57.9427H57.942H57.9413H57.9406H57.9399H57.9392H57.9385H57.9378H57.9371H57.9364H57.9357H57.935H57.9343H57.9336H57.9329H57.9322H57.9315H57.9308H57.9301H57.9294H57.9287H57.928H57.9273H57.9266H57.9258H57.9251H57.9244H57.9237H57.923H57.9223H57.9216H57.9209H57.9202H57.9195H57.9188H57.9181H57.9174H57.9167H57.916H57.9153H57.9146H57.9139H57.9132H57.9125H57.9118H57.9111H57.9104H57.9097H57.909H57.9083H57.9076H57.9069H57.9061H57.9054H57.9047H57.904H57.9033H57.9026H57.9019H57.9012H57.9005H57.8998H57.8991H57.8984H57.8977H57.897H57.8963H57.8956H57.8949H57.8942H57.8935H57.8928H57.8921H57.8914H57.8907H57.89H57.8893H57.8886H57.8879H57.8872H57.8865H57.8857H57.885H57.8843H57.8836H57.8829H57.8822H57.8815H57.8808H57.8801H57.8794H57.8787H57.878H57.8773H57.8766H57.8759H57.8752H57.8745H57.8738H57.8731H57.8724H57.8717H57.871H57.8703H57.8696H57.8689H57.8682H57.8675H57.8668H57.866H57.8653H57.8646H57.8639H57.8632H57.8625H57.8618H57.8611H57.8604H57.8597H57.859H57.8583H57.8576H57.8569H57.8562H57.8555H57.8548H57.8541H57.8534H57.8527H57.852H57.8513H57.8506H57.8499H57.8492H57.8485H57.8478H57.8471H57.8464H57.8456H57.8449H57.8442H57.8435H57.8428H57.8421H57.8414H57.8407H57.84H57.8393H57.8386H57.8379H57.8372H57.8365H57.8358H57.8351H57.8344H57.8337H57.833H57.8323H57.8316H57.8309H57.8302H57.8295H57.8288H57.8281H57.8274H57.8267H57.8259H57.8252H57.8245H57.8238H57.8231H57.8224H57.8217H57.821H57.8203H57.8196H57.8189H57.8182H57.8175H57.8168H57.8161H57.8154H57.8147H57.814H57.8133H57.8126H57.8119H57.8112H57.8105H57.8098H57.8091H57.8084H57.8077H57.807H57.8063H57.8055H57.8048H57.8041H57.8034H57.8027H57.802H57.8013H57.8006H57.7999H57.7992H57.7985H57.7978H57.7971H57.7964H57.7957H57.795H57.7943H57.7936H57.7929H57.7349L57.6784 0.513291C56.3914 0.81611 55.6215 2.044 55.9254 3.33574L55.9254 3.33575L55.9271 3.34249C56.0771 3.94261 56.4553 4.48214 57.0045 4.79596C57.5007 5.07949 58.1141 5.24717 58.7546 5.08705C59.3547 4.93701 59.8943 4.55878 60.2081 4.00958C60.4916 3.51342 60.6593 2.89998 60.4992 2.25949L60.4895 2.22062L60.4737 2.1838C60.2797 1.73126 59.9943 1.21189 59.4643 0.833265Z" fill="#3F892C" stroke="#3F892C"/>
<path d="M31.534 15.1031L31.528 15.0953L31.5218 15.0878C31.1382 14.6276 30.5998 14.3248 29.9322 14.2506L29.9047 14.2476H29.877H29.8766H29.8763H29.8759H29.8756H29.8752H29.8749H29.8745H29.8742H29.8738H29.8735H29.8731H29.8728H29.8724H29.8721H29.8717H29.8714H29.871H29.8707H29.8703H29.87H29.8696H29.8693H29.8689H29.8685H29.8682H29.8678H29.8675H29.8671H29.8668H29.8664H29.8661H29.8657H29.8654H29.865H29.8647H29.8643H29.864H29.8636H29.8632H29.8629H29.8625H29.8622H29.8618H29.8615H29.8611H29.8608H29.8604H29.8601H29.8597H29.8593H29.859H29.8586H29.8583H29.8579H29.8576H29.8572H29.8569H29.8565H29.8561H29.8558H29.8554H29.8551H29.8547H29.8544H29.854H29.8536H29.8533H29.8529H29.8526H29.8522H29.8519H29.8515H29.8511H29.8508H29.8504H29.8501H29.8497H29.8493H29.849H29.8486H29.8483H29.8479H29.8475H29.8472H29.8468H29.8465H29.8461H29.8457H29.8454H29.845H29.8446H29.8443H29.8439H29.8436H29.8432H29.8428H29.8425H29.8421H29.8417H29.8414H29.841H29.8406H29.8403H29.8399H29.8395H29.8392H29.8388H29.8384H29.8381H29.8377H29.8373H29.837H29.8366H29.8362H29.8359H29.8355H29.8351H29.8348H29.8344H29.834H29.8336H29.8333H29.8329H29.8325H29.8322H29.8318H29.8314H29.831H29.8307H29.8303H29.8299H29.8295H29.8292H29.8288H29.8284H29.828H29.8277H29.8273H29.8269H29.8265H29.8261H29.8258H29.8254H29.825H29.8246H29.8242H29.8239H29.8235H29.8231H29.8227H29.8223H29.822H29.8216H29.8212H29.8208H29.8204H29.82H29.8197H29.8193H29.8189H29.8185H29.8181H29.8177H29.8173H29.8169H29.8166H29.8162H29.8158H29.8154H29.815H29.8146H29.8142H29.8138H29.8134H29.813H29.8126H29.8123H29.8119H29.8115H29.8111H29.8107H29.8103H29.8099H29.8095H29.8091H29.8087H29.8083H29.8079H29.8075H29.8071H29.8067H29.8063H29.8059H29.8055H29.8051H29.8047H29.8043H29.8039H29.8035H29.8031H29.8027H29.8023H29.8018H29.8014H29.801H29.8006H29.8002H29.7998H29.7994H29.799H29.7986H29.7982H29.7977H29.7973H29.7969H29.7965H29.7961H29.7957H29.7953H29.7948H29.7944H29.794H29.7936H29.7932H29.7928H29.7923H29.7919H29.7915H29.7911H29.7906H29.7902H29.7898H29.7894H29.789H29.7885H29.7881H29.7877H29.7872H29.7868H29.7864H29.786H29.7855H29.7851H29.7847H29.7842H29.7838H29.7834H29.7829H29.7825H29.7821H29.7816H29.7812H29.7808H29.7803H29.7799H29.7794H29.779H29.7786H29.7781H29.7777H29.7772H29.7768H29.7763H29.7759H29.7755H29.775H29.7746H29.7741H29.7737H29.7732H29.7728H29.7723H29.7719H29.7714H29.771H29.7705H29.7701H29.7696H29.7691H29.7687H29.7682H29.7678H29.7673H29.7669H29.7664H29.7659H29.7655H29.765H29.7645H29.7641H29.7636H29.7631H29.7627H29.7622H29.7617H29.7613H29.7608H29.7603H29.7599H29.7594H29.7589H29.7584H29.758H29.7575H29.757H29.7565H29.7561H29.7556H29.7551H29.7546H29.7541H29.7537H29.7532H29.7527H29.7522H29.7517H29.7512H29.7508H29.7503H29.7498H29.7493H29.7488H29.7483H29.7478H29.7473H29.7468H29.7463H29.7458H29.7453H29.7448H29.7443H29.7438H29.7433H29.7428H29.7423H29.7418H29.7413H29.7408H29.7403H29.7398H29.7393H29.7388H29.7383H29.7378H29.7373H29.7368H29.7362H29.7357H29.7352H29.7347H29.7342H29.7337H29.7332H29.7326H29.7321H29.7316H29.7311H29.7305H29.73H29.7295H29.729H29.7284H29.7279H29.7274H29.7269H29.7263H29.7258H29.7253H29.7247H29.7242H29.7237H29.7231H29.7226H29.722H29.7215H29.721H29.7204H29.7199H29.7193H29.7188H29.7182H29.7177H29.7171H29.7166H29.716H29.7155H29.7149H29.7144H29.7138H29.7133H29.7127H29.7122H29.7116H29.711H29.7105H29.7099H29.7094H29.7088H29.7082H29.7077H29.7071H29.7065H29.706H29.7054H29.7048H29.7042H29.7037H29.7031H29.7025H29.7019H29.7014H29.7008H29.7002H29.6996H29.699H29.6985H29.6979H29.6973H29.6967H29.6961H29.6955H29.6949H29.6943H29.6938H29.6932H29.6926H29.692H29.6914H29.6908H29.6902H29.6896H29.689H29.6884H29.6878H29.6872H29.6866H29.686H29.6853H29.6847H29.6841H29.6835H29.6829H29.6823H29.6817H29.681H29.6804H29.6798H29.6792H29.6786H29.6779H29.6773H29.6767H29.6761H29.6754H29.6748H29.6742H29.6736H29.6729H29.6723H29.6717H29.671H29.6704H29.6697H29.6691H29.6685H29.6678H29.6672H29.6665H29.6659H29.6652H29.6646H29.6639H29.6633H29.6626H29.662H29.6613H29.6607H29.66H29.6593H29.6587H29.658H29.6574H29.6567H29.656H29.6554H29.6547H29.654H29.6534H29.6527H29.652H29.6513H29.6507H29.65H29.6493H29.6486H29.6479H29.6473H29.6466H29.6459H29.6452H29.6445H29.6438H29.6431H29.6424H29.6418H29.6411H29.6404H29.6397H29.639H29.6383H29.6376H29.6369C29.136 14.2476 28.5782 14.3887 28.1578 14.7993C27.1915 15.6306 27.0373 17.0628 27.7998 18.0541L27.8057 18.0618L27.812 18.0693C28.1949 18.5288 28.7322 18.8313 29.3982 18.9061C30.0097 18.9817 30.6305 18.8247 31.1617 18.37C32.1407 17.5405 32.3002 16.0992 31.534 15.1031Z" fill="#3F892C" stroke="#3F892C"/>
<path d="M7.76384 40.2018L7.75081 40.2257L7.74045 40.2508C7.22841 41.4944 7.72709 42.8602 8.87357 43.4071C9.44294 43.7238 10.1406 43.7138 10.681 43.4822C11.1664 43.2742 11.6951 42.9101 12.0057 42.2979C12.3259 41.7274 12.3166 41.0267 12.0842 40.4844C11.8748 39.9958 11.5073 39.4633 10.8877 39.1535C10.5703 38.9948 10.1922 38.9207 9.88371 38.9207C9.04261 38.9207 8.21272 39.3788 7.76384 40.2018Z" fill="#3F892C" stroke="#3F892C"/>
<path d="M2.86102 69.8376C1.56432 69.8376 0.5 70.902 0.5 72.1987C0.5 73.4954 1.56432 74.5597 2.86102 74.5597C4.15772 74.5597 5.22204 73.4954 5.22204 72.1987C5.22204 70.902 4.15772 69.8376 2.86102 69.8376Z" fill="#3F892C" stroke="#3F892C"/>
<path d="M10.6602 100.847L10.6515 100.843L10.6428 100.841C10.4488 100.776 10.1468 100.695 9.88431 100.695C9.50946 100.695 9.19437 100.772 8.88628 100.925C7.74701 101.461 7.20528 102.898 7.81602 104.06C8.35412 105.195 9.78869 105.734 10.9483 105.124C12.0874 104.584 12.626 103.142 12.0064 101.98L11.9949 101.958L11.9813 101.938C11.703 101.521 11.2678 101.075 10.6602 100.847Z" fill="#3F892C" stroke="#3F892C"/>
<path d="M31.4293 129.343L31.444 129.329L31.4574 129.313C32.3117 128.303 32.0731 126.784 31.0896 126.019C30.0801 125.174 28.5675 125.414 27.805 126.395C26.9592 127.405 27.1999 128.918 28.1818 129.68C28.6607 130.076 29.2808 130.221 29.8771 130.146C30.4921 130.07 31.0099 129.763 31.4293 129.343Z" fill="#3F892C" stroke="#3F892C"/>
<path d="M55.8671 141.056L55.8635 141.07L55.8607 141.085C55.6356 142.286 56.3754 143.574 57.6117 143.883C58.2521 144.043 58.8656 143.876 59.3618 143.592C59.911 143.278 60.2892 142.739 60.4392 142.139C60.5993 141.498 60.4317 140.885 60.1481 140.389C59.8343 139.839 59.2948 139.461 58.6947 139.311C58.0542 139.151 57.4407 139.319 56.9446 139.602C56.3954 139.916 56.0171 140.455 55.8671 141.056Z" fill="#3F892C" stroke="#3F892C"/>
<path d="M87.5621 142.132L87.5621 142.132L87.5638 142.139C87.7138 142.739 88.092 143.278 88.6412 143.592C89.1374 143.876 89.7508 144.043 90.3913 143.883C90.9915 143.733 91.531 143.355 91.8448 142.806C92.1283 142.31 92.296 141.696 92.1359 141.056C91.9859 140.455 91.6076 139.916 91.0584 139.602C90.5632 139.319 89.951 139.152 89.3118 139.31C88.0268 139.614 87.2585 140.841 87.5621 142.132Z" fill="#3F892C" stroke="#3F892C"/>
<path d="M116.539 129.31C116.921 129.769 117.459 130.072 118.125 130.147C118.736 130.222 119.357 130.065 119.888 129.611C120.866 128.782 121.027 127.342 120.262 126.346C119.802 125.734 119.111 125.428 118.423 125.428C117.888 125.428 117.414 125.588 116.963 125.964C116.502 126.348 116.2 126.886 116.126 127.554C116.059 128.148 116.11 128.796 116.539 129.31Z" fill="#3F892C" stroke="#3F892C"/>
<path d="M137.355 100.901L137.346 100.904L137.338 100.907C136.749 101.128 136.286 101.51 135.985 102.112L135.985 102.112L135.979 102.124C135.456 103.245 135.884 104.687 137.043 105.241C137.609 105.556 138.301 105.548 138.84 105.321C139.424 105.1 139.882 104.718 140.182 104.12L140.182 104.12L140.187 104.108C140.713 102.982 140.28 101.535 139.111 100.985C138.803 100.832 138.488 100.755 138.113 100.755C137.851 100.755 137.549 100.836 137.355 100.901Z" fill="#3F892C" stroke="#3F892C"/>
<path d="M145.138 69.8376C143.842 69.8376 142.777 70.902 142.777 72.1987C142.777 73.4954 143.842 74.5597 145.138 74.5597C146.435 74.5597 147.499 73.4954 147.499 72.1987C147.499 70.902 146.435 69.8376 145.138 69.8376Z" fill="#3F892C" stroke="#3F892C"/>
<path d="M136.053 42.3575L136.056 42.3639L136.06 42.3702C136.344 42.868 136.786 43.3211 137.399 43.5509C138.026 43.7861 138.642 43.7008 139.152 43.4822L139.16 43.4791L139.167 43.4758C140.312 42.9412 140.857 41.4967 140.24 40.3319C139.96 39.7753 139.508 39.291 138.856 39.1206C138.661 39.057 138.369 38.9807 138.115 38.9807C137.74 38.9807 137.425 39.0576 137.117 39.2106C135.974 39.7483 135.432 41.1938 136.053 42.3575Z" fill="#3F892C" stroke="#3F892C"/>
<path d="M118.66 18.9065L118.66 18.9066L118.667 18.9057C119.282 18.8288 119.8 18.5222 120.219 18.1028L120.234 18.0881L120.247 18.0722C121.103 17.0607 120.862 15.5378 119.874 14.7744C119.503 14.4785 118.977 14.2476 118.425 14.2476H118.425H118.424H118.424H118.424H118.423H118.423H118.423H118.422H118.422H118.421H118.421H118.421H118.42H118.42H118.42H118.419H118.419H118.419H118.418H118.418H118.418H118.417H118.417H118.417H118.416H118.416H118.415H118.415H118.415H118.414H118.414H118.414H118.413H118.413H118.413H118.412H118.412H118.412H118.411H118.411H118.411H118.41H118.41H118.409H118.409H118.409H118.408H118.408H118.408H118.407H118.407H118.407H118.406H118.406H118.406H118.405H118.405H118.404H118.404H118.404H118.403H118.403H118.403H118.402H118.402H118.402H118.401H118.401H118.401H118.4H118.4H118.399H118.399H118.399H118.398H118.398H118.398H118.397H118.397H118.397H118.396H118.396H118.396H118.395H118.395H118.394H118.394H118.394H118.393H118.393H118.393H118.392H118.392H118.392H118.391H118.391H118.39H118.39H118.39H118.389H118.389H118.389H118.388H118.388H118.388H118.387H118.387H118.386H118.386H118.386H118.385H118.385H118.385H118.384H118.384H118.383H118.383H118.383H118.382H118.382H118.382H118.381H118.381H118.38H118.38H118.38H118.379H118.379H118.379H118.378H118.378H118.378H118.377H118.377H118.376H118.376H118.376H118.375H118.375H118.374H118.374H118.374H118.373H118.373H118.373H118.372H118.372H118.371H118.371H118.371H118.37H118.37H118.37H118.369H118.369H118.368H118.368H118.368H118.367H118.367H118.366H118.366H118.366H118.365H118.365H118.365H118.364H118.364H118.363H118.363H118.363H118.362H118.362H118.361H118.361H118.361H118.36H118.36H118.359H118.359H118.359H118.358H118.358H118.357H118.357H118.357H118.356H118.356H118.355H118.355H118.355H118.354H118.354H118.353H118.353H118.353H118.352H118.352H118.351H118.351H118.351H118.35H118.35H118.349H118.349H118.349H118.348H118.348H118.347H118.347H118.347H118.346H118.346H118.345H118.345H118.344H118.344H118.344H118.343H118.343H118.342H118.342H118.342H118.341H118.341H118.34H118.34H118.339H118.339H118.339H118.338H118.338H118.337H118.337H118.336H118.336H118.336H118.335H118.335H118.334H118.334H118.334H118.333H118.333H118.332H118.332H118.331H118.331H118.33H118.33H118.33H118.329H118.329H118.328H118.328H118.327H118.327H118.327H118.326H118.326H118.325H118.325H118.324H118.324H118.323H118.323H118.323H118.322H118.322H118.321H118.321H118.32H118.32H118.319H118.319H118.318H118.318H118.318H118.317H118.317H118.316H118.316H118.315H118.315H118.314H118.314H118.313H118.313H118.313H118.312H118.312H118.311H118.311H118.31H118.31H118.309H118.309H118.308H118.308H118.307H118.307H118.306H118.306H118.305H118.305H118.305H118.304H118.304H118.303H118.303H118.302H118.302H118.301H118.301H118.3H118.3H118.299H118.299H118.298H118.298H118.297H118.297H118.296H118.296H118.295H118.295H118.294H118.294H118.293H118.293H118.292H118.292H118.291H118.291H118.29H118.29H118.289H118.289H118.288H118.288H118.287H118.287H118.286H118.286H118.285H118.285H118.284H118.284H118.283H118.283H118.282H118.282H118.281H118.281H118.28H118.28H118.279H118.279H118.278H118.277H118.277H118.276H118.276H118.275H118.275H118.274H118.274H118.273H118.273H118.272H118.272H118.271H118.271H118.27H118.269H118.269H118.268H118.268H118.267H118.267H118.266H118.266H118.265H118.265H118.264H118.263H118.263H118.262H118.262H118.261H118.261H118.26H118.26H118.259H118.258H118.258H118.257H118.257H118.256H118.256H118.255H118.255H118.254H118.253H118.253H118.252H118.252H118.251H118.25H118.25H118.249H118.249H118.248H118.248H118.247H118.246H118.246H118.245H118.245H118.244H118.243H118.243H118.242H118.242H118.241H118.241H118.24H118.239H118.239H118.238H118.238H118.237H118.236H118.236H118.235H118.235H118.234H118.233H118.233H118.232H118.231H118.231H118.23H118.23H118.229H118.228H118.228H118.227H118.227H118.226H118.225H118.225H118.224H118.223H118.223H118.222H118.222H118.221H118.22H118.22H118.219H118.218H118.218H118.217H118.216H118.216H118.215H118.214H118.214H118.213H118.213H118.212H118.211H118.211H118.21H118.209H118.209H118.208H118.207H118.207H118.206H118.205H118.205H118.204H118.203H118.203H118.202H118.201H118.201H118.2H118.199H118.199H118.198H118.197H118.197H118.196H118.195H118.195H118.194H118.193H118.192H118.192H118.191H118.19H118.19H118.189H118.188H118.188H118.187H118.186H118.186H118.185H118.154L118.123 14.2514C117.508 14.3283 116.99 14.6349 116.571 15.0544L116.555 15.0704L116.54 15.0878C116.138 15.57 116.004 16.1814 116.004 16.7887V16.8198L116.008 16.8507C116.085 17.4657 116.391 17.9835 116.811 18.4029C117.336 18.9285 118.076 18.9715 118.66 18.9065Z" fill="#3F892C" stroke="#3F892C"/>
<path d="M92.1366 3.34249L92.1366 3.3425L92.1382 3.33574C92.4459 2.02828 91.5967 0.81609 90.392 0.514929L90.3323 0.5H90.2708H90.0381H90.035H90.0334H90.0326H90.0318H90.0303H90.0287H90.0256H90.0193H90.0162H90.0132H89.9888H89.988H89.9873H89.9858H89.9828H89.9768H89.9649H89.9642H89.9635H89.9627H89.962H89.9612H89.9605H89.9598H89.959H89.9583H89.9576H89.9568H89.9561H89.9554H89.9546H89.9539H89.9532H89.9524H89.9517H89.951H89.9503H89.9495H89.9488H89.9481H89.9473H89.9466H89.9459H89.9452H89.9444H89.9437H89.943H89.9423H89.9415H89.9408H89.9401H89.9394H89.9386H89.9379H89.9372H89.9365H89.9357H89.935H89.9343H89.9336H89.9328H89.9321H89.9314H89.9307H89.93H89.9292H89.9285H89.9278H89.9271H89.9264H89.9256H89.9249H89.9242H89.9235H89.9228H89.9221H89.9213H89.9206H89.9199H89.9192H89.9185H89.9178H89.917H89.9163H89.9156H89.9149H89.9142H89.9135H89.9128H89.912H89.9113H89.9106H89.9099H89.9092H89.9085H89.9078H89.907H89.9063H89.9056H89.9049H89.9042H89.9035H89.9028H89.9021H89.9014H89.9006H89.8999H89.8992H89.8985H89.8978H89.8971H89.8964H89.8957H89.895H89.8943H89.8936H89.8928H89.8921H89.8914H89.8907H89.89H89.8893H89.8886H89.8879H89.8872H89.8865H89.8858H89.8851H89.8844H89.8836H89.8829H89.8822H89.8815H89.8808H89.8801H89.8794H89.8787H89.878H89.8773H89.8766H89.8759H89.8752H89.8745H89.8738H89.8731H89.8724H89.8717H89.871H89.8702H89.8695H89.8688H89.8681H89.8674H89.8667H89.866H89.8653H89.8646H89.8639H89.8632H89.8625H89.8618H89.8611H89.8604H89.8597H89.859H89.8583H89.8576H89.8569H89.8562H89.8555H89.8548H89.8541H89.8534H89.8526H89.8519H89.8512H89.8505C89.3695 0.5 88.9806 0.663334 88.6372 0.868777C88.0906 1.183 87.7141 1.72114 87.5645 2.31952C87.2557 3.55458 88.0883 4.85007 89.3235 5.09062C89.9588 5.24463 90.5667 5.07735 91.0591 4.79596C91.6083 4.48214 91.9866 3.94261 92.1366 3.34249Z" fill="#3F892C" stroke="#3F892C"/>
</svg>
