<svg width="16" height="16" viewBox="0 0 16 16" fill="none" xmlns="http://www.w3.org/2000/svg">
<path d="M14.125 0H6.75C5.71613 0 4.875 0.841125 4.875 1.875V3.75H6.125V1.875C6.125 1.53038 6.40538 1.25 6.75 1.25H14.125C14.4696 1.25 14.75 1.53038 14.75 1.875V9.125C14.75 9.46963 14.4696 9.75 14.125 9.75H12.375V11H14.125C15.1589 11 16 10.1589 16 9.125V1.875C16 0.841125 15.1589 0 14.125 0ZM9.25 5H1.875C0.841125 5 0 5.84113 0 6.875V14.125C0 15.1589 0.841125 16 1.875 16H9.25C10.2839 16 11.125 15.1589 11.125 14.125V6.875C11.125 5.84113 10.2839 5 9.25 5ZM9.875 14.125C9.875 14.4696 9.59463 14.75 9.25 14.75H1.875C1.53038 14.75 1.25 14.4696 1.25 14.125V6.875C1.25 6.53038 1.53038 6.25 1.875 6.25H9.25C9.59463 6.25 9.875 6.53038 9.875 6.875V14.125Z" fill="#3F892C"/>
</svg>
