<svg width="50" height="57" viewBox="0 0 50 57" fill="none" xmlns="http://www.w3.org/2000/svg">
<path d="M24 0.999976L24 4.00002C24 4.55234 24.4478 5 25 5C25.5523 5 26 4.55222 26 4.00002L26 0.999976C26 0.447662 25.5522 -6.78492e-08 25 -4.37114e-08C24.4478 -1.95735e-08 24 0.447662 24 0.999976Z" fill="#3F892C"/>
<path d="M15.428 7.85405C15.975 7.55347 16.1624 6.88803 15.8466 6.36747L14.1308 3.53805C13.8128 3.02195 13.1166 2.84685 12.5721 3.14603C12.0276 3.44508 11.8389 4.1063 12.1497 4.62636L13.8655 7.45578C14.1813 7.97621 14.8809 8.1545 15.428 7.85405Z" fill="#3F892C"/>
<path d="M34.572 7.85404C35.119 8.1545 35.8186 7.97621 36.1346 7.45577L37.8503 4.6263C38.1611 4.10624 37.9725 3.44513 37.428 3.14595C36.8835 2.84689 36.1872 3.02199 35.8693 3.53797L34.1535 6.36744C33.8376 6.88789 34.025 7.55346 34.572 7.85404Z" fill="#3F892C"/>
<circle cx="36.5" cy="43.5" r="12.61" stroke="#3F892C" stroke-width="1.78"/>
<path d="M43.7208 38.2716C43.3486 37.9095 42.745 37.9095 42.3728 38.2716L33.6487 46.7603L31.6272 44.7934C31.2549 44.4312 30.6515 44.4312 30.2792 44.7934C29.9069 45.1556 29.9069 45.7429 30.2792 46.1051L32.9752 48.7283C33.3475 49.0906 33.951 49.0906 34.3233 48.7283C34.3354 48.7166 34.347 48.7046 34.3584 48.6924C34.3654 48.6859 34.3724 48.6793 34.3793 48.6726L43.7208 39.5833C44.0931 39.2211 44.0931 38.6338 43.7208 38.2716Z" fill="#3F892C"/>
<rect x="7" y="28" width="13" height="2" rx="1" fill="#3F892C"/>
<rect x="7" y="33" width="7" height="2" rx="1" fill="#3F892C"/>
<path fill-rule="evenodd" clip-rule="evenodd" d="M4.67684 13H43.1258C45.8388 13 48 15.1308 48 17.7143V28C48 28.5522 47.5292 29 46.9487 29C46.3682 29 45.8974 28.5522 45.8974 28V22H2.09524C2.06909 22 2.04315 21.9992 2.01746 21.9975V36.2858C2.01746 37.8048 3.22816 39 4.67684 39H19.1659C19.7229 39 20.1746 39.4478 20.1746 40C20.1746 40.5522 19.7229 41 19.1659 41H4.67684C2.07383 41 0 38.8692 0 36.2858V17.7143C0 15.1308 2.07383 13 4.67684 13ZM2.01746 20.0025C2.04315 20.0008 2.06909 20 2.09524 20H45.8974V17.7143C45.8974 16.1951 44.6357 15 43.1258 15H41.2655L41.2619 15H4.67684C3.22816 15 2.01746 16.1951 2.01746 17.7143V20.0025Z" fill="#3F892C"/>
</svg>
