<svg width="47" height="45" viewBox="0 0 47 45" fill="none" xmlns="http://www.w3.org/2000/svg">
<path d="M2.34996 44.6491H6.26659C6.93119 44.647 7.56356 44.3622 8.00556 43.8659H27.6512C28.8007 43.8665 29.9281 43.5504 30.9099 42.9525L45.5893 34.0164C46.8647 33.2415 47.3551 31.6325 46.7287 30.278C46.1023 28.9234 44.5586 28.2551 43.1422 28.7251L28.6367 33.5605C28.3976 33.6416 28.1467 33.6828 27.8941 33.6826H27.4672C27.7671 32.8201 27.7313 31.8763 27.3669 31.0389C26.6263 29.3159 24.931 28.1994 23.0556 28.1994H18.9565C17.5111 28.1978 16.1092 27.7059 14.9795 26.8043C13.5725 25.6818 11.8265 25.069 10.0266 25.0662H8.47252C8.14178 24.1306 7.25899 23.5036 6.26668 23.4995H2.34996C1.05216 23.4995 0 24.5517 0 25.8495V42.2992C0 43.597 1.05216 44.6491 2.34996 44.6491ZM14.0018 28.0279C15.4093 29.1507 17.1558 29.7634 18.9563 29.766H23.0538C24.2966 29.7622 25.4225 30.4983 25.9177 31.6382C26.2274 32.3075 26.1443 33.0929 25.7015 33.6826H20.9311C19.3845 33.6835 17.8727 34.1411 16.5852 34.9978L16.0126 35.3816C15.6531 35.623 15.5574 36.1101 15.7987 36.4696C16.04 36.8292 16.5272 36.9248 16.8868 36.6835L17.4539 36.3013C18.484 35.6158 19.6937 35.2499 20.931 35.2493H27.8939C28.3167 35.2498 28.7367 35.1807 29.137 35.0449L43.6308 30.2126C44.0919 30.0623 44.5982 30.1668 44.9623 30.4872C45.3265 30.8075 45.4945 31.2964 45.4041 31.7729C45.3325 32.151 45.102 32.4802 44.7712 32.6768L30.0949 41.6145C29.3586 42.0628 28.513 42.2996 27.6509 42.2991H8.61655V26.6328H10.0265C11.4713 26.6347 12.8727 27.1265 14.0018 28.0279ZM1.56667 25.8495C1.56667 25.4168 1.91742 25.0662 2.34996 25.0662H6.26659C6.69922 25.0662 7.04988 25.4168 7.04988 25.8495V42.2992C7.04988 42.7318 6.69922 43.0825 6.26659 43.0825H2.34996C1.91733 43.0825 1.56667 42.7317 1.56667 42.2992V25.8495Z" fill="#3F892C"/>
<path d="M22.9523 19.3559C23.2414 19.645 23.7044 19.6631 24.0152 19.3974L34.9818 9.99753C35.2973 9.71315 35.3286 9.22911 35.0524 8.90636C34.7762 8.58361 34.2931 8.53982 33.9635 8.80768L23.5453 17.7375L20.9228 15.1181C20.6118 14.8543 20.1503 14.8733 19.8621 15.1618C19.5737 15.4503 19.5551 15.9117 19.8191 16.2226L22.9523 19.3559Z" fill="#3F892C"/>
<path d="M11.7486 13.3165C11.7486 12.8839 11.3979 12.5332 10.9653 12.5332H8.61533C8.18269 12.5332 7.83203 12.884 7.83203 13.3165C7.83203 13.7491 8.18279 14.0998 8.61533 14.0998H10.9653C11.3979 14.0998 11.7486 13.7491 11.7486 13.3165Z" fill="#3F892C"/>
<path d="M46.2153 12.5332H43.8653C43.4327 12.5332 43.082 12.884 43.082 13.3165C43.082 13.7491 43.4328 14.0998 43.8653 14.0998H46.2153C46.648 14.0998 46.9986 13.749 46.9986 13.3165C46.9986 12.884 46.648 12.5332 46.2153 12.5332Z" fill="#3F892C"/>
<path d="M11.0294 23.1079C11.1669 23.1082 11.3022 23.072 11.4211 23.003L13.4578 21.828C13.7022 21.6891 13.8534 21.4299 13.854 21.1488C13.8546 20.8677 13.7046 20.6078 13.4608 20.4679C13.2171 20.3279 12.917 20.3291 12.6745 20.4713L10.6378 21.6463C10.3308 21.8236 10.1811 22.185 10.2728 22.5274C10.3646 22.8698 10.6749 23.1079 11.0294 23.1079Z" fill="#3F892C"/>
<path d="M41.0894 5.87485C41.3058 6.24947 41.7848 6.37781 42.1595 6.16153L44.1962 4.98653C44.5677 4.76879 44.6937 4.292 44.4784 3.91912C44.2631 3.54624 43.7872 3.41699 43.4128 3.62987L41.3761 4.80487C41.0015 5.02114 40.8732 5.50023 41.0894 5.87485Z" fill="#3F892C"/>
<path d="M41.0894 20.7579C40.8732 21.1326 41.0015 21.6116 41.3761 21.828L43.4128 23.003C43.7872 23.2158 44.263 23.0866 44.4784 22.7138C44.6936 22.3409 44.5676 21.8641 44.1962 21.6463L42.1595 20.4713C41.7849 20.255 41.3058 20.3833 41.0894 20.7579Z" fill="#3F892C"/>
<path d="M13.4573 4.80483L11.4206 3.62983C11.0463 3.41704 10.5704 3.5462 10.3551 3.91908C10.1398 4.29196 10.2658 4.76875 10.6372 4.98649L12.6739 6.16149C12.9165 6.30368 13.2165 6.30497 13.4603 6.16498C13.704 6.02499 13.8541 5.76511 13.8534 5.48403C13.8529 5.20304 13.7017 4.94381 13.4573 4.80483Z" fill="#3F892C"/>
<path d="M27.4141 26.6328C34.7686 26.6328 40.7306 20.6708 40.7306 13.3164C40.7306 5.96192 34.7686 0 27.4141 0C20.0597 0 14.0977 5.96201 14.0977 13.3165C14.1058 20.6675 20.0631 26.6247 27.4141 26.6328ZM27.4141 1.56667C33.9033 1.56667 39.1639 6.82727 39.1639 13.3165C39.1639 19.8057 33.9033 25.0663 27.4141 25.0663C20.9249 25.0663 15.6643 19.8057 15.6643 13.3165C15.6717 6.83021 20.9279 1.57401 27.4141 1.56667Z" fill="#3F892C"/>
</svg>
