<svg width="60" height="51" viewBox="0 0 60 51" fill="none" xmlns="http://www.w3.org/2000/svg">
<path d="M59.5137 12.4018L34.8931 0.092728C34.771 0.0317466 34.6364 0 34.5 0C34.3636 0 34.229 0.0317466 34.1069 0.092728L9.48627 12.4018C9.3401 12.4748 9.21718 12.5872 9.13128 12.7262C9.04539 12.8652 8.99994 13.0253 9.00001 13.1887V37.8069C8.99912 37.971 9.04419 38.1321 9.13012 38.272C9.21606 38.4118 9.33943 38.5248 9.48627 38.5982L34.1069 50.9073C34.229 50.9683 34.3636 51 34.5 51C34.6364 51 34.771 50.9683 34.8931 50.9073L59.5137 38.5982C59.6606 38.5248 59.7839 38.4118 59.8699 38.272C59.9558 38.1321 60.0009 37.971 60 37.8069V13.1887C60.0001 13.0253 59.9546 12.8652 59.8687 12.7262C59.7828 12.5872 59.6599 12.4748 59.5137 12.4018ZM34.5 24.5148L27.6264 21.078L49.5969 9.40807L57.1589 13.1887L34.5 24.5148ZM20.592 17.5611L42.5624 5.89119L47.6624 8.44093L25.6946 20.1126L20.592 17.5611ZM19.5517 19.0074L24.8276 21.6451V28.6507L22.8113 26.6346C22.6465 26.4697 22.4229 26.3771 22.1897 26.377H19.5517V19.0074ZM34.5 1.8626L40.6305 4.92404L18.6601 16.5957L11.8455 13.1887L34.5 1.8626ZM10.7586 14.6113L17.7931 18.1282V27.2562C17.7931 27.4894 17.8858 27.7131 18.0507 27.8779C18.2156 28.0428 18.4392 28.1355 18.6724 28.1355H21.8256L25.0852 31.3947C25.2082 31.5177 25.3649 31.6014 25.5354 31.6353C25.706 31.6692 25.8827 31.6518 26.0434 31.5852C26.204 31.5187 26.3413 31.406 26.438 31.2615C26.5346 31.1169 26.5862 30.947 26.5862 30.7731V22.5243L33.6207 26.0412V48.6934L10.7586 37.2635V14.6113ZM35.3793 48.6934V26.0412L58.2414 14.6113V37.2635L35.3793 48.6934Z" fill="#3F892C"/>
<path d="M7.9286 7.21712C8.12885 7.70624 7.89346 8.28708 7.40288 8.51449C6.91221 8.74183 6.35208 8.52965 6.15182 8.04053L5.06214 5.38266C4.86603 4.89444 5.10192 4.31759 5.59021 4.09123C6.0786 3.86495 6.63624 4.07398 6.83891 4.55925L7.9286 7.21712Z" fill="#3F892C"/>
<path d="M3.9371 11.0505C4.46219 11.0982 4.82956 11.5722 4.75781 12.1095C4.68596 12.6467 4.2021 13.0437 3.67709 12.9961L0.823399 12.7365C0.301206 12.6857 -0.0625412 12.2129 0.00897203 11.6781C0.0803964 11.1434 0.560318 10.7471 1.08341 10.7909L3.9371 11.0505Z" fill="#3F892C"/>
</svg>
