<svg width="22" height="28" viewBox="0 0 22 28" fill="none" xmlns="http://www.w3.org/2000/svg">
<path d="M17.1875 1.17e-05H10.3125C10.222 -0.000520925 10.1323 0.0171366 10.0486 0.0519718C9.96481 0.086807 9.88862 0.138135 9.82438 0.203012L0.199386 10.003C0.135668 10.0684 0.0852572 10.146 0.0510441 10.2313C0.0168309 10.3166 -0.000511623 10.4079 1.14909e-05 10.5V23.1C1.14909e-05 24.3996 0.507041 25.6459 1.40956 26.5648C2.31208 27.4838 3.53616 28 4.81251 28H17.1875C18.4639 28 19.6879 27.4838 20.5905 26.5648C21.493 25.6459 22 24.3996 22 23.1V4.90001C22 3.60045 21.493 2.35412 20.5905 1.43519C19.6879 0.51626 18.4639 1.17e-05 17.1875 1.17e-05ZM9.62501 2.38701V6.30001C9.62501 6.75964 9.53609 7.21476 9.36334 7.6394C9.19059 8.06404 8.93739 8.44988 8.61819 8.77488C8.29899 9.09989 7.92004 9.3577 7.50298 9.53359C7.08593 9.70948 6.63893 9.80001 6.18751 9.80001H2.34439L9.62501 2.38701ZM20.625 23.1C20.625 24.0283 20.2628 24.9185 19.6182 25.5749C18.9735 26.2313 18.0992 26.6 17.1875 26.6H4.81251C3.90083 26.6 3.02649 26.2313 2.38183 25.5749C1.73717 24.9185 1.37501 24.0283 1.37501 23.1V11.2H6.18751C7.46386 11.2 8.68794 10.6838 9.59046 9.76483C10.493 8.8459 11 7.59957 11 6.30001V1.40001H17.1875C18.0992 1.40001 18.9735 1.76876 19.6182 2.42514C20.2628 3.08151 20.625 3.97175 20.625 4.90001V23.1Z" fill="#fff"/>
</svg>
