<svg width="13" height="17" viewBox="0 0 13 17" fill="none" xmlns="http://www.w3.org/2000/svg">
<path d="M10.1398 7.53027H10.154C11.7237 7.52292 12.9984 6.24343 12.9984 4.67175C12.9984 3.80885 12.5316 3.0998 11.9667 2.32893L10.1398 0L8.31292 2.32893C7.74805 3.09974 7.28125 3.80875 7.28125 4.67171C7.28125 6.24791 8.56361 7.53027 10.1398 7.53027Z" fill="#3F892C"/>
<path d="M10.1419 8.49837L10.1248 8.49831C8.02234 8.48934 6.31477 6.77619 6.31477 4.67168C6.31477 4.15022 6.43265 3.68403 6.62091 3.2486L5.5592 1.89502L1.81886 6.66322L1.80938 6.67577C0.855865 7.97623 0 9.2827 0 10.9633C0 14.0213 2.48195 16.5106 5.53732 16.5225L5.55998 16.5226C8.62496 16.5226 11.1185 14.0287 11.1185 10.9633C11.1185 10.0451 10.8628 9.23859 10.4754 8.48369C10.3654 8.49321 10.2542 8.49837 10.1419 8.49837Z" fill="#3F892C"/>
</svg>
