<svg width="14" height="12" viewBox="0 0 14 12" fill="none" xmlns="http://www.w3.org/2000/svg">
<path d="M2.50965 7.50328L6.63494 11.8665C6.7137 11.9497 6.82226 11.9978 6.93721 12C6.95849 12 6.97978 11.9978 7.00106 11.9956C7.02022 11.9978 7.04151 12 7.06067 12H7.06492C7.17774 12 7.2863 11.9519 7.36719 11.8665L11.4861 7.50766L13.0102 5.94092C14.3299 4.58425 14.3299 2.37637 13.0102 1.01969C12.3716 0.363239 11.5201 0 10.6176 0C9.71294 0 8.86362 0.36105 8.22503 1.01969L6.99894 2.2779L5.77497 1.01969C5.13638 0.363239 4.28493 0 3.38239 0C2.47773 0 1.6284 0.36105 0.989813 1.01969C-0.329938 2.37637 -0.329938 4.58425 0.989813 5.94092L2.50965 7.50328ZM1.59009 1.63895C2.08393 1.13129 2.73316 0.877462 3.38239 0.877462C4.03162 0.877462 4.68086 1.13129 5.1747 1.63895L6.6988 3.20569C6.86483 3.37637 7.13517 3.37637 7.3012 3.20569L8.8253 1.63895C9.81299 0.623632 11.4201 0.623632 12.4078 1.63895C13.3955 2.65427 13.3955 4.30635 12.4078 5.32166L10.8794 6.89278L6.99894 10.9978L3.11631 6.8884L1.59222 5.32166C0.602402 4.30635 0.602402 2.65427 1.59009 1.63895Z" fill="#fff"/>
<path d="M3.5 1H4.5L7 3L9.5 1H11L13 2V4C12.6667 4.33333 12 5.1 12 5.5C12 5.9 11.3333 6.66667 11 7L7 11L1 4.5V3.5V2.5L2.09806 1.46731L3.5 1Z" fill="#fff"/>
<path d="M2 1.5L2.09806 1.46731M2.09806 1.46731L3.5 1H4.5L7 3L9.5 1H11L13 2V4C12.6667 4.33333 12 5.1 12 5.5C12 5.9 11.3333 6.66667 11 7L7 11L1 4.5V3.5V2.5L2.09806 1.46731Z" stroke="#fff"/>
</svg>
