<svg width="18" height="15" viewBox="0 0 18 15" fill="none" xmlns="http://www.w3.org/2000/svg">
<path d="M16.7054 1.28571C15.9088 0.459184 14.8059 0 13.6416 0C12.4774 0 11.3744 0.459184 10.5778 1.28571L9.01527 2.84694L7.45272 1.28571C6.59486 0.459184 5.49188 0 4.32763 0C3.16339 0 2.06041 0.459184 1.26382 1.28571C-0.421274 2.96939 -0.421274 5.7551 1.26382 7.43878L3.22466 9.39796L8.52506 14.8469C8.61697 14.9388 8.77016 15 8.92335 15C8.95399 15 8.98463 15 9.01527 15C9.0459 15 9.07654 15 9.10718 15C9.26037 15 9.38293 14.9388 9.50548 14.8469L14.8059 9.39796L16.7667 7.43878C18.4212 5.72449 18.4212 2.96939 16.7054 1.28571Z" fill="#B3B3B3"/>
</svg>
