<svg width="19" height="16" viewBox="0 0 19 16" fill="none" xmlns="http://www.w3.org/2000/svg">
<path d="M3.37571 9.8179L8.92458 15.5271C9.03052 15.6359 9.17654 15.6989 9.33115 15.7018C9.35979 15.7018 9.38842 15.6989 9.41705 15.696C9.44282 15.6989 9.47145 15.7018 9.49722 15.7018H9.50295C9.6547 15.7018 9.80072 15.6388 9.90952 15.5271L15.4498 9.82362L17.4999 7.77358C19.275 5.99839 19.275 3.10943 17.4999 1.33425C16.6409 0.47529 15.4956 0 14.2816 0C13.0648 0 11.9223 0.472427 11.0634 1.33425L9.41419 2.98059L7.76785 1.33425C6.90889 0.47529 5.76361 0 4.54962 0C3.33276 0 2.19034 0.472427 1.33139 1.33425C-0.443795 3.10943 -0.443795 5.99839 1.33139 7.77358L3.37571 9.8179ZM2.13881 2.14453C2.80307 1.48027 3.67634 1.14814 4.54962 1.14814C5.42289 1.14814 6.29617 1.48027 6.96043 2.14453L9.01048 4.19458C9.23381 4.41791 9.59743 4.41791 9.82076 4.19458L11.8708 2.14453C13.1993 0.816011 15.361 0.816011 16.6896 2.14453C18.0181 3.47306 18.0181 5.63477 16.6896 6.96329L14.6338 9.01907L9.41419 14.3904L4.19172 9.01334L2.14167 6.96329C0.810284 5.63477 0.810284 3.47306 2.13881 2.14453Z" fill="black"/>
</svg>
