<svg width="11" height="10" viewBox="0 0 11 10" fill="none" xmlns="http://www.w3.org/2000/svg">
<path d="M9.94234 3.24911H7.03505L7.67139 1.64065C7.76239 1.41149 7.78483 1.16036 7.73594 0.918416C7.68706 0.676474 7.56899 0.454375 7.3964 0.279682C7.29932 0.181618 7.1823 0.106096 7.05347 0.0583601C6.92463 0.0106243 6.78706 -0.00818092 6.65031 0.00325001C6.51357 0.014681 6.38092 0.0560742 6.26158 0.124555C6.14225 0.193037 6.03908 0.286964 5.95925 0.399816L4.2592 2.80528C4.00546 3.16363 3.7233 3.50049 3.4155 3.81252L2.871 4.36314C2.84621 4.38817 2.82654 4.41791 2.81314 4.45065C2.79974 4.48338 2.79286 4.51847 2.7929 4.55391V8.69242C2.79286 8.76414 2.82094 8.83294 2.871 8.88375L3.48095 9.50333C3.63633 9.66126 3.82113 9.78648 4.02467 9.87173C4.22821 9.95698 4.44644 10.0006 4.66675 9.99999H7.98105C8.24273 9.99978 8.49874 9.92293 8.71816 9.77873C8.93757 9.63453 9.11099 9.42915 9.21744 9.18742L10.8432 5.48828C10.9473 5.25237 11.0007 4.99686 11 4.73856V4.3192C10.9997 4.03558 10.8882 3.76366 10.6899 3.56306C10.4917 3.36246 10.2228 3.24955 9.94234 3.24911Z" fill="#3F892C"/>
<path d="M0.960849 4.00106C0.706016 4.00106 0.461621 4.10343 0.281426 4.28565C0.101232 4.46787 0 4.71501 0 4.97271V8.62624C0 8.88393 0.101232 9.13107 0.281426 9.31329C0.461621 9.49551 0.706016 9.59788 0.960849 9.59788C1.21568 9.59788 1.46008 9.49551 1.64027 9.31329C1.82047 9.13107 1.9217 8.88393 1.9217 8.62624V4.97271C1.9217 4.71501 1.82047 4.46787 1.64027 4.28565C1.46008 4.10343 1.21568 4.00106 0.960849 4.00106Z" fill="#3F892C"/>
</svg>
