<svg width="20" height="23" viewBox="0 0 20 23" fill="none" xmlns="http://www.w3.org/2000/svg">
<path d="M17.4242 23H2.57576C1.17424 23 0 21.8514 0 20.3966V8.79609C0 8.03038 0.340909 7.30296 0.94697 6.80524L8.37121 0.602996C9.31818 -0.200999 10.6818 -0.200999 11.6288 0.602996L19.053 6.76696C19.6591 7.26467 20 7.99209 20 8.7578V20.3583C20 21.8514 18.8258 23 17.4242 23ZM10 1.56013C9.77273 1.56013 9.50758 1.6367 9.31818 1.78985L1.89394 7.99209C1.66667 8.18352 1.51515 8.4898 1.51515 8.79609V20.3966C1.51515 20.9709 1.9697 21.4686 2.57576 21.4686H17.4242C17.9924 21.4686 18.4848 21.0092 18.4848 20.3966V8.79609C18.4848 8.4898 18.3333 8.18352 18.1061 7.99209L10.6818 1.78985C10.4924 1.6367 10.2273 1.56013 10 1.56013Z" fill="black"/>
<path d="M15.0013 20.3659H5.0013C4.54297 20.3659 4.16797 19.9909 4.16797 19.5326C4.16797 19.0742 4.54297 18.6992 5.0013 18.6992H15.0013C15.4596 18.6992 15.8346 19.0742 15.8346 19.5326C15.8346 19.9909 15.4596 20.3659 15.0013 20.3659Z" fill="black"/>
</svg>
