<svg width="16" height="16" viewBox="0 0 16 16" fill="none" xmlns="http://www.w3.org/2000/svg">
<path d="M15.8196 0.180606C15.7309 0.0916076 15.6171 0.0319561 15.4935 0.0097053C15.3698 -0.0125455 15.2423 0.00367614 15.1282 0.05618L0.359203 6.82515C0.235489 6.88179 0.134036 6.97783 0.0707109 7.09826C0.00738537 7.21868 -0.0142418 7.3567 0.00921189 7.49073C0.0326655 7.62475 0.0998774 7.74722 0.200336 7.83899C0.300794 7.93075 0.428834 7.98664 0.56443 7.9979L7.42999 8.57019L8.00229 15.4356C8.01355 15.5712 8.06944 15.6992 8.16121 15.7997C8.25298 15.9001 8.37545 15.9673 8.50948 15.9908C8.6435 16.0142 8.78152 15.9926 8.90195 15.9293C9.02238 15.866 9.11843 15.7645 9.17507 15.6408L15.9442 0.872148C15.9964 0.757931 16.0125 0.630464 15.9902 0.506854C15.968 0.383243 15.9084 0.269402 15.8196 0.180606ZM9.03384 12.9947L8.61348 7.94874C8.6014 7.80367 8.53829 7.66759 8.43536 7.56466C8.33243 7.46173 8.19634 7.39862 8.05127 7.38654L3.00519 6.96619L14.1348 1.86534L9.03384 12.9947Z" fill="black"/>
</svg>
