<svg width="17" height="17" viewBox="0 0 17 17" fill="none" xmlns="http://www.w3.org/2000/svg">
<path d="M8.49062 10.5778C9.16308 10.5778 9.82044 10.3784 10.3796 10.0048C10.9387 9.63123 11.3745 9.10022 11.6318 8.47896C11.8892 7.85769 11.9565 7.17406 11.8253 6.51453C11.6941 5.85499 11.3703 5.24917 10.8948 4.77367C10.4193 4.29817 9.81347 3.97435 9.15393 3.84316C8.4944 3.71197 7.81077 3.77931 7.1895 4.03664C6.56823 4.29398 6.03723 4.72977 5.66363 5.28889C5.29003 5.84802 5.09063 6.50538 5.09063 7.17783C5.09063 8.07957 5.44884 8.94437 6.08646 9.58199C6.72409 10.2196 7.58889 10.5778 8.49062 10.5778ZM8.49062 4.91117C8.93893 4.91117 9.37717 5.0441 9.74992 5.29317C10.1227 5.54223 10.4132 5.89624 10.5848 6.31042C10.7563 6.7246 10.8012 7.18035 10.7137 7.62004C10.6263 8.05973 10.4104 8.46361 10.0934 8.78061C9.7764 9.09761 9.37252 9.31349 8.93283 9.40095C8.49314 9.48841 8.03739 9.44352 7.62321 9.27196C7.20903 9.1004 6.85503 8.80988 6.60596 8.43712C6.3569 8.06437 6.22396 7.62614 6.22396 7.17783C6.22396 6.57668 6.46277 6.00014 6.88785 5.57506C7.31293 5.14998 7.88947 4.91117 8.49062 4.91117Z" fill="#3F892C"/>
<path d="M8.48923 17C9.7463 16.9985 10.9874 16.7181 12.1231 16.1792C13.2587 15.6403 14.2608 14.8562 15.0569 13.8833L15.3516 13.5207L15.0569 13.1637C14.2595 12.1931 13.257 11.4114 12.1214 10.8747C10.9858 10.3379 9.7453 10.0596 8.48923 10.0596C7.23316 10.0596 5.99271 10.3379 4.85709 10.8747C3.72148 11.4114 2.71893 12.1931 1.92157 13.1637L1.6269 13.5207L1.92157 13.8833C2.71771 14.8562 3.71972 15.6403 4.8554 16.1792C5.99108 16.7181 7.23216 16.9985 8.48923 17ZM13.8669 13.532C13.1777 14.2698 12.3442 14.8581 11.4181 15.2603C10.4921 15.6625 9.4932 15.87 8.48356 15.87C7.47393 15.87 6.47507 15.6625 5.54901 15.2603C4.62294 14.8581 3.78943 14.2698 3.10023 13.532C3.78943 12.7942 4.62294 12.2059 5.54901 11.8037C6.47507 11.4015 7.47393 11.194 8.48356 11.194C9.4932 11.194 10.4921 11.4015 11.4181 11.8037C12.3442 12.2059 13.1777 12.7942 13.8669 13.532Z" fill="#3F892C"/>
<path d="M8.48968 17C10.4203 17.0023 12.2943 16.3473 13.8031 15.1428C15.3119 13.9383 16.3657 12.256 16.7911 10.3728C17.2165 8.48953 16.9881 6.5176 16.1435 4.78149C15.2989 3.04538 13.8884 1.64852 12.1441 0.820801C10.3999 -0.0069184 8.42586 -0.216182 6.54685 0.227449C4.66785 0.671079 2.99585 1.74117 1.80602 3.26162C0.616192 4.78207 -0.0205765 6.66228 0.000505447 8.59282C0.0215893 10.5234 0.699268 12.3892 1.92202 13.8833C2.71816 14.8561 3.72017 15.6403 4.85585 16.1792C5.99153 16.7181 7.23262 16.9985 8.48968 17ZM8.48968 1.13333C9.94667 1.13333 11.3709 1.56538 12.5824 2.37484C13.7938 3.1843 14.738 4.33482 15.2956 5.6809C15.8532 7.02698 15.999 8.50817 15.7148 9.93716C15.4306 11.3662 14.7289 12.6788 13.6987 13.709C12.6685 14.7393 11.3558 15.4409 9.92685 15.7251C8.49786 16.0094 7.01667 15.8635 5.67058 15.3059C4.3245 14.7483 3.17399 13.8041 2.36453 12.5927C1.55507 11.3813 1.12302 9.95699 1.12302 8.5C1.12302 6.54624 1.89915 4.6725 3.28067 3.29098C4.66218 1.90946 6.53592 1.13333 8.48968 1.13333Z" fill="#3F892C"/>
</svg>
