<svg width="18" height="13" viewBox="0 0 18 13" fill="none" xmlns="http://www.w3.org/2000/svg">
<path d="M11.3936 13C10.1404 13 8.92069 12.653 7.86627 11.9966C6.84092 11.3583 6.01395 10.4567 5.47476 9.38924L6.50363 8.88612C7.4332 10.7264 9.30696 11.8696 11.3936 11.8696C14.4029 11.8696 16.8511 9.4608 16.8511 6.5C16.8511 3.5392 14.4029 1.13043 11.3936 1.13043C9.30696 1.13043 7.4332 2.27361 6.50363 4.11388L5.47476 3.61076C6.01395 2.54329 6.84092 1.64169 7.86627 1.00337C8.92069 0.346968 10.1404 0 11.3936 0C15.0364 0 18 2.91588 18 6.5C18 10.0841 15.0364 13 11.3936 13Z" fill="white"/>
<path d="M8.68956 4.63878L9.50193 3.83949L12.206 6.5L9.50193 9.16052L8.68956 8.36122L10.0067 7.06522H0V5.93478H10.0067L8.68956 4.63878Z" fill="white"/>
</svg>
