<svg width="12" height="12" viewBox="0 0 12 12" fill="none" xmlns="http://www.w3.org/2000/svg">
<path d="M1.16727 5.37273C1.12029 5.22251 1.09459 5.06644 1.09091 4.90909V2.72727C1.09091 1.17273 3.43636 0 6.54545 0C9.65455 0 12 1.17273 12 2.72727V4.90909C11.9699 5.27248 11.8467 5.62198 11.6423 5.92389C11.4378 6.22581 11.159 6.46993 10.8327 6.63273C10.8828 6.78032 10.9086 6.93506 10.9091 7.09091V9.27273C10.9091 10.8273 8.56364 12 5.45455 12C2.34545 12 0 10.8273 0 9.27273V7.09091C0.0294132 6.72804 0.152416 6.37899 0.357001 6.07785C0.561586 5.77671 0.840761 5.53376 1.16727 5.37273ZM6.54545 7.63636C4.44545 7.63636 2.69455 7.09091 1.77818 6.27273C1.34182 6.53455 1.09091 6.81818 1.09091 7.09091C1.09091 7.75636 2.79273 8.72727 5.45455 8.72727C8.11636 8.72727 9.76909 7.78364 9.81818 7.11818C8.76515 7.47769 7.65803 7.65298 6.54545 7.63636ZM6.54545 1.09091C3.88364 1.09091 2.18182 2.06182 2.18182 2.72727C2.18182 3.39273 3.88364 4.36364 6.54545 4.36364C9.20727 4.36364 10.9091 3.39273 10.9091 2.72727C10.9091 2.06182 9.20727 1.09091 6.54545 1.09091ZM10.9091 4.39636C9.58245 5.15104 8.07042 5.5177 6.54545 5.45455C5.02049 5.5177 3.50846 5.15104 2.18182 4.39636V4.90909C2.18182 5.57455 3.88364 6.54545 6.54545 6.54545C9.20727 6.54545 10.9091 5.57455 10.9091 4.90909V4.39636ZM5.45455 10.9091C8.11636 10.9091 9.81818 9.93818 9.81818 9.27273V8.76C8.49154 9.51467 6.97951 9.88134 5.45455 9.81818C3.92958 9.88134 2.41755 9.51467 1.09091 8.76V9.27273C1.09091 9.93818 2.79273 10.9091 5.45455 10.9091Z" fill="#3F892C"/>
</svg>
