<svg width="12" height="19" viewBox="0 0 12 19" fill="none" xmlns="http://www.w3.org/2000/svg">
<path fill-rule="evenodd" clip-rule="evenodd" d="M11.0552 4.81173C11.0552 7.46064 8.78283 9.61238 6.00004 9.61238C3.21644 9.61238 0.944116 7.46064 0.944116 4.81173C0.944116 2.15174 3.21644 0 6.00004 0C8.78283 0 11.0552 2.15174 11.0552 4.81173ZM8.48279 4.81173C8.48279 3.49915 7.36743 2.43753 6.00004 2.43753C4.63184 2.43753 3.51648 3.49836 3.51728 4.81173C3.51728 6.11323 4.63264 7.17485 6.00004 7.17485C7.36743 7.17485 8.48279 6.11323 8.48279 4.81173Z" fill="#fff"/>
<path d="M1.5138 12.3864C0.243216 11.6074 -0.313664 11.1514 0.176806 10.1974C0.465647 9.65592 1.25616 9.19913 2.30351 9.98605C2.30351 9.98605 3.71811 11.0588 6.00164 11.0588C8.28436 11.0588 9.69976 9.98605 9.69976 9.98605C10.7479 9.20309 11.5352 9.65592 11.8273 10.1974C12.3105 11.1514 11.7537 11.6066 10.4831 12.3895L10.4839 12.3903C9.41658 13.0363 7.94688 13.292 6.97634 13.3886C7.0926 13.4985 8.13187 14.4847 9.09277 15.3965C9.94174 16.2021 10.7295 16.9497 10.7655 16.9836C11.8529 18.0444 10.0838 19.7029 8.98446 18.6785C8.25244 17.9706 7.18437 16.9539 6.06589 15.8892L6.01044 15.8364L3.03641 18.6746C1.93786 19.695 0.168005 18.0222 1.26736 16.9796C4.54461 13.8606 5.03105 13.3975 5.0446 13.3846C5.03752 13.3914 4.90764 13.515 5.0447 13.3847L5.0446 13.3846C4.08605 13.2881 2.59391 13.0466 1.5138 12.3864Z" fill="#fff"/>
</svg>
