<svg width="89" height="20" viewBox="0 0 89 20" fill="none" xmlns="http://www.w3.org/2000/svg">
<path fill-rule="evenodd" clip-rule="evenodd" d="M10.9158 0.216822C8.94597 0.00933087 6.96027 0.417023 5.2316 1.38386C3.50292 2.3507 2.11612 3.82921 1.26183 5.61619C0.407538 7.40317 0.127684 9.41088 0.460734 11.3634C0.793785 13.3158 1.72339 15.1172 3.12178 16.52C4.52016 17.9227 6.31868 18.8578 8.27012 19.1969C10.2216 19.536 12.2301 19.2624 14.0197 18.4136C15.8093 17.5649 17.2921 16.1826 18.2643 14.457C19.2365 12.7313 19.6503 10.7469 19.4489 8.77643C19.2273 6.58619 18.2578 4.5392 16.7035 2.98015C15.1493 1.4211 13.1053 0.445218 10.9158 0.216822ZM10.6051 14.8248C9.54568 14.967 8.46837 14.7735 7.52456 14.2718C6.58076 13.77 5.8179 12.9851 5.34321 12.0274C4.86852 11.0697 4.70586 9.9873 4.8781 8.93237C5.05033 7.87744 5.5488 6.903 6.30344 6.14599C7.05808 5.38898 8.03096 4.88747 9.08535 4.71194C10.1397 4.53641 11.2226 4.69568 12.1818 5.16737C13.141 5.63906 13.9283 6.39945 14.433 7.34169C14.9377 8.28392 15.1345 9.36062 14.9957 10.4205C14.85 11.5352 14.3409 12.5709 13.5472 13.3671C12.7535 14.1633 11.7194 14.6757 10.6051 14.8248ZM24.5767 0.596103C24.2442 0.596898 23.9161 0.671815 23.6161 0.815401C23.3162 0.958987 23.0521 1.16763 22.843 1.42615C22.6338 1.68467 22.485 1.98656 22.4072 2.30985C22.3294 2.63315 22.3247 2.96971 22.3934 3.29506C22.6038 4.34908 23.5883 5.06926 24.6607 5.06926H30.8846L21.1989 17.887C21.1272 17.9816 21.0834 18.0943 21.0722 18.2124C21.061 18.3306 21.083 18.4495 21.1356 18.5559C21.1883 18.6623 21.2695 18.7519 21.3702 18.8147C21.4709 18.8775 21.5871 18.911 21.7058 18.9115H36.8987C37.9705 18.9115 38.9557 18.1915 39.1661 17.1373C39.2348 16.812 39.2301 16.4755 39.1524 16.1522C39.0747 15.8289 38.9259 15.5271 38.7169 15.2685C38.5079 15.01 38.2438 14.8013 37.944 14.6576C37.6442 14.5139 37.3161 14.4389 36.9837 14.4379H29.4004L39.0787 1.63021C39.151 1.53466 39.1953 1.42085 39.2065 1.30154C39.2178 1.18223 39.1956 1.06215 39.1424 0.954761C39.0892 0.847372 39.0071 0.756928 38.9054 0.693576C38.8037 0.630224 38.6863 0.596471 38.5665 0.596103H24.5767ZM85.2868 0.647699C84.7838 0.767305 84.3367 1.05499 84.0194 1.46319C83.7021 1.87139 83.5336 2.37565 83.5418 2.89261V10.3403L71.4737 0.736771C71.3791 0.661649 71.2652 0.614768 71.1451 0.601522C71.025 0.588277 70.9036 0.609204 70.7949 0.661898C70.6861 0.714591 70.5945 0.79691 70.5304 0.899383C70.4664 1.00186 70.4326 1.12032 70.4329 1.24115V16.6189C70.4247 17.1359 70.5932 17.6402 70.9105 18.0484C71.2279 18.4566 71.675 18.7443 72.178 18.8639C72.5046 18.9357 72.8432 18.9333 73.1688 18.8569C73.4944 18.7805 73.7987 18.6319 74.0592 18.4222C74.3197 18.2124 74.5298 17.9469 74.674 17.6452C74.8182 17.3434 74.8928 17.0131 74.8923 16.6787V9.16658L86.9605 18.7703C87.0551 18.8453 87.169 18.8922 87.2891 18.9054C87.4091 18.9186 87.5305 18.8977 87.6392 18.8451C87.7479 18.7924 87.8395 18.7101 87.9035 18.6077C87.9675 18.5052 88.0013 18.3868 88.001 18.2661V2.83214C88.0013 2.49778 87.9266 2.1676 87.7824 1.86595C87.6382 1.56431 87.4281 1.29888 87.1676 1.08924C86.9071 0.879599 86.6029 0.731096 86.2774 0.654677C85.9519 0.578259 85.6134 0.575874 85.2868 0.647699ZM53.865 4.6411C58.9694 4.6411 62.7834 7.33861 62.7834 9.75152C62.7834 12.1644 58.9694 14.8619 53.865 14.8619C48.7605 14.8619 44.9466 12.1644 44.9466 9.75152C44.9466 7.33861 48.7605 4.6411 53.865 4.6411ZM53.865 0.168122C46.4765 0.168122 40.4872 4.45879 40.4872 9.75152C40.4872 15.0443 46.4765 19.3349 53.865 19.3349C61.2535 19.3349 67.2426 15.0443 67.2426 9.75152C67.2426 4.45879 61.2533 0.168122 53.865 0.168122Z" fill="#0069FF"/>
</svg>
