<svg width="56" height="65" viewBox="0 0 56 65" fill="none" xmlns="http://www.w3.org/2000/svg">
<path d="M30 12.5C30 12.5 36.5996 12.4332 39.2677 9.6539C41.9359 6.87461 42 1.38281e-06 42 1.38281e-06C42 1.38281e-06 42.0641 6.87461 44.7323 9.6539C47.4004 12.4332 54 12.5 54 12.5C54 12.5 47.4004 12.5668 44.7323 15.3461C42.0641 18.1254 42 25 42 25C42 25 41.9359 18.1254 39.2677 15.3461C36.5996 12.5668 30 12.5 30 12.5Z" fill="#559644"/>
<path d="M53.9085 25.6722C54.8167 27.9214 55.4505 30.315 55.7674 32.8096L55.2714 32.8726C55.4222 34.0598 55.5 35.2705 55.5 36.5C55.5 37.7295 55.4222 38.9402 55.2714 40.1274L55.7674 40.1904C55.4505 42.685 54.8167 45.0786 53.9085 47.3278L53.4448 47.1406C52.5284 49.41 51.3275 51.53 49.8874 53.4543L50.2877 53.7539C48.8053 55.7347 47.0738 57.512 45.1409 59.0373L44.8311 58.6448C42.9365 60.1399 40.8451 61.3883 38.6036 62.3429L38.7995 62.8029C36.5619 63.7558 34.177 64.4215 31.6892 64.7548L31.6228 64.2593C30.4375 64.418 29.2283 64.5 28 64.5C26.7717 64.5 25.5625 64.418 24.3772 64.2593L24.3108 64.7548C21.823 64.4215 19.4381 63.7558 17.2005 62.8029L17.3964 62.3429C15.1549 61.3882 13.0635 60.1399 11.1689 58.6448L10.8591 59.0373C8.92615 57.512 7.19471 55.7347 5.71233 53.7539L6.11264 53.4543C4.67251 51.53 3.47162 49.41 2.55515 47.1406L2.09153 47.3278C1.18326 45.0786 0.549462 42.685 0.232582 40.1904L0.728596 40.1274C0.577796 38.9402 0.5 37.7295 0.5 36.5C0.5 35.2705 0.577796 34.0598 0.728596 32.8726L0.232582 32.8096C0.549462 30.315 1.18326 27.9214 2.09153 25.6722L2.55515 25.8594C3.47162 23.5899 4.67251 21.47 6.11265 19.5457L5.71234 19.2461C7.19471 17.2653 8.92616 15.488 10.8591 13.9627L11.1689 14.3552C13.0635 12.8601 15.1549 11.6117 17.3964 10.6571L17.2005 10.1971C19.4381 9.2442 21.823 8.57846 24.3108 8.24517L24.3772 8.74074C25.5625 8.58196 26.7717 8.5 28 8.5C29.2283 8.5 30.4375 8.58196 31.6228 8.74074L31.6892 8.24517C34.177 8.57846 36.5619 9.2442 38.7995 10.1971L38.6036 10.6571C40.8451 11.6118 42.9365 12.8601 44.8311 14.3552L45.1409 13.9627C47.0738 15.488 48.8053 17.2653 50.2877 19.2461L49.8874 19.5457C51.3275 21.47 52.5284 23.59 53.4449 25.8594L53.9085 25.6722Z" stroke="#559644" stroke-dasharray="8 8"/>
</svg>
