<svg width="24" height="14" viewBox="0 0 24 14" fill="none" xmlns="http://www.w3.org/2000/svg">
<path d="M21.8571 4.50388e-05H15.7371C15.7402 0.192957 15.7349 0.974642 15.7371 1.14434C15.7351 1.26336 15.6891 1.3768 15.6089 1.46022C15.5288 1.54364 15.4209 1.59039 15.3086 1.59039C15.1962 1.59039 15.0884 1.54364 15.0082 1.46022C14.928 1.3768 14.882 1.26336 14.88 1.14434C14.8814 0.949031 14.879 0.201076 14.88 0L2.14286 4.50388e-05C1.5746 0.000262884 1.02967 0.239547 0.627855 0.665302C0.226036 1.09106 0.000205598 1.66844 0 2.27055V11.7295C0.000205598 12.3316 0.226036 12.909 0.627855 13.3347C1.02967 13.7605 1.5746 13.9998 2.14286 14H14.88V12.8557C14.88 12.7352 14.9252 12.6197 15.0055 12.5346C15.0859 12.4494 15.1949 12.4016 15.3086 12.4016C15.4222 12.4016 15.5312 12.4494 15.6116 12.5346C15.692 12.6197 15.7371 12.7352 15.7371 12.8557V14H21.8571C22.4254 13.9998 22.9703 13.7605 23.3721 13.3347C23.774 12.909 23.9998 12.3316 24 11.7295V2.27055C23.9998 1.66844 23.774 1.09106 23.3721 0.665302C22.9703 0.239547 22.4254 0.000262884 21.8571 4.50388e-05ZM15.3086 3.03344C15.4221 3.03379 15.531 3.08175 15.6113 3.16683C15.6916 3.25192 15.7368 3.36722 15.7371 3.48755V5.65361C15.7371 5.77405 15.692 5.88955 15.6116 5.97471C15.5312 6.05987 15.4222 6.10771 15.3086 6.10771C15.1949 6.10771 15.0859 6.05987 15.0055 5.97471C14.9252 5.88955 14.88 5.77405 14.88 5.65361V3.48755C14.8803 3.36722 14.9256 3.25193 15.0059 3.16684C15.0862 3.08176 15.195 3.0338 15.3086 3.03344ZM15.3086 10.4353C15.195 10.4349 15.0862 10.387 15.0059 10.3019C14.9256 10.2168 14.8803 10.1015 14.88 9.9812V7.81968C14.88 7.69924 14.9252 7.58374 15.0055 7.49858C15.0859 7.41342 15.1949 7.36557 15.3086 7.36557C15.4222 7.36557 15.5312 7.41342 15.6116 7.49858C15.692 7.58374 15.7371 7.69924 15.7371 7.81968V9.9812C15.7368 10.1015 15.6916 10.2168 15.6113 10.3019C15.531 10.387 15.4221 10.435 15.3086 10.4353Z" fill="black"/>
</svg>
