<svg width="68" height="12" viewBox="0 0 68 12" fill="none" xmlns="http://www.w3.org/2000/svg">
<path opacity="0.2" d="M12 4.41204L7.63971 4.12537L5.99761 0L4.35551 4.12537L0 4.41204L3.34064 7.24859L2.24442 11.5515L5.99761 9.17908L9.75082 11.5515L8.6546 7.24859L12 4.41204Z" fill="black"/>
<path opacity="0.2" d="M26 4.41204L21.6397 4.12537L19.9976 0L18.3555 4.12537L14 4.41204L17.3406 7.24859L16.2444 11.5515L19.9976 9.17908L23.7508 11.5515L22.6546 7.24859L26 4.41204Z" fill="black"/>
<path opacity="0.2" d="M40 4.41204L35.6397 4.12537L33.9976 0L32.3555 4.12537L28 4.41204L31.3406 7.24859L30.2444 11.5515L33.9976 9.17908L37.7508 11.5515L36.6546 7.24859L40 4.41204Z" fill="black"/>
<path opacity="0.2" d="M54 4.41204L49.6397 4.12537L47.9976 0L46.3555 4.12537L42 4.41204L45.3406 7.24859L44.2444 11.5515L47.9976 9.17909L51.7508 11.5515L50.6546 7.24859L54 4.41204Z" fill="black"/>
<path opacity="0.2" d="M68 4.41204L63.6397 4.12537L61.9976 0L60.3555 4.12537L56 4.41204L59.3406 7.24859L58.2444 11.5515L61.9976 9.17908L65.7508 11.5515L64.6546 7.24859L68 4.41204Z" fill="black"/>
</svg>
