<svg width="59" height="28" viewBox="0 0 59 28" fill="none" xmlns="http://www.w3.org/2000/svg">
<path d="M14.55 28H44.4502C48.1302 28 51.5802 26.5433 54.1869 23.9367C56.7935 21.33 58.2502 17.88 58.2502 14.2C58.2502 10.5199 56.7935 6.99326 54.1869 4.46325C51.6568 1.85657 48.1302 0.399902 44.4502 0.399902H14.55C10.87 0.399902 7.42002 1.85657 4.81335 4.46325C2.20667 6.99326 0.75 10.5199 0.75 14.2C0.75 17.88 2.20667 21.4066 4.81335 23.9367C7.42002 26.4667 10.87 28 14.55 28Z" fill="url(#paint0_linear_1_12039)"/>
<path d="M14.55 28H44.4502C48.1302 28 51.5802 26.5433 54.1869 23.9367C56.7935 21.33 58.2502 17.88 58.2502 14.2C58.2502 10.5199 56.7935 6.99326 54.1869 4.46325C51.6568 1.85657 48.1302 0.399902 44.4502 0.399902H14.55C10.87 0.399902 7.42002 1.85657 4.81335 4.46325C2.20667 6.99326 0.75 10.5199 0.75 14.2C0.75 17.88 2.20667 21.4066 4.81335 23.9367C7.42002 26.4667 10.87 28 14.55 28Z" fill="black" fill-opacity="0.2"/>
<path d="M28.6554 15.4266V18.2633H26.9688V9.06323H30.0354C32.9488 9.06323 34.1754 10.1366 34.1754 12.2066C34.1754 14.3533 32.7188 15.4266 30.0354 15.4266H28.6554ZM28.6554 10.5966V13.8932H30.1888C31.7221 13.8932 32.4888 13.3566 32.4888 12.1299C32.4888 10.9799 31.7988 10.5966 30.1888 10.5966H28.6554Z" fill="white"/>
<path d="M35.0972 12.2066C35.5572 11.8999 36.3239 11.5933 37.4739 11.5933C39.3906 11.5933 40.3106 12.2833 40.3106 13.9699V18.34H38.8539V17.1133C38.5472 17.88 37.7039 18.4166 36.7072 18.4166C35.4039 18.4166 34.5605 17.65 34.5605 16.3466C34.5605 14.8133 35.6339 14.4299 37.2439 14.4299H38.7006V14.1233C38.7006 13.2033 38.2406 12.8966 37.3972 12.8966C36.1706 12.8966 35.4806 13.3566 35.0206 14.0466L35.0972 12.2066ZM38.7772 15.9633V15.4266H37.4739C36.5539 15.4266 36.0939 15.5799 36.0939 16.1933C36.0939 16.7299 36.4772 17.0366 37.1672 17.0366C38.2406 17.0366 38.7006 16.4233 38.7772 15.9633Z" fill="white"/>
<path d="M41.0762 11.7466H42.7628L44.6029 16.2699L46.0595 11.7466H47.6695L45.0629 19.0299C44.4495 20.6399 43.9128 20.9466 42.9928 20.9466C42.6095 20.9466 42.1495 20.7933 41.9195 20.6399V19.1833C42.1495 19.4133 42.3795 19.4899 42.6862 19.4899C43.1462 19.4899 43.5295 19.1833 43.7595 18.2633L41.0762 11.7466Z" fill="white"/>
<path d="M11.9434 12.2065V14.1999L14.6267 15.8865L21.0667 11.1332C20.8367 10.5965 20.5301 10.1365 20.2234 9.75317L14.6267 13.8932L11.9434 12.2065Z" fill="white"/>
<path d="M20.0696 13.8932V14.0465C20.0696 15.2732 19.6862 16.4232 18.9195 17.4199C18.1529 18.3399 17.1562 19.0299 15.9295 19.3365C14.7795 19.6432 13.5529 19.4899 12.4029 19.0299C11.3295 18.5699 10.4095 17.6499 9.79618 16.6532C9.25951 15.5799 9.02951 14.3532 9.25952 13.1265C9.48952 11.8998 10.1029 10.8265 10.9462 10.0598C11.8662 9.2165 13.0162 8.7565 14.1662 8.67983C15.3162 8.60316 16.5429 8.90983 17.5395 9.59983L18.9195 8.60316C17.6929 7.60649 16.1595 7.06982 14.5495 7.06982C12.9395 7.06982 11.4062 7.60649 10.1795 8.60316C8.95285 9.59983 8.03284 10.9798 7.64951 12.5132C7.26617 14.0465 7.49618 15.7332 8.18618 17.1132C8.87618 18.5699 10.0262 19.7199 11.4829 20.4099C12.9395 21.0999 14.5495 21.3299 16.0829 20.9465C17.6162 20.5632 18.9962 19.7199 19.9929 18.4932C20.9896 17.2665 21.5262 15.6565 21.5262 14.1232C21.5262 13.6632 21.5262 13.2798 21.4496 12.8965L20.0696 13.8932Z" fill="white"/>
<defs>
<linearGradient id="paint0_linear_1_12039" x1="57.8262" y1="-17.4213" x2="1.3641" y2="45.577" gradientUnits="userSpaceOnUse">
<stop offset="0.0677083" stop-color="#00ADED"/>
<stop offset="0.3021" stop-color="#42E3B4"/>
<stop offset="0.5654" stop-color="#00D900"/>
<stop offset="0.8542" stop-color="#FAED00"/>
</linearGradient>
</defs>
</svg>
