<svg width="61" height="35" viewBox="0 0 61 35" fill="none" xmlns="http://www.w3.org/2000/svg">
<path d="M60.9997 14.1405V22.5288H58.0044V16.6446H55.1203V22.5288H52.125V14.1399H60.9997V14.1405Z" fill="black"/>
<path fill-rule="evenodd" clip-rule="evenodd" d="M45.9734 22.8287C48.6548 22.8287 50.6459 21.1847 50.6459 18.6923C50.6459 16.28 49.1769 14.7138 46.7217 14.7138C45.5886 14.7138 44.6536 15.1126 43.9494 15.8008C44.1175 14.3784 45.3204 13.3399 46.6448 13.3399C46.9504 13.3399 49.2515 13.335 49.2515 13.335L50.5527 10.845C50.5527 10.845 47.6638 10.9107 46.3208 10.9107C43.2523 10.9642 41.1797 13.7534 41.1797 17.1409C41.1797 21.0875 43.2011 22.8287 45.9734 22.8287ZM45.9897 16.9193C46.9853 16.9193 47.6755 17.5735 47.6755 18.6921C47.6755 19.6988 47.0622 20.5282 45.9897 20.5305C44.9638 20.5305 44.2736 19.762 44.2736 18.7092C44.2736 17.5904 44.9638 16.9193 45.9897 16.9193Z" fill="black"/>
<path d="M38.7404 19.7205C38.7404 19.7205 38.033 20.1282 36.9765 20.2054C35.7619 20.2415 34.6797 19.4743 34.6797 18.1113C34.6797 16.7818 35.6347 16.0198 36.9459 16.0198C37.7499 16.0198 38.8136 16.5771 38.8136 16.5771C38.8136 16.5771 39.5918 15.1489 39.995 14.4347C39.2567 13.8752 38.2735 13.5684 37.1298 13.5684C34.2434 13.5684 32.0078 15.4503 32.0078 18.0945C32.0078 20.7724 34.109 22.6106 37.1298 22.5551C37.9741 22.5237 39.1389 22.2272 39.8489 21.7711L38.7404 19.7205Z" fill="black"/>
<path d="M0.314453 7.604L4.46945 15.0308V19.5609L0.319314 26.9731L0.314453 7.604Z" fill="#5B57A2"/>
<path d="M16.2695 12.3283L20.1629 9.942L28.1309 9.93457L16.2695 17.2009V12.3283Z" fill="#D90751"/>
<path d="M16.2462 7.56023L16.2682 17.393L12.1035 14.834V0.135742L16.2465 7.56023H16.2462Z" fill="#FAB718"/>
<path d="M28.1296 9.93451L20.1613 9.94195L16.2462 7.56023L12.1035 0.135742L28.1293 9.93451H28.1296Z" fill="#ED6F26"/>
<path d="M16.2682 27.0144V22.2438L12.1035 19.7334L12.1058 34.4463L16.2682 27.0144Z" fill="#63B22F"/>
<path d="M20.1516 24.6497L4.46916 15.0308L0.314453 7.604L28.1125 24.64L20.1513 24.6497H20.1516Z" fill="#1487C9"/>
<path d="M12.1055 34.4461L16.2673 27.0142L20.151 24.6496L28.1119 24.6399L12.1055 34.4461Z" fill="#017F36"/>
<path d="M0.318359 26.9732L12.1363 19.7337L8.16315 17.2959L4.46849 19.561L0.318359 26.9732Z" fill="#984995"/>
</svg>
