<svg width="73" height="21" viewBox="0 0 73 21" fill="none" xmlns="http://www.w3.org/2000/svg">
<path d="M33.8554 16.9512C34.5014 15.915 35.8482 15.774 36.9664 15.7622C40.2007 15.7763 43.4356 15.8844 46.6703 15.9009C46.1578 17.1298 45.831 18.4481 45.1209 19.5878C44.4582 20.6215 43.1043 20.7721 41.972 20.7768C38.7446 20.7791 35.5145 20.7909 32.2846 20.7674C32.7661 19.482 33.1236 18.1262 33.8554 16.9512ZM37.2188 9.21083C37.9649 8.17902 39.3879 8.1628 40.5488 8.14165C43.669 8.191 46.794 8.2427 49.9142 8.30144C49.4351 9.54216 49.0966 10.8604 48.3767 11.9954C47.7284 12.9894 46.4269 13.1492 45.328 13.1609C42.065 13.1727 38.7991 13.1633 35.5335 13.1609C36.0675 11.838 36.4083 10.4093 37.2188 9.21083ZM56.2595 0.0370287C58.1855 0.0440782 60.1091 0.0346788 62.0351 0.0440782C60.9768 2.7511 59.7254 5.38528 58.7767 8.13225C61.8563 6.57431 62.9145 2.80045 65.6535 0.809894C67.8632 -0.508371 70.5615 0.222432 73 0.0485429C69.8845 3.63676 67.1169 7.77484 62.7285 9.9743C63.303 10.6393 64.1614 11.0928 64.4212 11.9879C65.4843 14.8148 65.7272 17.8578 66.2471 20.8118C64.4662 20.8186 62.1162 21.5706 60.7932 20.0199C59.6848 17.8181 60.1997 15.1064 58.8837 12.9654C58.4951 12.3075 57.6728 12.237 56.9913 12.1195C55.7732 14.9769 54.5671 17.839 53.3705 20.7058C51.3875 20.7314 49.4019 20.7314 47.4163 20.7314C50.3361 13.8212 53.3443 6.94793 56.2595 0.0370287ZM40.4939 1.16496C41.1042 0.208568 42.3437 0.0276293 43.3972 0.0346788C46.6843 0.0464281 49.9714 0.0299791 53.2585 0.0464281C52.7436 1.34354 52.417 2.73935 51.635 3.91428C50.932 4.95056 49.5445 5.00931 48.4077 5.02576C45.2327 5.02106 42.0574 5.03516 38.885 5.01401C39.3998 3.72629 39.7431 2.34928 40.4939 1.16496ZM22.6236 0.032329C25.9846 0.0769761 29.4742 -0.202656 32.6803 0.998116C34.089 1.51038 35.3524 2.62186 35.636 4.12576C36.1697 6.73879 35.2639 9.35888 34.3724 11.791C33.0664 15.3768 30.3488 18.6337 26.616 19.9073C22.497 21.4347 18.0372 20.9486 13.7466 20.7347C14.5642 19.064 14.9193 16.3755 17.191 16.1173C19.956 16.082 22.9428 16.6483 25.4885 15.2666C27.2787 13.9625 28.3728 11.9463 29.2023 9.95597C29.6981 8.59306 30.1867 7.03041 29.6266 5.61815C28.9949 4.64297 27.6765 4.57952 26.6517 4.30459C25.5719 6.86827 24.4659 9.41786 23.286 11.9369C22.814 12.9567 22.0179 13.9531 20.8475 14.188C19.4364 14.4512 18.0014 14.1692 16.5831 14.1129C18.569 9.40822 20.5879 4.71558 22.6236 0.032329ZM7.15837 2.12369C11.0223 0.133372 15.5346 -0.13921 19.8109 0.116924C19.3317 1.3271 19.0409 2.63831 18.3068 3.72864C17.3962 4.84482 15.7872 4.48999 14.5239 4.72968C12.7743 5.0516 10.6981 5.0563 9.44907 6.50616C7.74952 8.41659 6.59582 10.7946 6.04758 13.2714C5.82828 14.3008 5.82351 15.7575 7.0082 16.2087C8.82693 16.8199 10.7935 16.7776 12.6837 16.9982C12.1831 18.817 10.9007 20.671 8.846 20.8825C6.55053 21.0188 4.05483 21.0611 1.97389 19.9614C-0.080828 18.7371 -0.197628 16.0371 0.152771 13.9481C1.01804 9.41762 2.88684 4.52994 7.15837 2.12369Z" fill="#00A337"/>
</svg>
