<svg width="16" height="17" viewBox="0 0 16 17" fill="none" xmlns="http://www.w3.org/2000/svg">
<path d="M7.35483 14.7067C9.13145 14.7067 10.7632 14.0711 12.0373 13.0188L14.9934 15.9749C15.1087 16.0902 15.2595 16.1493 15.4103 16.1493C15.561 16.1493 15.7118 16.0902 15.8271 15.9749C16.0576 15.7443 16.0576 15.3689 15.8271 15.1383L12.8828 12.194C14.0179 10.8992 14.7067 9.20536 14.7067 7.35483C14.7067 3.29903 11.4077 0 7.35187 0C3.29607 0 0 3.29608 0 7.35188C0 11.4077 3.29903 14.7067 7.35483 14.7067ZM7.35483 1.17949C10.7573 1.17949 13.5272 3.94642 13.5272 7.35188C13.5272 10.7573 10.7573 13.5243 7.35483 13.5243C3.95233 13.5243 1.18245 10.7544 1.18245 7.35188C1.18245 3.94938 3.95233 1.17949 7.35483 1.17949Z" fill="black"/>
</svg>
