<svg width="53" height="8" viewBox="0 0 53 8" fill="none" xmlns="http://www.w3.org/2000/svg">
<path d="M42.822 3.29333L40.7971 1.13013H39.6133V6.1387H40.8493V2.94313L42.698 4.83639H42.9265L44.7433 2.94313V6.1387H45.9794V1.13013H44.7955L42.8221 3.29333H42.822Z" fill="white"/>
<path d="M51.866 1.13013L48.8024 4.38551V1.13013H47.5664V6.1387H48.6988L51.7624 2.8833V6.1387H52.9984V1.13013H51.866V1.13013Z" fill="white"/>
<path d="M32.9566 2.96282C32.9566 3.76026 33.4105 4.38843 34.1071 4.65181L32.8008 6.1387H34.3137L35.502 4.78606H36.7879V6.1387H38.0238V1.13013H34.8772C33.7039 1.13013 32.9566 1.90129 32.9566 2.96283L32.9566 2.96282ZM36.7887 2.23324V3.71429H35.1064C34.5451 3.71429 34.244 3.4137 34.244 2.97303C34.244 2.53237 34.5557 2.23177 35.1064 2.23177L36.7887 2.23324V2.23324Z" fill="white"/>
<path d="M27.2118 2.13183C27.1361 3.85437 26.758 4.96626 26.0174 4.96626H25.832V6.16861L26.0295 6.17882C27.5143 6.25834 28.3351 5.00639 28.4698 2.27192H30.4228V6.1387H31.6566V1.13013H27.2533L27.2118 2.13184L27.2118 2.13183Z" fill="white"/>
<path d="M22.558 1.06006C20.8863 1.06006 19.6836 2.17194 19.6836 3.63402C19.6836 5.14645 20.9922 6.21893 22.558 6.21893C24.1888 6.21893 25.4558 5.08662 25.4558 3.63402C25.4558 2.18142 24.1888 1.06006 22.558 1.06006V1.06006ZM22.558 5.01658C21.6132 5.01658 20.9695 4.42562 20.9695 3.63402C20.9695 2.82273 21.614 2.24782 22.558 2.24782C23.502 2.24782 24.1677 2.849 24.1677 3.63402C24.1677 4.41906 23.4929 5.01658 22.558 5.01658V5.01658Z" fill="white"/>
<path d="M18.3706 1.13989H14.0083L13.9667 2.14161C13.9047 3.58472 13.5129 4.95706 12.7723 4.97676L12.4297 4.98698V7.32163H13.6762V6.13971H18.0067V7.32163H19.264V4.97676H18.3706V1.13989V1.13989ZM17.1346 4.97676H14.497C14.9433 4.32598 15.1823 3.38409 15.2239 2.28241H17.1346V4.97676Z" fill="white"/>
<path d="M9.58919 0H8.39062V6.16545H9.58919V0V0Z" fill="white"/>
<path d="M6.7923 0.385498H5.59375V6.55095H6.7923V0.385498V0.385498Z" fill="white"/>
<path d="M3.99542 0.770752H2.79688V6.93621H3.99542V0.770752V0.770752Z" fill="white"/>
<path d="M1.19854 1.15601H0V7.32146H1.19854V1.15601V1.15601Z" fill="white"/>
</svg>
