<svg width="252" height="115" viewBox="0 0 252 115" fill="none" xmlns="http://www.w3.org/2000/svg">
<path d="M196.473 5.2276C196.193 5.13807 195.885 5.29678 195.748 5.56186C195.644 5.88852 195.756 6.18154 196.068 6.33264C198.796 7.46119 201.559 8.96117 204.516 10.9856C204.766 11.1684 205.153 11.0862 205.335 10.8361C205.518 10.5859 205.436 10.1995 205.185 10.0167C202.183 7.97737 199.341 6.40091 196.473 5.2276C196.52 5.24252 196.52 5.24252 196.473 5.2276ZM187.119 2.44512L187.073 2.4302C183.854 1.71054 180.576 1.17753 177.378 0.875956C177.083 0.833098 176.745 1.08515 176.749 1.39499C176.691 1.73658 176.974 1.98102 177.269 2.02387C180.42 2.31052 183.651 2.8286 186.823 3.53334C187.165 3.59112 187.426 3.41748 187.531 3.09082C187.605 2.85748 187.4 2.53464 187.119 2.44512ZM167.702 0.715973C167.655 0.701053 167.561 0.671217 167.5 0.702962C164.2 0.882968 160.933 1.27949 157.733 1.95409C157.408 2.00457 157.195 2.34806 157.261 2.62615C157.311 2.95091 157.608 3.14868 157.933 3.09821C161.072 2.45534 164.292 2.04391 167.531 1.89565C167.841 1.89184 168.085 1.60993 168.081 1.30009C168.124 1.00518 167.935 0.790576 167.702 0.715973ZM212.688 16.0138C212.455 15.9392 212.223 16.0195 212.07 16.1763C211.841 16.4115 211.877 16.7829 212.112 17.0125C214.573 19.1359 216.975 21.446 219.266 23.6181C219.502 23.8476 219.873 23.812 220.103 23.5768C220.333 23.3416 220.297 22.9701 220.061 22.7406C217.77 20.5686 215.322 18.2436 212.86 16.1201C212.829 16.0585 212.782 16.0436 212.688 16.0138ZM226.999 29.3799C226.812 29.3202 226.534 29.3856 226.381 29.5424C226.151 29.7777 226.187 30.1491 226.422 30.3786C229.246 32.9779 231.614 35.0715 233.838 36.8106C234.088 36.9934 234.46 36.9579 234.643 36.7077C234.826 36.4575 234.79 36.0861 234.54 35.9033C232.331 34.1176 229.995 32.0856 227.217 29.5011C227.139 29.4246 227.046 29.3948 226.999 29.3799ZM148.65 4.60678C148.51 4.56202 148.402 4.57886 148.278 4.64235C145.192 5.76488 142.218 7.18042 139.371 8.84231C139.109 9.01596 139.005 9.34262 139.164 9.65055C139.338 9.91182 139.665 10.0163 139.973 9.85755C142.743 8.27407 145.703 6.90518 148.742 5.76772C149.036 5.65566 149.201 5.29725 149.089 5.00423C148.947 4.80456 148.837 4.66646 148.65 4.60678ZM242.377 41.3384C242.143 41.2638 241.85 41.3759 241.682 41.5794C241.546 41.8444 241.628 42.2308 241.894 42.367C244.549 43.8838 247.013 45.0311 249.582 45.8517C250.049 46.0009 250.516 46.1501 250.951 46.2377C251.278 46.3421 251.601 46.1367 251.644 45.8418C251.748 45.5152 251.589 45.2072 251.247 45.1495C250.78 45.0003 250.36 44.866 249.878 44.7634C247.403 43.9726 244.97 42.887 242.408 41.4C242.47 41.3683 242.423 41.3533 242.377 41.3384ZM131.78 14.2346C131.593 14.175 131.377 14.2086 131.239 14.3188C128.676 16.38 126.302 18.6559 124.085 21.0848C123.855 21.32 123.891 21.6914 124.126 21.9209C124.362 22.1505 124.733 22.1149 124.963 21.8797C127.119 19.4825 129.478 17.2533 131.979 15.2238C132.255 15.0035 132.266 14.647 132.092 14.3858C131.952 14.341 131.874 14.2645 131.78 14.2346ZM118.724 28.6809C118.491 28.6063 118.212 28.6717 118.03 28.9218C116.235 31.6399 114.597 34.511 113.224 37.5182C113.073 37.83 113.217 38.1846 113.498 38.2741C113.825 38.3785 114.164 38.2814 114.254 38.0014C115.658 35.0557 117.234 32.2164 118.999 29.5916C119.182 29.3415 119.1 28.9551 118.849 28.7723C118.818 28.7107 118.771 28.6958 118.724 28.6809ZM153.011 59.5889C152.731 59.4994 152.376 59.6432 152.272 59.9699C152.167 60.2966 152.326 60.6045 152.653 60.7089C155.846 61.8318 158.779 63.2832 161.281 64.9568C161.532 65.1396 161.918 65.0574 162.101 64.8073C162.284 64.5571 162.201 64.1708 161.951 63.9879C159.324 62.2229 156.344 60.7565 153.011 59.5889ZM110.375 46.2765C110.048 46.1721 109.74 46.3308 109.636 46.6575C108.786 49.3175 108.046 52.1155 107.494 54.9733C107.406 55.4082 107.334 55.7964 107.246 56.2313C107.188 56.5729 107.409 56.8491 107.704 56.892C108.046 56.9498 108.322 56.7294 108.365 56.4345C108.438 56.0463 108.525 55.6113 108.598 55.2231C109.182 52.4269 109.907 49.6755 110.742 47.0622C110.861 46.6889 110.655 46.3661 110.375 46.2765ZM143.553 57.1331C143.506 57.1182 143.506 57.1182 143.46 57.1033C140.383 56.5833 137.092 56.2519 133.665 56.1856C133.355 56.1894 133.078 56.4097 133.067 56.7662C133.071 57.076 133.292 57.3522 133.649 57.3633C137.014 57.4614 140.259 57.7779 143.289 58.283C143.63 58.3407 143.907 58.1204 143.964 57.7788C143.992 57.5306 143.833 57.2226 143.553 57.1331ZM168.795 70.5973C168.608 70.5376 168.438 70.5862 168.254 70.6815C167.992 70.8551 167.92 71.2434 168.094 71.5046C170.019 74.177 171.203 77.0753 171.693 80.2146C171.744 80.5394 172.041 80.7372 172.366 80.6867C172.691 80.6362 172.889 80.3394 172.838 80.0147C172.346 76.7204 171.067 73.6373 169.031 70.8268C169.014 70.7186 168.889 70.6272 168.795 70.5973ZM124.056 56.4586C124.009 56.4437 123.915 56.4138 123.854 56.4456C120.694 56.6703 117.428 57.0669 114.102 57.65C113.777 57.7005 113.579 57.9973 113.63 58.3221C113.68 58.6469 113.977 58.8446 114.302 58.7942C117.567 58.2427 120.833 57.8462 123.946 57.6065C124.256 57.6027 124.501 57.3208 124.512 56.9643C124.431 56.7329 124.289 56.5332 124.056 56.4586ZM104.792 59.5618C104.699 59.532 104.591 59.5488 104.482 59.5656C101.36 60.3167 98.1932 61.2078 95.0431 62.2072C94.7499 62.3192 94.5522 62.6161 94.6495 62.9558C94.7618 63.2488 95.0589 63.4465 95.3987 63.3494C98.5489 62.35 101.701 61.5056 104.776 60.7395C105.101 60.6891 105.267 60.3307 105.202 60.0526C105.136 59.7745 104.979 59.6215 104.792 59.5618ZM106.728 65.4258C106.681 65.4109 106.634 65.396 106.588 65.3811C106.278 65.3849 106.001 65.6052 105.959 65.9001C105.754 69.2804 105.734 72.5654 106.007 75.7384C106.011 76.0483 106.34 76.3076 106.65 76.3038C106.96 76.3 107.219 75.9714 107.215 75.6616C106.974 72.5502 106.932 69.2969 107.169 65.9782C107.15 65.715 106.961 65.5004 106.728 65.4258ZM171.761 89.185C171.434 89.0806 171.111 89.286 171.022 89.566C170.962 89.7526 170.888 89.986 170.828 90.1726C169.978 92.8326 168.648 95.545 166.837 98.1548C166.654 98.4049 166.736 98.7913 166.987 98.9741C167.237 99.157 167.624 99.0747 167.807 98.8246C169.648 96.1214 171.054 93.3307 171.934 90.5774C172.008 90.344 172.068 90.1574 172.143 89.9241C172.247 89.5974 172.088 89.2895 171.761 89.185ZM86.1214 65.3227C86.028 65.2929 85.873 65.2948 85.7647 65.3116C82.6464 66.3726 79.4963 67.3719 76.4525 68.1995C76.1593 68.3116 75.9616 68.6084 76.059 68.9481C76.1563 69.2878 76.4683 69.4389 76.8082 69.3417C79.8668 68.4675 83.017 67.4681 86.1353 66.4072C86.4284 66.2951 86.5795 65.9833 86.5288 65.6586C86.4185 65.5205 86.3082 65.3824 86.1214 65.3227ZM67.353 70.744C67.2596 70.7141 67.1513 70.731 67.043 70.7478C63.8124 71.5157 60.5798 72.1287 57.5172 72.6932C57.1923 72.7437 56.9945 73.0405 57.0452 73.3652C57.0958 73.69 57.393 73.8878 57.7179 73.8373C60.8272 73.2878 64.0747 72.6281 67.352 71.8751C67.6769 71.8246 67.8429 71.4662 67.7773 71.1881C67.6968 70.9567 67.5398 70.8037 67.353 70.744ZM108.37 84.7735C108.277 84.7437 108.168 84.7605 108.06 84.7773C107.72 84.8745 107.569 85.1862 107.62 85.511C108.483 88.7697 109.701 91.8845 111.164 94.7175C111.323 95.0254 111.65 95.1299 111.958 94.9712C112.266 94.8124 112.37 94.4858 112.211 94.1778C110.78 91.4065 109.626 88.4147 108.748 85.2027C108.714 84.9862 108.557 84.8332 108.37 84.7735ZM161.16 105.29C160.974 105.23 160.757 105.264 160.604 105.421C158.166 107.573 155.459 109.28 152.53 110.556C152.237 110.668 152.071 111.026 152.229 111.334C152.342 111.627 152.715 111.746 153.009 111.634C156.046 110.342 158.83 108.557 161.359 106.279C161.589 106.044 161.646 105.702 161.411 105.473C161.332 105.396 161.254 105.32 161.16 105.29ZM48.0919 74.0021C47.9985 73.9723 47.9518 73.9573 47.8434 73.9742C44.4986 74.2942 41.2452 74.4891 38.1598 74.4805C37.8497 74.4843 37.5586 74.7513 37.5626 75.0612C37.5665 75.371 37.8338 75.6621 38.1438 75.6583C41.2909 75.6351 44.591 75.4551 47.9358 75.1351C48.2607 75.0846 48.5052 74.8027 48.4545 74.478C48.4824 74.2297 48.3254 74.0767 48.0919 74.0021ZM1.62005 63.8357C1.43324 63.776 1.21661 63.8097 1.06357 63.9665C0.834007 64.2017 0.823065 64.5582 1.01185 64.7728C1.12215 64.9109 3.57442 67.5458 9.34567 70.2639C9.62589 70.3534 10.0125 70.2712 10.1019 69.9912C10.253 69.6794 10.1089 69.3248 9.8287 69.2353C4.32276 66.6534 1.90223 64.0801 1.87044 64.0186C1.79194 63.942 1.71345 63.8655 1.62005 63.8357ZM117.411 101.908C117.224 101.848 117.007 101.882 116.854 102.038C116.625 102.274 116.614 102.63 116.803 102.845C119.036 105.358 121.591 107.512 124.388 109.228C124.685 109.426 125.025 109.329 125.223 109.032C125.406 108.782 125.323 108.395 125.026 108.198C122.322 106.511 119.893 104.449 117.676 102.044C117.598 101.967 117.504 101.937 117.411 101.908ZM28.5726 74.0406C28.5259 74.0257 28.4792 74.0107 28.4792 74.0107C25.1413 73.6644 21.9248 73.0997 18.9229 72.3463C18.5959 72.2419 18.273 72.4473 18.2153 72.7889C18.111 73.1155 18.3782 73.4066 18.6584 73.4962C21.7071 74.2644 24.9704 74.8441 28.3698 75.1587C28.6649 75.2015 29.0028 74.9495 28.9988 74.6396C29.0267 74.3914 28.8528 74.1301 28.5726 74.0406ZM143.505 112.867C143.458 112.852 143.365 112.822 143.303 112.854C140.143 113.078 136.93 112.824 133.788 112.025C133.461 111.921 133.138 112.126 133.081 112.468C132.976 112.795 133.197 113.071 133.524 113.175C136.759 114.003 140.112 114.303 143.38 114.061C143.69 114.057 143.935 113.776 143.946 113.419C143.895 113.094 143.738 112.941 143.505 112.867Z" fill="#3F892C"/>
</svg>
