<svg width="252" height="109" viewBox="0 0 252 109" fill="none" xmlns="http://www.w3.org/2000/svg">
<path d="M203.462 99.1682C203.201 99.3025 202.871 99.1966 202.693 98.9574C202.536 98.6524 202.599 98.3449 202.882 98.1446C205.387 96.5834 207.866 94.6499 210.45 92.1674C210.667 91.9459 211.062 91.9636 211.283 92.1803C211.505 92.397 211.487 92.7917 211.27 93.0132C208.643 95.518 206.098 97.5398 203.462 99.1682C203.506 99.1458 203.506 99.1458 203.462 99.1682ZM194.693 103.449L194.649 103.471C191.592 104.71 188.446 105.774 185.342 106.597C185.057 106.688 184.683 106.494 184.636 106.188C184.523 105.861 184.761 105.573 185.045 105.483C188.106 104.682 191.209 103.64 194.222 102.424C194.549 102.311 194.836 102.44 194.992 102.745C195.104 102.963 194.954 103.315 194.693 103.449ZM175.823 108.344C175.779 108.366 175.692 108.411 175.626 108.39C172.341 108.754 169.054 108.9 165.786 108.76C165.457 108.764 165.191 108.46 165.21 108.175C165.206 107.846 165.467 107.602 165.796 107.598C168.998 107.717 172.241 107.594 175.46 107.208C175.767 107.161 176.054 107.399 176.101 107.705C176.192 107.989 176.041 108.232 175.823 108.344ZM217.686 85.8652C217.468 85.9772 217.226 85.936 217.05 85.8064C216.785 85.6121 216.759 85.2398 216.953 84.9747C219.032 82.4759 221.022 79.8027 222.926 77.2838C223.12 77.0187 223.493 76.9928 223.758 77.1871C224.023 77.3814 224.048 77.7537 223.854 78.0188C221.95 80.5376 219.917 83.2332 217.838 85.7321C217.817 85.7981 217.773 85.8204 217.686 85.8652ZM229.607 70.3302C229.432 70.4198 229.147 70.401 228.97 70.2714C228.705 70.0771 228.68 69.7048 228.874 69.4397C231.233 66.4119 233.225 63.9578 235.133 61.8772C235.35 61.6557 235.722 61.6297 235.944 61.8464C236.165 62.0632 236.191 62.4354 235.974 62.6569C234.088 64.7811 232.118 67.1693 229.803 70.1747C229.738 70.2631 229.65 70.3078 229.607 70.3302ZM156.391 107.635C156.26 107.702 156.15 107.703 156.018 107.661C152.789 107.061 149.623 106.153 146.542 104.981C146.255 104.853 146.099 104.548 146.205 104.218C146.334 103.932 146.639 103.775 146.969 103.881C149.962 104.988 153.106 105.852 156.291 106.475C156.599 106.537 156.821 106.863 156.759 107.171C156.651 107.391 156.565 107.546 156.391 107.635ZM242.812 56.0084C242.594 56.1203 242.286 56.058 242.087 55.8848C241.909 55.6457 241.927 55.2511 242.166 55.0732C244.536 53.1409 246.779 51.6044 249.178 50.3731C249.614 50.1492 250.05 49.9253 250.465 49.7674C250.77 49.6107 251.123 49.7603 251.213 50.0442C251.37 50.3492 251.264 50.6791 250.936 50.7922C250.5 51.0161 250.107 51.2176 249.649 51.3979C247.337 52.5845 245.116 54.0549 242.833 55.9424C242.899 55.9636 242.855 55.986 242.812 56.0084ZM138.169 100.909C137.994 100.998 137.775 101.001 137.621 100.915C134.754 99.3023 132.039 97.4473 129.453 95.4156C129.188 95.2212 129.162 94.849 129.356 94.5839C129.551 94.3188 129.923 94.2928 130.188 94.4872C132.708 96.4977 135.402 98.3092 138.202 99.9003C138.511 100.072 138.58 100.422 138.452 100.708C138.321 100.776 138.256 100.864 138.169 100.909ZM122.917 88.803C122.699 88.9149 122.414 88.8962 122.193 88.6794C119.976 86.2931 117.889 83.73 116.041 80.989C115.841 80.7063 115.924 80.3328 116.186 80.1985C116.491 80.0418 116.843 80.0818 116.977 80.3433C118.846 83.0183 120.867 85.5602 123.039 87.8594C123.261 88.0761 123.243 88.4708 123.026 88.6923C123.005 88.7582 122.961 88.7806 122.917 88.803ZM151.662 52.6834C151.4 52.8177 151.027 52.7341 150.87 52.429C150.714 52.1239 150.82 51.7941 151.125 51.6373C154.09 50.0054 156.745 48.0919 158.938 46.0301C159.155 45.8086 159.55 45.8262 159.772 46.0429C159.993 46.2597 159.975 46.6543 159.758 46.8758C157.456 49.0484 154.758 50.9842 151.662 52.6834ZM111.791 72.8176C111.486 72.9743 111.156 72.8683 111 72.5632C109.725 70.0789 108.536 67.4403 107.521 64.7122C107.363 64.2975 107.228 63.9265 107.07 63.5118C106.957 63.1844 107.129 62.8757 107.414 62.7849C107.741 62.6718 108.05 62.8438 108.141 63.1277C108.276 63.4987 108.434 63.9134 108.569 64.2844C109.605 66.9466 110.771 69.5416 112.024 71.9823C112.203 72.331 112.053 72.6832 111.791 72.8176ZM142.736 56.6592C142.692 56.6816 142.692 56.6816 142.649 56.704C139.699 57.7222 136.507 58.5896 133.138 59.218C132.831 59.2651 132.522 59.0932 132.453 58.7433C132.406 58.437 132.578 58.1284 132.928 58.0588C136.232 57.4093 139.381 56.5642 142.286 55.5684C142.614 55.4553 142.923 55.6272 143.036 55.9547C143.104 56.195 142.998 56.5249 142.736 56.6592ZM165.424 39.232C165.249 39.3216 165.074 39.3016 164.876 39.238C164.589 39.1096 164.454 38.7385 164.583 38.4523C166.043 35.4999 166.735 32.4464 166.703 29.2693C166.7 28.9407 166.96 28.6967 167.289 28.6932C167.618 28.6896 167.862 28.9499 167.865 29.2786C167.921 32.6088 167.165 35.8603 165.618 38.9669C165.62 39.0765 165.511 39.1872 165.424 39.232ZM123.614 60.5269C123.57 60.5492 123.483 60.594 123.417 60.5728C120.263 60.8701 116.976 61.0154 113.6 60.9864C113.271 60.99 113.027 60.7297 113.024 60.4011C113.02 60.0724 113.281 59.8285 113.61 59.8249C116.92 59.8327 120.207 59.6874 123.318 59.4125C123.624 59.3653 123.911 59.6033 123.981 59.9531C123.939 60.1946 123.832 60.4149 123.614 60.5269ZM104.103 60.6296C104.016 60.6744 103.906 60.6756 103.796 60.6768C100.593 60.4487 97.3228 60.0898 94.0514 59.6214C93.7438 59.559 93.5 59.2987 93.5402 58.9476C93.6029 58.6402 93.8634 58.3963 94.2146 58.4363C97.4861 58.9047 100.734 59.22 103.894 59.4705C104.222 59.4669 104.445 59.7932 104.426 60.0783C104.407 60.3633 104.277 60.5401 104.103 60.6296ZM105.049 54.5273C105.005 54.5497 104.962 54.5721 104.918 54.5945C104.611 54.6417 104.303 54.4697 104.212 54.1858C103.455 50.8851 102.896 47.648 102.644 44.4732C102.597 44.167 102.879 43.8571 103.185 43.8099C103.491 43.7628 103.801 44.0443 103.848 44.3506C104.121 47.4593 104.615 50.6753 105.393 53.91C105.418 54.1727 105.267 54.4154 105.049 54.5273ZM165.297 20.4096C164.991 20.5663 164.639 20.4168 164.505 20.1553C164.415 19.9809 164.303 19.763 164.214 19.5887C162.939 17.1044 161.182 14.6473 158.966 12.3704C158.745 12.1537 158.762 11.7591 158.979 11.5376C159.196 11.3161 159.591 11.3337 159.813 11.5504C162.073 13.9144 163.919 16.4363 165.238 19.0078C165.35 19.2257 165.44 19.4 165.552 19.6179C165.708 19.923 165.602 20.2529 165.297 20.4096ZM84.7391 58.0135C84.6519 58.0583 84.4987 58.0818 84.3891 58.083C81.1389 57.5487 77.8674 57.0802 74.729 56.7638C74.4215 56.7014 74.1777 56.4411 74.2179 56.09C74.2582 55.739 74.5411 55.5387 74.8923 55.5787C78.053 55.9387 81.3245 56.4071 84.5747 56.9415C84.8823 57.0039 85.0825 57.2866 85.0858 57.6153C84.9997 57.7696 84.9136 57.9239 84.7391 58.0135ZM65.3352 55.7484C65.248 55.7932 65.1384 55.7944 65.0288 55.7956C61.716 55.5687 58.4266 55.4949 55.3129 55.4411C54.984 55.4447 54.7402 55.1844 54.7368 54.8557C54.7335 54.5271 54.9941 54.2831 55.3229 54.2796C58.4803 54.311 61.792 54.4283 65.1484 54.6328C65.4773 54.6293 65.6998 54.9556 65.6808 55.2406C65.6394 55.4821 65.5097 55.6589 65.3352 55.7484ZM103.491 35.1726C103.404 35.2174 103.294 35.2186 103.185 35.2198C102.834 35.1798 102.633 34.8971 102.63 34.5684C102.946 31.2122 103.636 27.9396 104.614 24.9049C104.72 24.575 105.025 24.4183 105.355 24.5242C105.685 24.6302 105.842 24.9353 105.735 25.2652C104.779 28.2339 104.132 31.3746 103.793 34.6873C103.795 34.9064 103.666 35.0831 103.491 35.1726ZM152.195 6.26449C152.02 6.35404 151.801 6.35643 151.624 6.22686C148.866 4.50379 145.916 3.26491 142.816 2.48783C142.509 2.42544 142.286 2.09918 142.392 1.76932C142.455 1.46184 142.804 1.28272 143.112 1.34512C146.321 2.121 149.359 3.42466 152.228 5.25609C152.493 5.45043 152.606 5.77791 152.412 6.04299C152.347 6.13135 152.282 6.2197 152.195 6.26449ZM45.8005 55.698C45.7133 55.7428 45.6697 55.7652 45.5601 55.7664C42.2081 56.0001 38.9669 56.3422 35.9247 56.8574C35.6183 56.9045 35.2873 56.689 35.2403 56.3827C35.1933 56.0764 35.4091 55.7454 35.7156 55.6982C38.8237 55.2042 42.1085 54.8397 45.4605 54.606C45.7893 54.6025 46.0767 54.8404 46.0801 55.1691C46.1483 55.4094 46.0186 55.5861 45.8005 55.698ZM1.62954 73.359C1.45507 73.4485 1.23586 73.4509 1.05914 73.3214C0.79406 73.127 0.724713 72.7772 0.875693 72.5345C0.961806 72.3801 2.94802 69.3783 8.19448 65.7493C8.45619 65.6149 8.85103 65.6325 8.98525 65.894C9.18546 66.1767 9.10159 66.5502 8.83988 66.6845C3.83276 70.1356 1.86775 73.0715 1.8465 73.1375C1.78164 73.2259 1.71678 73.3142 1.62954 73.359ZM109.595 16.7864C109.42 16.876 109.201 16.8784 109.024 16.7488C108.759 16.5545 108.69 16.2046 108.841 15.9619C110.631 13.1156 112.798 10.5719 115.275 8.41934C115.536 8.17546 115.887 8.21547 116.131 8.47577C116.352 8.6925 116.334 9.08714 116.074 9.33103C113.684 11.4388 111.626 13.8717 109.834 16.6085C109.769 16.6969 109.682 16.7417 109.595 16.7864ZM26.54 58.8659C26.4964 58.8883 26.4528 58.9107 26.4528 58.9107C23.2171 59.8006 20.137 60.886 17.2996 62.1221C16.9942 62.2788 16.6419 62.1292 16.529 61.8018C16.3724 61.4967 16.5882 61.1656 16.8499 61.0313C19.731 59.7728 22.8547 58.665 26.1563 57.7964C26.4404 57.7056 26.8151 57.8988 26.8621 58.205C26.9303 58.4454 26.8017 58.7316 26.54 58.8659ZM133.534 1.6904C133.491 1.71279 133.404 1.75755 133.338 1.73635C130.184 2.03363 127.057 2.81273 124.088 4.11602C123.783 4.27274 123.431 4.1232 123.318 3.79573C123.161 3.49064 123.333 3.18197 123.639 3.02525C126.694 1.67718 129.952 0.830932 133.216 0.532453C133.522 0.48529 133.81 0.723193 133.879 1.07305C133.882 1.40173 133.753 1.57846 133.534 1.6904Z" fill="#3F892C"/>
</svg>
