<svg width="60" height="8" viewBox="0 0 60 8" fill="none" xmlns="http://www.w3.org/2000/svg">
<path fill-rule="evenodd" clip-rule="evenodd" d="M37.308 8C40.3849 8 42.243 6.2531 42.243 3.99801C42.243 1.7469 40.4286 0 37.3199 0C34.2112 0 32.3532 1.74293 32.3532 3.99801C32.3532 6.2531 34.2311 8 37.308 8ZM37.308 1.85807C38.8326 1.85807 39.8291 2.75931 39.8291 3.99801C39.8291 5.23672 38.8723 6.16179 37.3199 6.16179C35.7676 6.16179 34.7829 5.23672 34.7829 3.99801C34.7829 2.75931 35.7834 1.85807 37.308 1.85807Z" fill="black"/>
<path d="M3.28337 2.21936H0V0.206462H8.93697V2.21936H5.66551V7.74989H3.28337V2.21936Z" fill="black"/>
<path d="M9.77786 7.74989V0.206462H12.16V7.74989H9.77786Z" fill="black"/>
<path d="M19.9066 0.206462V4.3474L15.9205 0.206462H13.7924V7.74989H15.984V3.58512L20.0654 7.74989H22.0981V0.206462H19.9066Z" fill="black"/>
<path d="M26.0638 7.74989H23.7611V0.206462H26.0638V3.04517H26.699L29.4782 0.206462H32.3685L28.6841 3.82334L32.5114 7.74989H29.4464L26.699 4.89132H26.0638V7.74989Z" fill="black"/>
<path d="M45.6569 2.12408V3.48984H50.7388V5.07793H45.6569V7.74989H43.3542V0.206462H50.9294V2.12408H45.6569Z" fill="black"/>
<path d="M54.3166 3.48984V2.12408H59.5811V0.206462H52.0099V7.74989H54.3166V5.07793H59.3985V3.48984H54.3166Z" fill="black"/>
</svg>
