<svg width="77" height="51" viewBox="0 0 77 51" fill="none" xmlns="http://www.w3.org/2000/svg">
<path d="M12.1427 19.0802C12.1427 19.9126 12.8287 20.5901 13.672 20.5901H15.0784C17.3369 20.5901 19.1743 22.4042 19.1743 24.6341C19.1743 26.864 17.3369 28.6782 15.0784 28.6782H10.8594C10.1507 28.6782 9.57607 28.1108 9.57607 27.4111C9.57607 26.7113 10.1507 26.144 10.8594 26.144H15.0784C15.9215 26.144 16.6076 25.4667 16.6076 24.6341C16.6076 23.8016 15.9217 23.1242 15.0784 23.1242H13.672C11.4135 23.1242 9.57607 21.3101 9.57607 19.0802C9.57607 16.8503 11.4135 15.0361 13.672 15.0361H17.8908C18.5995 15.0361 19.1741 15.6035 19.1741 16.3032C19.1741 17.003 18.5995 17.5703 17.8908 17.5703H13.672C12.8287 17.5703 12.1427 18.2475 12.1427 19.0802ZM27.5535 15.9253L31.0692 27.0332C31.2806 27.7011 30.9036 28.4118 30.227 28.6205C29.5507 28.8291 28.8307 28.4569 28.6193 27.789L28.2415 26.5954H24.4154L24.0376 27.789C23.8661 28.3311 23.3596 28.6785 22.8132 28.6785C21.9477 28.6785 21.3298 27.8485 21.5879 27.0332C21.9224 25.9764 24.7391 17.0772 25.1038 15.9253C25.4777 14.7431 27.1796 14.7439 27.5535 15.9253ZM27.4394 24.0612L26.3285 20.5513L25.2175 24.0612H27.4394ZM34.7663 15.0361C34.0576 15.0361 33.483 15.6035 33.483 16.3032V27.4111C33.483 28.1108 34.0576 28.6782 34.7663 28.6782H40.3915C41.1002 28.6782 41.6748 28.1108 41.6748 27.4111C41.6748 26.7113 41.1002 26.144 40.3915 26.144H36.0496V16.3032C36.0496 15.6035 35.475 15.0361 34.7663 15.0361ZM52.3448 17.5703C53.0535 17.5703 53.6281 17.003 53.6281 16.3032C53.6281 15.6035 53.0535 15.0361 52.3448 15.0361H45.3134C44.6047 15.0361 44.03 15.6035 44.03 16.3032V27.4111C44.03 28.1108 44.6047 28.6782 45.3134 28.6782H52.3448C53.0535 28.6782 53.6281 28.1108 53.6281 27.4111C53.6281 26.7113 53.0535 26.144 52.3448 26.144H46.5967V23.1242H49.5322C50.2409 23.1242 50.8155 22.5569 50.8155 21.8571C50.8155 21.1574 50.2409 20.5901 49.5322 20.5901H46.5967V17.5703H52.3448ZM55.1833 1.26708C55.1833 0.567335 54.6087 0 53.9 0H6.41667C2.87852 0 0 2.84206 0 6.3354V37.3789C0 40.8722 2.87852 43.7143 6.41667 43.7143H49.7292C50.4379 43.7143 51.0125 43.1469 51.0125 42.4472C51.0125 41.7475 50.4379 41.1801 49.7292 41.1801H6.41667C4.29371 41.1801 2.56667 39.475 2.56667 37.3789V6.3354C2.56667 4.23934 4.29371 2.53416 6.41667 2.53416H53.9C54.6087 2.53416 55.1833 1.96683 55.1833 1.26708ZM70.5833 0H63.2576C62.5489 0 61.9743 0.567335 61.9743 1.26708V5.59765C61.9743 6.29739 62.5489 6.86473 63.2576 6.86473C63.9663 6.86473 64.5409 6.29739 64.5409 5.59765V2.53416H70.5833C72.7061 2.53416 74.4333 4.23934 74.4333 6.3354V37.3789C74.4333 38.1051 74.2258 38.8105 73.8327 39.4187C73.2864 40.2645 73.9086 41.3672 74.9136 41.3672C75.3373 41.3672 75.7521 41.16 75.9967 40.7812C76.653 39.7651 77 38.5886 77 37.3789V6.3354C77 2.84206 74.1215 0 70.5833 0ZM63.2576 19.6759C63.9663 19.6759 64.5409 19.1085 64.5409 18.4088V12.4944C64.5409 11.7946 63.9663 11.2273 63.2576 11.2273C62.5489 11.2273 61.9743 11.7946 61.9743 12.4944V18.4088C61.9743 19.1085 62.5489 19.6759 63.2576 19.6759ZM63.2576 32.487C63.9663 32.487 64.5409 31.9197 64.5409 31.2199V25.3055C64.5409 24.6058 63.9663 24.0384 63.2576 24.0384C62.5489 24.0384 61.9743 24.6058 61.9743 25.3055V31.2199C61.9743 31.9197 62.5489 32.487 63.2576 32.487ZM72.3479 46.882C72.3479 49.1526 70.4768 51 68.1771 51C66.3976 51 64.8755 49.8935 64.2777 48.3412L63.525 46.8159L62.7723 48.3412C62.1745 49.8935 60.6524 51 58.8729 51C56.5732 51 54.7021 49.1526 54.7021 46.882C54.7021 43.1119 59.4422 41.3254 61.9871 44.1465L62.0975 43.9227L58.3609 36.35C58.0505 35.7209 58.3153 34.9624 58.9525 34.6559C59.59 34.3493 60.3579 34.6109 60.6683 35.2401L63.525 41.0297L66.3817 35.2401C66.6921 34.6109 67.4602 34.3493 68.0975 34.6559C68.7347 34.9624 68.9995 35.7209 68.6891 36.35L64.9525 43.9227L65.0629 44.1465C67.6115 41.3214 72.3479 43.1192 72.3479 46.882ZM60.4771 46.882C60.4771 46.0087 59.7575 45.2981 58.8729 45.2981C57.9884 45.2981 57.2687 46.0087 57.2687 46.882C57.2687 47.7553 57.9884 48.4658 58.8729 48.4658C59.7575 48.4658 60.4771 47.7553 60.4771 46.882ZM69.7812 46.882C69.7812 46.0087 69.0616 45.2981 68.1771 45.2981C67.2925 45.2981 66.5729 46.0087 66.5729 46.882C66.5729 47.7553 67.2925 48.4658 68.1771 48.4658C69.0616 48.4658 69.7812 47.7553 69.7812 46.882Z" fill="#3F892C"/>
</svg>
