<svg width="70" height="54" viewBox="0 0 70 54" fill="none" xmlns="http://www.w3.org/2000/svg">
<path d="M40.9494 5.68609L36.5507 10.0291C35.9899 10.5822 35.0809 10.5822 34.5201 10.0285C33.9599 9.47543 33.9599 8.57792 34.5201 8.02425L38.9194 3.68124C43.8901 -1.22708 51.9501 -1.22708 56.9214 3.68124C61.8926 8.589 61.8926 16.5469 56.9214 21.4553L44.0634 34.1504C39.0921 39.0588 31.0321 39.0588 26.0608 34.1504C21.0896 29.2421 21.0896 21.2842 26.0608 16.3764L28.4296 14.0377C28.9903 13.484 29.8993 13.484 30.4601 14.0377C31.0209 14.5914 31.0209 15.4889 30.4601 16.0426L28.0914 18.3813C25.5904 20.8379 24.6101 24.4268 25.5203 27.7915C26.4304 31.1567 29.0929 33.785 32.5008 34.6836C35.9092 35.5822 39.5441 34.6144 42.0323 32.1456L54.8902 19.4499C58.74 15.6494 58.74 9.4865 54.8902 5.68609C51.0405 1.88512 44.7991 1.88512 40.9494 5.68609Z" fill="#3F892C"/>
<path d="M21.7305 42.1682C19.3484 44.5324 16.1071 45.8579 12.7296 45.849C7.58109 45.849 2.94012 42.7872 0.969558 38.0909C-1.001 33.3947 0.088021 27.9892 3.72857 24.3947L16.5866 11.699C21.5578 6.79067 29.6178 6.79067 34.5885 11.699C39.5598 16.6073 39.5592 24.5647 34.5885 29.473L32.2198 31.8117C31.6591 32.3654 30.75 32.3654 30.1893 31.8117C29.6285 31.2581 29.6285 30.3605 30.1893 29.8069L32.558 27.4682C35.0585 25.0115 36.0393 21.4226 35.1286 18.0574C34.2184 14.6921 31.5564 12.0639 28.148 11.1652C24.7402 10.2666 21.1053 11.235 18.6171 13.7038L5.75913 26.399C1.90942 30.2 1.90942 36.3624 5.75913 40.1633C9.60885 43.9643 15.8503 43.9643 19.7 40.1633L24.0993 35.8203C24.6595 35.2667 25.5685 35.2667 26.1293 35.8203C26.69 36.374 26.69 37.2715 26.1293 37.8246L21.7305 42.1682Z" fill="#3F892C"/>
<path fill-rule="evenodd" clip-rule="evenodd" d="M55.5957 33.1132H67.7256C68.9801 33.1132 70 34.1412 70 35.4057V47.6321C70 48.8966 68.9801 49.9245 67.7256 49.9245H65.9567V51.7075C65.9567 52.972 64.9368 54 63.6823 54H51.5523C50.2978 54 49.278 52.972 49.278 51.7075V39.4811C49.278 38.2166 50.2978 37.1887 51.5523 37.1887H53.3213V35.4057C53.3213 34.1412 54.3412 33.1132 55.5957 33.1132ZM51.8051 51.4528H63.4296V49.9245H55.5957C54.3412 49.9245 53.3213 48.8966 53.3213 47.6321V39.7358H51.8051V51.4528ZM67.4729 35.6604H55.8484V47.3774H67.4699L67.4729 35.6604Z" fill="#3F892C"/>
</svg>
