<svg width="62" height="47" viewBox="0 0 62 47" fill="none" xmlns="http://www.w3.org/2000/svg">
<path d="M34.9725 17.5764C34.2696 17.2757 33.4554 17.6008 33.1542 18.3024L24.8454 37.6554C24.5441 38.3571 24.8698 39.1698 25.5727 39.4705C26.2759 39.7713 27.0899 39.446 27.3911 38.7445L35.6998 19.3916C36.0011 18.6898 35.6754 17.8771 34.9725 17.5764Z" fill="#3F892C"/>
<path d="M22.8946 22.1305C22.4168 21.5343 21.5452 21.4377 20.9483 21.9146L14.0243 27.444C13.332 27.9967 13.3316 29.0498 14.0243 29.6029L20.9483 35.1323C21.5455 35.6093 22.4171 35.5126 22.8946 34.9165C23.3724 34.3203 23.2756 33.4504 22.6783 32.9735L17.1061 28.5235L22.6783 24.0735C23.2756 23.5966 23.3724 22.7267 22.8946 22.1305Z" fill="#3F892C"/>
<path d="M46.5204 27.444L39.5965 21.9146C38.9993 21.4376 38.1278 21.5343 37.6501 22.1305C37.1724 22.7266 37.2691 23.5966 37.8664 24.0734L43.4386 28.5235L37.8664 32.9735C37.2691 33.4504 37.1724 34.3202 37.6501 34.9164C38.1285 35.5132 39.0001 35.6087 39.5965 35.1322L46.5204 29.6028C47.2127 29.0502 47.2132 27.9972 46.5204 27.444Z" fill="#3F892C"/>
<path d="M8.5509 8.69267C9.31569 8.69267 9.93568 8.07377 9.93568 7.31031C9.93568 6.54686 9.31569 5.92796 8.5509 5.92796C7.7861 5.92796 7.16611 6.54686 7.16611 7.31031C7.16611 8.07377 7.7861 8.69267 8.5509 8.69267Z" fill="#3F892C"/>
<path d="M14.09 8.69267C14.8548 8.69267 15.4748 8.07377 15.4748 7.31031C15.4748 6.54686 14.8548 5.92796 14.09 5.92796C13.3252 5.92796 12.7053 6.54686 12.7053 7.31031C12.7053 8.07377 13.3252 8.69267 14.09 8.69267Z" fill="#3F892C"/>
<path d="M19.6292 8.69267C20.394 8.69267 21.014 8.07377 21.014 7.31031C21.014 6.54686 20.394 5.92796 19.6292 5.92796C18.8644 5.92796 18.2444 6.54686 18.2444 7.31031C18.2444 8.07377 18.8644 8.69267 19.6292 8.69267Z" fill="#3F892C"/>
<path d="M45.2759 8.69267H53.5846C54.3494 8.69267 54.9694 8.07374 54.9694 7.31031C54.9694 6.54689 54.3494 5.92796 53.5846 5.92796H45.2759C44.5111 5.92796 43.8911 6.54689 43.8911 7.31031C43.8911 8.07374 44.5111 8.69267 45.2759 8.69267Z" fill="#3F892C"/>
<path d="M37.7525 0H22.7129V2.76471H37.7525V0Z" fill="#3F892C"/>
<path d="M37.7525 11.0588H22.7129V13.8235H37.7525V11.0588Z" fill="#3F892C"/>
<path d="M37.7525 44.2353V47H22.7129V44.2353H37.7525Z" fill="#3F892C"/>
<path d="M25.1683 0H4.15436C1.86364 0 0 1.86037 0 4.14706V42.8529C0 45.1396 1.86364 47 4.15436 47H25.1683V44.2353H4.15436C3.39078 44.2353 2.76957 43.6152 2.76957 42.8529V13.8235H25.1683V11.0588H2.76957V4.14706C2.76957 3.38483 3.39078 2.76471 4.15436 2.76471H25.1683V0Z" fill="#3F892C"/>
<path d="M36.8317 0H57.8456C60.1364 0 62 1.86037 62 4.14706V42.8529C62 45.1396 60.1364 47 57.8456 47H36.8317V44.2353H57.8456C58.6092 44.2353 59.2304 43.6152 59.2304 42.8529V13.8235H36.8317V11.0588H59.2304V4.14706C59.2304 3.38483 58.6092 2.76471 57.8456 2.76471H36.8317V0Z" fill="#3F892C"/>
</svg>
