<svg width="24" height="24" viewBox="0 0 24 24" fill="none" xmlns="http://www.w3.org/2000/svg">
<path d="M12.0002 24C18.6435 24 24 18.6434 24 12C24 5.35661 18.6435 0 12.0002 0C5.35699 0 0.000488599 5.35661 0.000488599 12C-0.0593606 18.6434 5.38691 24 12.0002 24Z" fill="#FED42B"/>
<path d="M2.33875 19.1556L6.64886 13.2364L5.84113 19.1301L10.2386 20.712L15.5933 11.8405C15.3539 13.4846 14.9651 17.2999 18.4651 18.4787C19.8871 18.9274 21.2633 18.5749 22.5605 17.7154C23.4785 16.0176 23.9993 14.0714 23.9993 12.0001C23.9993 11.3709 23.9512 10.7534 23.8586 10.1508C22.2714 12.5407 20.7822 14.167 19.9608 13.9499C18.4614 13.5535 19.7648 8.66249 20.6337 5.40255L20.6788 5.23345V5.14039L15.8027 3.40332L9.96936 13.2674L10.777 7.87008L6.55908 6.35015L0.314453 14.8248C0.690735 16.4166 1.3902 17.8834 2.33875 19.1556Z" fill="black"/>
</svg>
