<svg width="131" height="85" viewBox="0 0 131 85" fill="none" xmlns="http://www.w3.org/2000/svg">
<path fill-rule="evenodd" clip-rule="evenodd" d="M17.7842 83.8279V83.4535H17.1774V77.3452H17.7842V76.973H14.9753V77.3642H15.5915V80.0719H12.9817V77.3452H13.598V76.973H10.7891V77.3452H11.3959V83.4535H10.7891V83.8279H13.5799V83.4535H12.9817V80.4543H15.5915V83.4535H14.9753V83.8279H17.7842ZM25.9004 80.4543C25.9815 78.3403 24.7403 76.7989 22.5563 76.7989C21.0066 76.7989 19.2216 77.6366 19.1217 80.4187C19.0674 81.7678 19.9921 83.9998 22.5563 83.9998C25.148 83.9998 25.846 81.7037 25.9004 80.4543ZM24.2327 80.4726C24.2327 82.3877 23.7707 83.6538 22.557 83.6538C21.2702 83.6538 20.8263 82.0133 20.8263 80.4726C20.8263 78.8779 21.1616 76.9912 22.557 76.9912C23.9068 76.9912 24.2327 78.9588 24.2327 80.4726ZM33.2409 79.5795V76.973H27.2154V79.5795H27.3964C27.3964 77.5376 28.7281 77.346 29.1908 77.346H29.3451V83.4542H28.7288V83.8286H31.5378V83.4542H30.9302V77.346H31.112C31.4921 77.346 33.0599 77.5383 33.0599 79.5795H33.2409ZM40.7481 83.8279V81.4123H40.5301C40.5301 82.7527 39.4519 83.4542 38.7002 83.4542H36.7429V80.4835H37.5495C38.2476 80.5192 38.7002 80.7924 38.7002 81.9586H38.9088V78.7687H38.7002C38.7002 79.4432 38.2288 80.163 37.5495 80.163H36.7429V77.346H38.2476C39.8422 77.346 40.1506 77.7473 40.4222 79.4614H40.5938V76.973H34.5502V77.346H35.157V83.4542H34.5502V83.8286H40.7481V83.8279ZM47.5224 83.8279V81.102H47.3232C47.1328 82.1502 46.7881 83.4542 45.0219 83.4542H44.2514V77.346H44.8677V76.973H42.0587V77.346H42.6656V83.4542H42.0587V83.8286H47.5224V83.8279ZM54.671 81.6308C54.671 80.2635 53.7108 79.3412 52.2155 79.2873C50.8013 79.2334 49.7237 79.2334 49.7237 78.2201C49.7237 77.2826 50.6658 77.1092 51.3994 77.1092C53.3205 77.1092 53.8825 78.8947 53.9643 79.2152H54.2264V76.973H53.9643C53.9549 77.1821 53.9643 77.4742 53.7101 77.4742C53.3748 77.4742 52.7405 76.7996 51.3089 76.7996C49.9135 76.7996 48.9076 77.7474 48.9076 79.052C48.9076 80.2089 49.8592 81.2032 51.2452 81.2207C52.5689 81.2389 53.7644 81.3118 53.7644 82.3892C53.7644 83.3639 52.7224 83.6188 51.7709 83.637C50.1213 83.6553 49.3877 82.5429 49.08 81.3591H48.8265V83.8293H49.08C49.08 83.8293 49.1343 83.3282 49.4334 83.3282C49.9859 83.3282 50.2212 84.0013 51.8071 84.0013C53.684 83.9998 54.671 82.8976 54.671 81.6308ZM65.0407 81.9768H64.7959C64.7959 82.3054 64.7778 82.8707 64.3426 82.8707C63.8987 82.8707 63.4367 82.1874 63.4367 82.1874C63.5548 81.9768 63.8987 81.311 63.8987 80.0719C63.8987 79.8716 63.8625 79.6807 63.8263 79.4884L63.4548 79.5612C63.4997 80.5374 63.554 81.311 63.1644 81.9586L60.9804 79.7346C61.307 79.5255 62.1767 79.0958 62.1767 78.1939C62.1767 77.5747 61.8147 76.7996 60.6633 76.7996C59.6031 76.7996 58.6516 77.5565 58.6516 78.5866C58.6516 79.2509 58.9239 79.5795 59.4308 80.2271C59.0593 80.4004 57.8 81.0211 57.8 82.2515C57.8 82.9712 58.3258 83.9998 60.0651 83.9998C61.8045 83.9998 62.3491 83.4535 62.4483 83.3806C62.6018 83.5176 62.8741 83.79 63.5171 83.79C64.8314 83.79 64.9849 82.8882 65.0219 82.5778C65.0588 82.3323 65.0407 81.9768 65.0407 81.9768ZM61.4975 78.1939C61.4975 78.6674 61.3432 79.052 60.7277 79.4804C60.7277 79.4804 59.7943 78.6507 59.7943 77.9309C59.7943 77.5026 60.1289 77.0458 60.664 77.0458C61.1897 77.0451 61.4975 77.6286 61.4975 78.1939ZM62.2137 83.1431C61.9414 83.3996 61.1535 83.5715 60.8993 83.5715C59.9753 83.5715 59.2773 82.7337 59.2773 81.7401C59.2773 81.3744 59.4308 80.7639 59.7581 80.5731L62.2137 83.1431ZM75.3061 82.1961H75.0801C75.0801 82.6427 74.944 83.3442 74.6007 83.3442C74.1735 83.3442 74.264 82.9159 74.1923 81.9586C74.1119 80.6736 73.2589 80.4733 72.8331 80.4004C73.1228 80.3181 74.3835 80.1812 74.3835 78.7417C74.3835 77.7656 73.9751 76.973 72.2538 76.973H68.1849V77.346H68.7932V83.4542H68.1849V83.8286H70.9953V83.4542H70.3783V80.5556H71.4392C72.4899 80.5556 72.4899 81.0211 72.4899 82.3054C72.4899 83.6545 73.2242 83.9998 73.9215 83.9998C74.999 83.9998 75.3061 83.2983 75.3061 82.1961ZM72.7969 78.8408C72.7969 79.6618 72.4247 80.1812 71.4377 80.1812H70.3769V77.3452H71.5369C72.4616 77.3452 72.7969 78.0198 72.7969 78.8408ZM82.8175 83.8279V81.4123H82.601C82.601 82.7527 81.522 83.4542 80.7697 83.4542H78.8123V80.4835H79.6197C80.3171 80.5192 80.7697 80.7924 80.7697 81.9586H80.9789V78.7687H80.7697C80.7697 79.4432 80.299 80.163 79.6197 80.163H78.8123V77.346H80.3171C81.9124 77.346 82.2208 77.7473 82.4924 79.4614H82.6633V76.973H76.6196V77.346H77.2265V83.4542H76.6196V83.8286H82.8175V83.8279ZM89.9727 81.6308C89.9727 80.2635 89.0125 79.3412 87.5172 79.2873C86.1029 79.2334 85.0254 79.2334 85.0254 78.2201C85.0254 77.2826 85.9675 77.1092 86.7011 77.1092C88.6215 77.1092 89.1849 78.8947 89.2652 79.2152H89.5281V76.973H89.2652C89.2565 77.1821 89.2652 77.4742 89.0118 77.4742C88.6765 77.4742 88.0415 76.7996 86.6105 76.7996C85.2144 76.7996 84.2093 77.7474 84.2093 79.052C84.2093 80.2089 85.1608 81.2032 86.5476 81.2207C87.8698 81.2389 89.0668 81.3118 89.0668 82.3892C89.0668 83.3639 88.0248 83.6188 87.074 83.637C85.4251 83.6553 84.6909 82.5429 84.3824 81.3591H84.1289V83.8293H84.3824C84.3824 83.8293 84.436 83.3282 84.7358 83.3282C85.289 83.3282 85.5236 84.0013 87.1088 84.0013C88.9857 83.9998 89.9727 82.8976 89.9727 81.6308ZM98.0526 80.4543C98.1345 78.3403 96.8926 76.7989 94.7093 76.7989C93.1589 76.7989 91.3746 77.6366 91.2754 80.4187C91.2204 81.7678 92.1437 83.9998 94.7093 83.9998C97.3003 83.9998 97.9976 81.7037 98.0526 80.4543ZM96.3849 80.4726C96.3849 82.3877 95.9222 83.6538 94.7093 83.6538C93.4225 83.6538 92.9779 82.0133 92.9779 80.4726C92.9779 78.8779 93.3132 76.9912 94.7093 76.9912C96.0584 76.9912 96.3849 78.9588 96.3849 80.4726ZM106.49 82.1961H106.264C106.264 82.6427 106.127 83.3442 105.783 83.3442C105.357 83.3442 105.448 82.9159 105.376 81.9586C105.294 80.6736 104.442 80.4733 104.017 80.4004C104.306 80.3181 105.566 80.1812 105.566 78.7417C105.566 77.7656 105.159 76.973 103.437 76.973H99.3684V77.346H99.9767V83.4542H99.3684V83.8286H102.177V83.4542H101.562V80.5556H102.621C103.672 80.5556 103.672 81.0211 103.672 82.3054C103.672 83.6545 104.406 83.9998 105.105 83.9998C106.181 83.9998 106.49 83.2983 106.49 82.1961ZM103.979 78.8408C103.979 79.6618 103.607 80.1812 102.62 80.1812H101.56V77.3452H102.72C103.644 77.3452 103.979 78.0198 103.979 78.8408ZM113.829 79.5795V76.973H107.803V79.5795H107.984C107.984 77.5376 109.317 77.346 109.778 77.346H109.932V83.4542H109.317V83.8286H112.126V83.4542H111.519V77.346H111.7C112.08 77.346 113.647 77.5383 113.647 79.5795H113.829ZM120.983 81.6308C120.983 80.2635 120.023 79.3412 118.526 79.2873C117.113 79.2334 116.036 79.2334 116.036 78.2201C116.036 77.2826 116.978 77.1092 117.712 77.1092C119.632 77.1092 120.194 78.8947 120.276 79.2152H120.539V76.973H120.276C120.267 77.1821 120.276 77.4742 120.022 77.4742C119.687 77.4742 119.052 76.7996 117.621 76.7996C116.225 76.7996 115.22 77.7474 115.22 79.052C115.22 80.2089 116.171 81.2032 117.558 81.2207C118.88 81.2389 120.077 81.3118 120.077 82.3892C120.077 83.3639 119.035 83.6188 118.084 83.637C116.434 83.6553 115.7 82.5429 115.393 81.3591H115.138V83.8293H115.393C115.393 83.8293 115.446 83.3282 115.746 83.3282C116.298 83.3282 116.534 84.0013 118.119 84.0013C119.996 83.9998 120.983 82.8976 120.983 81.6308ZM61.1325 42.7509C59.8182 42.7509 58.7523 43.2878 58.0412 43.4663C57.6501 43.5734 56.514 43.8946 55.59 43.4663C55.4118 43.3949 54.8441 43.3592 55.519 44.1095C55.6971 44.3237 56.052 44.5379 56.4785 44.7528C58.7523 45.8608 60.777 45.396 63.2282 44.2887C63.8321 44.0024 64.8271 44.0389 64.8271 43.7169C64.7916 43.3956 64.2941 43.1807 63.9385 42.6803C62.5888 40.7505 60.9196 39.1421 58.8935 38.391C57.8276 37.9627 57.3301 38.2839 57.6501 38.5702C58.4322 39.3205 58.8225 40.7148 59.853 41.8935C60.1738 42.2512 60.6358 42.6081 61.1325 42.7509ZM64.6142 41.715C64.6142 40.9647 65.7511 39.821 65.9647 39.1421C66.2138 39.8217 67.3137 40.9647 67.3137 41.715C67.3137 42.4654 66.7113 43.0729 65.9647 43.0729C65.7874 43.073 65.6118 43.0379 65.4479 42.9697C65.2841 42.9016 65.1352 42.8015 65.0098 42.6754C64.8843 42.5493 64.7849 42.3996 64.717 42.2348C64.6491 42.07 64.6142 41.8934 64.6142 41.715ZM64.6142 45.4317C64.6142 46.182 65.7511 47.3614 65.9647 48.0403C66.2138 47.3614 67.3137 46.182 67.3137 45.4317C67.3023 45.0793 67.155 44.7451 66.9031 44.4999C66.6513 44.2547 66.3145 44.1176 65.964 44.1176C65.6134 44.1176 65.2766 44.2547 65.0248 44.4999C64.7729 44.7451 64.6256 45.0793 64.6142 45.4317Z" fill="white"/>
<path fill-rule="evenodd" clip-rule="evenodd" d="M53.9745 40.0161C52.8257 39.6177 51.7438 39.7171 51.0332 39.6508C50.6611 39.5845 49.6136 39.5514 48.9369 38.9202C48.8018 38.7876 48.3284 38.5549 48.666 39.4512C48.7343 39.6501 48.9699 39.9167 49.2745 40.2482C50.9313 41.9076 52.8243 42.1397 55.2591 41.9408C55.9014 41.9076 56.9495 42.1397 57.0171 41.8414C57.0853 41.5762 56.5774 41.3103 56.4086 40.8124C55.8338 38.7544 54.9207 36.8629 53.3998 35.6012C52.6224 34.9376 52.0477 35.0702 52.2503 35.4023C52.6906 36.2656 52.5886 37.5597 53.1296 38.887C53.2985 39.2862 53.6031 39.7171 53.9745 40.0161Z" fill="white"/>
<path fill-rule="evenodd" clip-rule="evenodd" d="M48.5873 35.0527C47.6878 34.4145 46.6553 34.2326 46.0559 34.0203C45.69 33.8686 44.7905 33.5647 44.3581 32.8666C44.2583 32.7143 43.8917 32.411 43.925 33.2305C43.9582 33.4125 44.092 33.7164 44.2916 34.1113C45.2908 35.8728 46.956 36.5709 49.2213 36.9962C49.7875 37.1478 50.6869 37.573 50.82 37.3601C50.9863 37.1781 50.5532 36.8136 50.5865 36.3277C50.6197 34.4752 50.3197 32.653 49.2872 31.2257C48.8208 30.4366 48.2546 30.4062 48.3544 30.7702C48.4882 31.5903 48.0551 32.653 48.1548 33.8977C48.1874 34.2938 48.3544 34.7184 48.5873 35.0527Z" fill="white"/>
<path fill-rule="evenodd" clip-rule="evenodd" d="M45.5131 29.4873C44.8392 28.4877 43.9165 27.9325 43.4205 27.4882C43.1009 27.2295 42.3207 26.5634 42.179 25.6378C42.1074 25.4529 41.8601 25.0094 41.6113 25.9342C41.6113 26.156 41.6113 26.5264 41.6822 27.0069C42.0365 29.3386 43.4205 30.6346 45.4422 31.8552C45.9752 32.2248 46.6845 32.9656 46.8971 32.8178C47.1097 32.6322 46.8262 32.1139 47.0034 31.5957C47.7127 29.5235 48.0324 27.3766 47.5356 25.4522C47.3223 24.4157 46.7908 24.2301 46.7908 24.6375C46.6129 25.6 45.8327 26.6365 45.5131 28.0796C45.4075 28.4877 45.4075 29.0429 45.5131 29.4873Z" fill="white"/>
<path fill-rule="evenodd" clip-rule="evenodd" d="M44.4889 22.5003C44.2213 21.4113 43.4942 20.5855 43.1884 19.9848C43.0355 19.6465 42.4995 18.7833 42.6906 17.8818C42.6906 17.7318 42.6142 17.206 42.0782 17.9575C41.9635 18.145 41.8488 18.5208 41.7334 18.9333C41.2746 21.1105 42.1547 22.7628 43.6089 24.6025C43.992 25.0908 44.3742 26.0665 44.6044 25.954C44.872 25.879 44.8338 25.3158 45.1786 24.94C46.5181 23.326 47.5901 21.5238 47.743 19.6465C47.8959 18.67 47.4746 18.2575 47.3599 18.6325C46.8622 19.4583 45.7138 20.0965 44.9867 21.2613C44.7191 21.5613 44.4889 22.087 44.4889 22.5003Z" fill="white"/>
<path fill-rule="evenodd" clip-rule="evenodd" d="M45.3805 16.1262C45.3805 15.115 44.9555 14.2438 44.801 13.6852C44.7238 13.337 44.4912 12.5006 44.8783 11.8028C44.9169 11.6287 44.9555 11.1753 44.2594 11.6983C44.1435 11.8376 43.9496 12.1169 43.7178 12.4651C42.7505 14.209 43.1376 15.8469 44.0269 17.7301C44.2594 18.2183 44.3753 19.1243 44.6071 19.0895C44.8775 19.0895 44.9942 18.6013 45.3797 18.3227C47.0431 17.2419 48.4747 15.9862 49.1322 14.4179C49.5185 13.6163 49.2095 13.1629 49.0163 13.4415C48.3588 14.0341 47.1598 14.3134 46.1546 15.1846C45.8062 15.3587 45.4971 15.7773 45.3805 16.1262Z" fill="white"/>
<path fill-rule="evenodd" clip-rule="evenodd" d="M47.8111 10.2031C48.1012 9.18233 47.9725 8.19794 48.0041 7.57833C48.0041 7.21429 48.0362 6.30345 48.5194 5.68309C48.6159 5.57462 48.7452 5.13629 48.1006 5.46467C47.9391 5.53748 47.7139 5.75664 47.4566 6.08428C46.2001 7.57833 46.1036 9.32795 46.3295 11.4424C46.3938 12.0256 46.2651 12.9371 46.4575 12.9736C46.6833 13.0464 46.8769 12.5724 47.2951 12.3903C48.8732 11.7707 50.3548 10.8591 51.2568 9.47431C51.7721 8.74549 51.6749 8.23509 51.4183 8.45351C50.7415 8.8547 49.7108 8.8547 48.6802 9.43791C48.3585 9.54712 48.0041 9.87475 47.8111 10.2031Z" fill="white"/>
<path fill-rule="evenodd" clip-rule="evenodd" d="M51.4567 5.91079C52.0352 5.18193 52.2508 4.38373 52.4319 3.89758C52.5769 3.65487 52.8654 2.9253 53.5153 2.64791C53.6596 2.54389 53.9128 2.23111 53.1907 2.30046C53.0457 2.30046 52.7211 2.40448 52.3966 2.54389C50.8075 3.30813 50.1576 4.62644 49.688 6.36226C49.5798 6.81444 49.1824 7.50862 49.3627 7.61264C49.5437 7.71666 49.8683 7.43927 50.2658 7.43927C51.963 7.47395 53.6242 7.2652 54.8519 6.46699C55.5379 6.08487 55.61 5.66878 55.3215 5.73813C54.5634 5.84215 53.6243 5.49541 52.5048 5.56476C52.1426 5.56334 51.7452 5.70275 51.4567 5.91079Z" fill="white"/>
<path fill-rule="evenodd" clip-rule="evenodd" d="M56.0144 2.51799C56.6011 2.07941 56.9113 1.48442 57.1878 1.13968C57.3256 0.983276 57.7055 0.450215 58.2922 0.325088C58.43 0.293807 58.6713 0.0741966 58.0854 0.0122719C57.9468 -0.0190096 57.7055 0.0122717 57.3953 0.0748348C55.9455 0.388289 55.152 1.32801 54.4619 2.64311C54.2889 2.95593 53.8056 3.45707 53.978 3.55155C54.0814 3.64476 54.4268 3.45771 54.7715 3.55155C56.1178 3.86437 57.5325 3.95885 58.7058 3.52027C59.3269 3.33258 59.4648 3.01913 59.2235 3.05041C58.5672 2.98785 57.8771 2.58055 56.9106 2.45542C56.6116 2.39627 56.3 2.41802 56.0144 2.51799Z" fill="white"/>
<path fill-rule="evenodd" clip-rule="evenodd" d="M62.8703 1.10337C62.3853 2.08265 61.1566 2.39696 60.7847 2.50173C60.4864 2.6065 59.2205 2.92153 58.2893 2.32712C58.7735 1.34784 60.0022 1.03281 60.3377 0.928755C60.6724 0.858195 61.9011 0.50896 62.8703 1.10337ZM73.3704 11.0687C74.1885 11.3488 74.8974 10.9988 75.1949 10.3695C75.3429 10.0901 75.4173 9.91478 75.4173 9.63539H76.498V17.8524H75.7155C74.3752 14.4256 71.0237 11.1036 67.1136 10.2996C63.2414 9.74016 58.7363 9.81 56.5027 12.9923C55.8697 13.8668 56.2044 15.6501 57.396 16.2794C61.3805 18.5516 65.7368 17.5031 71.0245 18.2023C73.7058 18.5523 76.6468 19.9856 77.8391 22.783C78.9935 25.4757 78.7703 28.2375 77.6152 30.0564C74.8982 34.4268 69.8329 34.8466 66.5945 34.8466C63.2057 34.8466 59.817 33.3784 57.1364 32.4689C56.3167 32.1888 55.6094 32.5388 55.3119 33.1681C55.1631 33.4482 55.088 33.6577 55.088 33.9029H54.008V25.2312C54.3055 25.2312 54.6402 25.2312 55.0872 25.2661C56.13 29.2524 59.4816 32.1888 62.8323 33.0983C66.7053 34.1823 70.5782 34.0077 73.5935 32.0142C74.7851 31.2452 75.2329 29.5667 74.7851 28.0978C74.1149 25.8948 70.5023 25.3003 67.8968 25.2654C62.3109 25.125 55.535 25.1956 53.5238 19.4254C52.7421 16.6636 53.2255 13.6209 55.3483 11.5576C58.8486 8.34108 64.732 8.2356 69.1999 9.52919C70.7998 9.84493 71.8806 10.6489 73.3704 11.0687ZM70.7626 43.2382C72.1409 43.2382 73.2573 43.7635 74.0398 43.9381C74.4489 44.0428 75.604 44.3572 76.5717 43.9381C76.7568 43.8682 77.3526 43.8333 76.646 44.5674C76.4608 44.777 76.0874 44.9865 75.6412 45.1967C73.2573 46.2808 71.136 45.8261 68.6034 44.7427C67.9333 44.4626 66.8912 44.4983 66.9284 44.1833C66.9284 43.8689 67.4506 43.6587 67.8225 43.169C69.2364 41.281 70.9873 39.7073 73.1101 38.9725C74.2265 38.5534 74.7479 38.8678 74.4132 39.1479C73.5935 39.882 73.2216 41.2461 72.1052 42.3993C71.7682 42.7492 71.2848 43.0985 70.7626 43.2382Z" fill="white"/>
<path fill-rule="evenodd" clip-rule="evenodd" d="M77.0265 40.0161C78.1759 39.6177 79.2577 39.7171 79.9674 39.6508C80.3388 39.5845 81.4206 39.5514 82.0642 38.9202C82.1986 38.7876 82.6726 38.5549 82.335 39.4512C82.2661 39.6501 82.0297 39.9167 81.7252 40.2482C80.0687 41.9076 78.1766 42.1397 75.7415 41.9408C75.0993 41.9076 74.085 42.1397 73.9837 41.8414C73.9162 41.5762 74.424 41.3103 74.5921 40.8124C75.1668 38.7544 76.0791 36.8629 77.6012 35.6012C78.3791 34.9376 78.9538 35.0702 78.7505 35.4023C78.3102 36.2656 78.4129 37.5597 77.872 38.887C77.6837 39.323 77.3942 39.7096 77.0265 40.0161Z" fill="white"/>
<path fill-rule="evenodd" clip-rule="evenodd" d="M83.1727 35.0527C84.073 34.4145 85.108 34.2326 85.7084 34.0203C86.0763 33.8686 87.0099 33.5647 87.4098 32.8666C87.5104 32.7143 87.8776 32.411 87.8443 33.2305C87.811 33.4125 87.677 33.7164 87.4778 34.1113C86.4761 35.8728 84.8081 36.5709 82.5396 36.9962C81.9725 37.1478 81.0721 37.573 80.9382 37.3601C80.8056 37.1781 81.2054 36.8136 81.1721 36.3277C81.1388 34.4752 81.4393 32.653 82.4736 31.2257C82.9741 30.4366 83.5079 30.4062 83.4073 30.7702C83.2747 31.5903 83.7072 32.653 83.6079 33.8977C83.5647 34.3085 83.4156 34.7042 83.1727 35.0527Z" fill="white"/>
<path fill-rule="evenodd" clip-rule="evenodd" d="M86.2472 29.4873C86.9203 28.4877 87.8411 27.9325 88.3726 27.4882C88.655 27.2295 89.435 26.5634 89.6126 25.6378C89.648 25.4529 89.8965 25.0094 90.1442 25.9342C90.1796 26.156 90.1442 26.5264 90.1088 27.0069C89.7535 29.3386 88.3373 30.6346 86.3173 31.8552C85.7858 32.2248 85.0773 32.9656 84.8996 32.8178C84.6866 32.6322 84.935 32.1139 84.7573 31.5957C84.0843 29.5235 83.7304 27.3766 84.2273 25.4522C84.4742 24.4157 84.9704 24.2301 84.9704 24.6375C85.1481 25.6 85.9634 26.6365 86.2472 28.0796C86.3881 28.4877 86.3881 29.0429 86.2472 29.4873Z" fill="white"/>
<path fill-rule="evenodd" clip-rule="evenodd" d="M87.281 22.5003C87.5861 21.4113 88.2742 20.5855 88.5808 19.9848C88.7345 19.6465 89.2697 18.7833 89.0793 17.8818C89.0793 17.7318 89.1933 17.206 89.73 17.9575C89.8439 18.145 89.9219 18.5208 90.0366 18.9333C90.4954 21.1105 89.6146 22.7628 88.1993 24.6025C87.7788 25.0908 87.3965 26.0665 87.1663 25.954C86.898 25.879 86.9744 25.3158 86.6296 24.94C85.2518 23.326 84.2188 21.5238 84.0269 19.6465C83.8748 18.67 84.2953 18.2575 84.4092 18.6325C84.9077 19.4583 86.0562 20.0965 86.7833 21.2613C87.0891 21.5613 87.281 22.087 87.281 22.5003Z" fill="white"/>
<path fill-rule="evenodd" clip-rule="evenodd" d="M86.4078 16.1262C86.3692 15.115 86.7956 14.2438 86.9501 13.6852C87.0274 13.337 87.2978 12.5006 86.9115 11.8028C86.8342 11.6287 86.7964 11.1753 87.4917 11.6983C87.6454 11.8376 87.8015 12.1169 88.034 12.4651C89.0391 14.209 88.6126 15.8469 87.7629 17.7301C87.5303 18.2183 87.375 19.1243 87.144 19.0895C86.8729 19.0895 86.7964 18.6013 86.3699 18.3227C84.7453 17.2419 83.2767 15.9862 82.6192 14.4179C82.2716 13.6163 82.542 13.1629 82.773 13.4415C83.3918 14.0341 84.6294 14.3134 85.6353 15.1846C85.9443 15.3587 86.2927 15.7773 86.4078 16.1262Z" fill="white"/>
<path fill-rule="evenodd" clip-rule="evenodd" d="M83.9546 10.2031C83.6644 9.18233 83.7927 8.19794 83.7927 7.57833C83.7605 7.21429 83.7282 6.30345 83.244 5.68309C83.1795 5.57462 83.0177 5.13629 83.6967 5.46467C83.825 5.53748 84.0513 5.75664 84.3098 6.08428C85.5691 7.57833 85.6658 9.32795 85.4395 11.4424C85.375 12.0256 85.5053 12.9371 85.3112 12.9736C85.0848 13.0464 84.8908 12.5724 84.5039 12.3903C82.8901 11.7707 81.4045 10.8591 80.5012 9.47431C79.9847 8.74549 80.113 8.23509 80.3394 8.45351C81.0177 8.8547 82.0512 8.8547 83.0842 9.43791C83.4059 9.54712 83.7605 9.87475 83.9546 10.2031Z" fill="white"/>
<path fill-rule="evenodd" clip-rule="evenodd" d="M79.7864 5.38715C79.3136 4.76384 79.1241 4.08122 78.966 3.66547C78.8407 3.4573 78.5568 2.83398 78.021 2.59555C77.8957 2.5072 77.6748 2.23972 78.3043 2.29902C78.4309 2.29902 78.6834 2.38798 78.9981 2.5072C80.3845 3.16077 80.9517 4.28818 81.3308 5.77325C81.4246 6.18899 81.8023 6.753 81.6456 6.84196C81.4875 6.96057 81.2036 6.69369 80.8265 6.69369C79.3759 6.753 77.9266 6.54482 76.8537 5.89186C76.2242 5.53542 76.1927 5.17958 76.413 5.23889C77.1069 5.32785 77.9259 5.03071 78.9024 5.09002C79.1864 5.09002 79.5654 5.20924 79.7864 5.38715Z" fill="white"/>
<path fill-rule="evenodd" clip-rule="evenodd" d="M75.7554 2.52508C75.1686 2.08516 74.8584 1.48834 74.5805 1.11117C74.4433 0.95428 74.064 0.451598 73.4773 0.29471C73.3387 0.263332 73.0966 0.0744246 73.6834 0.0123097C73.822 -0.019068 74.0985 0.0123094 74.3743 0.0750647C75.8244 0.389482 76.618 1.33209 77.3082 2.6205C77.4812 2.96565 77.9639 3.43696 77.7908 3.53173C77.6881 3.6566 77.3426 3.46834 76.9979 3.56311C75.6513 3.87689 74.2357 3.93964 73.0966 3.53173C72.4409 3.34347 72.3037 2.99767 72.5443 3.02905C73.2015 2.96565 73.891 2.55774 74.8584 2.43159C75.1342 2.36756 75.5134 2.43031 75.7554 2.52508Z" fill="white"/>
<path fill-rule="evenodd" clip-rule="evenodd" d="M68.4616 1.10123C68.926 2.07436 70.1012 2.3867 70.4588 2.49081C70.7444 2.59492 71.9567 2.90797 72.8477 2.31729C72.3833 1.34416 71.2066 1.03112 70.8861 0.927712C70.5656 0.857595 69.389 0.510554 68.4616 1.10123ZM17.3859 64.1876C17.3859 60.2483 14.5283 57.5945 10.0811 57.4373C5.87599 57.2794 2.66872 57.2794 2.66872 54.3635C2.66872 51.658 5.4719 51.1587 7.65514 51.1587C13.3698 51.1587 15.0406 56.3077 15.2834 57.227H16.0654V50.7642H15.2834C15.2565 51.3691 15.2834 52.2097 14.5283 52.2097C13.5311 52.2097 11.6444 50.2663 7.3855 50.2663C3.23488 50.2663 0.242743 52.998 0.242743 56.7539C0.242743 60.0904 3.07281 62.9538 7.19654 63.0063C11.132 63.0587 14.6903 63.2676 14.6903 66.3676C14.6903 69.1786 11.5906 69.9145 8.75984 69.9669C3.85409 70.0179 1.67086 66.8145 0.754394 63.3993H0V70.5179H0.755121C0.755121 70.5179 0.916465 69.0738 1.80604 69.0738C3.45073 69.0738 4.15135 71.0172 8.86813 71.0172C14.4483 71.0172 17.3859 67.8386 17.3859 64.1876ZM37.0096 70.5179V69.5731H35.2843V61.0352C35.2843 58.5131 33.2086 56.0966 29.6241 56.0966C26.7396 56.0966 25.4728 57.2794 24.395 58.2766V50.7642H18.0066V51.7104H19.6513V69.5731H17.8722V70.5179H26.0666V69.5731H24.395V61.4821C24.395 59.5125 25.5266 57.4373 27.845 57.4373C29.3545 57.4373 30.3247 58.8552 30.3247 60.1428V69.5724H28.5456V70.5172H37.0096V70.5179ZM52.1404 63.3993V62.3759C52.1404 59.1711 49.7958 55.8608 44.8356 55.8608C40.3346 55.8608 36.9922 58.5138 36.9922 63.5573C36.9922 68.5483 40.6857 71.0172 45.1328 71.0172C47.9905 71.0172 51.575 69.7835 52.0336 65.4759H51.3867C51.3867 66.5787 49.9586 69.7835 46.4541 69.7835C42.249 69.7835 41.7104 66.7097 41.7104 63.3993H52.1404ZM47.7201 62.4807H41.709C41.709 62.4807 41.5469 56.7014 44.7818 56.7014C48.2863 56.7014 47.7201 62.4807 47.7201 62.4807ZM66.7115 59.2497C66.7115 57.7794 65.7413 56.0449 63.7732 56.0449C61.3203 56.0449 59.8108 57.8849 59.4067 58.409V56.3601H53.0721V57.2801H54.501V69.5731H52.7218V70.5179H60.9693V69.5731H59.2446V63.3993C59.2446 60.2483 61.0776 56.938 63.6656 56.938C64.178 56.938 64.4207 57.0959 64.7173 57.4373C63.7739 57.1483 62.2368 58.0684 62.2368 59.6173C62.2368 60.8525 63.4498 61.7187 64.5283 61.7187C65.7406 61.7187 66.7115 60.4835 66.7115 59.2497ZM84.7429 67.0511V65.9738H83.9892C83.9892 66.7097 83.9892 69.3366 82.8293 69.3366C82.101 69.3366 81.6977 68.8897 81.6977 68.2062V63.6097C81.6977 60.9828 82.3707 55.8608 74.7693 55.8608C70.2953 55.8608 68.0314 57.5953 68.0314 59.618C68.0314 60.2491 68.3279 61.8242 70.2953 61.8242C71.2125 61.8242 72.4247 60.8532 72.4247 59.6442C72.4247 58.1215 70.9697 57.4904 70.9697 57.4904C71.6696 57.1491 72.3441 56.8856 73.3419 56.8856C75.1741 56.8856 76.845 57.9366 76.845 59.749C76.845 64.5821 67.1687 60.7462 67.1687 67.0248C67.1687 68.6793 68.1396 71.0172 71.9123 71.0172C75.6327 71.0172 76.3341 69.5731 77.0339 68.5483C77.8974 69.9676 78.5711 70.9648 80.5922 70.9648C83.6389 70.9648 84.7429 69.5731 84.7429 67.0511ZM76.6836 66.7621C76.6836 68.3379 74.9052 69.6779 74.097 69.6779C72.7758 69.6779 71.9123 68.2848 71.9123 66.9193C71.9123 63.6614 74.77 63.8979 76.6829 62.3228V66.7621H76.6836ZM94.8356 66.92V66.0786H94.1074C94.1074 67.1035 94.1074 69.2834 92.3558 69.2834C91.5753 69.2834 90.7119 68.7317 90.7119 67.4186V57.2794H93.4075V56.3594H90.7119V51.447H90.0105C89.5519 53.7325 87.9894 56.3594 84.7 56.3594V57.2794H86.4799V67.4186C86.4799 69.2834 87.9886 71.0165 90.6305 71.0165C94.1074 71.0172 94.8356 68.26 94.8356 66.92ZM111.655 63.5573C111.655 59.618 109.472 55.8608 103.38 55.8608C98.2042 55.8608 95.5355 59.2235 95.5355 63.5573C95.5355 68.3904 98.7166 71.0172 103.649 71.0172C107.881 71.0172 111.655 68.6793 111.655 63.5573ZM107.073 63.3221C107.073 66.0793 106.534 70.0186 103.487 70.0186C100.279 70.0186 99.9826 65.1331 99.9826 63.6621C99.9826 61.2718 100.495 56.7539 103.73 56.7539C106.48 56.7539 107.073 60.3532 107.073 63.3221ZM131 70.5179V69.5731H129.383V60.9828C129.383 58.3297 127.468 55.9394 123.668 55.9394C120.73 55.9394 119.248 57.2801 118.385 58.3297V56.3601H111.996V57.2801H113.641V69.5731H111.861V70.5179H120.11V69.5731H118.385V61.7711C118.385 59.8014 119.598 57.4897 121.781 57.4897C122.995 57.4897 124.369 58.2242 124.369 59.8539V69.5731H122.59V70.5179H131Z" fill="white"/>
</svg>
