<svg width="70" height="25" viewBox="0 0 70 25" fill="none" xmlns="http://www.w3.org/2000/svg">
<path fill-rule="evenodd" clip-rule="evenodd" d="M13.3796 0.166853L13.1296 0.342489C8.60154 0.192973 4.23398 0.683915 1.36754 4.26057C0.533164 5.30188 0.602009 7.2789 1.46856 8.41977C2.64455 9.96754 4.41395 10.3525 6.30906 10.3025C9.97583 5.69668 14.5518 2.03902 19.8364 0.708139C20.4138 0.562787 20.8639 0.74145 21.1239 0.859549C22.4507 1.46291 20.3569 4.61903 19.4982 5.43815C16.2452 8.54279 12.2283 9.72794 8.14282 10.6742C7.31593 12.0297 3.85121 17.594 6.34274 18.4589C8.10204 19.0695 10.57 17.5293 12.3001 15.6204C15.5325 12.0543 14.1784 10.477 12.0318 11.1735C10.6295 11.6289 8.92257 13.3042 7.56886 15.0821L7.37841 14.9796C8.2749 12.9617 11.2742 10.5985 13.1992 10.5236C14.6491 10.4672 15.5014 11.8212 14.184 15.0609C15.4045 14.3092 16.7331 13.5726 17.7722 12.5816C18.6406 11.7534 19.2228 10.9631 19.9569 9.9895C21.9396 7.35953 23.7621 4.44567 26.5264 2.40165C28.1787 1.49736 28.2139 3.44902 26.8298 5.53732C25.4021 7.69225 22.8997 9.79948 22.1689 10.2688C21.1052 11.1171 19.5689 11.814 18.8935 13.1748C19.7975 12.9813 20.9746 11.0274 22.5072 11.7485C23.547 12.2375 22.851 13.6063 21.9276 14.925C20.2461 17.3264 19.3395 18.3545 20.236 18.2663C20.7202 18.2189 22.6318 16.9645 23.8904 15.3096C25.0271 13.8156 26.3678 12.3988 27.5078 11.8897C28.8496 11.2909 29.8991 11.6171 30.2957 12.1569C30.7596 12.7883 30.3675 13.6419 30.1441 14.8043C30.0847 15.0833 30.5022 14.9629 30.6249 14.8883C32.5691 13.5938 34.6513 12.074 36.103 10.0077C36.546 9.9331 37.0425 9.9842 37.5592 9.9842C37.331 10.7117 35.046 12.7921 35.2694 13.3129C35.4075 13.6358 36.8289 12.2561 37.8694 11.7754C39.1663 11.1762 39.3676 12.3185 38.6035 13.5749C37.7879 14.916 36.4162 16.5205 36.1539 17.2287C36.1045 17.5028 36.1434 17.9388 36.4457 17.9055C36.992 17.8453 37.4328 17.544 37.8728 17.2238C38.4763 16.7851 39.0551 16.2601 39.6811 15.8142C40.3565 14.0828 44.2043 10.0512 46.3352 12.1285C46.4399 12.2307 46.5095 12.431 46.6644 12.4805C46.9248 12.5631 47.2373 12.1497 47.4344 11.8761C47.6245 11.8848 47.9758 11.8609 48.2864 11.8753C48.4626 11.8832 48.7376 11.7625 48.8503 11.8083C48.9633 11.8545 48.8484 12.0593 48.7642 12.1637C47.2754 14.0052 45.9464 15.4637 45.1001 17.5179C44.9351 17.9188 45.3343 18.1482 45.6628 17.94C47.0625 17.0535 48.0323 15.7635 48.9812 14.4704C49.6513 13.5567 50.192 12.6903 50.8247 11.8223C51.1184 11.4192 50.3001 11.0706 50.4161 10.53C50.5257 10.0213 51.2194 9.82144 51.5229 10.0686C52.2196 10.6372 51.4922 11.1179 51.7833 11.4173C52.3198 11.9692 53.3675 12.3496 53.0775 13.4049C52.8324 14.2971 51.4249 16.0148 50.9298 16.653C49.7651 18.1557 51.5143 18.1262 53.412 16.2465C53.8771 14.9031 56.8393 11.571 59.0611 11.711C59.6863 11.7504 60.5252 11.8901 60.8017 12.7361C63.2075 9.87821 65.9804 5.57026 68.4416 2.4554C68.9583 2.55495 69.5821 2.25402 70 2.52769C69.0429 3.89832 67.9425 5.24851 66.9132 6.5934C65.2976 8.70518 63.7579 10.8722 62.2182 13.0184C61.1983 14.4398 60.1286 15.8142 59.216 17.2938C58.8938 17.8166 59.3035 18.1349 59.7536 17.9078C61.2495 17.1534 62.5524 15.3289 63.5259 13.9602L63.8773 13.9746C62.7866 15.6666 60.4975 18.6069 59.0626 18.6675C58.4793 18.6921 58.0254 18.4184 57.869 17.1545C56.6257 17.9933 53.2511 20.0048 53.2178 17.0512C52.3692 17.6179 50.8438 18.7905 49.9649 18.6005C49.364 18.4707 48.9247 17.6901 49.7445 16.2938C50.5033 15.0015 51.9771 13.5718 52.037 12.6956C52.0624 12.3223 51.8757 12.0358 51.3478 11.8764C50.7888 12.4715 45.9082 20.3591 44.2148 18.3522C43.7991 17.84 43.7344 17.1561 43.4863 17.2961C42.3889 17.915 41.1201 19.0411 39.7851 18.2647C39.1921 17.9203 39.5808 16.4077 39.1782 16.7181C38.0752 17.5702 36.3597 19.0805 35.3061 18.5763C34.5353 18.2072 34.8937 16.9191 35.315 16.335C37.2517 13.6509 37.8533 12.7792 37.4406 12.7743C36.9726 12.7678 35.2095 13.9416 33.503 15.8369C30.5344 19.1327 27.3065 23.9395 26.5481 24.7821C26.3098 25.0233 25.3717 25.0615 24.8678 24.9105C26.3419 23.0489 27.7555 21.0378 29.2503 19.1308C30.5875 17.4248 31.9042 15.8695 33.0514 14.084C33.1494 13.903 32.9066 13.783 32.7528 13.9087C31.8563 14.6423 30.9864 15.1374 30.088 15.6601C29.825 15.8134 29.5388 15.9066 29.2746 16.0864C29.119 16.192 29.0314 16.3914 28.896 16.4989C27.876 17.3112 27.2631 17.9926 25.6864 18.5494C24.922 18.8189 24.2032 18.7557 23.7404 18.5259C23.22 18.2674 23.2533 17.4608 23.1664 17.105C23.1144 16.8918 23.0478 16.829 22.8293 17.0126C20.8938 18.6414 20.2024 19.0278 19.3175 18.6963C18.5778 18.4196 18.7431 17.4979 19.9098 15.7468C20.9174 14.2342 22.3317 12.7542 21.7604 12.3004C21.3563 11.9794 19.7504 12.8848 17.8036 14.9254C16.2842 16.5182 15.082 18.3442 15.036 18.401C14.5192 18.451 13.8779 18.5857 13.3122 18.5358C13.4667 18.3545 16.3777 14.3936 16.8084 13.9004C13.5045 15.5644 10.4413 20.0669 6.34873 18.9313C3.04527 18.0149 4.56062 13.3106 6.03294 10.792C3.9904 10.6178 1.85619 10.223 0.582553 8.41901C-0.235734 7.26036 -0.139949 5.40257 0.546259 4.32681C2.99139 0.495412 9.14108 -0.43159 13.3796 0.166853ZM17.3584 6.17475C15.2447 7.91596 11.5278 9.75671 8.58208 9.8926C10.0084 8.23694 12.1665 6.05363 14.3947 4.3552C14.9192 3.95548 18.0985 1.88951 19.7897 1.30999C20.1803 1.17599 20.4755 1.05714 20.6585 1.12906C20.9293 1.2358 20.7703 1.53142 20.6558 1.95461C20.4216 2.82067 19.6007 4.32719 17.3584 6.17475ZM26.8066 4.57739C25.4271 6.75011 22.955 9.38084 20.7153 10.7253C22.4802 8.2059 24.1763 5.48736 26.3771 3.32146C27.9736 1.75135 27.317 3.77417 26.8066 4.57739ZM29.6768 13.9367C29.5043 14.369 28.484 14.0503 28.1622 14.2679C27.836 14.489 27.5381 15.0613 27.5568 15.542C27.5688 15.8505 28.0399 16.2234 27.8217 16.4357C26.0445 18.1652 24.8288 18.5373 24.1909 18.2901C23.7254 18.1096 23.8661 17.1776 25.1487 15.38C25.7021 14.6044 28.9057 10.8283 29.877 12.3038C30.0394 12.5506 30.0046 13.1176 29.6768 13.9367ZM60.1506 13.5378C59.2526 16.2824 54.466 19.4242 54.1854 17.9074C53.9617 16.6973 57.093 12.9923 59.0311 12.247C60.2288 11.7867 60.4836 12.5203 60.1506 13.5378ZM45.9004 14.0245C45.4813 14.9814 44.6342 15.8812 43.7789 16.5781C42.4652 17.6478 41.0584 18.4533 40.4807 18.0959C39.6658 17.5914 40.9892 15.4728 42.5928 13.9299C43.5783 12.9817 44.6978 12.0945 45.4637 12.0892C46.4803 12.0816 46.1331 13.4927 45.9004 14.0245Z" fill="#433D3D"/>
</svg>
