<svg width="60" height="39" viewBox="0 0 60 39" fill="none" xmlns="http://www.w3.org/2000/svg">
<path fill-rule="evenodd" clip-rule="evenodd" d="M8.1453 38.9198V38.7459H7.86736V35.91H8.1453V35.7371H6.85877V35.9188H7.14101V37.1759H5.94569V35.91H6.22794V35.7371H4.94141V35.91H5.21934V38.7459H4.94141V38.9198H6.21965V38.7459H5.94569V37.3535H7.14101V38.7459H6.85877V38.9198H8.1453ZM11.8626 37.3535C11.8998 36.372 11.3313 35.6563 10.331 35.6563C9.62121 35.6563 8.80365 36.0452 8.75788 37.3369C8.73301 37.9633 9.15655 38.9996 10.331 38.9996C11.518 38.9996 11.8377 37.9335 11.8626 37.3535ZM11.0988 37.3619C11.0988 38.2511 10.8872 38.8389 10.3313 38.8389C9.74194 38.8389 9.53863 38.0773 9.53863 37.3619C9.53863 36.6216 9.69219 35.7456 10.3313 35.7456C10.9495 35.7456 11.0988 36.6591 11.0988 37.3619ZM15.2247 36.9473V35.7371H12.4649V36.9473H12.5478C12.5478 35.9992 13.1578 35.9103 13.3697 35.9103H13.4403V38.7463H13.1581V38.9201H14.4446V38.7463H14.1664V35.9103H14.2496C14.4237 35.9103 15.1418 35.9996 15.1418 36.9473H15.2247ZM18.6631 38.9198V37.7982H18.5633C18.5633 38.4206 18.0694 38.7463 17.7251 38.7463H16.8286V37.367H17.1981C17.5178 37.3836 17.7251 37.5104 17.7251 38.0519H17.8207V36.5708H17.7251C17.7251 36.884 17.5092 37.2182 17.1981 37.2182H16.8286V35.9103H17.5178C18.2482 35.9103 18.3895 36.0967 18.5138 36.8925H18.5924V35.7371H15.8244V35.9103H16.1023V38.7463H15.8244V38.9201H18.6631V38.9198ZM21.7658 38.9198V37.6542H21.6746C21.5874 38.1408 21.4295 38.7463 20.6206 38.7463H20.2677V35.9103H20.5499V35.7371H19.2634V35.9103H19.5413V38.7463H19.2634V38.9201H21.7658V38.9198ZM25.04 37.8997C25.04 37.2649 24.6002 36.8367 23.9153 36.8116C23.2676 36.7866 22.7741 36.7866 22.7741 36.3162C22.7741 35.8809 23.2056 35.8004 23.5416 35.8004C24.4215 35.8004 24.6788 36.6294 24.7163 36.7782H24.8364V35.7371H24.7163C24.712 35.8342 24.7163 35.9698 24.5999 35.9698C24.4463 35.9698 24.1558 35.6566 23.5001 35.6566C22.861 35.6566 22.4003 36.0967 22.4003 36.7024C22.4003 37.2395 22.8361 37.7012 23.4709 37.7093C24.0772 37.7177 24.6248 37.7516 24.6248 38.2518C24.6248 38.7043 24.1475 38.8227 23.7117 38.8312C22.9562 38.8396 22.6202 38.3232 22.4792 37.7735H22.3631V38.9204H22.4792C22.4792 38.9204 22.5041 38.6877 22.6411 38.6877C22.8941 38.6877 23.0019 39.0003 23.7283 39.0003C24.588 38.9996 25.04 38.4879 25.04 37.8997ZM29.7895 38.0604H29.6774C29.6774 38.2129 29.6691 38.4753 29.4698 38.4753C29.2664 38.4753 29.0548 38.1581 29.0548 38.1581C29.1089 38.0604 29.2664 37.7512 29.2664 37.1759C29.2664 37.0829 29.2499 36.9943 29.2333 36.905L29.0631 36.9388C29.0837 37.392 29.1086 37.7512 28.9301 38.0519L27.9298 37.0193C28.0794 36.9222 28.4777 36.7227 28.4777 36.304C28.4777 36.0165 28.3119 35.6566 27.7846 35.6566C27.299 35.6566 26.8632 36.008 26.8632 36.4863C26.8632 36.7947 26.9879 36.9473 27.2201 37.248C27.0499 37.3284 26.4732 37.6166 26.4732 38.1879C26.4732 38.522 26.7139 38.9996 27.5106 38.9996C28.3073 38.9996 28.5567 38.7459 28.6021 38.7121C28.6724 38.7757 28.7971 38.9022 29.0917 38.9022C29.6936 38.9022 29.7639 38.4835 29.7809 38.3394C29.7978 38.2254 29.7895 38.0604 29.7895 38.0604ZM28.1666 36.304C28.1666 36.5238 28.096 36.7024 27.8141 36.9013C27.8141 36.9013 27.3866 36.516 27.3866 36.1819C27.3866 35.983 27.5398 35.771 27.7849 35.771C28.0257 35.7706 28.1666 36.0415 28.1666 36.304ZM28.4947 38.6018C28.3699 38.7209 28.0091 38.8007 27.8927 38.8007C27.4695 38.8007 27.1497 38.4118 27.1497 37.9504C27.1497 37.7806 27.2201 37.4972 27.37 37.4086L28.4947 38.6018ZM34.4912 38.1622H34.3877C34.3877 38.3695 34.3253 38.6952 34.1681 38.6952C33.9724 38.6952 34.0139 38.4963 33.9811 38.0519C33.9443 37.4553 33.5536 37.3623 33.3585 37.3284C33.4912 37.2902 34.0686 37.2266 34.0686 36.5583C34.0686 36.1051 33.8816 35.7371 33.0932 35.7371H31.2296V35.9103H31.5082V38.7463H31.2296V38.9201H32.5168V38.7463H32.2342V37.4005H32.7201C33.2013 37.4005 33.2013 37.6166 33.2013 38.2129C33.2013 38.8393 33.5376 38.9996 33.857 38.9996C34.3505 38.9996 34.4912 38.6739 34.4912 38.1622ZM33.342 36.6043C33.342 36.9855 33.1715 37.2266 32.7194 37.2266H32.2335V35.91H32.7649C33.1884 35.91 33.342 36.2232 33.342 36.6043ZM37.9315 38.9198V37.7982H37.8324C37.8324 38.4206 37.3382 38.7463 36.9936 38.7463H36.0971V37.367H36.4669C36.7863 37.3836 36.9936 37.5104 36.9936 38.0519H37.0894V36.5708H36.9936C36.9936 36.884 36.778 37.2182 36.4669 37.2182H36.0971V35.9103H36.7863C37.517 35.9103 37.6582 36.0967 37.7826 36.8925H37.8609V35.7371H35.0928V35.9103H35.3708V38.7463H35.0928V38.9201H37.9315V38.9198ZM41.2087 37.8997C41.2087 37.2649 40.7689 36.8367 40.0841 36.8116C39.4363 36.7866 38.9428 36.7866 38.9428 36.3162C38.9428 35.8809 39.3743 35.8004 39.7103 35.8004C40.5898 35.8004 40.8479 36.6294 40.8847 36.7782H41.0051V35.7371H40.8847C40.8807 35.8342 40.8847 35.9698 40.7686 35.9698C40.6151 35.9698 40.3242 35.6566 39.6688 35.6566C39.0294 35.6566 38.569 36.0967 38.569 36.7024C38.569 37.2395 39.0048 37.7012 39.64 37.7093C40.2456 37.7177 40.7938 37.7516 40.7938 38.2518C40.7938 38.7043 40.3166 38.8227 39.8811 38.8312C39.1259 38.8396 38.7896 38.3232 38.6483 37.7735H38.5322V38.9204H38.6483C38.6483 38.9204 38.6728 38.6877 38.8101 38.6877C39.0635 38.6877 39.171 39.0003 39.897 39.0003C40.7567 38.9996 41.2087 38.4879 41.2087 37.8997ZM44.9095 37.3535C44.9469 36.372 44.3781 35.6563 43.3782 35.6563C42.6681 35.6563 41.8508 36.0452 41.8054 37.3369C41.7802 37.9633 42.2031 38.9996 43.3782 38.9996C44.5649 38.9996 44.8843 37.9335 44.9095 37.3535ZM44.1456 37.3619C44.1456 38.2511 43.9337 38.8389 43.3782 38.8389C42.7888 38.8389 42.5851 38.0773 42.5851 37.3619C42.5851 36.6216 42.7387 35.7456 43.3782 35.7456C43.9961 35.7456 44.1456 36.6591 44.1456 37.3619ZM48.7737 38.1622H48.6702C48.6702 38.3695 48.6079 38.6952 48.45 38.6952C48.255 38.6952 48.2964 38.4963 48.2636 38.0519C48.2261 37.4553 47.8361 37.3623 47.6411 37.3284C47.7737 37.2902 48.3505 37.2266 48.3505 36.5583C48.3505 36.1051 48.1641 35.7371 47.3757 35.7371H45.5121V35.9103H45.7907V38.7463H45.5121V38.9201H46.7986V38.7463H46.5167V37.4005H47.0019C47.4832 37.4005 47.4832 37.6166 47.4832 38.2129C47.4832 38.8393 47.8195 38.9996 48.1396 38.9996C48.6324 38.9996 48.7737 38.6739 48.7737 38.1622ZM47.6238 36.6043C47.6238 36.9855 47.4533 37.2266 47.0013 37.2266H46.516V35.91H47.0474C47.4703 35.91 47.6238 36.2232 47.6238 36.6043ZM52.1355 36.9473V35.7371H49.3753V36.9473H49.4583C49.4583 35.9992 50.0685 35.9103 50.2798 35.9103H50.3504V38.7463H50.0685V38.9201H51.355V38.7463H51.0771V35.9103H51.16C51.3342 35.9103 52.0519 35.9996 52.0519 36.9473H52.1355ZM55.412 37.8997C55.412 37.2649 54.9722 36.8367 54.2866 36.8116C53.6396 36.7866 53.146 36.7866 53.146 36.3162C53.146 35.8809 53.5775 35.8004 53.9135 35.8004C54.7931 35.8004 55.0505 36.6294 55.088 36.7782H55.2083V35.7371H55.088C55.084 35.8342 55.088 35.9698 54.9719 35.9698C54.8183 35.9698 54.5274 35.6566 53.8721 35.6566C53.2326 35.6566 52.7723 36.0967 52.7723 36.7024C52.7723 37.2395 53.2081 37.7012 53.8432 37.7093C54.4488 37.7177 54.9971 37.7516 54.9971 38.2518C54.9971 38.7043 54.5198 38.8227 54.0843 38.8312C53.3285 38.8396 52.9922 38.3232 52.8515 37.7735H52.7348V38.9204H52.8515C52.8515 38.9204 52.8761 38.6877 53.0134 38.6877C53.2661 38.6877 53.3742 39.0003 54.1003 39.0003C54.9599 38.9996 55.412 38.4879 55.412 37.8997ZM27.9995 19.8483C27.3975 19.8483 26.9093 20.0976 26.5836 20.1804C26.4045 20.2302 25.8841 20.3793 25.4609 20.1804C25.3793 20.1473 25.1193 20.1307 25.4284 20.4791C25.51 20.5785 25.6725 20.678 25.8679 20.7777C26.9093 21.2922 27.8366 21.0764 28.9593 20.5623C29.2359 20.4294 29.6916 20.4463 29.6916 20.2968C29.6754 20.1476 29.4475 20.0479 29.2847 19.8155C28.6665 18.9196 27.902 18.1728 26.974 17.8241C26.4858 17.6252 26.2579 17.7744 26.4045 17.9073C26.7627 18.2556 26.9415 18.903 27.4134 19.4502C27.5604 19.6163 27.772 19.782 27.9995 19.8483ZM29.5941 19.3674C29.5941 19.019 30.1148 18.488 30.2127 18.1728C30.3268 18.4883 30.8306 19.019 30.8306 19.3674C30.8306 19.7157 30.5546 19.9978 30.2127 19.9978C30.1315 19.9978 30.051 19.9816 29.976 19.9499C29.901 19.9182 29.8328 19.8718 29.7753 19.8133C29.7179 19.7547 29.6723 19.6852 29.6412 19.6087C29.6101 19.5322 29.5941 19.4502 29.5941 19.3674ZM29.5941 21.093C29.5941 21.4413 30.1148 21.9889 30.2127 22.3041C30.3268 21.9889 30.8306 21.4413 30.8306 21.093C30.8253 20.9293 30.7579 20.7742 30.6425 20.6603C30.5272 20.5465 30.3729 20.4828 30.2124 20.4828C30.0518 20.4828 29.8976 20.5465 29.7822 20.6603C29.6668 20.7742 29.5994 20.9293 29.5941 21.093Z" fill="#433D3D"/>
<path fill-rule="evenodd" clip-rule="evenodd" d="M24.7203 18.5788C24.1941 18.3938 23.6986 18.44 23.3732 18.4092C23.2027 18.3785 22.723 18.3631 22.413 18.07C22.3511 18.0085 22.1343 17.9004 22.289 18.3166C22.3202 18.4089 22.4281 18.5327 22.5677 18.6866C23.3265 19.4571 24.1935 19.5648 25.3087 19.4724C25.6028 19.457 26.0829 19.5648 26.1139 19.4263C26.1451 19.3031 25.9125 19.1797 25.8351 18.9485C25.5719 17.9931 25.1537 17.1149 24.4571 16.5291C24.101 16.2209 23.8378 16.2825 23.9306 16.4367C24.1323 16.8375 24.0856 17.4384 24.3333 18.0546C24.4107 18.2399 24.5502 18.44 24.7203 18.5788Z" fill="#433D3D"/>
<path fill-rule="evenodd" clip-rule="evenodd" d="M22.2536 16.2746C21.8416 15.9783 21.3687 15.8938 21.0941 15.7952C20.9266 15.7248 20.5146 15.5837 20.3165 15.2596C20.2708 15.1889 20.1029 15.0481 20.1182 15.4285C20.1334 15.513 20.1946 15.6541 20.2861 15.8375C20.7437 16.6553 21.5064 16.9795 22.544 17.1769C22.8033 17.2473 23.2152 17.4447 23.2762 17.3459C23.3524 17.2614 23.154 17.0921 23.1692 16.8665C23.1845 16.0064 23.047 15.1604 22.5741 14.4978C22.3605 14.1314 22.1012 14.1173 22.1469 14.2863C22.2082 14.667 22.0098 15.1604 22.0555 15.7383C22.0704 15.9222 22.1469 16.1194 22.2536 16.2746Z" fill="#433D3D"/>
<path fill-rule="evenodd" clip-rule="evenodd" d="M20.8457 13.6905C20.537 13.2264 20.1144 12.9686 19.8872 12.7623C19.7408 12.6422 19.3835 12.3329 19.3186 11.9032C19.2858 11.8174 19.1725 11.6114 19.0586 12.0408C19.0586 12.1438 19.0586 12.3158 19.091 12.5389C19.2533 13.6215 19.8872 14.2232 20.8132 14.7899C21.0573 14.9615 21.3822 15.3054 21.4796 15.2368C21.5769 15.1506 21.4471 14.91 21.5282 14.6694C21.8531 13.7073 21.9995 12.7105 21.772 11.817C21.6743 11.3358 21.4309 11.2496 21.4309 11.4388C21.3494 11.8857 20.9921 12.3669 20.8457 13.0369C20.7973 13.2264 20.7973 13.4842 20.8457 13.6905Z" fill="#433D3D"/>
<path fill-rule="evenodd" clip-rule="evenodd" d="M20.3766 10.4466C20.254 9.94101 19.921 9.55763 19.7809 9.27871C19.7109 9.12166 19.4654 8.72087 19.5529 8.30231C19.5529 8.23267 19.5179 7.98857 19.2724 8.33749C19.2199 8.42454 19.1674 8.599 19.1145 8.79051C18.9044 9.80137 19.3075 10.5685 19.9735 11.4227C20.149 11.6493 20.3241 12.1024 20.4295 12.0501C20.552 12.0153 20.5345 11.7538 20.6925 11.5794C21.306 10.83 21.797 9.99324 21.867 9.12166C21.937 8.66828 21.7441 8.47677 21.6915 8.65087C21.4636 9.03425 20.9376 9.33058 20.6046 9.87137C20.482 10.0106 20.3766 10.2547 20.3766 10.4466Z" fill="#433D3D"/>
<path fill-rule="evenodd" clip-rule="evenodd" d="M20.7861 7.48706C20.7861 7.01757 20.5915 6.61308 20.5207 6.35375C20.4854 6.19209 20.3788 5.80376 20.5561 5.47977C20.5738 5.39894 20.5915 5.18844 20.2727 5.43127C20.2196 5.49593 20.1308 5.6256 20.0246 5.78726C19.5816 6.59691 19.7589 7.3574 20.1662 8.23172C20.2727 8.45838 20.3258 8.87904 20.4319 8.86287C20.5558 8.86287 20.6092 8.63621 20.7858 8.50688C21.5476 8.00505 22.2034 7.42207 22.5045 6.69391C22.6814 6.32175 22.5399 6.11125 22.4514 6.24059C22.1503 6.51575 21.6011 6.64541 21.1407 7.04991C20.9811 7.13074 20.8396 7.32507 20.7861 7.48706Z" fill="#433D3D"/>
<path fill-rule="evenodd" clip-rule="evenodd" d="M21.8984 4.73713C22.0313 4.26319 21.9723 3.80615 21.9868 3.51847C21.9868 3.34946 22.0015 2.92657 22.2228 2.63854C22.267 2.58818 22.3262 2.38467 22.031 2.53713C21.957 2.57094 21.8539 2.67269 21.736 2.82481C21.1605 3.51848 21.1163 4.3308 21.2198 5.31249C21.2492 5.58326 21.1903 6.0065 21.2784 6.0234C21.3818 6.0572 21.4705 5.83713 21.6621 5.75262C22.3849 5.46495 23.0634 5.04171 23.4766 4.39875C23.7126 4.06037 23.6681 3.8234 23.5505 3.92481C23.2405 4.11107 22.7685 4.11108 22.2965 4.38185C22.1491 4.43256 21.9868 4.58467 21.8984 4.73713Z" fill="#433D3D"/>
<path fill-rule="evenodd" clip-rule="evenodd" d="M23.5682 2.74407C23.8331 2.40567 23.9319 2.03507 24.0148 1.80937C24.0812 1.69668 24.2134 1.35795 24.5111 1.22916C24.5771 1.18086 24.6931 1.03565 24.3624 1.06784C24.296 1.06784 24.1473 1.11614 23.9986 1.18086C23.2708 1.53569 22.9732 2.14777 22.7581 2.95368C22.7085 3.16362 22.5265 3.48592 22.6091 3.53421C22.692 3.58251 22.8407 3.45372 23.0227 3.45372C23.8001 3.46982 24.5609 3.3729 25.1232 3.0023C25.4374 2.82489 25.4705 2.63171 25.3383 2.66391C24.9911 2.7122 24.5609 2.55121 24.0482 2.58341C23.8823 2.58275 23.7003 2.64748 23.5682 2.74407Z" fill="#433D3D"/>
<path fill-rule="evenodd" clip-rule="evenodd" d="M25.6565 1.16907C25.9252 0.965439 26.0673 0.689194 26.1939 0.529139C26.2571 0.456521 26.431 0.209028 26.6997 0.150934C26.7629 0.13641 26.8734 0.0344484 26.605 0.00569769C26.5416 -0.00882588 26.431 0.00569756 26.289 0.0347447C25.6249 0.180277 25.2615 0.616576 24.9454 1.22716C24.8662 1.37239 24.6448 1.60507 24.7238 1.64894C24.7711 1.69221 24.9293 1.60537 25.0872 1.64894C25.7039 1.79417 26.3518 1.83804 26.8892 1.63441C27.1737 1.54727 27.2368 1.40174 27.1263 1.41626C26.8257 1.38722 26.5097 1.19811 26.067 1.14002C25.93 1.11256 25.7873 1.12265 25.6565 1.16907Z" fill="#433D3D"/>
<path fill-rule="evenodd" clip-rule="evenodd" d="M28.7936 0.512419C28.5715 0.967086 28.0087 1.11302 27.8383 1.16166C27.7017 1.2103 27.1219 1.35656 26.6954 1.08059C26.9172 0.62592 27.48 0.47966 27.6336 0.431347C27.7869 0.398587 28.3497 0.236442 28.7936 0.512419ZM33.6028 5.13917C33.9775 5.26921 34.3022 5.10674 34.4384 4.81455C34.5062 4.68483 34.5403 4.60343 34.5403 4.47371H35.0353V8.28874H34.6769C34.063 6.69774 32.528 5.15538 30.7371 4.78212C28.9636 4.52236 26.9001 4.55478 25.8771 6.03229C25.5872 6.43831 25.7405 7.26624 26.2863 7.55843C28.1112 8.61336 30.1065 8.1266 32.5283 8.45122C33.7564 8.6137 35.1034 9.27915 35.6495 10.578C36.1782 11.8281 36.076 13.1104 35.547 13.9549C34.3025 15.984 31.9826 16.1789 30.4993 16.1789C28.9472 16.1789 27.3951 15.4972 26.1674 15.075C25.792 14.9449 25.468 15.1074 25.3317 15.3996C25.2636 15.5297 25.2292 15.6269 25.2292 15.7408H24.7345V11.7146C24.8708 11.7146 25.0241 11.7146 25.2288 11.7308C25.7064 13.5816 27.2415 14.9449 28.7762 15.3672C30.5501 15.8705 32.3239 15.7894 33.705 14.8639C34.2507 14.5068 34.4558 13.7275 34.2507 13.0455C33.9438 12.0227 32.2892 11.7467 31.0958 11.7305C28.5374 11.6653 25.4339 11.6981 24.5127 9.01906C24.1547 7.73679 24.3761 6.32415 25.3484 5.36617C26.9516 3.87278 29.6463 3.82381 31.6927 4.42441C32.4254 4.571 32.9204 4.94426 33.6028 5.13917ZM32.4084 20.075C33.0397 20.075 33.551 20.3189 33.9094 20.4C34.0967 20.4486 34.6258 20.5945 35.069 20.4C35.1538 20.3675 35.4267 20.3513 35.1031 20.6922C35.0183 20.7894 34.8472 20.8867 34.6428 20.9843C33.551 21.4876 32.5794 21.2765 31.4194 20.7736C31.1125 20.6435 30.6352 20.6601 30.6523 20.5138C30.6523 20.3679 30.8914 20.2702 31.0618 20.0429C31.7094 19.1663 32.5113 18.4357 33.4836 18.0945C33.9949 17.9 34.2337 18.0459 34.0804 18.1759C33.705 18.5168 33.5347 19.1501 33.0233 19.6855C32.869 19.848 32.6476 20.0101 32.4084 20.075Z" fill="#433D3D"/>
<path fill-rule="evenodd" clip-rule="evenodd" d="M35.2793 18.5791C35.8057 18.3941 36.3012 18.4403 36.6263 18.4095C36.7964 18.3787 37.2919 18.3633 37.5866 18.0703C37.6482 18.0087 37.8653 17.9006 37.7106 18.3168C37.6791 18.4092 37.5708 18.5329 37.4313 18.6868C36.6727 19.4573 35.806 19.565 34.6907 19.4727C34.3966 19.4573 33.932 19.565 33.8856 19.4265C33.8547 19.3034 34.0873 19.1799 34.1643 18.9488C34.4275 17.9933 34.8454 17.1151 35.5425 16.5293C35.8988 16.2212 36.162 16.2828 36.0689 16.437C35.8673 16.8378 35.9143 17.4386 35.6665 18.0549C35.5803 18.2573 35.4477 18.4368 35.2793 18.5791Z" fill="#433D3D"/>
<path fill-rule="evenodd" clip-rule="evenodd" d="M38.0944 16.2746C38.5068 15.9783 38.9808 15.8938 39.2558 15.7952C39.4243 15.7248 39.8519 15.5837 40.0351 15.2596C40.0812 15.1889 40.2494 15.0481 40.2341 15.4285C40.2188 15.513 40.1575 15.6541 40.0662 15.8375C39.6074 16.6553 38.8435 16.9795 37.8045 17.1769C37.5447 17.2473 37.1323 17.4447 37.071 17.3459C37.0102 17.2614 37.1934 17.0921 37.1781 16.8665C37.1629 16.0064 37.3005 15.1604 37.7742 14.4978C38.0035 14.1314 38.248 14.1173 38.2019 14.2863C38.1411 14.667 38.3392 15.1604 38.2937 15.7383C38.274 15.9291 38.2057 16.1128 38.0944 16.2746Z" fill="#433D3D"/>
<path fill-rule="evenodd" clip-rule="evenodd" d="M39.5027 13.6905C39.8109 13.2264 40.2327 12.9686 40.4761 12.7623C40.6055 12.6422 40.9627 12.3329 41.0441 11.9032C41.0603 11.8174 41.1741 11.6114 41.2875 12.0408C41.3037 12.1438 41.2875 12.3158 41.2713 12.5389C41.1086 13.6215 40.4599 14.2232 39.5347 14.7899C39.2913 14.9615 38.9668 15.3054 38.8854 15.2368C38.7878 15.1506 38.9016 14.91 38.8203 14.6694C38.512 13.7073 38.3499 12.7105 38.5775 11.817C38.6906 11.3358 38.9178 11.2496 38.9178 11.4388C38.9992 11.8857 39.3727 12.3669 39.5027 13.0369C39.5672 13.2264 39.5672 13.4842 39.5027 13.6905Z" fill="#433D3D"/>
<path fill-rule="evenodd" clip-rule="evenodd" d="M39.9762 10.4466C40.1159 9.94101 40.431 9.55763 40.5715 9.27871C40.6419 9.12166 40.887 8.72087 40.7998 8.30231C40.7998 8.23267 40.852 7.98857 41.0978 8.33749C41.15 8.42454 41.1857 8.599 41.2383 8.79051C41.4484 9.80137 41.0449 10.5685 40.3967 11.4227C40.2041 11.6493 40.029 12.1024 39.9236 12.0501C39.8007 12.0153 39.8357 11.7538 39.6778 11.5794C39.0467 10.83 38.5736 9.99324 38.4857 9.12166C38.416 8.66828 38.6086 8.47677 38.6608 8.65087C38.8891 9.03425 39.4151 9.33058 39.7482 9.87137C39.8882 10.0106 39.9762 10.2547 39.9762 10.4466Z" fill="#433D3D"/>
<path fill-rule="evenodd" clip-rule="evenodd" d="M39.5769 7.48706C39.5592 7.01757 39.7545 6.61308 39.8253 6.35375C39.8607 6.19209 39.9845 5.80376 39.8076 5.47977C39.7722 5.39894 39.7549 5.18844 40.0734 5.43127C40.1438 5.49593 40.2152 5.6256 40.3218 5.78726C40.7821 6.59691 40.5868 7.3574 40.1976 8.23172C40.0911 8.45838 40.0199 8.87904 39.9141 8.86287C39.7899 8.86287 39.7549 8.63621 39.5596 8.50688C38.8155 8.00505 38.1428 7.42207 37.8417 6.69391C37.6825 6.32175 37.8063 6.11125 37.9121 6.24059C38.1955 6.51575 38.7624 6.64541 39.2231 7.04991C39.3646 7.13074 39.5242 7.32507 39.5769 7.48706Z" fill="#433D3D"/>
<path fill-rule="evenodd" clip-rule="evenodd" d="M38.4534 4.73713C38.3205 4.26319 38.3793 3.80615 38.3793 3.51847C38.3645 3.34946 38.3498 2.92657 38.128 2.63854C38.0985 2.58818 38.0243 2.38467 38.3353 2.53713C38.3941 2.57094 38.4977 2.67269 38.6161 2.82481C39.1929 3.51848 39.2372 4.3308 39.1335 5.31249C39.104 5.58326 39.1637 6.0065 39.0748 6.0234C38.9711 6.0572 38.8822 5.83713 38.705 5.75262C37.9659 5.46495 37.2855 5.04171 36.8717 4.39875C36.6352 4.06037 36.694 3.8234 36.7976 3.92481C37.1083 4.11107 37.5817 4.11108 38.0548 4.38185C38.2021 4.43256 38.3645 4.58467 38.4534 4.73713Z" fill="#433D3D"/>
<path fill-rule="evenodd" clip-rule="evenodd" d="M36.5432 2.50095C36.3267 2.21156 36.2399 1.89462 36.1675 1.7016C36.1101 1.60495 35.9801 1.31555 35.7347 1.20485C35.6773 1.16383 35.5761 1.03964 35.8644 1.06718C35.9224 1.06718 36.038 1.10848 36.1822 1.16383C36.8172 1.46727 37.077 1.99072 37.2506 2.68021C37.2935 2.87323 37.4666 3.13509 37.3948 3.1764C37.3224 3.23147 37.1923 3.10756 37.0196 3.10756C36.3552 3.13509 35.6914 3.03844 35.2 2.73528C34.9117 2.56979 34.8973 2.40458 34.9982 2.43211C35.316 2.47342 35.6911 2.33546 36.1384 2.363C36.2684 2.363 36.442 2.41835 36.5432 2.50095Z" fill="#433D3D"/>
<path fill-rule="evenodd" clip-rule="evenodd" d="M34.6972 1.17236C34.4285 0.968109 34.2864 0.691015 34.1591 0.5159C34.0962 0.443059 33.9226 0.209671 33.6538 0.13683C33.5903 0.122261 33.4795 0.0345543 33.7482 0.0057152C33.8117 -0.00885301 33.9383 0.00571507 34.0647 0.0348515C34.7288 0.180831 35.0923 0.618472 35.4084 1.21666C35.4877 1.37691 35.7087 1.59573 35.6295 1.63973C35.5824 1.69771 35.4242 1.6103 35.2663 1.6543C34.6495 1.79998 34.0012 1.82912 33.4795 1.63973C33.1791 1.55232 33.1163 1.39178 33.2265 1.40634C33.5275 1.37691 33.8433 1.18752 34.2864 1.12895C34.4127 1.09922 34.5864 1.12836 34.6972 1.17236Z" fill="#433D3D"/>
<path fill-rule="evenodd" clip-rule="evenodd" d="M31.3565 0.511426C31.5692 0.963237 32.1074 1.10825 32.2712 1.15659C32.402 1.20493 32.9573 1.35027 33.3654 1.07602C33.1527 0.624214 32.6137 0.478872 32.4669 0.430863C32.3201 0.398309 31.7812 0.237182 31.3565 0.511426ZM7.96303 29.8015C7.96303 27.9726 6.65417 26.7405 4.61731 26.6675C2.69129 26.5941 1.22232 26.5941 1.22232 25.2404C1.22232 23.9842 2.50621 23.7524 3.50617 23.7524C6.12356 23.7524 6.88884 26.143 7.00002 26.5698H7.3582V23.5692H7.00002C6.98771 23.8501 7.00002 24.2404 6.65417 24.2404C6.19746 24.2404 5.33332 23.3381 3.38267 23.3381C1.48163 23.3381 0.11118 24.6064 0.11118 26.3501C0.11118 27.8993 1.40739 29.2287 3.29613 29.253C5.09864 29.2774 6.7284 29.3744 6.7284 30.8137C6.7284 32.1188 5.30869 32.4604 4.01214 32.4848C1.76523 32.5085 0.765279 31.0212 0.345524 29.4355H0V32.7406H0.345857C0.345857 32.7406 0.419755 32.0701 0.827194 32.0701C1.58049 32.0701 1.90138 32.9724 4.06174 32.9724C6.61755 32.9724 7.96303 31.4966 7.96303 29.8015ZM16.951 32.7406V32.3019H16.1607V28.3379C16.1607 27.167 15.21 26.045 13.5683 26.045C12.2471 26.045 11.6669 26.5941 11.1733 27.0571V23.5692H8.2473V24.0086H9.0006V32.3019H8.18572V32.7406H11.9389V32.3019H11.1733V28.5454C11.1733 27.6309 11.6916 26.6675 12.7534 26.6675C13.4448 26.6675 13.8892 27.3258 13.8892 27.9236V32.3016H13.0743V32.7403H16.951V32.7406ZM23.8811 29.4355V28.9604C23.8811 27.4724 22.8072 25.9355 20.5354 25.9355C18.4739 25.9355 16.943 27.1673 16.943 29.5089C16.943 31.8261 18.6347 32.9724 20.6715 32.9724C21.9804 32.9724 23.6221 32.3996 23.8322 30.3997H23.5359C23.5359 30.9117 22.8818 32.3996 21.2767 32.3996C19.3507 32.3996 19.104 30.9725 19.104 29.4355H23.8811ZM21.8566 29.0091H19.1033C19.1033 29.0091 19.0291 26.3258 20.5107 26.3258C22.1159 26.3258 21.8566 29.0091 21.8566 29.0091ZM30.5549 27.5089C30.5549 26.8263 30.1105 26.021 29.2091 26.021C28.0856 26.021 27.3943 26.8753 27.2092 27.1186V26.1673H24.3078V26.5945H24.9623V32.3019H24.1474V32.7406H27.9249V32.3019H27.135V29.4355C27.135 27.9726 27.9745 26.4356 29.1598 26.4356C29.3945 26.4356 29.5057 26.509 29.6415 26.6675C29.2094 26.5333 28.5054 26.9605 28.5054 27.6796C28.5054 28.2531 29.061 28.6552 29.5549 28.6552C30.1102 28.6552 30.5549 28.0818 30.5549 27.5089ZM38.8135 31.131V30.6308H38.4683C38.4683 30.9725 38.4683 32.1921 37.9371 32.1921C37.6035 32.1921 37.4188 31.9846 37.4188 31.6673V29.5332C37.4188 28.3136 37.727 25.9355 34.2455 25.9355C32.1963 25.9355 31.1594 26.7408 31.1594 27.6799C31.1594 27.9729 31.2952 28.7042 32.1963 28.7042C32.6164 28.7042 33.1716 28.2534 33.1716 27.6921C33.1716 26.9851 32.5052 26.6921 32.5052 26.6921C32.8258 26.5336 33.1347 26.4113 33.5917 26.4113C34.4309 26.4113 35.1962 26.8993 35.1962 27.7408C35.1962 29.9847 30.7643 28.2038 30.7643 31.1188C30.7643 31.887 31.209 32.9724 32.937 32.9724C34.6409 32.9724 34.9622 32.302 35.2827 31.8261C35.6782 32.4851 35.9868 32.9481 36.9125 32.9481C38.3079 32.9481 38.8135 32.302 38.8135 31.131ZM35.1223 30.9968C35.1223 31.7285 34.3077 32.3506 33.9376 32.3506C33.3324 32.3506 32.937 31.7038 32.937 31.0698C32.937 29.5572 34.2458 29.667 35.1219 28.9357V30.9968H35.1223ZM43.4362 31.0702V30.6795H43.1026C43.1026 31.1553 43.1026 32.1675 42.3004 32.1675C41.9429 32.1675 41.5474 31.9113 41.5474 31.3017V26.5941H42.7821V26.167H41.5474V23.8862H41.2262C41.0162 24.9474 40.3005 26.167 38.7939 26.167V26.5941H39.6091V31.3017C39.6091 32.1675 40.3001 32.9721 41.5101 32.9721C43.1026 32.9724 43.4362 31.6923 43.4362 31.0702ZM51.1399 29.5089C51.1399 27.6799 50.1399 25.9355 47.3494 25.9355C44.979 25.9355 43.7567 27.4968 43.7567 29.5089C43.7567 31.7528 45.2137 32.9724 47.4729 32.9724C49.4109 32.9724 51.1399 31.887 51.1399 29.5089ZM49.0411 29.3997C49.0411 30.6798 48.7941 32.5088 47.3987 32.5088C45.9294 32.5088 45.7936 30.2405 45.7936 29.5575C45.7936 28.4477 46.0283 26.3501 47.5099 26.3501C48.7695 26.3501 49.0411 28.0213 49.0411 29.3997ZM60 32.7406V32.3019H59.2594V28.3136C59.2594 27.0818 58.3822 25.972 56.642 25.972C55.2962 25.972 54.6174 26.5945 54.222 27.0818V26.1673H51.2957V26.5945H52.0493V32.3019H51.2341V32.7406H55.0122V32.3019H54.2223V28.6796C54.2223 27.7651 54.7775 26.6918 55.7775 26.6918C56.3334 26.6918 56.9629 27.0328 56.9629 27.7894V32.3019H56.1483V32.7406H60Z" fill="#433D3D"/>
</svg>
