<svg width="150" height="53" viewBox="0 0 150 53" fill="none" xmlns="http://www.w3.org/2000/svg">
<path fill-rule="evenodd" clip-rule="evenodd" d="M28.6705 0.353728L28.1349 0.726076C18.4319 0.409102 9.07281 1.4499 2.93044 9.03241C1.14249 11.24 1.29002 15.4313 3.14692 17.8499C5.66688 21.1312 9.45846 21.9473 13.5194 21.8414C21.3768 12.077 31.1824 4.32273 42.5066 1.50126C43.7438 1.19311 44.7083 1.57187 45.2655 1.82224C48.1086 3.10138 43.6219 9.79234 41.7818 11.5289C34.8112 18.1107 26.2034 20.6232 17.4489 22.6294C15.677 25.503 8.25259 37.2993 13.5916 39.1329C17.3615 40.4273 22.65 37.1621 26.3574 33.1152C33.2839 25.5552 30.3823 22.2113 25.7825 23.6879C22.7775 24.6532 19.1198 28.2049 16.219 31.9741L15.8109 31.7567C17.7319 27.4787 24.1589 22.4689 28.284 22.31C31.3909 22.1904 33.2173 25.0609 30.3943 31.9292C33.0097 30.3355 35.8567 28.7739 38.0833 26.673C39.9442 24.9172 41.1917 23.2417 42.7648 21.1777C47.0134 15.6022 50.9188 9.42481 56.8423 5.09149C60.3829 3.1744 60.4583 7.31192 57.4925 11.7391C54.433 16.3076 49.0707 20.7749 47.5049 21.77C45.2254 23.5683 41.9334 25.0456 40.4862 27.9305C42.4232 27.5204 44.9456 23.3781 48.2297 24.9068C50.4578 25.9436 48.9665 28.8453 46.9877 31.6411C43.3846 36.7319 41.4419 38.9114 43.3629 38.7245C44.4004 38.6242 48.4967 35.9648 51.1938 32.4564C53.6296 29.2891 56.5023 26.2854 58.9453 25.2061C61.8205 23.9366 64.0695 24.6283 64.9193 25.7727C65.9135 27.1112 65.0733 28.9207 64.5946 31.3851C64.4671 31.9765 65.3619 31.7213 65.6249 31.5633C69.7909 28.8188 74.2527 25.5969 77.3636 21.2163C78.3129 21.0582 79.3768 21.1665 80.4841 21.1665C79.995 22.7088 75.0986 27.1192 75.5773 28.2234C75.8731 28.9079 78.919 25.9829 81.1488 24.9638C83.9277 23.6935 84.3591 26.1153 82.7218 28.7787C80.974 31.6218 78.0347 35.0235 77.4726 36.5249C77.3668 37.1059 77.4502 38.0303 78.098 37.9597C79.2686 37.8321 80.2131 37.1934 81.156 36.5145C82.4492 35.5844 83.6896 34.4714 85.0309 33.5261C86.4781 29.8556 94.7235 21.3085 99.2896 25.7125C99.5141 25.9291 99.6632 26.3536 99.9952 26.4588C100.553 26.6337 101.223 25.7574 101.645 25.1772C102.053 25.1957 102.805 25.1451 103.471 25.1756C103.848 25.1925 104.438 24.9365 104.679 25.0336C104.921 25.1315 104.675 25.5656 104.495 25.7871C101.304 29.6911 98.4566 32.783 96.643 37.138C96.2894 37.9878 97.1449 38.4741 97.8488 38.0327C100.848 36.1534 102.926 33.4186 104.96 30.6773C106.396 28.7402 107.554 26.9033 108.91 25.0633C109.539 24.2087 107.786 23.4696 108.035 22.3237C108.269 21.2451 109.756 20.8214 110.406 21.3455C111.899 22.5508 110.34 23.5699 110.964 24.2046C112.114 25.3746 114.359 26.1811 113.738 28.4184C113.212 30.3098 110.196 33.9514 109.135 35.3044C106.639 38.4902 110.388 38.4276 114.454 34.4425C115.451 31.5946 121.799 24.5304 126.559 24.8274C127.899 24.9108 129.697 25.2069 130.289 27.0004C135.445 20.9418 141.387 11.8089 146.661 5.20545C147.768 5.41649 149.104 4.77853 150 5.35871C147.949 8.26444 145.591 11.1268 143.385 13.978C139.923 18.455 136.624 23.0491 133.325 27.5991C131.139 30.6123 128.847 33.5261 126.891 36.6629C126.201 37.7711 127.079 38.446 128.044 37.9645C131.249 36.3652 134.041 32.4973 136.127 29.5956L136.88 29.6261C134.543 33.2131 129.637 39.4467 126.563 39.5751C125.313 39.6272 124.34 39.0471 124.005 36.3676C121.341 38.1459 114.11 42.4102 114.038 36.1486C112.22 37.3498 108.951 39.8359 107.068 39.4331C105.78 39.1578 104.839 37.5031 106.595 34.5428C108.221 31.8032 111.38 28.7723 111.508 26.9146C111.562 26.1233 111.162 25.5159 110.031 25.178C108.833 26.4395 98.3748 43.1613 94.746 38.9066C93.8552 37.8209 93.7165 36.3708 93.1849 36.6677C90.8333 37.9798 88.1145 40.3671 85.2538 38.7213C83.983 37.991 84.8161 34.7844 83.9534 35.4424C81.5897 37.2487 77.9136 40.4506 75.6558 39.3817C74.0042 38.5993 74.7723 35.8685 75.6751 34.6303C79.825 28.94 81.1143 27.0919 80.2299 27.0815C79.2269 27.0678 75.449 29.5563 71.7921 33.5742C65.4309 40.5613 58.514 50.7518 56.8888 52.5381C56.3781 53.0493 54.368 53.1304 53.288 52.8102C56.447 48.8636 59.4761 44.6001 62.6792 40.5573C65.5447 36.9406 68.3661 33.6432 70.8244 29.858C71.0344 29.4744 70.5141 29.2201 70.1845 29.4865C68.2635 31.0417 66.3994 32.0913 64.4743 33.1995C63.9107 33.5245 63.2973 33.7219 62.7313 34.1031C62.3978 34.327 62.2101 34.7499 61.9199 34.9778C59.7343 36.6998 58.421 38.1443 55.0423 39.3247C53.4043 39.8961 51.8641 39.7621 50.8723 39.275C49.757 38.7269 49.8284 37.0168 49.6424 36.2625C49.5309 35.8107 49.3882 35.6775 48.92 36.0667C44.7724 39.5197 43.2908 40.339 41.3946 39.6361C39.8095 39.0495 40.1639 37.0955 42.6638 33.3833C44.8229 30.1766 47.8536 27.0389 46.6293 26.0768C45.7634 25.3963 42.3222 27.3158 38.1506 31.6419C34.8946 35.0187 32.3185 38.8898 32.2199 39.0102C31.1127 39.1161 29.7384 39.4017 28.5262 39.2958C28.8573 38.9114 35.0951 30.5144 36.0179 29.4688C28.9383 32.9965 22.3742 42.5418 13.6044 40.1344C6.52558 38.1916 9.77275 28.2186 12.9277 22.879C8.55085 22.5098 3.97755 21.6729 1.24833 17.8483C-0.505145 15.392 -0.299891 11.4535 1.17056 9.17284C6.41013 1.05027 19.588 -0.914971 28.6705 0.353728ZM37.1965 13.0905C32.6673 16.7818 24.7025 20.6842 18.3902 20.9723C21.4465 17.4623 26.0711 12.8337 30.8457 9.23302C31.9698 8.38562 38.7824 4.00576 42.4064 2.77718C43.2435 2.49311 43.8761 2.24113 44.2681 2.3936C44.8486 2.61989 44.5079 3.24662 44.2625 4.14378C43.7606 5.97982 42.0015 9.17364 37.1965 13.0905ZM57.4428 9.70407C54.4867 14.3102 49.1894 19.8874 44.39 22.7377C48.1719 17.3965 51.8064 11.6332 56.5224 7.04148C59.9435 3.71285 58.5364 8.00124 57.4428 9.70407ZM63.5932 29.5459C63.2236 30.4623 61.0371 29.7866 60.3476 30.248C59.6485 30.7167 59.0103 31.93 59.0504 32.9491C59.076 33.6031 60.0854 34.3936 59.618 34.8437C55.8096 38.5102 53.2047 39.299 51.8376 38.775C50.8402 38.3923 51.1417 36.4166 53.8902 32.6057C55.076 30.9614 61.9407 22.956 64.0221 26.084C64.3701 26.6072 64.2955 27.8093 63.5932 29.5459ZM128.894 28.7001C126.97 34.5187 116.713 41.1792 116.112 37.9637C115.632 35.3982 122.342 27.5437 126.495 25.9636C129.062 24.9878 129.608 26.543 128.894 28.7001ZM98.358 29.732C97.46 31.7607 95.6448 33.6681 93.8119 35.1455C90.9969 37.4132 87.9823 39.1209 86.7443 38.3634C84.9981 37.2937 87.8339 32.8023 91.2703 29.5314C93.3822 27.5212 95.7811 25.6403 97.4223 25.629C99.6007 25.613 98.8567 28.6046 98.358 29.732Z" fill="white"/>
</svg>
