<svg width="120" height="77" viewBox="0 0 120 77" fill="none" xmlns="http://www.w3.org/2000/svg">
<path fill-rule="evenodd" clip-rule="evenodd" d="M16.2906 76.842V76.4988H15.7347V70.8996H16.2906V70.5584H13.7175V70.917H14.282V73.399H11.8914V70.8996H12.4559V70.5584H9.88281V70.8996H10.4387V76.4988H9.88281V76.842H12.4393V76.4988H11.8914V73.7496H14.282V76.4988H13.7175V76.842H16.2906ZM23.7252 73.7496C23.7995 71.8118 22.6626 70.3988 20.662 70.3988C19.2424 70.3988 17.6073 71.1667 17.5158 73.7169C17.466 74.9536 18.3131 76.9996 20.662 76.9996C23.036 76.9996 23.6755 74.8948 23.7252 73.7496ZM22.1976 73.7663C22.1976 75.5219 21.7744 76.6824 20.6626 76.6824C19.4839 76.6824 19.0773 75.1786 19.0773 73.7663C19.0773 72.3046 19.3844 70.5751 20.6626 70.5751C21.8991 70.5751 22.1976 72.3787 22.1976 73.7663ZM30.4494 72.9476V70.5584H24.9298V72.9476H25.0957C25.0957 71.0759 26.3155 70.9003 26.7394 70.9003H26.8807V76.4995H26.3162V76.8427H28.8893V76.4995H28.3327V70.9003H28.4992C28.8475 70.9003 30.2836 71.0766 30.2836 72.9476H30.4494ZM37.3262 76.842V74.6277H37.1265C37.1265 75.8564 36.1388 76.4995 35.4503 76.4995H33.6573V73.7763H34.3962C35.0357 73.809 35.4503 74.0595 35.4503 75.1286H35.6413V72.2044H35.4503C35.4503 72.8228 35.0184 73.4825 34.3962 73.4825H33.6573V70.9003H35.0357C36.4963 70.9003 36.7789 71.2682 37.0277 72.8395H37.1849V70.5584H31.6487V70.9003H32.2046V76.4995H31.6487V76.8427H37.3262V76.842ZM43.5316 76.842V74.3433H43.3492C43.1748 75.3042 42.859 76.4995 41.2412 76.4995H40.5354V70.9003H41.0999V70.5584H38.5268V70.9003H39.0827V76.4995H38.5268V76.8427H43.5316V76.842ZM50.08 74.8281C50.08 73.5747 49.2005 72.7293 47.8307 72.6799C46.5352 72.6304 45.5482 72.6304 45.5482 71.7016C45.5482 70.8422 46.4112 70.6832 47.0831 70.6832C48.8429 70.6832 49.3577 72.3199 49.4326 72.6137H49.6728V70.5584H49.4326C49.424 70.75 49.4326 71.0178 49.1998 71.0178C48.8927 71.0178 48.3116 70.3994 47.0002 70.3994C45.722 70.3994 44.8006 71.2682 44.8006 72.4642C44.8006 73.5246 45.6722 74.4361 46.9418 74.4521C48.1544 74.4688 49.2496 74.5356 49.2496 75.5232C49.2496 76.4167 48.295 76.6504 47.4234 76.6671C45.9123 76.6838 45.2404 75.6641 44.9585 74.579H44.7263V76.8434H44.9585C44.9585 76.8434 45.0082 76.3839 45.2822 76.3839C45.7883 76.3839 46.0039 77.001 47.4566 77.001C49.1759 76.9996 50.08 75.9893 50.08 74.8281ZM59.579 75.1452H59.3547C59.3547 75.4464 59.3382 75.9646 58.9395 75.9646C58.5329 75.9646 58.1097 75.3382 58.1097 75.3382C58.2178 75.1452 58.5329 74.5349 58.5329 73.399C58.5329 73.2154 58.4997 73.0404 58.4665 72.8642L58.1263 72.9309C58.1674 73.8257 58.2171 74.5349 57.8603 75.1286L55.8597 73.0899C56.1588 72.8982 56.9555 72.5042 56.9555 71.6775C56.9555 71.1099 56.6238 70.3994 55.5691 70.3994C54.598 70.3994 53.7264 71.0933 53.7264 72.0375C53.7264 72.6465 53.9758 72.9476 54.4401 73.5413C54.0998 73.7002 52.9463 74.2691 52.9463 75.397C52.9463 76.0567 53.4279 76.9996 55.0212 76.9996C56.6145 76.9996 57.1134 76.4988 57.2042 76.432C57.3449 76.5576 57.5943 76.8073 58.1833 76.8073C59.3873 76.8073 59.5279 75.9806 59.5617 75.6961C59.5955 75.4711 59.579 75.1452 59.579 75.1452ZM56.3333 71.6775C56.3333 72.1116 56.192 72.4642 55.6282 72.8568C55.6282 72.8568 54.7731 72.0962 54.7731 71.4365C54.7731 71.0438 55.0796 70.6251 55.5698 70.6251C56.0514 70.6245 56.3333 71.1594 56.3333 71.6775ZM56.9893 76.2143C56.7399 76.4494 56.0182 76.607 55.7854 76.607C54.939 76.607 54.2995 75.8391 54.2995 74.9282C54.2995 74.593 54.4401 74.0334 54.74 73.8585L56.9893 76.2143ZM68.9823 75.3462H68.7754C68.7754 75.7556 68.6507 76.3986 68.3363 76.3986C67.9449 76.3986 68.0278 76.006 67.9621 75.1286C67.8885 73.9506 67.1071 73.767 66.7171 73.7002C66.9824 73.6247 68.1373 73.4992 68.1373 72.1797C68.1373 71.2849 67.7631 70.5584 66.1864 70.5584H62.4591V70.9003H63.0163V76.4995H62.4591V76.8427H65.0335V76.4995H64.4684V73.8424H65.4402C66.4026 73.8424 66.4026 74.2691 66.4026 75.4464C66.4026 76.6831 67.0753 76.9996 67.7141 76.9996C68.7011 76.9996 68.9823 76.3566 68.9823 75.3462ZM66.6839 72.2705C66.6839 73.0231 66.3429 73.4992 65.4388 73.4992H64.467V70.8996H65.5297C66.3768 70.8996 66.6839 71.518 66.6839 72.2705ZM75.8631 76.842V74.6277H75.6647C75.6647 75.8564 74.6764 76.4995 73.9872 76.4995H72.1942V73.7763H72.9338C73.5726 73.809 73.9872 74.0595 73.9872 75.1286H74.1789V72.2044H73.9872C73.9872 72.8228 73.556 73.4825 72.9338 73.4825H72.1942V70.9003H73.5726C75.0339 70.9003 75.3165 71.2682 75.5652 72.8395H75.7218V70.5584H70.1856V70.9003H70.7415V76.4995H70.1856V76.8427H75.8631V76.842ZM82.4175 74.8281C82.4175 73.5747 81.5379 72.7293 80.1681 72.6799C78.8726 72.6304 77.8856 72.6304 77.8856 71.7016C77.8856 70.8422 78.7486 70.6832 79.4205 70.6832C81.1797 70.6832 81.6958 72.3199 81.7694 72.6137H82.0102V70.5584H81.7694C81.7614 70.75 81.7694 71.0178 81.5372 71.0178C81.2301 71.0178 80.6484 70.3994 79.3376 70.3994C78.0587 70.3994 77.138 71.2682 77.138 72.4642C77.138 73.5246 78.0096 74.4361 79.2799 74.4521C80.4911 74.4688 81.5876 74.5356 81.5876 75.5232C81.5876 76.4167 80.6331 76.6504 79.7621 76.6671C78.2517 76.6838 77.5791 75.6641 77.2965 74.579H77.0644V76.8434H77.2965C77.2965 76.8434 77.3456 76.3839 77.6203 76.3839C78.127 76.3839 78.342 77.001 79.794 77.001C81.5133 76.9996 82.4175 75.9893 82.4175 74.8281ZM89.8189 73.7496C89.8939 71.8118 88.7563 70.3988 86.7563 70.3988C85.3361 70.3988 83.7017 71.1667 83.6108 73.7169C83.5604 74.9536 84.4061 76.9996 86.7563 76.9996C89.1297 76.9996 89.7685 74.8948 89.8189 73.7496ZM88.2913 73.7663C88.2913 75.5219 87.8674 76.6824 86.7563 76.6824C85.5776 76.6824 85.1703 75.1786 85.1703 73.7663C85.1703 72.3046 85.4774 70.5751 86.7563 70.5751C87.9921 70.5751 88.2913 72.3787 88.2913 73.7663ZM97.5474 75.3462H97.3404C97.3404 75.7556 97.2157 76.3986 96.9 76.3986C96.5099 76.3986 96.5929 76.006 96.5272 75.1286C96.4522 73.9506 95.6721 73.767 95.2821 73.7002C95.5474 73.6247 96.701 73.4992 96.701 72.1797C96.701 71.2849 96.3282 70.5584 94.7515 70.5584H91.0242V70.9003H91.5814V76.4995H91.0242V76.8427H93.5973V76.4995H93.0334V73.8424H94.0039C94.9664 73.8424 94.9664 74.2691 94.9664 75.4464C94.9664 76.6831 95.639 76.9996 96.2791 76.9996C97.2648 76.9996 97.5474 76.3566 97.5474 75.3462ZM95.2476 72.2705C95.2476 73.0231 94.9067 73.4992 94.0025 73.4992H93.0321V70.8996H94.0948C94.9405 70.8996 95.2476 71.518 95.2476 72.2705ZM104.271 72.9476V70.5584H98.7507V72.9476H98.9165C98.9165 71.0759 100.137 70.9003 100.56 70.9003H100.701V76.4995H100.137V76.8427H102.71V76.4995H102.154V70.9003H102.32C102.668 70.9003 104.104 71.0766 104.104 72.9476H104.271ZM110.824 74.8281C110.824 73.5747 109.944 72.7293 108.573 72.6799C107.279 72.6304 106.292 72.6304 106.292 71.7016C106.292 70.8422 107.155 70.6832 107.827 70.6832C109.586 70.6832 110.101 72.3199 110.176 72.6137H110.417V70.5584H110.176C110.168 70.75 110.176 71.0178 109.944 71.0178C109.637 71.0178 109.055 70.3994 107.744 70.3994C106.465 70.3994 105.545 71.2682 105.545 72.4642C105.545 73.5246 106.416 74.4361 107.686 74.4521C108.898 74.4688 109.994 74.5356 109.994 75.5232C109.994 76.4167 109.04 76.6504 108.169 76.6671C106.657 76.6838 105.984 75.6641 105.703 74.579H105.47V76.8434H105.703C105.703 76.8434 105.752 76.3839 106.027 76.3839C106.532 76.3839 106.748 77.001 108.201 77.001C109.92 76.9996 110.824 75.9893 110.824 74.8281ZM55.999 39.1881C54.795 39.1881 53.8186 39.6803 53.1672 39.8439C52.809 39.942 51.7682 40.2365 50.9218 39.8439C50.7586 39.7784 50.2386 39.7457 50.8568 40.4335C51.02 40.6298 51.345 40.8262 51.7357 41.0232C53.8186 42.0388 55.6733 41.6128 57.9186 40.5978C58.4719 40.3354 59.3833 40.3687 59.3833 40.0736C59.3508 39.7791 58.8951 39.5821 58.5694 39.1234C57.3329 37.3545 55.8039 35.88 53.9479 35.1916C52.9715 34.7989 52.5158 35.0934 52.809 35.3558C53.5254 36.0436 53.8829 37.3217 54.8269 38.4022C55.1207 38.7301 55.5439 39.0573 55.999 39.1881ZM59.1883 38.2386C59.1883 37.5508 60.2297 36.5024 60.4254 35.88C60.6536 36.5031 61.6612 37.5508 61.6612 38.2386C61.6612 38.9264 61.1093 39.4833 60.4254 39.4833C60.2629 39.4834 60.1021 39.4512 59.952 39.3887C59.8019 39.3262 59.6655 39.2345 59.5506 39.119C59.4357 39.0034 59.3446 38.8661 59.2824 38.7151C59.2203 38.564 59.1883 38.4021 59.1883 38.2386ZM59.1883 41.6455C59.1883 42.3333 60.2297 43.4144 60.4254 44.0368C60.6536 43.4144 61.6612 42.3333 61.6612 41.6455C61.6506 41.3224 61.5158 41.0162 61.285 40.7914C61.0543 40.5666 60.7458 40.4409 60.4247 40.4409C60.1036 40.4409 59.7951 40.5666 59.5644 40.7914C59.3336 41.0162 59.1988 41.3224 59.1883 41.6455Z" fill="white"/>
<path fill-rule="evenodd" clip-rule="evenodd" d="M49.4426 36.6815C48.3902 36.3163 47.3991 36.4074 46.7483 36.3467C46.4074 36.2859 45.4479 36.2555 44.828 35.6769C44.7042 35.5554 44.2705 35.342 44.5799 36.1637C44.6424 36.346 44.8583 36.5904 45.1373 36.8942C46.6549 38.4154 48.389 38.6281 50.6193 38.4458C51.2076 38.4154 52.1678 38.6281 52.2297 38.3547C52.2922 38.1116 51.8269 37.8678 51.6723 37.4114C51.1458 35.525 50.3093 33.7911 48.9161 32.6345C48.204 32.0262 47.6775 32.1477 47.8631 32.4522C48.2665 33.2435 48.1731 34.4298 48.6686 35.6465C48.8233 36.0124 49.1023 36.4074 49.4426 36.6815Z" fill="white"/>
<path fill-rule="evenodd" clip-rule="evenodd" d="M44.5071 32.1317C43.6832 31.5467 42.7374 31.3799 42.1883 31.1853C41.8531 31.0463 41.0292 30.7677 40.6331 30.1278C40.5416 29.9882 40.2059 29.7102 40.2363 30.4614C40.2668 30.6282 40.3893 30.9067 40.5721 31.2687C41.4875 32.8835 43.0128 33.5234 45.0879 33.9132C45.6065 34.0522 46.4305 34.442 46.5524 34.2468C46.7047 34.08 46.308 33.7459 46.3384 33.3005C46.3689 31.6023 46.0941 29.932 45.1482 28.6237C44.721 27.9003 44.2024 27.8725 44.2938 28.2061C44.4163 28.9578 44.0196 29.932 44.111 31.073C44.1409 31.4361 44.2938 31.8253 44.5071 32.1317Z" fill="white"/>
<path fill-rule="evenodd" clip-rule="evenodd" d="M41.6913 27.0298C41.074 26.1135 40.2288 25.6046 39.7744 25.1973C39.4817 24.9601 38.767 24.3495 38.6371 23.5011C38.5716 23.3317 38.345 22.9251 38.1172 23.7728C38.1172 23.9761 38.1172 24.3157 38.1821 24.7561C38.5067 26.8936 39.7744 28.0815 41.6264 29.2004C42.1146 29.5392 42.7644 30.2183 42.9591 30.0827C43.1539 29.9126 42.8942 29.4376 43.0565 28.9625C43.7063 27.063 43.999 25.095 43.544 23.331C43.3486 22.3808 42.8618 22.2107 42.8618 22.5841C42.6988 23.4665 41.9841 24.4166 41.6913 25.7395C41.5946 26.1136 41.5946 26.6225 41.6913 27.0298Z" fill="white"/>
<path fill-rule="evenodd" clip-rule="evenodd" d="M40.7532 20.6255C40.508 19.6272 39.842 18.8703 39.5618 18.3196C39.4218 18.0095 38.9308 17.2182 39.1059 16.3918C39.1059 16.2543 39.0358 15.7724 38.5449 16.4613C38.4398 16.6332 38.3348 16.9776 38.229 17.3557C37.8088 19.3515 38.6149 20.8661 39.947 22.5525C40.2979 23.0001 40.6481 23.8945 40.8589 23.7914C41.1041 23.7227 41.069 23.2063 41.3849 22.8619C42.612 21.3824 43.5939 19.7303 43.734 18.0095C43.8741 17.1144 43.4881 16.7363 43.3831 17.08C42.9271 17.837 41.8752 18.422 41.2091 19.4897C40.964 19.7647 40.7532 20.2467 40.7532 20.6255Z" fill="white"/>
<path fill-rule="evenodd" clip-rule="evenodd" d="M41.5703 14.7823C41.5703 13.8553 41.1811 13.0567 41.0395 12.5447C40.9688 12.2255 40.7557 11.4588 41.1103 10.8192C41.1457 10.6596 41.1811 10.244 40.5434 10.7234C40.4373 10.8511 40.2596 11.1071 40.0473 11.4263C39.1612 13.0248 39.5158 14.5263 40.3304 16.2525C40.5434 16.7 40.6496 17.5305 40.8619 17.4986C41.1096 17.4986 41.2165 17.0511 41.5696 16.7958C43.0933 15.805 44.4047 14.6539 45.007 13.2163C45.3609 12.4815 45.0778 12.0659 44.9009 12.3213C44.2986 12.8646 43.2002 13.1206 42.2795 13.9192C41.9603 14.0788 41.6772 14.4624 41.5703 14.7823Z" fill="white"/>
<path fill-rule="evenodd" clip-rule="evenodd" d="M43.7967 9.35295C44.0625 8.41722 43.9447 7.51486 43.9735 6.94688C43.9735 6.61318 44.003 5.77824 44.4456 5.20958C44.534 5.11015 44.6524 4.70835 44.0619 5.00936C43.914 5.0761 43.7078 5.277 43.472 5.57734C42.3211 6.94688 42.2327 8.5507 42.4396 10.4889C42.4985 11.0235 42.3806 11.8591 42.5568 11.8925C42.7637 11.9592 42.9411 11.5247 43.3241 11.3579C44.7697 10.7899 46.1269 9.9543 46.9531 8.68487C47.4252 8.01678 47.3362 7.54891 47.101 7.74913C46.4811 8.11689 45.537 8.11689 44.5929 8.6515C44.2983 8.75161 43.9735 9.05194 43.7967 9.35295Z" fill="white"/>
<path fill-rule="evenodd" clip-rule="evenodd" d="M47.1363 5.41819C47.6663 4.75006 47.8638 4.01837 48.0297 3.57274C48.1625 3.35025 48.4268 2.68148 49.0221 2.42721C49.1543 2.33186 49.3862 2.04515 48.7248 2.10872C48.592 2.10872 48.2946 2.20407 47.9973 2.33186C46.5417 3.03241 45.9463 4.24087 45.5162 5.83203C45.4171 6.24653 45.053 6.88286 45.2182 6.97821C45.384 7.07357 45.6814 6.81929 46.0454 6.81929C47.6002 6.85108 49.1219 6.65972 50.2465 5.92803C50.8749 5.57776 50.9409 5.19634 50.6766 5.25991C49.9822 5.35527 49.1219 5.03742 48.0964 5.10099C47.7647 5.09969 47.4006 5.22748 47.1363 5.41819Z" fill="white"/>
<path fill-rule="evenodd" clip-rule="evenodd" d="M51.3111 2.30815C51.8485 1.90612 52.1326 1.36072 52.3859 1.04471C52.5122 0.901336 52.8601 0.412697 53.3975 0.297998C53.5238 0.269323 53.7448 0.0680136 53.2081 0.0112493C53.0811 -0.0174255 52.8601 0.011249 52.576 0.0685985C51.2479 0.355931 50.5211 1.21734 49.8889 2.42285C49.7304 2.7096 49.2877 3.16898 49.4456 3.25559C49.5403 3.34103 49.8567 3.16957 50.1725 3.25559C51.4058 3.54234 52.7016 3.62895 53.7764 3.22692C54.3454 3.05487 54.4717 2.76754 54.2507 2.79621C53.6495 2.73886 53.0174 2.3655 52.132 2.2508C51.8581 2.19658 51.5726 2.21652 51.3111 2.30815Z" fill="white"/>
<path fill-rule="evenodd" clip-rule="evenodd" d="M57.5911 1.01151C57.1468 1.90918 56.0213 2.1973 55.6806 2.29334C55.4074 2.38938 54.2477 2.67815 53.3947 2.13327C53.8383 1.2356 54.9638 0.946826 55.2711 0.85144C55.5777 0.78676 56.7033 0.466628 57.5911 1.01151ZM67.2095 10.1464C67.9589 10.4031 68.6083 10.0823 68.8808 9.50545C69.0164 9.24934 69.0845 9.08863 69.0845 8.83252H70.0745V16.3648H69.3577C68.13 13.2236 65.0599 10.1784 61.4781 9.44142C57.931 8.92856 53.8042 8.99259 51.7582 11.9097C51.1783 12.7113 51.4849 14.346 52.5764 14.9229C56.2263 17.0057 60.2169 16.0446 65.0606 16.6855C67.5168 17.0063 70.2108 18.3202 71.303 20.8845C72.3604 23.3528 72.156 25.8844 71.0979 27.5517C68.609 31.558 63.9691 31.9428 61.0025 31.9428C57.8984 31.9428 54.7942 30.5969 52.3387 29.7633C51.5878 29.5065 50.9399 29.8273 50.6673 30.4042C50.5311 30.6609 50.4623 30.853 50.4623 31.0778H49.473V23.1287C49.7455 23.1287 50.0521 23.1287 50.4616 23.1607C51.4168 26.8148 54.4869 29.5065 57.5563 30.3401C61.104 31.3339 64.6518 31.1738 67.4139 29.3464C68.5054 28.6415 68.9156 27.1029 68.5054 25.7564C67.8915 23.7369 64.5822 23.1921 62.1955 23.1601C57.0787 23.0313 50.8717 23.096 49.0294 17.8067C48.3133 15.275 48.7562 12.4859 50.7007 10.5946C53.9071 7.64607 59.2965 7.54938 63.3892 8.73517C64.8548 9.0246 65.8448 9.76155 67.2095 10.1464ZM64.8207 39.6351C66.0832 39.6351 67.1059 40.1166 67.8227 40.2766C68.1974 40.3727 69.2555 40.6608 70.1419 40.2766C70.3116 40.2126 70.8573 40.1806 70.2101 40.8535C70.0404 41.0456 69.6984 41.2377 69.2896 41.4304C67.1059 42.4241 65.1628 42.0073 62.8428 41.0143C62.2289 40.7575 61.2744 40.7902 61.3084 40.5014C61.3084 40.2133 61.7867 40.0205 62.1274 39.5717C63.4226 37.841 65.0265 36.3985 66.971 35.7249C67.9937 35.3407 68.4713 35.6289 68.1647 35.8856C67.4139 36.5585 67.0732 37.809 66.0506 38.8661C65.7419 39.1869 65.299 39.507 64.8207 39.6351Z" fill="white"/>
<path fill-rule="evenodd" clip-rule="evenodd" d="M70.5586 36.6815C71.6114 36.3163 72.6024 36.4074 73.2525 36.3467C73.5927 36.2859 74.5837 36.2555 75.1732 35.6769C75.2963 35.5554 75.7306 35.342 75.4213 36.1637C75.3582 36.346 75.1417 36.5904 74.8627 36.8942C73.3453 38.4154 71.6121 38.6281 69.3814 38.4458C68.7932 38.4154 67.864 38.6281 67.7713 38.3547C67.7094 38.1116 68.1746 37.8678 68.3286 37.4114C68.855 35.525 69.6907 33.7911 71.085 32.6345C71.7976 32.0262 72.324 32.1477 72.1378 32.4522C71.7345 33.2435 71.8286 34.4298 71.3331 35.6465C71.1606 36.0461 70.8954 36.4006 70.5586 36.6815Z" fill="white"/>
<path fill-rule="evenodd" clip-rule="evenodd" d="M76.1888 32.1317C77.0136 31.5467 77.9616 31.3799 78.5116 31.1853C78.8486 31.0463 79.7039 30.7677 80.0701 30.1278C80.1623 29.9882 80.4987 29.7102 80.4682 30.4614C80.4377 30.6282 80.3149 30.9067 80.1324 31.2687C79.2149 32.8835 77.6869 33.5234 75.6089 33.9132C75.0894 34.0522 74.2647 34.442 74.142 34.2468C74.0205 34.08 74.3868 33.7459 74.3562 33.3005C74.3257 31.6023 74.601 29.932 75.5485 28.6237C76.0069 27.9003 76.4959 27.8725 76.4037 28.2061C76.2823 28.9578 76.6784 29.932 76.5875 31.073C76.5479 31.4496 76.4114 31.8123 76.1888 32.1317Z" fill="white"/>
<path fill-rule="evenodd" clip-rule="evenodd" d="M79.0053 27.0298C79.6219 26.1135 80.4653 25.6046 80.9523 25.1973C81.2109 24.9601 81.9254 24.3495 82.0881 23.5011C82.1205 23.3317 82.3481 22.9251 82.575 23.7728C82.6075 23.9761 82.575 24.3157 82.5426 24.7561C82.2171 26.8936 80.9198 28.0815 79.0695 29.2004C78.5826 29.5392 77.9336 30.2183 77.7709 30.0827C77.5757 29.9126 77.8033 29.4376 77.6405 28.9625C77.024 27.063 76.6998 25.095 77.1549 23.331C77.3812 22.3808 77.8357 22.2107 77.8357 22.5841C77.9984 23.4665 78.7453 24.4166 79.0053 25.7395C79.1343 26.1136 79.1343 26.6225 79.0053 27.0298Z" fill="white"/>
<path fill-rule="evenodd" clip-rule="evenodd" d="M79.9523 20.6255C80.2317 19.6272 80.8621 18.8703 81.1429 18.3196C81.2837 18.0095 81.774 17.2182 81.5996 16.3918C81.5996 16.2543 81.7039 15.7724 82.1956 16.4613C82.3 16.6332 82.3715 16.9776 82.4765 17.3557C82.8967 19.3515 82.0899 20.8661 80.7935 22.5525C80.4083 23.0001 80.0581 23.8945 79.8472 23.7914C79.6014 23.7227 79.6714 23.2063 79.3556 22.8619C78.0935 21.3824 77.1472 19.7303 76.9714 18.0095C76.8321 17.1144 77.2173 16.7363 77.3216 17.08C77.7783 17.837 78.8303 18.422 79.4963 19.4897C79.7765 19.7647 79.9523 20.2467 79.9523 20.6255Z" fill="white"/>
<path fill-rule="evenodd" clip-rule="evenodd" d="M79.1519 14.7823C79.1165 13.8553 79.5071 13.0567 79.6487 12.5447C79.7194 12.2255 79.9671 11.4588 79.6133 10.8192C79.5425 10.6596 79.5079 10.244 80.1448 10.7234C80.2856 10.8511 80.4285 11.1071 80.6416 11.4263C81.5622 13.0248 81.1716 14.5263 80.3932 16.2525C80.1801 16.7 80.0379 17.5305 79.8263 17.4986C79.5779 17.4986 79.5079 17.0511 79.1172 16.7958C77.629 15.805 76.2837 14.6539 75.6815 13.2163C75.363 12.4815 75.6107 12.0659 75.8223 12.3213C76.3891 12.8646 77.5228 13.1206 78.4442 13.9192C78.7273 14.0788 79.0465 14.4624 79.1519 14.7823Z" fill="white"/>
<path fill-rule="evenodd" clip-rule="evenodd" d="M76.9049 9.35295C76.6391 8.41722 76.7566 7.51486 76.7566 6.94688C76.7271 6.61318 76.6976 5.77824 76.254 5.20958C76.195 5.11015 76.0467 4.70835 76.6687 5.00936C76.7862 5.0761 76.9935 5.277 77.2303 5.57734C78.3838 6.94688 78.4724 8.5507 78.2651 10.4889C78.2061 11.0235 78.3254 11.8591 78.1476 11.8925C77.9403 11.9592 77.7625 11.5247 77.4081 11.3579C75.9298 10.7899 74.569 9.9543 73.7415 8.68487C73.2684 8.01678 73.386 7.54891 73.5933 7.74913C74.2146 8.11689 75.1614 8.11689 76.1076 8.6515C76.4023 8.75161 76.7271 9.05194 76.9049 9.35295Z" fill="white"/>
<path fill-rule="evenodd" clip-rule="evenodd" d="M73.0865 4.93818C72.6534 4.36681 72.4798 3.74108 72.335 3.35998C72.2202 3.16915 71.9601 2.59778 71.4693 2.37921C71.3546 2.29822 71.1522 2.05303 71.7289 2.1074C71.8448 2.1074 72.0761 2.18894 72.3644 2.29822C73.6343 2.89733 74.154 3.93079 74.5012 5.2921C74.5871 5.6732 74.9331 6.19021 74.7895 6.27175C74.6448 6.38048 74.3847 6.13584 74.0392 6.13584C72.7104 6.19021 71.3828 5.99938 70.4001 5.40083C69.8234 5.07409 69.7945 4.74791 69.9964 4.80227C70.6319 4.88382 71.3822 4.61145 72.2767 4.66581C72.5368 4.66581 72.884 4.77509 73.0865 4.93818Z" fill="white"/>
<path fill-rule="evenodd" clip-rule="evenodd" d="M69.3945 2.31466C68.857 1.91139 68.5727 1.36431 68.3182 1.01857C68.1925 0.874757 67.8451 0.413965 67.3076 0.270151C67.1806 0.241388 66.9589 0.0682226 67.4964 0.0112839C67.6234 -0.017479 67.8767 0.0112836 68.1293 0.0688093C69.4576 0.357025 70.1846 1.22109 70.8168 2.40212C70.9754 2.71852 71.4175 3.15055 71.259 3.23742C71.1649 3.35189 70.8484 3.17931 70.5326 3.26619C69.2991 3.55381 68.0024 3.61134 66.9589 3.23742C66.3583 3.06485 66.2326 2.74787 66.453 2.77663C67.055 2.71852 67.6866 2.3446 68.5727 2.22896C68.8254 2.17026 69.1727 2.22779 69.3945 2.31466Z" fill="white"/>
<path fill-rule="evenodd" clip-rule="evenodd" d="M62.7129 1.00954C63.1383 1.90158 64.2149 2.18789 64.5424 2.28332C64.804 2.37876 65.9145 2.66572 66.7307 2.12426C66.3053 1.23223 65.2275 0.945271 64.9339 0.850484C64.6403 0.786211 63.5624 0.468089 62.7129 1.00954ZM15.9261 58.8387C15.9261 55.2277 13.3083 52.7951 9.23461 52.651C5.38258 52.5062 2.44463 52.5062 2.44463 49.8333C2.44463 47.3533 5.01243 46.8956 7.01234 46.8956C12.2471 46.8956 13.7777 51.6154 14 52.4581H14.7164V46.5339H14C13.9754 47.0884 14 47.859 13.3083 47.859C12.3949 47.859 10.6666 46.0775 6.76535 46.0775C2.96325 46.0775 0.22236 48.5816 0.22236 52.0244C0.22236 55.083 2.81479 57.7078 6.59225 57.7558C10.1973 57.8039 13.4568 57.9954 13.4568 60.837C13.4568 63.4138 10.6174 64.0884 8.02428 64.1364C3.53047 64.1832 1.53056 61.2467 0.691048 58.1161H0V64.6415H0.691714C0.691714 64.6415 0.83951 63.3177 1.65439 63.3177C3.16098 63.3177 3.80276 65.0992 8.12347 65.0992C13.2351 65.0992 15.9261 62.1855 15.9261 58.8387ZM33.902 64.6415V63.7754H32.3215V55.949C32.3215 53.6371 30.4201 51.422 27.1366 51.422C24.4943 51.422 23.3339 52.5062 22.3465 53.4203V46.5339H16.4946V47.4013H18.0012V63.7754H16.3714V64.6415H23.8778V63.7754H22.3465V56.3587C22.3465 54.5532 23.3831 52.651 25.5069 52.651C26.8896 52.651 27.7784 53.9507 27.7784 55.131V63.7748H26.1486V64.6409H33.902V64.6415ZM47.7622 58.1161V57.178C47.7622 54.2403 45.6145 51.2058 41.0707 51.2058C36.9478 51.2058 33.886 53.6378 33.886 58.2609C33.886 62.836 37.2693 65.0992 41.343 65.0992C43.9608 65.0992 47.2442 63.9683 47.6643 60.0197H47.0718C47.0718 61.0305 45.7636 63.9683 42.5534 63.9683C38.7013 63.9683 38.208 61.1506 38.208 58.1161H47.7622ZM43.7131 57.2741H38.2067C38.2067 57.2741 38.0582 51.9764 41.0215 51.9764C44.2317 51.9764 43.7131 57.2741 43.7131 57.2741ZM61.1098 54.3123C61.1098 52.9645 60.221 51.3746 58.4182 51.3746C56.1713 51.3746 54.7885 53.0613 54.4184 53.5417V51.6635H48.6157V52.5068H49.9246V63.7754H48.2948V64.6415H55.8497V63.7754H54.2699V58.1161C54.2699 55.2277 55.9489 52.1932 58.3196 52.1932C58.789 52.1932 59.0114 52.338 59.283 52.651C58.4188 52.3861 57.0108 53.2294 57.0108 54.6493C57.0108 55.7815 58.1219 56.5755 59.1099 56.5755C60.2204 56.5755 61.1098 55.4433 61.1098 54.3123ZM77.6271 61.4635V60.4761H76.9367C76.9367 61.1506 76.9367 63.5586 75.8741 63.5586C75.2071 63.5586 74.8376 63.1489 74.8376 62.5224V58.309C74.8376 55.901 75.454 51.2058 68.491 51.2058C64.3926 51.2058 62.3188 52.7957 62.3188 54.6499C62.3188 55.2284 62.5904 56.6723 64.3926 56.6723C65.2328 56.6723 66.3433 55.7822 66.3433 54.6739C66.3433 53.2781 65.0104 52.6996 65.0104 52.6996C65.6516 52.3867 66.2694 52.1452 67.1834 52.1452C68.8618 52.1452 70.3923 53.1087 70.3923 54.77C70.3923 59.2003 61.5286 55.6841 61.5286 61.4395C61.5286 62.9561 62.418 65.0992 65.8739 65.0992C69.2819 65.0992 69.9243 63.7754 70.5654 62.836C71.3564 64.1371 71.9735 65.0512 73.825 65.0512C76.6158 65.0512 77.6271 63.7754 77.6271 61.4635ZM70.2446 61.1987C70.2446 62.6432 68.6155 63.8715 67.8752 63.8715C66.6648 63.8715 65.8739 62.5945 65.8739 61.3428C65.8739 58.3563 68.4916 58.5732 70.2439 57.1293V61.1987H70.2446ZM86.8723 61.3434V60.5722H86.2052C86.2052 61.5116 86.2052 63.5099 84.6008 63.5099C83.8858 63.5099 83.0948 63.0042 83.0948 61.8005V52.5062H85.5641V51.6628H83.0948V47.1598H82.4524C82.0323 49.2548 80.601 51.6628 77.5878 51.6628V52.5062H79.2182V61.8005C79.2182 63.5099 80.6003 65.0986 83.0203 65.0986C86.2052 65.0992 86.8723 62.5718 86.8723 61.3434ZM102.28 58.2609C102.28 54.6499 100.28 51.2058 94.6989 51.2058C89.9581 51.2058 87.5134 54.2883 87.5134 58.2609C87.5134 62.6912 90.4274 65.0992 94.9459 65.0992C98.8219 65.0992 102.28 62.9561 102.28 58.2609ZM98.0822 58.0454C98.0822 60.5728 97.5882 64.1838 94.7974 64.1838C91.8588 64.1838 91.5872 59.7054 91.5872 58.357C91.5872 56.1659 92.0565 52.0244 95.0198 52.0244C97.5389 52.0244 98.0822 55.3238 98.0822 58.0454ZM120 64.6415V63.7754H118.519V55.901C118.519 53.469 116.764 51.2778 113.284 51.2778C110.592 51.2778 109.235 52.5068 108.444 53.469V51.6635H102.591V52.5068H104.099V63.7754H102.468V64.6415H110.024V63.7754H108.445V56.6236C108.445 54.8181 109.555 52.699 111.555 52.699C112.667 52.699 113.926 53.3722 113.926 54.8661V63.7754H112.297V64.6415H120Z" fill="white"/>
</svg>
