<svg width="100" height="69" viewBox="0 0 100 69" fill="none" xmlns="http://www.w3.org/2000/svg">
<path fill-rule="evenodd" clip-rule="evenodd" d="M40.3903 31.5439C41.9118 20.2928 46.9277 0.000183105 56.4938 0.000183105C67.6616 0.000183105 80.7834 37.5141 80.7802 68.5718H70.4815C70.4815 35.9969 62.5027 6.64603 56.7616 6.64476C50.7729 6.64413 45.5244 26.6097 45.5244 64.6483H35.2397C35.2397 26.6097 30.023 6.64476 24.0023 6.64476C18.2717 6.64476 10.2986 36.0024 10.2986 68.5718H0C0.00966961 37.4872 13.0982 -0.00363159 24.2861 0.000183105C33.8389 0.0033493 38.8565 20.2902 40.3903 31.5439Z" fill="#021C27"/>
<path fill-rule="evenodd" clip-rule="evenodd" d="M22.3633 56.1597H81.0084V43.9833H22.3633V56.1597Z" fill="white"/>
<path fill-rule="evenodd" clip-rule="evenodd" d="M76.3145 54.8877H79.2995V45.0672H76.3145V54.8877Z" fill="#021C27"/>
<path fill-rule="evenodd" clip-rule="evenodd" d="M90.2781 45.0674H92.311L91.6206 47.7437H90.1426L90.2781 45.0674Z" fill="#021C27"/>
<path fill-rule="evenodd" clip-rule="evenodd" d="M95.8119 46.5217C97.7977 46.5217 99.6632 47.0227 99.6721 48.9721H96.8375C96.8375 48.3005 96.4456 47.9953 95.7839 47.9953C95.3913 47.9953 94.8606 48.1584 94.8606 48.7738C94.8613 49.795 96.4761 49.5907 97.8473 49.9978C99.0791 50.3632 99.933 51.0981 99.933 52.2849C99.933 54.103 98.5065 55.1088 95.8119 55.1195C92.9862 55.1308 91.923 54.1122 91.9141 52.2849H94.7862C94.7862 52.9746 95.215 53.3852 95.8208 53.3852C96.5461 53.3852 96.8751 53.1098 96.8751 52.5971C96.8751 51.5296 94.895 51.5572 93.7274 51.1752C92.9334 50.9149 92.2118 50.3264 92.2118 49.0767C92.2118 48.0326 92.9951 46.5217 95.8119 46.5217Z" fill="#021C27"/>
<path fill-rule="evenodd" clip-rule="evenodd" d="M34.68 51.9115C34.1847 53.8638 32.5651 55.1294 30.5452 55.1299C28.1065 55.1299 26.2514 53.2844 26.2539 50.6139C26.2558 47.9468 27.9047 46.1011 30.5452 46.0986C32.7346 46.0967 34.2421 47.3687 34.6947 49.3237L31.9013 49.3239C31.6871 48.7364 31.2755 48.2781 30.5452 48.2776C29.3127 48.2773 28.9876 49.5836 28.9882 50.6139C28.9884 51.6448 29.3127 52.9504 30.5452 52.9504C31.2725 52.9504 31.6833 52.4961 31.8983 51.9118L34.68 51.9115Z" fill="#021C27"/>
<path fill-rule="evenodd" clip-rule="evenodd" d="M14.0856 45.0681H17.6519L19.2044 50.8696L20.7567 45.0681H24.3256L25.885 55.1299H22.9425L22.1653 49.2496L20.5571 55.1299H17.8515L16.2437 49.2496L15.466 55.1299H12.5215L14.0856 45.0681Z" fill="#021C27"/>
<path fill-rule="evenodd" clip-rule="evenodd" d="M59.8299 50.0771C59.8299 50.4204 59.8299 54.8896 59.8299 54.8896H56.8789V46.3099H59.8299V46.9802C60.5769 46.3982 61.252 46.0989 62.7835 46.0989C64.4467 46.0989 65.7867 47.2104 65.7873 48.3773V54.8896H62.8153V50.1671C62.8166 49.3827 62.1141 48.7431 61.3494 48.7431C60.3657 48.7431 59.8764 49.6136 59.8299 50.0771Z" fill="#021C27"/>
<path fill-rule="evenodd" clip-rule="evenodd" d="M86.1583 47.1604V45.067H89.143V54.8874H86.1583V54.4109C85.7664 54.7649 85.2522 55.1265 83.9657 55.1265C82.5182 55.1265 80.2187 54.3222 80.2168 50.8672C80.2149 47.4172 82.5156 46.5217 84.1521 46.5217C85.3407 46.5217 85.9019 46.932 86.1583 47.1604ZM83.0609 50.8672C83.0609 52.2101 83.6857 53.0681 84.7121 53.0681C85.3273 53.0681 85.8421 52.7999 86.1596 52.2404V49.6643C86.0005 49.0956 85.4482 48.6763 84.7121 48.6761C83.6838 48.6755 83.0609 49.5245 83.0609 50.8672Z" fill="#021C27"/>
<path fill-rule="evenodd" clip-rule="evenodd" d="M46.9707 50.6151C46.9732 47.948 48.7028 46.1018 51.4727 46.0993C54.2437 46.0969 55.973 47.948 55.975 50.6151C55.9774 53.2852 54.243 55.1304 51.4727 55.1304C48.7056 55.1306 46.9685 53.2852 46.9707 50.6151ZM53.183 50.6151C53.1836 49.5844 52.8267 48.2786 51.4727 48.2786C50.119 48.2779 49.7621 49.5844 49.7623 50.6151C49.763 51.6456 50.119 52.9514 51.4727 52.9514C52.8267 52.9514 53.183 51.6456 53.183 50.6151Z" fill="#021C27"/>
<path fill-rule="evenodd" clip-rule="evenodd" d="M35.7188 45.0681H40.847C44.0554 45.0681 46.2421 47.061 46.2421 50.0989C46.2421 53.1366 44.0559 55.1299 40.847 55.1299H35.7188V45.0681ZM39.1112 52.7513H40.6616C41.6662 52.7513 42.889 52.1387 42.889 50.0989C42.889 48.0616 41.6662 47.4467 40.6616 47.4467H39.1112V52.7513Z" fill="#021C27"/>
<path fill-rule="evenodd" clip-rule="evenodd" d="M71.112 46.0998C73.2301 46.098 74.9761 46.877 75.1122 48.5873V54.8881H72.1249V54.0386C71.3996 54.6601 70.6768 55.1265 69.3711 55.1265C67.8505 55.1265 66.625 53.9242 66.625 52.515C66.625 51.1055 67.4929 49.5397 70.9675 49.5405C71.8634 49.5406 72.1243 49.1882 72.1249 48.7685C72.1262 48.253 71.5319 47.9654 71.0344 47.9654C70.5368 47.9654 69.9724 48.1727 69.9724 48.7115H67.1741C67.1741 47.4472 68.0242 46.1028 71.112 46.0998ZM70.9465 50.9345C70.2575 50.9345 69.6199 51.3024 69.6199 52.007C69.6199 52.4633 69.8897 52.8572 70.5941 52.857C71.2679 52.857 71.9868 52.4573 72.1249 51.6287V50.8438C71.8971 50.9683 71.3818 50.9345 70.9465 50.9345Z" fill="#021C27"/>
</svg>
