<svg width="132" height="41" viewBox="0 0 132 41" fill="none" xmlns="http://www.w3.org/2000/svg">
<path d="M9.44283 11.2856H11.9928L7.29783 0.785644H4.89783L0.217832 11.2856H2.70783L3.63783 9.03564H8.51283L9.44283 11.2856ZM4.41783 7.19064L6.08283 3.17064L7.74783 7.19064H4.41783ZM13.9831 3.21564L13.8631 6.45564C13.7881 7.98564 13.6981 9.38064 12.5881 9.38064C12.4831 9.38064 12.3631 9.36564 12.2431 9.35064L12.1231 11.2706C12.5881 11.3906 12.9781 11.4506 13.3381 11.4506C15.3331 11.4506 15.7981 9.44064 15.9181 6.56064L15.9931 5.13564H18.5431V11.2856H20.8831V3.21564H13.9831ZM32.9734 11.2856L32.9434 3.21564H30.7534L28.0084 7.88064L25.4284 3.21564H22.9834V11.2856H25.0984V6.44064L27.4534 10.5056H28.4434L30.8584 6.45564V11.2856H32.9734ZM38.1998 3.09564C36.9098 3.09564 35.6048 3.44064 34.7198 4.07064L35.5598 5.70564C36.1448 5.24064 37.0298 4.95564 37.8848 4.95564C39.1448 4.95564 39.7448 5.54064 39.7448 6.54564H37.8848C35.4248 6.54564 34.4198 7.53564 34.4198 8.96064C34.4198 10.3556 35.5448 11.4056 37.4348 11.4056C38.6198 11.4056 39.4598 11.0156 39.8948 10.2806V11.2856H42.0848V6.68064C42.0848 4.23564 40.6598 3.09564 38.1998 3.09564ZM38.0198 9.83064C37.1948 9.83064 36.6998 9.44064 36.6998 8.85564C36.6998 8.31564 37.0448 7.91064 38.1398 7.91064H39.7448V8.73564C39.4748 9.47064 38.7998 9.83064 38.0198 9.83064ZM49.1293 7.08564C49.9093 6.74064 50.4193 6.09564 50.4193 5.33064C50.4193 3.90564 48.7843 3.06564 46.6093 3.06564C45.5443 3.06564 44.4343 3.32064 43.3393 3.80064L43.9093 5.42064C44.8093 5.06064 45.6493 4.86564 46.4593 4.86564C47.4943 4.86564 48.0493 5.16564 48.0493 5.67564C48.0493 6.17064 47.5993 6.44064 46.7743 6.44064H45.3343V7.89564H46.9843C47.8243 7.89564 48.2743 8.16564 48.2743 8.69064C48.2743 9.29064 47.5843 9.63564 46.5043 9.63564C45.5143 9.63564 44.5243 9.42564 43.6843 9.02064L43.0543 10.6556C44.1043 11.1806 45.3643 11.4356 46.6093 11.4356C48.9043 11.4356 50.6443 10.4606 50.6443 8.88564C50.6443 8.01564 50.0893 7.38564 49.1293 7.08564ZM52.1672 11.2856H54.4922V8.27064H58.0022V11.2856H60.3422V3.21564H58.0022V6.36564H54.4922V3.21564H52.1672V11.2856ZM65.5672 3.09564C64.2772 3.09564 62.9722 3.44064 62.0872 4.07064L62.9272 5.70564C63.5122 5.24064 64.3972 4.95564 65.2522 4.95564C66.5122 4.95564 67.1122 5.54064 67.1122 6.54564H65.2522C62.7922 6.54564 61.7872 7.53564 61.7872 8.96064C61.7872 10.3556 62.9122 11.4056 64.8022 11.4056C65.9872 11.4056 66.8272 11.0156 67.2622 10.2806V11.2856H69.4522V6.68064C69.4522 4.23564 68.0272 3.09564 65.5672 3.09564ZM65.3872 9.83064C64.5622 9.83064 64.0672 9.44064 64.0672 8.85564C64.0672 8.31564 64.4122 7.91064 65.5072 7.91064H67.1122V8.73564C66.8422 9.47064 66.1672 9.83064 65.3872 9.83064ZM74.6499 3.21564C72.2799 3.21564 70.7949 4.26564 70.7949 6.18564C70.7949 7.37064 71.4099 8.21064 72.5199 8.64564L70.6749 11.2856H73.1649L74.6949 8.97564H76.4199V11.2856H78.5049V3.21564H74.6499ZM74.6949 5.12064H76.4199V7.41564H74.6649C73.6899 7.41564 73.1799 7.07064 73.1799 6.26064C73.1799 5.45064 73.7199 5.12064 74.6949 5.12064ZM94.6919 3.21564V9.36564H92.0369V3.21564H89.7119V9.36564H87.0269V3.21564H84.7019V11.2856H97.0169V3.21564H94.6919ZM102.247 3.09564C100.957 3.09564 99.6525 3.44064 98.7675 4.07064L99.6075 5.70564C100.192 5.24064 101.077 4.95564 101.932 4.95564C103.192 4.95564 103.792 5.54064 103.792 6.54564H101.932C99.4725 6.54564 98.4675 7.53564 98.4675 8.96064C98.4675 10.3556 99.5925 11.4056 101.482 11.4056C102.667 11.4056 103.507 11.0156 103.942 10.2806V11.2856H106.132V6.68064C106.132 4.23564 104.707 3.09564 102.247 3.09564ZM102.067 9.83064C101.242 9.83064 100.747 9.44064 100.747 8.85564C100.747 8.31564 101.092 7.91064 102.187 7.91064H103.792V8.73564C103.522 9.47064 102.847 9.83064 102.067 9.83064ZM115.74 11.2856L112.62 7.16064L115.62 3.21564H113.13L111.375 5.57064L109.665 3.21564H107.04L110.04 7.22064L106.935 11.2856H109.485L111.315 8.81064L113.085 11.2856H115.74ZM123.449 3.21564H115.664V5.13564H118.394V11.2856H120.719V5.13564H123.449V3.21564ZM127.681 3.09564C126.391 3.09564 125.086 3.44064 124.201 4.07064L125.041 5.70564C125.626 5.24064 126.511 4.95564 127.366 4.95564C128.626 4.95564 129.226 5.54064 129.226 6.54564H127.366C124.906 6.54564 123.901 7.53564 123.901 8.96064C123.901 10.3556 125.026 11.4056 126.916 11.4056C128.101 11.4056 128.941 11.0156 129.376 10.2806V11.2856H131.566V6.68064C131.566 4.23564 130.141 3.09564 127.681 3.09564ZM127.501 9.83064C126.676 9.83064 126.181 9.44064 126.181 8.85564C126.181 8.31564 126.526 7.91064 127.621 7.91064H129.226V8.73564C128.956 9.47064 128.281 9.83064 127.501 9.83064ZM59.2113 36.2856L59.1883 20.1856H56.1063L50.1723 30.1906L44.1463 20.1856H41.0643V36.2856H44.5603V26.8326L49.2983 34.5836H50.9543L55.6923 26.6486L55.7153 36.2856H59.2113ZM62.9347 36.2856H66.2467L72.2497 28.9256V36.2856H75.8147V23.9116H72.5257L66.4997 31.2716V23.9116H62.9347V36.2856ZM86.5548 23.7276C84.8988 23.7276 83.5648 24.2566 82.6678 25.3376V23.9116H79.2408V40.7476H82.8288V34.9746C83.7488 35.9866 85.0138 36.4696 86.5548 36.4696C90.0278 36.4696 92.7188 33.9856 92.7188 30.0986C92.7188 26.2116 90.0278 23.7276 86.5548 23.7276ZM85.9338 33.5256C84.1398 33.5256 82.7828 32.2376 82.7828 30.0986C82.7828 27.9596 84.1398 26.6716 85.9338 26.6716C87.7278 26.6716 89.0848 27.9596 89.0848 30.0986C89.0848 32.2376 87.7278 33.5256 85.9338 33.5256Z" fill="#021C27"/>
</svg>
