<svg width="124" height="42" viewBox="0 0 124 42" fill="none" xmlns="http://www.w3.org/2000/svg">
<path d="M29.128 5.18408L22.7958 28.402H19.0809L14.6062 11.5163L10.047 28.402H6.37438L0 5.18408H3.67266L8.1896 22.0276L12.7488 5.18408H16.3792L20.9384 22.0276L25.4975 5.18408H29.128Z" fill="#021C27"/>
<path d="M30.8164 5.22617L34.4891 4.93066V10.6296L34.4046 12.7403H34.5313C36.2199 12.1071 37.5707 11.8116 39.2593 11.8116C42.2143 11.8116 44.1984 13.1625 44.1984 18.2282V28.3597H40.5257V18.5237C40.5257 15.4843 39.0482 15.0621 37.3174 15.0621C36.2621 15.0621 35.3756 15.3154 34.4046 15.5687V28.3597H30.8164V5.22617Z" fill="#021C27"/>
<path d="M49.2643 5.47998C51.1639 5.47998 51.4594 6.57756 51.4594 7.80177C51.4594 9.02599 51.0795 10.1658 49.2643 10.1658C47.449 10.1658 47.1113 9.02599 47.1113 7.80177C47.1113 6.57756 47.449 5.47998 49.2643 5.47998ZM47.449 12.0654H51.1217V28.4024H47.449V12.0654Z" fill="#021C27"/>
<path d="M54.2031 12.0656H56.6938L57.2004 13.4164H57.4536C58.4246 12.5721 59.9443 11.8545 61.9284 11.8545C62.1394 11.8545 62.435 11.8545 62.6882 11.8967V15.4849C62.0128 15.4005 61.3374 15.2739 60.6197 15.2739C59.6066 15.2739 58.8045 15.5271 57.8758 15.9493V28.4448H54.2031V12.0656Z" fill="#021C27"/>
<path d="M64.25 28.4019V5.22617L67.8805 4.93066V28.4019H64.25Z" fill="#021C27"/>
<path d="M93.8856 11.812C99.078 11.812 101.062 14.8937 101.062 20.2971C101.062 25.4051 99.2046 28.6978 93.8012 28.6978C88.3977 28.6978 86.498 25.3629 86.498 20.2971C86.5403 14.8937 88.7354 11.812 93.8856 11.812ZM97.3472 20.2971C97.3472 17.2155 96.8406 14.6826 93.9278 14.6826C90.9728 14.6826 90.2551 17.131 90.2551 20.2971C90.2551 23.2521 90.8461 25.8272 93.8012 25.8272C96.714 25.8272 97.3472 23.3788 97.3472 20.2971Z" fill="#021C27"/>
<path d="M110.307 11.812C115.5 11.812 117.484 14.8937 117.484 20.2971C117.484 25.4051 115.626 28.6978 110.223 28.6978C104.82 28.6978 102.92 25.3629 102.92 20.2971C102.962 14.8937 105.115 11.812 110.307 11.812ZM113.769 20.2971C113.769 17.2155 113.262 14.6826 110.35 14.6826C107.395 14.6826 106.635 17.131 106.635 20.2971C106.635 23.2521 107.226 25.8272 110.181 25.8272C113.094 25.8272 113.769 23.3788 113.769 20.2971Z" fill="#021C27"/>
<path d="M119.889 28.4019V5.22617L123.519 4.93066V28.4019H119.889Z" fill="#021C27"/>
<path d="M70.8774 12.0653H73.6213L73.9168 13.2473C75.0144 12.6563 77.0407 11.812 78.8559 11.812C82.1909 11.812 84.5971 14.2605 84.5971 20.0438C84.5971 25.785 82.022 28.6134 77.7584 28.6134C76.1964 28.6134 74.4656 28.2757 74.4656 28.2757V35.7476L70.793 36.1275V12.0653H70.8774ZM74.5501 25.3629C75.5632 25.4051 76.1542 25.4473 77.2096 25.4473C79.4891 25.4473 80.9667 24.2653 80.9667 19.495C80.9667 16.2445 79.6158 15.358 77.2518 15.358C76.3231 15.358 75.4366 15.5269 74.5501 15.8224V25.3629Z" fill="#021C27"/>
<path opacity="0.2" d="M88.9867 2.01839C86.2428 -1.14769 77.5888 1.63846 67.8795 8.35056V10.0391C76.4068 3.96026 83.9632 1.1741 86.1161 3.66475C88.8179 6.78862 82.1058 16.9623 71.1722 26.4183C60.2387 35.8744 49.1785 40.9823 46.4768 37.8585C45.0837 36.2543 46.2235 32.7083 49.1785 28.3602H47.4477C43.8173 33.8059 42.4242 38.365 44.3238 40.5602C47.7432 44.5283 60.5342 39.0827 72.8608 28.4446C85.1874 17.8066 92.4061 5.98655 88.9867 2.01839Z" fill="#021C27"/>
</svg>
