<svg width="121" height="22" viewBox="0 0 121 22" fill="none" xmlns="http://www.w3.org/2000/svg">
<path d="M87.1211 17.3187V8.52749C87.1211 5.80221 85.6266 5.27474 81.4068 5.27474C76.8353 5.27474 75.2529 5.89012 75.2529 9.05497V10.4616H79.1211V9.3187C79.1211 7.73628 79.209 7.47255 81.231 7.47255C82.9013 7.47255 82.9892 7.64837 82.9892 9.3187V12.4835H78.9452C75.7804 12.4835 74.8134 13.9781 74.8134 15.7363H78.7694V15.6484C78.7694 14.8572 79.2969 14.1539 80.0881 14.1539H83.0771V17.6704C83.0771 18.9011 82.4617 19.1649 81.5826 19.1649H80.0002C79.0331 19.1649 78.6815 18.5495 78.6815 17.6704V15.7363H74.7254V17.9341C74.7254 19.7803 76.132 21.2748 78.3298 21.2748H88.7035V18.9011H87.1211V17.3187ZM119.297 18.9891V5.62639H113.407V7.82419H115.077V18.9891H113.407V21.2748H120.879V18.9891H119.297ZM104.44 5.27474C102.242 5.27474 100.835 8.00002 99.8684 9.14288V5.53848H94.0662V7.73628H95.6486V18.9011H94.0662V21.2748H101.275V18.9011H99.7804V12.9231C99.7804 12.3956 103.209 8.08793 103.209 8.52749V14.5055H107.253V7.82419C107.253 6.24177 106.286 5.27474 104.44 5.27474ZM26.8132 12.8352H22.6814V8.61541C22.6814 7.82419 22.9451 7.38463 23.9121 7.38463H25.6704C26.3737 7.38463 26.8132 7.73628 26.8132 8.26376V12.8352ZM25.055 5.27474H24.4396C19.6924 5.27474 18.4616 6.32969 18.4616 9.05497V17.8462C18.4616 20.8352 20.2198 21.3627 24.5275 21.4506H24.9671C29.6264 21.3627 31.033 21.011 31.033 18.1978V15.9121H26.9891V17.055C26.9891 18.6374 26.7253 18.7253 24.7913 18.7253C22.5055 18.7253 22.5935 18.5495 22.6814 17.055V14.3297H31.121V8.43958C31.121 6.24177 29.4506 5.27474 25.055 5.27474ZM115.165 2.81319H119.473V0H115.165V2.81319ZM0.615386 2.81319H3.07693V19.4286H0V21.7143H11.4286V19.4286H7.56046V12.044H9.75826V14.1539H12.3956V7.56046H9.75826V9.49453H7.56046V2.81319H111.824V0H0.615386V2.81319ZM47.2968 5.27474C45.099 5.27474 43.6924 8.00002 42.7254 9.14288V5.53848H36.9232V7.73628H38.5056V18.9011H36.9232V21.2748H44.132V18.9011H42.6375V12.9231C42.6375 12.3956 46.066 8.08793 46.066 8.52749V14.5055H50.11V7.82419C50.11 6.24177 49.143 5.27474 47.2968 5.27474ZM65.7584 5.27474C63.5606 5.27474 62.154 8.00002 61.187 9.14288V5.53848H55.3847V7.73628H56.9672V18.9011H55.3847V21.2748H62.5935V18.9011H61.099V12.9231C61.099 12.3956 64.5276 8.08793 64.5276 8.52749V14.5055H68.5716V7.82419C68.5716 6.24177 67.6046 5.27474 65.7584 5.27474Z" fill="#021C27"/>
</svg>
