<svg width="125" height="80" viewBox="0 0 125 80" fill="none" xmlns="http://www.w3.org/2000/svg">
<path d="M7.58651 73.5997C8.52134 73.5997 9.09663 73.4559 9.38426 73.1683C9.63595 72.8807 9.77977 72.6649 9.77977 72.4851C9.77977 72.3054 9.63595 72.0896 9.38426 71.802C9.09663 71.5144 8.52134 71.3705 7.58651 71.3705H3.48764V73.5638H7.58651V73.5997ZM3.48764 79.8919H0.035955L0 76.7278V72.0537L0.035955 68.8896H9.24045C10.7865 68.8896 11.8652 69.1773 12.4404 69.7166C13.0157 70.2559 13.3034 71.0469 13.3034 72.0537V72.9526C13.3034 73.9593 13.0157 74.7503 12.4404 75.2896C11.8652 75.829 10.7865 76.0806 9.24045 76.0806H3.48764V79.8919Z" fill="#021C27"/>
<path d="M25.0602 73.1323C25.0602 72.5211 24.9164 72.0896 24.6647 71.802C24.413 71.5144 23.8018 71.3705 22.9029 71.3705H20.9254C20.0984 71.3705 19.5231 71.5503 19.2355 71.838C18.9479 72.1256 18.804 72.5571 18.804 73.1323V75.6492C18.804 76.1885 18.9479 76.62 19.2355 76.9076C19.5231 77.2312 20.0984 77.375 20.9254 77.375H22.9029C23.8018 77.375 24.413 77.2312 24.6647 76.9436C24.8804 76.6919 25.0602 76.2245 25.0962 75.6492V73.1323H25.0602ZM27.6849 79.1009C27.1097 79.6402 26.031 79.8919 24.5209 79.8919H19.4153C17.8692 79.8919 16.7906 79.6402 16.2153 79.1009C15.604 78.5975 15.3164 77.7705 15.3164 76.7278V72.0537C15.3164 71.011 15.604 70.184 16.2153 69.6807C16.7906 69.1773 17.8692 68.8896 19.4153 68.8896H24.5209C26.067 68.8896 27.1456 69.1773 27.6849 69.7166C28.2602 70.2559 28.5479 71.0469 28.5479 72.0537V76.7278C28.5838 77.7705 28.2602 78.5256 27.6849 79.1009Z" fill="#021C27"/>
<path d="M42.967 79.1009C42.3917 79.6402 41.349 79.8919 39.8029 79.8919H34.6973C33.1513 79.8919 32.0726 79.6402 31.4614 79.1009C30.8501 78.5975 30.5625 77.7705 30.5625 76.7278V72.0537C30.5625 71.011 30.8501 70.184 31.4614 69.6807C32.0726 69.1773 33.1513 68.8896 34.6973 68.8896H39.8029C41.349 68.8896 42.3917 69.1773 42.967 69.7166C43.5423 70.2559 43.8299 71.0469 43.8299 72.0537V73.1323H40.3423C40.3423 72.5211 40.1984 72.0896 39.9468 71.802C39.6591 71.5144 39.0838 71.3705 38.185 71.3705H36.2074C35.3445 71.3705 34.8052 71.5503 34.4816 71.838C34.194 72.1256 34.0501 72.5571 34.0501 73.1323V75.6492C34.0501 76.1885 34.194 76.62 34.4816 76.9076C34.7692 77.2312 35.3445 77.375 36.2074 77.375H38.185C39.0838 77.375 39.6951 77.2312 39.9468 76.9436C40.1984 76.6919 40.3423 76.2245 40.3423 75.6492H43.8299V76.7278C43.8659 77.7705 43.5782 78.5256 42.967 79.1009Z" fill="#021C27"/>
<path d="M49.3665 79.8919H45.9149L45.8789 76.7278V72.0537L45.9149 68.8896H49.3665V73.0964H55.6227V68.8896H59.1463V79.8919H55.6227V75.6132H49.3665V79.8919Z" fill="#021C27"/>
<path d="M65.6526 75.6129H64.6458C64.6818 76.1882 64.7897 76.6197 65.1133 76.9433C65.4009 77.2669 65.9762 77.4107 66.8391 77.4107H74.4256V79.9275H65.293C63.747 79.9275 62.6683 79.6759 62.0571 79.1365C61.4818 78.6332 61.1582 77.8062 61.1582 76.7635V72.0893C61.1582 71.0466 61.4458 70.2197 62.0571 69.7163C62.6683 69.2129 63.747 68.9253 65.293 68.9253H74.4256V71.4421H66.8031C65.9402 71.4421 65.3649 71.6219 65.0773 71.9096C64.7897 72.1972 64.6458 72.5927 64.6099 73.168H74.4256V75.6848H65.6526" fill="#021C27"/>
<path d="M101.249 71.3705H96.4668V68.8896H109.698V71.3705H104.736V79.8919H101.249V71.3705Z" fill="#021C27"/>
<path d="M114.77 75.1821V77.3754H118.869C119.803 77.3754 120.379 77.2315 120.63 76.9798C120.882 76.6922 121.026 76.4765 121.026 76.2967C121.026 76.1169 120.882 75.8652 120.63 75.6136C120.379 75.3259 119.767 75.1821 118.869 75.1821H114.77ZM114.77 72.6652H120.487C122.033 72.6652 123.111 72.9529 123.651 73.4922C124.226 74.0315 124.513 74.8225 124.513 75.8293V76.6922C124.513 77.6989 124.226 78.49 123.651 79.0293C123.075 79.5686 121.997 79.8563 120.487 79.8563H111.282L111.246 76.6922V72.018L111.282 68.854H114.77V72.6652Z" fill="#021C27"/>
<path d="M79.8214 74.1038C79.8214 72.7375 81.0439 72.8813 81.0439 72.8813H84.5675V75.2184H81.008C81.008 75.2184 79.8214 75.2543 79.8214 74.1038ZM91.5428 75.2184H87.9832V72.8813H91.5068C91.5068 72.8813 92.7293 72.7375 92.7293 74.1038C92.7293 75.2543 91.5428 75.2184 91.5428 75.2184ZM93.4124 70.5442H88.0192V68.8184H84.6035V70.5442H79.0664C79.0664 70.5442 75.9023 70.6521 75.9023 73.9959C75.9023 77.3757 79.1383 77.4116 79.1383 77.4116H84.5675V80.0004H87.9832V77.4116H93.3046C93.3046 77.4116 96.5405 77.3757 96.5405 73.9959C96.5405 70.6521 93.4124 70.5442 93.4124 70.5442Z" fill="#021C27"/>
<path d="M55.5853 0V5.10562H49.9044V10.2112H44.1876V15.4607H38.4707V32.8629C38.4707 32.8629 48.5741 41.564 49.9763 42.8584V61.3753H74.7853V42.9663C76.2235 41.7078 86.2549 32.8989 86.2549 32.8989V15.4607H80.5381V10.2472H74.7493V5.10562H68.9965V0H55.5853Z" fill="white"/>
<path d="M58.9653 34.373H54.1113V57.2764H58.9653V34.373Z" fill="#C0C6C9"/>
<path d="M64.7192 29.627H59.8652V57.2764H64.7192V29.627Z" fill="#C0C6C9"/>
<path d="M70.4731 34.373H65.6191V57.2764H70.4731V34.373Z" fill="#C0C6C9"/>
<path d="M47.4622 35.2719L42.5723 31.173V19.4517H47.4622V35.2719Z" fill="#021C27"/>
<path d="M53.2133 40.3776L48.3594 35.8473V14.2383H53.2133V40.3776Z" fill="#021C27"/>
<path d="M58.9653 9.13232H54.1113V33.6537H58.9653V9.13232Z" fill="#021C27"/>
<path d="M64.7192 4.02686H59.8652V28.6201H64.7192V4.02686Z" fill="#021C27"/>
<path d="M77.1582 35.2719L82.0121 31.173V19.4517H77.1582V35.2719Z" fill="#021C27"/>
<path d="M71.3711 40.3776L76.225 35.8473V14.2383H71.3711V40.3776Z" fill="#021C27"/>
<path d="M70.4731 9.13232H65.6191V33.6537H70.4731V9.13232Z" fill="#021C27"/>
</svg>
