<svg width="116" height="19" viewBox="0 0 116 19" fill="none" xmlns="http://www.w3.org/2000/svg">
<path fill-rule="evenodd" clip-rule="evenodd" d="M0.35708 17.7874V14.3072C2.33791 14.9307 4.09068 15.2424 5.61539 15.2424C7.72049 15.2424 8.77322 14.686 8.77322 13.5739C8.77322 13.1593 8.62002 12.8109 8.31292 12.5288C7.99889 12.2296 7.19459 11.8147 5.90211 11.2833C3.58306 10.3297 2.07085 9.51652 1.36746 8.8439C0.45578 7.95606 0 6.83645 0 5.48346C0 3.74111 0.664173 2.41311 1.99159 1.50051C3.30432 0.595889 5.0137 0.144043 7.12239 0.144043C8.28423 0.144043 9.96583 0.357874 12.1654 0.786115V4.13394C10.5288 3.48018 9.00961 3.154 7.60605 3.154C5.62962 3.154 4.64146 3.69667 4.64146 4.78446C4.64146 5.19106 4.84048 5.52269 5.2391 5.77979C5.57061 5.98784 6.48402 6.4273 7.97737 7.09958C10.1276 8.05453 11.559 8.88463 12.2723 9.59069C13.1186 10.4282 13.5425 11.5119 13.5425 12.8403C13.5425 14.7496 12.7121 16.206 11.0523 17.2096C9.70769 18.0234 7.96406 18.4286 5.82251 18.4286C4.01397 18.4286 2.19177 18.2156 0.35708 17.7874Z" fill="#021C27"/>
<path fill-rule="evenodd" clip-rule="evenodd" d="M16.3223 0.44873H21.2446V18.071H16.3223V0.44873Z" fill="#021C27"/>
<path fill-rule="evenodd" clip-rule="evenodd" d="M25.7598 18.071V0.44873H38.3843V3.63607H30.5039V7.6152H37.3633V10.5225H30.5039V14.7044H38.5873V18.071H25.7598Z" fill="#021C27"/>
<path fill-rule="evenodd" clip-rule="evenodd" d="M41.7988 18.0709V0.44873H48.1808L52.6147 11.7085L57.1597 0.44873H63.2216V18.0709H58.5546V5.59399L53.3866 18.2498H50.3354L45.2669 5.59399V18.0709H41.7988Z" fill="#021C27"/>
<path fill-rule="evenodd" clip-rule="evenodd" d="M67.7363 18.071V0.44873H80.3606V3.63607H72.4809V7.6152H79.3401V10.5225H72.4809V14.7044H80.5649V18.071H67.7363Z" fill="#021C27"/>
<path fill-rule="evenodd" clip-rule="evenodd" d="M83.8066 18.071V0.44873H89.5116L95.5641 12.2454V0.44873H99.0312V18.071H93.4883L87.2752 6.11549V18.071H83.8066Z" fill="#021C27"/>
<path fill-rule="evenodd" clip-rule="evenodd" d="M102.525 17.7861V14.3059C104.489 14.9293 106.242 15.2411 107.785 15.2411C109.89 15.2411 110.941 14.6846 110.941 13.5725C110.941 13.1579 110.792 12.8095 110.495 12.5274C110.18 12.2282 109.372 11.8134 108.072 11.2819C105.76 10.3362 104.246 9.52338 103.536 8.84255C102.625 7.96258 102.17 6.83881 102.17 5.47008C102.17 3.73524 102.832 2.41164 104.161 1.49904C105.472 0.594424 107.183 0.142578 109.292 0.142578C110.478 0.142578 112.014 0.330838 113.899 0.709092L114.334 0.78465V4.13247C112.697 3.47872 111.174 3.15253 109.762 3.15253C107.794 3.15253 106.811 3.69521 106.811 4.78299C106.811 5.1896 107.009 5.52122 107.407 5.77833C107.723 5.97839 108.64 6.41809 110.158 7.09811C112.292 8.05306 113.721 8.88316 114.44 9.58922C115.288 10.4267 115.711 11.5105 115.711 12.8388C115.711 14.7481 114.885 16.2046 113.234 17.2081C111.881 18.0219 110.133 18.4271 107.992 18.4271C106.182 18.4272 104.359 18.2142 102.525 17.7861Z" fill="#021C27"/>
</svg>
