<svg width="51" height="39" viewBox="0 0 51 39" fill="none" xmlns="http://www.w3.org/2000/svg">
<path d="M28.8583 37.1037C29.3002 36.6637 29.6508 36.1407 29.8901 35.5648C30.1294 34.9889 30.2526 34.3714 30.2526 33.7478C30.2526 33.1242 30.1294 32.5067 29.8901 31.9308C29.6508 31.3549 29.3002 30.832 28.8583 30.3919C28.4185 29.949 27.8955 29.5974 27.3193 29.3573C26.7431 29.1172 26.1252 28.9933 25.501 28.9929C24.8768 28.9925 24.2587 29.1154 23.6822 29.3547C23.1057 29.594 22.5822 29.9449 22.1418 30.3872C21.6881 30.8254 21.3262 31.3495 21.0773 31.929C20.8284 32.5085 20.6973 33.1318 20.6918 33.7625C20.6864 34.3932 20.8065 35.0187 21.0454 35.6025C21.2842 36.1862 21.6369 36.7166 22.0829 37.1626C22.5289 37.6086 23.0592 37.9613 23.643 38.2001C24.2268 38.4389 24.8522 38.5591 25.4829 38.5536C26.1136 38.5481 26.7369 38.4171 27.3164 38.1682C27.896 37.9192 28.4201 37.5574 28.8583 37.1037ZM45.6519 18.3483C45.028 18.3495 44.41 18.2271 43.8336 17.9882C43.2572 17.7494 42.7338 17.3987 42.2936 16.9566C33.0335 7.69644 17.9665 7.69881 8.70403 16.9566C7.81305 17.8475 6.60462 18.3481 5.34459 18.3481C4.08456 18.3481 2.87613 17.8475 1.98515 16.9566C1.09417 16.0656 0.593628 14.8572 0.593628 13.5971C0.593628 12.3371 1.09417 11.1287 1.98515 10.2377C14.9503 -2.72506 36.045 -2.72506 49.0078 10.2377C49.6726 10.9017 50.1254 11.748 50.3092 12.6694C50.4929 13.5909 50.3993 14.5462 50.04 15.4144C49.6808 16.2826 49.0721 17.0248 48.291 17.547C47.5099 18.0693 46.5915 18.3481 45.6519 18.3483ZM15.4229 28.4231C14.4836 28.4229 13.5654 28.1442 12.7845 27.6222C12.0035 27.1003 11.3949 26.3585 11.0354 25.4907C10.676 24.6228 10.5819 23.6679 10.7651 22.7467C10.9483 21.8254 11.4006 20.9791 12.0647 20.3148C19.4699 12.9072 31.5254 12.9072 38.933 20.3148C39.824 21.2058 40.3246 22.4142 40.3246 23.6742C40.3246 24.9343 39.824 26.1427 38.933 27.0337C38.0421 27.9247 36.8336 28.4252 35.5736 28.4252C34.3136 28.4252 33.1051 27.9247 32.2142 27.0337C30.431 25.2549 28.0151 24.2559 25.4965 24.2559C22.9778 24.2559 20.5619 25.2549 18.7788 27.0337C18.3387 27.4751 17.8156 27.8252 17.2396 28.0636C16.6637 28.3021 16.0463 28.4242 15.4229 28.4231Z" fill="white"/>
</svg>
