<svg id="Лого" xmlns="http://www.w3.org/2000/svg" viewBox="0 0 441.35 163.12" width="178"><defs><style>.cls-1{fill:#f6efdd;}</style></defs><path class="cls-1" d="M576.18,366.19H263.73a2,2,0,0,1-2-2c0-19.29-20.71-23.08-21.59-23.23a2,2,0,0,1-.79-.32c-11.32-2-20.25-12.21-21.73-24.9-11-5.12-18.24-17.2-18.24-30.48a35.86,35.86,0,0,1,1.35-9.42c2.33-10.07,8.68-18.34,17.1-22.29,1.48-12.71,10.43-23,21.78-24.93a2.08,2.08,0,0,1,.74-.29c.88-.15,21.57-4,21.57-23.26a2,2,0,0,1,2-2H576.39a2,2,0,0,1,2,2c0,19.38,21.37,23.23,21.58,23.26a2.06,2.06,0,0,1,.75.29c11.52,2,20.29,12,21.78,24.93,11,5.12,18.23,17.2,18.23,30.47a35.52,35.52,0,0,1-1.35,9.42c-2.3,10.07-8.65,18.35-17.09,22.3-1.49,12.89-10.24,22.93-21.74,24.9a2,2,0,0,1-.79.32c-.87.15-21.58,3.94-21.58,23.23A2,2,0,0,1,576.18,366.19Zm-310.52-4H574.25c1.25-18.73,19.92-24.06,24-25a2.07,2.07,0,0,1,.93-.38c10.2-1.41,18.28-10.9,19.2-22.58a2,2,0,0,1,1.23-1.68c7.79-3.24,13.72-10.74,15.85-20.08a31.65,31.65,0,0,0,1.23-8.44c0-12.12-6.78-23.07-16.88-27.27a2,2,0,0,1-1.23-1.69c-.91-11.68-9-21.18-19.19-22.59a2,2,0,0,1-.89-.36c-4.06-.93-22.83-6.24-24.09-25H265.86c-1.25,18.81-20,24.12-24.08,25.05a2.07,2.07,0,0,1-.88.35c-10.21,1.41-18.28,10.92-19.2,22.59a2,2,0,0,1-1.23,1.69c-7.77,3.23-13.7,10.74-15.86,20.06a32.37,32.37,0,0,0-1.23,8.45c0,12.12,6.79,23.09,16.89,27.28a2,2,0,0,1,1.22,1.69c.92,11.67,9,21.16,19.19,22.57a2.07,2.07,0,0,1,.93.38C245.74,338.13,264.42,343.46,265.66,362.19ZM565.41,240.4a1.66,1.66,0,0,0-.2-2.32,1.64,1.64,0,0,0-2.32.2c-3.13,3.71-7.71,6.67-12.72,6.26l-2.34,2.93a15,15,0,0,0,3.32.39C556.19,247.86,561.26,245.31,565.41,240.4ZM547.76,242a5.66,5.66,0,0,0,.3-5.25,4.69,4.69,0,0,0-3.48-2.79,4.94,4.94,0,0,0-3.8.94,5.22,5.22,0,0,0-2.15,3.49,6.23,6.23,0,0,0,1.5,4.74l-.28.08a40.62,40.62,0,0,1-17,.83,29.79,29.79,0,0,1-3.19-.75l-3,2.44a29.56,29.56,0,0,0,5.64,1.55,41.05,41.05,0,0,0,7,.58,43.6,43.6,0,0,0,11.42-1.48C543,245.79,546.15,244.66,547.76,242Zm-5.87-3.17a2,2,0,0,1,.83-1.28,1.77,1.77,0,0,1,1.29-.35,1.41,1.41,0,0,1,1,.89,2.41,2.41,0,0,1-.1,2.19,4.85,4.85,0,0,1-1.56,1.49A3.49,3.49,0,0,1,541.89,238.87Zm-190.6-17.58h8.22a1.65,1.65,0,1,0,0-3.29h-8.22a1.65,1.65,0,1,0,0,3.29Zm-28.46,0h19a1.65,1.65,0,1,0,0-3.29h-19a1.65,1.65,0,0,0,0,3.29Zm-28.45,0h19a1.65,1.65,0,0,0,0-3.29h-19a1.65,1.65,0,1,0,0,3.29Zm-22.53,6.94a1.73,1.73,0,0,0,.94.29,1.64,1.64,0,0,0,1.35-.71,37.42,37.42,0,0,0,3.63-6.52h7.13a1.65,1.65,0,0,0,0-3.29h-9.34l-.41,1a34.83,34.83,0,0,1-3.71,6.91A1.65,1.65,0,0,0,271.85,228.23Zm-22.94,13.4-5.61,1.63a11.15,11.15,0,0,0-7.75,5.72,1.65,1.65,0,0,0,2.85,1.65,7.86,7.86,0,0,1,5.49-4.13l5.94-1.71a1.65,1.65,0,1,0-.92-3.16Zm18-10.39a44,44,0,0,1-11.49,7.94,1.64,1.64,0,0,0,.72,3.12,1.68,1.68,0,0,0,.72-.16,47,47,0,0,0,12.34-8.55,1.64,1.64,0,1,0-2.29-2.35ZM226.8,269.75a1.58,1.58,0,0,0,.63-.13l8.52-3.54.73-9.2a1.65,1.65,0,1,0-3.28-.26l-.57,7.2-6.66,2.77a1.64,1.64,0,0,0,.63,3.16Zm-6.54,3.7a1.65,1.65,0,0,0-2.22.69,23.7,23.7,0,0,0-2,5.54,20.42,20.42,0,0,0,1.65,15.63,1.65,1.65,0,0,0,1.44.85,1.72,1.72,0,0,0,.79-.2,1.65,1.65,0,0,0,.65-2.24,17.58,17.58,0,0,1-2.09-8.46,18,18,0,0,1,.75-4.78,20.06,20.06,0,0,1,1.74-4.82A1.63,1.63,0,0,0,220.26,273.45Zm16.21,38.95-.73-9.2-8.52-3.54a1.64,1.64,0,0,0-1.27,3l6.67,2.77.57,7.2a1.64,1.64,0,0,0,1.64,1.51H235A1.65,1.65,0,0,0,236.47,312.4Zm20.21,14.74a1.65,1.65,0,0,0-1.44,3A43.7,43.7,0,0,1,266.73,338a1.66,1.66,0,0,0,1.15.47,1.65,1.65,0,0,0,1.15-2.83A47,47,0,0,0,256.68,327.14Zm-7.06-2.63-5.86-1.73-.24,0a7.7,7.7,0,0,1-5.33-4.07,1.64,1.64,0,1,0-2.85,1.64,11,11,0,0,0,7.6,5.67l5.75,1.69a1.53,1.53,0,0,0,.47.07,1.64,1.64,0,0,0,.46-3.22ZM284.7,348h-7.13a38.16,38.16,0,0,0-3.63-6.52,1.65,1.65,0,1,0-2.7,1.88,34.75,34.75,0,0,1,3.71,6.9l.41,1h9.34a1.65,1.65,0,1,0,0-3.29Zm72.08,0h-16a1.65,1.65,0,0,0,0,3.29h16a1.65,1.65,0,0,0,0-3.29Zm-48,0h-16a1.65,1.65,0,0,0,0,3.29h16a1.65,1.65,0,0,0,0-3.29Zm24,0h-16a1.65,1.65,0,1,0,0,3.29h16a1.65,1.65,0,1,0,0-3.29Zm72.08,0h-16a1.65,1.65,0,1,0,0,3.29h16a1.65,1.65,0,1,0,0-3.29ZM525,348H509a1.65,1.65,0,1,0,0,3.29h16a1.65,1.65,0,1,0,0-3.29Zm24,0H533a1.65,1.65,0,0,0,0,3.29h16a1.65,1.65,0,1,0,0-3.29Zm-48.05,0h-16a1.65,1.65,0,0,0,0,3.29h16a1.65,1.65,0,0,0,0-3.29Zm-24,0h-16a1.65,1.65,0,0,0,0,3.29h16a1.65,1.65,0,1,0,0-3.29Zm-96.1,0h-16a1.65,1.65,0,1,0,0,3.29h16a1.65,1.65,0,0,0,0-3.29Zm48.05,0h-16a1.65,1.65,0,0,0,0,3.29h16a1.65,1.65,0,0,0,0-3.29Zm24,0h-16a1.65,1.65,0,1,0,0,3.29h16a1.65,1.65,0,0,0,0-3.29Zm117.16-6.93a1.65,1.65,0,0,0-2.29.41,38.16,38.16,0,0,0-3.63,6.52H557a1.65,1.65,0,1,0,0,3.29h9.34l.41-1a34.75,34.75,0,0,1,3.71-6.9A1.64,1.64,0,0,0,570.05,341.05Zm35.69-23a1.63,1.63,0,0,0-2.24.6,7.89,7.89,0,0,1-5.49,4.11l-6,1.75a1.65,1.65,0,0,0,.47,3.23,2,2,0,0,0,.47-.07l5.6-1.67a11.19,11.19,0,0,0,7.74-5.7A1.64,1.64,0,0,0,605.74,318.05ZM585,327.14a47.14,47.14,0,0,0-12.34,8.54A1.64,1.64,0,1,0,575,338a43.67,43.67,0,0,1,11.48-7.94,1.64,1.64,0,1,0-1.43-3Zm29.45-27.49-8.52,3.55-.72,9.2a1.64,1.64,0,0,0,1.51,1.77h.13a1.64,1.64,0,0,0,1.64-1.51l.56-7.2,6.67-2.77a1.65,1.65,0,0,0-1.27-3ZM624.23,274a1.65,1.65,0,1,0-2.89,1.59,17.58,17.58,0,0,1,2.1,8.45,18.09,18.09,0,0,1-.74,4.74,20.76,20.76,0,0,1-1.76,4.87,1.65,1.65,0,0,0,.69,2.22,1.76,1.76,0,0,0,.76.18,1.63,1.63,0,0,0,1.46-.88,23.54,23.54,0,0,0,2-5.59A20.52,20.52,0,0,0,624.23,274Zm-8.29-7.38-6.66-2.76-.57-7.19a1.64,1.64,0,0,0-1.77-1.52,1.66,1.66,0,0,0-1.51,1.77l.73,9.21,8.52,3.53a1.76,1.76,0,0,0,.63.12,1.64,1.64,0,0,0,.63-3.16Zm-23.65-21.81,5.84,1.71.24,0a7.68,7.68,0,0,1,5.35,4.09,1.64,1.64,0,0,0,1.43.82,1.59,1.59,0,0,0,.81-.22,1.64,1.64,0,0,0,.61-2.24,10.93,10.93,0,0,0-7.63-5.69l-5.73-1.67a1.64,1.64,0,1,0-.92,3.15Zm-5.63-5.61a43.92,43.92,0,0,1-11.5-7.94,1.64,1.64,0,0,0-2.29,2.36,46.92,46.92,0,0,0,12.36,8.54,1.64,1.64,0,1,0,1.43-3ZM566.94,219l-.41-1h-9.34a1.65,1.65,0,0,0,0,3.29h7.12a38.52,38.52,0,0,0,3.64,6.52,1.65,1.65,0,1,0,2.7-1.88A34.48,34.48,0,0,1,566.94,219ZM415.79,247.2l-7.3-2.49a346.25,346.25,0,0,1-46.87.94l-5.89-.22c-20.9-.75-42.42-1.54-62.84-6.45,44.3-6.72,82.51-1.86,124,4.71,19.66,3.12,36.22,5.26,53.1,5.61,2.65,0,5.47.11,8.39.11,13.14,0,28.34-1.18,38.67-9.2,3.73-2.9,5.16-6.33,3.82-9.19a5.76,5.76,0,0,0-5.16-3.54,8.76,8.76,0,0,0-7.86,5.71,7.62,7.62,0,0,0,1.53,7.86c-11.63,5.53-27.36,5.21-39.32,5a299.47,299.47,0,0,1-32.73-2.66c3.54-.79,7.35-1.71,11.29-2.8l-6.13-1.79c-4.36,1.09-8.46,2-12.08,2.7l-2.79.55c-3.32-.49-6.72-1-10.22-1.57-44.14-7-84.59-12.06-132.65-3.45l-.1,0-.16.05-.15.06-.13.07a.71.71,0,0,0-.14.1l-.12.09-.12.12-.1.11-.09.14-.07.13a1.22,1.22,0,0,0-.07.17l0,.09v0a1.16,1.16,0,0,0,0,.18s0,.1,0,.15v.16c0,.06,0,.12,0,.17v0l0,.1a1.54,1.54,0,0,0,0,.17.84.84,0,0,0,.06.14.61.61,0,0,0,.07.14l.09.14.1.12.11.11.12.1.14.09.13.08.17.07.08,0c23,6.8,47.39,7.68,71,8.54l5.88.21c6.35.24,12.34.37,18,.37A283.83,283.83,0,0,0,415.79,247.2ZM511,234.35a5.63,5.63,0,0,1,4.65-3.59h.06a2.45,2.45,0,0,1,2.25,1.64c.76,1.62-1.06,3.81-2.85,5.2a28.39,28.39,0,0,1-2.66,1.82A4.55,4.55,0,0,1,511,234.35Zm-39.09,6.29a5.65,5.65,0,0,0,6.51-4.65,5.78,5.78,0,0,0,.08-1.09l-6.78,1.27a2.58,2.58,0,0,1-2.42.92L462.57,236l2.2-.83c10.94-4.12,22.62-8.35,34.5-10.89,12.84-2.74,25.32-3,38-3h8.22a1.65,1.65,0,1,0,0-3.29H537.3c-12.89,0-25.56.23-38.72,3a209.05,209.05,0,0,0-27,8.08l-21.79-3.62c-10.58-1.76-45.7-7.11-78.66-7.33,31.44,10.69,65.46,16.62,76.8,18.5Zm-14.53-8.15a2.59,2.59,0,0,1,3-2.13l5.46.91-2.16.81-3,1.12c-1,.37-2,.71-3,1.06A2.56,2.56,0,0,1,457.33,232.49Zm-199.66,69,4.81-.93V268.19l-4.81-.93V261.8h18.46v5.46l-4.59.93v12.07h4.06l8.47-12.19a22.24,22.24,0,0,1,4.77-5.24,9.46,9.46,0,0,1,5.52-1.46,10,10,0,0,1,2.95.43,11.28,11.28,0,0,1,2.51,1.15l-1.52,6.79-1.35-.29a4.88,4.88,0,0,0-1-.08,4.62,4.62,0,0,0-2.64.81,14,14,0,0,0-2.92,3l-7.07,9.67,12.5,17.9,4.75.77V307H282.7v-5.43l2.58-.37-8.44-12.68h-5.3V300.6l4.59.93V307H257.67Zm85.73-16.81q0,9.93-5.68,16.41a18.81,18.81,0,0,1-14.86,6.48,18.61,18.61,0,0,1-14.77-6.48q-5.64-6.48-5.63-16.41V284q0-9.85,5.61-16.37a18.51,18.51,0,0,1,14.76-6.52,18.78,18.78,0,0,1,14.87,6.52q5.7,6.51,5.7,16.37Zm-9-.74q0-7-2.92-11.38a9.67,9.67,0,0,0-8.62-4.38q-5.7,0-8.51,4.35T311.51,284v.74q0,7.14,2.84,11.49a9.47,9.47,0,0,0,8.51,4.36,9.66,9.66,0,0,0,8.63-4.36q2.88-4.35,2.88-11.49Zm33.34,4.5-6.82,12.71,1.73.34V307H345.57v-5.43l4.49-.65,10.73-18.45-5.73-9.24a13.51,13.51,0,0,0-2.61-3,3.9,3.9,0,0,0-2.39-.81,6,6,0,0,0-1.19.11l-1.13.26L346.4,263a10.08,10.08,0,0,1,2.5-1.15,10.65,10.65,0,0,1,3.05-.43,9,9,0,0,1,5.4,1.47,17.46,17.46,0,0,1,4.28,5.23l7,12.19h4.68V268.19l-4.83-.93V261.8h18.7v5.46l-4.84.93v12.07H387l6.89-12.19a16.54,16.54,0,0,1,4.18-5.23,9.14,9.14,0,0,1,5.43-1.47,10.38,10.38,0,0,1,3,.43,11.75,11.75,0,0,1,2.57,1.15l-1.27,6.79-1.18-.26a5.8,5.8,0,0,0-1.14-.11,3.94,3.94,0,0,0-2.42.81,12.16,12.16,0,0,0-2.55,3l-5.77,9.36,10.49,18.33,4.68.65V307H392.68v-5.43l1.79-.34-6.69-12.71h-5.43V300.6l4.84.93V307h-18.7v-5.43l4.83-.93V288.48Zm74.21-1.37H426.64V300h14.57l.4-5.39h6.89V307H412.77v-5.43l4.81-.93V268.19l-4.81-.93V261.8h35.67v12.38h-6.95l-.4-5.4H426.64v11.35h15.28ZM473.4,261.8q8,0,12.44,3.11c3,2.06,4.47,5.16,4.47,9.27a9.86,9.86,0,0,1-1.66,5.6,10,10,0,0,1-4.83,3.7,9.62,9.62,0,0,1,6.1,3.72,11.16,11.16,0,0,1,2,6.61q0,6.48-4.28,9.82T475.54,307h-22.2v-5.43l4.81-.93V268.19l-4.81-.93V261.8H473.4Zm-6.2,18.92h6.51a9.05,9.05,0,0,0,5.59-1.49,5.11,5.11,0,0,0,1.95-4.34,5.42,5.42,0,0,0-2-4.62,9.69,9.69,0,0,0-5.88-1.49h-6.2Zm0,6.27v13h8.34a8.43,8.43,0,0,0,5.49-1.56,5.69,5.69,0,0,0,1.9-4.64,7.21,7.21,0,0,0-1.62-5.07c-1.07-1.17-2.77-1.75-5.08-1.75Zm28.13-19.73V261.8H514v5.46l-4.84.93v13h18.43v-13l-4.84-.93V261.8h18.7v5.46l-4.84.93V300.6l4.84.93V307h-18.7v-5.43l4.84-.93V288.2H509.19v12.4l4.84.93V307h-18.7v-5.43l4.81-.93V268.19Zm89.29,0V261.8H564.15q-7.78,0-12.19,3.6t-4.4,10.27a12.35,12.35,0,0,0,2.32,7.72,15.44,15.44,0,0,0,7,4.81l-3.53,7.47a9,9,0,0,1-2.31,2.84,4.2,4.2,0,0,1-2.44.76,6.58,6.58,0,0,1-1.07-.08,7.33,7.33,0,0,1-1.07-.29l-1.18,6.82a9.22,9.22,0,0,0,2.44,1.12,10.17,10.17,0,0,0,2.93.4,9.08,9.08,0,0,0,5.78-1.94,14.77,14.77,0,0,0,4.14-5.5l4.22-9.8h6v10.6l-4.84.93V307h18.7v-5.43l-4.81-.93V268.19Zm-13.86,16.13h-6.61a7.61,7.61,0,0,1-5.64-1.94,7.31,7.31,0,0,1-1.93-5.41,7.21,7.21,0,0,1,1.91-5.38,7.76,7.76,0,0,1,5.66-1.88h6.61Zm-196.34,44s-11.67-5-13-4.5c-.93.37-.93,2.25-.71,4.4h-55l-10-8.34a.92.92,0,1,0-1.18,1.42l8.34,6.92h-4.36a.49.49,0,0,0-.16-.05l-9.19-7.5a.93.93,0,0,0-1.3.13.92.92,0,0,0,.14,1.3l7.5,6.12h-4.27l-6.65-4.94a.92.92,0,1,0-1.1,1.48l4.66,3.46H277.58a.93.93,0,0,0,0,1.85h10.18l-4.1,3.14a.91.91,0,0,0-.17,1.29.92.92,0,0,0,1.29.17l6-4.6h4.57l-6.95,5.79a.92.92,0,0,0-.12,1.3.91.91,0,0,0,.71.33.93.93,0,0,0,.59-.21l8.64-7.21h4.48l-7.93,6.38a.92.92,0,0,0-.14,1.3.9.9,0,0,0,.72.34,1,1,0,0,0,.58-.2l9.7-7.82H360.9c.06.42.12.84.17,1.24.41,3.14.77,4.77,4.45,2.87S376.06,328.11,374.42,327.39Zm189.89-.1H553.79l4.66-3.46a.92.92,0,0,0-1.1-1.48l-6.65,4.94h-4.27l7.5-6.12a.92.92,0,1,0-1.16-1.43l-9.19,7.5a.49.49,0,0,0-.16.05h-4.36l8.34-6.92a.92.92,0,1,0-1.18-1.42l-10,8.34h-55c.22-2.15.22-4-.71-4.4-1.36-.54-13,4.5-13,4.5-1.64.72,5.22,3.95,8.9,5.86s4,.27,4.45-2.87c.05-.4.11-.82.17-1.24h55.26L546,337a1,1,0,0,0,.58.2.9.9,0,0,0,.72-.34.92.92,0,0,0-.14-1.3l-7.93-6.38h4.48l8.64,7.21a.93.93,0,0,0,.59.21.91.91,0,0,0,.71-.33.92.92,0,0,0-.12-1.3l-7-5.79h4.57l6,4.6a.92.92,0,0,0,1.29-.17.92.92,0,0,0-.17-1.29l-4.1-3.14h10.18a.93.93,0,0,0,0-1.85ZM400.2,336.36l-2.36-7.48,6.32-4.69-7.77-.21-2.58-7.31-2.35,7.53h-8l6.3,4.76-2.34,7.41,6.44-4.54Zm28.13,1.51-2.73-8.62,7.29-5.42-9-.23-3-8.44-2.71,8.69-9.24,0,7.27,5.5-2.7,8.54,7.42-5.23Zm26.15-1.51-2.36-7.48,6.32-4.69-7.77-.21-2.58-7.31-2.35,7.53h-8L444,329l-2.34,7.41,6.44-4.54Z" transform="translate(-199.38 -203.07)"/></svg>