<svg width="136" height="14" viewBox="0 0 136 14" fill="none" xmlns="http://www.w3.org/2000/svg">
<path d="M41 11.7464L42.3975 11.4762V2.05983L41 1.78963V0.203291H46.3633V1.78963L45.0298 2.05983V5.56662H46.2093L48.6702 2.02497C49.0478 1.44669 49.5157 0.93269 50.0561 0.502544C50.5342 0.199341 51.0943 0.0511984 51.6598 0.0783614C51.9502 0.0769466 52.2391 0.119056 52.5169 0.203291C52.7728 0.284382 53.0177 0.396603 53.2462 0.537416L52.8045 2.51016L52.4123 2.42591C52.3165 2.4082 52.2192 2.40041 52.1218 2.40266C51.8481 2.40108 51.5805 2.48319 51.3548 2.638C51.0299 2.88437 50.7439 3.1782 50.5064 3.50961L48.4523 6.31912L52.084 11.5197L53.4641 11.7435V13.3356H48.2722V11.758L49.0217 11.6505L46.5696 7.96646H45.0298V11.4762L46.3633 11.7464V13.3356H41V11.7464Z" fill="#27221E"/>
<path d="M65.9078 6.8629C65.9078 8.78626 65.3577 10.3755 64.2576 11.6306C63.7238 12.2465 63.0591 12.7352 62.3121 13.061C61.5651 13.3867 60.7546 13.5413 59.9402 13.5133C59.1295 13.5415 58.3228 13.3869 57.58 13.061C56.8371 12.7351 56.1772 12.2462 55.6489 11.6306C54.5565 10.3755 54.0113 8.78626 54.0132 6.8629V6.65372C54.0132 4.74585 54.5565 3.16049 55.6431 1.89761C56.1685 1.27863 56.8273 0.786652 57.57 0.45858C58.3127 0.130508 59.12 -0.0251464 59.9314 0.0033025C60.7474 -0.0242903 61.5592 0.131591 62.3069 0.45944C63.0546 0.787289 63.7192 1.27875 64.2517 1.89761C65.3558 3.15855 65.9078 4.74392 65.9078 6.65372V6.8629ZM63.293 6.64791C63.293 5.29207 63.0102 4.18996 62.4446 3.34159C62.1755 2.92835 61.8025 2.5932 61.3629 2.36982C60.9232 2.14644 60.4326 2.0427 59.9402 2.06903C58.8361 2.06903 58.012 2.49031 57.4677 3.33287C56.9234 4.17543 56.6484 5.28238 56.6426 6.65372V6.86871C56.6426 8.25167 56.9176 9.36444 57.4677 10.207C57.7304 10.6185 58.0978 10.9527 58.5323 11.1753C58.9668 11.3979 59.4527 11.5009 59.9402 11.4737C60.4325 11.5015 60.9235 11.399 61.3637 11.1766C61.8039 10.9543 62.1777 10.6198 62.4475 10.207C63.0053 9.36444 63.2843 8.25167 63.2843 6.86871L63.293 6.64791Z" fill="#27221E"/>
<path d="M72.9706 7.95479L70.9891 11.6475L71.4918 11.7463V13.3356H66.5381V11.7579L67.8426 11.5691L70.9601 6.20866L69.2953 3.52409C69.0869 3.19774 68.8314 2.90402 68.537 2.65248C68.338 2.49925 68.0937 2.41647 67.8426 2.41714C67.7266 2.41627 67.6108 2.42697 67.4969 2.4491L67.1685 2.52464L66.7792 0.551889C67.0049 0.407836 67.2493 0.295417 67.5056 0.217772C67.7933 0.133408 68.0918 0.0913263 68.3917 0.0928428C68.9468 0.0648571 69.4963 0.214456 69.9606 0.519934C70.4701 0.940621 70.8925 1.45679 71.2041 2.03944L73.2379 5.5811H74.5976V2.05978L73.1943 1.78958V0.20324H78.6274V1.78958L77.2212 2.05978V5.56657H78.5751L80.5769 2.02492C80.8739 1.44092 81.2872 0.923821 81.7913 0.505401C82.2592 0.200722 82.8112 0.0512779 83.3689 0.0783106C83.664 0.0770873 83.9577 0.119177 84.2406 0.20324C84.5019 0.284282 84.7526 0.396467 84.9872 0.537365L84.6182 2.51011L84.2754 2.43458C84.1663 2.41302 84.0554 2.40231 83.9442 2.40261C83.6902 2.40088 83.4429 2.48367 83.2411 2.63795C82.9484 2.88631 82.6982 3.18071 82.5002 3.50956L80.8238 6.229L83.8716 11.5546L85.2313 11.7434V13.3356H80.2253V11.7579L80.7454 11.6592L78.8017 7.96641H77.2241V11.4761L78.6303 11.7463V13.3356H73.1972V11.7579L74.6005 11.4877V7.95479H72.9706Z" fill="#27221E"/>
<path d="M94.5317 7.55761H90.0923V11.3026H94.3254L94.4416 9.73665H96.4434V13.3364H86.0625V11.7588L87.46 11.4886V2.06064L86.0625 1.79044V0.204102H96.426V3.80096H94.4067L94.2905 2.23206H90.0923V5.52966H94.5317V7.55761Z" fill="#27221E"/>
<path d="M103.678 0.204102C105.227 0.204102 106.432 0.505297 107.292 1.10768C108.164 1.70619 108.591 2.60685 108.591 3.80096C108.598 4.37956 108.43 4.94679 108.108 5.42797C107.764 5.92336 107.273 6.29909 106.705 6.50297C107.413 6.62236 108.047 7.00935 108.477 7.58377C108.869 8.14638 109.073 8.81873 109.059 9.50422C109.059 10.7593 108.644 11.7104 107.815 12.3573C106.986 13.0042 105.814 13.3306 104.3 13.3364H97.8496V11.7588L99.2471 11.4886V2.06064L97.8496 1.79044V0.204102H103.678ZM101.876 5.70108H103.768C104.342 5.73836 104.913 5.58629 105.392 5.26818C105.582 5.11972 105.732 4.92735 105.831 4.70768C105.93 4.488 105.973 4.24762 105.959 4.00725C105.977 3.7532 105.934 3.49834 105.833 3.26455C105.732 3.03075 105.576 2.825 105.377 2.66496C104.869 2.34155 104.27 2.18981 103.669 2.23206H101.868L101.876 5.70108ZM101.876 7.52275V11.2997H104.3C104.868 11.3387 105.432 11.1784 105.895 10.8465C106.083 10.6789 106.231 10.4702 106.327 10.2365C106.423 10.0029 106.464 9.75035 106.447 9.49841C106.483 8.96534 106.315 8.43839 105.976 8.02538C105.665 7.68545 105.171 7.51694 104.5 7.51694L101.876 7.52275Z" fill="#27221E"/>
<path d="M110.049 1.79044V0.204102H115.474V1.79044L114.067 2.06064V5.83763H119.422V2.06064L118.016 1.79044V0.204102H123.449V1.79044L122.043 2.06064V11.477L123.449 11.7472V13.3364H118.016V11.7588L119.422 11.4886V7.87431H114.076V11.477L115.482 11.7472V13.3364H110.049V11.7588L111.447 11.4886V2.06064L110.049 1.79044Z" fill="#27221E"/>
<path d="M135.991 1.79044V0.204102H130.044C128.537 0.204102 127.356 0.552749 126.502 1.25004C125.648 1.94733 125.222 2.94194 125.224 4.23387C125.191 5.03587 125.429 5.82561 125.898 6.47682C126.432 7.12361 127.137 7.60776 127.932 7.87431L126.906 10.0446C126.741 10.3627 126.513 10.6436 126.235 10.8697C126.027 11.0152 125.78 11.0924 125.526 11.0906C125.422 11.0913 125.318 11.0835 125.215 11.0673C125.11 11.0471 125.006 11.0189 124.904 10.9831L124.562 12.9645C124.781 13.107 125.02 13.2166 125.27 13.2899C125.547 13.3699 125.834 13.4091 126.122 13.4061C126.73 13.4174 127.323 13.2183 127.801 12.8425C128.322 12.412 128.734 11.8645 129.004 11.2445L130.23 8.39727H131.973V11.477L130.567 11.7472V13.3364H136V11.7588L134.603 11.4886V2.06064L135.991 1.79044ZM131.964 6.47682H130.044C129.747 6.49805 129.449 6.45908 129.167 6.36222C128.886 6.26536 128.626 6.11263 128.405 5.91318C128.211 5.70262 128.06 5.45479 127.964 5.18465C127.868 4.91451 127.827 4.62765 127.845 4.34137C127.826 4.05677 127.865 3.77133 127.961 3.50255C128.056 3.23377 128.205 2.98731 128.4 2.77827C128.624 2.58327 128.885 2.43462 129.167 2.34088C129.449 2.24713 129.747 2.21015 130.044 2.23206H131.964V6.47682Z" fill="#27221E"/>
<path d="M5.27001 9.44653L2.00666 11.742L3.19241 7.9922L0 5.58016L4.05386 5.58523L5.24974 1.76953L6.55205 5.47375L10.4894 5.58016L7.29188 7.95673L8.48777 11.742L5.27001 9.44653Z" fill="#EC6644"/>
<path d="M19.023 9.85768L15.263 12.513L16.6261 8.18547L12.9473 5.39844L17.6244 5.40857L19.0027 1L20.5077 5.27682L25.0531 5.39844L21.359 8.13986L22.7424 12.513L19.023 9.85768Z" fill="#EC6644"/>
<path d="M32.7754 9.44653L29.512 11.742L30.6978 7.9922L27.5054 5.58016L31.5643 5.58523L32.7551 1.76953L34.0625 5.47375L37.9998 5.58016L34.7973 7.95673L35.9931 11.742L32.7754 9.44653Z" fill="#EC6644"/>
</svg>
