<?xml version="1.0" encoding="UTF-8"?>
<svg xmlns="http://www.w3.org/2000/svg" xmlns:xlink="http://www.w3.org/1999/xlink" width="178px" height="66px" viewBox="0 0 300 111" version="1.1">
<g id="surface1">
<path style=" stroke:none;fill-rule:nonzero;fill:#f6efdd;fill-opacity:1;" d="M 256.125 110.996094 L 43.742188 110.996094 C 42.988281 110.996094 42.382812 110.386719 42.382812 109.636719 C 42.382812 96.511719 28.304688 93.929688 27.707031 93.828125 C 27.511719 93.796875 27.332031 93.722656 27.167969 93.613281 C 19.472656 92.25 13.40625 85.304688 12.398438 76.667969 C 4.921875 73.183594 0 64.964844 0 55.929688 C 0.0195312 53.761719 0.328125 51.605469 0.917969 49.519531 C 2.5 42.667969 6.816406 37.039062 12.542969 34.351562 C 13.546875 25.703125 19.628906 18.703125 27.34375 17.386719 C 27.5 17.289062 27.667969 17.222656 27.847656 17.191406 C 28.445312 17.089844 42.511719 14.46875 42.511719 1.363281 C 42.511719 0.613281 43.117188 0.00390625 43.871094 0.00390625 L 256.265625 0.00390625 C 257.015625 0.00390625 257.625 0.613281 257.625 1.363281 C 257.625 14.550781 272.152344 17.171875 272.292969 17.191406 C 272.476562 17.222656 272.648438 17.289062 272.804688 17.386719 C 280.632812 18.75 286.59375 25.554688 287.609375 34.351562 C 295.085938 37.835938 300 46.054688 300 55.085938 C 299.984375 57.253906 299.675781 59.410156 299.082031 61.496094 C 297.519531 68.347656 293.203125 73.980469 287.464844 76.667969 C 286.453125 85.4375 280.503906 92.269531 272.6875 93.613281 C 272.527344 93.722656 272.34375 93.796875 272.152344 93.828125 C 271.558594 93.929688 257.484375 96.511719 257.484375 109.636719 C 257.484375 110.386719 256.875 110.996094 256.125 110.996094 Z M 45.050781 108.273438 L 254.8125 108.273438 C 255.660156 95.53125 268.351562 91.902344 271.125 91.265625 C 271.3125 91.128906 271.527344 91.039062 271.757812 91.003906 C 278.691406 90.046875 284.183594 83.589844 284.808594 75.640625 C 284.851562 75.132812 285.171875 74.691406 285.644531 74.496094 C 290.9375 72.292969 294.96875 67.191406 296.417969 60.835938 C 296.953125 58.96875 297.234375 57.035156 297.253906 55.089844 C 297.253906 46.84375 292.644531 39.394531 285.78125 36.535156 C 285.308594 36.339844 284.984375 35.894531 284.945312 35.386719 C 284.324219 27.4375 278.828125 20.972656 271.898438 20.015625 C 271.679688 19.984375 271.472656 19.898438 271.292969 19.769531 C 268.535156 19.136719 255.777344 15.523438 254.921875 2.757812 L 45.1875 2.757812 C 44.339844 15.558594 31.59375 19.171875 28.820312 19.804688 C 28.640625 19.929688 28.4375 20.011719 28.222656 20.042969 C 21.28125 21 15.796875 27.472656 15.171875 35.414062 C 15.132812 35.921875 14.808594 36.367188 14.335938 36.5625 C 9.054688 38.761719 5.023438 43.871094 3.554688 50.214844 C 3.023438 52.085938 2.742188 54.015625 2.71875 55.960938 C 2.71875 64.210938 7.335938 71.675781 14.199219 74.523438 C 14.667969 74.722656 14.988281 75.167969 15.027344 75.675781 C 15.652344 83.617188 21.144531 90.074219 28.074219 91.03125 C 28.300781 91.066406 28.519531 91.15625 28.707031 91.292969 C 31.511719 91.902344 44.210938 95.53125 45.050781 108.273438 Z M 248.800781 25.402344 C 249.195312 24.929688 249.136719 24.226562 248.667969 23.824219 C 248.441406 23.632812 248.144531 23.539062 247.851562 23.566406 C 247.554688 23.589844 247.28125 23.734375 247.089844 23.960938 C 244.960938 26.484375 241.847656 28.5 238.445312 28.222656 L 236.851562 30.214844 C 237.59375 30.386719 238.351562 30.476562 239.109375 30.480469 C 242.535156 30.480469 245.980469 28.746094 248.800781 25.402344 Z M 236.804688 26.492188 C 237.457031 25.40625 237.53125 24.074219 237.007812 22.921875 C 236.589844 21.929688 235.703125 21.214844 234.644531 21.023438 C 233.730469 20.871094 232.796875 21.101562 232.0625 21.660156 C 231.269531 22.21875 230.742188 23.078125 230.597656 24.035156 C 230.476562 25.207031 230.847656 26.375 231.617188 27.261719 L 231.429688 27.316406 C 227.660156 28.320312 223.722656 28.511719 219.875 27.882812 C 219.140625 27.75 218.417969 27.582031 217.703125 27.371094 L 215.664062 29.03125 C 216.90625 29.507812 218.191406 29.863281 219.5 30.085938 C 221.070312 30.351562 222.664062 30.484375 224.257812 30.480469 C 226.878906 30.488281 229.488281 30.152344 232.019531 29.472656 C 233.570312 29.070312 235.710938 28.304688 236.804688 26.492188 Z M 232.816406 24.335938 C 232.882812 23.980469 233.082031 23.667969 233.378906 23.464844 C 233.628906 23.273438 233.945312 23.1875 234.257812 23.226562 C 234.570312 23.300781 234.824219 23.527344 234.9375 23.832031 C 235.152344 24.3125 235.128906 24.867188 234.867188 25.324219 C 234.59375 25.734375 234.234375 26.082031 233.808594 26.335938 C 233.171875 25.882812 232.800781 25.144531 232.816406 24.363281 Z M 103.257812 12.375 L 108.84375 12.375 C 109.265625 12.40625 109.667969 12.199219 109.890625 11.839844 C 110.109375 11.480469 110.109375 11.027344 109.890625 10.667969 C 109.667969 10.308594 109.265625 10.101562 108.84375 10.136719 L 103.257812 10.136719 C 102.839844 10.101562 102.433594 10.308594 102.214844 10.667969 C 101.996094 11.027344 101.996094 11.480469 102.214844 11.839844 C 102.433594 12.199219 102.839844 12.40625 103.257812 12.375 Z M 83.914062 12.375 L 96.828125 12.375 C 97.25 12.40625 97.652344 12.199219 97.871094 11.839844 C 98.089844 11.480469 98.089844 11.027344 97.871094 10.667969 C 97.652344 10.308594 97.25 10.101562 96.828125 10.136719 L 83.914062 10.136719 C 83.328125 10.179688 82.878906 10.667969 82.878906 11.253906 C 82.878906 11.839844 83.328125 12.328125 83.914062 12.375 Z M 64.574219 12.375 L 77.488281 12.375 C 78.074219 12.328125 78.523438 11.839844 78.523438 11.253906 C 78.523438 10.667969 78.074219 10.179688 77.488281 10.136719 L 64.574219 10.136719 C 64.15625 10.101562 63.75 10.308594 63.53125 10.667969 C 63.3125 11.027344 63.3125 11.480469 63.53125 11.839844 C 63.75 12.199219 64.15625 12.40625 64.574219 12.375 Z M 49.261719 17.097656 C 49.449219 17.222656 49.671875 17.289062 49.898438 17.292969 C 50.265625 17.292969 50.609375 17.113281 50.816406 16.808594 C 51.785156 15.417969 52.613281 13.929688 53.285156 12.375 L 58.128906 12.375 C 58.714844 12.328125 59.164062 11.839844 59.164062 11.253906 C 59.164062 10.667969 58.714844 10.179688 58.128906 10.136719 L 51.78125 10.136719 L 51.503906 10.816406 C 50.84375 12.472656 49.996094 14.050781 48.980469 15.515625 C 48.796875 15.765625 48.722656 16.078125 48.777344 16.378906 C 48.828125 16.683594 49.003906 16.953125 49.261719 17.125 Z M 33.667969 26.214844 L 29.855469 27.324219 C 27.601562 27.753906 25.664062 29.1875 24.585938 31.214844 C 24.324219 31.746094 24.515625 32.390625 25.027344 32.6875 C 25.539062 32.980469 26.195312 32.828125 26.523438 32.335938 C 27.269531 30.878906 28.644531 29.839844 30.253906 29.527344 L 34.292969 28.363281 C 34.703125 28.277344 35.03125 27.964844 35.140625 27.558594 C 35.25 27.152344 35.125 26.71875 34.8125 26.4375 C 34.503906 26.152344 34.0625 26.066406 33.667969 26.214844 Z M 45.902344 19.144531 C 43.601562 21.351562 40.964844 23.171875 38.09375 24.546875 C 37.621094 24.773438 37.367188 25.296875 37.484375 25.804688 C 37.605469 26.3125 38.058594 26.675781 38.582031 26.667969 C 38.75 26.671875 38.917969 26.632812 39.070312 26.5625 C 42.160156 25.082031 44.992188 23.121094 47.457031 20.742188 C 47.898438 20.3125 47.910156 19.605469 47.480469 19.164062 C 47.050781 18.722656 46.34375 18.714844 45.902344 19.144531 Z M 18.636719 45.375 C 18.785156 45.375 18.929688 45.34375 19.066406 45.285156 L 24.859375 42.878906 L 25.355469 36.617188 C 25.417969 36.199219 25.246094 35.78125 24.90625 35.535156 C 24.5625 35.289062 24.113281 35.25 23.738281 35.441406 C 23.363281 35.632812 23.125 36.019531 23.125 36.441406 L 22.738281 41.339844 L 18.210938 43.226562 C 17.714844 43.425781 17.429688 43.953125 17.535156 44.476562 C 17.640625 45.003906 18.101562 45.378906 18.636719 45.375 Z M 14.191406 47.894531 C 13.644531 47.609375 12.972656 47.816406 12.683594 48.363281 C 12.074219 49.558594 11.621094 50.824219 11.324219 52.132812 C 10.265625 55.683594 10.667969 59.515625 12.445312 62.765625 C 12.644531 63.125 13.019531 63.34375 13.425781 63.34375 C 13.613281 63.34375 13.796875 63.296875 13.960938 63.210938 C 14.503906 62.910156 14.703125 62.226562 14.402344 61.683594 C 13.453125 59.917969 12.964844 57.9375 12.984375 55.929688 C 13.003906 54.828125 13.175781 53.734375 13.492188 52.675781 C 13.746094 51.535156 14.144531 50.433594 14.675781 49.394531 C 14.8125 49.132812 14.839844 48.824219 14.75 48.542969 C 14.65625 48.261719 14.457031 48.027344 14.191406 47.894531 Z M 25.210938 74.394531 L 24.714844 68.136719 L 18.921875 65.726562 C 18.382812 65.570312 17.804688 65.84375 17.585938 66.363281 C 17.363281 66.882812 17.570312 67.488281 18.058594 67.769531 L 22.59375 69.652344 L 22.980469 74.550781 C 23.027344 75.132812 23.515625 75.582031 24.097656 75.578125 L 24.210938 75.578125 C 24.808594 75.515625 25.246094 74.996094 25.210938 74.394531 Z M 38.949219 84.425781 C 38.386719 84.15625 37.710938 84.394531 37.441406 84.957031 C 37.167969 85.519531 37.40625 86.195312 37.96875 86.46875 C 40.84375 87.820312 43.480469 89.625 45.78125 91.816406 C 45.988281 92.019531 46.269531 92.132812 46.5625 92.136719 C 47.015625 92.132812 47.425781 91.855469 47.597656 91.433594 C 47.769531 91.011719 47.667969 90.527344 47.34375 90.210938 C 44.871094 87.84375 42.039062 85.890625 38.949219 84.425781 Z M 34.148438 82.636719 L 30.167969 81.457031 L 30.003906 81.457031 C 28.4375 81.136719 27.101562 80.117188 26.378906 78.6875 C 26.074219 78.152344 25.390625 77.96875 24.855469 78.277344 C 24.320312 78.585938 24.136719 79.269531 24.441406 79.804688 C 25.496094 81.804688 27.394531 83.222656 29.609375 83.664062 L 33.519531 84.8125 C 33.621094 84.847656 33.730469 84.863281 33.835938 84.859375 C 34.398438 84.867188 34.875 84.457031 34.953125 83.902344 C 35.035156 83.347656 34.691406 82.820312 34.148438 82.671875 Z M 57.996094 98.621094 L 53.148438 98.621094 C 52.472656 97.0625 51.644531 95.578125 50.679688 94.183594 C 50.46875 93.820312 50.070312 93.605469 49.648438 93.628906 C 49.226562 93.65625 48.855469 93.914062 48.6875 94.300781 C 48.515625 94.6875 48.578125 95.136719 48.84375 95.460938 C 49.859375 96.925781 50.707031 98.503906 51.367188 100.15625 L 51.644531 100.835938 L 57.996094 100.835938 C 58.414062 100.871094 58.816406 100.664062 59.039062 100.304688 C 59.257812 99.945312 59.257812 99.492188 59.039062 99.132812 C 58.816406 98.773438 58.414062 98.566406 57.996094 98.597656 Z M 106.988281 98.621094 L 96.113281 98.621094 C 95.53125 98.664062 95.078125 99.152344 95.078125 99.738281 C 95.078125 100.324219 95.53125 100.8125 96.113281 100.859375 L 106.988281 100.859375 C 107.574219 100.8125 108.023438 100.324219 108.023438 99.738281 C 108.023438 99.152344 107.574219 98.664062 106.988281 98.621094 Z M 74.363281 98.621094 L 63.488281 98.621094 C 62.902344 98.664062 62.453125 99.152344 62.453125 99.738281 C 62.453125 100.324219 62.902344 100.8125 63.488281 100.859375 L 74.363281 100.859375 C 74.945312 100.8125 75.398438 100.324219 75.398438 99.738281 C 75.398438 99.152344 74.945312 98.664062 74.363281 98.621094 Z M 90.675781 98.621094 L 79.800781 98.621094 C 79.378906 98.585938 78.976562 98.792969 78.757812 99.152344 C 78.535156 99.511719 78.535156 99.964844 78.757812 100.324219 C 78.976562 100.683594 79.378906 100.890625 79.800781 100.859375 L 90.675781 100.859375 C 91.097656 100.890625 91.5 100.683594 91.71875 100.324219 C 91.941406 99.964844 91.941406 99.511719 91.71875 99.152344 C 91.5 98.792969 91.097656 98.585938 90.675781 98.621094 Z M 139.671875 98.621094 L 128.796875 98.621094 C 128.375 98.585938 127.972656 98.792969 127.753906 99.152344 C 127.53125 99.511719 127.53125 99.964844 127.753906 100.324219 C 127.972656 100.683594 128.375 100.890625 128.796875 100.859375 L 139.671875 100.859375 C 140.089844 100.890625 140.496094 100.683594 140.714844 100.324219 C 140.933594 99.964844 140.933594 99.511719 140.714844 99.152344 C 140.496094 98.792969 140.089844 98.585938 139.671875 98.621094 Z M 221.335938 98.621094 L 210.457031 98.621094 C 210.039062 98.585938 209.636719 98.792969 209.414062 99.152344 C 209.195312 99.511719 209.195312 99.964844 209.414062 100.324219 C 209.636719 100.683594 210.039062 100.890625 210.457031 100.859375 L 221.335938 100.859375 C 221.753906 100.890625 222.15625 100.683594 222.378906 100.324219 C 222.597656 99.964844 222.597656 99.511719 222.378906 99.152344 C 222.15625 98.792969 221.753906 98.585938 221.335938 98.621094 Z M 237.648438 98.621094 L 226.773438 98.621094 C 226.1875 98.664062 225.738281 99.152344 225.738281 99.738281 C 225.738281 100.324219 226.1875 100.8125 226.773438 100.859375 L 237.648438 100.859375 C 238.070312 100.890625 238.472656 100.683594 238.691406 100.324219 C 238.910156 99.964844 238.910156 99.511719 238.691406 99.152344 C 238.472656 98.792969 238.070312 98.585938 237.648438 98.621094 Z M 204.988281 98.621094 L 194.109375 98.621094 C 193.527344 98.664062 193.078125 99.152344 193.078125 99.738281 C 193.078125 100.324219 193.527344 100.8125 194.109375 100.859375 L 204.988281 100.859375 C 205.570312 100.8125 206.019531 100.324219 206.019531 99.738281 C 206.019531 99.152344 205.570312 98.664062 204.988281 98.621094 Z M 188.671875 98.621094 L 177.796875 98.621094 C 177.214844 98.664062 176.761719 99.152344 176.761719 99.738281 C 176.761719 100.324219 177.214844 100.8125 177.796875 100.859375 L 188.671875 100.859375 C 189.09375 100.890625 189.496094 100.683594 189.71875 100.324219 C 189.9375 99.964844 189.9375 99.511719 189.71875 99.152344 C 189.496094 98.792969 189.09375 98.585938 188.671875 98.621094 Z M 123.351562 98.621094 L 112.476562 98.621094 C 112.054688 98.585938 111.652344 98.792969 111.433594 99.152344 C 111.210938 99.511719 111.210938 99.964844 111.433594 100.324219 C 111.652344 100.683594 112.054688 100.890625 112.476562 100.859375 L 123.351562 100.859375 C 123.933594 100.8125 124.386719 100.324219 124.386719 99.738281 C 124.386719 99.152344 123.933594 98.664062 123.351562 98.621094 Z M 156.011719 98.621094 L 145.136719 98.621094 C 144.550781 98.664062 144.101562 99.152344 144.101562 99.738281 C 144.101562 100.324219 144.550781 100.8125 145.136719 100.859375 L 156.011719 100.859375 C 156.597656 100.8125 157.046875 100.324219 157.046875 99.738281 C 157.046875 99.152344 156.597656 98.664062 156.011719 98.621094 Z M 172.324219 98.621094 L 161.449219 98.621094 C 161.03125 98.585938 160.625 98.792969 160.40625 99.152344 C 160.1875 99.511719 160.1875 99.964844 160.40625 100.324219 C 160.625 100.683594 161.03125 100.890625 161.449219 100.859375 L 172.324219 100.859375 C 172.910156 100.8125 173.359375 100.324219 173.359375 99.738281 C 173.359375 99.152344 172.910156 98.664062 172.324219 98.621094 Z M 251.964844 93.902344 C 251.457031 93.554688 250.761719 93.675781 250.40625 94.183594 C 249.441406 95.578125 248.613281 97.0625 247.9375 98.621094 L 243.085938 98.621094 C 242.664062 98.585938 242.261719 98.792969 242.042969 99.152344 C 241.820312 99.511719 241.820312 99.964844 242.042969 100.324219 C 242.261719 100.683594 242.664062 100.890625 243.085938 100.859375 L 249.433594 100.859375 L 249.714844 100.179688 C 250.375 98.523438 251.21875 96.949219 252.234375 95.484375 C 252.417969 95.238281 252.488281 94.925781 252.4375 94.625 C 252.382812 94.324219 252.210938 94.058594 251.957031 93.890625 Z M 276.222656 78.253906 C 275.96875 78.105469 275.664062 78.0625 275.375 78.140625 C 275.089844 78.214844 274.847656 78.40625 274.699219 78.664062 C 273.949219 80.113281 272.574219 81.144531 270.96875 81.457031 L 266.890625 82.648438 C 266.359375 82.808594 266.023438 83.335938 266.105469 83.886719 C 266.183594 84.4375 266.652344 84.84375 267.210938 84.847656 C 267.316406 84.84375 267.425781 84.828125 267.527344 84.800781 L 271.335938 83.664062 C 273.582031 83.230469 275.515625 81.804688 276.597656 79.785156 C 276.753906 79.53125 276.800781 79.222656 276.730469 78.933594 C 276.65625 78.640625 276.472656 78.394531 276.214844 78.242188 Z M 262.117188 84.425781 C 259.03125 85.902344 256.199219 87.863281 253.730469 90.238281 C 253.296875 90.675781 253.296875 91.386719 253.738281 91.820312 C 254.175781 92.257812 254.886719 92.253906 255.320312 91.816406 C 257.617188 89.605469 260.25 87.78125 263.125 86.414062 C 263.6875 86.144531 263.925781 85.46875 263.65625 84.90625 C 263.390625 84.339844 262.714844 84.101562 262.152344 84.371094 Z M 282.136719 65.71875 L 276.34375 68.136719 L 275.855469 74.394531 C 275.832031 74.691406 275.925781 74.984375 276.117188 75.210938 C 276.3125 75.4375 276.585938 75.578125 276.882812 75.601562 L 276.96875 75.601562 C 277.554688 75.601562 278.039062 75.15625 278.085938 74.574219 L 278.464844 69.671875 L 283 67.789062 C 283.464844 67.496094 283.652344 66.90625 283.4375 66.398438 C 283.222656 65.894531 282.671875 65.617188 282.136719 65.746094 Z M 288.785156 48.265625 C 288.597656 47.902344 288.230469 47.667969 287.820312 47.65625 C 287.410156 47.644531 287.027344 47.855469 286.820312 48.207031 C 286.613281 48.558594 286.613281 48.996094 286.820312 49.347656 C 287.769531 51.117188 288.261719 53.09375 288.246094 55.097656 C 288.222656 56.191406 288.054688 57.277344 287.746094 58.324219 C 287.484375 59.472656 287.082031 60.585938 286.546875 61.636719 C 286.261719 62.183594 286.472656 62.859375 287.015625 63.148438 C 287.179688 63.226562 287.355469 63.269531 287.535156 63.269531 C 287.949219 63.273438 288.335938 63.042969 288.527344 62.671875 C 289.136719 61.464844 289.59375 60.1875 289.886719 58.867188 C 290.933594 55.328125 290.539062 51.515625 288.785156 48.265625 Z M 283.148438 43.246094 L 278.621094 41.367188 L 278.234375 36.476562 C 278.214844 36.175781 278.074219 35.902344 277.847656 35.707031 C 277.625 35.511719 277.328125 35.417969 277.03125 35.441406 C 276.417969 35.496094 275.960938 36.03125 276.003906 36.644531 L 276.5 42.910156 L 282.292969 45.3125 C 282.429688 45.367188 282.574219 45.394531 282.722656 45.394531 C 283.257812 45.398438 283.71875 45.023438 283.824219 44.496094 C 283.929688 43.972656 283.644531 43.445312 283.148438 43.246094 Z M 267.074219 28.40625 L 271.042969 29.570312 L 271.207031 29.570312 C 272.78125 29.886719 274.125 30.914062 274.84375 32.351562 C 275.042969 32.699219 275.414062 32.910156 275.816406 32.910156 C 276.007812 32.910156 276.199219 32.859375 276.367188 32.757812 C 276.621094 32.613281 276.8125 32.371094 276.890625 32.082031 C 276.964844 31.796875 276.925781 31.492188 276.78125 31.234375 C 275.734375 29.21875 273.824219 27.792969 271.59375 27.363281 L 267.699219 26.226562 C 267.109375 26.054688 266.488281 26.394531 266.316406 26.984375 C 266.144531 27.578125 266.484375 28.199219 267.074219 28.371094 Z M 263.246094 24.585938 C 260.371094 23.214844 257.730469 21.390625 255.429688 19.183594 C 254.988281 18.753906 254.28125 18.765625 253.847656 19.207031 C 253.417969 19.652344 253.429688 20.359375 253.875 20.789062 C 256.34375 23.167969 259.179688 25.128906 262.273438 26.601562 C 262.839844 26.871094 263.511719 26.632812 263.78125 26.066406 C 264.050781 25.503906 263.808594 24.828125 263.246094 24.558594 Z M 249.84375 10.84375 L 249.5625 10.164062 L 243.214844 10.164062 C 242.632812 10.207031 242.179688 10.695312 242.179688 11.28125 C 242.179688 11.867188 242.632812 12.355469 243.214844 12.402344 L 248.054688 12.402344 C 248.734375 13.957031 249.5625 15.441406 250.527344 16.835938 C 250.742188 17.203125 251.140625 17.414062 251.5625 17.390625 C 251.984375 17.363281 252.355469 17.105469 252.523438 16.71875 C 252.691406 16.332031 252.632812 15.882812 252.363281 15.558594 C 251.347656 14.085938 250.5 12.503906 249.84375 10.84375 Z M 147.101562 30.03125 L 142.140625 28.335938 C 131.546875 29.269531 120.902344 29.484375 110.28125 28.976562 L 106.277344 28.828125 C 92.070312 28.316406 77.441406 27.777344 63.5625 24.4375 C 93.675781 19.867188 119.648438 23.171875 147.847656 27.644531 C 161.210938 29.765625 172.46875 31.222656 183.941406 31.460938 C 185.742188 31.460938 187.660156 31.535156 189.644531 31.535156 C 198.578125 31.535156 208.910156 30.730469 215.929688 25.273438 C 218.464844 23.300781 219.4375 20.96875 218.527344 19.023438 C 217.933594 17.597656 216.5625 16.65625 215.019531 16.613281 C 212.617188 16.710938 210.511719 18.242188 209.675781 20.5 C 208.984375 22.335938 209.386719 24.40625 210.71875 25.847656 C 202.8125 29.609375 192.121094 29.390625 183.988281 29.25 C 176.546875 29.054688 169.121094 28.449219 161.742188 27.4375 C 164.148438 26.902344 166.738281 26.273438 169.417969 25.535156 L 165.25 24.316406 C 162.285156 25.058594 159.5 25.675781 157.039062 26.152344 L 155.140625 26.527344 C 152.886719 26.195312 150.574219 25.847656 148.195312 25.457031 C 118.191406 20.695312 90.695312 17.253906 58.027344 23.109375 L 57.960938 23.109375 L 57.851562 23.144531 L 57.75 23.1875 L 57.660156 23.234375 C 57.628906 23.253906 57.59375 23.273438 57.566406 23.300781 L 57.484375 23.363281 L 57.402344 23.445312 L 57.335938 23.519531 L 57.273438 23.613281 L 57.226562 23.703125 C 57.207031 23.742188 57.191406 23.777344 57.179688 23.820312 L 57.179688 23.878906 C 57.175781 23.921875 57.175781 23.960938 57.179688 24.003906 C 57.179688 24.003906 57.179688 24.070312 57.179688 24.105469 L 57.179688 24.214844 C 57.179688 24.253906 57.179688 24.296875 57.179688 24.328125 L 57.179688 24.398438 C 57.175781 24.433594 57.175781 24.472656 57.179688 24.511719 C 57.191406 24.546875 57.203125 24.578125 57.21875 24.609375 C 57.230469 24.640625 57.246094 24.671875 57.265625 24.703125 L 57.328125 24.796875 L 57.398438 24.878906 L 57.472656 24.953125 L 57.554688 25.023438 L 57.648438 25.085938 L 57.738281 25.140625 L 57.851562 25.1875 L 57.90625 25.1875 C 73.539062 29.8125 90.117188 30.414062 106.167969 30.996094 L 110.164062 31.140625 C 114.480469 31.304688 118.550781 31.390625 122.398438 31.390625 C 130.652344 31.46875 138.90625 31.011719 147.101562 30.03125 Z M 211.816406 21.289062 C 212.332031 19.945312 213.550781 19 214.980469 18.84375 L 215.019531 18.84375 C 215.710938 18.863281 216.320312 19.304688 216.550781 19.960938 C 217.066406 21.0625 215.828125 22.554688 214.613281 23.5 C 214.03125 23.945312 213.429688 24.359375 212.804688 24.738281 C 211.773438 23.914062 211.378906 22.53125 211.816406 21.289062 Z M 185.246094 25.566406 C 186.253906 25.738281 187.285156 25.496094 188.117188 24.90625 C 188.945312 24.3125 189.507812 23.410156 189.671875 22.402344 C 189.714844 22.160156 189.730469 21.910156 189.726562 21.660156 L 185.117188 22.527344 C 184.722656 23.015625 184.09375 23.253906 183.472656 23.152344 L 178.898438 22.410156 L 180.394531 21.84375 C 187.832031 19.042969 195.769531 16.164062 203.84375 14.433594 C 212.574219 12.570312 221.054688 12.394531 229.675781 12.394531 L 235.261719 12.394531 C 235.683594 12.425781 236.085938 12.222656 236.304688 11.859375 C 236.527344 11.5 236.527344 11.046875 236.304688 10.6875 C 236.085938 10.328125 235.683594 10.121094 235.261719 10.15625 L 229.695312 10.15625 C 220.933594 10.15625 212.320312 10.3125 203.375 12.195312 C 197.140625 13.613281 191.011719 15.449219 185.023438 17.695312 L 170.210938 15.230469 C 163.019531 14.035156 139.148438 10.394531 116.742188 10.242188 C 138.113281 17.519531 161.238281 21.554688 168.949219 22.832031 Z M 175.371094 20.023438 C 175.449219 19.558594 175.707031 19.144531 176.089844 18.871094 C 176.472656 18.597656 176.949219 18.492188 177.410156 18.574219 L 181.121094 19.191406 L 179.652344 19.742188 L 177.613281 20.503906 C 176.933594 20.757812 176.253906 20.988281 175.574219 21.226562 C 175.351562 20.867188 175.269531 20.4375 175.335938 20.023438 Z M 39.65625 66.972656 L 42.925781 66.339844 L 42.925781 44.3125 L 39.65625 43.679688 L 39.65625 39.964844 L 52.203125 39.964844 L 52.203125 43.679688 L 49.082031 44.3125 L 49.082031 52.527344 L 51.84375 52.527344 L 57.601562 44.230469 C 58.484375 42.878906 59.578125 41.671875 60.84375 40.667969 C 61.960938 39.957031 63.273438 39.609375 64.59375 39.671875 C 65.273438 39.667969 65.949219 39.769531 66.601562 39.964844 C 67.199219 40.15625 67.773438 40.417969 68.304688 40.746094 L 67.273438 45.367188 L 66.355469 45.171875 C 66.132812 45.128906 65.902344 45.109375 65.675781 45.117188 C 65.035156 45.113281 64.410156 45.304688 63.882812 45.667969 C 63.121094 46.246094 62.453125 46.933594 61.894531 47.707031 L 57.089844 54.289062 L 65.585938 66.46875 L 68.816406 66.992188 L 68.816406 70.722656 L 56.636719 70.722656 L 56.636719 67.027344 L 58.390625 66.773438 L 52.652344 58.148438 L 49.050781 58.148438 L 49.050781 66.367188 L 52.167969 67 L 52.167969 70.722656 L 39.621094 70.722656 Z M 97.929688 55.535156 C 97.929688 60.039062 96.640625 63.761719 94.066406 66.699219 C 91.539062 69.621094 87.828125 71.242188 83.96875 71.109375 C 80.125 71.242188 76.429688 69.621094 73.925781 66.699219 C 71.371094 63.761719 70.097656 60.039062 70.101562 55.535156 L 70.101562 55.070312 C 70.101562 50.601562 71.371094 46.890625 73.914062 43.933594 C 76.40625 40.996094 80.101562 39.359375 83.945312 39.496094 C 87.8125 39.363281 91.53125 40.996094 94.054688 43.933594 C 96.636719 46.886719 97.929688 50.597656 97.929688 55.070312 Z M 91.8125 55.03125 C 91.8125 51.855469 91.148438 49.273438 89.828125 47.285156 C 88.546875 45.316406 86.3125 44.179688 83.96875 44.308594 C 81.382812 44.308594 79.457031 45.292969 78.183594 47.265625 C 76.910156 49.238281 76.253906 51.839844 76.21875 55.070312 L 76.21875 55.574219 C 76.21875 58.8125 76.863281 61.417969 78.148438 63.394531 C 79.398438 65.355469 81.613281 66.488281 83.933594 66.359375 C 86.277344 66.492188 88.515625 65.359375 89.800781 63.394531 C 91.105469 61.417969 91.757812 58.8125 91.757812 55.574219 Z M 114.472656 58.09375 L 109.839844 66.742188 L 111.015625 66.972656 L 111.015625 70.722656 L 99.371094 70.722656 L 99.371094 67.027344 L 102.421875 66.585938 L 109.714844 54.03125 L 105.820312 47.742188 C 105.332031 46.980469 104.734375 46.289062 104.046875 45.703125 C 103.582031 45.34375 103.007812 45.148438 102.421875 45.152344 C 102.152344 45.148438 101.878906 45.171875 101.613281 45.226562 L 100.84375 45.402344 L 99.933594 40.78125 C 100.460938 40.445312 101.035156 40.179688 101.632812 40 C 102.308594 39.800781 103.003906 39.703125 103.707031 39.707031 C 105.003906 39.640625 106.292969 39.992188 107.378906 40.707031 C 108.570312 41.691406 109.558594 42.902344 110.285156 44.265625 L 115.042969 52.558594 L 118.226562 52.558594 L 118.226562 44.3125 L 114.941406 43.679688 L 114.941406 39.964844 L 127.652344 39.964844 L 127.652344 43.679688 L 124.363281 44.3125 L 124.363281 52.527344 L 127.53125 52.527344 L 132.214844 44.230469 C 132.910156 42.863281 133.875 41.652344 135.054688 40.671875 C 136.152344 39.960938 137.441406 39.609375 138.746094 39.671875 C 139.4375 39.671875 140.125 39.769531 140.785156 39.964844 C 141.398438 40.15625 141.984375 40.417969 142.53125 40.746094 L 141.667969 45.367188 L 140.867188 45.191406 C 140.613281 45.140625 140.351562 45.117188 140.09375 45.117188 C 139.5 45.113281 138.921875 45.304688 138.449219 45.667969 C 137.761719 46.25 137.179688 46.9375 136.714844 47.707031 L 132.792969 54.078125 L 139.921875 66.550781 L 143.105469 66.992188 L 143.105469 70.722656 L 131.390625 70.722656 L 131.390625 67.027344 L 132.609375 66.796875 L 128.0625 58.148438 L 124.371094 58.148438 L 124.371094 66.367188 L 127.660156 67 L 127.660156 70.722656 L 114.949219 70.722656 L 114.949219 67.027344 L 118.234375 66.394531 L 118.234375 58.121094 Z M 164.917969 57.160156 L 154.476562 57.160156 L 154.476562 65.957031 L 164.378906 65.957031 L 164.652344 62.289062 L 169.335938 62.289062 L 169.335938 70.722656 L 145.046875 70.722656 L 145.046875 67.027344 L 148.316406 66.394531 L 148.316406 44.3125 L 145.046875 43.679688 L 145.046875 39.964844 L 169.292969 39.964844 L 169.292969 48.390625 L 164.570312 48.390625 L 164.296875 44.714844 L 154.476562 44.714844 L 154.476562 52.4375 L 164.863281 52.4375 Z M 186.261719 39.964844 C 189.886719 39.964844 192.703125 40.671875 194.714844 42.082031 C 196.753906 43.484375 197.753906 45.59375 197.753906 48.390625 C 197.773438 49.746094 197.378906 51.074219 196.625 52.199219 C 195.820312 53.359375 194.671875 54.238281 193.34375 54.71875 C 195 54.996094 196.484375 55.902344 197.488281 57.25 C 198.40625 58.566406 198.882812 60.140625 198.847656 61.746094 C 198.847656 64.6875 197.878906 66.914062 195.941406 68.429688 C 194 69.945312 191.257812 70.707031 187.714844 70.722656 L 172.625 70.722656 L 172.625 67.027344 L 175.894531 66.394531 L 175.894531 44.3125 L 172.625 43.679688 L 172.625 39.964844 Z M 182.046875 52.839844 L 186.472656 52.839844 C 187.8125 52.925781 189.148438 52.570312 190.269531 51.824219 C 191.171875 51.121094 191.667969 50.015625 191.597656 48.871094 C 191.6875 47.664062 191.179688 46.488281 190.238281 45.730469 C 189.046875 44.972656 187.644531 44.617188 186.238281 44.714844 L 182.027344 44.714844 Z M 182.046875 57.105469 L 182.046875 65.953125 L 187.714844 65.953125 C 189.042969 66.042969 190.363281 65.667969 191.445312 64.890625 C 192.34375 64.09375 192.820312 62.929688 192.738281 61.734375 C 192.824219 60.484375 192.429688 59.25 191.636719 58.28125 C 190.910156 57.488281 189.753906 57.09375 188.183594 57.09375 Z M 201.167969 43.679688 L 201.167969 39.964844 L 213.859375 39.964844 L 213.859375 43.679688 L 210.566406 44.3125 L 210.566406 53.160156 L 223.09375 53.160156 L 223.09375 44.3125 L 219.804688 43.679688 L 219.804688 39.964844 L 232.515625 39.964844 L 232.515625 43.679688 L 229.226562 44.3125 L 229.226562 66.367188 L 232.515625 67 L 232.515625 70.722656 L 219.804688 70.722656 L 219.804688 67.027344 L 223.09375 66.394531 L 223.09375 57.929688 L 210.589844 57.929688 L 210.589844 66.367188 L 213.878906 67 L 213.878906 70.722656 L 201.167969 70.722656 L 201.167969 67.027344 L 204.4375 66.394531 L 204.4375 44.3125 Z M 261.859375 43.679688 L 261.859375 39.964844 L 247.945312 39.964844 C 244.421875 39.964844 241.660156 40.78125 239.660156 42.414062 C 237.660156 44.046875 236.664062 46.378906 236.667969 49.402344 C 236.59375 51.28125 237.148438 53.132812 238.246094 54.65625 C 239.496094 56.171875 241.144531 57.304688 243.003906 57.929688 L 240.605469 63.011719 C 240.21875 63.757812 239.683594 64.414062 239.035156 64.945312 C 238.550781 65.285156 237.96875 65.464844 237.375 65.460938 C 237.132812 65.464844 236.890625 65.445312 236.648438 65.40625 C 236.402344 65.359375 236.160156 65.292969 235.921875 65.210938 L 235.121094 69.851562 C 235.632812 70.183594 236.191406 70.441406 236.777344 70.613281 C 237.425781 70.800781 238.097656 70.890625 238.769531 70.886719 C 240.191406 70.910156 241.578125 70.445312 242.699219 69.566406 C 243.917969 68.554688 244.882812 67.273438 245.511719 65.824219 L 248.382812 59.152344 L 252.460938 59.152344 L 252.460938 66.367188 L 249.167969 67 L 249.167969 70.722656 L 261.878906 70.722656 L 261.878906 67.027344 L 258.609375 66.394531 L 258.609375 44.3125 Z M 252.4375 54.65625 L 247.945312 54.65625 C 246.542969 54.757812 245.15625 54.28125 244.113281 53.335938 C 243.191406 52.339844 242.71875 51.011719 242.800781 49.65625 C 242.710938 48.308594 243.179688 46.984375 244.097656 45.996094 C 245.160156 45.070312 246.542969 44.613281 247.945312 44.714844 L 252.4375 44.714844 Z M 118.980469 84.59375 C 118.980469 84.59375 111.046875 81.195312 110.144531 81.535156 C 109.511719 81.785156 109.511719 83.066406 109.660156 84.527344 L 72.277344 84.527344 L 65.480469 78.851562 C 65.210938 78.632812 64.816406 78.667969 64.59375 78.933594 C 64.375 79.203125 64.410156 79.597656 64.675781 79.820312 L 70.34375 84.527344 L 67.382812 84.527344 C 67.347656 84.511719 67.3125 84.5 67.273438 84.492188 L 61.027344 79.390625 C 60.757812 79.171875 60.363281 79.210938 60.144531 79.480469 C 60.039062 79.609375 59.988281 79.773438 60.007812 79.941406 C 60.023438 80.105469 60.105469 80.257812 60.238281 80.363281 L 65.335938 84.527344 L 62.433594 84.527344 L 57.914062 81.167969 C 57.636719 80.960938 57.242188 81.015625 57.035156 81.296875 C 56.828125 81.574219 56.886719 81.964844 57.164062 82.171875 L 60.332031 84.527344 L 53.15625 84.527344 C 52.832031 84.5625 52.589844 84.832031 52.589844 85.15625 C 52.589844 85.480469 52.832031 85.753906 53.15625 85.785156 L 60.074219 85.785156 L 57.289062 87.921875 C 57.15625 88.023438 57.066406 88.171875 57.046875 88.335938 C 57.023438 88.503906 57.070312 88.667969 57.171875 88.800781 C 57.382812 89.074219 57.773438 89.125 58.050781 88.917969 L 62.128906 85.785156 L 65.234375 85.785156 L 60.511719 89.726562 C 60.382812 89.832031 60.300781 89.984375 60.285156 90.152344 C 60.269531 90.316406 60.320312 90.484375 60.429688 90.609375 C 60.546875 90.753906 60.722656 90.835938 60.910156 90.835938 C 61.058594 90.835938 61.199219 90.785156 61.3125 90.691406 L 67.183594 85.785156 L 70.230469 85.785156 L 64.839844 90.128906 C 64.710938 90.230469 64.625 90.382812 64.609375 90.550781 C 64.589844 90.714844 64.640625 90.882812 64.746094 91.011719 C 64.863281 91.160156 65.042969 91.246094 65.234375 91.242188 C 65.375 91.242188 65.515625 91.191406 65.628906 91.109375 L 72.222656 85.785156 L 109.789062 85.785156 C 109.832031 86.070312 109.871094 86.359375 109.90625 86.628906 C 110.183594 88.765625 110.429688 89.875 112.929688 88.582031 C 115.433594 87.289062 120.09375 85.085938 118.980469 84.59375 Z M 248.054688 84.527344 L 240.902344 84.527344 L 244.070312 82.171875 C 244.347656 81.964844 244.40625 81.574219 244.199219 81.296875 C 243.996094 81.015625 243.601562 80.960938 243.324219 81.167969 L 238.804688 84.527344 L 235.902344 84.527344 L 241 80.363281 C 241.269531 80.144531 241.308594 79.75 241.089844 79.480469 C 240.875 79.214844 240.480469 79.171875 240.210938 79.390625 L 233.964844 84.492188 C 233.925781 84.5 233.890625 84.511719 233.855469 84.527344 L 230.890625 84.527344 L 236.5625 79.820312 C 236.828125 79.597656 236.863281 79.203125 236.640625 78.933594 C 236.421875 78.667969 236.023438 78.632812 235.757812 78.851562 L 228.960938 84.527344 L 191.574219 84.527344 C 191.726562 83.066406 191.726562 81.804688 191.09375 81.535156 C 190.167969 81.167969 182.257812 84.59375 182.257812 84.59375 C 181.140625 85.085938 185.804688 87.285156 188.304688 88.582031 C 190.808594 89.882812 191.023438 88.765625 191.332031 86.628906 C 191.363281 86.359375 191.40625 86.070312 191.445312 85.785156 L 229.007812 85.785156 L 235.609375 91.132812 C 235.722656 91.21875 235.859375 91.269531 236.003906 91.269531 C 236.195312 91.273438 236.375 91.1875 236.492188 91.039062 C 236.597656 90.910156 236.648438 90.742188 236.628906 90.578125 C 236.613281 90.410156 236.527344 90.257812 236.398438 90.15625 L 231.007812 85.8125 L 234.050781 85.8125 L 239.925781 90.71875 C 240.039062 90.8125 240.179688 90.863281 240.328125 90.863281 C 240.511719 90.863281 240.691406 90.78125 240.808594 90.636719 C 240.914062 90.511719 240.96875 90.34375 240.953125 90.179688 C 240.9375 90.011719 240.855469 89.859375 240.726562 89.753906 L 235.96875 85.8125 L 239.074219 85.8125 L 243.152344 88.945312 C 243.429688 89.152344 243.820312 89.101562 244.03125 88.828125 C 244.242188 88.554688 244.1875 88.160156 243.914062 87.949219 L 241.128906 85.8125 L 248.046875 85.8125 C 248.371094 85.78125 248.613281 85.507812 248.613281 85.183594 C 248.613281 84.859375 248.371094 84.589844 248.046875 84.554688 Z M 136.503906 90.699219 L 134.898438 85.609375 L 139.195312 82.417969 L 133.914062 82.273438 L 132.160156 77.300781 L 130.5625 82.425781 L 125.125 82.425781 L 129.40625 85.664062 L 127.816406 90.707031 L 132.195312 87.617188 Z M 155.625 91.726562 L 153.769531 85.859375 L 158.722656 82.171875 L 152.605469 82.015625 L 150.566406 76.273438 L 148.726562 82.1875 L 142.445312 82.1875 L 147.386719 85.929688 L 145.550781 91.742188 L 150.59375 88.179688 Z M 173.398438 90.699219 L 171.796875 85.609375 L 176.089844 82.417969 L 170.808594 82.273438 L 169.054688 77.300781 L 167.457031 82.425781 L 162.019531 82.425781 L 166.277344 85.691406 L 164.6875 90.734375 L 169.0625 87.644531 Z M 173.398438 90.699219 "/>
</g>
</svg>
