<svg width="169" height="30" viewBox="0 0 169 30" fill="none" xmlns="http://www.w3.org/2000/svg">
<path d="M66.1641 0C56.9329 0 50.6445 6.24811 50.6445 14.9149C50.6445 23.5816 56.9329 29.8298 66.1641 29.8298C69.2276 29.8298 71.5656 29.0639 73.3795 28.2172C74.3874 27.7335 75.2742 27.2096 76.0401 26.6049L73.6215 22.7753C73.0168 23.1784 72.3719 23.5414 71.606 23.8637C70.316 24.4684 68.6231 24.9925 66.5672 24.9925C60.561 24.9925 56.4896 20.9212 56.4896 14.9149C56.4896 8.9086 60.561 4.83725 66.5672 4.83725C68.4617 4.83725 70.0339 5.24035 71.2835 5.72407C71.9688 6.00624 72.6136 6.28842 73.2184 6.65122L75.637 2.82173C74.9115 2.29769 74.0648 1.81397 73.0974 1.41086C71.4446 0.725588 69.1068 0 66.1641 0ZM80.8806 29.0235H94.9487C102.245 29.0235 106.075 25.1941 106.075 20.9614C105.913 18.0994 104.785 16.6079 102.769 15.4389C101.761 14.8745 100.673 14.4714 99.4232 14.1893V13.9877C100.27 13.7459 101.076 13.3831 101.761 12.8993C102.89 12.0528 104.059 10.7226 104.059 8.46519C104.059 4.03104 100.834 0.806207 93.3768 0.806207H80.8806V29.0235ZM94.9891 16.9304C98.6573 16.9304 100.229 18.5025 100.229 20.7598C100.229 22.8157 98.6573 24.3878 94.9891 24.3878H86.5239V16.9304H94.9891ZM86.5239 12.2947V5.44191H93.3768C96.6015 5.44191 98.214 7.05432 98.214 8.86829C98.214 10.6823 96.6015 12.2947 93.3768 12.2947H86.5239ZM111.113 0.806207V29.0235H121.997C131.067 29.0235 137.113 23.1382 137.113 14.9149C137.113 6.85277 131.067 0.806207 121.997 0.806207H111.113ZM121.997 5.44191C127.439 5.44191 131.269 9.27139 131.269 14.9149C131.269 20.5582 127.439 24.3878 121.997 24.3878H116.757V5.44191H121.997Z" fill="#70DF4B"/>
<path d="M46.0496 26.8018H0V29.2254H46.0496V26.8018Z" fill="#70DF4B"/>
<path d="M168.444 26.8018H144.207V29.2254H168.444V26.8018Z" fill="#70DF4B"/>
<path d="M3.75882 4.68995L2.69241 8.4224H0.292969V10.4219H2.69241V17.2203C2.69241 20.1529 4.82523 22.2858 7.75787 22.2858C8.63766 22.2858 9.33083 22.0991 9.94401 21.8859C10.2639 21.7526 10.5572 21.6193 10.8238 21.486L10.1573 19.753C9.94401 19.8597 9.70407 19.9397 9.46413 20.0196C9.0109 20.1529 8.42438 20.2862 7.75787 20.2862C6.15825 20.2862 4.95853 19.1132 4.95853 17.2203V10.4219H9.62409V8.4224H4.95853V4.68995H3.75882ZM13.745 21.7526H16.0111V10.4219C16.3577 10.3153 16.7309 10.2353 17.1308 10.1553C17.7973 10.022 18.7571 9.88871 19.7435 9.88871C22.6496 9.88871 24.4092 11.6216 24.4092 13.8878V21.7526H26.6753V13.8878C26.6753 10.4219 24.1426 7.88919 19.7435 7.88919C18.7571 7.88919 17.8507 8.02249 17.1308 8.15579C16.7309 8.23577 16.3577 8.31576 16.0111 8.4224V3.09033H13.745V21.7526ZM43.6119 15.0875C43.6119 10.9551 40.5459 7.88919 36.8135 7.88919C33.0811 7.88919 30.0151 10.9551 30.0151 15.0875C30.0151 19.0865 33.241 22.2858 37.6133 22.2858C39.1063 22.2858 40.226 21.9125 41.1058 21.486C41.6124 21.246 42.0389 20.9794 42.4122 20.6861L41.4791 19.0865C41.1858 19.3265 40.8392 19.5131 40.4393 19.6731C39.7728 19.993 38.813 20.2862 37.6133 20.2862C34.6807 20.2862 32.8411 18.3934 32.4145 16.1539H42.5455L43.6119 15.0875ZM32.4145 14.1544C32.7078 11.7549 34.5207 9.88871 36.8135 9.88871C39.1063 9.88871 40.9192 11.7549 41.2125 14.1544H32.4145Z" fill="white"/>
<path d="M148.991 9.88868C149.977 9.88868 150.884 10.102 151.603 10.3419C152.003 10.4752 152.377 10.6352 152.723 10.8218L153.39 8.95557C153.016 8.76895 152.59 8.58233 152.137 8.42237C151.364 8.1291 150.27 7.88916 148.991 7.88916C147.578 7.88916 146.431 8.1291 145.472 8.42237C144.965 8.58233 144.485 8.76895 144.059 8.95557V21.7525H146.325V10.4219C146.565 10.3152 146.805 10.2353 147.098 10.1553C147.604 10.022 148.244 9.88868 148.991 9.88868ZM168.991 8.42237H166.725V19.753C166.379 19.8596 166.005 19.9396 165.605 20.0196C164.939 20.1529 163.979 20.2862 162.993 20.2862C160.087 20.2862 158.327 18.5533 158.327 16.2872V8.42237H156.061V16.2872C156.061 19.753 158.594 22.2857 162.993 22.2857C164.672 22.2857 166.085 22.0458 167.232 21.7525C167.872 21.5926 168.458 21.4059 168.991 21.2193V8.42237Z" fill="white"/>
</svg>
