<svg width="47" height="48" viewBox="0 0 47 48" fill="none" xmlns="http://www.w3.org/2000/svg">
<path d="M12.4832 0.988427L11.8165 3.29475H10.3164V4.53029H11.8165V8.7311C11.8165 10.5432 13.1499 11.8611 14.9833 11.8611C15.5333 11.8611 15.9667 11.7458 16.3502 11.614C16.5501 11.5316 16.7334 11.4493 16.9002 11.3669L16.4835 10.2961C16.3502 10.362 16.2001 10.4114 16.0501 10.4608C15.7667 10.5432 15.4 10.6256 14.9833 10.6256C13.9833 10.6256 13.2332 9.90073 13.2332 8.7311V4.53029H16.1501V3.29475H13.2332V0.988427H12.4832ZM18.7265 11.5316H20.1432V4.53029C20.3598 4.46439 20.5932 4.41497 20.8432 4.36555C21.2599 4.28318 21.86 4.20081 22.4767 4.20081C24.2934 4.20081 25.3936 5.27161 25.3936 6.67188V11.5316H26.8102V6.67188C26.8102 4.53029 25.2268 2.96528 22.4767 2.96528C21.86 2.96528 21.2932 3.04765 20.8432 3.13002C20.5932 3.17943 20.3598 3.22885 20.1432 3.29475V0H18.7265V11.5316ZM37.3987 7.41319C37.3987 4.85976 35.482 2.96528 33.1485 2.96528C30.815 2.96528 28.8983 4.85976 28.8983 7.41319C28.8983 9.88426 30.915 11.8611 33.6485 11.8611C34.5819 11.8611 35.282 11.6305 35.832 11.3669C36.1487 11.2186 36.4153 11.0539 36.6487 10.8727L36.0653 9.88426C35.882 10.0325 35.6654 10.1478 35.4153 10.2467C34.9986 10.4444 34.3986 10.6256 33.6485 10.6256C31.8151 10.6256 30.6651 9.45595 30.3983 8.07215H36.7321L37.3987 7.41319ZM30.3983 6.83661C30.5816 5.35397 31.7151 4.20081 33.1485 4.20081C34.5819 4.20081 35.7154 5.35397 35.8987 6.83661H30.3983Z" fill="white"/>
<path d="M8.4005 17.6016C3.40385 17.6016 0 20.9441 0 25.5807C0 30.2173 3.40385 33.5601 8.4005 33.5601C10.0588 33.5601 11.3243 33.1503 12.3062 32.6975C12.8517 32.4386 13.3317 32.1584 13.7463 31.8349L12.4371 29.786C12.1098 30.0018 11.7607 30.1958 11.3461 30.3684C10.6479 30.6919 9.73149 30.9721 8.6187 30.9721C5.36759 30.9721 3.16384 28.7941 3.16384 25.5807C3.16384 22.3675 5.36759 20.1893 8.6187 20.1893C9.64421 20.1893 10.4952 20.4051 11.1716 20.6639C11.5425 20.8148 11.8916 20.9657 12.2189 21.1599L13.5281 19.1112C13.1353 18.8308 12.6771 18.5719 12.1534 18.3564C11.2588 17.9897 9.99333 17.6016 8.4005 17.6016ZM16.3662 33.1288H23.9813C27.9306 33.1288 30.0034 31.0801 30.0034 28.8157C29.9162 27.2845 29.3053 26.4866 28.2143 25.8611C27.6687 25.5592 27.0797 25.3436 26.4032 25.1926V25.0848C26.8614 24.9554 27.2978 24.7613 27.6687 24.5026C28.2797 24.0496 28.9126 23.338 28.9126 22.1302C28.9126 19.758 27.1669 18.0329 23.1304 18.0329H16.3662V33.1288ZM24.0031 26.659C25.9887 26.659 26.8396 27.5001 26.8396 28.7079C26.8396 29.8076 25.9887 30.6488 24.0031 30.6488H19.421V26.659H24.0031ZM19.421 24.1791V20.5128H23.1304C24.8759 20.5128 25.7488 21.3756 25.7488 22.346C25.7488 23.3165 24.8759 24.1791 23.1304 24.1791H19.421ZM32.7308 18.0329V33.1288H38.6222C43.5315 33.1288 46.8045 29.9802 46.8045 25.5807C46.8045 21.2676 43.5315 18.0329 38.6222 18.0329H32.7308ZM38.6222 20.5128C41.5678 20.5128 43.6406 22.5617 43.6406 25.5807C43.6406 28.6 41.5678 30.6488 38.6222 30.6488H35.7856V20.5128H38.6222Z" fill="#3F892C"/>
<path d="M19.0639 40.2365C19.6807 40.2365 20.2474 40.3683 20.6974 40.5166C20.9473 40.5989 21.1807 40.6978 21.3975 40.8132L21.8141 39.66C21.5808 39.5446 21.3141 39.4294 21.0308 39.3305C20.5473 39.1493 19.864 39.001 19.0639 39.001C18.1805 39.001 17.4639 39.1493 16.8639 39.3305C16.5472 39.4294 16.2471 39.5446 15.9805 39.66V47.5674H17.3972V40.566C17.5472 40.5001 17.6973 40.4508 17.8806 40.4013C18.1972 40.3188 18.5972 40.2365 19.0639 40.2365ZM31.5679 39.3305H30.1512V46.3318C29.9345 46.3978 29.7011 46.4472 29.4512 46.4965C29.0345 46.579 28.4345 46.6613 27.8177 46.6613C26.0009 46.6613 24.9009 45.5905 24.9009 44.1903V39.3305H23.4842V44.1903C23.4842 46.3318 25.0675 47.8969 27.8177 47.8969C28.8677 47.8969 29.7511 47.7486 30.4679 47.5674C30.8679 47.4685 31.2345 47.3533 31.5679 47.2379V39.3305Z" fill="white"/>
<path d="M46.6856 14.7778H0.113281V16.0745H46.6856V14.7778Z" fill="#3F892C"/>
<path d="M46.6856 34.8755H0.113281V36.1721H46.6856V34.8755Z" fill="#3F892C"/>
</svg>
