<svg width="275" height="48" viewBox="0 0 275 48" fill="none" xmlns="http://www.w3.org/2000/svg">
<path fill-rule="evenodd" clip-rule="evenodd" d="M39.552 5.13992C36.693 7.38164 34.3818 10.2447 32.7936 13.5122C31.2053 16.7797 30.3817 20.3659 30.3851 23.9989C30.3814 27.6323 31.2048 31.2189 32.7931 34.4868C34.3813 37.7547 36.6927 40.6182 39.552 42.8601C42.4108 40.6183 44.7219 37.7552 46.3101 34.4877C47.8983 31.2202 48.722 27.6341 48.7188 24.0011C48.7227 20.3674 47.8993 16.7804 46.3111 13.5121C44.7228 10.2438 42.4114 7.37999 39.552 5.13769V5.13992ZM54.384 0C49.4712 0 44.9011 1.47809 41.0991 4.01132C41.2927 4.16937 41.4908 4.32741 41.6778 4.49214C44.4702 6.91816 46.7095 9.91516 48.2444 13.2807C49.7794 16.6463 50.5742 20.3021 50.5753 24.0011C50.5753 31.4784 47.332 38.5883 41.6778 43.5079C41.4908 43.6704 41.2927 43.8284 41.0991 43.9887C45.033 46.6108 49.6564 48.0068 54.384 48C67.6379 48 78.3852 37.2549 78.3852 24.0011C78.3852 10.7451 67.6379 0 54.384 0ZM37.4261 43.5079C37.6131 43.6704 37.8112 43.8284 38.0049 43.9887C34.0711 46.6111 29.4476 48.0072 24.7199 48C11.4638 48 0.71875 37.2549 0.71875 24.0011C0.71875 10.7451 11.4638 0 24.7199 0C29.6327 0 34.2028 1.47809 38.0049 4.01132C37.8112 4.16937 37.6131 4.32741 37.4261 4.48992C34.6335 6.91627 32.3941 9.91365 30.8592 13.2796C29.3243 16.6456 28.5295 20.3017 28.5286 24.0011C28.5286 31.4806 31.7697 38.5906 37.4261 43.5079ZM126.316 24.1035C126.316 21.2987 128.153 18.9948 131.16 18.9948C134.032 18.9948 135.968 21.1985 135.968 24.1035C135.968 27.0085 134.032 29.2123 131.16 29.2123C128.155 29.2123 126.316 26.9083 126.316 24.1035ZM139.241 24.1035V16.1232H135.768V18.0598C134.666 16.624 132.997 15.7225 130.726 15.7225C126.252 15.7225 122.743 19.2285 122.743 24.1035C122.743 28.9785 126.249 32.4846 130.726 32.4846C132.997 32.4846 134.666 31.583 135.768 30.1472V32.0839H139.241V24.1035ZM256.508 24.1035C256.508 21.2987 258.347 18.9948 261.352 18.9948C264.224 18.9948 266.16 21.1985 266.16 24.1035C266.16 27.0085 264.224 29.2123 261.352 29.2123C258.347 29.2123 256.51 26.9083 256.51 24.1035H256.508ZM273.315 31.327V31.5786H273.548C273.593 31.5807 273.637 31.5699 273.675 31.5474C273.707 31.5251 273.72 31.494 273.72 31.4494C273.721 31.4317 273.717 31.414 273.709 31.398C273.702 31.3821 273.69 31.3684 273.675 31.3582C273.637 31.3353 273.593 31.3245 273.548 31.327H273.317H273.315ZM273.551 31.1489C273.671 31.1489 273.764 31.1779 273.829 31.2313C273.861 31.2575 273.887 31.2909 273.904 31.3288C273.921 31.3667 273.929 31.408 273.927 31.4494C273.928 31.4854 273.922 31.5212 273.909 31.5546C273.895 31.5879 273.875 31.6181 273.849 31.6431C273.787 31.6977 273.709 31.7306 273.626 31.7366L273.936 32.0928H273.695L273.408 31.7366H273.317V32.0928H273.117V31.1512H273.551V31.1489ZM273.491 32.4133C273.594 32.4142 273.696 32.3944 273.791 32.355C273.886 32.3156 273.973 32.2575 274.045 32.184C274.119 32.1111 274.177 32.024 274.216 31.928C274.256 31.832 274.275 31.7291 274.274 31.6253C274.276 31.4946 274.244 31.3656 274.183 31.25C274.122 31.1345 274.033 31.0361 273.924 30.9637C273.816 30.8914 273.69 30.8474 273.56 30.8358C273.43 30.8242 273.299 30.8454 273.179 30.8974C272.991 30.9774 272.84 31.1274 272.76 31.3159C272.719 31.4133 272.697 31.5182 272.697 31.6242C272.697 31.7302 272.719 31.8351 272.76 31.9325C272.821 32.0761 272.922 32.1986 273.052 32.2842C273.182 32.3698 273.335 32.4148 273.491 32.4133ZM273.491 30.6102C273.762 30.6084 274.023 30.7143 274.216 30.9046C274.409 31.0949 274.519 31.3541 274.521 31.6253C274.522 31.7584 274.496 31.8903 274.444 32.0129C274.392 32.1354 274.315 32.2459 274.219 32.3376C274.023 32.5272 273.763 32.6348 273.491 32.6381C273.219 32.6405 272.957 32.5354 272.763 32.3456C272.569 32.1558 272.457 31.8969 272.453 31.6253C272.454 31.4906 272.482 31.3574 272.535 31.2334C272.588 31.1094 272.665 30.9972 272.761 30.903C272.858 30.8089 272.972 30.7347 273.097 30.6849C273.222 30.635 273.356 30.6104 273.491 30.6125V30.6102ZM269.433 24.1035V9.7122H265.96V18.0598C264.858 16.624 263.189 15.7225 260.918 15.7225C256.444 15.7225 252.938 19.2285 252.938 24.1035C252.938 28.9785 256.444 32.4846 260.918 32.4846C263.189 32.4846 264.858 31.583 265.96 30.1472V32.0839H269.433V24.1035ZM182.314 18.8278C184.552 18.8278 185.987 20.2302 186.355 22.7011H178.074C178.441 20.3972 179.843 18.8278 182.314 18.8278ZM182.381 15.7225C177.706 15.7225 174.434 19.1283 174.434 24.1035C174.434 29.1789 177.84 32.4846 182.615 32.4846C185.019 32.4846 187.223 31.8835 189.159 30.2474L187.457 27.6763C186.121 28.7448 184.418 29.3458 182.815 29.3458C180.578 29.3458 178.541 28.3107 178.04 25.4391H189.894C189.927 25.0051 189.961 24.571 189.961 24.1035C189.927 19.1283 186.855 15.7225 182.381 15.7225ZM224.286 24.1035C224.286 21.2987 226.123 18.9948 229.13 18.9948C232.002 18.9948 233.938 21.1985 233.938 24.1035C233.938 27.0085 232.002 29.2123 229.13 29.2123C226.125 29.2123 224.286 26.9083 224.286 24.1035ZM237.211 24.1035V16.1232H233.738V18.0598C232.636 16.624 230.967 15.7225 228.694 15.7225C224.219 15.7225 220.714 19.2285 220.714 24.1035C220.714 28.9785 224.219 32.4846 228.694 32.4846C230.964 32.4846 232.634 31.583 233.738 30.1472V32.0839H237.211V24.1035ZM204.688 24.1035C204.688 28.9452 208.058 32.4846 213.203 32.4846C215.607 32.4846 217.21 31.9503 218.946 30.5813L217.276 27.7765C215.972 28.7114 214.605 29.2123 213.1 29.2123C210.329 29.1789 208.292 27.1755 208.292 24.1035C208.292 21.0316 210.329 19.0282 213.1 18.9948C214.603 18.9948 215.972 19.4956 217.274 20.4306L218.944 17.6258C217.207 16.2567 215.605 15.7225 213.201 15.7225C208.058 15.7225 204.686 19.2619 204.686 24.1035H204.688ZM249.432 15.7225C247.428 15.7225 246.126 16.6574 245.224 18.0598V16.1232H241.785V32.0839H245.258V23.1352C245.258 20.4973 246.393 19.0282 248.664 19.0282C249.365 19.0282 250.099 19.1283 250.834 19.4288L251.902 16.1566C251.109 15.8726 250.274 15.7258 249.432 15.7225ZM156.403 17.392C154.734 16.2901 152.43 15.7225 149.892 15.7225C145.852 15.7225 143.247 17.6591 143.247 20.8313C143.247 23.4357 145.184 25.0385 148.755 25.5393L150.393 25.7731C152.296 26.0402 153.198 26.541 153.198 27.4426C153.198 28.678 151.929 29.3792 149.558 29.3792C147.154 29.3792 145.418 28.6112 144.247 27.7097L142.613 30.4143C144.514 31.8167 146.92 32.4846 149.525 32.4846C154.133 32.4846 156.804 30.3142 156.804 27.2756C156.804 24.4708 154.7 23.0016 151.228 22.5008L149.592 22.267C148.089 22.0667 146.887 21.7662 146.887 20.6977C146.887 19.529 148.022 18.8278 149.926 18.8278C151.962 18.8278 153.932 19.5958 154.901 20.1968L156.403 17.392ZM201.18 15.7225C199.177 15.7225 197.874 16.6574 196.973 18.0598V16.1232H193.534V32.0839H197.006V23.1352C197.006 20.4973 198.141 19.0282 200.412 19.0282C201.113 19.0282 201.848 19.1283 202.582 19.4288L203.651 16.1566C202.858 15.8725 202.022 15.7257 201.18 15.7225ZM171.563 16.1232H165.886V11.2816H162.38V16.1232H159.141V19.2953H162.38V26.5744C162.38 30.2808 163.816 32.4846 167.923 32.4846C169.426 32.4846 171.162 32.0171 172.264 31.2491L171.262 28.2773C170.227 28.8784 169.092 29.1789 168.19 29.1789C166.454 29.1789 165.886 28.1104 165.886 26.5076V19.2953H171.563V16.1232ZM119.674 32.0839V22.0667C119.674 18.2936 117.27 15.7559 113.396 15.7225C111.357 15.6891 109.256 16.3235 107.787 18.5607C106.683 16.791 104.946 15.7225 102.511 15.7225C100.806 15.7225 99.1363 16.2234 97.8363 18.0932V16.1232H94.3637V32.0839H97.8674V23.2354C97.8674 20.464 99.4034 18.9948 101.774 18.9948C104.078 18.9948 105.247 20.4973 105.247 23.202V32.0839H108.753V23.2354C108.753 20.464 110.355 18.9948 112.659 18.9948C115.03 18.9948 116.165 20.4973 116.165 23.202V32.0839H119.671H119.674ZM77.635 38.8733V37.9383H77.3901L77.1119 38.5817L76.8314 37.9406H76.5888V38.8711H76.7602V38.1698L77.0228 38.7753H77.2009L77.4636 38.1676V38.8711H77.635V38.8733ZM76.0946 38.8733V38.0986H76.4062V37.9428H75.6138V38.0986H75.9254V38.8711H76.0946V38.8733Z" fill="#D7D7D7"/>
</svg>
