<svg width="121" height="36" viewBox="0 0 121 36" fill="none" xmlns="http://www.w3.org/2000/svg">
<path fill-rule="evenodd" clip-rule="evenodd" d="M32.4734 0.808594V0.824177C32.4578 0.824177 27.7654 0.808594 26.5143 5.31187C25.3679 9.44116 22.1357 20.8407 22.0467 21.1546H21.1518C21.1518 21.1546 17.8461 9.50127 16.6841 5.29628C15.4331 0.793012 10.725 0.808594 10.725 0.808594H0V35.0673H10.725V14.7213H11.6199L17.8751 35.0673H25.3234L31.5786 14.7369H32.4734V35.0695H43.1985V0.808594H32.4734ZM71.7095 0.808594C71.7095 0.808594 68.5397 1.09353 67.0527 4.39919L59.3884 21.1546H58.4869V0.808594H47.6683V35.0673H57.8859C57.8859 35.0673 61.2071 34.7712 62.6941 31.4789L70.207 14.7213H71.1085V35.0673H81.927V0.808594H71.7095ZM86.3969 15.7052V35.0695H96.9305V23.7613H108.341C113.316 23.7613 117.53 20.3999 119.093 15.703H86.3992L86.3969 15.7052ZM108.991 0.808594H85.0413C86.2389 7.02591 91.1295 12.0189 97.4581 13.6439C98.9283 14.0237 100.441 14.2159 101.959 14.216H120.417C120.582 13.4725 120.658 12.7179 120.658 11.9321C120.658 5.78601 115.438 0.808594 108.991 0.808594Z" fill="#D7D7D7"/>
</svg>
