<svg width="119" height="39" viewBox="0 0 119 39" fill="none" xmlns="http://www.w3.org/2000/svg">
<path d="M51.7066 36.738H42.3394L48.1983 0.58275H57.5633L51.7066 36.738ZM84.2045 2.15211C81.4822 1.10206 78.5876 0.56981 75.6699 0.58275C66.2738 0.58275 59.6557 5.60024 59.6157 12.7703C59.5378 18.0616 64.3527 21.0022 67.9544 22.7652C71.6363 24.5683 72.8873 25.7459 72.8873 27.3508C72.8495 29.8217 69.9133 30.957 67.1731 30.957C63.3732 30.957 61.3386 30.3716 58.2467 28.9981L56.9912 28.4104L55.66 36.6802C57.8927 37.6975 62.0042 38.6012 66.2738 38.6391C76.2575 38.6391 82.7576 33.7017 82.8355 26.0597C82.8733 21.8659 80.3289 18.6515 74.8462 16.0248C71.5183 14.3397 69.4837 13.2044 69.4837 11.4792C69.5215 9.90984 71.2066 8.30487 74.9642 8.30487C78.0584 8.22696 80.3289 8.97046 82.0519 9.71618L82.9134 10.1057L84.2045 2.15211ZM98.972 23.9294C99.76 21.8525 102.783 13.8143 102.783 13.8143C102.745 13.89 103.569 11.6996 104.041 10.3528L104.709 13.4693C104.709 13.4693 106.514 22.1219 106.908 23.9316H98.972V23.9294ZM110.757 0.58275H103.373C101.096 0.58275 99.366 1.23498 98.3821 3.58345L84.2022 36.738H94.2194L96.2228 31.3154H108.479C108.753 32.5843 109.619 36.738 109.619 36.738H118.456L110.754 0.58275H110.757ZM10.4492 5.18397C7.51306 3.55896 4.18291 2.25228 0.476562 1.32847L0.639063 0.58275H16.4595C18.6032 0.660661 20.3439 1.32847 20.9116 3.68807L24.3486 20.6683C22.8171 16.6124 20.2794 12.8682 16.8001 9.70505C20.0457 12.817 22.5945 16.6369 23.683 20.2565L24.7092 25.265L34.1031 0.58275H44.2427L29.1702 36.738H19.0261L10.4492 5.18397Z" fill="#D7D7D7"/>
</svg>
