<svg width="48" height="48" viewBox="0 0 48 48" fill="none" xmlns="http://www.w3.org/2000/svg">
<path d="M14.582 41.648L4.00002 44L6.35202 33.418C4.80309 30.5208 3.99508 27.2853 4.00002 24C4.00002 12.954 12.954 4 24 4C35.046 4 44 12.954 44 24C44 35.046 35.046 44 24 44C20.7147 44.0049 17.4793 43.1969 14.582 41.648ZM15.162 37.422L16.468 38.122C18.7851 39.3603 21.3728 40.0055 24 40C27.1645 40 30.258 39.0616 32.8891 37.3035C35.5203 35.5454 37.5711 33.0466 38.7821 30.1229C39.9931 27.1993 40.31 23.9823 39.6926 20.8786C39.0752 17.7749 37.5514 14.9239 35.3137 12.6863C33.0761 10.4487 30.2252 8.9248 27.1215 8.30744C24.0178 7.69007 20.8007 8.00693 17.8771 9.21793C14.9535 10.4289 12.4546 12.4797 10.6965 15.1109C8.93841 17.7421 8.00002 20.8355 8.00002 24C8.00002 26.668 8.65002 29.236 9.88002 31.532L10.578 32.838L9.26802 38.732L15.162 37.422ZM14 24H18C18 25.5913 18.6322 27.1174 19.7574 28.2426C20.8826 29.3679 22.4087 30 24 30C25.5913 30 27.1174 29.3679 28.2427 28.2426C29.3679 27.1174 30 25.5913 30 24H34C34 26.6522 32.9465 29.1957 31.0711 31.0711C29.1957 32.9464 26.6522 34 24 34C21.3479 34 18.8043 32.9464 16.929 31.0711C15.0536 29.1957 14 26.6522 14 24Z" fill="url(#paint0_linear_204_268)"/>
<defs>
<linearGradient id="paint0_linear_204_268" x1="4" y1="44" x2="44" y2="4" gradientUnits="userSpaceOnUse">
<stop stop-color="#7081F6"/>
<stop offset="1" stop-color="#31C5F9"/>
</linearGradient>
</defs>
</svg>
