<svg width="48" height="48" viewBox="0 0 48 48" fill="none" xmlns="http://www.w3.org/2000/svg">
<path d="M24 4C35.046 4 44 12.954 44 24C44 28.8 42.308 33.208 39.488 36.656L39.556 36.728L36.728 39.556L36.656 39.488C33.0873 42.4125 28.6139 44.0073 24 44C12.954 44 4 35.046 4 24C4 12.954 12.954 4 24 4ZM8 24C7.99996 26.9939 8.8399 29.9277 10.4243 32.4679C12.0088 35.0081 14.2741 37.0528 16.9629 38.3696C19.6516 39.6863 22.6558 40.2223 25.634 39.9166C28.6122 39.6108 31.4449 38.4756 33.81 36.64L29.06 31.888C28.7116 31.9628 28.3563 32.0004 28 32H26V36H22V32H17V28H28C28.2499 28.0005 28.4909 27.9073 28.6756 27.739C28.8602 27.5706 28.9752 27.3392 28.9978 27.0904C29.0203 26.8415 28.9489 26.5932 28.7976 26.3943C28.6462 26.1955 28.4259 26.0605 28.18 26.016L28 26H20C19.1223 26 18.2601 25.7689 17.5 25.3301C16.74 24.8912 16.1088 24.26 15.67 23.4999C15.2311 22.7399 15.0001 21.8776 15.0001 21C15.0001 20.1223 15.2312 19.2601 15.67 18.5L11.358 14.188C9.17557 16.9926 7.99357 20.4463 8 24ZM24 8C20.304 8 16.9 9.254 14.19 11.36L18.94 16.11C19.2884 16.0358 19.6438 15.999 20 16H22V12H26V16H31V20H20C19.7501 19.9995 19.5091 20.0927 19.3244 20.261C19.1398 20.4294 19.0248 20.6608 19.0022 20.9096C18.9797 21.1585 19.0511 21.4068 19.2024 21.6057C19.3538 21.8045 19.5741 21.9395 19.82 21.984L20 22H28C28.8777 22 29.7399 22.2311 30.5 22.6699C31.26 23.1088 31.8912 23.74 32.33 24.5001C32.7689 25.2601 32.9999 26.1224 32.9999 27C32.9999 27.8777 32.7688 28.7399 32.33 29.5L36.642 33.81C38.4777 31.4448 39.6129 28.6119 39.9186 25.6335C40.2243 22.6552 39.6882 19.6508 38.3711 16.962C37.0541 14.2732 35.0091 12.0078 32.4686 10.4235C29.9281 8.83925 26.994 7.99958 24 8Z" fill="url(#paint0_linear_204_291)"/>
<defs>
<linearGradient id="paint0_linear_204_291" x1="4" y1="44" x2="44" y2="4.00002" gradientUnits="userSpaceOnUse">
<stop stop-color="#7081F6"/>
<stop offset="1" stop-color="#31C5F9"/>
</linearGradient>
</defs>
</svg>
